<svg width="182" height="182" viewBox="0 0 182 182" fill="none" xmlns="http://www.w3.org/2000/svg">
<path d="M144.159 112.603C144.159 120.101 138.419 126.259 131.089 126.915C130.66 126.955 130.226 126.975 129.785 126.975C121.848 126.975 115.414 120.541 115.414 112.603C115.414 108.567 117.075 104.923 119.752 102.311C122.34 99.7866 125.882 98.228 129.785 98.228C137.725 98.228 144.161 104.662 144.161 112.603H144.159Z" stroke="#50AA57" stroke-width="3" stroke-linecap="round" stroke-linejoin="round"/>
<path d="M78.2546 82.493C94.8407 82.493 108.287 69.0473 108.287 52.4611C108.287 35.8749 94.8407 22.4292 78.2546 22.4292C61.6684 22.4292 48.2227 35.8749 48.2227 52.4611C48.2227 69.0473 61.6684 82.493 78.2546 82.493Z" stroke="#50AA57" stroke-width="3" stroke-linecap="round" stroke-linejoin="round"/>
<path d="M109.549 131.683L107.246 136.325H24.5977C24.5977 114.561 37.5552 95.8231 56.1761 87.4066C58.867 86.1919 61.6745 85.1923 64.5806 84.4301C68.9447 83.2818 73.528 82.6704 78.2521 82.6704C82.9762 82.6704 87.3946 83.2597 91.6903 84.3698C94.5843 85.1119 97.3818 86.0933 100.063 87.2899C103.721 88.9189 107.166 90.9461 110.335 93.3192C108.652 93.7416 107.031 94.2263 106.152 95.4349C104.471 97.7437 106.18 101.872 105.283 104.644C104.415 107.319 100.573 109.641 100.573 112.608C100.573 115.574 104.415 117.893 105.283 120.568C106.182 123.341 104.471 127.468 106.152 129.777C106.894 130.796 108.159 131.299 109.549 131.685V131.683Z" stroke="#50AA57" stroke-width="3" stroke-linecap="round" stroke-linejoin="round"/>
<path d="M158.997 112.604C158.997 109.639 155.156 107.314 154.287 104.64C153.388 101.866 155.099 97.7395 153.418 95.4308C151.723 93.1019 147.258 93.4579 144.925 91.7625C142.617 90.0832 141.589 85.7131 138.816 84.8161C136.139 83.9473 132.75 86.8453 129.784 86.8453C126.817 86.8453 123.433 83.9453 120.756 84.8121C117.982 85.7131 116.955 90.0832 114.646 91.7625C113.524 92.581 111.903 92.9189 110.336 93.3151C108.653 93.7374 107.032 94.2221 106.153 95.4308C104.472 97.7395 106.181 101.868 105.284 104.64C104.415 107.314 100.574 109.637 100.574 112.604C100.574 115.57 104.415 117.889 105.284 120.564C106.183 123.337 104.472 127.464 106.153 129.773C106.895 130.792 108.16 131.295 109.55 131.681C111.34 132.182 113.333 132.483 114.646 133.441C115.561 134.106 116.275 135.194 116.975 136.323C118.043 138.038 119.082 139.846 120.756 140.391C122.349 140.906 124.187 140.092 126.041 139.345C127.308 138.837 128.581 138.358 129.784 138.358C132.748 138.358 136.137 141.26 138.816 140.391C139.429 140.192 139.956 139.826 140.428 139.355C142.104 137.694 143.125 134.752 144.925 133.443C147.254 131.747 151.723 132.107 153.418 129.775C154.114 128.819 154.231 127.548 154.186 126.191C154.128 124.276 153.76 122.189 154.287 120.566C155.156 117.891 158.997 115.57 158.997 112.606V112.604Z" stroke="#50AA57" stroke-width="3" stroke-linecap="round" stroke-linejoin="round"/>
<path d="M165.703 149.399L154.847 148.024L149.421 157.478L140.43 139.356C142.105 137.694 143.127 134.752 144.927 133.443C147.255 131.748 151.724 132.108 153.419 129.775C154.115 128.819 154.232 127.548 154.188 126.191L165.703 149.401V149.399Z" stroke="#50AA57" stroke-width="3" stroke-linecap="round" stroke-linejoin="round"/>
<path d="M126.043 139.346L117.048 157.478L111.622 148.023L100.766 149.399L107.251 136.323L109.554 131.681C111.344 132.182 113.337 132.484 114.65 133.441C115.565 134.107 116.279 135.195 116.979 136.323C118.047 138.038 119.087 139.846 120.76 140.391C122.353 140.906 124.191 140.092 126.045 139.346H126.043Z" stroke="#50AA57" stroke-width="3" stroke-linecap="round" stroke-linejoin="round"/>
<path d="M100.065 87.2859L87.7815 106.687L84.1675 101.579L78.2146 93.1603L78.0859 92.9793L78.1543 92.8808L78.0859 92.8385L91.1622 84.6654L91.6951 84.3657C94.5891 85.1078 97.3866 86.0892 100.067 87.2859H100.065Z" stroke="#50AA57" stroke-width="3" stroke-linecap="round" stroke-linejoin="round"/>
<path d="M78.0163 92.8824L78.0847 92.981L77.956 93.162L72.524 100.842L68.3891 106.687L56.1797 87.4042C58.8706 86.1895 61.6781 85.1899 64.5841 84.4277L65.0105 84.6671L78.0867 92.8402L78.0183 92.8824H78.0163Z" stroke="#50AA57" stroke-width="3" stroke-linecap="round" stroke-linejoin="round"/>
<path d="M85.5 126.542L78.4394 133.474L71.5 126.542L74.2733 101.452L78.2812 94.4741H78.4723L82.8664 102.122L85.5 126.542Z" stroke="#50AA57" stroke-width="3" stroke-linecap="round" stroke-linejoin="round"/>
</svg>
