<svg width="82" height="78" viewBox="0 0 82 78" fill="none" xmlns="http://www.w3.org/2000/svg">
<path d="M31.4584 34.7884C40.6221 34.7884 48.0507 27.3599 48.0507 18.1962C48.0507 9.0326 40.6221 1.604 31.4584 1.604C22.2948 1.604 14.8662 9.0326 14.8662 18.1962C14.8662 27.3599 22.2948 34.7884 31.4584 34.7884Z" stroke="#50AA57" stroke-width="3" stroke-linecap="round" stroke-linejoin="round"/>
<path d="M48.7479 61.9651L47.4757 64.5296H1.81348C1.81348 52.5051 8.97237 42.1529 19.2601 37.5029C20.7468 36.8318 22.2979 36.2796 23.9035 35.8585C26.3146 35.224 28.8468 34.8862 31.4568 34.8862C34.0668 34.8862 36.5079 35.2118 38.8813 35.8251C40.4801 36.2351 42.0257 36.7773 43.5068 37.4385C45.5279 38.3385 47.4313 39.4585 49.1824 40.7696C48.2524 41.0029 47.3568 41.2707 46.8713 41.9385C45.9424 43.214 46.8868 45.4951 46.3913 47.0262C45.9113 48.504 43.789 49.7873 43.789 51.4262C43.789 53.0651 45.9113 54.3462 46.3913 55.824C46.8879 57.3562 45.9424 59.6362 46.8713 60.9118C47.2813 61.4751 47.9801 61.7529 48.7479 61.9662V61.9651Z" stroke="#50AA57" stroke-width="3" stroke-linecap="round" stroke-linejoin="round"/>
<path d="M76.0668 51.4243C76.0668 49.7865 73.9446 48.502 73.4646 47.0243C72.968 45.492 73.9135 43.212 72.9846 41.9365C72.048 40.6498 69.5813 40.8465 68.2924 39.9098C67.0168 38.982 66.4491 36.5676 64.9168 36.072C63.438 35.592 61.5657 37.1932 59.9268 37.1932C58.288 37.1932 56.418 35.5909 54.9391 36.0698C53.4068 36.5676 52.8391 38.982 51.5635 39.9098C50.9435 40.362 50.048 40.5487 49.1824 40.7676C48.2524 41.0009 47.3568 41.2687 46.8713 41.9365C45.9424 43.212 46.8868 45.4932 46.3913 47.0243C45.9113 48.502 43.7891 49.7854 43.7891 51.4243C43.7891 53.0631 45.9113 54.3443 46.3913 55.822C46.888 57.3543 45.9424 59.6343 46.8713 60.9098C47.2813 61.4731 47.9802 61.7509 48.748 61.9643C49.7368 62.2409 50.838 62.4076 51.5635 62.9365C52.0691 63.3043 52.4635 63.9054 52.8502 64.5287C53.4402 65.4765 54.0146 66.4754 54.9391 66.7765C55.8191 67.0609 56.8346 66.6109 57.8591 66.1987C58.5591 65.9176 59.2624 65.6531 59.9268 65.6531C61.5646 65.6531 63.4368 67.2565 64.9168 66.7765C65.2557 66.6665 65.5468 66.4643 65.808 66.2043C66.7335 65.2865 67.298 63.6609 68.2924 62.9376C69.5791 62.0009 72.048 62.1998 72.9846 60.9109C73.3691 60.3831 73.4335 59.6809 73.4091 58.9309C73.3768 57.8731 73.1735 56.7198 73.4646 55.8232C73.9446 54.3454 76.0668 53.0631 76.0668 51.4254V51.4243Z" stroke="#50AA57" stroke-width="3" stroke-linecap="round" stroke-linejoin="round"/>
<path d="M79.7719 71.7534L73.7741 70.9934L70.7764 76.2167L65.8086 66.2045C66.7341 65.2867 67.2986 63.6612 68.293 62.9378C69.5797 62.0012 72.0486 62.2 72.9853 60.9112C73.3697 60.3834 73.4341 59.6812 73.4097 58.9312L79.7719 71.7545V71.7534Z" stroke="#50AA57" stroke-width="3" stroke-linecap="round" stroke-linejoin="round"/>
<path d="M57.8611 66.1988L52.8911 76.2166L49.8933 70.9932L43.8955 71.7532L47.4788 64.5288L48.7511 61.9644C49.74 62.241 50.8411 62.4077 51.5666 62.9366C52.0722 63.3044 52.4666 63.9055 52.8533 64.5288C53.4433 65.4766 54.0177 66.4755 54.9422 66.7766C55.8222 67.061 56.8377 66.611 57.8622 66.1988H57.8611Z" stroke="#50AA57" stroke-width="3" stroke-linecap="round" stroke-linejoin="round"/>
<path d="M43.5086 37.4366L36.7219 48.1555L34.7252 45.3332L31.4363 40.6821L31.3652 40.5821L31.403 40.5277L31.3652 40.5044L38.5897 35.9888L38.8841 35.8232C40.483 36.2332 42.0286 36.7755 43.5097 37.4366H43.5086Z" stroke="#50AA57" stroke-width="3" stroke-linecap="round" stroke-linejoin="round"/>
<path d="M31.3262 40.5285L31.3639 40.583L31.2928 40.683L28.2917 44.9263L26.0073 48.1552L19.2617 37.5019C20.7484 36.8308 22.2995 36.2785 23.9051 35.8574L24.1406 35.9896L31.3651 40.5052L31.3273 40.5285H31.3262Z" stroke="#50AA57" stroke-width="3" stroke-linecap="round" stroke-linejoin="round"/>
<path d="M35.4614 59.1247L31.5605 62.9547L27.7266 59.1247L29.2588 45.2627L31.4731 41.4077H31.5786L34.0063 45.633L35.4614 59.1247Z" stroke="#50AA57" stroke-width="3" stroke-linecap="round" stroke-linejoin="round"/>
</svg>
