<svg width="182" height="182" viewBox="0 0 182 182" fill="none" xmlns="http://www.w3.org/2000/svg">
<path d="M81.6367 149.081V153.538C81.6407 155.997 83.6338 157.992 86.0933 157.994H95.0066C97.4682 157.992 99.4612 155.997 99.4632 153.538V149.081H81.6367Z" stroke="#50AA57" stroke-width="3" stroke-linecap="round" stroke-linejoin="round"/>
<path d="M108.377 122.305V144.625C108.375 147.086 106.38 149.079 103.92 149.081H77.1823C74.7207 149.079 72.7277 147.086 72.7257 144.625V122.303C61.7329 116.447 54.324 105.561 52.9122 93.1863C50.5391 72.4136 65.4555 53.6499 86.2283 51.2788C96.9837 50.0058 107.765 53.4347 115.808 60.6868C119.126 63.6532 121.895 67.1827 123.989 71.1124C133.813 89.5603 126.825 112.479 108.377 122.305Z" stroke="#50AA57" stroke-width="3" stroke-linecap="round" stroke-linejoin="round"/>
<path d="M108.387 128.85H72.7363" stroke="#50AA57" stroke-width="3" stroke-linecap="round" stroke-linejoin="round"/>
<path d="M108.376 137.515H72.7246" stroke="#50AA57" stroke-width="3" stroke-linecap="round" stroke-linejoin="round"/>
<path d="M90.4023 116.644V128.6" stroke="#50AA57" stroke-width="3" stroke-linecap="round" stroke-linejoin="round"/>
<path d="M82.3301 108.257L90.4107 116.801L98.795 108.201" stroke="#50AA57" stroke-width="3" stroke-linecap="round" stroke-linejoin="round"/>
<path d="M125.002 124.556L135.717 135.269" stroke="#50AA57" stroke-width="3" stroke-linecap="round" stroke-linejoin="round"/>
<path d="M138.801 90.0571H154.783" stroke="#50AA57" stroke-width="3" stroke-linecap="round" stroke-linejoin="round"/>
<path d="M124.529 55.9969L135.973 44.5537" stroke="#50AA57" stroke-width="3" stroke-linecap="round" stroke-linejoin="round"/>
<path d="M90.5488 42.06V25.8906" stroke="#50AA57" stroke-width="3" stroke-linecap="round" stroke-linejoin="round"/>
<path d="M56.4536 56.0751L45.0586 44.6802" stroke="#50AA57" stroke-width="3" stroke-linecap="round" stroke-linejoin="round"/>
<path d="M42.2965 90.1333H26.2539" stroke="#50AA57" stroke-width="3" stroke-linecap="round" stroke-linejoin="round"/>
<path d="M56.3478 124.262L45.0312 135.581" stroke="#50AA57" stroke-width="3" stroke-linecap="round" stroke-linejoin="round"/>
</svg>
