<svg width="101" height="101" viewBox="0 0 101 101" fill="none" xmlns="http://www.w3.org/2000/svg">
<path d="M45.3271 82.5776V85.0399C45.3294 86.3988 46.4305 87.501 47.7894 87.5021H52.7138C54.0738 87.501 55.1749 86.3988 55.176 85.0399V82.5776H45.3271Z" stroke="#50AA57" stroke-width="3" stroke-linecap="round" stroke-linejoin="round"/>
<path d="M60.0998 67.7841V80.1152C60.0986 81.4752 58.9964 82.5763 57.6375 82.5774H42.8653C41.5053 82.5763 40.4042 81.4752 40.4031 80.1152V67.783C34.3298 64.5474 30.2364 58.533 29.4564 51.6963C28.1453 40.2196 36.3864 29.853 47.8631 28.543C53.8053 27.8396 59.762 29.7341 64.2053 33.7407C66.0386 35.3796 67.5686 37.3296 68.7253 39.5007C74.1531 49.693 70.292 62.3552 60.0998 67.7841Z" stroke="#50AA57" stroke-width="3" stroke-linecap="round" stroke-linejoin="round"/>
<path d="M60.1068 71.3999H40.4102" stroke="#50AA57" stroke-width="3" stroke-linecap="round" stroke-linejoin="round"/>
<path d="M60.1 76.1875H40.4033" stroke="#50AA57" stroke-width="3" stroke-linecap="round" stroke-linejoin="round"/>
<path d="M50.1699 64.6562V71.2618" stroke="#50AA57" stroke-width="3" stroke-linecap="round" stroke-linejoin="round"/>
<path d="M45.71 60.0228L50.1744 64.7428L54.8066 59.9917" stroke="#50AA57" stroke-width="3" stroke-linecap="round" stroke-linejoin="round"/>
<path d="M69.2852 69.0273L75.2052 74.9462" stroke="#50AA57" stroke-width="3" stroke-linecap="round" stroke-linejoin="round"/>
<path d="M76.9092 49.9673H85.7392" stroke="#50AA57" stroke-width="3" stroke-linecap="round" stroke-linejoin="round"/>
<path d="M69.0244 31.1499L75.3466 24.8276" stroke="#50AA57" stroke-width="3" stroke-linecap="round" stroke-linejoin="round"/>
<path d="M50.251 23.4494V14.5161" stroke="#50AA57" stroke-width="3" stroke-linecap="round" stroke-linejoin="round"/>
<path d="M31.4137 31.193L25.1182 24.8975" stroke="#50AA57" stroke-width="3" stroke-linecap="round" stroke-linejoin="round"/>
<path d="M23.5919 50.0098H14.7285" stroke="#50AA57" stroke-width="3" stroke-linecap="round" stroke-linejoin="round"/>
<path d="M31.3557 68.8652L25.1035 75.1186" stroke="#50AA57" stroke-width="3" stroke-linecap="round" stroke-linejoin="round"/>
</svg>
