<svg width="100" height="101" viewBox="0 0 100 101" fill="none" xmlns="http://www.w3.org/2000/svg">
<path d="M71.2818 41.4476C71.2818 46.261 70.0929 50.7943 67.9918 54.7743C67.7918 55.1532 67.5829 55.5265 67.3652 55.8954C64.7563 60.3421 60.9774 64.0187 56.4541 66.5054C56.0007 66.7554 55.5396 66.9932 55.0718 67.2176C51.3296 69.0165 47.1374 70.0232 42.7074 70.0232C26.9252 70.0232 14.1318 57.2287 14.1318 41.4465C14.1318 25.6643 26.9241 12.8721 42.7063 12.8721C58.4885 12.8721 71.2818 25.6654 71.2818 41.4476Z" stroke="#50AA57" stroke-width="3" stroke-linecap="round" stroke-linejoin="round"/>
<path d="M87.4974 85.1206L87.4763 85.1417C84.6141 88.2028 79.813 88.3606 76.7541 85.4983L56.4541 66.505C60.9785 64.0184 64.7563 60.3406 67.3652 55.895L87.1408 74.3961C90.2019 77.2595 90.3597 82.0617 87.4974 85.1206Z" stroke="#50AA57" stroke-width="3" stroke-linecap="round" stroke-linejoin="round"/>
<path d="M55.2521 29.804C49.4798 30.2384 45.8332 28.7473 44.1098 25.2462C43.7287 24.4718 42.791 24.1518 42.0165 24.534C41.7065 24.6862 41.4565 24.9373 41.3043 25.2462C39.581 28.7473 35.9365 30.2395 30.1632 29.804C29.3565 29.7429 28.6354 30.3084 28.5021 31.1062C27.4832 37.2173 28.4365 43.1562 31.2576 48.2795C33.7854 52.8707 37.631 56.4629 42.0854 58.394C42.4821 58.5662 42.9332 58.5662 43.3298 58.394C47.7832 56.4629 51.6287 52.8707 54.1576 48.2795C56.9787 43.1562 57.9321 37.2173 56.9132 31.1062C56.781 30.3073 56.061 29.7429 55.2543 29.804H55.2521Z" stroke="#50AA57" stroke-width="3" stroke-linecap="round" stroke-linejoin="round"/>
<path d="M50.2287 35.0908L41.9087 45.2619L35.6143 39.4208" stroke="#50AA57" stroke-width="3" stroke-linecap="round" stroke-linejoin="round"/>
</svg>
