<svg width="182" height="182" viewBox="0 0 182 182" fill="none" xmlns="http://www.w3.org/2000/svg">
<path d="M129.522 74.6358C129.522 83.348 127.37 91.5533 123.567 98.7571C123.205 99.4429 122.827 100.119 122.432 100.786C117.71 108.835 110.871 115.49 102.683 119.99C101.863 120.443 101.028 120.873 100.181 121.28C93.4081 124.536 85.8201 126.358 77.8018 126.358C49.236 126.358 26.0801 103.2 26.0801 74.6338C26.0801 46.068 49.234 22.9141 77.7998 22.9141C106.366 22.9141 129.522 46.07 129.522 74.6358Z" stroke="#50AA57" stroke-width="3" stroke-linecap="round" stroke-linejoin="round"/>
<path d="M158.87 153.684L158.832 153.723C153.651 159.263 144.961 159.549 139.425 154.368L102.682 119.99C110.871 115.489 117.709 108.833 122.431 100.786L158.225 134.273C163.765 139.456 164.051 148.148 158.87 153.684Z" stroke="#50AA57" stroke-width="3" stroke-linecap="round" stroke-linejoin="round"/>
<path d="M100.506 53.5614C90.0587 54.3477 83.4583 51.6488 80.339 45.3118C79.6492 43.91 77.9518 43.3308 76.5501 44.0227C75.989 44.2982 75.5365 44.7527 75.261 45.3118C72.1417 51.6488 65.5453 54.3497 55.0956 53.5614C53.6355 53.4507 52.3303 54.4744 52.0889 55.9184C50.2448 66.9795 51.9703 77.7289 57.0765 87.0021C61.6518 95.312 68.6122 101.814 76.6748 105.309C77.3927 105.621 78.2093 105.621 78.9272 105.309C86.9878 101.814 93.9482 95.312 98.5255 87.0021C103.632 77.7289 105.357 66.9795 103.513 55.9184C103.274 54.4724 101.971 53.4507 100.51 53.5614H100.506Z" stroke="#50AA57" stroke-width="3" stroke-linecap="round" stroke-linejoin="round"/>
<path d="M91.415 63.1304L76.3558 81.5401L64.9629 70.9677" stroke="#50AA57" stroke-width="3" stroke-linecap="round" stroke-linejoin="round"/>
</svg>
