<svg width="101" height="101" viewBox="0 0 101 101" fill="none" xmlns="http://www.w3.org/2000/svg">
<mask id="mask0_516_191" style="mask-type:luminance" maskUnits="userSpaceOnUse" x="8" y="13" width="78" height="77">
<path d="M85.2729 13.8384H8.66211V89.6906H85.2729V13.8384Z" fill="white"/>
</mask>
<g mask="url(#mask0_516_191)">
<path d="M22.0049 28.4852C23.2707 27.0508 24.6511 25.7197 26.1324 24.5063" stroke="#50AA57" stroke-width="3" stroke-linecap="round" stroke-linejoin="round"/>
<path d="M14.1055 43.7839C14.9988 39.9372 16.5239 36.3317 18.5663 33.0806" stroke="#50AA57" stroke-width="3" stroke-linecap="round" stroke-linejoin="round"/>
<path d="M25.909 78.8387C18.1376 72.3642 13.1953 62.6376 13.1953 51.7642C13.1953 51.3509 13.202 50.9398 13.2166 50.5298" stroke="#50AA57" stroke-width="3" stroke-linecap="round" stroke-linejoin="round"/>
<path d="M65.8652 82.6484C60.7726 85.4607 54.9112 87.0618 48.6739 87.0618C42.4366 87.0618 36.6156 85.4718 31.5342 82.6762" stroke="#50AA57" stroke-width="3" stroke-linecap="round" stroke-linejoin="round"/>
<path d="M78.7562 33.0439C82.1745 38.4706 84.1507 44.8873 84.1507 51.7639C84.1507 62.6228 79.223 72.3351 71.4707 78.8106" stroke="#50AA57" stroke-width="3" stroke-linecap="round" stroke-linejoin="round"/>
<path d="M70.8994 24.251C72.2124 25.3021 73.448 26.4443 74.5983 27.6688" stroke="#50AA57" stroke-width="3" stroke-linecap="round" stroke-linejoin="round"/>
<path d="M31.7549 20.7308C36.7836 18.0119 42.5462 16.4663 48.6724 16.4663C54.7986 16.4663 60.2649 17.933 65.2016 20.523" stroke="#50AA57" stroke-width="3" stroke-linecap="round" stroke-linejoin="round"/>
<path d="M51.6445 28.8061C55.6408 26.3439 60.0421 24.4094 64.7723 23.1172" stroke="#50AA57" stroke-width="3" stroke-linecap="round" stroke-linejoin="round"/>
<path d="M37.1064 42.4162C39.6629 38.8251 42.6951 35.564 46.1358 32.7373" stroke="#50AA57" stroke-width="3" stroke-linecap="round" stroke-linejoin="round"/>
<path d="M28.2342 77.3665C26.9571 67.0287 28.976 56.9387 33.5367 48.231" stroke="#50AA57" stroke-width="3" stroke-linecap="round" stroke-linejoin="round"/>
<path d="M45.702 28.8065C41.5711 26.261 37.0059 24.2788 32.0928 22.9888" stroke="#50AA57" stroke-width="3" stroke-linecap="round" stroke-linejoin="round"/>
<path d="M65.1143 50.9162C61.9586 43.9018 57.2037 37.6618 51.21 32.7373" stroke="#50AA57" stroke-width="3" stroke-linecap="round" stroke-linejoin="round"/>
<path d="M68.9463 63.9574C68.6096 61.7019 68.1158 59.4697 67.4717 57.2808" stroke="#50AA57" stroke-width="3" stroke-linecap="round" stroke-linejoin="round"/>
<path d="M69.0898 77.535C69.3861 75.195 69.5185 72.8339 69.4815 70.4761" stroke="#50AA57" stroke-width="3" stroke-linecap="round" stroke-linejoin="round"/>
<path d="M31.9843 44.6161C26.8737 44.5905 21.6856 45.1328 16.501 46.2917" stroke="#50AA57" stroke-width="3" stroke-linecap="round" stroke-linejoin="round"/>
<path d="M63.4474 52.3954C55.8387 48.4465 47.4793 45.8965 38.7832 44.9888" stroke="#50AA57" stroke-width="3" stroke-linecap="round" stroke-linejoin="round"/>
<path d="M81.2861 65.6785C77.6737 61.9441 73.6583 58.6419 69.3311 55.8252" stroke="#50AA57" stroke-width="3" stroke-linecap="round" stroke-linejoin="round"/>
<path d="M68.1289 51.1116C71.4754 45.7783 74.1137 39.9327 75.9014 33.6938" stroke="#50AA57" stroke-width="3" stroke-linecap="round" stroke-linejoin="round"/>
<path d="M31.9844 79.7053C44.8103 75.3253 56.0347 67.262 64.2494 56.6631" stroke="#50AA57" stroke-width="3" stroke-linecap="round" stroke-linejoin="round"/>
<path d="M48.6723 33.8665C46.7915 33.8665 45.2607 32.3443 45.2607 30.4721C45.2607 28.5999 46.7915 27.0776 48.6723 27.0776C50.5531 27.0776 52.0839 28.5999 52.0839 30.4721C52.0839 32.3443 50.5531 33.8665 48.6723 33.8665Z" stroke="#50AA57" stroke-width="3" stroke-linecap="round" stroke-linejoin="round"/>
<path d="M35.3959 48.7806C33.5151 48.7806 31.9844 47.2573 31.9844 45.3861C31.9844 43.515 33.5151 41.9917 35.3959 41.9917C37.2768 41.9917 38.8075 43.515 38.8075 45.3861C38.8075 47.2573 37.2768 48.7806 35.3959 48.7806Z" stroke="#50AA57" stroke-width="3" stroke-linecap="round" stroke-linejoin="round"/>
<path d="M66.4252 57.4451C64.5444 57.4451 63.0137 55.9218 63.0137 54.0507C63.0137 52.1796 64.5444 50.6562 66.4252 50.6562C68.3061 50.6562 69.8368 52.1796 69.8368 54.0507C69.8368 55.9218 68.3061 57.4451 66.4252 57.4451Z" stroke="#50AA57" stroke-width="3" stroke-linecap="round" stroke-linejoin="round"/>
<path d="M28.7465 84.1175C26.8657 84.1175 25.335 82.5953 25.335 80.7231C25.335 78.8508 26.8657 77.3286 28.7465 77.3286C30.6274 77.3286 32.1581 78.8508 32.1581 80.7231C32.1581 82.5953 30.6274 84.1175 28.7465 84.1175Z" stroke="#50AA57" stroke-width="3" stroke-linecap="round" stroke-linejoin="round"/>
<path d="M68.7973 84.3109C66.9164 84.3109 65.3857 82.7875 65.3857 80.9164C65.3857 79.0453 66.9164 77.522 68.7973 77.522C70.6781 77.522 72.2089 79.0453 72.2089 80.9164C72.2089 82.7875 70.6781 84.3109 68.7973 84.3109Z" stroke="#50AA57" stroke-width="3" stroke-linecap="round" stroke-linejoin="round"/>
<path d="M76.7514 33.6942C74.8706 33.6942 73.3398 32.1708 73.3398 30.2997C73.3398 28.4286 74.8706 26.9053 76.7514 26.9053C78.6322 26.9053 80.163 28.4286 80.163 30.2997C80.163 32.1708 78.6322 33.6942 76.7514 33.6942Z" stroke="#50AA57" stroke-width="3" stroke-linecap="round" stroke-linejoin="round"/>
<path d="M68.0903 25.723C66.2094 25.723 64.6787 24.2007 64.6787 22.3285C64.6787 20.4563 66.2094 18.9341 68.0903 18.9341C69.9711 18.9341 71.5018 20.4563 71.5018 22.3285C71.5018 24.2007 69.9711 25.723 68.0903 25.723Z" stroke="#50AA57" stroke-width="3" stroke-linecap="round" stroke-linejoin="round"/>
<path d="M28.7465 25.723C26.8657 25.723 25.335 24.2007 25.335 22.3285C25.335 20.4563 26.8657 18.9341 28.7465 18.9341C30.6274 18.9341 32.1581 20.4563 32.1581 22.3285C32.1581 24.2007 30.6274 25.723 28.7465 25.723Z" stroke="#50AA57" stroke-width="3" stroke-linecap="round" stroke-linejoin="round"/>
<path d="M13.1957 50.5296C11.3149 50.5296 9.78418 49.0074 9.78418 47.1352C9.78418 45.2629 11.3149 43.7407 13.1957 43.7407C15.0766 43.7407 16.6073 45.2629 16.6073 47.1352C16.6073 49.0074 15.0766 50.5296 13.1957 50.5296Z" stroke="#50AA57" stroke-width="3" stroke-linecap="round" stroke-linejoin="round"/>
</g>
</svg>
