<svg width="182" height="183" viewBox="0 0 182 183" fill="none" xmlns="http://www.w3.org/2000/svg">
<mask id="mask0_516_191" style="mask-type:luminance" maskUnits="userSpaceOnUse" x="16" y="24" width="138" height="139">
<path d="M153.316 24.7974H16.0234V162.848H153.316V24.7974Z" fill="white"/>
</mask>
<g mask="url(#mask0_516_191)">
<path d="M39.9355 51.4545C42.2041 48.8438 44.6777 46.4212 47.3324 44.2129" stroke="#50AA57" stroke-width="3" stroke-linecap="round" stroke-linejoin="round"/>
<path d="M25.7793 79.2984C27.3801 72.2975 30.1132 65.7354 33.7735 59.8184" stroke="#50AA57" stroke-width="3" stroke-linecap="round" stroke-linejoin="round"/>
<path d="M46.9323 143.097C33.0054 131.314 24.1484 113.611 24.1484 93.8219C24.1484 93.0696 24.1605 92.3214 24.1866 91.5752" stroke="#50AA57" stroke-width="3" stroke-linecap="round" stroke-linejoin="round"/>
<path d="M118.536 150.032C109.409 155.15 98.9052 158.064 87.7274 158.064C76.5497 158.064 66.118 155.17 57.0117 150.082" stroke="#50AA57" stroke-width="3" stroke-linecap="round" stroke-linejoin="round"/>
<path d="M141.638 59.7515C147.764 69.628 151.306 81.3063 151.306 93.8219C151.306 113.585 142.475 131.261 128.582 143.047" stroke="#50AA57" stroke-width="3" stroke-linecap="round" stroke-linejoin="round"/>
<path d="M127.559 43.7476C129.912 45.6606 132.126 47.7394 134.187 49.9679" stroke="#50AA57" stroke-width="3" stroke-linecap="round" stroke-linejoin="round"/>
<path d="M57.4082 37.3414C66.42 32.393 76.747 29.5801 87.7257 29.5801C98.7044 29.5801 108.5 32.2494 117.347 36.9632" stroke="#50AA57" stroke-width="3" stroke-linecap="round" stroke-linejoin="round"/>
<path d="M93.0508 52.0388C100.212 47.5576 108.1 44.0369 116.577 41.6851" stroke="#50AA57" stroke-width="3" stroke-linecap="round" stroke-linejoin="round"/>
<path d="M67 76.8089C71.5813 70.2731 77.0153 64.3379 83.1814 59.1934" stroke="#50AA57" stroke-width="3" stroke-linecap="round" stroke-linejoin="round"/>
<path d="M51.0991 140.418C48.8104 121.604 52.4284 103.24 60.6016 87.3916" stroke="#50AA57" stroke-width="3" stroke-linecap="round" stroke-linejoin="round"/>
<path d="M82.4024 52.039C74.9995 47.4061 66.8183 43.7985 58.0137 41.4507" stroke="#50AA57" stroke-width="3" stroke-linecap="round" stroke-linejoin="round"/>
<path d="M117.191 92.2789C111.536 79.5127 103.015 68.1558 92.2734 59.1934" stroke="#50AA57" stroke-width="3" stroke-linecap="round" stroke-linejoin="round"/>
<path d="M124.059 116.014C123.455 111.909 122.57 107.846 121.416 103.862" stroke="#50AA57" stroke-width="3" stroke-linecap="round" stroke-linejoin="round"/>
<path d="M124.316 140.726C124.847 136.467 125.085 132.17 125.018 127.878" stroke="#50AA57" stroke-width="3" stroke-linecap="round" stroke-linejoin="round"/>
<path d="M57.8196 80.8131C48.661 80.7666 39.3636 81.7534 30.0723 83.8626" stroke="#50AA57" stroke-width="3" stroke-linecap="round" stroke-linejoin="round"/>
<path d="M114.204 94.9709C100.569 87.7839 85.588 83.1429 70.0039 81.4907" stroke="#50AA57" stroke-width="3" stroke-linecap="round" stroke-linejoin="round"/>
<path d="M146.172 119.146C139.699 112.35 132.503 106.34 124.748 101.213" stroke="#50AA57" stroke-width="3" stroke-linecap="round" stroke-linejoin="round"/>
<path d="M122.594 92.6349C128.591 82.9283 133.319 72.2893 136.523 60.9346" stroke="#50AA57" stroke-width="3" stroke-linecap="round" stroke-linejoin="round"/>
<path d="M57.8184 144.675C80.8033 136.703 100.918 122.028 115.64 102.738" stroke="#50AA57" stroke-width="3" stroke-linecap="round" stroke-linejoin="round"/>
<path d="M87.7271 61.2479C84.3564 61.2479 81.6133 58.4774 81.6133 55.07C81.6133 51.6625 84.3564 48.8921 87.7271 48.8921C91.0977 48.8921 93.8408 51.6625 93.8408 55.07C93.8408 58.4774 91.0977 61.2479 87.7271 61.2479Z" stroke="#50AA57" stroke-width="3" stroke-linecap="round" stroke-linejoin="round"/>
<path d="M63.9321 88.3924C60.5615 88.3924 57.8184 85.6199 57.8184 82.2145C57.8184 78.8091 60.5615 76.0366 63.9321 76.0366C67.3028 76.0366 70.0459 78.8091 70.0459 82.2145C70.0459 85.6199 67.3028 88.3924 63.9321 88.3924Z" stroke="#50AA57" stroke-width="3" stroke-linecap="round" stroke-linejoin="round"/>
<path d="M119.54 104.161C116.169 104.161 113.426 101.389 113.426 97.9836C113.426 94.5781 116.169 91.8057 119.54 91.8057C122.91 91.8057 125.653 94.5781 125.653 97.9836C125.653 101.389 122.91 104.161 119.54 104.161Z" stroke="#50AA57" stroke-width="3" stroke-linecap="round" stroke-linejoin="round"/>
<path d="M52.0161 152.705C48.6455 152.705 45.9023 149.934 45.9023 146.527C45.9023 143.12 48.6455 140.349 52.0161 140.349C55.3867 140.349 58.1299 143.12 58.1299 146.527C58.1299 149.934 55.3867 152.705 52.0161 152.705Z" stroke="#50AA57" stroke-width="3" stroke-linecap="round" stroke-linejoin="round"/>
<path d="M123.792 153.057C120.421 153.057 117.678 150.284 117.678 146.879C117.678 143.474 120.421 140.701 123.792 140.701C127.162 140.701 129.905 143.474 129.905 146.879C129.905 150.284 127.162 153.057 123.792 153.057Z" stroke="#50AA57" stroke-width="3" stroke-linecap="round" stroke-linejoin="round"/>
<path d="M138.045 60.9349C134.675 60.9349 131.932 58.1624 131.932 54.757C131.932 51.3516 134.675 48.5791 138.045 48.5791C141.416 48.5791 144.159 51.3516 144.159 54.757C144.159 58.1624 141.416 60.9349 138.045 60.9349Z" stroke="#50AA57" stroke-width="3" stroke-linecap="round" stroke-linejoin="round"/>
<path d="M122.524 46.4271C119.153 46.4271 116.41 43.6566 116.41 40.2492C116.41 36.8417 119.153 34.0713 122.524 34.0713C125.895 34.0713 128.638 36.8417 128.638 40.2492C128.638 43.6566 125.895 46.4271 122.524 46.4271Z" stroke="#50AA57" stroke-width="3" stroke-linecap="round" stroke-linejoin="round"/>
<path d="M52.0161 46.4271C48.6455 46.4271 45.9023 43.6566 45.9023 40.2492C45.9023 36.8417 48.6455 34.0713 52.0161 34.0713C55.3867 34.0713 58.1299 36.8417 58.1299 40.2492C58.1299 43.6566 55.3867 46.4271 52.0161 46.4271Z" stroke="#50AA57" stroke-width="3" stroke-linecap="round" stroke-linejoin="round"/>
<path d="M24.1489 91.5755C20.7783 91.5755 18.0352 88.8051 18.0352 85.3976C18.0352 81.9902 20.7783 79.2197 24.1489 79.2197C27.5196 79.2197 30.2627 81.9902 30.2627 85.3976C30.2627 88.8051 27.5196 91.5755 24.1489 91.5755Z" stroke="#50AA57" stroke-width="3" stroke-linecap="round" stroke-linejoin="round"/>
</g>
</svg>
