<svg width="103" height="104" viewBox="0 0 103 104" fill="none" xmlns="http://www.w3.org/2000/svg">
<path d="M51.4053 53.5265C60.1356 53.5265 67.2129 46.2509 67.2129 37.2759C67.2129 28.301 60.1356 21.0254 51.4053 21.0254C42.675 21.0254 35.5977 28.301 35.5977 37.2759C35.5977 46.2509 42.675 53.5265 51.4053 53.5265Z" stroke="#E8F1F2" stroke-width="4" stroke-linecap="round" stroke-linejoin="round"/>
<path d="M16.6211 86.8257C20.573 70.1764 34.7983 65.4189 51.7945 65.4189C68.7908 65.4189 83.0161 70.1764 86.5705 86.8257" stroke="#E8F1F2" stroke-width="4" stroke-linecap="round" stroke-linejoin="round"/>
<path d="M51.3988 101.098C78.6809 101.098 100.798 78.9142 100.798 51.549C100.798 24.1839 78.6809 2 51.3988 2C24.1166 2 2 24.1839 2 51.549C2 78.9142 24.1166 101.098 51.3988 101.098Z" stroke="#E8F1F2" stroke-width="4" stroke-linecap="round" stroke-linejoin="round"/>
</svg>
