<svg width="84" height="84" viewBox="0 0 84 84" fill="none" xmlns="http://www.w3.org/2000/svg">
<g clip-path="url(#clip0_568_6278)">
<path d="M48.9595 39.9827H44.5955L45.9859 30.6452C46.1358 29.6304 44.8327 29.09 44.2133 29.8989L34.2514 43.0123C33.7555 43.668 34.225 44.6054 35.0421 44.6054H39.5313L37.9482 53.3251C37.7653 54.3416 39.0635 54.9198 39.6977 54.1225L49.7321 41.5956C50.2527 40.9498 49.7898 39.9827 48.9579 39.9827H48.9595ZM40.6005 49.8227L41.6961 43.7899C41.7471 43.5 41.6697 43.2034 41.4819 42.9777C41.2924 42.752 41.014 42.6219 40.7191 42.6219H37.0421L43.4538 34.1822L42.4637 40.8295C42.4209 41.1145 42.5049 41.4045 42.6944 41.6236C42.8822 41.8427 43.159 41.9679 43.4456 41.9679H46.8953L40.6005 49.8227ZM83.0083 33.4277H73.2325C72.5241 30.8264 71.4862 28.3223 70.137 25.9665L77.0413 19.0622C77.4285 18.6751 77.4285 18.0474 77.0413 17.6586L66.3397 6.95703C65.9526 6.56989 65.3249 6.56989 64.9361 6.95703L58.0203 13.8729C55.676 12.5253 53.1769 11.4874 50.5723 10.779V0.991743C50.5723 0.443154 50.1275 0 49.5806 0H34.4211C33.8741 0 33.4293 0.444802 33.4293 0.991743V10.7922C30.8083 11.5022 28.3092 12.5368 25.9814 13.8729L19.0639 6.95703C18.6767 6.56989 18.0491 6.56989 17.6603 6.95703L6.95703 17.6586C6.56989 18.0458 6.56989 18.6734 6.95703 19.0622L13.863 25.9682C12.5253 28.324 11.4874 30.8281 10.7708 33.4277H0.991743C0.443154 33.4277 0 33.8725 0 34.4194V49.5806C0 50.1292 0.444802 50.5723 0.991743 50.5723H10.7708C11.4874 53.1719 12.5253 55.6744 13.863 58.0318L6.95703 64.9378C6.56989 65.3249 6.56989 65.9526 6.95703 66.3414L17.6586 77.043C18.0458 77.4301 18.6734 77.4301 19.0622 77.043L25.9797 70.1271C28.3075 71.4632 30.8066 72.4978 33.4277 73.2078V83.0083C33.4277 83.5568 33.8725 84 34.4194 84H49.5789C50.1275 84 50.5707 83.5552 50.5707 83.0083V73.2193C53.1769 72.5109 55.6744 71.4731 58.0186 70.1255L64.9345 77.0413C65.3216 77.4285 65.9493 77.4285 66.3381 77.0413L77.0397 66.3397C77.4268 65.9526 77.4268 65.3249 77.0397 64.9361L70.1354 58.0318C71.4846 55.676 72.5225 53.1736 73.2309 50.5707H83.0066C83.5552 50.5707 83.9984 50.1259 83.9984 49.5789V34.4178C83.9984 33.8692 83.5535 33.426 83.0066 33.426L83.0083 33.4277ZM82.0165 48.5888H72.4665C72.0085 48.5888 71.6131 48.9002 71.5027 49.345C70.7828 52.2741 69.6197 55.078 68.0464 57.6793C67.8109 58.0713 67.8702 58.5722 68.1931 58.8951L74.9392 65.6412L65.6412 74.9392L58.8819 68.1799C58.5573 67.857 58.0565 67.796 57.6644 68.0333C55.078 69.6049 52.279 70.768 49.345 71.4879C48.9018 71.5966 48.5888 71.9936 48.5888 72.4516V82.0165H35.4128V72.4384C35.4128 71.9805 35.0998 71.5834 34.6567 71.4747C31.6995 70.7482 28.9006 69.5917 26.3372 68.0333C25.9451 67.796 25.4427 67.857 25.1198 68.1799L18.3588 74.9392L9.06078 65.6412L15.8069 58.8951C16.1282 58.5738 16.1908 58.073 15.9569 57.6826C14.3935 55.0764 13.2304 52.2692 12.4973 49.3417C12.3869 48.9002 11.9899 48.5905 11.5352 48.5905H1.98349V35.4145H11.5352C11.9899 35.4145 12.3886 35.1047 12.4973 34.6632C13.2304 31.7341 14.3935 28.9269 15.9569 26.3224C16.1908 25.9319 16.1282 25.4328 15.8069 25.1115L9.06078 18.3654L18.3588 9.06737L25.1198 15.8267C25.4427 16.1496 25.9435 16.2089 26.3372 15.9733C28.9006 14.4149 31.6995 13.2584 34.6567 12.5319C35.0998 12.4232 35.4128 12.0261 35.4128 11.5681V1.98349H48.5888V11.5484C48.5888 12.0064 48.9018 12.4034 49.345 12.5121C52.279 13.232 55.078 14.3951 57.6644 15.9667C58.0565 16.2023 58.5573 16.143 58.8819 15.8201L65.6412 9.06078L74.9392 18.3588L68.1931 25.1049C67.8702 25.4278 67.8092 25.9287 68.0464 26.3207C69.6197 28.922 70.7844 31.7259 71.5027 34.655C71.6131 35.0998 72.0085 35.4112 72.4665 35.4112H82.0165V48.5872V48.5888ZM42.0008 21.1166C30.4788 21.1166 21.1034 30.4854 21.1034 42.0008C21.1034 53.5162 30.4788 62.8851 42.0008 62.8851C53.5228 62.8851 62.8983 53.5162 62.8983 42.0008C62.8983 30.4854 53.5228 21.1166 42.0008 21.1166ZM42.0008 60.9C31.571 60.9 23.0885 52.4224 23.0885 42.0008C23.0885 31.5793 31.571 23.1017 42.0008 23.1017C52.4306 23.1017 60.9148 31.5793 60.9148 42.0008C60.9148 52.4224 52.4306 60.9 42.0008 60.9Z" fill="#E8F1F2"/>
</g>
<defs>
<clipPath id="clip0_568_6278">
<rect width="84" height="84" fill="white"/>
</clipPath>
</defs>
</svg>
