<svg width="93" height="93" viewBox="0 0 93 93" fill="none" xmlns="http://www.w3.org/2000/svg">
<g clip-path="url(#clip0_568_6292)">
<mask id="mask0_568_6292" style="mask-type:luminance" maskUnits="userSpaceOnUse" x="0" y="0" width="93" height="93">
<path d="M93 0H0V92.9986H93V0Z" fill="white"/>
</mask>
<g mask="url(#mask0_568_6292)">
<path d="M54.2263 56.183C54.2017 56.183 54.1772 56.183 54.1527 56.1816C53.4021 56.1407 52.8245 55.4991 52.8653 54.7485C52.9879 52.4749 53.8462 48.0815 58.226 44.2017C70.2237 33.5773 85.4392 25.6666 85.5918 25.5889C86.2607 25.2443 87.0822 25.5058 87.4268 26.1734C87.7728 26.8422 87.5099 27.6637 86.8424 28.0083C86.6925 28.086 71.7686 35.8469 60.0324 46.2411C56.395 49.4629 55.6853 53.0443 55.5858 54.8943C55.5463 55.6204 54.9456 56.183 54.2263 56.183Z" fill="#E8F1F2"/>
<path d="M54.1862 56.1817C53.471 56.1817 52.8702 55.6245 52.828 54.8998C52.7176 53.0375 51.9929 49.4343 48.3842 46.2398C36.6466 35.8456 21.8521 28.1201 21.7036 28.0438C21.036 27.6978 20.7758 26.875 21.1219 26.2075C21.4679 25.5399 22.2907 25.2797 22.9582 25.6258C23.1095 25.7034 38.1942 33.5774 50.1906 44.2004C54.5349 48.0475 55.4109 52.4531 55.5471 54.7376C55.5921 55.4883 55.0186 56.134 54.2679 56.1789C54.2407 56.1803 54.2134 56.1817 54.1862 56.1817Z" fill="#E8F1F2"/>
<path d="M54.206 56.1817C53.4541 56.1817 52.8438 55.5714 52.8438 54.8194V1.36228C52.8438 0.610301 53.4541 0 54.206 0C54.958 0 55.5683 0.610301 55.5683 1.36228V54.8194C55.5683 55.5714 54.958 56.1817 54.206 56.1817Z" fill="#E8F1F2"/>
<path d="M49.7908 75.7164C49.0784 75.7164 48.4803 75.1634 48.4326 74.4427C48.3836 73.6921 48.953 73.0436 49.7037 72.9946L64.7993 72.0083C65.5513 71.9593 66.1984 72.5287 66.2474 73.2793C66.2964 74.0299 65.727 74.6784 64.9764 74.7274L49.8808 75.7137C49.8508 75.7151 49.8208 75.7164 49.7908 75.7164Z" fill="#E8F1F2"/>
<path d="M49.7908 75.7164C49.0784 75.7164 48.4803 75.1634 48.4326 74.4427C48.3836 73.6921 48.953 73.0436 49.7037 72.9946L64.7993 72.0083C65.5513 71.9593 66.1984 72.5287 66.2474 73.2793C66.2964 74.0299 65.727 74.6784 64.9764 74.7274L49.8808 75.7137C49.8508 75.7151 49.8208 75.7164 49.7908 75.7164Z" fill="#E8F1F2"/>
<path d="M19.102 92.9998C18.7628 92.9998 18.4208 92.9548 18.0843 92.8649C17.0762 92.5952 16.2343 91.9481 15.7126 91.0449L4.13442 70.9922C3.61266 70.089 3.4737 69.0359 3.7448 68.0292C4.01453 67.0211 4.66026 66.1792 5.56483 65.6575L8.73762 63.8252C9.64082 63.3035 10.6939 63.1659 11.7006 63.4356C12.7087 63.7053 13.5506 64.3524 14.0724 65.2556L25.6506 85.3083C26.1723 86.2115 26.3113 87.2632 26.0402 88.2713C25.7704 89.2794 25.1247 90.1213 24.2201 90.643L21.0473 92.4753C20.4452 92.8227 19.7777 92.9998 19.1006 92.9998H19.102ZM10.6898 66.0266C10.4854 66.0266 10.2838 66.0798 10.1013 66.186L6.92849 68.0183C6.65603 68.1763 6.45986 68.4311 6.37812 68.7349C6.29638 69.04 6.33861 69.3574 6.49664 69.6299L18.0748 89.6826C18.2328 89.9564 18.4876 90.1512 18.7914 90.233C19.0952 90.3147 19.414 90.2725 19.6878 90.1145L22.8606 88.2822C23.133 88.1242 23.3292 87.8694 23.4109 87.5656C23.4927 87.2618 23.4504 86.9431 23.2924 86.6706L17.5435 76.7151L11.7142 66.6179C11.5562 66.3454 11.3015 66.1493 10.9977 66.0675C10.8955 66.0403 10.7933 66.0266 10.6898 66.0266Z" fill="#E8F1F2"/>
<path d="M45.1007 86.9268C43.9264 86.9268 42.7507 86.7089 41.65 86.2825L30.6412 82.7446C29.7585 82.4613 28.7803 82.667 28.0869 83.2814L24.8705 86.1354C24.3079 86.6339 23.4469 86.5835 22.947 86.0196C22.447 85.4569 22.4988 84.596 23.0614 84.096L26.2778 81.2434C27.6878 79.9928 29.6781 79.5733 31.4736 80.1509L42.5218 83.7023C42.5491 83.7105 42.5763 83.7214 42.6036 83.7309C43.6117 84.1274 44.7097 84.2786 45.7791 84.1682L67.7748 81.9109C68.9123 81.7938 70.0212 81.3837 70.983 80.723L86.0704 70.3438C86.7557 69.6436 86.8674 68.5061 86.3211 67.6615C86.0323 67.2147 85.6018 66.9163 85.11 66.821C84.6414 66.7311 84.1632 66.8373 83.7641 67.1207C83.715 67.1547 83.6632 67.1874 83.6101 67.2147L73.8111 72.3655C71.0688 73.8067 67.9995 74.6255 64.9344 74.7317C64.5529 74.7453 64.1797 74.5955 63.9113 74.3217C63.6429 74.0465 63.504 73.6719 63.5271 73.2891L63.647 71.311C63.4318 69.457 62.094 67.9912 60.3639 67.7242L49.4314 66.3973C49.4192 66.3959 49.4069 66.3946 49.3946 66.3919C46.7994 66.005 45.3813 65.1236 43.4169 63.903C43.2466 63.7967 43.0708 63.6877 42.8883 63.576C40.9402 62.3745 37.1162 60.7983 34.9025 60.1363C31.5335 59.1268 27.775 59.5723 24.5926 61.3569L13.7433 67.4408C13.0867 67.8086 12.257 67.5757 11.8892 66.9191C11.5214 66.2624 11.7543 65.4328 12.411 65.065L23.2603 58.9811C27.0843 56.8368 31.6126 56.3069 35.6845 57.5275C37.7906 58.1583 41.9633 59.8052 44.3187 61.2588C44.5026 61.3732 44.6811 61.4836 44.8541 61.5898C46.6605 62.711 47.7517 63.3894 49.7788 63.6959L60.7126 65.0228C60.7249 65.0241 60.7371 65.0255 60.7494 65.0282C63.7614 65.4778 66.0719 67.9966 66.3702 71.1544C66.377 71.2239 66.3784 71.2947 66.3743 71.3642L66.3416 71.8955C68.4995 71.638 70.5797 70.9882 72.5442 69.9556L82.271 64.8429C83.2668 64.1673 84.4547 63.922 85.6277 64.1468C86.8565 64.3839 87.9163 65.1072 88.6111 66.1848C89.8767 68.1451 89.5579 70.8165 87.87 72.3968C87.821 72.4431 87.7679 72.4853 87.7106 72.5248L72.5278 82.9694C71.1914 83.889 69.6452 84.4598 68.054 84.6232L46.0584 86.8805C45.7409 86.9132 45.4208 86.9296 45.102 86.9296L45.1007 86.9268Z" fill="#E8F1F2"/>
<path d="M63.8851 47.1826C62.5051 47.1826 61.1619 47.0995 59.8636 46.9796C59.1852 46.9169 58.5571 46.5845 58.1416 46.0682C57.7588 45.5914 57.5886 45.007 57.6608 44.4212C58.173 40.318 59.7165 36.7679 62.2476 33.8731C64.336 31.4837 67.1028 29.5329 70.4718 28.0739C76.4305 25.4937 82.8265 25.1055 85.3004 25.0578C86.0579 25.0401 86.8003 25.3738 87.2771 25.9419C87.7131 26.4609 87.8902 27.1285 87.7648 27.7728C87.2703 30.2958 84.9326 36.9873 81.2094 40.442C75.3447 45.8843 69.3411 47.1826 63.8851 47.1826ZM60.4276 44.2945C66.4653 44.8204 72.9226 44.4144 79.3554 38.4449C82.3892 35.6291 84.3741 30.1473 84.9667 27.7919C82.426 27.8682 76.7833 28.3096 71.5535 30.5737C65.1044 33.3663 61.3635 37.9817 60.4276 44.2945Z" fill="#E8F1F2"/>
<path d="M45.129 47.1498C41.4916 47.1498 38.1731 46.5981 35.2291 45.4987C31.9528 44.2754 29.1165 42.3723 26.7979 39.8412C22.6483 35.3102 21.2329 29.8924 20.8174 27.7741C20.6907 27.1311 20.8678 26.4636 21.3037 25.9446C21.7805 25.3765 22.5175 25.0441 23.2818 25.0591C25.7557 25.1068 32.1517 25.495 38.1104 28.0752C41.4794 29.5342 44.2462 31.4849 46.3346 33.8744C48.8657 36.7706 50.4079 40.3193 50.9215 44.4225C50.995 45.0083 50.8247 45.5927 50.4419 46.0681C50.0264 46.5844 49.3984 46.9182 48.72 46.9809C47.4925 47.0939 46.2951 47.1511 45.1317 47.1511L45.129 47.1498ZM23.6047 27.7918C24.7095 32.7342 29.4367 45.872 48.1533 44.2944C47.2174 37.9817 43.4765 33.3663 37.0274 30.5736C31.7907 28.3054 26.1399 27.8667 23.6047 27.7918Z" fill="#E8F1F2"/>
<path d="M54.23 36.6534H54.1864C53.8594 36.6534 53.542 36.5348 53.2954 36.321C50.0137 33.4792 47.8217 30.0504 46.7809 26.127C45.9254 22.9025 45.8464 19.3347 46.5452 15.5217C47.77 8.84653 51.0762 3.12496 52.4413 0.973926C52.8282 0.363626 53.4889 -0.00146484 54.2082 -0.00146484C54.9275 -0.00146484 55.5882 0.363626 55.9751 0.973926C57.3401 3.12496 60.6464 8.84653 61.8711 15.5217C62.57 19.3333 62.4909 22.9012 61.6354 26.127C60.5946 30.0504 58.4027 33.4806 55.1209 36.321C54.873 36.5348 54.5569 36.6534 54.23 36.6534ZM54.2082 3.30206C52.7451 5.75007 50.2262 10.5548 49.2249 16.0148C47.9198 23.1314 49.5954 28.996 54.2082 33.4656C58.8209 28.996 60.4979 23.1314 59.1915 16.0148C58.1902 10.5562 55.6699 5.75144 54.2082 3.30206Z" fill="#E8F1F2"/>
<path d="M81.0093 68.4025C80.711 68.4025 80.4113 68.3058 80.1606 68.1056L73.7442 62.9889C63.5433 54.8547 49.1765 53.9256 37.992 60.6771C37.3477 61.0653 36.5099 60.8582 36.1216 60.2153C35.7334 59.5709 35.9404 58.7331 36.5834 58.3448C48.7392 51.0076 64.3552 52.0184 75.443 60.8596L81.8594 65.9763C82.4479 66.445 82.5446 67.3032 82.0746 67.8903C81.8063 68.2282 81.4085 68.4039 81.008 68.4039L81.0093 68.4025Z" fill="#E8F1F2"/>
</g>
</g>
<defs>
<clipPath id="clip0_568_6292">
<rect width="93" height="93" fill="white"/>
</clipPath>
</defs>
</svg>
