<svg width="80" height="80" viewBox="0 0 80 80" fill="none" xmlns="http://www.w3.org/2000/svg">
<g clip-path="url(#clip0_568_6281)">
<path d="M22.6667 47.999H12V50.6656H22.6667V47.999Z" fill="#E8F1F2"/>
<path d="M79.8587 63.4022L75.8587 55.4024C75.632 54.9507 75.1704 54.6657 74.6654 54.6657H66.6654V50.6658C66.6654 49.9292 66.0687 49.3325 65.332 49.3325H38.6654C37.9287 49.3325 37.332 49.9292 37.332 50.6658V74.6653C37.332 75.402 37.9287 75.9986 38.6654 75.9986H44.1887C44.9104 78.8402 47.7987 80.5569 50.6404 79.8352C52.5254 79.3552 53.997 77.8836 54.477 75.9986H64.1887C64.9104 78.8402 67.7987 80.5569 70.6404 79.8352C72.5254 79.3552 73.997 77.8836 74.477 75.9986H78.667C79.4037 75.9986 80.0004 75.402 80.0004 74.6653V63.9989C80.0004 63.7922 79.952 63.5872 79.8604 63.4022H79.8587ZM49.332 77.3319C47.8587 77.3319 46.6654 76.1386 46.6654 74.6653C46.6654 73.192 47.8587 71.9987 49.332 71.9987C50.8054 71.9987 51.9987 73.192 51.9987 74.6653C51.9987 76.137 50.8037 77.3303 49.332 77.3319ZM63.9987 73.332H54.4754C53.8704 70.9837 51.757 69.3388 49.332 69.3321C46.907 69.3388 44.792 70.9837 44.1887 73.332H39.9987V51.9991H63.9987V73.332ZM71.9987 57.3324H73.8404L76.507 62.6656H71.997V57.3324H71.9987ZM69.332 77.3319C67.8587 77.3319 66.6654 76.1386 66.6654 74.6653C66.6654 73.192 67.8587 71.9987 69.332 71.9987C70.8054 71.9987 71.9987 73.192 71.9987 74.6653C71.9987 76.137 70.8037 77.3303 69.332 77.3319ZM77.332 73.332H74.4754C73.8704 70.9837 71.757 69.3388 69.332 69.3321C68.392 69.3371 67.472 69.5938 66.6654 70.0738V57.3324H69.332V63.9989C69.332 64.7355 69.9287 65.3322 70.6654 65.3322H77.332V73.332Z" fill="#E8F1F2"/>
<path d="M31.997 18.6665H29.332V21.3331H31.997V18.6665Z" fill="#E8F1F2"/>
<path d="M37.333 18.6665H34.668V21.3331H37.333V18.6665Z" fill="#E8F1F2"/>
<path d="M42.665 18.6665H40V21.3331H42.665V18.6665Z" fill="#E8F1F2"/>
<path d="M47.997 18.6665H45.332V21.3331H47.997V18.6665Z" fill="#E8F1F2"/>
<path d="M73.4487 22.2695L69.317 18.138C66.2454 15.0714 62.0854 13.3431 57.7454 13.3314H47.4037L41.1287 3.2916C40.8854 2.90161 40.457 2.66494 39.997 2.66494H35.997C35.2604 2.66494 34.6637 3.26327 34.6637 3.99992C34.6637 4.10825 34.677 4.21658 34.7037 4.32158L36.9554 13.3314H26.322L22.6087 0.94998C22.4404 0.386659 21.9204 0 21.332 0H14.6654C13.9287 0 13.332 0.596654 13.332 1.33331V14.6664H13.3437C13.3387 15.018 13.4754 15.358 13.722 15.6097L22.0554 23.9428C25.4937 27.4028 30.1737 29.3444 35.052 29.3327H35.4154L32.102 36.7909C31.8037 37.4642 32.107 38.2509 32.7787 38.5509C32.8187 38.5675 32.857 38.5842 32.8987 38.5975L36.8954 39.9308C37.4554 40.1175 38.0704 39.9142 38.4104 39.4308L45.4737 29.3327H70.517C72.8004 29.3361 74.6554 27.4894 74.6604 25.2045C74.662 24.1045 74.2254 23.0479 73.447 22.2695H73.4487ZM39.2604 5.33322L44.2604 13.3331H39.707L37.707 5.33322H39.2604ZM15.9987 2.66661H20.3404L23.5404 13.3331H15.9987V2.66661ZM36.7954 37.0859L35.1354 36.5326L39.517 26.6661H44.0854L36.7954 37.0859ZM71.8854 25.7511C71.6637 26.3095 71.1187 26.6744 70.517 26.6644H47.3387L47.737 26.0961C48.1587 25.4928 48.012 24.6612 47.4087 24.2395C47.1854 24.0828 46.9187 23.9995 46.6454 23.9995H38.6504C38.1237 23.9995 37.6454 24.3095 37.432 24.7911L36.5987 26.6661H35.0504C30.8804 26.6744 26.8787 25.0161 23.9404 22.0562L17.8837 15.9997H57.7454C60.652 16.0113 63.4804 16.9463 65.8237 18.6663H55.9987V21.3329H68.7387L71.5654 24.1595C71.992 24.5728 72.1204 25.2061 71.887 25.7528L71.8854 25.7511Z" fill="#E8F1F2"/>
<path d="M32.685 76.3517C31.845 75.4501 30.72 74.8667 29.4983 74.7034L34.59 60.447C34.8367 59.7521 34.475 58.9887 33.78 58.7421C33.7717 58.7387 33.7633 58.7371 33.755 58.7337L30.5033 57.6504L27.9783 43.7607C27.8633 43.1274 27.31 42.6657 26.6667 42.6657H21.3333V38.6658C21.3333 37.9292 20.7367 37.3325 20 37.3325H14.6667C13.93 37.3325 13.3333 37.9292 13.3333 38.6658V42.6657H8C7.355 42.6657 6.80333 43.1274 6.68833 43.7607L4.16333 57.6504L0.911667 58.7337C0.211667 58.9671 -0.165 59.7237 0.07 60.4237C0.0733333 60.432 0.075 60.4404 0.0783333 60.4487L5.17 74.7051C3.95167 74.8717 2.82667 75.4534 1.98833 76.3534C1.50667 76.9617 0.776667 77.32 0 77.3334V80C1.445 79.9916 2.82 79.3816 3.795 78.3133C4.27833 77.705 5.00667 77.345 5.78333 77.3334C6.065 77.3317 6.345 77.3834 6.60667 77.4867C6.61833 77.4917 6.625 77.5017 6.63667 77.5067C7.055 77.715 7.435 77.9933 7.76 78.3283C8.745 79.3866 10.1217 79.9916 11.5667 80C13.0117 79.9916 14.3867 79.38 15.36 78.3133C16.1983 77.2184 17.7667 77.01 18.8633 77.8483C19.0383 77.9817 19.195 78.1383 19.3283 78.3133C20.3017 79.38 21.675 79.9933 23.12 80C24.5633 79.9916 25.94 79.3866 26.9233 78.3283C27.245 77.995 27.6217 77.7183 28.0367 77.51C28.0483 77.505 28.0567 77.4934 28.0683 77.4883C28.3317 77.3834 28.6117 77.33 28.895 77.3334C29.67 77.3467 30.3967 77.705 30.8783 78.3133C31.8517 79.38 33.2267 79.9916 34.67 80V77.3334C33.895 77.32 33.1683 76.9617 32.6867 76.3534L32.685 76.3517ZM16 39.9991H18.6667V42.6657H16V39.9991ZM16 74.8384C15.0683 75.1267 14.225 75.6467 13.5517 76.3517C12.71 77.4483 11.14 77.6567 10.0433 76.815C9.87 76.6817 9.71333 76.5267 9.58 76.3517C9.16667 75.9467 8.70667 75.5917 8.21167 75.2917L3.04667 60.832L16 56.5155V74.8384ZM16.9117 53.4005L7.04833 56.6888L9.11333 45.3324H25.555L27.62 56.6888L17.7567 53.4005C17.4833 53.3089 17.1867 53.3089 16.9133 53.4005H16.9117ZM26.4533 75.3001C25.965 75.5984 25.51 75.9517 25.1017 76.3517C24.265 77.4467 22.6983 77.655 21.6033 76.8184C21.4283 76.685 21.2717 76.5284 21.1383 76.3517C20.46 75.6401 19.6083 75.1167 18.6683 74.8301V56.5138L31.6217 60.8304L26.455 75.2984L26.4533 75.3001Z" fill="#E8F1F2"/>
<path d="M53.333 18.6665H50.668V21.3331H53.333V18.6665Z" fill="#E8F1F2"/>
</g>
<defs>
<clipPath id="clip0_568_6281">
<rect width="80" height="80" fill="white"/>
</clipPath>
</defs>
</svg>
