<svg width="90" height="93" viewBox="0 0 90 93" fill="none" xmlns="http://www.w3.org/2000/svg">
<path d="M88.2781 76.6557C88.2781 80.8276 86.5477 84.5947 83.7652 87.2806C81.1104 89.8443 77.4964 91.4216 73.5141 91.4216C69.5318 91.4216 65.9178 89.8443 63.2629 87.2806C60.4804 84.5947 58.75 80.8276 58.75 76.6557C58.75 68.5014 65.3598 61.8916 73.5141 61.8916C81.6683 61.8916 88.2781 68.5014 88.2781 76.6557Z" fill="#006CA7" stroke="#E8F1F2" stroke-width="3" stroke-linecap="round" stroke-linejoin="round"/>
<path d="M73.5147 78.2199C76.5086 78.2199 78.9357 75.7928 78.9357 72.7989C78.9357 69.805 76.5086 67.3779 73.5147 67.3779C70.5208 67.3779 68.0938 69.805 68.0938 72.7989C68.0938 75.7928 70.5208 78.2199 73.5147 78.2199Z" fill="#006CA7" stroke="#E8F1F2" stroke-width="3" stroke-linecap="round" stroke-linejoin="round"/>
<path d="M83.764 87.2798C81.1092 89.8435 77.4952 91.4208 73.5129 91.4208C69.5306 91.4208 65.9166 89.8435 63.2617 87.2798C64.9101 84.1491 68.1958 82.0029 71.9612 82.0029H75.0646C78.8299 82.0029 82.1157 84.1491 83.764 87.2798Z" fill="#006CA7" stroke="#E8F1F2" stroke-width="3" stroke-linecap="round" stroke-linejoin="round"/>
<path d="M79.7461 56.6563C80.4973 53.7388 80.8967 50.6792 80.8967 47.5283C80.8967 44.3775 80.4973 41.3178 79.7461 38.4004" fill="#006CA7"/>
<path d="M79.7461 56.6563C80.4973 53.7388 80.8967 50.6792 80.8967 47.5283C80.8967 44.3775 80.4973 41.3178 79.7461 38.4004" stroke="#E8F1F2" stroke-width="3" stroke-linecap="round" stroke-linejoin="round"/>
<path d="M35.2578 82.8877C38.1753 83.6389 41.2349 84.0383 44.3876 84.0383C47.5402 84.0383 50.5999 83.6389 53.5173 82.8877" fill="#006CA7"/>
<path d="M35.2578 82.8877C38.1753 83.6389 41.2349 84.0383 44.3876 84.0383C47.5402 84.0383 50.5999 83.6389 53.5173 82.8877" stroke="#E8F1F2" stroke-width="3" stroke-linecap="round" stroke-linejoin="round"/>
<path d="M9.08574 38.4186C9.06568 38.4132 9.04562 38.4059 9.02556 38.4004C8.27432 41.3178 7.875 44.3757 7.875 47.5283C7.875 50.681 8.27432 53.7388 9.02556 56.6563" fill="#006CA7"/>
<path d="M9.08574 38.4186C9.06568 38.4132 9.04562 38.4059 9.02556 38.4004C8.27432 41.3178 7.875 44.3757 7.875 47.5283C7.875 50.681 8.27432 53.7388 9.02556 56.6563" stroke="#E8F1F2" stroke-width="3" stroke-linecap="round" stroke-linejoin="round"/>
<path d="M53.5137 12.1672C50.5963 11.4159 47.5366 11.0166 44.3858 11.0166C41.2349 11.0166 38.1753 11.4159 35.2578 12.1672" fill="#006CA7"/>
<path d="M53.5137 12.1672C50.5963 11.4159 47.5366 11.0166 44.3858 11.0166C41.2349 11.0166 38.1753 11.4159 35.2578 12.1672" stroke="#E8F1F2" stroke-width="3" stroke-linecap="round" stroke-linejoin="round"/>
<path d="M37.6641 59.6885V61.7343C37.6641 65.4468 40.6745 68.4572 44.3869 68.4572C48.0994 68.4572 51.1098 65.4468 51.1098 61.7343V59.6885H37.6641Z" fill="#006CA7" stroke="#E8F1F2" stroke-width="3" stroke-linecap="round" stroke-linejoin="round"/>
<path d="M63.668 40.8766L68.0952 39.376" stroke="#E8F1F2" stroke-width="3" stroke-linecap="round" stroke-linejoin="round"/>
<path d="M63.668 47.5283L68.0952 49.029" stroke="#E8F1F2" stroke-width="3" stroke-linecap="round" stroke-linejoin="round"/>
<path d="M25.1069 40.8766L20.6797 39.376" stroke="#E8F1F2" stroke-width="3" stroke-linecap="round" stroke-linejoin="round"/>
<path d="M25.1069 47.5283L20.6797 49.029" stroke="#E8F1F2" stroke-width="3" stroke-linecap="round" stroke-linejoin="round"/>
<path d="M39.4102 43.6738L44.388 49.0292V58.9831" fill="#006CA7"/>
<path d="M39.4102 43.6738L44.388 49.0292V58.9831" stroke="#E8F1F2" stroke-width="3" stroke-linecap="round" stroke-linejoin="round"/>
<path d="M49.3646 43.6738L44.3867 49.0292V58.9831" fill="#006CA7"/>
<path d="M49.3646 43.6738L44.3867 49.0292V58.9831" stroke="#E8F1F2" stroke-width="3" stroke-linecap="round" stroke-linejoin="round"/>
<path d="M41.2953 29.8271C35.1359 31.2056 30.5519 36.623 30.4698 43.2255C30.4151 47.7147 32.4847 51.7189 35.7358 54.3026C36.9538 55.269 37.6613 56.7387 37.6613 58.2941V59.6908H51.107V58.2941C51.107 56.7278 51.8346 55.2599 53.0599 54.2826C56.2545 51.7335 58.3022 47.8077 58.3022 43.4024C58.3022 36.7798 53.6744 31.2403 47.4767 29.8344" fill="#006CA7"/>
<path d="M41.2953 29.8271C35.1359 31.2056 30.5519 36.623 30.4698 43.2255C30.4151 47.7147 32.4847 51.7189 35.7358 54.3026C36.9538 55.269 37.6613 56.7387 37.6613 58.2941V59.6908H51.107V58.2941C51.107 56.7278 51.8346 55.2599 53.0599 54.2826C56.2545 51.7335 58.3022 47.8077 58.3022 43.4024C58.3022 36.7798 53.6744 31.2403 47.4767 29.8344" stroke="#E8F1F2" stroke-width="3" stroke-linecap="round" stroke-linejoin="round"/>
<path d="M31.5281 76.5004C31.5281 80.6723 29.7977 84.4395 27.0152 87.1253C24.3604 89.689 20.7464 91.2663 16.7641 91.2663C12.7818 91.2663 9.16778 89.689 6.51291 87.1253C3.73041 84.4395 2 80.6723 2 76.5004C2 68.3462 8.60982 61.7363 16.7641 61.7363C24.9183 61.7363 31.5281 68.3462 31.5281 76.5004Z" fill="#006CA7" stroke="#E8F1F2" stroke-width="3" stroke-linecap="round" stroke-linejoin="round"/>
<path d="M16.7647 78.0636C19.7586 78.0636 22.1857 75.6366 22.1857 72.6426C22.1857 69.6487 19.7586 67.2217 16.7647 67.2217C13.7708 67.2217 11.3438 69.6487 11.3438 72.6426C11.3438 75.6366 13.7708 78.0636 16.7647 78.0636Z" fill="#006CA7" stroke="#E8F1F2" stroke-width="3" stroke-linecap="round" stroke-linejoin="round"/>
<path d="M27.014 87.1256C24.3592 89.6893 20.7452 91.2665 16.7629 91.2665C12.7806 91.2665 9.16659 89.6893 6.51172 87.1256C8.16007 83.9948 11.4458 81.8486 15.2112 81.8486H18.3146C22.0799 81.8486 25.3657 83.9948 27.014 87.1256Z" fill="#006CA7" stroke="#E8F1F2" stroke-width="3" stroke-linecap="round" stroke-linejoin="round"/>
<path d="M31.5281 16.7641C31.5281 20.936 29.7977 24.7031 27.0152 27.389C24.3604 29.9527 20.7464 31.53 16.7641 31.53C12.7818 31.53 9.16778 29.9527 6.51291 27.389C3.73041 24.7031 2 20.936 2 16.7641C2 8.60982 8.60982 2 16.7641 2C24.9183 2 31.5281 8.60982 31.5281 16.7641Z" fill="#006CA7" stroke="#E8F1F2" stroke-width="3" stroke-linecap="round" stroke-linejoin="round"/>
<path d="M16.7647 18.3263C19.7586 18.3263 22.1857 15.8993 22.1857 12.9053C22.1857 9.91143 19.7586 7.48438 16.7647 7.48438C13.7708 7.48438 11.3438 9.91143 11.3438 12.9053C11.3438 15.8993 13.7708 18.3263 16.7647 18.3263Z" fill="#006CA7" stroke="#E8F1F2" stroke-width="3" stroke-linecap="round" stroke-linejoin="round"/>
<path d="M27.014 27.3892C24.3592 29.9529 20.7452 31.5302 16.7629 31.5302C12.7806 31.5302 9.16659 29.9529 6.51172 27.3892C8.16007 24.2584 11.4458 22.1123 15.2112 22.1123H18.3146C22.0799 22.1123 25.3657 24.2584 27.014 27.3892Z" fill="#006CA7" stroke="#E8F1F2" stroke-width="3" stroke-linecap="round" stroke-linejoin="round"/>
<path d="M87.8094 16.7641C87.8094 20.936 86.079 24.7031 83.2965 27.389C80.6416 29.9527 77.0276 31.53 73.0453 31.53C69.063 31.53 65.449 29.9527 62.7942 27.389C60.0117 24.7031 58.2812 20.936 58.2812 16.7641C58.2812 8.60982 64.8911 2 73.0453 2C81.1996 2 87.8094 8.60982 87.8094 16.7641Z" fill="#006CA7" stroke="#E8F1F2" stroke-width="3" stroke-linecap="round" stroke-linejoin="round"/>
<path d="M73.0421 18.3263C76.036 18.3263 78.463 15.8993 78.463 12.9053C78.463 9.91143 76.036 7.48438 73.0421 7.48438C70.0481 7.48438 67.6211 9.91143 67.6211 12.9053C67.6211 15.8993 70.0481 18.3263 73.0421 18.3263Z" fill="#006CA7" stroke="#E8F1F2" stroke-width="3" stroke-linecap="round" stroke-linejoin="round"/>
<path d="M83.2953 27.3892C80.6404 29.9529 77.0264 31.5302 73.0441 31.5302C69.0618 31.5302 65.4478 29.9529 62.793 27.3892C64.4413 24.2584 67.7271 22.1123 71.4924 22.1123H74.5958C78.3612 22.1123 81.6469 24.2584 83.2953 27.3892Z" fill="#006CA7" stroke="#E8F1F2" stroke-width="3" stroke-linecap="round" stroke-linejoin="round"/>
</svg>
