<svg width="89" height="89" viewBox="0 0 89 89" fill="none" xmlns="http://www.w3.org/2000/svg">
<path d="M4.03717 38.8927H11.503C11.9446 40.485 12.5807 42.0169 13.3987 43.4525L8.11442 48.7347C7.86209 48.987 7.72016 49.3292 7.72016 49.6867C7.72016 50.0442 7.86209 50.3864 8.11442 50.6387L13.8234 56.3493C14.3491 56.8739 15.2007 56.8739 15.7264 56.3493L21.0112 51.064C22.4468 51.8814 23.9771 52.518 25.5694 52.9591V60.4249C25.5694 61.1683 26.1719 61.7707 26.9152 61.7707H34.9898C35.7331 61.7707 36.3356 61.1683 36.3356 60.4249V52.9591C37.9279 52.518 39.4582 51.8814 40.8938 51.064L46.1786 56.3493C46.7127 56.8539 47.548 56.8539 48.0816 56.3493L53.7916 50.6387C54.044 50.3864 54.1859 50.0442 54.1859 49.6867C54.1859 49.3292 54.044 48.987 53.7916 48.7347L48.5063 43.4525C49.3243 42.0169 49.9604 40.485 50.402 38.8927H57.8678C58.6111 38.8927 59.2136 38.2902 59.2136 37.5469V29.4723C59.2136 28.7295 58.6111 28.1266 57.8678 28.1266H50.402C49.9604 26.5348 49.3243 25.0029 48.5063 23.5673L53.7906 18.2851C54.0429 18.0328 54.1848 17.6906 54.1848 17.3331C54.1848 16.9756 54.0429 16.6334 53.7906 16.3811L48.0816 10.6705C47.5559 10.1453 46.7043 10.1453 46.1786 10.6705L40.8938 15.9558C39.4582 15.1389 37.9273 14.5023 36.3356 14.0607V6.5943C36.3356 5.8515 35.7331 5.24854 34.9898 5.24854H26.9152C26.1719 5.24854 25.5694 5.8515 25.5694 6.5943V14.0607C23.9776 14.5023 22.4468 15.1389 21.0112 15.9558L15.7264 10.6705C15.1923 10.1658 14.357 10.1658 13.8234 10.6705L8.11337 16.3811C7.86104 16.6334 7.7191 16.9756 7.7191 17.3331C7.7191 17.6906 7.86104 18.0328 8.11337 18.2851L13.3987 23.5673C12.5807 25.0029 11.9446 26.5348 11.503 28.1266H4.03717C3.29385 28.1266 2.69141 28.7295 2.69141 29.4723V37.5469C2.69141 38.2902 3.29385 38.8927 4.03717 38.8927ZM5.38294 30.8181H12.556C13.1884 30.8181 13.7356 30.3781 13.8707 29.7604C14.3123 27.7449 15.1108 25.824 16.2284 24.0893C16.5696 23.5573 16.4939 22.8586 16.0466 22.4113L10.9679 17.3326L14.7749 13.525L19.8526 18.6037C20.2999 19.0521 20.9991 19.1278 21.5321 18.7861C23.2674 17.669 25.1878 16.8705 27.2033 16.4284C27.8204 16.2928 28.261 15.7455 28.261 15.1131V7.94007H33.644V15.1131C33.644 15.7455 34.0846 16.2928 34.7017 16.4284C36.7172 16.8705 38.6376 17.669 40.3729 18.7861C40.9059 19.1278 41.6051 19.0521 42.0524 18.6037L47.1301 13.525L50.9361 17.3326L45.8584 22.4097C45.41 22.8576 45.3348 23.5567 45.6765 24.0893C46.7942 25.8251 47.5916 27.7454 48.0327 29.7615C48.1683 30.3791 48.7156 30.8197 49.3474 30.8197H56.5221V36.2027H49.3474C48.7156 36.2027 48.1683 36.6427 48.0327 37.2604C47.5916 39.2759 46.7936 41.1963 45.6765 42.93C45.3354 43.4625 45.4111 44.1612 45.8584 44.6085L50.9371 49.6862L47.1301 53.4948L42.0524 48.4156C41.6051 47.9677 40.9059 47.892 40.3729 48.2337C38.6386 49.3513 36.7188 50.1498 34.7033 50.5914C34.0851 50.726 33.644 51.2737 33.644 51.9061V59.0792H28.261V51.9061C28.261 51.2737 27.8199 50.726 27.2017 50.5914C25.1862 50.1498 23.2664 49.3513 21.5321 48.2337C20.9991 47.892 20.2999 47.9677 19.8526 48.4156L14.7749 53.4948L10.9689 49.6872L16.0466 44.6096C16.495 44.1622 16.5701 43.463 16.2284 42.93C15.1108 41.1947 14.3123 39.2738 13.8707 37.2578C13.7351 36.6401 13.1884 36.2012 12.556 36.2012H5.38294V30.8181Z" fill="#E8F1F2"/>
<path d="M30.9536 44.2754C36.8997 44.2754 41.7198 39.4559 41.7198 33.5093C41.7198 27.5632 36.8997 22.7432 30.9536 22.7432C25.0076 22.7432 20.1875 27.5632 20.1875 33.5093C20.1938 39.4522 25.0107 44.2691 30.9536 44.2754ZM30.9536 25.4347C35.4125 25.4347 39.0282 29.0504 39.0282 33.5093C39.0282 37.9687 35.4125 41.5839 30.9536 41.5839C26.4947 41.5839 22.879 37.9687 22.879 33.5093C22.8838 29.0514 26.4958 25.4394 30.9536 25.4347Z" fill="#E8F1F2"/>
<path d="M30.9519 48.3129C39.1274 48.3129 45.7553 41.6855 45.7553 33.5095C45.7553 25.334 39.1274 18.7061 30.9519 18.7061C22.7763 18.7061 16.1484 25.334 16.1484 33.5095C16.1584 41.6813 22.78 48.3035 30.9519 48.3129ZM30.9519 21.3976C37.6413 21.3976 43.0638 26.8201 43.0638 33.5095C43.0638 40.1989 37.6413 45.6214 30.9519 45.6214C24.2625 45.6214 18.84 40.1989 18.84 33.5095C18.8473 26.8238 24.2656 21.4049 30.9519 21.3976Z" fill="#E8F1F2"/>
<path d="M79.4001 67.1535V56.3874C79.4001 55.6446 78.7976 55.0416 78.0543 55.0416H75.3628V44.2755C75.3628 43.5327 74.7603 42.9297 74.017 42.9297H61.9051C61.1618 42.9297 60.5594 43.5327 60.5594 44.2755V55.0416H53.8305C53.0872 55.0416 52.4848 55.6446 52.4848 56.3874V67.1535H9.42024C5.70571 67.1582 2.69614 70.1678 2.69141 73.8823V76.5738C2.69614 80.2889 5.70571 83.2985 9.42024 83.3027H79.4001C83.1146 83.2985 86.1242 80.2889 86.1289 76.5738V73.8823C86.1242 70.1678 83.1146 67.1582 79.4001 67.1535ZM76.7085 67.1535H67.2882V57.7331H76.7085V67.1535ZM63.2509 45.6212H72.6712V55.0416H63.2509V45.6212ZM55.1763 57.7331H64.5966V67.1535H55.1763V57.7331ZM83.4374 76.5738C83.4374 78.8038 81.6295 80.6111 79.4001 80.6111H9.42024C7.19079 80.6111 5.38294 78.8038 5.38294 76.5738V73.8823C5.38294 71.6529 7.19079 69.845 9.42024 69.845H79.4001C81.6295 69.845 83.4374 71.6529 83.4374 73.8823V76.5738Z" fill="#E8F1F2"/>
<path d="M44.4084 71.1909C42.1789 71.1909 40.3711 72.9988 40.3711 75.2282C40.3711 77.4582 42.1789 79.2655 44.4084 79.2655C46.6378 79.2655 48.4457 77.4582 48.4457 75.2282C48.4457 72.9988 46.6378 71.1909 44.4084 71.1909ZM44.4084 76.574C43.6651 76.574 43.0626 75.9715 43.0626 75.2282C43.0626 74.4854 43.6651 73.8825 44.4084 73.8825C45.1517 73.8825 45.7542 74.4854 45.7542 75.2282C45.7542 75.9715 45.1517 76.574 44.4084 76.574Z" fill="#E8F1F2"/>
<path d="M30.9514 71.1909C28.7219 71.1909 26.9141 72.9988 26.9141 75.2282C26.9141 77.4582 28.7219 79.2655 30.9514 79.2655C33.1808 79.2655 34.9887 77.4582 34.9887 75.2282C34.9887 72.9988 33.1808 71.1909 30.9514 71.1909ZM30.9514 76.574C30.208 76.574 29.6056 75.9715 29.6056 75.2282C29.6056 74.4854 30.208 73.8825 30.9514 73.8825C31.6947 73.8825 32.2971 74.4854 32.2971 75.2282C32.2971 75.9715 31.6947 76.574 30.9514 76.574Z" fill="#E8F1F2"/>
<path d="M57.8693 71.1909C55.6399 71.1909 53.832 72.9988 53.832 75.2282C53.832 77.4582 55.6399 79.2655 57.8693 79.2655C60.0988 79.2655 61.9066 77.4582 61.9066 75.2282C61.9066 72.9988 60.0988 71.1909 57.8693 71.1909ZM57.8693 76.574C57.126 76.574 56.5236 75.9715 56.5236 75.2282C56.5236 74.4854 57.126 73.8825 57.8693 73.8825C58.6127 73.8825 59.2151 74.4854 59.2151 75.2282C59.2151 75.9715 58.6127 76.574 57.8693 76.574Z" fill="#E8F1F2"/>
<path d="M17.4943 71.1909C15.2649 71.1909 13.457 72.9988 13.457 75.2282C13.457 77.4582 15.2649 79.2655 17.4943 79.2655C19.7238 79.2655 21.5316 77.4582 21.5316 75.2282C21.5316 72.9988 19.7238 71.1909 17.4943 71.1909ZM17.4943 76.574C16.751 76.574 16.1486 75.9715 16.1486 75.2282C16.1486 74.4854 16.751 73.8825 17.4943 73.8825C18.2377 73.8825 18.8401 74.4854 18.8401 75.2282C18.8401 75.9715 18.2377 76.574 17.4943 76.574Z" fill="#E8F1F2"/>
<path d="M71.3264 71.1909C69.0969 71.1909 67.2891 72.9988 67.2891 75.2282C67.2891 77.4582 69.0969 79.2655 71.3264 79.2655C73.5558 79.2655 75.3637 77.4582 75.3637 75.2282C75.3637 72.9988 73.5558 71.1909 71.3264 71.1909ZM71.3264 76.574C70.583 76.574 69.9806 75.9715 69.9806 75.2282C69.9806 74.4854 70.583 73.8825 71.3264 73.8825C72.0697 73.8825 72.6721 74.4854 72.6721 75.2282C72.6721 75.9715 72.0697 76.574 71.3264 76.574Z" fill="#E8F1F2"/>
</svg>
