<svg width="85" height="91" viewBox="0 0 85 91" fill="none" xmlns="http://www.w3.org/2000/svg">
<path d="M21.3659 46.2026H12.3984V71.1412H21.3659V46.2026Z" stroke="#E8F1F2" stroke-width="2" stroke-miterlimit="10" stroke-linejoin="round"/>
<path d="M10.4727 40.8911H23.3041V44.0835C23.3041 45.2567 22.3506 46.2117 21.1791 46.2117H12.5976C11.4262 46.2117 10.4727 45.2567 10.4727 44.0835V40.8911Z" stroke="#E8F1F2" stroke-width="2" stroke-miterlimit="10" stroke-linejoin="round"/>
<path d="M12.5976 71.1274H21.1791C22.3506 71.1274 23.3041 72.0824 23.3041 73.2557V76.448H10.4727V73.2557C10.4727 72.0824 11.4262 71.1274 12.5976 71.1274Z" stroke="#E8F1F2" stroke-width="2" stroke-miterlimit="10" stroke-linejoin="round"/>
<path d="M34.2487 46.2026H25.2812V71.1412H34.2487V46.2026Z" stroke="#E8F1F2" stroke-width="2" stroke-miterlimit="10" stroke-linejoin="round"/>
<path d="M23.3477 40.8911H36.1791V44.0835C36.1791 45.2567 35.2256 46.2117 34.0541 46.2117H25.4726C24.3012 46.2117 23.3477 45.2567 23.3477 44.0835V40.8911Z" stroke="#E8F1F2" stroke-width="2" stroke-miterlimit="10" stroke-linejoin="round"/>
<path d="M25.4726 71.1274H34.0541C35.2256 71.1274 36.1791 72.0824 36.1791 73.2557V76.448H23.3477V73.2557C23.3477 72.0824 24.3012 71.1274 25.4726 71.1274Z" stroke="#E8F1F2" stroke-width="2" stroke-miterlimit="10" stroke-linejoin="round"/>
<path d="M59.4831 46.2026H50.5156V71.1412H59.4831V46.2026Z" stroke="#E8F1F2" stroke-width="2" stroke-miterlimit="10" stroke-linejoin="round"/>
<path d="M48.5781 40.8911H61.4095V44.0835C61.4095 45.2567 60.456 46.2117 59.2846 46.2117H50.7031C49.5316 46.2117 48.5781 45.2567 48.5781 44.0835V40.8911Z" stroke="#E8F1F2" stroke-width="2" stroke-miterlimit="10" stroke-linejoin="round"/>
<path d="M50.7031 71.1274H59.2846C60.456 71.1274 61.4095 72.0824 61.4095 73.2557V76.448H48.5781V73.2557C48.5781 72.0824 49.5316 71.1274 50.7031 71.1274Z" stroke="#E8F1F2" stroke-width="2" stroke-miterlimit="10" stroke-linejoin="round"/>
<path d="M72.3581 46.2026H63.3906V71.1412H72.3581V46.2026Z" stroke="#E8F1F2" stroke-width="2" stroke-miterlimit="10" stroke-linejoin="round"/>
<path d="M61.4609 40.8911H74.2924V44.0835C74.2924 45.2567 73.3389 46.2117 72.1674 46.2117H63.5859C62.4144 46.2117 61.4609 45.2567 61.4609 44.0835V40.8911Z" stroke="#E8F1F2" stroke-width="2" stroke-miterlimit="10" stroke-linejoin="round"/>
<path d="M63.5859 71.1274H72.1674C73.3389 71.1274 74.2924 72.0824 74.2924 73.2557V76.448H61.4609V73.2557C61.4609 72.0824 62.4144 71.1274 63.5859 71.1274Z" stroke="#E8F1F2" stroke-width="2" stroke-miterlimit="10" stroke-linejoin="round"/>
<path d="M76.4345 32.7741L76.4027 32.8878H8.46337L8.41797 32.6877L42.4535 10.373L76.4345 32.7741Z" stroke="#E8F1F2" stroke-width="2" stroke-miterlimit="10" stroke-linejoin="round"/>
<path d="M8.55078 32.8872H76.4901L74.397 40.6953H10.4578L8.55078 32.8872Z" stroke="#E8F1F2" stroke-width="2" stroke-miterlimit="10" stroke-linejoin="round"/>
<path d="M8.4152 76.6074H78.7701C80.3456 76.6074 81.626 77.8898 81.626 79.4678V83.1149H5.55469V79.4678C5.55469 77.8898 6.83511 76.6074 8.41065 76.6074H8.4152Z" stroke="#E8F1F2" stroke-width="2" stroke-miterlimit="10" stroke-linejoin="round"/>
<path d="M6.0402 83.2373H81.1444C82.72 83.2373 84.0004 84.5197 84.0004 86.0977V89.7448H3.17969V86.0977C3.17969 84.5197 4.46011 83.2373 6.03566 83.2373H6.0402Z" stroke="#E8F1F2" stroke-width="2" stroke-miterlimit="10" stroke-linejoin="round"/>
<path d="M82.9249 27.6305L76.6227 32.6236L42.4556 10.3726L8.42005 32.6873L1.94531 27.6714L42.4556 1.32764L82.9249 27.6305Z" stroke="#E8F1F2" stroke-width="2" stroke-miterlimit="10" stroke-linejoin="round"/>
</svg>
