<svg width="71" height="86" viewBox="0 0 71 86" fill="none" xmlns="http://www.w3.org/2000/svg">
<g clip-path="url(#clip0_568_6340)">
<path d="M65.5414 7.23105H48.0228V5.53625C48.0228 2.48426 45.5751 0 42.5642 0H28.4341C25.4249 0 22.9755 2.48258 22.9755 5.53625V7.23105H5.45861C2.44776 7.23105 0 9.71363 0 12.7673V17.0639C0 17.8064 0.592895 18.4077 1.3249 18.4077H4.22976L7.9809 80.8014C8.15645 83.7173 10.5496 86 13.4296 86H57.5737C60.4538 86 62.8469 83.7156 63.0208 80.8014L66.7719 18.4077H69.6768C70.4088 18.4077 71.0017 17.8064 71.0017 17.0639V12.7673C71.0017 9.71531 68.5539 7.23105 65.543 7.23105H65.5414ZM25.627 5.53625C25.627 3.96574 26.8873 2.6875 28.4358 2.6875H42.5659C44.1144 2.6875 45.3747 3.96574 45.3747 5.53625V7.23105H25.6286V5.53625H25.627ZM60.3743 80.6384C60.2848 82.1384 59.0527 83.3125 57.5721 83.3125H13.4279C11.9457 83.3125 10.7152 82.1384 10.6241 80.6384L6.88288 18.406H64.1155L60.3743 80.6368V80.6384ZM68.3502 15.7202H2.64981V12.7673C2.64981 11.1968 3.91013 9.91855 5.45861 9.91855H65.543C67.0915 9.91855 68.3502 11.1968 68.3502 12.7673V15.7202ZM43.702 53.2545C43.6109 53.5988 43.6589 53.965 43.8345 54.2741L45.5221 57.2387H41.1433V55.1105C41.1433 54.5613 40.8137 54.0675 40.3102 53.8625C39.8068 53.6576 39.2321 53.7853 38.8595 54.1834L32.283 61.1793C31.7944 61.6983 31.7944 62.5146 32.283 63.0336L38.8595 70.0295C39.1145 70.3016 39.4623 70.4461 39.8184 70.4461C39.984 70.4461 40.1512 70.4142 40.3102 70.3503C40.8137 70.1471 41.1433 69.6516 41.1433 69.1023V66.9742H51.4759C52.5573 66.9742 53.5245 66.4081 54.0644 65.4574L56.8119 60.63C57.3518 59.681 57.3518 58.5472 56.8119 57.5982L52.1466 49.4046C51.7806 48.763 50.9707 48.5413 50.3364 48.9125L44.3181 52.4365C44.0133 52.6145 43.7914 52.9085 43.7003 53.2528L43.702 53.2545ZM51.769 64.1153C51.6994 64.2363 51.6117 64.2884 51.4742 64.2884H39.8167C39.0847 64.2884 38.4918 64.8897 38.4918 65.6321V65.748L35.0719 62.1081L38.4918 58.4682V58.5841C38.4918 59.3266 39.0847 59.9279 39.8167 59.9279H53.6769C53.8491 59.9279 54.0164 59.9111 54.1803 59.8792L51.7673 64.117L51.769 64.1153ZM50.5153 51.9141L53.5477 57.2404H48.5826L46.7923 54.0943L50.517 51.9141H50.5153ZM25.9847 39.5684L32.0031 43.0924C32.6357 43.4636 33.4472 43.2436 33.8132 42.6002L35.5008 39.6356L37.6902 43.4821L35.8718 44.547C35.4031 44.8225 35.1464 45.3583 35.2226 45.9025C35.3004 46.4467 35.6963 46.8868 36.2212 47.0178L45.484 49.2955C45.5883 49.3207 45.6943 49.3341 45.797 49.3341C46.3717 49.3341 46.8983 48.9528 47.0672 48.3683L49.7535 39.0947C49.9059 38.5673 49.727 37.9996 49.3014 37.6603C48.8757 37.321 48.2895 37.2773 47.8191 37.5528L46.0007 38.6177L40.8352 29.5423C40.2953 28.5933 39.3265 28.0256 38.245 28.0256H32.75C31.6685 28.0256 30.7014 28.5933 30.1615 29.5423L25.4961 37.7359C25.1301 38.3775 25.3471 39.2005 25.9814 39.5718L25.9847 39.5684ZM38.5431 30.8827L44.3711 41.1221C44.5466 41.4312 44.8364 41.6562 45.1759 41.7486C45.5155 41.841 45.8765 41.7923 46.1812 41.6143L46.2806 41.5571L44.8828 46.3812L40.0651 45.197L40.1628 45.1399C40.4676 44.9619 40.6895 44.6679 40.7806 44.3236C40.8717 43.9793 40.8236 43.6131 40.6481 43.304L33.7172 31.1296C33.6311 30.9785 33.5333 30.8407 33.424 30.7131H38.2483C38.3858 30.7131 38.4736 30.7635 38.5431 30.8844V30.8827ZM31.488 32.5859L33.9706 36.9464L32.1803 40.0925L28.4556 37.9122L31.488 32.5859ZM16.9356 65.4591C17.4755 66.4081 18.4443 66.9759 19.5241 66.9759H28.8531C29.5851 66.9759 30.178 66.3745 30.178 65.6321V58.5841C30.178 57.8417 29.5851 57.2404 28.8531 57.2404H25.4763L27.6657 53.3939L29.4841 54.4588C29.9528 54.7343 30.5407 54.6906 30.9663 54.3513C31.392 54.012 31.5708 53.4443 31.4185 52.9169L28.7322 43.6433C28.5335 42.9546 27.8363 42.5465 27.149 42.7161L17.8862 44.9938C17.3596 45.1231 16.9638 45.5649 16.8876 46.1091C16.8114 46.6533 17.0681 47.1891 17.5368 47.4646L19.3552 48.5295L14.1897 57.6049C13.6498 58.5539 13.6498 59.6877 14.1897 60.6367L16.9373 65.4641L16.9356 65.4591ZM27.5282 59.9262V64.2867H21.4651L23.9477 59.9262H27.5282ZM16.4818 58.9436L22.3097 48.7042C22.4853 48.3952 22.5333 48.029 22.4422 47.6847C22.3511 47.3403 22.1292 47.0464 21.8245 46.8683L21.7251 46.8112L26.5428 45.627L27.9406 50.4511L27.8429 50.394C27.5381 50.2159 27.1771 50.1672 26.8376 50.2596C26.4981 50.352 26.2083 50.5771 26.0327 50.8861L19.1018 63.0605C19.0157 63.2117 18.9461 63.3679 18.8931 63.5258L16.4818 59.2879C16.4123 59.167 16.4123 59.0645 16.4818 58.9436Z" fill="#E8F1F2"/>
</g>
<defs>
<clipPath id="clip0_568_6340">
<rect width="71" height="86" fill="white"/>
</clipPath>
</defs>
</svg>
