<svg width="134" height="102" viewBox="0 0 134 102" fill="none" xmlns="http://www.w3.org/2000/svg">
<path d="M27.3495 27.093C34.2153 27.093 39.7811 21.4757 39.7811 14.5465C39.7811 7.61726 34.2153 2 27.3495 2C20.4838 2 14.918 7.61726 14.918 14.5465C14.918 21.4757 20.4838 27.093 27.3495 27.093Z" fill="#006CA7" stroke="#E8F1F2" stroke-width="3" stroke-linecap="round" stroke-linejoin="round"/>
<path d="M0 52.8013C3.10789 39.947 14.2951 36.2739 27.6614 36.2739C41.0278 36.2739 52.215 39.947 55.0103 52.8013" fill="#006CA7"/>
<path d="M0 52.8013C3.10789 39.947 14.2951 36.2739 27.6614 36.2739C41.0278 36.2739 52.215 39.947 55.0103 52.8013" stroke="#E8F1F2" stroke-width="3" stroke-linecap="round" stroke-linejoin="round"/>
<path d="M104.99 27.093C111.856 27.093 117.422 21.4757 117.422 14.5465C117.422 7.61726 111.856 2 104.99 2C98.1244 2 92.5586 7.61726 92.5586 14.5465C92.5586 21.4757 98.1244 27.093 104.99 27.093Z" fill="#006CA7" stroke="#E8F1F2" stroke-width="3" stroke-linecap="round" stroke-linejoin="round"/>
<path d="M77.6406 52.8013C80.7485 39.947 91.9357 36.2739 105.302 36.2739C118.668 36.2739 129.856 39.947 132.651 52.8013" fill="#006CA7"/>
<path d="M77.6406 52.8013C80.7485 39.947 91.9357 36.2739 105.302 36.2739C118.668 36.2739 129.856 39.947 132.651 52.8013" stroke="#E8F1F2" stroke-width="3" stroke-linecap="round" stroke-linejoin="round"/>
<path d="M66.1659 43.4294C73.0317 43.4294 78.5975 37.8122 78.5975 30.8829C78.5975 23.9537 73.0317 18.3364 66.1659 18.3364C59.3002 18.3364 53.7344 23.9537 53.7344 30.8829C53.7344 37.8122 59.3002 43.4294 66.1659 43.4294Z" fill="#006CA7" stroke="#E8F1F2" stroke-width="3" stroke-linecap="round" stroke-linejoin="round"/>
<path d="M38.8164 69.1378C41.9243 56.2834 53.1115 52.6104 66.4778 52.6104C79.8442 52.6104 91.0314 56.2834 93.8267 69.1378" fill="#006CA7"/>
<path d="M38.8164 97.5L38.8164 69.1378C41.9243 56.2834 53.1115 52.6104 66.4778 52.6104C79.8442 52.6104 91.0314 56.2834 93.8267 69.1378V76.9498V77.069V100.5" stroke="#E8F1F2" stroke-width="3" stroke-linecap="round" stroke-linejoin="round"/>
</svg>
