<svg width="337" height="187" viewBox="0 0 337 187" fill="none" xmlns="http://www.w3.org/2000/svg">
<mask id="mask0_569_6533" style="mask-type:alpha" maskUnits="userSpaceOnUse" x="0" y="0" width="337" height="187">
<rect x="0.5" width="335.667" height="187" rx="32" fill="#DEDFE3"/>
</mask>
<g mask="url(#mask0_569_6533)">
<rect x="-63.0059" y="-6" width="444.641" height="198" rx="32" fill="#D9D9D9"/>
<rect x="-63.0078" y="-6" width="444.641" height="198" rx="32" fill="url(#paint0_linear_569_6533)"/>
<mask id="mask1_569_6533" style="mask-type:alpha" maskUnits="userSpaceOnUse" x="-64" y="-6" width="446" height="198">
<rect x="-63.0078" y="-6" width="444.641" height="198" rx="32" fill="url(#paint1_linear_569_6533)"/>
</mask>
<g mask="url(#mask1_569_6533)">
<g filter="url(#filter0_d_569_6533)">
<mask id="mask2_569_6533" style="mask-type:alpha" maskUnits="userSpaceOnUse" x="-4" y="-76" width="340" height="338">
<ellipse opacity="0.2" cx="165.951" cy="92.9999" rx="169.406" ry="168.06" fill="white"/>
</mask>
<g mask="url(#mask2_569_6533)">
<g filter="url(#filter1_d_569_6533)">
<rect x="-333.492" y="-122.954" width="969.917" height="431.907" rx="32" fill="url(#paint2_linear_569_6533)"/>
</g>
</g>
</g>
</g>
<mask id="mask3_569_6533" style="mask-type:alpha" maskUnits="userSpaceOnUse" x="-64" y="-6" width="446" height="198">
<rect x="-63.0078" y="-6" width="444.641" height="198" rx="32" fill="url(#paint3_linear_569_6533)"/>
</mask>
<g mask="url(#mask3_569_6533)">
<g filter="url(#filter2_d_569_6533)">
<mask id="mask4_569_6533" style="mask-type:alpha" maskUnits="userSpaceOnUse" x="69" y="-3" width="194" height="192">
<ellipse opacity="0.2" cx="165.953" cy="93" rx="96.1713" ry="95.4073" fill="white"/>
</mask>
<g mask="url(#mask4_569_6533)">
<rect x="-117.578" y="-29.5962" width="550.618" height="245.192" rx="32" fill="url(#paint4_linear_569_6533)"/>
</g>
</g>
</g>
<path opacity="0.2" d="M165.754 148.908C199.47 148.908 226.803 121.793 226.803 88.3445C226.803 54.8961 199.47 27.7808 165.754 27.7808C132.038 27.7808 104.705 54.8961 104.705 88.3445C104.705 121.793 132.038 148.908 165.754 148.908Z" fill="white"/>
<path d="M217.828 119.968C197.682 152.557 150.804 158.447 123.163 131.733C116.146 104.232 109.132 76.7284 102.112 49.2275C101.402 46.4391 103.323 43.5543 106.403 42.7806C133.28 36.0321 160.159 29.2835 187.035 22.535C190.117 21.7613 193.19 23.3928 193.902 26.1812C201.876 57.4444 209.852 88.7052 217.828 119.968Z" fill="#E8F1F2"/>
<path d="M180.302 46.0657L123.616 60.2994C122.617 60.5515 121.598 59.9508 121.346 58.9571C121.094 57.9634 121.7 56.9548 122.699 56.7051L179.385 42.4714C180.386 42.2193 181.403 42.8224 181.655 43.8137C181.906 44.805 181.301 45.816 180.302 46.0657Z" fill="#006CA7"/>
<path d="M183.784 59.726L127.098 73.9597C126.099 74.2118 125.08 73.6111 124.828 72.6174C124.577 71.6237 125.182 70.6151 126.182 70.3654L182.867 56.1317C183.869 55.8796 184.885 56.4803 185.137 57.474C185.389 58.4677 184.783 59.4763 183.784 59.726Z" fill="#006CA7"/>
<path d="M187.44 74.0439L130.755 88.2776C129.756 88.5297 128.736 87.9265 128.485 86.9353C128.233 85.944 128.839 84.933 129.838 84.6833L186.523 70.4496C187.525 70.1974 188.542 70.7981 188.793 71.7919C189.045 72.7856 188.44 73.7917 187.44 74.0439Z" fill="#006CA7"/>
<path d="M190.477 85.9662L133.792 100.2C132.793 100.452 131.773 99.8489 131.522 98.8576C131.27 97.8664 131.876 96.8553 132.875 96.6057L189.56 82.3719C190.562 82.1198 191.579 82.7205 191.83 83.7142C192.082 84.708 191.477 85.7165 190.477 85.9662Z" fill="#006CA7"/>
<path d="M195.401 105.258L169.554 111.747C168.552 111.999 167.535 111.396 167.284 110.404C167.032 109.413 167.637 108.402 168.637 108.152L194.484 101.663C195.486 101.411 196.502 102.014 196.754 103.006C197.006 103.997 196.4 105.008 195.401 105.258Z" fill="#006CA7"/>
<path d="M198.293 116.601L172.446 123.09C171.444 123.342 170.428 122.739 170.176 121.748C169.924 120.757 170.53 119.746 171.529 119.496L197.376 113.007C198.378 112.755 199.395 113.358 199.646 114.349C199.901 115.343 199.293 116.352 198.293 116.601Z" fill="#006CA7"/>
<path d="M225.967 42.9733C224.188 44.7383 221.995 45.8432 219.7 46.2931C215.524 47.104 211.647 48.9678 208.325 51.5758L200.018 43.3342C200.381 42.8744 200.73 42.4047 201.062 41.9227C203.145 38.9414 204.64 35.5795 205.365 32.0001C205.828 29.7234 206.957 27.5505 208.749 25.7929C213.573 21.064 221.594 21.2198 226.236 26.1242C227.036 26.9696 227.689 27.9015 228.2 28.8879C230.552 33.4413 229.807 39.1615 225.965 42.9757L225.967 42.9733Z" fill="#A54B0E"/>
<path d="M209.51 58.604L209.493 58.6213L192.93 42.19L192.947 42.1727C193.398 41.7253 193.929 41.4014 194.49 41.2037C194.943 41.0405 195.421 40.9614 195.897 40.9614C196.966 40.9614 198.033 41.3644 198.848 42.1727L209.508 52.7479C210.686 53.9171 211.015 55.6129 210.484 57.0738C210.282 57.63 209.959 58.1566 209.508 58.604H209.51Z" fill="#6D2929"/>
<path d="M210.486 57.0738L194.488 41.2037C194.942 41.0405 195.42 40.9614 195.896 40.9614C196.965 40.9614 198.032 41.3644 198.846 42.1727L209.506 52.7479C210.685 53.9171 211.014 55.6129 210.483 57.0738H210.486Z" fill="#844242"/>
<path d="M205.591 70.7068L204.226 72.0614C203.932 72.3531 203.598 72.583 203.241 72.7462C201.951 73.3493 200.361 73.1219 199.292 72.0614L179.383 52.3102C178.314 51.2497 178.084 49.6726 178.692 48.3921C178.859 48.0386 179.089 47.7099 179.383 47.4157L180.748 46.061L205.591 70.7068Z" fill="#4D5961"/>
<path d="M205.589 70.7068L204.223 72.0614C203.929 72.3531 203.595 72.583 203.239 72.7462L178.688 48.3897C178.854 48.0362 179.084 47.7074 179.378 47.4132L180.743 46.0586L205.586 70.7043L205.589 70.7068Z" fill="#454545"/>
<path d="M210.602 73.6013C209.608 74.4196 208.611 74.4196 207.617 73.6013L177.83 44.0512C176.771 43.0006 177.07 41.9475 177.882 41.0453C178.929 39.8908 180.828 38.9886 181.824 38.6771C185.315 37.5771 189.23 38.5214 191.819 41.0898L210.602 59.7236C211.389 60.5047 212.017 61.3872 212.483 62.3266C214.302 65.9926 213.677 70.5534 210.602 73.6038V73.6013Z" fill="#D88521"/>
<path d="M209.591 69.5374C208.597 70.3557 207.6 70.3557 206.606 69.5374L177.883 41.0428C178.929 39.8884 180.828 38.9861 181.825 38.6746C185.316 37.5746 189.23 38.5189 191.819 41.0873L210.602 59.7212C211.39 60.5023 212.018 61.3848 212.484 62.3242C212.556 64.9272 211.592 67.5499 209.591 69.5374Z" fill="#FEA832"/>
<path d="M174.661 151.933L150.229 121.926C149.484 121.006 148.136 120.848 147.196 121.572L133.693 132.36C132.779 133.107 132.632 134.441 133.364 135.363L157.806 165.428C158.778 166.632 160.328 167.225 161.863 166.98L162.155 166.936C163.774 166.585 165.052 165.356 165.461 163.762L166.602 159.124L171.459 158.959C173.143 158.926 174.663 157.945 175.373 156.427C176.009 154.914 175.735 153.177 174.661 151.931V151.933Z" fill="url(#paint5_radial_569_6533)"/>
<path d="M151.89 130.912C151.658 130.373 151.214 129.952 150.664 129.745L134.442 123.562C133.326 123.177 132.1 123.73 131.664 124.823L117.687 160.818C117.052 162.331 117.326 164.068 118.4 165.314C119.521 166.526 121.231 167.013 122.828 166.573L127.438 165.233L130.019 169.319C130.901 170.711 132.499 171.489 134.148 171.334L134.554 171.269C136.094 171.022 137.382 169.976 137.931 168.528L151.902 132.504C152.104 131.992 152.099 131.421 151.887 130.912H151.89Z" fill="url(#paint6_radial_569_6533)"/>
<path d="M165.15 123.852L162.157 121.689C161.527 121.229 161.108 120.542 160.991 119.773L160.535 116.89C159.902 112.891 156.127 110.152 152.093 110.765L149.188 111.217C148.415 111.343 147.625 111.158 146.992 110.703L143.967 108.518C140.638 106.231 136.086 106.941 133.624 110.13L131.469 113.064C131.005 113.689 130.312 114.104 129.537 114.221L126.632 114.673C122.578 115.224 119.74 118.932 120.295 122.954C120.3 122.994 120.305 123.033 120.313 123.07L120.769 125.953C120.931 126.739 120.759 127.557 120.293 128.212L118.113 131.181C116.964 132.746 116.49 134.701 116.799 136.612C117.101 138.533 118.157 140.258 119.732 141.413L122.72 143.546C123.358 144.011 123.781 144.713 123.891 145.489L124.347 148.371C124.95 152.388 128.72 155.157 132.769 154.559L135.675 154.106C136.452 153.988 137.244 154.183 137.875 154.65L140.833 156.788C144.147 159.139 148.747 158.42 151.176 155.177L153.331 152.242C153.787 151.607 154.48 151.179 155.258 151.056L158.163 150.603C162.182 149.961 164.926 146.223 164.31 142.233L163.854 139.351C163.72 138.577 163.904 137.781 164.368 137.143L166.55 134.204C169.047 130.966 168.422 126.333 165.157 123.856C165.155 123.856 165.15 123.852 165.147 123.849L165.15 123.852Z" fill="url(#paint7_linear_569_6533)"/>
<path d="M141.578 139.667C140.993 139.754 140.395 139.613 139.909 139.277L134.325 135.215C133.34 134.503 133.124 133.136 133.841 132.16C134.576 131.193 135.952 130.978 136.951 131.675L140.754 134.449L147.606 125.082C148.341 124.116 149.716 123.901 150.716 124.598C151.7 125.31 151.917 126.677 151.199 127.653L143.021 138.792C142.672 139.257 142.156 139.571 141.581 139.667H141.578Z" fill="#E8F1F2"/>
</g>
<defs>
<filter id="filter0_d_569_6533" x="-107.455" y="-179.061" width="546.812" height="544.121" filterUnits="userSpaceOnUse" color-interpolation-filters="sRGB">
<feFlood flood-opacity="0" result="BackgroundImageFix"/>
<feColorMatrix in="SourceAlpha" type="matrix" values="0 0 0 0 0 0 0 0 0 0 0 0 0 0 0 0 0 0 127 0" result="hardAlpha"/>
<feOffset/>
<feGaussianBlur stdDeviation="52"/>
<feComposite in2="hardAlpha" operator="out"/>
<feColorMatrix type="matrix" values="0 0 0 0 0.155556 0 0 0 0 0.583333 0 0 0 0 0.36429 0 0 0 1 0"/>
<feBlend mode="normal" in2="BackgroundImageFix" result="effect1_dropShadow_569_6533"/>
<feBlend mode="normal" in="SourceGraphic" in2="effect1_dropShadow_569_6533" result="shape"/>
</filter>
<filter id="filter1_d_569_6533" x="-597.492" y="-382.954" width="1497.92" height="959.907" filterUnits="userSpaceOnUse" color-interpolation-filters="sRGB">
<feFlood flood-opacity="0" result="BackgroundImageFix"/>
<feColorMatrix in="SourceAlpha" type="matrix" values="0 0 0 0 0 0 0 0 0 0 0 0 0 0 0 0 0 0 127 0" result="hardAlpha"/>
<feOffset dy="4"/>
<feGaussianBlur stdDeviation="132"/>
<feComposite in2="hardAlpha" operator="out"/>
<feColorMatrix type="matrix" values="0 0 0 0 0 0 0 0 0 0 0 0 0 0 0 0 0 0 0.25 0"/>
<feBlend mode="normal" in2="BackgroundImageFix" result="effect1_dropShadow_569_6533"/>
<feBlend mode="normal" in="SourceGraphic" in2="effect1_dropShadow_569_6533" result="shape"/>
</filter>
<filter id="filter2_d_569_6533" x="-34.2188" y="-106.407" width="400.342" height="398.814" filterUnits="userSpaceOnUse" color-interpolation-filters="sRGB">
<feFlood flood-opacity="0" result="BackgroundImageFix"/>
<feColorMatrix in="SourceAlpha" type="matrix" values="0 0 0 0 0 0 0 0 0 0 0 0 0 0 0 0 0 0 127 0" result="hardAlpha"/>
<feOffset/>
<feGaussianBlur stdDeviation="52"/>
<feComposite in2="hardAlpha" operator="out"/>
<feColorMatrix type="matrix" values="0 0 0 0 0.155556 0 0 0 0 0.583333 0 0 0 0 0.36429 0 0 0 1 0"/>
<feBlend mode="normal" in2="BackgroundImageFix" result="effect1_dropShadow_569_6533"/>
<feBlend mode="normal" in="SourceGraphic" in2="effect1_dropShadow_569_6533" result="shape"/>
</filter>
<linearGradient id="paint0_linear_569_6533" x1="274.133" y1="85.8839" x2="220.024" y2="301.638" gradientUnits="userSpaceOnUse">
<stop stop-color="#00A651"/>
<stop offset="1" stop-color="#3DBB95"/>
</linearGradient>
<linearGradient id="paint1_linear_569_6533" x1="274.133" y1="85.8839" x2="220.024" y2="301.638" gradientUnits="userSpaceOnUse">
<stop stop-color="#00A651"/>
<stop offset="1" stop-color="#3DBB95"/>
</linearGradient>
<linearGradient id="paint2_linear_569_6533" x1="401.928" y1="77.4771" x2="283.898" y2="548.112" gradientUnits="userSpaceOnUse">
<stop stop-color="#00A651"/>
<stop offset="1" stop-color="#3DBB95"/>
</linearGradient>
<linearGradient id="paint3_linear_569_6533" x1="274.133" y1="85.8839" x2="220.024" y2="301.638" gradientUnits="userSpaceOnUse">
<stop stop-color="#00A651"/>
<stop offset="1" stop-color="#3DBB95"/>
</linearGradient>
<linearGradient id="paint4_linear_569_6533" x1="299.917" y1="84.1875" x2="232.912" y2="351.365" gradientUnits="userSpaceOnUse">
<stop stop-color="#00A651"/>
<stop offset="1" stop-color="#3DBB95"/>
</linearGradient>
<radialGradient id="paint5_radial_569_6533" cx="0" cy="0" r="1" gradientUnits="userSpaceOnUse" gradientTransform="translate(154.305 145.196) rotate(89.3464) scale(31.309 29.2084)">
<stop stop-color="#2495D2"/>
<stop offset="1" stop-color="#006CA7"/>
</radialGradient>
<radialGradient id="paint6_radial_569_6533" cx="0" cy="0" r="1" gradientUnits="userSpaceOnUse" gradientTransform="translate(134.7 148.565) rotate(89.4923) scale(32.6694 23.6743)">
<stop stop-color="#2495D2"/>
<stop offset="1" stop-color="#006CA7"/>
</radialGradient>
<linearGradient id="paint7_linear_569_6533" x1="131.625" y1="133.032" x2="156.777" y2="88.0351" gradientUnits="userSpaceOnUse">
<stop stop-color="#00639E"/>
<stop offset="1" stop-color="#00B9F2"/>
</linearGradient>
</defs>
</svg>
