<svg width="334" height="187" viewBox="0 0 334 187" fill="none" xmlns="http://www.w3.org/2000/svg">
<mask id="mask0_569_6610" style="mask-type:alpha" maskUnits="userSpaceOnUse" x="0" y="0" width="334" height="187">
<rect x="0.5" width="333" height="187" rx="32" fill="#DEDFE3"/>
</mask>
<g mask="url(#mask0_569_6610)">
<rect x="-49.5859" y="-2.54932" width="427.085" height="191.705" rx="32" fill="url(#paint0_radial_569_6610)"/>
<g style="mix-blend-mode:color-burn" filter="url(#filter0_d_569_6610)">
<rect x="-29.4883" y="45.7632" width="105.902" height="97.785" rx="8" fill="white"/>
</g>
<g style="mix-blend-mode:color-burn" filter="url(#filter1_d_569_6610)">
<rect x="-29.873" y="45.7632" width="105.902" height="97.785" rx="8" fill="white"/>
</g>
<g style="mix-blend-mode:color-burn" filter="url(#filter2_d_569_6610)">
<rect x="252.27" y="45.7632" width="105.902" height="97.785" rx="8" fill="white"/>
</g>
<g style="mix-blend-mode:color-burn" filter="url(#filter3_d_569_6610)">
<rect x="252.27" y="45.7632" width="105.902" height="97.785" rx="8" fill="white"/>
</g>
<path fill-rule="evenodd" clip-rule="evenodd" d="M118.875 79.9984H127.099L127.043 81.2113C127.042 81.2397 127.04 81.268 127.039 81.2963C127.472 80.3766 128.12 79.6046 128.956 78.9838C129.481 78.5943 130.079 78.2747 130.74 78.0176H126.842V76.8581C126.842 75.8414 127.067 74.8799 127.525 73.9921L127.526 73.989L127.528 73.986C127.991 73.1003 128.641 72.3411 129.458 71.7086L129.462 71.7059L129.465 71.7032C130.296 71.0703 131.264 70.5982 132.351 70.2729C133.463 69.9323 134.676 69.7695 135.979 69.7695C137.552 69.7695 138.998 70.0318 140.294 70.5835C141.626 71.1452 142.707 72.0035 143.501 73.159C144.325 74.3477 144.697 75.7913 144.697 77.4124V84.8531C144.697 86.0145 144.764 86.8157 144.872 87.3081C144.987 87.8271 145.144 88.2552 145.332 88.6047L145.47 88.8615V90.598H137.904L137.588 89.9402C137.578 89.9204 137.569 89.9005 137.559 89.8805C137.198 90.1196 136.805 90.3237 136.383 90.4955L136.375 90.499L136.366 90.5024C135.591 90.8036 134.707 90.9339 133.745 90.9339C132.462 90.9339 131.256 90.6695 130.146 90.1278L130.144 90.1266L130.141 90.1254C129.042 89.5825 128.142 88.8153 127.464 87.8262L127.462 87.8232L127.46 87.8202C126.776 86.808 126.437 85.6556 126.422 84.4003C126.18 85.0629 125.866 85.6931 125.481 86.2889C124.519 87.7776 123.188 88.9277 121.523 89.7412L121.52 89.7428C119.852 90.5513 117.925 90.9339 115.773 90.9339C114.008 90.9339 112.389 90.6374 110.935 90.0181L110.932 90.0167C109.498 89.4004 108.268 88.5081 107.256 87.344L107.254 87.3413L107.251 87.3385C106.253 86.1761 105.506 84.7861 104.995 83.1916L104.993 83.1877L104.992 83.1839C104.492 81.5856 104.251 79.8144 104.251 77.8827V76.5558C104.251 74.6192 104.504 72.8426 105.031 71.2393L105.032 71.2342C105.567 69.6316 106.331 68.2383 107.34 67.0777L107.341 67.077C108.361 65.9056 109.588 65.0072 111.012 64.3897C112.44 63.7707 114.005 63.471 115.689 63.471C117.951 63.471 119.943 63.8753 121.615 64.7435C123.258 65.5964 124.558 66.786 125.481 68.311C126.389 69.7994 126.914 71.4808 127.074 73.3322L127.182 74.5912H118.908L118.881 73.46C118.861 72.6503 118.723 72.0542 118.521 71.6262L118.519 71.6225L118.518 71.6189C118.339 71.2334 118.07 70.9548 117.674 70.7568C117.267 70.5533 116.631 70.4089 115.689 70.4089C115.104 70.4089 114.656 70.5166 114.31 70.6896C113.991 70.849 113.696 71.1126 113.435 71.5367C113.173 71.9626 112.943 72.5723 112.781 73.4104C112.63 74.2381 112.549 75.271 112.549 76.5222V77.8827C112.549 79.1396 112.625 80.1791 112.768 81.0132C112.909 81.8397 113.124 82.4422 113.377 82.8653C113.62 83.2743 113.909 83.542 114.239 83.7131C114.602 83.8843 115.099 83.9959 115.773 83.9959C116.55 83.9959 117.129 83.8746 117.553 83.6836C117.953 83.4927 118.247 83.2206 118.462 82.8502C118.676 82.4702 118.828 81.9178 118.847 81.1297L118.875 79.9984ZM119.469 83.4254C119.133 84.0077 118.657 84.4444 118.041 84.7355C117.425 85.0155 116.669 85.1555 115.773 85.1555C114.967 85.1555 114.284 85.0211 113.724 84.7523C113.176 84.4724 112.728 84.0413 112.381 83.459C112.034 82.8768 111.782 82.1265 111.625 81.2083C111.468 80.2901 111.39 79.1816 111.39 77.8827V76.5222C111.39 75.2233 111.474 74.1147 111.642 73.1965C111.821 72.2671 112.089 71.5113 112.448 70.929C112.806 70.3468 113.254 69.9213 113.792 69.6525C114.329 69.3838 114.962 69.2494 115.689 69.2494C116.731 69.2494 117.565 69.4062 118.192 69.7197C118.819 70.0333 119.278 70.5035 119.569 71.1306C119.861 71.7465 120.017 72.5135 120.04 73.4317H125.918C125.884 73.035 125.832 72.6485 125.761 72.2722C125.531 71.0444 125.108 69.9248 124.491 68.9135C123.684 67.581 122.548 66.534 121.081 65.7726C119.614 65.0112 117.817 64.6305 115.689 64.6305C114.144 64.6305 112.739 64.9048 111.474 65.4535C110.208 66.0022 109.122 66.7972 108.215 67.8385C107.319 68.8687 106.625 70.1228 106.132 71.6009C105.651 73.0678 105.41 74.7194 105.41 76.5558V77.8827C105.41 79.7191 105.64 81.3707 106.099 82.8376C106.569 84.3044 107.247 85.553 108.131 86.5831C109.027 87.6133 110.113 88.4027 111.39 88.9514C112.677 89.5001 114.139 89.7744 115.773 89.7744C117.789 89.7744 119.536 89.4161 121.014 88.6995C122.503 87.9716 123.668 86.9583 124.508 85.6593C125.151 84.6638 125.571 83.5498 125.768 82.3175C125.827 81.9419 125.866 81.5554 125.885 81.158H120.006C119.984 82.0761 119.805 82.832 119.469 83.4254ZM137.145 88.7544C137.261 88.6675 137.37 88.5764 137.474 88.4811C137.707 88.2669 137.918 88.0427 138.107 87.8084C138.207 88.293 138.335 88.7279 138.49 89.113C138.535 89.2258 138.583 89.3343 138.633 89.4385H144.31V89.153C144.167 88.8862 144.043 88.5949 143.938 88.279C143.862 88.0512 143.795 87.8106 143.739 87.5573C143.605 86.9415 143.538 86.0401 143.538 84.8531V77.4124C143.538 75.9679 143.207 74.7698 142.547 73.818C141.886 72.855 140.985 72.1328 139.842 71.6513C138.712 71.1698 137.424 70.929 135.979 70.929C134.77 70.929 133.673 71.0802 132.687 71.3825C131.713 71.6737 130.873 72.088 130.168 72.6255C129.474 73.1629 128.936 73.7956 128.555 74.5234C128.362 74.8983 128.219 75.29 128.127 75.6986C128.043 76.0711 128.001 76.4576 128.001 76.8581H133.661C133.661 76.4102 133.74 76.0407 133.897 75.7496C134.053 75.4584 134.283 75.2401 134.585 75.0945C134.888 74.9489 135.251 74.8762 135.677 74.8762C136.203 74.8762 136.623 74.9825 136.937 75.1953C137.25 75.3968 137.48 75.6824 137.625 76.0519C137.752 76.3722 137.823 76.7471 137.84 77.1767C137.842 77.2428 137.844 77.3101 137.844 77.3788V78.3362H136.097C134.641 78.3362 133.376 78.4706 132.301 78.7393C131.226 79.008 130.341 79.3999 129.647 79.915C128.953 80.4301 128.432 81.0572 128.085 81.7962C127.749 82.5352 127.581 83.3751 127.581 84.3156C127.581 85.3906 127.861 86.3424 128.421 87.171C128.981 87.9884 129.726 88.6267 130.655 89.0858C131.596 89.5449 132.626 89.7744 133.745 89.7744C134.608 89.7744 135.341 89.6568 135.946 89.4217C136.399 89.237 136.799 89.0146 137.145 88.7544ZM137.844 81.3595H136.063C135.537 81.3595 135.089 81.4323 134.72 81.5779C134.361 81.7234 134.07 81.925 133.846 82.1825C133.633 82.4289 133.477 82.7088 133.376 83.0223C133.286 83.3359 133.242 83.6662 133.242 84.0133C133.242 84.3492 133.32 84.6516 133.477 84.9203C133.645 85.1778 133.869 85.3794 134.149 85.525C134.428 85.6705 134.742 85.7433 135.089 85.7433C135.716 85.7433 136.248 85.6257 136.685 85.3906C136.687 85.3894 136.689 85.3882 136.691 85.3871C136.968 85.234 137.204 85.0617 137.4 84.8699C137.414 84.8554 137.429 84.8407 137.443 84.826C137.543 84.7229 137.632 84.6144 137.709 84.5004C137.759 84.4264 137.804 84.3534 137.844 84.2814V81.3595ZM136.684 83.9371V82.519H136.063C135.642 82.519 135.348 82.5776 135.15 82.6545C134.942 82.7398 134.811 82.8406 134.722 82.9419C134.617 83.0643 134.539 83.2009 134.485 83.3599C134.431 83.5582 134.401 83.7747 134.401 84.0133C134.401 84.1457 134.427 84.238 134.465 84.3115C134.518 84.3858 134.586 84.4457 134.683 84.4962C134.782 84.5475 134.909 84.5838 135.089 84.5838C135.571 84.5838 135.902 84.494 136.131 84.3719C136.395 84.2263 136.569 84.0773 136.684 83.9371ZM136.679 77.1767C136.663 76.8704 136.612 76.6428 136.547 76.4769C136.484 76.318 136.405 76.2318 136.31 76.1706L136.298 76.1628L136.286 76.1548C136.226 76.114 136.059 76.0357 135.677 76.0357C135.38 76.0357 135.197 76.0867 135.088 76.1392C135.003 76.1803 134.956 76.2271 134.918 76.2993C134.878 76.3722 134.821 76.5371 134.821 76.8581V77.212C135.233 77.1883 135.658 77.1767 136.097 77.1767H136.679ZM153.549 76.7061C153.308 76.8301 153.095 76.9816 152.91 77.1604C152.698 77.3648 152.524 77.6077 152.389 77.8892V89.4385H146.729V71.265H152.02L152.211 73.5983C152.279 73.4718 152.35 73.3491 152.423 73.2301C152.671 72.8199 152.949 72.4632 153.257 72.16C153.503 71.9169 153.768 71.7081 154.052 71.5337C154.69 71.1306 155.407 70.929 156.202 70.929C156.482 70.929 156.756 70.9458 157.025 70.9794C157.305 71.013 157.551 71.0634 157.764 71.1306L157.663 76.3878C157.439 76.3654 157.137 76.3374 156.756 76.3038C156.669 76.2962 156.586 76.2894 156.506 76.2835C156.233 76.2635 155.998 76.2535 155.799 76.2535C155.138 76.2535 154.567 76.3318 154.086 76.4886C153.894 76.548 153.715 76.6206 153.549 76.7061ZM157.166 69.8285C157.499 69.8686 157.817 69.9315 158.113 70.0249L158.603 70.1797V62.48H166.583V70.3867C167.457 69.9655 168.435 69.7695 169.488 69.7695C170.852 69.7695 172.095 70.0263 173.177 70.5874C174.24 71.1328 175.122 71.9019 175.811 72.8826C176.486 73.8429 176.971 74.9517 177.281 76.1906C177.376 76.5723 177.456 76.9636 177.521 77.3641C177.613 76.9438 177.727 76.5333 177.863 76.133C178.29 74.866 178.925 73.7476 179.775 72.7943C180.635 71.8307 181.69 71.0899 182.923 70.5683C184.179 70.0252 185.593 69.7695 187.141 69.7695C188.697 69.7695 190.116 70.0244 191.374 70.5675C192.616 71.0884 193.679 71.8289 194.54 72.7943C195.39 73.7476 196.025 74.866 196.452 76.133C196.452 76.1338 196.453 76.1347 196.453 76.1355L195.354 76.5054L196.452 76.1321C196.452 76.1324 196.452 76.1327 196.452 76.133C196.878 77.3869 197.085 78.7406 197.085 80.1838V80.5365C197.085 81.9702 196.878 83.3226 196.453 84.5848L196.452 84.5881C196.025 85.8441 195.39 86.9593 194.545 87.9202L194.542 87.9231L194.54 87.926C193.679 88.8907 192.622 89.6321 191.388 90.1538C190.133 90.6843 188.72 90.9339 187.174 90.9339C185.628 90.9339 184.212 90.6842 182.948 90.1554C181.702 89.6344 180.638 88.8929 179.775 87.926L179.773 87.9231L179.77 87.9202C178.924 86.9593 178.29 85.8441 177.863 84.5881L177.862 84.5848C177.727 84.1831 177.614 83.7723 177.522 83.3526C177.457 83.7605 177.377 84.1577 177.281 84.5439C176.972 85.7933 176.487 86.9091 175.811 87.8712L175.809 87.8743L175.807 87.8773C175.117 88.8456 174.24 89.6033 173.186 90.137C172.107 90.6833 170.873 90.9339 169.521 90.9339C168.256 90.9339 167.1 90.6615 166.103 90.0632L166.098 90.0601L166.093 90.057C166.04 90.0246 165.988 89.9917 165.936 89.958L165.852 90.598H158.603V77.6471L157.548 77.5416C157.33 77.5198 157.033 77.4923 156.654 77.4589C156.293 77.427 156.01 77.413 155.799 77.413C155.225 77.413 154.781 77.4816 154.445 77.5911L154.437 77.5938L154.429 77.5963C154.109 77.6953 153.882 77.8342 153.715 77.9951L153.714 77.9957C153.656 78.0519 153.6 78.1166 153.549 78.1919V90.598H145.569V70.1055H153.088L153.141 70.7471C153.238 70.678 153.337 70.6121 153.439 70.5494C154.271 70.0256 155.203 69.7695 156.202 69.7695C156.527 69.7695 156.849 69.789 157.166 69.8285ZM165.079 87.5869C165.386 87.9922 165.729 88.3473 166.108 88.6521C166.296 88.8035 166.494 88.9424 166.7 89.069C167.483 89.5393 168.424 89.7744 169.521 89.7744C170.731 89.7744 171.778 89.5505 172.662 89.1026C173.547 88.6547 174.28 88.022 174.863 87.2046C175.445 86.376 175.876 85.3962 176.156 84.2653C176.436 83.1343 176.576 81.8802 176.576 80.5029V80.1502C176.576 78.8177 176.436 77.5916 176.156 76.4718C175.876 75.3521 175.445 74.3779 174.863 73.5493C174.28 72.7206 173.541 72.0768 172.645 71.6177C171.761 71.1586 170.708 70.929 169.488 70.929C168.402 70.929 167.467 71.1698 166.683 71.6513C166.649 71.6718 166.616 71.6926 166.583 71.7138C166.158 71.9852 165.771 72.3159 165.423 72.7057V63.6395H159.763V89.4385H164.835L165.079 87.5869ZM166.583 75.5821C166.571 75.5875 166.56 75.5929 166.548 75.5984C166.145 75.8 165.821 76.0911 165.574 76.4718C165.52 76.5565 165.47 76.646 165.423 76.7401V83.9966C165.612 84.369 165.864 84.6713 166.179 84.9035C166.21 84.9267 166.242 84.9491 166.275 84.9707C166.357 85.0241 166.443 85.0728 166.534 85.1168C166.546 85.1228 166.559 85.1287 166.571 85.1345C166.988 85.3276 167.501 85.4242 168.111 85.4242C168.715 85.4242 169.202 85.3066 169.572 85.0715C169.952 84.8363 170.238 84.5004 170.428 84.0637C170.619 83.627 170.748 83.1063 170.815 82.5016C170.882 81.897 170.915 81.2307 170.915 80.5029V80.1502C170.915 79.4895 170.876 78.8681 170.798 78.2858C170.72 77.7035 170.58 77.1884 170.378 76.7405C170.176 76.2926 169.891 75.9399 169.521 75.6824C169.152 75.4248 168.67 75.2961 168.077 75.2961C167.489 75.2961 166.991 75.3914 166.583 75.5821ZM166.583 83.6797C166.67 83.8013 166.766 83.8956 166.868 83.9706C167.073 84.1222 167.445 84.2647 168.111 84.2647C168.576 84.2647 168.824 84.173 168.949 84.0932L168.956 84.0891L168.962 84.085C169.129 83.9821 169.263 83.8353 169.365 83.6004C169.499 83.2951 169.605 82.893 169.662 82.3736C169.724 81.8187 169.756 81.196 169.756 80.5029V80.1502C169.756 79.535 169.719 78.9656 169.649 78.4405C169.582 77.9481 169.468 77.5445 169.321 77.2164C169.197 76.9418 169.04 76.7605 168.858 76.6336C168.737 76.5488 168.508 76.4556 168.077 76.4556C167.6 76.4556 167.276 76.5351 167.061 76.6384C166.866 76.7372 166.71 76.8705 166.583 77.0502V83.6797ZM195.354 84.2149C194.973 85.3346 194.413 86.3144 193.674 87.1542C192.935 87.9828 192.023 88.6267 190.937 89.0858C189.85 89.5449 188.596 89.7744 187.174 89.7744C185.752 89.7744 184.492 89.5449 183.395 89.0858C182.298 88.6267 181.38 87.9828 180.64 87.1542C179.901 86.3144 179.342 85.3346 178.961 84.2149C178.58 83.0839 178.39 81.8578 178.39 80.5365V80.1838C178.39 78.8513 178.58 77.6251 178.961 76.5054C179.342 75.3745 179.901 74.3947 180.64 73.5661C181.38 72.7374 182.292 72.0936 183.378 71.6345C184.464 71.1642 185.719 70.929 187.141 70.929C188.574 70.929 189.834 71.1642 190.92 71.6345M188.041 84.0523L188.048 84.0485C188.265 83.9155 188.444 83.7312 188.586 83.4686C188.753 83.148 188.887 82.7495 188.97 82.2571C189.059 81.7357 189.105 81.163 189.105 80.5365V80.1838C189.105 79.5818 189.059 79.027 188.971 78.5171L188.97 78.5135C188.886 78.0182 188.752 77.6178 188.583 77.2963L188.58 77.2911L188.578 77.2859C188.429 76.995 188.244 76.7977 188.028 76.6595C187.855 76.5489 187.582 76.4556 187.141 76.4556C186.72 76.4556 186.452 76.5448 186.276 76.6557C186.071 76.7922 185.889 76.9902 185.737 77.2859L185.735 77.2911L185.732 77.2963C185.563 77.6178 185.429 78.0182 185.344 78.5135L185.344 78.5171C185.256 79.027 185.21 79.5818 185.21 80.1838V80.5365C185.21 81.163 185.256 81.7357 185.344 82.2571C185.428 82.7495 185.561 83.148 185.729 83.4686C185.871 83.7312 186.05 83.9155 186.267 84.0485C186.444 84.1564 186.724 84.2479 187.174 84.2479C187.61 84.2479 187.874 84.1578 188.035 84.0562L188.041 84.0523ZM185.646 75.6824C186.049 75.4248 186.547 75.2961 187.141 75.2961C187.745 75.2961 188.249 75.4248 188.652 75.6824C189.055 75.9399 189.375 76.2982 189.61 76.7573C189.845 77.2052 190.013 77.7259 190.114 78.3194C190.214 78.9017 190.265 79.5231 190.265 80.1838V80.5365C190.265 81.2195 190.214 81.8578 190.114 82.4513C190.013 83.0447 189.845 83.5654 189.61 84.0133C189.375 84.45 189.055 84.7915 188.652 85.0379C188.26 85.2842 187.768 85.4074 187.174 85.4074C186.57 85.4074 186.066 85.2842 185.663 85.0379C185.259 84.7915 184.94 84.45 184.705 84.0133M205.164 75.5397C205.1 75.568 205.038 75.5988 204.978 75.632C204.575 75.8559 204.25 76.1695 204.004 76.5726V89.4385H198.344V71.265H203.651L203.844 73.3815C203.874 73.3418 203.905 73.3026 203.937 73.2637C204.234 72.8969 204.558 72.5729 204.909 72.2918C205.287 71.9895 205.696 71.7368 206.137 71.5337C206.999 71.1306 207.957 70.929 209.009 70.929C209.849 70.929 210.616 71.0522 211.31 71.2986C212.016 71.5449 212.621 71.9424 213.124 72.4911C213.639 73.0398 214.031 73.7676 214.3 74.6746C214.58 75.5704 214.72 76.679 214.72 78.0003V89.4385H209.026V77.9835C209.026 77.2556 208.925 76.7014 208.724 76.3206C208.522 75.9287 208.231 75.66 207.85 75.5144C207.47 75.3689 207.005 75.2961 206.456 75.2961C205.96 75.2961 205.529 75.3773 205.164 75.5397ZM215.41 74.3375C215.734 75.3787 215.88 76.6094 215.88 78.0003V90.598H207.867V77.9835C207.867 77.3305 207.771 76.9987 207.699 76.8632L207.696 76.8571L207.693 76.8509C207.61 76.6906 207.528 76.6324 207.436 76.5975C207.225 76.5166 206.909 76.4556 206.456 76.4556C206.02 76.4556 205.733 76.5393 205.541 76.6456C205.398 76.7251 205.273 76.8237 205.164 76.9465V90.598H197.184V70.1055H204.71L204.787 70.9537C205.062 70.7776 205.349 70.6202 205.649 70.4819C206.68 70.0006 207.806 69.7695 209.009 69.7695C209.962 69.7695 210.862 69.9093 211.696 70.205C212.578 70.5135 213.342 71.0155 213.974 71.7021C214.637 72.4097 215.103 73.3061 215.41 74.3375ZM112.13 118.25L112.128 118.252C111.065 119.415 109.804 120.312 108.355 120.936L108.351 120.938L108.347 120.94C106.89 121.555 105.301 121.854 103.596 121.854C101.881 121.854 100.282 121.555 98.8149 120.941L98.8093 120.939L98.8038 120.936C97.3557 120.312 96.0913 119.417 95.0186 118.257L95.0142 118.252L95.0099 118.247C93.9456 117.07 93.1325 115.669 92.5605 114.063L92.5587 114.058L92.557 114.053C91.9927 112.421 91.7207 110.61 91.7207 108.635V107.644C91.7207 105.668 91.9927 103.858 92.557 102.226L92.5583 102.222L92.5596 102.219C93.1305 100.603 93.9373 99.2003 94.9927 98.0319L94.9931 98.0314C96.0571 96.8548 97.3209 95.955 98.7757 95.3401C100.244 94.7129 101.845 94.4079 103.563 94.4079C105.269 94.4079 106.859 94.7128 108.316 95.34C109.78 95.9541 111.049 96.8528 112.113 98.0294C113.149 99.1626 113.945 100.517 114.513 102.073V101.026H117.133V100.707C117.133 99.1415 117.451 97.7378 118.152 96.5548C118.844 95.3885 119.826 94.5053 121.068 93.9168C122.297 93.3228 123.708 93.0474 125.263 93.0474C125.808 93.0474 126.332 93.0846 126.834 93.1617C127.302 93.2337 127.76 93.3241 128.208 93.433L129.09 93.6475L129.116 100.252L127.64 99.8423C127.502 99.8039 127.358 99.7765 127.208 99.7607C127.049 99.744 126.83 99.7334 126.54 99.7334C126.103 99.7334 125.808 99.801 125.614 99.8867L125.601 99.8926L125.587 99.8981C125.416 99.9685 125.324 100.055 125.261 100.155C125.206 100.247 125.146 100.412 125.146 100.707V101.026H129.63V100.707C129.63 99.1415 129.947 97.7378 130.649 96.5548C131.34 95.3885 132.322 94.5053 133.564 93.9168C134.794 93.3228 136.204 93.0474 137.76 93.0474C138.305 93.0474 138.829 93.0846 139.33 93.1617C139.798 93.2337 140.257 93.3241 140.704 93.433L141.586 93.6475L141.613 100.252L140.137 99.8423C139.999 99.8039 139.855 99.7765 139.704 99.7607C139.546 99.744 139.326 99.7334 139.036 99.7334C138.6 99.7334 138.304 99.801 138.11 99.8867L138.097 99.8926L138.084 99.8981C137.913 99.9685 137.82 100.055 137.757 100.155C137.702 100.247 137.643 100.412 137.643 100.707V101.026H141.17V104.669C141.576 103.913 142.129 103.252 142.816 102.685C143.593 102.043 144.514 101.559 145.558 101.219C146.627 100.859 147.812 100.69 149.097 100.69C150.846 100.69 152.416 100.958 153.779 101.536C155.127 102.096 156.224 102.912 157.007 104.008C157.809 105.103 158.201 106.369 158.201 107.761V108.558C158.294 108.089 158.413 107.632 158.559 107.186C158.972 105.909 159.593 104.775 160.427 103.8C161.277 102.806 162.337 102.043 163.585 101.508C164.856 100.951 166.295 100.69 167.875 100.69C169.288 100.69 170.593 100.917 171.772 101.397C172.941 101.872 173.948 102.561 174.775 103.466C175.201 103.926 175.571 104.431 175.887 104.979V101.026H178.188V96.5074H186.167V101.026H189.157V107.275H186.167V114.43C186.167 114.751 186.198 114.943 186.225 115.043C186.348 115.073 186.55 115.101 186.855 115.101C187.152 115.101 187.389 115.096 187.57 115.087C187.747 115.068 187.912 115.045 188.064 115.018L189.391 114.784V101.026H191.377C190.997 100.859 190.642 100.635 190.319 100.349C189.478 99.6051 189.055 98.6233 189.055 97.499C189.055 96.3746 189.478 95.3929 190.319 94.6486C191.154 93.9107 192.201 93.5849 193.355 93.5849C194.509 93.5849 195.557 93.9107 196.391 94.6486C197.232 95.3929 197.656 96.3746 197.656 97.499C197.656 98.6233 197.232 99.6051 196.391 100.349C196.068 100.635 195.714 100.859 195.334 101.026H197.387V121.518H189.391V121.061L188.625 121.31C188.083 121.487 187.52 121.618 186.937 121.705C186.343 121.806 185.722 121.854 185.075 121.854C183.748 121.854 182.544 121.646 181.499 121.184L181.496 121.183L181.494 121.182C180.412 120.698 179.572 119.923 179.002 118.883C178.43 117.84 178.188 116.565 178.188 115.135V107.275H176.834C177.136 108.35 177.282 109.512 177.282 110.751V114.212H174.383L177.097 117.44L176.584 118.17C176.122 118.828 175.494 119.424 174.738 119.969C173.954 120.544 173.037 120.997 172.004 121.341L171.998 121.343L171.993 121.345C170.919 121.69 169.744 121.854 168.48 121.854C166.882 121.854 165.413 121.606 164.091 121.085L164.086 121.083L164.082 121.081C162.784 120.557 161.662 119.829 160.734 118.889L160.732 118.886L160.729 118.883C159.828 117.956 159.134 116.887 158.653 115.683L158.651 115.678L158.649 115.673C158.18 114.47 157.948 113.202 157.948 111.877V111.238C157.948 110.439 158.01 109.666 158.135 108.921H153.181C153.407 108.999 153.631 109.081 153.851 109.167C155.065 109.64 156.091 110.328 156.89 111.247C157.792 112.272 158.185 113.594 158.185 115.085C158.185 116.076 157.955 117.011 157.491 117.87L157.489 117.874L157.487 117.877C157.027 118.713 156.377 119.428 155.566 120.03L155.561 120.034L155.556 120.037C154.735 120.633 153.773 121.079 152.693 121.389C151.596 121.704 150.388 121.854 149.08 121.854C147.212 121.854 145.552 121.523 144.15 120.802L144.146 120.8L144.142 120.798C142.804 120.098 141.733 119.191 140.989 118.054L140.984 118.048L140.98 118.041C140.276 116.933 139.892 115.758 139.892 114.53V113.371H144.711C143.996 113.052 143.344 112.671 142.763 112.225C142.06 111.683 141.492 111.029 141.075 110.265L141.071 110.258L141.067 110.251C140.643 109.446 140.447 108.55 140.447 107.594C140.447 107.487 140.449 107.381 140.454 107.275H137.643V121.518H129.63V107.275H125.146V121.518H117.133V107.275H115.418C115.42 107.397 115.421 107.52 115.421 107.644V108.635C115.421 110.612 115.143 112.424 114.567 114.058C114.006 115.666 113.198 117.069 112.132 118.247L112.13 118.25ZM113.472 113.674C113.999 112.184 114.262 110.505 114.262 108.635V107.644C114.262 105.774 113.999 104.094 113.472 102.605C112.946 101.116 112.207 99.8505 111.255 98.8091C110.303 97.7565 109.173 96.9559 107.862 96.4072C106.564 95.8474 105.13 95.5674 103.563 95.5674C101.984 95.5674 100.539 95.8474 99.2292 96.4072C97.9303 96.9559 96.8049 97.7565 95.8531 98.8091C94.9126 99.8505 94.1791 101.116 93.6528 102.605C93.1378 104.094 92.8802 105.774 92.8802 107.644V108.635C92.8802 110.505 93.1378 112.184 93.6528 113.674C94.1791 115.152 94.9182 116.417 95.8699 117.47C96.8329 118.511 97.9639 119.312 99.2628 119.872C100.573 120.42 102.017 120.695 103.596 120.695C105.164 120.695 106.597 120.42 107.896 119.872C109.195 119.312 110.32 118.511 111.272 117.47C112.224 116.417 112.957 115.152 113.472 113.674ZM118.293 106.115V120.359H123.987V106.115H127.514V102.185H123.987V100.707C123.987 100.248 124.082 99.8617 124.272 99.5481C124.474 99.2234 124.765 98.9827 125.146 98.8259C125.526 98.6579 125.991 98.5739 126.54 98.5739C126.627 98.5739 126.711 98.5748 126.791 98.5766C126.996 98.5811 127.176 98.5914 127.329 98.6075C127.542 98.6299 127.749 98.6691 127.951 98.7251L127.934 94.5596C127.52 94.4589 127.094 94.3749 126.657 94.3077C126.221 94.2405 125.756 94.2069 125.263 94.2069C123.841 94.2069 122.61 94.4589 121.568 94.9628C120.527 95.4554 119.721 96.1833 119.15 97.1463C118.578 98.1092 118.293 99.2962 118.293 100.707V102.185H115.673V106.115H118.293ZM130.789 106.115V120.359H136.483V106.115H140.01V102.185H136.483V100.707C136.483 100.248 136.578 99.8617 136.769 99.5481C136.97 99.2234 137.261 98.9827 137.642 98.8259C138.023 98.6579 138.488 98.5739 139.036 98.5739C139.124 98.5739 139.207 98.5748 139.287 98.5766C139.493 98.5811 139.672 98.5914 139.826 98.6075C140.038 98.6299 140.246 98.6691 140.447 98.7251L140.43 94.5596C140.016 94.4589 139.591 94.3749 139.154 94.3077C138.717 94.2405 138.252 94.2069 137.76 94.2069C136.338 94.2069 135.106 94.4589 134.065 94.9628C133.023 95.4554 132.217 96.1833 131.646 97.1463C131.075 98.1092 130.789 99.2962 130.789 100.707V102.185H128.169V106.115H130.789ZM147.476 114.273L147.484 114.484C147.5 114.878 147.589 115.107 147.678 115.241C147.8 115.407 147.957 115.531 148.179 115.619C148.443 115.722 148.786 115.79 149.232 115.79C149.648 115.79 149.903 115.729 150.047 115.667L150.053 115.664L150.06 115.661C150.243 115.584 150.32 115.511 150.353 115.47C150.384 115.422 150.407 115.361 150.407 115.253C150.407 115.25 150.407 115.247 150.407 115.245C150.407 115.245 150.407 115.245 150.407 115.245L150.386 115.223L150.367 115.201C150.367 115.202 150.334 115.166 150.235 115.107C150.132 115.046 149.981 114.974 149.77 114.896L149.76 114.892L149.75 114.888C149.318 114.719 148.665 114.533 147.76 114.337C147.665 114.316 147.57 114.295 147.476 114.273ZM148.005 113.203C148.935 113.405 149.657 113.607 150.172 113.808C150.687 113.998 151.046 114.211 151.247 114.446C151.46 114.67 151.566 114.939 151.566 115.253C151.566 115.589 151.477 115.885 151.297 116.143C151.118 116.389 150.855 116.585 150.508 116.731C150.172 116.876 149.747 116.949 149.232 116.949C148.672 116.949 148.179 116.865 147.753 116.697C147.328 116.529 146.986 116.266 146.729 115.908C146.483 115.549 146.348 115.09 146.326 114.53H141.052C141.052 114.919 141.1 115.305 141.196 115.69C141.341 116.27 141.595 116.847 141.959 117.419C142.575 118.36 143.482 119.144 144.68 119.771C145.878 120.387 147.345 120.695 149.08 120.695C150.301 120.695 151.398 120.555 152.372 120.275C153.347 119.995 154.181 119.603 154.875 119.099C155.569 118.584 156.101 117.99 156.471 117.319C156.84 116.635 157.025 115.891 157.025 115.085C157.025 113.797 156.689 112.772 156.017 112.011C155.357 111.249 154.494 110.662 153.431 110.247C152.367 109.833 151.225 109.514 150.004 109.29C149.467 109.189 149.008 109.077 148.627 108.954C148.246 108.82 147.933 108.674 147.686 108.517C147.44 108.349 147.255 108.17 147.132 107.98C147.02 107.778 146.964 107.554 146.964 107.308C146.964 106.961 147.059 106.659 147.25 106.401C147.44 106.143 147.692 105.942 148.005 105.796C148.33 105.651 148.688 105.578 149.08 105.578C149.64 105.578 150.088 105.668 150.424 105.847C150.76 106.015 151.001 106.261 151.146 106.586C151.303 106.91 151.381 107.302 151.381 107.761H157.042C157.042 107.358 157.003 106.972 156.925 106.602C156.778 105.904 156.492 105.266 156.068 104.688C155.429 103.792 154.517 103.098 153.33 102.605C152.143 102.101 150.732 101.849 149.097 101.849C147.91 101.849 146.852 102.006 145.923 102.319C144.993 102.622 144.204 103.042 143.554 103.579C142.916 104.105 142.429 104.716 142.093 105.41C141.768 106.093 141.606 106.821 141.606 107.594C141.606 108.389 141.768 109.094 142.093 109.71C142.429 110.326 142.888 110.858 143.47 111.305C144.053 111.753 144.73 112.134 145.503 112.448C146.287 112.761 147.121 113.013 148.005 113.203ZM148.487 106.851C148.339 106.921 148.247 107.002 148.182 107.09C148.152 107.131 148.124 107.187 148.124 107.308C148.124 107.343 148.127 107.367 148.132 107.385C148.164 107.421 148.222 107.478 148.324 107.549C148.472 107.641 148.69 107.746 148.998 107.855C149.316 107.957 149.719 108.057 150.216 108.15C150.218 108.15 150.22 108.151 150.222 108.151V107.761C150.222 107.431 150.165 107.22 150.102 107.09L150.095 107.075L150.088 107.06C150.059 106.994 150.016 106.939 149.906 106.884L149.892 106.877L149.878 106.87C149.771 106.812 149.533 106.737 149.08 106.737C148.839 106.737 148.646 106.781 148.487 106.851ZM174.056 119.032C174.739 118.539 175.266 118.03 175.635 117.503L173.065 114.446C172.813 114.761 172.538 115.034 172.239 115.266C171.901 115.528 171.532 115.736 171.134 115.891C170.384 116.182 169.622 116.328 168.85 116.328C168.211 116.328 167.64 116.221 167.136 116.008C166.644 115.796 166.218 115.499 165.86 115.118C165.624 114.852 165.425 114.55 165.261 114.212C165.184 114.052 165.115 113.884 165.054 113.707C164.985 113.498 164.93 113.28 164.888 113.052H176.122V110.751C176.122 109.385 175.932 108.153 175.551 107.056C175.182 105.959 174.639 105.024 173.922 104.251C173.217 103.478 172.354 102.885 171.335 102.471C170.316 102.056 169.163 101.849 167.875 101.849C166.42 101.849 165.143 102.09 164.046 102.571C162.948 103.042 162.036 103.702 161.308 104.553C160.58 105.404 160.032 106.401 159.662 107.543C159.292 108.674 159.108 109.906 159.108 111.238V111.877C159.108 113.063 159.315 114.189 159.729 115.253C160.155 116.316 160.765 117.257 161.56 118.074C162.366 118.892 163.352 119.536 164.516 120.006C165.681 120.465 167.002 120.695 168.48 120.695C169.645 120.695 170.697 120.543 171.638 120.241C172.578 119.928 173.385 119.524 174.056 119.032ZM164.893 109.508H170.596V109.072C170.597 109.014 170.597 108.957 170.596 108.901C170.593 108.707 170.576 108.523 170.547 108.349C170.496 108.045 170.406 107.771 170.277 107.526C170.064 107.101 169.751 106.776 169.337 106.552C168.922 106.328 168.418 106.216 167.825 106.216C167.209 106.216 166.7 106.351 166.297 106.619C165.905 106.888 165.597 107.258 165.373 107.728C165.283 107.922 165.204 108.129 165.136 108.349C165.043 108.649 164.971 108.974 164.919 109.324C164.91 109.385 164.902 109.446 164.893 109.508ZM166.366 108.349H169.361C169.331 108.239 169.293 108.146 169.251 108.066L169.246 108.056L169.24 108.045C169.133 107.83 168.988 107.682 168.785 107.572C168.579 107.461 168.275 107.376 167.825 107.376C167.382 107.376 167.113 107.47 166.946 107.58C166.742 107.721 166.565 107.923 166.422 108.221C166.403 108.262 166.384 108.305 166.366 108.349ZM171.696 114.212H166.614C166.647 114.255 166.681 114.296 166.716 114.336C166.96 114.591 167.248 114.793 167.591 114.942C167.93 115.084 168.343 115.168 168.85 115.168C169.473 115.168 170.092 115.051 170.714 114.81C171.069 114.672 171.395 114.476 171.696 114.212ZM179.347 106.115V115.135C179.347 116.445 179.571 117.509 180.019 118.326C180.467 119.144 181.116 119.743 181.967 120.124C182.83 120.504 183.865 120.695 185.075 120.695C185.668 120.695 186.228 120.65 186.754 120.56C187.281 120.482 187.784 120.364 188.266 120.207V116.16C188.076 116.193 187.874 116.221 187.661 116.244C187.506 116.252 187.321 116.257 187.106 116.259C187.027 116.26 186.943 116.26 186.855 116.26C186.396 116.26 186.026 116.21 185.747 116.109C185.478 115.997 185.287 115.812 185.175 115.555C185.064 115.286 185.008 114.911 185.008 114.43V106.115H187.997V102.185H185.008V97.6669H179.347V102.185H177.046V106.115H179.347ZM106.832 104.673L106.83 104.665C106.65 103.835 106.392 103.195 106.081 102.711C105.773 102.233 105.418 101.909 105.02 101.699L105.008 101.693L104.997 101.686C104.608 101.469 104.14 101.346 103.563 101.346C102.942 101.346 102.46 101.473 102.078 101.686L102.071 101.69L102.063 101.694C101.679 101.902 101.333 102.222 101.035 102.699C100.732 103.184 100.477 103.828 100.296 104.66C100.127 105.481 100.036 106.461 100.036 107.61V108.635C100.036 109.771 100.126 110.751 100.296 111.586C100.476 112.401 100.73 113.047 101.037 113.548C101.348 114.039 101.702 114.373 102.091 114.59C102.488 114.806 102.978 114.933 103.596 114.933C104.174 114.933 104.641 114.81 105.03 114.593C105.418 114.376 105.767 114.044 106.068 113.554L106.072 113.548L106.076 113.542C106.392 113.041 106.651 112.395 106.831 111.578L106.832 111.572L106.833 111.567C107.022 110.741 107.123 109.767 107.123 108.635V107.61C107.123 106.466 107.022 105.493 106.834 104.681L106.832 104.673ZM101.53 115.605C100.948 115.281 100.455 114.799 100.052 114.161C99.6603 113.523 99.3636 112.744 99.162 111.826C98.9716 110.897 98.8765 109.833 98.8765 108.635V107.61C98.8765 106.401 98.9716 105.337 99.162 104.419C99.3636 103.49 99.6603 102.711 100.052 102.084C100.444 101.457 100.931 100.987 101.513 100.673C102.096 100.349 102.779 100.186 103.563 100.186C104.313 100.186 104.979 100.349 105.561 100.673C106.155 100.987 106.653 101.457 107.056 102.084C107.459 102.711 107.762 103.49 107.963 104.419C108.176 105.337 108.282 106.401 108.282 107.61V108.635C108.282 109.833 108.176 110.897 107.963 111.826C107.762 112.744 107.459 113.523 107.056 114.161C106.664 114.799 106.177 115.281 105.595 115.605C105.013 115.93 104.346 116.092 103.596 116.092C102.812 116.092 102.124 115.93 101.53 115.605ZM206.44 106.46C206.376 106.488 206.315 106.519 206.255 106.552C205.852 106.776 205.527 107.09 205.281 107.493V120.359H199.62V102.185H204.928L205.12 104.302C205.151 104.262 205.182 104.223 205.213 104.184C205.51 103.817 205.834 103.493 206.185 103.212C206.563 102.91 206.973 102.657 207.414 102.454C208.276 102.051 209.233 101.849 210.286 101.849C211.126 101.849 211.893 101.972 212.587 102.219C213.292 102.465 213.897 102.863 214.401 103.411C214.916 103.96 215.308 104.688 215.577 105.595C215.857 106.491 215.997 107.599 215.997 108.92V120.359H210.303V108.904C210.303 108.176 210.202 107.622 210 107.241C209.799 106.849 209.508 106.58 209.127 106.435C208.746 106.289 208.281 106.216 207.733 106.216C207.237 106.216 206.806 106.297 206.44 106.46ZM216.686 105.258C217.01 106.299 217.156 107.53 217.156 108.92V121.518H209.143V108.904C209.143 108.251 209.047 107.919 208.976 107.783L208.972 107.777L208.969 107.771C208.887 107.611 208.804 107.553 208.713 107.518C208.501 107.437 208.186 107.376 207.733 107.376C207.297 107.376 207.009 107.459 206.818 107.566C206.675 107.645 206.55 107.744 206.44 107.867V121.518H198.461V101.026H205.987L206.064 101.874C206.338 101.698 206.626 101.54 206.926 101.402C207.957 100.921 209.083 100.69 210.286 100.69C211.239 100.69 212.138 100.829 212.972 101.125C213.854 101.434 214.619 101.936 215.251 102.622C215.913 103.33 216.379 104.226 216.686 105.258ZM229.535 101.026H236.858V119.653C236.858 121.514 236.428 123.169 235.507 124.559C234.602 125.935 233.341 126.964 231.766 127.651C230.212 128.345 228.433 128.673 226.461 128.673C225.544 128.673 224.618 128.554 223.684 128.321C222.739 128.097 221.849 127.759 221.018 127.306C220.164 126.84 219.428 126.254 218.825 125.543L218.241 124.855L221.349 120.49C220.674 120.025 220.074 119.456 219.552 118.79L219.549 118.786L219.546 118.782C218.814 117.832 218.262 116.731 217.879 115.495L217.877 115.49L217.876 115.485C217.503 114.244 217.323 112.91 217.323 111.49V111.138C217.323 109.667 217.502 108.299 217.875 107.045L217.876 107.042L217.877 107.038C218.259 105.78 218.812 104.668 219.55 103.722L219.552 103.721C220.306 102.758 221.227 102.006 222.307 101.479C223.403 100.944 224.616 100.69 225.923 100.69C227.261 100.69 228.467 100.939 229.474 101.517L229.535 101.026ZM228.98 102.571C228.185 102.09 227.166 101.849 225.923 101.849C224.77 101.849 223.734 102.073 222.816 102.521C221.898 102.969 221.114 103.607 220.464 104.436C219.826 105.253 219.333 106.233 218.986 107.375C218.65 108.506 218.482 109.76 218.482 111.138V111.49C218.482 112.812 218.65 114.032 218.986 115.152C219.333 116.272 219.826 117.246 220.464 118.074C221.114 118.903 221.892 119.547 222.799 120.006C223.717 120.465 224.747 120.695 225.89 120.695C226.987 120.695 227.927 120.459 228.711 119.989C228.759 119.96 228.807 119.93 228.854 119.9C228.99 119.812 229.122 119.719 229.25 119.62C229.526 119.406 229.783 119.167 230.021 118.902V119.62C230.021 119.95 229.995 120.26 229.944 120.549C229.873 120.945 229.753 121.301 229.585 121.618C229.294 122.178 228.868 122.604 228.308 122.895C227.76 123.186 227.076 123.332 226.259 123.332C225.318 123.332 224.501 123.147 223.807 122.777C223.496 122.617 223.208 122.44 222.944 122.248C222.619 122.012 222.33 121.751 222.077 121.467L219.709 124.793C220.212 125.386 220.834 125.885 221.573 126.288C222.312 126.691 223.107 126.993 223.958 127.195C224.809 127.407 225.643 127.514 226.461 127.514C228.308 127.514 229.921 127.206 231.298 126.59C232.686 125.985 233.767 125.095 234.54 123.919C235.312 122.755 235.699 121.333 235.699 119.653V102.185H230.559L230.363 103.75C230.057 103.378 229.708 103.056 229.315 102.785C229.207 102.71 229.095 102.639 228.98 102.571ZM228.862 116.055C229.025 115.986 229.177 115.903 229.316 115.807C229.594 115.616 229.829 115.38 230.021 115.1V107.475C230 107.441 229.977 107.408 229.954 107.375C229.697 106.994 229.35 106.709 228.913 106.519C228.896 106.511 228.879 106.503 228.862 106.495C228.446 106.309 227.948 106.216 227.368 106.216C226.841 106.216 226.377 106.339 225.974 106.586C225.57 106.832 225.234 107.179 224.966 107.627C224.697 108.064 224.49 108.584 224.344 109.189C224.21 109.783 224.143 110.432 224.143 111.138V111.49C224.143 112.173 224.204 112.806 224.327 113.388C224.462 113.97 224.663 114.486 224.932 114.933C225.201 115.37 225.531 115.712 225.923 115.958C226.326 116.204 226.797 116.328 227.334 116.328C227.925 116.328 228.435 116.237 228.862 116.055ZM226.534 114.972C226.73 115.091 226.984 115.168 227.334 115.168C227.994 115.168 228.403 115.028 228.658 114.852C228.73 114.803 228.798 114.747 228.862 114.685V107.861C228.752 107.748 228.618 107.655 228.45 107.581L228.433 107.574L228.416 107.566C228.184 107.456 227.848 107.376 227.368 107.376C227.03 107.376 226.779 107.452 226.578 107.575C226.351 107.714 226.143 107.919 225.96 108.224L225.957 108.229L225.953 108.235C225.761 108.546 225.596 108.946 225.473 109.453C225.362 109.948 225.302 110.508 225.302 111.138V111.49C225.302 112.1 225.357 112.648 225.46 113.138C225.57 113.611 225.728 114.005 225.923 114.331C226.106 114.627 226.312 114.831 226.534 114.972ZM228.299 121.461C227.557 121.729 226.748 121.854 225.89 121.854C225.329 121.854 224.786 121.805 224.261 121.706C224.287 121.72 224.312 121.733 224.339 121.747L224.345 121.75L224.352 121.754C224.848 122.018 225.471 122.172 226.259 122.172C226.945 122.172 227.428 122.049 227.765 121.871L227.769 121.868L227.773 121.866C227.981 121.758 228.155 121.625 228.299 121.461ZM185.646 75.6824C185.254 75.9399 184.94 76.2982 184.705 76.7573L185.646 75.6824ZM196.227 102.185H190.55V120.359H196.227V102.185ZM191.088 95.517C190.505 96.0321 190.214 96.6928 190.214 97.499C190.214 98.3052 190.505 98.9659 191.088 99.4809C191.67 99.996 192.426 100.254 193.355 100.254C194.285 100.254 195.04 99.996 195.623 99.4809C196.205 98.9659 196.496 98.3052 196.496 97.499C196.496 96.6928 196.205 96.0321 195.623 95.517C195.04 95.0019 194.285 94.7444 193.355 94.7444C192.426 94.7444 191.67 95.0019 191.088 95.517Z" fill="white"/>
<g clip-path="url(#clip0_569_6610)">
<path d="M7.8495 87.668H4.98369H2.11789L0.707031 104.778H4.98369H9.26035L7.8495 87.668Z" fill="white"/>
<path d="M16.3191 87.668H19.1849H22.0507L23.4615 104.778H19.1849H14.9082L16.3191 87.668Z" fill="white"/>
<path d="M38.9648 104.599V99.6357L46.4931 104.599H38.9648Z" fill="white"/>
<path d="M30.043 104.599V99.6357L37.5712 104.599H30.043Z" fill="white"/>
<path d="M33.7006 66.1792C32.9621 66.1792 32.2567 66.3102 31.6008 66.5341C30.7191 62.827 27.3683 60.0645 23.3617 60.0645C18.6827 60.0645 14.8855 63.8206 14.8855 68.4613C14.8855 69.0837 14.9571 69.6842 15.0894 70.2684C14.902 70.2466 14.7146 70.2247 14.5162 70.2247C12.3724 70.2247 10.5923 71.7589 10.223 73.7789C9.71602 73.6261 9.18144 73.5387 8.62481 73.5387C5.64879 73.5387 3.2349 75.93 3.2349 78.8782C3.2349 79.3149 3.29552 79.7408 3.39472 80.1503C1.96733 80.254 0.832031 81.4223 0.832031 82.8637C0.832031 84.305 2.06653 85.5935 3.58761 85.5935H22.3917C22.4248 85.5935 22.4578 85.5935 22.4964 85.5935C24.4584 85.5935 26.1723 84.5507 27.1148 83.0002C27.5336 83.1312 27.9745 83.2022 28.4374 83.2022C30.8513 83.2022 32.8023 81.264 32.8023 78.8782C32.8023 78.8563 32.8023 78.829 32.8023 78.8072C33.0999 78.8509 33.3975 78.8782 33.7061 78.8782C37.2443 78.8782 40.1156 76.0337 40.1156 72.5287C40.1156 69.0236 37.2443 66.1792 33.7061 66.1792H33.7006Z" fill="white"/>
<path d="M-0.142578 106.045V126.049H16.8869V121.981H30.0476V126.049H46.4984V106.045H-0.142578ZM10.02 114.327H4.61355V111.712H10.02V114.327ZM17.9506 114.327H12.5441V111.712H17.9506V114.327ZM25.8811 114.327H20.4747V111.712H25.8811V114.327ZM33.8117 114.327H28.4052V111.712H33.8117V114.327ZM41.7422 114.327H36.3358V111.712H41.7422V114.327Z" fill="white"/>
<path d="M48.587 127.212H-1.6582V129.248H48.587V127.212Z" fill="white"/>
</g>
<g clip-path="url(#clip1_569_6610)">
<path d="M330.316 125.948H320.422V126.003H330.316V125.948Z" fill="#EBEBEB"/>
<path d="M305.731 124.615H289.369V124.67H305.731V124.615Z" fill="#EBEBEB"/>
<path d="M342.325 95.709L337.102 90.0732L334.788 89.7476C334.793 89.7083 334.799 89.6712 334.799 89.6318C334.799 89.162 334.476 88.7774 334.061 88.7228L335.063 79.3896L332.776 86.708L333.624 88.7927C333.334 88.9369 333.13 89.256 333.13 89.6296C333.13 89.752 333.152 89.87 333.191 89.9771L324.523 93.8646L332.029 92.1274L333.424 90.3267C333.569 90.4644 333.756 90.5496 333.965 90.5496C334.255 90.5496 334.512 90.3857 334.661 90.1366L342.325 95.7068V95.709Z" fill="white"/>
<path opacity="0.2" d="M342.325 95.709L337.102 90.0732L334.788 89.7476C334.793 89.7083 334.799 89.6712 334.799 89.6318C334.799 89.162 334.476 88.7774 334.061 88.7228L335.063 79.3896L332.776 86.708L333.624 88.7927C333.334 88.9369 333.13 89.256 333.13 89.6296C333.13 89.752 333.152 89.87 333.191 89.9771L324.523 93.8646L332.029 92.1274L333.424 90.3267C333.569 90.4644 333.756 90.5496 333.965 90.5496C334.255 90.5496 334.512 90.3857 334.661 90.1366L342.325 95.7068V95.709Z" fill="white"/>
<path d="M317.127 118.706H353.536C353.536 118.706 350.036 106.961 336.205 106.969C327.181 106.976 321.374 110.752 317.125 118.706H317.127Z" fill="white"/>
<path d="M279.088 79.8942C279.088 79.0289 278.451 78.3296 277.666 78.3296H274.375L274.489 81.461H277.785V81.4545C278.514 81.3889 279.09 80.7159 279.09 79.8964L279.088 79.8942Z" fill="white"/>
<path opacity="0.1" d="M279.088 79.8942C279.088 79.0289 278.451 78.3296 277.666 78.3296H274.375L274.489 81.461H277.785V81.4545C278.514 81.3889 279.09 80.7159 279.09 79.8964L279.088 79.8942Z" fill="white"/>
<path d="M276.295 81.3914L276.244 112.71C276.244 112.71 277.822 113.149 279.087 112.71L277.666 80.6855L276.295 81.3892V81.3914Z" fill="white"/>
<path opacity="0.1" d="M279.087 112.71C277.822 113.149 276.244 112.71 276.244 112.71L276.251 108.86V107.704L276.255 106.797V106.423L276.295 81.3892L277.666 80.6855L278.808 106.423L278.826 106.797L278.865 107.704L278.916 108.86L279.087 112.71Z" fill="white"/>
<path d="M278.851 83.1635L275.641 80.81C275.81 80.5522 275.911 80.2375 275.911 79.8944C275.911 79.3831 275.687 78.9285 275.342 78.6444L284.379 65.3735L275.054 74.5559L274.654 78.3407C274.599 78.3341 274.544 78.3298 274.489 78.3298C273.738 78.3298 273.125 78.97 273.072 79.783L256.91 78.5024L269.539 82.0381L273.167 80.4647C273.375 81.046 273.887 81.4568 274.489 81.4568C274.722 81.4568 274.94 81.3935 275.135 81.2842L282.102 95.8029L278.853 83.1591L278.851 83.1635Z" fill="white"/>
<path opacity="0.3" d="M278.809 106.423H276.256V106.797H278.827L278.809 106.423Z" fill="white"/>
<path opacity="0.3" d="M278.917 108.86H276.252L276.254 107.704H278.867L278.917 108.86Z" fill="white"/>
<path d="M270.123 118.706H298.413C298.413 118.706 295.695 108.508 284.947 108.514C277.936 108.519 273.423 111.799 270.123 118.706Z" fill="white"/>
<path opacity="0.2" d="M275.081 79.8399C275.111 80.2202 274.861 80.5523 274.52 80.5785C274.18 80.6048 273.881 80.3185 273.85 79.9361C273.819 79.5537 274.07 79.2237 274.41 79.1975C274.751 79.1712 275.05 79.4575 275.081 79.8399Z" fill="white"/>
<path d="M308.386 76.4459L308.307 124.906C308.307 124.906 310.728 125.585 312.67 124.906L310.488 75.3555L308.386 76.4437V76.4459Z" fill="white"/>
<path opacity="0.2" d="M312.672 124.906C310.73 125.583 308.311 124.906 308.311 124.906L308.315 121.748L308.319 119.517V117.727L308.324 116.936L308.387 76.4437L310.49 75.3555L312.32 116.936L312.355 117.727L312.435 119.526L312.533 121.748L312.672 124.906Z" fill="white"/>
<path d="M310.488 76.5424C311.693 76.5424 312.67 75.4672 312.67 74.1408C312.67 72.8145 311.693 71.7393 310.488 71.7393C309.283 71.7393 308.307 72.8145 308.307 74.1408C308.307 75.4672 309.283 76.5424 310.488 76.5424Z" fill="white"/>
<path d="M310.489 76.5424C310.579 76.4943 305.613 76.5424 305.613 76.5424L305.438 71.7393H310.489V76.5424Z" fill="white"/>
<path opacity="0.1" d="M310.489 71.7393H305.438L305.613 76.5424C305.613 76.5424 309.278 76.5074 310.251 76.5271C310.328 76.5358 310.407 76.5424 310.489 76.5424C311.693 76.5424 312.67 75.4673 312.67 74.1408C312.67 72.8144 311.693 71.7393 310.489 71.7393Z" fill="white"/>
<path d="M305.613 76.5424C306.818 76.5424 307.795 75.4672 307.795 74.1408C307.795 72.8145 306.818 71.7393 305.613 71.7393C304.408 71.7393 303.432 72.8145 303.432 74.1408C303.432 75.4672 304.408 76.5424 305.613 76.5424Z" fill="white"/>
<path d="M305.699 74.1409L311.805 68.5751L331.907 67.4453L305.699 74.1409Z" fill="white"/>
<path d="M305.7 74.1406L307.484 82.1866L298.396 100.053L305.7 74.1406Z" fill="white"/>
<path d="M305.615 74.1407L297.698 71.7151L286.557 55.0396L305.615 74.1407Z" fill="white"/>
<path opacity="0.3" d="M312.533 121.748H308.314L308.319 119.517C309.351 119.53 311.131 119.545 312.434 119.526L312.533 121.748Z" fill="white"/>
<path opacity="0.3" d="M312.354 117.727H308.32L308.323 116.936H312.319L312.354 117.727Z" fill="white"/>
<path opacity="0.2" d="M306.611 74.0098C306.662 74.6304 306.253 75.1679 305.699 75.2117C305.146 75.2554 304.658 74.7877 304.61 74.1671C304.559 73.5465 304.968 73.0089 305.522 72.9652C306.075 72.9215 306.563 73.3892 306.611 74.0098Z" fill="white"/>
<path d="M290.517 114.683C303.133 114.683 308.165 123.927 308.165 123.927C308.165 123.927 332.052 115.795 341.302 132.342H265.564C265.564 132.342 271.765 114.683 290.517 114.683Z" fill="white"/>
</g>
</g>
<defs>
<filter id="filter0_d_569_6610" x="-51.4883" y="35.7632" width="149.902" height="141.785" filterUnits="userSpaceOnUse" color-interpolation-filters="sRGB">
<feFlood flood-opacity="0" result="BackgroundImageFix"/>
<feColorMatrix in="SourceAlpha" type="matrix" values="0 0 0 0 0 0 0 0 0 0 0 0 0 0 0 0 0 0 127 0" result="hardAlpha"/>
<feMorphology radius="2" operator="erode" in="SourceAlpha" result="effect1_dropShadow_569_6610"/>
<feOffset dy="12"/>
<feGaussianBlur stdDeviation="12"/>
<feComposite in2="hardAlpha" operator="out"/>
<feColorMatrix type="matrix" values="0 0 0 0 0 0 0 0 0 0 0 0 0 0 0 0 0 0 0.06 0"/>
<feBlend mode="normal" in2="BackgroundImageFix" result="effect1_dropShadow_569_6610"/>
<feBlend mode="normal" in="SourceGraphic" in2="effect1_dropShadow_569_6610" result="shape"/>
</filter>
<filter id="filter1_d_569_6610" x="-51.873" y="35.7632" width="149.902" height="141.785" filterUnits="userSpaceOnUse" color-interpolation-filters="sRGB">
<feFlood flood-opacity="0" result="BackgroundImageFix"/>
<feColorMatrix in="SourceAlpha" type="matrix" values="0 0 0 0 0 0 0 0 0 0 0 0 0 0 0 0 0 0 127 0" result="hardAlpha"/>
<feMorphology radius="2" operator="erode" in="SourceAlpha" result="effect1_dropShadow_569_6610"/>
<feOffset dy="12"/>
<feGaussianBlur stdDeviation="12"/>
<feComposite in2="hardAlpha" operator="out"/>
<feColorMatrix type="matrix" values="0 0 0 0 0 0 0 0 0 0 0 0 0 0 0 0 0 0 0.06 0"/>
<feBlend mode="normal" in2="BackgroundImageFix" result="effect1_dropShadow_569_6610"/>
<feBlend mode="normal" in="SourceGraphic" in2="effect1_dropShadow_569_6610" result="shape"/>
</filter>
<filter id="filter2_d_569_6610" x="230.27" y="35.7632" width="149.902" height="141.785" filterUnits="userSpaceOnUse" color-interpolation-filters="sRGB">
<feFlood flood-opacity="0" result="BackgroundImageFix"/>
<feColorMatrix in="SourceAlpha" type="matrix" values="0 0 0 0 0 0 0 0 0 0 0 0 0 0 0 0 0 0 127 0" result="hardAlpha"/>
<feMorphology radius="2" operator="erode" in="SourceAlpha" result="effect1_dropShadow_569_6610"/>
<feOffset dy="12"/>
<feGaussianBlur stdDeviation="12"/>
<feComposite in2="hardAlpha" operator="out"/>
<feColorMatrix type="matrix" values="0 0 0 0 0 0 0 0 0 0 0 0 0 0 0 0 0 0 0.06 0"/>
<feBlend mode="normal" in2="BackgroundImageFix" result="effect1_dropShadow_569_6610"/>
<feBlend mode="normal" in="SourceGraphic" in2="effect1_dropShadow_569_6610" result="shape"/>
</filter>
<filter id="filter3_d_569_6610" x="230.27" y="35.7632" width="149.902" height="141.785" filterUnits="userSpaceOnUse" color-interpolation-filters="sRGB">
<feFlood flood-opacity="0" result="BackgroundImageFix"/>
<feColorMatrix in="SourceAlpha" type="matrix" values="0 0 0 0 0 0 0 0 0 0 0 0 0 0 0 0 0 0 127 0" result="hardAlpha"/>
<feMorphology radius="2" operator="erode" in="SourceAlpha" result="effect1_dropShadow_569_6610"/>
<feOffset dy="12"/>
<feGaussianBlur stdDeviation="12"/>
<feComposite in2="hardAlpha" operator="out"/>
<feColorMatrix type="matrix" values="0 0 0 0 0 0 0 0 0 0 0 0 0 0 0 0 0 0 0.06 0"/>
<feBlend mode="normal" in2="BackgroundImageFix" result="effect1_dropShadow_569_6610"/>
<feBlend mode="normal" in="SourceGraphic" in2="effect1_dropShadow_569_6610" result="shape"/>
</filter>
<radialGradient id="paint0_radial_569_6610" cx="0" cy="0" r="1" gradientUnits="userSpaceOnUse" gradientTransform="translate(163.956 97.9789) rotate(88.4387) scale(130.756 291.283)">
<stop stop-color="#91BD5A"/>
<stop offset="1" stop-color="#50AA57"/>
</radialGradient>
<clipPath id="clip0_569_6610">
<rect width="50.2453" height="69.1838" fill="white" transform="translate(-1.6582 60.0645)"/>
</clipPath>
<clipPath id="clip1_569_6610">
<rect width="96.6255" height="77.3004" fill="white" transform="translate(256.91 55.0396)"/>
</clipPath>
</defs>
</svg>
