<svg width="545" height="545" viewBox="0 0 545 545" fill="none" xmlns="http://www.w3.org/2000/svg">
<circle cx="272.5" cy="272.5" r="272.5" fill="url(#paint0_radial_1104_4)"/>
<mask id="mask0_1104_4" style="mask-type:alpha" maskUnits="userSpaceOnUse" x="0" y="0" width="545" height="545">
<circle cx="272.5" cy="272.5" r="272.5" fill="url(#paint1_radial_1104_4)"/>
</mask>
<g mask="url(#mask0_1104_4)">
<path d="M297.657 291.595V323.595L296.852 325.205L282.16 319.369L264.249 293.004C266.664 289.65 273.748 282.579 282.764 281.13C291.78 279.681 297.657 287.192 297.657 291.595Z" fill="#502419"/>
<path d="M168.844 191.889H148.783V219.494H168.844V191.889Z" stroke="white" stroke-width="3" stroke-miterlimit="10"/>
<path d="M195.399 178.601C195.399 185.311 190.427 190.867 183.956 191.757C183.359 191.849 182.745 191.889 182.119 191.889H168.844V178.601C168.844 171.264 174.787 165.312 182.119 165.312C189.451 165.312 195.399 171.264 195.399 178.601Z" stroke="white" stroke-width="3" stroke-miterlimit="10"/>
<path d="M148.783 178.601V191.889H135.509C128.177 191.889 122.229 185.937 122.229 178.601C122.229 171.264 128.177 165.312 135.509 165.312C142.841 165.312 148.783 171.264 148.783 178.601Z" stroke="white" stroke-width="3" stroke-miterlimit="10"/>
<g filter="url(#filter0_f_1104_4)">
<path d="M158.814 263.881C208.997 263.881 249.679 223.174 249.679 172.96C249.679 122.745 208.997 82.0381 158.814 82.0381C108.63 82.0381 67.9487 122.745 67.9487 172.96C67.9487 223.174 108.63 263.881 158.814 263.881Z" fill="#FFD600" fill-opacity="0.6"/>
</g>
<path d="M429.457 297.105C456.958 297.105 479.253 274.797 479.253 247.278C479.253 219.759 456.958 197.451 429.457 197.451C401.955 197.451 379.661 219.759 379.661 247.278C379.661 274.797 401.955 297.105 429.457 297.105Z" fill="#83C6EB"/>
<path d="M429.457 312.979C465.72 312.979 495.117 283.563 495.117 247.278C495.117 210.992 465.72 181.577 429.457 181.577C393.194 181.577 363.797 210.992 363.797 247.278C363.797 283.563 393.194 312.979 429.457 312.979Z" fill="url(#paint2_radial_1104_4)"/>
<path opacity="0.4" d="M429.457 263.117C438.199 263.117 445.286 256.025 445.286 247.278C445.286 238.53 438.199 231.438 429.457 231.438C420.714 231.438 413.627 238.53 413.627 247.278C413.627 256.025 420.714 263.117 429.457 263.117Z" fill="#E8F1F2"/>
<path opacity="0.4" d="M429.457 280.668C447.886 280.668 462.826 265.719 462.826 247.278C462.826 228.837 447.886 213.888 429.457 213.888C411.027 213.888 396.087 228.837 396.087 247.278C396.087 265.719 411.027 280.668 429.457 280.668Z" stroke="#E8F1F2" stroke-width="2" stroke-miterlimit="10"/>
<path d="M499.919 247.739C499.919 286.31 468.732 317.582 430.259 317.582C412.125 317.582 395.616 310.641 383.225 299.255L383.184 299.214L379.657 295.731L293.442 210.663L288.84 206.125L288.811 206.096C281.419 197.729 276.928 186.713 276.928 174.648C276.928 148.441 298.115 127.194 324.255 127.194C329.851 127.194 335.213 128.168 340.196 129.956L347.383 133.239L455.639 182.68L462.434 185.787C462.469 185.799 462.498 185.816 462.533 185.84C484.755 197.501 499.919 220.846 499.919 247.739Z" stroke="url(#paint3_linear_1104_4)" stroke-width="3" stroke-miterlimit="10"/>
<path opacity="0.4" d="M429.457 297.105C456.958 297.105 479.253 274.797 479.253 247.278C479.253 219.759 456.958 197.451 429.457 197.451C401.955 197.451 379.661 219.759 379.661 247.278C379.661 274.797 401.955 297.105 429.457 297.105Z" stroke="#E8F1F2" stroke-width="2" stroke-miterlimit="10"/>
<path d="M421.831 251.569L363.87 281.758" stroke="#E8F1F2" stroke-width="3" stroke-linecap="round" stroke-linejoin="round"/>
<path d="M326.522 315.57L329.477 299.748L314.763 292.83L354.16 272.501L369.102 279.277L365.918 295.241L326.522 315.57Z" fill="#E42338"/>
<path opacity="0.4" d="M290.61 206.498L295.128 210.945C293.527 209.572 292.017 208.084 290.61 206.498Z" fill="#DDB400"/>
<path opacity="0.4" d="M379.775 294.307L383.238 297.719C382.038 296.628 380.884 295.484 379.775 294.307Z" stroke="#DDB400" stroke-miterlimit="10"/>
<g filter="url(#filter1_f_1104_4)">
<path d="M390.053 343.07C388.933 339.572 385.971 337.113 382.336 336.711L366.45 334.895L359.83 320.205C358.308 316.838 355.104 314.753 351.447 314.753C347.79 314.753 344.586 316.838 343.064 320.205L336.416 334.895L320.529 336.711C316.9 337.136 313.932 339.572 312.812 343.07C311.693 346.569 312.652 350.309 315.35 352.82L327.149 363.747L323.974 379.586C323.25 383.194 324.617 386.796 327.58 388.962C329.21 390.163 331.076 390.755 332.971 390.755C334.521 390.755 336.094 390.352 337.507 389.525L351.418 381.562L365.33 389.525C368.505 391.341 372.323 391.128 375.286 388.962C378.248 386.796 379.638 383.194 378.891 379.586L375.716 363.747L387.515 352.82C390.214 350.338 391.173 346.598 390.053 343.07Z" fill="#FFD600" fill-opacity="0.8"/>
</g>
<path opacity="0.3" d="M390.053 343.07C388.933 339.572 385.971 337.113 382.336 336.711L366.45 334.895L359.83 320.205C358.308 316.838 355.104 314.753 351.447 314.753C347.79 314.753 344.586 316.838 343.064 320.205L336.416 334.895L320.529 336.711C316.9 337.136 313.932 339.572 312.812 343.07C311.693 346.569 312.652 350.309 315.35 352.82L327.149 363.747L323.974 379.586C323.25 383.194 324.617 386.796 327.58 388.962C329.21 390.163 331.076 390.755 332.971 390.755C334.521 390.755 336.094 390.352 337.507 389.525L351.418 381.562L365.33 389.525C368.505 391.341 372.323 391.128 375.286 388.962C378.248 386.796 379.638 383.194 378.891 379.586L375.716 363.747L387.515 352.82C390.214 350.338 391.173 346.598 390.053 343.07Z" fill="#FFD600"/>
<path opacity="0.1" d="M390.053 343.07C388.933 339.572 385.971 337.113 382.336 336.711L366.45 334.895L359.83 320.205C358.308 316.838 355.104 314.753 351.447 314.753C347.79 314.753 344.586 316.838 343.064 320.205L336.416 334.895L320.529 336.711C316.9 337.136 313.932 339.572 312.812 343.07C311.693 346.569 312.652 350.309 315.35 352.82L327.149 363.747L323.974 379.586C323.25 383.194 324.617 386.796 327.58 388.962C329.21 390.163 331.076 390.755 332.971 390.755C334.521 390.755 336.094 390.352 337.507 389.525L351.418 381.562L365.33 389.525C368.505 391.341 372.323 391.128 375.286 388.962C378.248 386.796 379.638 383.194 378.891 379.586L375.716 363.747L387.515 352.82C390.214 350.338 391.173 346.598 390.053 343.07Z" fill="white"/>
<path d="M222.981 318.252L223.113 297.869C223.113 284.753 233.66 274.096 246.659 274.096H290.231C289.192 280.456 283.479 283.5 277.255 285.609C274.666 286.488 223.796 332.273 223.796 332.273" fill="#502419"/>
<path d="M372.924 165.643H367.005C366 161.047 364.266 156.784 361.797 152.7L365.506 148.908C367.378 146.995 367.378 143.875 365.506 141.962L358.306 134.66C357.359 133.712 356.119 133.201 354.798 133.218C353.478 133.218 352.255 133.793 351.325 134.775L348.092 138.251C344.09 135.821 339.118 134.028 335.846 133V128.105C335.846 125.399 333.658 123.17 330.977 123.17H319.339C316.657 123.17 314.47 125.382 314.47 128.105V132.879C310.129 133.884 306.225 135.585 302.063 138.228L298.572 134.614C297.647 133.666 296.424 133.132 295.121 133.132C293.818 133.132 292.578 133.643 291.647 134.591L284.471 141.91C282.599 143.806 282.599 146.926 284.471 148.839L288.237 152.705C285.791 156.75 284.097 161.013 283.07 165.649H277.368C274.687 165.649 272.5 167.861 272.5 170.584V180.512C272.5 183.217 274.67 185.447 277.368 185.447H283.15C284.178 189.968 285.912 194.168 288.415 198.218L284.591 202.125C282.719 204.038 282.719 207.157 284.591 209.07L291.791 216.39C292.715 217.337 293.978 217.872 295.282 217.832C296.602 217.832 297.825 217.28 298.732 216.309L302.304 212.558C306.483 215.2 310.233 216.803 314.476 217.786V222.996C314.476 225.702 316.646 227.931 319.344 227.931H330.982C333.664 227.931 335.851 225.72 335.851 222.996V217.665C339.049 216.66 343.918 214.925 347.88 212.535L351.531 216.344C352.456 217.309 353.679 217.826 355.005 217.843H355.022C356.325 217.843 357.548 217.332 358.473 216.384L365.592 209.099C367.464 207.186 367.464 204.066 365.592 202.153L361.705 198.206C364.168 194.219 365.868 190.014 366.913 185.435H372.93C375.611 185.435 377.781 183.223 377.781 180.5V170.573C377.781 167.867 375.611 165.638 372.913 165.638L372.93 165.62L372.924 165.643Z" fill="#E8F1F2"/>
<path d="M324.945 203.141C340.128 203.141 352.436 190.825 352.436 175.633C352.436 160.441 340.128 148.126 324.945 148.126C309.763 148.126 297.455 160.441 297.455 175.633C297.455 190.825 309.763 203.141 324.945 203.141Z" stroke="#50AA57" stroke-width="2" stroke-miterlimit="10"/>
<path d="M339.623 166.239L321.595 184.595C321.428 184.761 321.181 184.876 320.94 184.876C320.693 184.876 320.469 184.784 320.285 184.612L310.335 174.765" stroke="#50AA57" stroke-width="2" stroke-miterlimit="10" stroke-linecap="round"/>
<path d="M303.603 328.507C303.603 334.729 298.608 339.807 292.441 339.807C291.264 339.807 290.306 340.795 290.306 341.973V343.042C290.306 353.458 284.484 362.518 275.917 367.056C272.208 369.004 267.96 370.153 263.447 370.153H257.441C253.623 370.153 249.966 369.354 246.682 367.855C237.202 363.69 230.582 354.124 230.582 343.036V341.967C230.582 340.79 229.624 339.802 228.475 339.802C222.412 339.669 217.475 334.619 217.475 328.501C217.475 322.382 222.412 317.31 228.475 317.2C229.652 317.2 230.582 316.212 230.582 315.035V311.455C230.582 297.885 241.526 286.826 254.955 286.826H265.898C279.357 286.826 290.271 297.857 290.271 311.455V315.006C290.271 316.206 291.23 317.172 292.407 317.172C298.573 317.172 303.568 322.222 303.568 328.501H303.597L303.603 328.507Z" fill="#EBBE9B"/>
<path d="M322.744 441.657C322.534 434.388 323.072 413.486 335.09 413.178C339.518 416.197 397.039 406.158 343.343 429.278C342.304 429.726 343.343 433.505 343.343 434.604V471.743H200.853V437.874C200.853 415.694 214.855 396.79 234.513 389.714C238.46 388.238 242.624 387.304 246.973 386.9C248.011 392.557 252.279 397.061 257.774 398.428C258.893 398.722 260.097 398.884 261.319 398.884C262.811 398.884 264.25 398.67 265.616 398.238C270.79 396.658 274.736 392.257 275.7 386.813C280.369 387.159 284.878 388.151 289.089 389.685C308.718 396.819 322.749 415.694 322.749 437.874V458.093" fill="#006CA7"/>
<path d="M322.411 419.077C322.411 414.786 325.824 411.274 330.092 411.164L361.94 410.415L376.476 402.024C378.954 400.149 382.476 400.686 384.346 403.177C386.268 405.778 385.625 409.48 382.935 411.251L364.665 423.396L343.595 432.271C343.595 436.732 343.566 440.923 343.511 444.857H322.663C322.663 442.442 322.663 441.235 322.663 438.82" fill="#EBBE9B"/>
<path d="M271.462 403.237V413.337C271.462 416.009 270.394 418.439 268.632 420.174C266.898 421.938 264.492 423.006 261.799 423.006C256.431 423.006 252.136 418.68 252.136 413.337V403.237L257.051 398.084H266.582L271.52 403.237H271.468H271.462Z" fill="url(#paint4_linear_1104_4)"/>
<path d="M275.946 367.086V384.235C275.946 385.143 275.866 386.027 275.705 386.855C274.746 392.249 270.791 396.633 265.612 398.236C264.251 398.661 262.81 398.879 261.311 398.879C260.083 398.879 258.911 398.718 257.763 398.425C252.263 397.064 247.991 392.577 246.952 386.941C246.762 386.085 246.711 385.177 246.711 384.241V367.89C249.995 369.384 253.652 370.188 257.47 370.188H263.476C267.989 370.188 272.232 369.068 275.946 367.092V367.086Z" fill="url(#paint5_linear_1104_4)"/>
<path d="M261.617 423.04H261.669C266.97 423.04 271.292 427.523 271.292 433.037V471.744H251.971V433.037C251.971 427.529 256.287 423.04 261.594 423.04H261.623H261.617Z" fill="#E8F1F2"/>
<path d="M257.763 398.419L257.016 399.194L252.102 404.348L243.105 413.775L234.481 389.732C238.431 388.262 242.599 387.331 246.952 386.929C247.991 392.565 252.262 397.052 257.763 398.413V398.419Z" fill="#E8F1F2"/>
<path d="M289.083 389.716L280.459 413.788L271.462 404.36L266.524 399.207L265.589 398.219C270.767 396.645 274.718 392.261 275.682 386.838C280.356 387.183 284.869 388.171 289.083 389.699V389.728V389.716Z" fill="#E8F1F2"/>
<path opacity="0.6" d="M158.814 252.817C202.89 252.817 238.621 217.064 238.621 172.96C238.621 128.857 202.89 93.1035 158.814 93.1035C114.738 93.1035 79.0068 128.857 79.0068 172.96C79.0068 217.064 114.738 252.817 158.814 252.817Z" fill="#FFD600"/>
<path opacity="0.6" d="M158.79 245.532C198.915 245.532 231.443 213.004 231.443 172.879C231.443 132.754 198.915 100.226 158.79 100.226C118.665 100.226 86.1367 132.754 86.1367 172.879C86.1367 213.004 118.665 245.532 158.79 245.532Z" stroke="white" stroke-width="3" stroke-miterlimit="10"/>
<path d="M343.744 444.775H322.411" stroke="#E8F1F2" stroke-width="6" stroke-miterlimit="10"/>
<path d="M182.118 316.396H135.509V364.035H182.118V316.396Z" fill="url(#paint6_linear_1104_4)"/>
<path fill-rule="evenodd" clip-rule="evenodd" d="M167.156 385.326L182.118 364.035H135.509L149.225 385.326L149.225 385.326L157.797 398.638L167.156 385.326H167.156Z" fill="white"/>
<path d="M181.935 223.65V278.941H135.646V223.65C135.646 220.395 138.195 217.76 141.342 217.76H176.238C179.386 217.76 181.935 220.395 181.935 223.65Z" fill="url(#paint7_linear_1104_4)"/>
<path d="M190.387 280.302V315.013C190.387 317.096 188.7 318.789 186.61 318.789H130.568C128.484 318.789 126.791 317.096 126.791 315.013V280.302C126.791 278.218 128.484 276.525 130.568 276.525H186.61C188.7 276.525 190.387 278.218 190.387 280.302Z" fill="white"/>
</g>
<defs>
<filter id="filter0_f_1104_4" x="-16.0513" y="-1.96191" width="349.73" height="349.843" filterUnits="userSpaceOnUse" color-interpolation-filters="sRGB">
<feFlood flood-opacity="0" result="BackgroundImageFix"/>
<feBlend mode="normal" in="SourceGraphic" in2="BackgroundImageFix" result="shape"/>
<feGaussianBlur stdDeviation="42" result="effect1_foregroundBlur_1104_4"/>
</filter>
<filter id="filter1_f_1104_4" x="238.353" y="240.753" width="226.159" height="224.002" filterUnits="userSpaceOnUse" color-interpolation-filters="sRGB">
<feFlood flood-opacity="0" result="BackgroundImageFix"/>
<feBlend mode="normal" in="SourceGraphic" in2="BackgroundImageFix" result="shape"/>
<feGaussianBlur stdDeviation="37" result="effect1_foregroundBlur_1104_4"/>
</filter>
<radialGradient id="paint0_radial_1104_4" cx="0" cy="0" r="1" gradientUnits="userSpaceOnUse" gradientTransform="translate(272.5 285.793) rotate(89.299) scale(371.619 371.815)">
<stop offset="0.177083" stop-color="#98CB58"/>
<stop offset="1" stop-color="#50AA57"/>
</radialGradient>
<radialGradient id="paint1_radial_1104_4" cx="0" cy="0" r="1" gradientUnits="userSpaceOnUse" gradientTransform="translate(272.5 285.793) rotate(89.299) scale(371.619 371.815)">
<stop offset="0.177083" stop-color="#98CB58"/>
<stop offset="1" stop-color="#50AA57"/>
</radialGradient>
<radialGradient id="paint2_radial_1104_4" cx="0" cy="0" r="1" gradientUnits="userSpaceOnUse" gradientTransform="translate(429.457 250.483) rotate(89.2995) scale(89.5985 89.5901)">
<stop stop-color="#2495D2"/>
<stop offset="1" stop-color="#006CA7"/>
</radialGradient>
<linearGradient id="paint3_linear_1104_4" x1="506.457" y1="222.388" x2="307.555" y2="222.388" gradientUnits="userSpaceOnUse">
<stop stop-color="white"/>
<stop offset="1" stop-color="#D9D9D9" stop-opacity="0"/>
</linearGradient>
<linearGradient id="paint4_linear_1104_4" x1="261.632" y1="379.77" x2="261.632" y2="423.04" gradientUnits="userSpaceOnUse">
<stop stop-color="#006CA7"/>
<stop offset="0.748015" stop-color="#E8F1F2"/>
</linearGradient>
<linearGradient id="paint5_linear_1104_4" x1="261.229" y1="347.167" x2="261.329" y2="398.879" gradientUnits="userSpaceOnUse">
<stop stop-color="#DFB86F"/>
<stop offset="0.0001" stop-color="#D2A888"/>
<stop offset="0.973958" stop-color="#EBBE9B"/>
</linearGradient>
<linearGradient id="paint6_linear_1104_4" x1="158.611" y1="313.106" x2="158.611" y2="460.878" gradientUnits="userSpaceOnUse">
<stop stop-color="#E8F1F2"/>
<stop offset="1" stop-color="#E8F1F2" stop-opacity="0"/>
</linearGradient>
<linearGradient id="paint7_linear_1104_4" x1="158.589" y1="213.533" x2="158.589" y2="403.317" gradientUnits="userSpaceOnUse">
<stop stop-color="#E8F1F2"/>
<stop offset="1" stop-color="#E8F1F2" stop-opacity="0"/>
</linearGradient>
</defs>
</svg>
