<svg width="566" height="556" viewBox="0 0 566 556" fill="none" xmlns="http://www.w3.org/2000/svg">
<g filter="url(#filter0_d_1073_187)">
<circle cx="289" cy="275.339" r="272.5" fill="url(#paint0_radial_1073_187)"/>
<path d="M314.157 294.434V326.434L313.352 328.044L298.66 322.207L280.748 295.843C283.163 292.489 290.248 285.418 299.264 283.969C308.28 282.52 314.157 290.031 314.157 294.434Z" fill="#502419"/>
<path d="M185.344 194.728H165.283V222.333H185.344V194.728Z" stroke="white" stroke-width="3" stroke-miterlimit="10"/>
<path d="M211.899 181.44C211.899 188.15 206.927 193.705 200.456 194.596C199.859 194.688 199.245 194.728 198.619 194.728H185.344V181.44C185.344 174.103 191.287 168.151 198.619 168.151C205.951 168.151 211.899 174.103 211.899 181.44Z" stroke="white" stroke-width="3" stroke-miterlimit="10"/>
<path d="M165.283 181.44V194.728H152.009C144.677 194.728 138.729 188.776 138.729 181.44C138.729 174.103 144.677 168.151 152.009 168.151C159.341 168.151 165.283 174.103 165.283 181.44Z" stroke="white" stroke-width="3" stroke-miterlimit="10"/>
<g filter="url(#filter1_f_1073_187)">
<path d="M175.314 266.72C225.497 266.72 266.179 226.013 266.179 175.799C266.179 125.584 225.497 84.877 175.314 84.877C125.13 84.877 84.4487 125.584 84.4487 175.799C84.4487 226.013 125.13 266.72 175.314 266.72Z" fill="#FFD600" fill-opacity="0.6"/>
</g>
<path d="M445.957 299.944C473.458 299.944 495.753 277.636 495.753 250.117C495.753 222.598 473.458 200.29 445.957 200.29C418.455 200.29 396.161 222.598 396.161 250.117C396.161 277.636 418.455 299.944 445.957 299.944Z" fill="#83C6EB"/>
<path d="M445.957 315.817C482.22 315.817 511.617 286.402 511.617 250.117C511.617 213.831 482.22 184.416 445.957 184.416C409.694 184.416 380.297 213.831 380.297 250.117C380.297 286.402 409.694 315.817 445.957 315.817Z" fill="url(#paint1_radial_1073_187)"/>
<path opacity="0.4" d="M445.957 265.956C454.699 265.956 461.786 258.864 461.786 250.117C461.786 241.369 454.699 234.277 445.957 234.277C437.214 234.277 430.127 241.369 430.127 250.117C430.127 258.864 437.214 265.956 445.957 265.956Z" fill="#E8F1F2"/>
<path opacity="0.4" d="M445.957 283.507C464.386 283.507 479.326 268.558 479.326 250.117C479.326 231.676 464.386 216.727 445.957 216.727C427.527 216.727 412.587 231.676 412.587 250.117C412.587 268.558 427.527 283.507 445.957 283.507Z" stroke="#E8F1F2" stroke-width="2" stroke-miterlimit="10"/>
<path d="M516.419 250.578C516.419 289.149 485.232 320.421 446.759 320.421C428.625 320.421 412.116 313.479 399.724 302.094L399.683 302.053L396.157 298.57L309.942 213.502L305.34 208.964L305.31 208.934C297.919 200.568 293.428 189.552 293.428 177.486C293.428 151.28 314.614 130.033 340.754 130.033C346.351 130.033 351.713 131.006 356.696 132.795L363.883 136.078L472.139 185.518L478.934 188.626C478.969 188.637 478.998 188.655 479.033 188.679C501.255 200.34 516.419 223.685 516.419 250.578Z" stroke="url(#paint2_linear_1073_187)" stroke-width="3" stroke-miterlimit="10"/>
<path opacity="0.4" d="M445.957 299.944C473.458 299.944 495.753 277.636 495.753 250.117C495.753 222.598 473.458 200.29 445.957 200.29C418.455 200.29 396.161 222.598 396.161 250.117C396.161 277.636 418.455 299.944 445.957 299.944Z" stroke="#E8F1F2" stroke-width="2" stroke-miterlimit="10"/>
<path d="M438.331 254.408L380.37 284.597" stroke="#E8F1F2" stroke-width="3" stroke-linecap="round" stroke-linejoin="round"/>
<path d="M343.022 318.409L345.977 302.587L331.263 295.669L370.66 275.34L385.602 282.116L382.418 298.08L343.022 318.409Z" fill="#E42338"/>
<path opacity="0.4" d="M307.11 209.337L311.628 213.784C310.027 212.411 308.517 210.923 307.11 209.337Z" fill="#DDB400"/>
<path opacity="0.4" d="M396.276 297.146L399.738 300.558C398.538 299.467 397.384 298.323 396.276 297.146Z" stroke="#DDB400" stroke-miterlimit="10"/>
<g filter="url(#filter2_f_1073_187)">
<path d="M406.553 345.909C405.433 342.411 402.471 339.952 398.836 339.549L382.95 337.734L376.33 323.044C374.808 319.677 371.604 317.592 367.947 317.592C364.29 317.592 361.086 319.677 359.564 323.044L352.916 337.734L337.029 339.549C333.4 339.975 330.432 342.411 329.312 345.909C328.193 349.408 329.152 353.148 331.85 355.659L343.649 366.586L340.474 382.425C339.75 386.033 341.117 389.635 344.08 391.801C345.71 393.002 347.576 393.593 349.471 393.593C351.021 393.593 352.594 393.191 354.007 392.364L367.918 384.401L381.83 392.364C385.005 394.179 388.823 393.967 391.786 391.801C394.748 389.635 396.138 386.033 395.391 382.425L392.216 366.586L404.015 355.659C406.714 353.177 407.673 349.437 406.553 345.909Z" fill="#FFD600" fill-opacity="0.8"/>
</g>
<path opacity="0.3" d="M406.553 345.909C405.433 342.411 402.471 339.952 398.836 339.549L382.95 337.734L376.33 323.044C374.808 319.677 371.604 317.592 367.947 317.592C364.29 317.592 361.086 319.677 359.564 323.044L352.916 337.734L337.029 339.549C333.4 339.975 330.432 342.411 329.312 345.909C328.193 349.408 329.152 353.148 331.85 355.659L343.649 366.586L340.474 382.425C339.75 386.033 341.117 389.635 344.08 391.801C345.71 393.002 347.576 393.593 349.471 393.593C351.021 393.593 352.594 393.191 354.007 392.364L367.918 384.401L381.83 392.364C385.005 394.179 388.823 393.967 391.786 391.801C394.748 389.635 396.138 386.033 395.391 382.425L392.216 366.586L404.015 355.659C406.714 353.177 407.673 349.437 406.553 345.909Z" fill="#FFD600"/>
<path opacity="0.1" d="M406.553 345.909C405.433 342.411 402.471 339.952 398.836 339.549L382.95 337.734L376.33 323.044C374.808 319.677 371.604 317.592 367.947 317.592C364.29 317.592 361.086 319.677 359.564 323.044L352.916 337.734L337.029 339.549C333.4 339.975 330.432 342.411 329.312 345.909C328.193 349.408 329.152 353.148 331.85 355.659L343.649 366.586L340.474 382.425C339.75 386.033 341.117 389.635 344.08 391.801C345.71 393.002 347.576 393.593 349.471 393.593C351.021 393.593 352.594 393.191 354.007 392.364L367.918 384.401L381.83 392.364C385.005 394.179 388.823 393.967 391.786 391.801C394.748 389.635 396.138 386.033 395.391 382.425L392.216 366.586L404.015 355.659C406.714 353.177 407.673 349.437 406.553 345.909Z" fill="white"/>
<path d="M239.481 321.091L239.613 300.708C239.613 287.592 250.16 276.935 263.159 276.935H306.731C305.692 283.294 299.979 286.339 293.755 288.448C291.166 289.327 240.296 335.112 240.296 335.112" fill="#502419"/>
<path d="M389.424 168.482H383.505C382.5 163.886 380.766 159.623 378.297 155.538L382.006 151.747C383.878 149.834 383.878 146.714 382.006 144.801L374.806 137.499C373.859 136.551 372.619 136.04 371.298 136.057C369.978 136.057 368.755 136.631 367.825 137.614L364.592 141.09C360.59 138.659 355.618 136.867 352.346 135.839V130.944C352.346 128.238 350.158 126.009 347.477 126.009H335.839C333.158 126.009 330.97 128.221 330.97 130.944V135.718C326.629 136.723 322.725 138.424 318.563 141.067L315.072 137.453C314.147 136.505 312.924 135.971 311.621 135.971C310.318 135.971 309.078 136.482 308.148 137.43L300.971 144.749C299.099 146.645 299.099 149.765 300.971 151.678L304.737 155.544C302.291 159.589 300.597 163.852 299.57 168.488H293.868C291.187 168.488 289 170.7 289 173.423V183.35C289 186.056 291.17 188.285 293.868 188.285H299.65C300.678 192.807 302.412 197.006 304.915 201.057L301.091 204.963C299.22 206.876 299.22 209.996 301.091 211.909L308.291 219.228C309.215 220.176 310.479 220.711 311.782 220.67C313.102 220.67 314.325 220.119 315.233 219.148L318.804 215.396C322.984 218.039 326.733 219.642 330.976 220.624V225.835C330.976 228.541 333.146 230.77 335.845 230.77H347.483C350.164 230.77 352.351 228.558 352.351 225.835V220.504C355.549 219.498 360.418 217.763 364.38 215.373L368.031 219.182C368.956 220.148 370.179 220.665 371.505 220.682H371.522C372.826 220.682 374.049 220.171 374.973 219.223L382.092 211.938C383.964 210.025 383.964 206.905 382.092 204.992L378.205 201.045C380.668 197.058 382.368 192.853 383.413 188.274H389.43C392.111 188.274 394.282 186.062 394.282 183.339V173.411C394.282 170.705 392.111 168.476 389.413 168.476L389.43 168.459L389.424 168.482Z" fill="#E8F1F2"/>
<path d="M341.446 205.98C356.628 205.98 368.936 193.664 368.936 178.472C368.936 163.28 356.628 150.965 341.446 150.965C326.263 150.965 313.955 163.28 313.955 178.472C313.955 193.664 326.263 205.98 341.446 205.98Z" stroke="#50AA57" stroke-width="2" stroke-miterlimit="10"/>
<path d="M356.123 169.078L338.095 187.434C337.928 187.6 337.681 187.715 337.44 187.715C337.193 187.715 336.969 187.623 336.786 187.451L326.836 177.604" stroke="#50AA57" stroke-width="2" stroke-miterlimit="10" stroke-linecap="round"/>
<path d="M320.103 331.346C320.103 337.567 315.108 342.646 308.942 342.646C307.765 342.646 306.806 343.634 306.806 344.812V345.881C306.806 356.296 300.984 365.356 292.418 369.895C288.708 371.843 284.46 372.992 279.947 372.992H273.941C270.123 372.992 266.466 372.193 263.182 370.694C253.703 366.528 247.083 356.963 247.083 345.875V344.806C247.083 343.629 246.124 342.64 244.975 342.64C238.912 342.508 233.975 337.458 233.975 331.34C233.975 325.221 238.912 320.148 244.975 320.039C246.152 320.039 247.083 319.051 247.083 317.873V314.294C247.083 300.724 258.026 289.665 271.455 289.665H282.399C295.857 289.665 306.771 300.696 306.771 314.294V317.845C306.771 319.045 307.73 320.011 308.907 320.011C315.073 320.011 320.069 325.06 320.069 331.34H320.097L320.103 331.346Z" fill="#EBBE9B"/>
<path d="M339.244 444.496C339.034 437.227 339.572 416.325 351.59 416.017C356.018 419.036 413.539 408.997 359.843 432.117C358.804 432.564 359.843 436.344 359.843 437.443V474.582H217.353V440.713C217.353 418.533 231.355 399.629 251.013 392.553C254.96 391.077 259.124 390.143 263.473 389.739C264.511 395.396 268.779 399.9 274.274 401.267C275.393 401.561 276.597 401.723 277.819 401.723C279.311 401.723 280.75 401.509 282.116 401.077C287.29 399.497 291.236 395.096 292.2 389.652C296.869 389.998 301.378 390.99 305.589 392.524C325.218 399.658 339.249 418.533 339.249 440.713V460.932" fill="#006CA7"/>
<path d="M338.911 421.915C338.911 417.625 342.324 414.113 346.592 414.003L378.44 413.253L392.976 404.863C395.454 402.988 398.976 403.525 400.846 406.016C402.768 408.617 402.125 412.319 399.435 414.09L381.165 426.235L360.095 435.11C360.095 439.571 360.066 443.762 360.011 447.696H339.163C339.163 445.281 339.163 444.073 339.163 441.658" fill="#EBBE9B"/>
<path d="M287.962 406.076V416.176C287.962 418.847 286.894 421.278 285.132 423.013C283.398 424.776 280.992 425.845 278.299 425.845C272.931 425.845 268.636 421.519 268.636 416.176V406.076L273.551 400.923H283.082L288.02 406.076H287.968H287.962Z" fill="url(#paint3_linear_1073_187)"/>
<path d="M292.446 369.925V387.074C292.446 387.982 292.366 388.866 292.205 389.694C291.246 395.088 287.291 399.472 282.112 401.075C280.751 401.5 279.31 401.718 277.811 401.718C276.583 401.718 275.411 401.557 274.263 401.264C268.763 399.903 264.491 395.416 263.452 389.78C263.262 388.924 263.211 388.016 263.211 387.08V370.729C266.495 372.223 270.152 373.027 273.97 373.027H279.976C284.489 373.027 288.732 371.907 292.446 369.931V369.925Z" fill="url(#paint4_linear_1073_187)"/>
<path d="M278.117 425.879H278.169C283.47 425.879 287.792 430.362 287.792 435.876V474.583H268.471V435.876C268.471 430.368 272.787 425.879 278.094 425.879H278.123H278.117Z" fill="#E8F1F2"/>
<path d="M274.263 401.258L273.516 402.033L268.602 407.187L259.605 416.614L250.981 392.571C254.931 391.1 259.1 390.17 263.452 389.768C264.491 395.403 268.763 399.89 274.263 401.252V401.258Z" fill="#E8F1F2"/>
<path d="M305.583 392.555L296.959 416.627L287.962 407.199L283.024 402.046L282.089 401.058C287.267 399.484 291.218 395.1 292.182 389.677C296.856 390.021 301.369 391.01 305.583 392.538V392.567V392.555Z" fill="#E8F1F2"/>
<path opacity="0.6" d="M175.314 255.656C219.39 255.656 255.121 219.903 255.121 175.799C255.121 131.695 219.39 95.9424 175.314 95.9424C131.238 95.9424 95.5068 131.695 95.5068 175.799C95.5068 219.903 131.238 255.656 175.314 255.656Z" fill="#FFD600"/>
<path opacity="0.6" d="M175.29 248.371C215.415 248.371 247.943 215.843 247.943 175.718C247.943 135.592 215.415 103.064 175.29 103.064C135.165 103.064 102.637 135.592 102.637 175.718C102.637 215.843 135.165 248.371 175.29 248.371Z" stroke="white" stroke-width="3" stroke-miterlimit="10"/>
<path d="M360.244 447.614H338.911" stroke="#E8F1F2" stroke-width="6" stroke-miterlimit="10"/>
<path d="M198.618 319.235H152.009V366.874H198.618V319.235Z" fill="url(#paint5_linear_1073_187)"/>
<path fill-rule="evenodd" clip-rule="evenodd" d="M183.656 388.165L198.618 366.874H152.009L165.725 388.165L165.725 388.165L174.297 401.477L183.656 388.165H183.656Z" fill="white"/>
<path d="M198.435 226.489V281.78H152.146V226.489C152.146 223.234 154.695 220.599 157.842 220.599H192.738C195.886 220.599 198.435 223.234 198.435 226.489Z" fill="url(#paint6_linear_1073_187)"/>
<path d="M206.887 283.141V317.851C206.887 319.935 205.2 321.628 203.11 321.628H147.068C144.984 321.628 143.291 319.935 143.291 317.851V283.141C143.291 281.057 144.984 279.364 147.068 279.364H203.11C205.2 279.364 206.887 281.057 206.887 283.141Z" fill="white"/>
</g>
<defs>
<filter id="filter0_d_1073_187" x="12.5" y="2.83887" width="553" height="553" filterUnits="userSpaceOnUse" color-interpolation-filters="sRGB">
<feFlood flood-opacity="0" result="BackgroundImageFix"/>
<feColorMatrix in="SourceAlpha" type="matrix" values="0 0 0 0 0 0 0 0 0 0 0 0 0 0 0 0 0 0 127 0" result="hardAlpha"/>
<feOffset dy="4"/>
<feGaussianBlur stdDeviation="2"/>
<feComposite in2="hardAlpha" operator="out"/>
<feColorMatrix type="matrix" values="0 0 0 0 0 0 0 0 0 0 0 0 0 0 0 0 0 0 0.25 0"/>
<feBlend mode="normal" in2="BackgroundImageFix" result="effect1_dropShadow_1073_187"/>
<feBlend mode="normal" in="SourceGraphic" in2="effect1_dropShadow_1073_187" result="shape"/>
</filter>
<filter id="filter1_f_1073_187" x="0.44873" y="0.876953" width="349.73" height="349.843" filterUnits="userSpaceOnUse" color-interpolation-filters="sRGB">
<feFlood flood-opacity="0" result="BackgroundImageFix"/>
<feBlend mode="normal" in="SourceGraphic" in2="BackgroundImageFix" result="shape"/>
<feGaussianBlur stdDeviation="42" result="effect1_foregroundBlur_1073_187"/>
</filter>
<filter id="filter2_f_1073_187" x="254.853" y="243.592" width="226.159" height="224.002" filterUnits="userSpaceOnUse" color-interpolation-filters="sRGB">
<feFlood flood-opacity="0" result="BackgroundImageFix"/>
<feBlend mode="normal" in="SourceGraphic" in2="BackgroundImageFix" result="shape"/>
<feGaussianBlur stdDeviation="37" result="effect1_foregroundBlur_1073_187"/>
</filter>
<radialGradient id="paint0_radial_1073_187" cx="0" cy="0" r="1" gradientUnits="userSpaceOnUse" gradientTransform="translate(289 288.632) rotate(89.299) scale(371.619 371.815)">
<stop offset="0.177083" stop-color="#98CB58"/>
<stop offset="1" stop-color="#50AA57"/>
</radialGradient>
<radialGradient id="paint1_radial_1073_187" cx="0" cy="0" r="1" gradientUnits="userSpaceOnUse" gradientTransform="translate(445.957 253.322) rotate(89.2995) scale(89.5985 89.5901)">
<stop stop-color="#2495D2"/>
<stop offset="1" stop-color="#006CA7"/>
</radialGradient>
<linearGradient id="paint2_linear_1073_187" x1="522.957" y1="225.227" x2="324.054" y2="225.227" gradientUnits="userSpaceOnUse">
<stop stop-color="white"/>
<stop offset="1" stop-color="#D9D9D9" stop-opacity="0"/>
</linearGradient>
<linearGradient id="paint3_linear_1073_187" x1="278.132" y1="382.609" x2="278.132" y2="425.879" gradientUnits="userSpaceOnUse">
<stop stop-color="#006CA7"/>
<stop offset="0.748015" stop-color="#E8F1F2"/>
</linearGradient>
<linearGradient id="paint4_linear_1073_187" x1="277.729" y1="350.006" x2="277.829" y2="401.718" gradientUnits="userSpaceOnUse">
<stop stop-color="#DFB86F"/>
<stop offset="0.0001" stop-color="#D2A888"/>
<stop offset="0.973958" stop-color="#EBBE9B"/>
</linearGradient>
<linearGradient id="paint5_linear_1073_187" x1="175.111" y1="315.945" x2="175.111" y2="463.717" gradientUnits="userSpaceOnUse">
<stop stop-color="#E8F1F2"/>
<stop offset="1" stop-color="#E8F1F2" stop-opacity="0"/>
</linearGradient>
<linearGradient id="paint6_linear_1073_187" x1="175.089" y1="216.372" x2="175.089" y2="406.156" gradientUnits="userSpaceOnUse">
<stop stop-color="#E8F1F2"/>
<stop offset="1" stop-color="#E8F1F2" stop-opacity="0"/>
</linearGradient>
</defs>
</svg>
