<svg width="546" height="546" viewBox="0 0 546 546" fill="none" xmlns="http://www.w3.org/2000/svg">
<mask id="mask0_1104_4" style="mask-type:alpha" maskUnits="userSpaceOnUse" x="0" y="0" width="546" height="546">
<circle cx="273" cy="273" r="272.5" fill="url(#paint0_linear_1104_4)"/>
</mask>
<g mask="url(#mask0_1104_4)">
<circle cx="273" cy="273" r="272.5" fill="url(#paint1_radial_1104_4)"/>
<path d="M304.5 317.973V358.463L303.488 360.5L285.018 353.115L262.5 319.756C265.536 315.511 274.442 306.565 285.777 304.731C297.112 302.898 304.5 312.402 304.5 317.973Z" fill="url(#paint2_radial_1104_4)"/>
<path d="M169.344 192.389H149.283V219.994H169.344V192.389Z" stroke="white" stroke-width="3" stroke-miterlimit="10"/>
<path d="M195.899 179.101C195.899 185.811 190.927 191.367 184.456 192.257C183.859 192.349 183.245 192.389 182.619 192.389H169.344V179.101C169.344 171.764 175.287 165.812 182.619 165.812C189.951 165.812 195.899 171.764 195.899 179.101Z" stroke="white" stroke-width="3" stroke-miterlimit="10"/>
<path d="M149.283 179.101V192.389H136.009C128.677 192.389 122.729 186.437 122.729 179.101C122.729 171.764 128.677 165.812 136.009 165.812C143.341 165.812 149.283 171.764 149.283 179.101Z" stroke="white" stroke-width="3" stroke-miterlimit="10"/>
<g filter="url(#filter0_f_1104_4)">
<path d="M159.314 264.381C209.497 264.381 250.179 223.674 250.179 173.46C250.179 123.245 209.497 82.5381 159.314 82.5381C109.13 82.5381 68.4487 123.245 68.4487 173.46C68.4487 223.674 109.13 264.381 159.314 264.381Z" fill="#E8F1F2" fill-opacity="0.6"/>
</g>
<path d="M429.957 297.605C457.458 297.605 479.753 275.297 479.753 247.778C479.753 220.259 457.458 197.951 429.957 197.951C402.455 197.951 380.161 220.259 380.161 247.778C380.161 275.297 402.455 297.605 429.957 297.605Z" fill="#83C6EB"/>
<path d="M429.957 313.479C466.22 313.479 495.617 284.063 495.617 247.778C495.617 211.492 466.22 182.077 429.957 182.077C393.694 182.077 364.297 211.492 364.297 247.778C364.297 284.063 393.694 313.479 429.957 313.479Z" fill="url(#paint3_radial_1104_4)"/>
<path opacity="0.4" d="M429.957 263.617C438.699 263.617 445.786 256.525 445.786 247.778C445.786 239.03 438.699 231.938 429.957 231.938C421.214 231.938 414.127 239.03 414.127 247.778C414.127 256.525 421.214 263.617 429.957 263.617Z" fill="#E8F1F2"/>
<path opacity="0.4" d="M429.957 281.168C448.386 281.168 463.326 266.219 463.326 247.778C463.326 229.337 448.386 214.388 429.957 214.388C411.527 214.388 396.587 229.337 396.587 247.778C396.587 266.219 411.527 281.168 429.957 281.168Z" stroke="#E8F1F2" stroke-width="2" stroke-miterlimit="10"/>
<path d="M500.419 248.239C500.419 286.81 469.232 318.082 430.759 318.082C412.625 318.082 396.116 311.141 383.724 299.755L383.683 299.714L380.157 296.231L293.942 211.163L289.34 206.625L289.31 206.596C281.919 198.229 277.428 187.213 277.428 175.148C277.428 148.941 298.614 127.694 324.754 127.694C330.351 127.694 335.713 128.668 340.696 130.456L347.883 133.739L456.139 183.18L462.934 186.287C462.969 186.299 462.998 186.316 463.033 186.34C485.255 198.001 500.419 221.346 500.419 248.239Z" stroke="url(#paint4_linear_1104_4)" stroke-width="3" stroke-miterlimit="10"/>
<path opacity="0.4" d="M429.957 297.605C457.458 297.605 479.753 275.297 479.753 247.778C479.753 220.259 457.458 197.951 429.957 197.951C402.455 197.951 380.161 220.259 380.161 247.778C380.161 275.297 402.455 297.605 429.957 297.605Z" stroke="#E8F1F2" stroke-width="2" stroke-miterlimit="10"/>
<path d="M422.331 252.069L364.37 282.258" stroke="#E8F1F2" stroke-width="3" stroke-linecap="round" stroke-linejoin="round"/>
<path d="M327.022 316.07L329.977 300.248L315.263 293.33L354.66 273.001L369.602 279.777L366.418 295.741L327.022 316.07Z" fill="#006CA7"/>
<path opacity="0.4" d="M291.11 206.998L295.628 211.445C294.027 210.072 292.517 208.584 291.11 206.998Z" fill="#DDB400"/>
<path opacity="0.4" d="M380.276 294.807L383.738 298.219C382.538 297.128 381.384 295.984 380.276 294.807Z" stroke="#DDB400" stroke-miterlimit="10"/>
<g filter="url(#filter1_f_1104_4)">
<path d="M411.2 386.817C410.08 383.319 407.117 380.86 403.483 380.458L387.596 378.642L380.976 363.952C379.455 360.585 376.251 358.5 372.594 358.5C368.936 358.5 365.733 360.585 364.211 363.952L357.562 378.642L341.676 380.458C338.047 380.883 335.079 383.319 333.959 386.817C332.84 390.316 333.798 394.056 336.497 396.567L348.296 407.494L345.121 423.333C344.397 426.941 345.764 430.543 348.726 432.709C350.357 433.91 352.223 434.502 354.118 434.502C355.668 434.502 357.241 434.099 358.653 433.272L372.565 425.309L386.477 433.272C389.652 435.088 393.47 434.875 396.432 432.709C399.395 430.543 400.785 426.941 400.038 423.333L396.863 407.494L408.662 396.567C411.36 394.085 412.319 390.345 411.2 386.817Z" fill="#E8F1F2"/>
</g>
<path opacity="0.1" d="M421.918 382.269C420.5 377.849 416.748 374.743 412.144 374.235L392.021 371.942L383.636 353.387C381.709 349.134 377.651 346.5 373.018 346.5C368.386 346.5 364.328 349.134 362.4 353.387L353.979 371.942L333.856 374.235C329.26 374.772 325.5 377.849 324.082 382.269C322.663 386.688 323.878 391.412 327.296 394.583L342.241 408.386L338.219 428.393C337.303 432.95 339.034 437.5 342.786 440.236C344.852 441.753 347.215 442.5 349.615 442.5C351.579 442.5 353.572 441.992 355.361 440.947L372.982 430.889L390.603 440.947C394.625 443.24 399.461 442.972 403.214 440.236C406.966 437.5 408.726 432.95 407.781 428.393L403.759 408.386L418.704 394.583C422.122 391.449 423.337 386.724 421.918 382.269Z" fill="#E8F1F2"/>
<path d="M210.5 350.907L210.667 325.33C210.667 308.872 223.998 295.5 240.427 295.5H295.5C294.187 303.48 286.966 307.301 279.099 309.946C275.827 311.049 211.53 368.5 211.53 368.5" fill="url(#paint5_radial_1104_4)"/>
<path d="M373.424 166.143H367.505C366.5 161.547 364.766 157.284 362.297 153.2L366.006 149.408C367.878 147.495 367.878 144.375 366.006 142.462L358.806 135.16C357.859 134.212 356.619 133.701 355.298 133.718C353.978 133.718 352.755 134.293 351.825 135.275L348.592 138.751C344.59 136.321 339.618 134.528 336.346 133.5V128.605C336.346 125.899 334.158 123.67 331.477 123.67H319.839C317.158 123.67 314.97 125.882 314.97 128.605V133.379C310.629 134.384 306.725 136.085 302.563 138.728L299.072 135.114C298.147 134.166 296.924 133.632 295.621 133.632C294.318 133.632 293.078 134.143 292.148 135.091L284.971 142.41C283.099 144.306 283.099 147.426 284.971 149.339L288.737 153.205C286.291 157.25 284.597 161.513 283.57 166.149H277.868C275.187 166.149 273 168.361 273 171.084V181.012C273 183.717 275.17 185.947 277.868 185.947H283.65C284.678 190.468 286.412 194.668 288.915 198.718L285.091 202.625C283.22 204.538 283.22 207.657 285.091 209.57L292.291 216.89C293.215 217.837 294.479 218.372 295.782 218.332C297.102 218.332 298.325 217.78 299.233 216.809L302.804 213.058C306.984 215.7 310.733 217.303 314.976 218.286V223.496C314.976 226.202 317.146 228.431 319.845 228.431H331.483C334.164 228.431 336.351 226.22 336.351 223.496V218.165C339.549 217.16 344.418 215.425 348.38 213.035L352.031 216.844C352.956 217.809 354.179 218.326 355.505 218.343H355.522C356.826 218.343 358.049 217.832 358.973 216.884L366.092 209.599C367.964 207.686 367.964 204.566 366.092 202.653L362.205 198.706C364.668 194.719 366.368 190.514 367.413 185.935H373.43C376.111 185.935 378.282 183.723 378.282 181V171.073C378.282 168.367 376.111 166.138 373.413 166.138L373.43 166.12L373.424 166.143Z" fill="#E8F1F2"/>
<path d="M325.446 203.641C340.628 203.641 352.936 191.325 352.936 176.133C352.936 160.941 340.628 148.626 325.446 148.626C310.263 148.626 297.955 160.941 297.955 176.133C297.955 191.325 310.263 203.641 325.446 203.641Z" stroke="#006CA7" stroke-width="2" stroke-miterlimit="10"/>
<path d="M340.123 166.739L322.095 185.095C321.928 185.261 321.681 185.376 321.44 185.376C321.193 185.376 320.969 185.284 320.786 185.112L310.836 175.265" stroke="#006CA7" stroke-width="2" stroke-miterlimit="10" stroke-linecap="round"/>
<path d="M312.5 364.022C312.5 371.862 306.178 378.262 298.375 378.262C296.885 378.262 295.672 379.507 295.672 380.991V382.337C295.672 395.462 288.304 406.879 277.462 412.598C272.769 415.052 267.392 416.5 261.68 416.5H254.08C249.248 416.5 244.619 415.494 240.463 413.604C228.467 408.356 220.089 396.302 220.089 382.33V380.984C220.089 379.5 218.875 378.254 217.422 378.254C209.749 378.088 203.5 371.724 203.5 364.014C203.5 356.305 209.749 349.912 217.422 349.775C218.912 349.775 220.089 348.529 220.089 347.045V342.535C220.089 325.436 233.938 311.5 250.934 311.5H264.783C281.815 311.5 295.628 325.4 295.628 342.535V347.009C295.628 348.522 296.841 349.738 298.331 349.738C306.135 349.738 312.456 356.102 312.456 364.014H312.493L312.5 364.022Z" fill="#006CA7" stroke="#006CA7" stroke-miterlimit="10"/>
<path d="M336.651 507.596C336.385 498.438 337.066 472.104 352.264 471.716C357.864 475.519 430.608 462.871 362.701 492C361.388 492.563 362.701 497.325 362.701 498.71V545.5H182.5V502.829C182.5 474.886 200.208 451.069 225.069 442.155C230.06 440.295 235.327 439.118 240.826 438.609C242.139 445.737 247.536 451.411 254.486 453.133C255.901 453.503 257.424 453.707 258.97 453.707C260.856 453.707 262.677 453.438 264.403 452.893C270.947 450.902 275.938 445.359 277.157 438.5C283.062 438.936 288.764 440.186 294.089 442.118C318.913 451.106 336.658 474.886 336.658 502.829V528.302" fill="#006CA7"/>
<path d="M336.5 478.655C336.5 473.188 340.777 468.714 346.125 468.574L386.033 467.619L404.248 456.929C407.354 454.541 411.767 455.224 414.11 458.398C416.518 461.712 415.713 466.429 412.342 468.684L389.448 484.158L363.046 495.465C363.046 501.148 363.01 506.488 362.94 511.5H336.816C336.816 508.423 336.816 506.885 336.816 503.808" fill="#006CA7"/>
<path d="M271.429 458.91V471.473C271.429 474.796 270.107 477.819 267.924 479.977C265.777 482.171 262.799 483.5 259.464 483.5C252.818 483.5 247.5 478.119 247.5 471.473V458.91L253.585 452.5H265.386L271.5 458.91H271.436H271.429Z" fill="url(#paint6_linear_1104_4)"/>
<path d="M258.981 483.5H259.048C265.908 483.5 271.5 489.207 271.5 496.226V545.5H246.5V496.226C246.5 489.215 252.084 483.5 258.952 483.5H258.989H258.981Z" fill="#E8F1F2"/>
<path d="M254.5 453.052L253.538 454.034L247.205 460.56L235.612 472.5L224.5 442.051C229.59 440.188 234.961 439.009 240.569 438.5C241.908 445.638 247.412 451.32 254.5 453.044V453.052Z" fill="#E8F1F2"/>
<path d="M293.5 442.131L282.855 472.5L271.75 460.606L265.655 454.105L264.5 452.858C270.892 450.872 275.768 445.342 276.959 438.5C282.728 438.935 288.298 440.182 293.5 442.109V442.146V442.131Z" fill="#E8F1F2"/>
<path opacity="0.6" d="M159.314 253.317C203.39 253.317 239.121 217.564 239.121 173.46C239.121 129.357 203.39 93.6035 159.314 93.6035C115.238 93.6035 79.5068 129.357 79.5068 173.46C79.5068 217.564 115.238 253.317 159.314 253.317Z" fill="#E8F1F2"/>
<path opacity="0.6" d="M159.29 246.032C199.415 246.032 231.943 213.504 231.943 173.379C231.943 133.254 199.415 100.726 159.29 100.726C119.165 100.726 86.6368 133.254 86.6368 173.379C86.6368 213.504 119.165 246.032 159.29 246.032Z" stroke="white" stroke-width="3" stroke-miterlimit="10"/>
<path d="M277.5 411.5V434.155C277.5 435.354 277.398 436.522 277.195 437.615C275.981 444.742 270.975 450.533 264.421 452.65C262.699 453.212 260.875 453.5 258.978 453.5C257.423 453.5 255.941 453.288 254.488 452.9C247.527 451.102 242.12 445.174 240.805 437.729C240.565 436.598 240.5 435.399 240.5 434.162V412.563C244.656 414.536 249.285 415.598 254.117 415.598H261.718C267.429 415.598 272.799 414.118 277.5 411.508V411.5Z" fill="#006CA7" stroke="#006CA7" stroke-miterlimit="10"/>
<path d="M363.5 511.5H336.5" stroke="#E8F1F2" stroke-width="6" stroke-miterlimit="10"/>
<path d="M182.618 316.896H136.009V364.535H182.618V316.896Z" fill="url(#paint7_linear_1104_4)"/>
<path fill-rule="evenodd" clip-rule="evenodd" d="M167.656 385.826L182.618 364.535H136.009L149.725 385.826L149.725 385.826L158.297 399.138L167.656 385.826H167.656Z" fill="white"/>
<path d="M182.435 224.15V279.441H136.146V224.15C136.146 220.895 138.695 218.26 141.842 218.26H176.738C179.886 218.26 182.435 220.895 182.435 224.15Z" fill="url(#paint8_linear_1104_4)"/>
<path d="M190.887 280.802V315.513C190.887 317.596 189.2 319.289 187.11 319.289H131.068C128.984 319.289 127.291 317.596 127.291 315.513V280.802C127.291 278.718 128.984 277.025 131.068 277.025H187.11C189.2 277.025 190.887 278.718 190.887 280.802Z" fill="white"/>
</g>
<defs>
<filter id="filter0_f_1104_4" x="-15.5513" y="-1.46191" width="349.73" height="349.843" filterUnits="userSpaceOnUse" color-interpolation-filters="sRGB">
<feFlood flood-opacity="0" result="BackgroundImageFix"/>
<feBlend mode="normal" in="SourceGraphic" in2="BackgroundImageFix" result="shape"/>
<feGaussianBlur stdDeviation="42" result="effect1_foregroundBlur_1104_4"/>
</filter>
<filter id="filter1_f_1104_4" x="259.5" y="284.5" width="226.159" height="224.002" filterUnits="userSpaceOnUse" color-interpolation-filters="sRGB">
<feFlood flood-opacity="0" result="BackgroundImageFix"/>
<feBlend mode="normal" in="SourceGraphic" in2="BackgroundImageFix" result="shape"/>
<feGaussianBlur stdDeviation="37" result="effect1_foregroundBlur_1104_4"/>
</filter>
<linearGradient id="paint0_linear_1104_4" x1="158.756" y1="276.82" x2="428.624" y2="-202.393" gradientUnits="userSpaceOnUse">
<stop stop-color="#00639E"/>
<stop offset="1" stop-color="#00B9F2"/>
</linearGradient>
<radialGradient id="paint1_radial_1104_4" cx="0" cy="0" r="1" gradientUnits="userSpaceOnUse" gradientTransform="translate(273 286.293) rotate(89.299) scale(371.619 371.815)">
<stop stop-color="#2495D2"/>
<stop offset="1" stop-color="#006CA7"/>
</radialGradient>
<radialGradient id="paint2_radial_1104_4" cx="0" cy="0" r="1" gradientUnits="userSpaceOnUse" gradientTransform="translate(283.5 333.866) rotate(89.4743) scale(38.1834 28.6545)">
<stop stop-color="#2495D2"/>
<stop offset="1" stop-color="#006CA7"/>
</radialGradient>
<radialGradient id="paint3_radial_1104_4" cx="0" cy="0" r="1" gradientUnits="userSpaceOnUse" gradientTransform="translate(429.957 250.983) rotate(89.2995) scale(89.5985 89.5901)">
<stop stop-color="#2495D2"/>
<stop offset="1" stop-color="#006CA7"/>
</radialGradient>
<linearGradient id="paint4_linear_1104_4" x1="506.957" y1="222.888" x2="308.054" y2="222.888" gradientUnits="userSpaceOnUse">
<stop stop-color="white"/>
<stop offset="1" stop-color="#D9D9D9" stop-opacity="0"/>
</linearGradient>
<radialGradient id="paint5_radial_1104_4" cx="0" cy="0" r="1" gradientUnits="userSpaceOnUse" gradientTransform="translate(253 333.78) rotate(89.1838) scale(49.7778 57.9879)">
<stop stop-color="#2495D2"/>
<stop offset="1" stop-color="#006CA7"/>
</radialGradient>
<linearGradient id="paint6_linear_1104_4" x1="259.257" y1="429.719" x2="259.257" y2="483.542" gradientUnits="userSpaceOnUse">
<stop stop-color="#006CA7"/>
<stop offset="0.748015" stop-color="#E8F1F2"/>
</linearGradient>
<linearGradient id="paint7_linear_1104_4" x1="159.111" y1="313.606" x2="159.111" y2="461.378" gradientUnits="userSpaceOnUse">
<stop stop-color="#E8F1F2"/>
<stop offset="1" stop-color="#E8F1F2" stop-opacity="0"/>
</linearGradient>
<linearGradient id="paint8_linear_1104_4" x1="159.089" y1="214.033" x2="159.089" y2="403.817" gradientUnits="userSpaceOnUse">
<stop stop-color="#E8F1F2"/>
<stop offset="1" stop-color="#E8F1F2" stop-opacity="0"/>
</linearGradient>
</defs>
</svg>
