<svg width="666" height="666" viewBox="0 0 666 666" fill="none" xmlns="http://www.w3.org/2000/svg">
<g filter="url(#filter0_d_1104_4)">
<mask id="mask0_1104_4" style="mask-type:alpha" maskUnits="userSpaceOnUse" x="60" y="56" width="546" height="546">
<circle cx="333" cy="329" r="272.5" fill="url(#paint0_linear_1104_4)"/>
</mask>
<g mask="url(#mask0_1104_4)">
<circle cx="333" cy="329" r="272.5" fill="url(#paint1_radial_1104_4)"/>
<path d="M364.5 373.973V414.463L363.488 416.5L345.018 409.115L322.5 375.756C325.536 371.511 334.442 362.565 345.777 360.731C357.112 358.898 364.5 368.402 364.5 373.973Z" fill="url(#paint2_radial_1104_4)"/>
<path d="M229.344 248.389H209.283V275.994H229.344V248.389Z" stroke="white" stroke-width="3" stroke-miterlimit="10"/>
<path d="M255.899 235.101C255.899 241.811 250.927 247.367 244.456 248.257C243.859 248.349 243.245 248.389 242.619 248.389H229.344V235.101C229.344 227.764 235.287 221.812 242.619 221.812C249.951 221.812 255.899 227.764 255.899 235.101Z" stroke="white" stroke-width="3" stroke-miterlimit="10"/>
<path d="M209.283 235.101V248.389H196.009C188.677 248.389 182.729 242.437 182.729 235.101C182.729 227.764 188.677 221.812 196.009 221.812C203.341 221.812 209.283 227.764 209.283 235.101Z" stroke="white" stroke-width="3" stroke-miterlimit="10"/>
<g filter="url(#filter1_f_1104_4)">
<path d="M219.314 320.381C269.497 320.381 310.179 279.674 310.179 229.46C310.179 179.245 269.497 138.538 219.314 138.538C169.13 138.538 128.449 179.245 128.449 229.46C128.449 279.674 169.13 320.381 219.314 320.381Z" fill="#E8F1F2" fill-opacity="0.6"/>
</g>
<path d="M489.957 353.605C517.458 353.605 539.753 331.297 539.753 303.778C539.753 276.259 517.458 253.951 489.957 253.951C462.455 253.951 440.161 276.259 440.161 303.778C440.161 331.297 462.455 353.605 489.957 353.605Z" fill="#83C6EB"/>
<path d="M489.957 369.479C526.22 369.479 555.617 340.063 555.617 303.778C555.617 267.492 526.22 238.077 489.957 238.077C453.694 238.077 424.297 267.492 424.297 303.778C424.297 340.063 453.694 369.479 489.957 369.479Z" fill="url(#paint3_radial_1104_4)"/>
<path opacity="0.4" d="M489.957 319.617C498.699 319.617 505.786 312.525 505.786 303.778C505.786 295.03 498.699 287.938 489.957 287.938C481.214 287.938 474.127 295.03 474.127 303.778C474.127 312.525 481.214 319.617 489.957 319.617Z" fill="#E8F1F2"/>
<path opacity="0.4" d="M489.957 337.168C508.386 337.168 523.326 322.219 523.326 303.778C523.326 285.337 508.386 270.388 489.957 270.388C471.527 270.388 456.587 285.337 456.587 303.778C456.587 322.219 471.527 337.168 489.957 337.168Z" stroke="#E8F1F2" stroke-width="2" stroke-miterlimit="10"/>
<path d="M560.419 304.239C560.419 342.81 529.232 374.082 490.759 374.082C472.625 374.082 456.116 367.141 443.724 355.755L443.683 355.714L440.157 352.231L353.942 267.163L349.34 262.625L349.31 262.596C341.919 254.229 337.428 243.213 337.428 231.148C337.428 204.941 358.614 183.694 384.754 183.694C390.351 183.694 395.713 184.668 400.696 186.456L407.883 189.739L516.139 239.18L522.934 242.287C522.969 242.299 522.998 242.316 523.033 242.34C545.255 254.001 560.419 277.346 560.419 304.239Z" stroke="url(#paint4_linear_1104_4)" stroke-width="3" stroke-miterlimit="10"/>
<path opacity="0.4" d="M489.957 353.605C517.458 353.605 539.753 331.297 539.753 303.778C539.753 276.259 517.458 253.951 489.957 253.951C462.455 253.951 440.161 276.259 440.161 303.778C440.161 331.297 462.455 353.605 489.957 353.605Z" stroke="#E8F1F2" stroke-width="2" stroke-miterlimit="10"/>
<path d="M482.331 308.069L424.37 338.258" stroke="#E8F1F2" stroke-width="3" stroke-linecap="round" stroke-linejoin="round"/>
<path d="M387.022 372.07L389.977 356.248L375.263 349.33L414.66 329.001L429.602 335.777L426.418 351.741L387.022 372.07Z" fill="#006CA7"/>
<path opacity="0.4" d="M351.11 262.998L355.628 267.445C354.027 266.072 352.517 264.584 351.11 262.998Z" fill="#DDB400"/>
<path opacity="0.4" d="M440.276 350.807L443.738 354.219C442.538 353.128 441.384 351.984 440.276 350.807Z" stroke="#DDB400" stroke-miterlimit="10"/>
<g filter="url(#filter2_f_1104_4)">
<path d="M471.2 442.817C470.08 439.319 467.117 436.86 463.483 436.458L447.596 434.642L440.976 419.952C439.455 416.585 436.251 414.5 432.594 414.5C428.936 414.5 425.733 416.585 424.211 419.952L417.562 434.642L401.676 436.458C398.047 436.883 395.079 439.319 393.959 442.817C392.84 446.316 393.798 450.056 396.497 452.567L408.296 463.494L405.121 479.333C404.397 482.941 405.764 486.543 408.726 488.709C410.357 489.91 412.223 490.502 414.118 490.502C415.668 490.502 417.241 490.099 418.653 489.272L432.565 481.309L446.477 489.272C449.652 491.088 453.47 490.875 456.432 488.709C459.395 486.543 460.785 482.941 460.038 479.333L456.863 463.494L468.662 452.567C471.36 450.085 472.319 446.345 471.2 442.817Z" fill="#E8F1F2"/>
</g>
<path opacity="0.1" d="M481.918 438.269C480.5 433.849 476.748 430.743 472.144 430.235L452.021 427.942L443.636 409.387C441.709 405.134 437.651 402.5 433.018 402.5C428.386 402.5 424.328 405.134 422.4 409.387L413.979 427.942L393.856 430.235C389.26 430.772 385.5 433.849 384.082 438.269C382.663 442.688 383.878 447.412 387.296 450.583L402.241 464.386L398.219 484.393C397.303 488.95 399.034 493.5 402.786 496.236C404.852 497.753 407.215 498.5 409.615 498.5C411.579 498.5 413.572 497.992 415.361 496.947L432.982 486.889L450.603 496.947C454.625 499.24 459.461 498.972 463.214 496.236C466.966 493.5 468.726 488.95 467.781 484.393L463.759 464.386L478.704 450.583C482.122 447.449 483.337 442.724 481.918 438.269Z" fill="#E8F1F2"/>
<path d="M270.5 406.907L270.667 381.33C270.667 364.872 283.998 351.5 300.427 351.5H355.5C354.187 359.48 346.966 363.301 339.099 365.946C335.827 367.049 271.53 424.5 271.53 424.5" fill="url(#paint5_radial_1104_4)"/>
<path d="M433.424 222.143H427.505C426.5 217.547 424.766 213.284 422.297 209.2L426.006 205.408C427.878 203.495 427.878 200.375 426.006 198.462L418.806 191.16C417.859 190.212 416.619 189.701 415.298 189.718C413.978 189.718 412.755 190.293 411.825 191.275L408.592 194.751C404.59 192.321 399.618 190.528 396.346 189.5V184.605C396.346 181.899 394.158 179.67 391.477 179.67H379.839C377.158 179.67 374.97 181.882 374.97 184.605V189.379C370.629 190.384 366.725 192.085 362.563 194.728L359.072 191.114C358.147 190.166 356.924 189.632 355.621 189.632C354.318 189.632 353.078 190.143 352.148 191.091L344.971 198.41C343.099 200.306 343.099 203.426 344.971 205.339L348.737 209.205C346.291 213.25 344.597 217.513 343.57 222.149H337.868C335.187 222.149 333 224.361 333 227.084V237.012C333 239.717 335.17 241.947 337.868 241.947H343.65C344.678 246.468 346.412 250.668 348.915 254.718L345.091 258.625C343.22 260.538 343.22 263.657 345.091 265.57L352.291 272.89C353.215 273.837 354.479 274.372 355.782 274.332C357.102 274.332 358.325 273.78 359.233 272.809L362.804 269.058C366.984 271.7 370.733 273.303 374.976 274.286V279.496C374.976 282.202 377.146 284.431 379.845 284.431H391.483C394.164 284.431 396.351 282.22 396.351 279.496V274.165C399.549 273.16 404.418 271.425 408.38 269.035L412.031 272.844C412.956 273.809 414.179 274.326 415.505 274.343H415.522C416.826 274.343 418.049 273.832 418.973 272.884L426.092 265.599C427.964 263.686 427.964 260.566 426.092 258.653L422.205 254.706C424.668 250.719 426.368 246.514 427.413 241.935H433.43C436.111 241.935 438.282 239.723 438.282 237V227.073C438.282 224.367 436.111 222.138 433.413 222.138L433.43 222.12L433.424 222.143Z" fill="#E8F1F2"/>
<path d="M385.446 259.641C400.628 259.641 412.936 247.325 412.936 232.133C412.936 216.941 400.628 204.626 385.446 204.626C370.263 204.626 357.955 216.941 357.955 232.133C357.955 247.325 370.263 259.641 385.446 259.641Z" stroke="#006CA7" stroke-width="2" stroke-miterlimit="10"/>
<path d="M400.123 222.739L382.095 241.095C381.928 241.261 381.681 241.376 381.44 241.376C381.193 241.376 380.969 241.284 380.786 241.112L370.836 231.265" stroke="#006CA7" stroke-width="2" stroke-miterlimit="10" stroke-linecap="round"/>
<path d="M372.5 420.022C372.5 427.862 366.178 434.262 358.375 434.262C356.885 434.262 355.672 435.507 355.672 436.991V438.337C355.672 451.462 348.304 462.879 337.462 468.598C332.769 471.052 327.392 472.5 321.68 472.5H314.08C309.248 472.5 304.619 471.494 300.463 469.604C288.467 464.356 280.089 452.302 280.089 438.33V436.984C280.089 435.5 278.875 434.254 277.422 434.254C269.749 434.088 263.5 427.724 263.5 420.014C263.5 412.305 269.749 405.912 277.422 405.775C278.912 405.775 280.089 404.529 280.089 403.045V398.535C280.089 381.436 293.938 367.5 310.934 367.5H324.783C341.815 367.5 355.628 381.4 355.628 398.535V403.009C355.628 404.522 356.841 405.738 358.331 405.738C366.135 405.738 372.456 412.102 372.456 420.014H372.493L372.5 420.022Z" fill="#006CA7" stroke="#006CA7" stroke-miterlimit="10"/>
<path d="M396.651 563.596C396.385 554.438 397.066 528.104 412.264 527.716C417.864 531.519 490.608 518.871 422.701 548C421.388 548.563 422.701 553.325 422.701 554.71V601.5H242.5V558.829C242.5 530.886 260.208 507.069 285.069 498.155C290.06 496.295 295.327 495.118 300.826 494.609C302.139 501.737 307.536 507.411 314.486 509.133C315.901 509.503 317.424 509.707 318.97 509.707C320.856 509.707 322.677 509.438 324.403 508.893C330.947 506.902 335.938 501.359 337.157 494.5C343.062 494.936 348.764 496.186 354.089 498.118C378.913 507.106 396.658 530.886 396.658 558.829V584.302" fill="#006CA7"/>
<path d="M396.5 534.655C396.5 529.188 400.777 524.714 406.125 524.574L446.033 523.619L464.248 512.929C467.354 510.541 471.767 511.224 474.11 514.398C476.518 517.712 475.713 522.429 472.342 524.684L449.448 540.158L423.046 551.465C423.046 557.148 423.01 562.488 422.94 567.5H396.816C396.816 564.423 396.816 562.885 396.816 559.808" fill="#006CA7"/>
<path d="M331.429 514.91V527.473C331.429 530.796 330.107 533.819 327.924 535.977C325.777 538.171 322.799 539.5 319.464 539.5C312.818 539.5 307.5 534.119 307.5 527.473V514.91L313.585 508.5H325.386L331.5 514.91H331.436H331.429Z" fill="url(#paint6_linear_1104_4)"/>
<path d="M318.981 539.5H319.048C325.908 539.5 331.5 545.207 331.5 552.226V601.5H306.5V552.226C306.5 545.215 312.084 539.5 318.952 539.5H318.989H318.981Z" fill="#E8F1F2"/>
<path d="M314.5 509.052L313.538 510.034L307.205 516.56L295.612 528.5L284.5 498.051C289.59 496.188 294.961 495.009 300.569 494.5C301.908 501.638 307.412 507.32 314.5 509.044V509.052Z" fill="#E8F1F2"/>
<path d="M353.5 498.131L342.855 528.5L331.75 516.606L325.655 510.105L324.5 508.858C330.892 506.872 335.768 501.342 336.959 494.5C342.728 494.935 348.298 496.182 353.5 498.109V498.146V498.131Z" fill="#E8F1F2"/>
<path opacity="0.6" d="M219.314 309.317C263.39 309.317 299.121 273.564 299.121 229.46C299.121 185.357 263.39 149.604 219.314 149.604C175.238 149.604 139.507 185.357 139.507 229.46C139.507 273.564 175.238 309.317 219.314 309.317Z" fill="#E8F1F2"/>
<path opacity="0.6" d="M219.29 302.032C259.415 302.032 291.943 269.504 291.943 229.379C291.943 189.254 259.415 156.726 219.29 156.726C179.165 156.726 146.637 189.254 146.637 229.379C146.637 269.504 179.165 302.032 219.29 302.032Z" stroke="white" stroke-width="3" stroke-miterlimit="10"/>
<path d="M337.5 467.5V490.155C337.5 491.354 337.398 492.522 337.195 493.615C335.981 500.742 330.975 506.533 324.421 508.65C322.699 509.212 320.875 509.5 318.978 509.5C317.423 509.5 315.941 509.288 314.488 508.9C307.527 507.102 302.12 501.174 300.805 493.729C300.565 492.598 300.5 491.399 300.5 490.162V468.563C304.656 470.536 309.285 471.598 314.117 471.598H321.718C327.429 471.598 332.799 470.118 337.5 467.508V467.5Z" fill="#006CA7" stroke="#006CA7" stroke-miterlimit="10"/>
<path d="M423.5 567.5H396.5" stroke="#E8F1F2" stroke-width="6" stroke-miterlimit="10"/>
<path d="M242.618 372.896H196.009V420.535H242.618V372.896Z" fill="url(#paint7_linear_1104_4)"/>
<path fill-rule="evenodd" clip-rule="evenodd" d="M227.656 441.826L242.618 420.535H196.009L209.725 441.826L209.725 441.826L218.297 455.138L227.656 441.826H227.656Z" fill="white"/>
<path d="M242.435 280.15V335.441H196.146V280.15C196.146 276.895 198.695 274.26 201.842 274.26H236.738C239.886 274.26 242.435 276.895 242.435 280.15Z" fill="url(#paint8_linear_1104_4)"/>
<path d="M250.887 336.802V371.513C250.887 373.596 249.2 375.289 247.11 375.289H191.068C188.984 375.289 187.291 373.596 187.291 371.513V336.802C187.291 334.718 188.984 333.025 191.068 333.025H247.11C249.2 333.025 250.887 334.718 250.887 336.802Z" fill="white"/>
</g>
</g>
<defs>
<filter id="filter0_d_1104_4" x="0.5" y="0.5" width="665" height="665" filterUnits="userSpaceOnUse" color-interpolation-filters="sRGB">
<feFlood flood-opacity="0" result="BackgroundImageFix"/>
<feColorMatrix in="SourceAlpha" type="matrix" values="0 0 0 0 0 0 0 0 0 0 0 0 0 0 0 0 0 0 127 0" result="hardAlpha"/>
<feOffset dy="4"/>
<feGaussianBlur stdDeviation="30"/>
<feComposite in2="hardAlpha" operator="out"/>
<feColorMatrix type="matrix" values="0 0 0 0 0 0 0 0 0 0.266766 0 0 0 0 0.4125 0 0 0 0.3 0"/>
<feBlend mode="normal" in2="BackgroundImageFix" result="effect1_dropShadow_1104_4"/>
<feBlend mode="normal" in="SourceGraphic" in2="effect1_dropShadow_1104_4" result="shape"/>
</filter>
<filter id="filter1_f_1104_4" x="44.4487" y="54.5381" width="349.73" height="349.843" filterUnits="userSpaceOnUse" color-interpolation-filters="sRGB">
<feFlood flood-opacity="0" result="BackgroundImageFix"/>
<feBlend mode="normal" in="SourceGraphic" in2="BackgroundImageFix" result="shape"/>
<feGaussianBlur stdDeviation="42" result="effect1_foregroundBlur_1104_4"/>
</filter>
<filter id="filter2_f_1104_4" x="319.5" y="340.5" width="226.159" height="224.002" filterUnits="userSpaceOnUse" color-interpolation-filters="sRGB">
<feFlood flood-opacity="0" result="BackgroundImageFix"/>
<feBlend mode="normal" in="SourceGraphic" in2="BackgroundImageFix" result="shape"/>
<feGaussianBlur stdDeviation="37" result="effect1_foregroundBlur_1104_4"/>
</filter>
<linearGradient id="paint0_linear_1104_4" x1="218.756" y1="332.82" x2="488.624" y2="-146.393" gradientUnits="userSpaceOnUse">
<stop stop-color="#00639E"/>
<stop offset="1" stop-color="#00B9F2"/>
</linearGradient>
<radialGradient id="paint1_radial_1104_4" cx="0" cy="0" r="1" gradientUnits="userSpaceOnUse" gradientTransform="translate(333 342.293) rotate(89.299) scale(371.619 371.815)">
<stop stop-color="#2495D2"/>
<stop offset="1" stop-color="#006CA7"/>
</radialGradient>
<radialGradient id="paint2_radial_1104_4" cx="0" cy="0" r="1" gradientUnits="userSpaceOnUse" gradientTransform="translate(343.5 389.866) rotate(89.4743) scale(38.1834 28.6545)">
<stop stop-color="#2495D2"/>
<stop offset="1" stop-color="#006CA7"/>
</radialGradient>
<radialGradient id="paint3_radial_1104_4" cx="0" cy="0" r="1" gradientUnits="userSpaceOnUse" gradientTransform="translate(489.957 306.983) rotate(89.2995) scale(89.5985 89.5901)">
<stop stop-color="#2495D2"/>
<stop offset="1" stop-color="#006CA7"/>
</radialGradient>
<linearGradient id="paint4_linear_1104_4" x1="566.957" y1="278.888" x2="368.054" y2="278.888" gradientUnits="userSpaceOnUse">
<stop stop-color="white"/>
<stop offset="1" stop-color="#D9D9D9" stop-opacity="0"/>
</linearGradient>
<radialGradient id="paint5_radial_1104_4" cx="0" cy="0" r="1" gradientUnits="userSpaceOnUse" gradientTransform="translate(313 389.78) rotate(89.1838) scale(49.7778 57.9879)">
<stop stop-color="#2495D2"/>
<stop offset="1" stop-color="#006CA7"/>
</radialGradient>
<linearGradient id="paint6_linear_1104_4" x1="319.257" y1="485.719" x2="319.257" y2="539.542" gradientUnits="userSpaceOnUse">
<stop stop-color="#006CA7"/>
<stop offset="0.748015" stop-color="#E8F1F2"/>
</linearGradient>
<linearGradient id="paint7_linear_1104_4" x1="219.111" y1="369.606" x2="219.111" y2="517.378" gradientUnits="userSpaceOnUse">
<stop stop-color="#E8F1F2"/>
<stop offset="1" stop-color="#E8F1F2" stop-opacity="0"/>
</linearGradient>
<linearGradient id="paint8_linear_1104_4" x1="219.089" y1="270.033" x2="219.089" y2="459.817" gradientUnits="userSpaceOnUse">
<stop stop-color="#E8F1F2"/>
<stop offset="1" stop-color="#E8F1F2" stop-opacity="0"/>
</linearGradient>
</defs>
</svg>
