<svg width="544" height="543" viewBox="0 0 544 543" fill="none" xmlns="http://www.w3.org/2000/svg">
<path d="M165.02 22.1216C138.547 33.4815 114.786 48.5706 94.0977 66.5511C105 78.7331 117.207 92.3065 133.445 110.134C144.566 122.349 158.373 137.392 171.374 151.581C181.824 142.792 193.562 135.234 206.498 129.276C199.488 111.382 192.047 92.4328 186.08 77.058C177.349 54.5707 170.836 37.4853 165.022 22.1216H165.02Z" fill="#F02D79"/>
<path d="M179.58 16.3519C185.522 31.6425 192.226 48.7545 201.197 71.2684C207.276 86.528 214.86 105.342 222.002 123.107C235.488 118.541 249.208 115.962 262.849 115.162C262.586 95.8628 262.278 75.4029 262.1 58.8316C261.841 34.7888 261.753 16.5757 261.713 0.186035C234.3 1.22964 206.64 6.52298 179.582 16.3541L179.58 16.3519Z" fill="#F27439"/>
<path d="M81.9658 77.7207C61.8203 97.5181 45.0912 120.214 32.1328 144.832C46.9278 151.994 63.5529 159.975 85.5238 170.369C100.363 177.39 118.723 185.992 136.046 194.125C142.845 182.114 151.222 170.962 161.072 161.034C147.571 146.929 133.197 131.937 121.621 119.771C105.29 102.599 93.0476 89.5681 81.9613 77.7207H81.9658Z" fill="#FB9C32"/>
<path d="M275.273 0C275.748 16.5868 276.341 35.3517 277.263 59.9772C277.866 76.1785 278.692 96.1554 279.456 115.062C293.469 115.742 307.243 118.286 320.425 122.587C326.708 104.141 333.364 84.5229 338.809 68.6805C346.521 46.2397 352.443 29.3383 357.849 14.0233C331.409 5.18699 303.567 0.347867 275.273 0Z" fill="#B81E4C"/>
<path d="M26.5076 156.118C14.6259 181.475 6.68339 208.624 3.05664 236.593C19.4867 238.259 38.006 240.089 62.3741 242.352C78.5804 243.856 98.5907 245.635 117.507 247.335C119.667 233.491 123.679 220.035 129.373 207.323C112.101 198.806 93.7809 189.808 78.9748 182.452C57.4181 171.748 41.1342 163.543 26.5076 156.12V156.118Z" fill="#CB942F"/>
<path d="M374.087 20.0347C368.721 35.4848 362.732 52.6057 354.679 75.1794C349.089 90.8511 342.097 110.183 335.537 128.407C348.132 134.007 359.998 141.252 370.774 150.015C383.573 135.243 397.232 119.518 408.205 106.775C423.667 88.8237 435.236 75.2281 445.676 62.8999C424.086 44.9282 399.893 30.5261 374.089 20.0347H374.087Z" fill="#FFAA00"/>
<path d="M1.31228 253.984C-0.460112 281.496 2.02788 309.574 9.05098 337.317C24.8629 332.952 42.5558 328.02 65.8561 321.37C81.6547 316.861 101.153 311.209 119.555 305.896C116.405 292.094 115.226 278.173 115.831 264.469C96.5827 262.778 76.1692 261.017 59.6439 259.519C35.7277 257.352 17.6249 255.599 1.31449 253.984H1.31228Z" fill="#0F804C"/>
<path d="M456.947 72.8589C446.175 85.5328 434.023 99.7532 417.958 118.325C407.355 130.583 394.231 145.63 381.811 159.901C391.652 169.595 400.301 180.709 407.428 193.09C424.237 184.205 442.03 174.819 456.415 167.162C477.945 155.7 494.244 146.893 508.72 139.022C494.734 113.905 477.187 91.7146 456.947 72.8589Z" fill="#00AAD4"/>
<path d="M13.8145 353.939C15.8394 360.241 18.0172 366.529 20.534 372.764C28.7712 393.173 39.2527 411.98 51.5065 429.127C64.7817 419.003 79.8426 407.44 99.4807 392.187C112.12 382.369 127.648 370.22 142.388 358.701C136.389 349.787 131.2 340.142 127.017 329.781C125.843 326.872 124.793 323.94 123.805 321.002C105.569 326.544 86.2941 332.418 70.6439 337.12C47.3747 344.11 29.6663 349.319 13.8145 353.935V353.939Z" fill="#1096D3"/>
<path d="M516.2 153.433C501.56 161.126 485.146 169.701 463.487 180.85C448.989 188.315 431.077 197.439 414.135 206.094C415.134 208.276 416.102 210.481 417.01 212.73C421.459 223.751 424.514 234.976 426.347 246.236C445.096 244.282 464.898 242.232 480.947 240.506C505.468 237.874 524.14 235.765 540.63 233.848C537.615 212.322 531.985 190.823 523.485 169.752C521.236 164.182 518.768 158.769 516.2 153.433Z" fill="#F1523D"/>
<path d="M428.026 260.874C428.97 275.035 427.98 289.111 425.164 302.745C443.415 307.52 462.692 312.571 478.336 316.613C502.168 322.768 520.341 327.348 536.43 331.352C542.631 304.167 544.707 275.897 542.195 247.485C525.741 249.541 507.272 251.803 482.984 254.628C466.822 256.509 446.894 258.743 428.026 260.874Z" fill="#E42338"/>
<path d="M152.747 372.363C137.52 384.048 121.406 396.445 108.311 406.432C89.0802 421.102 74.4247 432.136 61.2559 442.005C79.1415 464.104 100.224 482.922 123.482 498.14C132.209 484.205 141.962 468.543 154.687 447.823C163.257 433.869 173.783 416.597 183.728 400.296C172.301 392.493 161.868 383.12 152.749 372.363H152.747Z" fill="#2EB24D"/>
<path d="M421.619 316.608C417.562 329.958 411.736 342.722 404.303 354.552C419.556 365.905 435.685 377.883 448.728 387.653C468.321 402.325 483.176 413.572 496.372 423.638C512.157 400.351 524.174 374.739 532.114 347.818C516.46 343.267 499.008 338.238 475.887 331.735C459.947 327.232 440.2 321.777 421.617 316.608H421.619Z" fill="#10A348"/>
<path d="M197.611 408.776C188.14 424.873 178.123 441.814 170.057 455.605C157.511 477.055 148.024 493.492 139.725 507.973C164.398 521.744 191.128 531.622 218.915 537.194C221.465 520.556 224.407 501.665 228.413 477.007C230.941 461.306 234.171 442.018 237.208 423.672C223.39 420.501 210.055 415.498 197.611 408.776Z" fill="#066F9F"/>
<path d="M394.952 367.833C386.349 378.807 376.253 388.731 364.746 397.195C374.809 412.891 385.39 429.44 394.037 442.839C407.543 463.773 417.955 479.708 427.143 493.674C450.669 477.295 471.083 457.571 487.918 435.381C474.415 425.722 459.279 414.841 439.479 400.423C426.357 390.872 410.237 379.029 394.954 367.833H394.952Z" fill="#E9B233"/>
<path d="M255.351 426.738C251.859 444.869 248.177 463.929 245.241 479.43C240.551 504.191 237.069 523.197 234.082 539.777C261.669 543.699 290.07 543.411 318.357 538.472C315.238 522.218 311.79 504.002 307.393 480.019C304.459 463.993 300.917 444.222 297.549 425.513C283.408 427.866 269.226 428.238 255.351 426.736V426.738Z" fill="#074B6E"/>
<path d="M351.613 405.871C344.953 409.799 337.923 413.287 330.539 416.269C324.817 418.58 319.032 420.479 313.221 422.076C316.686 440.704 320.346 460.39 323.37 476.341C327.949 500.497 331.547 518.87 334.775 535.12C347.785 532.007 360.725 527.91 373.506 522.75C387.149 517.243 400.072 510.718 412.282 503.362C403.577 489.602 393.991 474.378 381.425 454.149C372.598 439.982 361.809 422.404 351.615 405.873L351.613 405.871Z" fill="#EF384C"/>
<g clip-path="url(#clip0_778_277)">
<path d="M310.627 283.947C309.688 285.102 308.375 285.987 306.667 286.622C304.96 287.257 303.065 287.565 301.001 287.565C298.824 287.565 296.91 287.084 295.259 286.103C293.608 285.121 292.351 283.716 291.45 281.85C290.549 280.002 290.099 277.809 290.08 275.307V273.556C290.08 270.977 290.512 268.745 291.356 266.859C292.2 264.973 293.42 263.53 295.015 262.529C296.61 261.529 298.486 261.028 300.625 261.028C303.609 261.028 305.954 261.76 307.624 263.222C309.313 264.685 310.308 266.801 310.608 269.592H305.56C305.335 268.11 304.829 267.032 304.022 266.34C303.234 265.647 302.145 265.32 300.757 265.32C298.993 265.32 297.642 265.993 296.723 267.359C295.803 268.726 295.334 270.746 295.315 273.421V275.076C295.315 277.789 295.822 279.829 296.816 281.215C297.811 282.6 299.293 283.293 301.226 283.293C303.177 283.293 304.566 282.87 305.391 282.023V277.578H300.663V273.652H310.57V283.967L310.627 283.947Z" fill="#009DDA"/>
<path d="M353.502 281.908H344.401L342.675 287.219H337.158L346.54 261.394H351.344L360.763 287.219H355.247L353.502 281.888V281.908ZM345.808 277.597H352.113L348.942 267.937L345.808 277.597Z" fill="#009DDA"/>
<path d="M367.518 282.947H378.532V287.219H362.32V261.394H367.518V282.947Z" fill="#009DDA"/>
<path d="M393.787 280.445C393.787 279.444 393.45 278.675 392.755 278.136C392.061 277.597 390.823 277.039 389.021 276.423C387.22 275.827 385.794 275.23 384.743 274.653C381.891 273.075 380.446 270.939 380.446 268.245C380.446 266.859 380.822 265.608 381.591 264.511C382.36 263.415 383.467 262.568 384.893 261.952C386.338 261.336 387.933 261.028 389.734 261.028C391.536 261.028 393.131 261.355 394.538 262.029C395.945 262.703 397.034 263.645 397.822 264.858C398.591 266.07 398.985 267.456 398.985 269.014H393.787C393.787 267.841 393.431 266.917 392.699 266.263C391.967 265.608 390.954 265.281 389.641 265.281C388.365 265.281 387.389 265.551 386.676 266.109C385.963 266.667 385.625 267.379 385.625 268.283C385.625 269.13 386.038 269.823 386.864 270.4C387.689 270.977 388.909 271.497 390.504 271.997C393.45 272.902 395.608 274.037 396.959 275.384C398.31 276.731 398.985 278.405 398.985 280.426C398.985 282.658 398.159 284.409 396.508 285.679C394.857 286.949 392.643 287.584 389.847 287.584C387.914 287.584 386.151 287.219 384.556 286.488C382.961 285.756 381.76 284.756 380.915 283.505C380.071 282.235 379.658 280.772 379.658 279.098H384.856C384.856 281.946 386.507 283.37 389.828 283.37C391.067 283.37 392.024 283.12 392.718 282.6C393.412 282.081 393.75 281.369 393.75 280.445H393.787Z" fill="#009DDA"/>
<path d="M319.089 270.843C319.408 270.285 319.783 269.784 320.233 269.322L316.481 265.089C315.542 266.013 314.736 267.09 314.098 268.264L319.089 270.823V270.843Z" fill="#5FBA46"/>
<path d="M328.301 267.84C328.864 268.11 329.408 268.456 329.877 268.86L333.649 264.646C332.654 263.761 331.528 263.049 330.309 262.51L328.301 267.859V267.84Z" fill="#D6A102"/>
<path d="M336.933 269.11L331.941 271.67C332.185 272.247 332.354 272.844 332.448 273.479L338.002 272.94C337.833 271.593 337.477 270.303 336.933 269.11Z" fill="#C11728"/>
<path d="M331.586 270.939L336.577 268.379C335.958 267.205 335.17 266.128 334.25 265.204L330.479 269.418C330.91 269.88 331.285 270.381 331.586 270.939Z" fill="#289438"/>
<path d="M318.112 274.576C318.112 274.46 318.112 274.345 318.112 274.23L312.558 273.71C312.558 273.999 312.539 274.268 312.539 274.557C312.539 275.654 312.67 276.712 312.914 277.732L318.281 276.154C318.168 275.634 318.112 275.115 318.112 274.557" fill="#4A7634"/>
<path d="M330.89 279.252C330.496 279.752 330.046 280.176 329.539 280.561L332.466 285.429C333.555 284.679 334.53 283.755 335.337 282.697L330.89 279.252Z" fill="#FBB800"/>
<path d="M332.522 274.576C332.522 275.115 332.466 275.634 332.354 276.154L337.72 277.732C337.964 276.731 338.095 275.673 338.095 274.576C338.095 274.306 338.095 274.037 338.077 273.768L332.522 274.306C332.522 274.306 332.522 274.48 332.522 274.576Z" fill="#E6331D"/>
<path d="M319.82 279.367L315.373 282.831C316.199 283.87 317.174 284.775 318.281 285.525L321.209 280.657C320.683 280.291 320.233 279.848 319.82 279.367Z" fill="#F59D08"/>
<path d="M318.188 273.402C318.282 272.767 318.47 272.151 318.714 271.574L313.722 269.014C313.178 270.227 312.784 271.516 312.615 272.882L318.169 273.402H318.188Z" fill="#0076B8"/>
<path d="M331.773 285.872L328.846 281.003C328.321 281.311 327.739 281.561 327.139 281.715L328.171 287.334C329.465 287.026 330.666 286.526 331.773 285.852" fill="#931831"/>
<path d="M332.147 276.943C331.96 277.52 331.697 278.078 331.359 278.598L335.806 282.042C336.538 280.984 337.101 279.791 337.495 278.521L332.129 276.943H332.147Z" fill="#00A7D7"/>
<path d="M326.35 281.888C326.012 281.946 325.656 281.965 325.318 281.965C325.036 281.965 324.755 281.965 324.473 281.908L323.441 287.527C324.061 287.623 324.68 287.661 325.318 287.661C326.031 287.661 326.706 287.604 327.382 287.488L326.35 281.869V281.888Z" fill="#EC6411"/>
<path d="M325.768 267.186C326.387 267.225 326.987 267.34 327.55 267.533L329.558 262.183C328.357 261.76 327.1 261.49 325.768 261.452V267.167V267.186Z" fill="#E2071F"/>
<path d="M323.685 281.773C323.066 281.619 322.465 281.388 321.921 281.08L318.994 285.949C320.12 286.603 321.358 287.103 322.672 287.392L323.704 281.773H323.685Z" fill="#DD0979"/>
<path d="M323.142 267.513C323.723 267.321 324.324 267.205 324.962 267.186V261.471C323.63 261.509 322.335 261.759 321.115 262.183L323.142 267.513Z" fill="#1F3262"/>
<path d="M319.332 278.713C318.975 278.174 318.694 277.597 318.488 276.962L313.121 278.54C313.534 279.848 314.134 281.08 314.885 282.177L319.332 278.713Z" fill="#D28D0E"/>
<path d="M320.852 268.764C321.322 268.379 321.847 268.052 322.391 267.802L320.383 262.472C319.182 262.991 318.075 263.684 317.1 264.531L320.852 268.764Z" fill="#004C84"/>
<path d="M191.886 269.746C191.886 269.361 191.755 269.053 191.492 268.841C191.23 268.63 190.761 268.399 190.085 268.168C189.41 267.937 188.865 267.706 188.434 267.494C187.045 266.802 186.351 265.839 186.351 264.608C186.351 263.992 186.52 263.472 186.876 262.991C187.214 262.529 187.702 262.164 188.34 261.914C188.978 261.664 189.691 261.529 190.479 261.529C191.267 261.529 191.943 261.664 192.543 261.952C193.144 262.241 193.631 262.626 193.969 263.145C194.307 263.665 194.476 264.261 194.476 264.935H191.905C191.905 264.492 191.774 264.146 191.511 263.896C191.248 263.646 190.892 263.53 190.423 263.53C189.954 263.53 189.597 263.626 189.334 263.838C189.072 264.05 188.94 264.319 188.94 264.627C188.94 264.916 189.091 265.166 189.372 265.397C189.672 265.628 190.179 265.859 190.929 266.109C191.661 266.359 192.28 266.609 192.75 266.898C193.913 267.571 194.476 268.514 194.476 269.727C194.476 270.689 194.119 271.439 193.425 271.978C192.712 272.517 191.755 272.806 190.517 272.806C189.653 272.806 188.865 272.652 188.171 272.324C187.477 271.997 186.933 271.574 186.576 271.016C186.22 270.458 186.051 269.823 186.051 269.092H188.64C188.64 269.688 188.79 270.111 189.091 270.4C189.391 270.669 189.86 270.823 190.535 270.823C190.967 270.823 191.305 270.727 191.549 270.535C191.793 270.342 191.924 270.073 191.924 269.746H191.886Z" fill="#009BD9"/>
<path d="M204.327 261.702V268.879C204.327 269.688 204.158 270.4 203.821 270.996C203.483 271.593 202.995 272.035 202.357 272.363C201.719 272.67 200.987 272.824 200.124 272.824C198.83 272.824 197.798 272.478 197.047 271.785C196.296 271.093 195.921 270.15 195.902 268.937V261.702H198.492V268.995C198.529 270.188 199.073 270.804 200.124 270.804C200.65 270.804 201.062 270.65 201.344 270.361C201.625 270.053 201.757 269.572 201.757 268.899V261.702H204.327Z" fill="#009BD9"/>
<path d="M211.609 269.746C211.609 269.361 211.478 269.053 211.215 268.841C210.952 268.63 210.483 268.399 209.808 268.168C209.132 267.937 208.588 267.706 208.156 267.494C206.768 266.802 206.074 265.839 206.074 264.608C206.074 263.992 206.243 263.472 206.599 262.991C206.937 262.529 207.425 262.164 208.063 261.914C208.701 261.664 209.414 261.529 210.202 261.529C210.99 261.529 211.665 261.664 212.266 261.952C212.866 262.241 213.354 262.626 213.692 263.145C214.03 263.665 214.198 264.261 214.198 264.935H211.628C211.628 264.492 211.496 264.146 211.234 263.896C210.971 263.646 210.615 263.53 210.145 263.53C209.676 263.53 209.32 263.626 209.057 263.838C208.794 264.05 208.663 264.319 208.663 264.627C208.663 264.916 208.813 265.166 209.095 265.397C209.395 265.628 209.902 265.859 210.652 266.109C211.384 266.359 212.003 266.609 212.472 266.898C213.636 267.571 214.198 268.514 214.198 269.727C214.198 270.689 213.842 271.439 213.148 271.978C212.435 272.517 211.478 272.806 210.239 272.806C209.376 272.806 208.588 272.652 207.894 272.324C207.2 271.997 206.655 271.574 206.299 271.016C205.942 270.458 205.773 269.823 205.773 269.092H208.363C208.363 269.688 208.513 270.111 208.813 270.4C209.113 270.669 209.583 270.823 210.258 270.823C210.69 270.823 211.027 270.727 211.271 270.535C211.515 270.342 211.647 270.073 211.647 269.746H211.609Z" fill="#009BD9"/>
<path d="M224.049 263.741H220.84V272.67H218.27V263.741H215.117V261.702H224.049V263.741Z" fill="#009BD9"/>
<path d="M230.485 270.612H226.958L226.338 272.651H223.58L227.502 261.683H229.922L233.881 272.651H231.104L230.485 270.612ZM227.577 268.572H229.885L228.74 264.762L227.596 268.572H227.577Z" fill="#009BD9"/>
<path d="M237.539 272.67H234.969V261.702H237.539V272.67Z" fill="#009BD9"/>
<path d="M248.424 272.67H245.853L242.063 265.839V272.67H239.492V261.702H242.063L245.853 268.533V261.702H248.424V272.67Z" fill="#009BD9"/>
<path d="M256.397 270.612H252.87L252.25 272.651H249.492L253.414 261.683H255.834L259.794 272.651H257.017L256.397 270.612ZM253.489 268.572H255.797L254.652 264.762L253.508 268.572H253.489Z" fill="#009BD9"/>
<path d="M260.732 272.67V261.702H264.579C265.949 261.702 267 261.952 267.713 262.471C268.426 262.991 268.782 263.741 268.782 264.723C268.782 265.281 268.651 265.781 268.407 266.185C268.144 266.59 267.769 266.878 267.281 267.071C267.844 267.225 268.276 267.494 268.576 267.917C268.876 268.321 269.026 268.822 269.026 269.418C269.026 270.496 268.688 271.304 268.032 271.843C267.375 272.382 266.38 272.651 265.086 272.67H260.751H260.732ZM263.303 266.282H264.654C265.217 266.282 265.611 266.166 265.855 265.974C266.099 265.762 266.211 265.454 266.211 265.05C266.211 264.588 266.08 264.261 265.817 264.049C265.555 263.838 265.142 263.741 264.56 263.741H263.303V266.282ZM263.303 268.014V270.65H264.992C265.461 270.65 265.817 270.534 266.061 270.323C266.305 270.111 266.437 269.803 266.437 269.399C266.437 268.495 265.986 268.033 265.104 268.014H263.303Z" fill="#009BD9"/>
<path d="M273.154 270.631H277.638V272.67H270.564V261.702H273.135V270.631H273.154Z" fill="#009BD9"/>
<path d="M285.519 268.014H281.466V270.631H286.251V272.67H278.877V261.702H286.251V263.741H281.448V266.051H285.501V268.014H285.519Z" fill="#009BD9"/>
<path d="M185.902 287.469V276.962H189.205C190.105 276.962 190.931 277.174 191.644 277.597C192.357 278.02 192.939 278.617 193.333 279.387C193.746 280.156 193.952 281.022 193.952 281.965V282.446C193.952 283.408 193.746 284.274 193.352 285.025C192.958 285.795 192.395 286.391 191.682 286.815C190.969 287.238 190.162 287.469 189.28 287.469H185.902ZM188.379 278.925V285.525H189.242C189.955 285.525 190.5 285.275 190.875 284.756C191.25 284.236 191.438 283.466 191.438 282.446V281.984C191.438 280.965 191.25 280.214 190.875 279.694C190.5 279.175 189.937 278.925 189.224 278.925H188.398H188.379Z" fill="#009DDA"/>
<path d="M201.57 283.005H197.686V285.506H202.264V287.45H195.209V276.943H202.283V278.906H197.686V281.119H201.57V282.985V283.005Z" fill="#009DDA"/>
<path d="M207.893 284.621L209.938 276.981H212.697L209.244 287.488H206.542L203.127 276.981H205.866L207.893 284.621Z" fill="#009DDA"/>
<path d="M219.789 283.005H215.905V285.506H220.483V287.45H213.428V276.943H220.502V278.906H215.905V281.119H219.789V282.985V283.005Z" fill="#009DDA"/>
<path d="M223.955 285.525H228.252V287.469H221.479V276.962H223.955V285.525Z" fill="#009DDA"/>
<path d="M237.241 282.427C237.241 283.447 237.053 284.351 236.678 285.14C236.302 285.929 235.777 286.545 235.102 286.968C234.426 287.392 233.638 287.603 232.775 287.603C231.912 287.603 231.124 287.392 230.448 286.988C229.773 286.584 229.247 285.987 228.872 285.217C228.497 284.447 228.29 283.582 228.271 282.581V281.984C228.271 280.964 228.459 280.041 228.816 279.252C229.191 278.463 229.716 277.866 230.392 277.424C231.086 277 231.855 276.789 232.737 276.789C233.619 276.789 234.37 277 235.064 277.424C235.74 277.847 236.265 278.444 236.659 279.233C237.034 280.021 237.222 280.907 237.241 281.927V282.408V282.427ZM234.726 281.984C234.726 280.945 234.557 280.156 234.22 279.598C233.882 279.059 233.394 278.79 232.756 278.79C231.518 278.79 230.861 279.733 230.786 281.638V282.408C230.786 283.428 230.936 284.236 231.274 284.775C231.611 285.333 232.099 285.602 232.756 285.602C233.413 285.602 233.863 285.333 234.201 284.794C234.539 284.255 234.708 283.466 234.708 282.446V281.965L234.726 281.984Z" fill="#009DDA"/>
<path d="M240.973 283.909V287.469H238.496V276.962H242.587C243.375 276.962 244.069 277.116 244.669 277.405C245.27 277.693 245.739 278.117 246.077 278.675C246.414 279.213 246.565 279.848 246.565 280.541C246.565 281.561 246.208 282.389 245.495 283.004C244.782 283.62 243.806 283.928 242.549 283.928H240.973V283.909ZM240.973 281.946H242.587C243.056 281.946 243.431 281.831 243.675 281.58C243.919 281.33 244.05 280.984 244.05 280.541C244.05 280.06 243.919 279.656 243.656 279.367C243.393 279.079 243.037 278.925 242.605 278.925H240.954V281.946H240.973Z" fill="#009DDA"/>
<path d="M250.957 276.962L253.246 284.275L255.517 276.962H258.763V287.469H256.286V285.025L256.53 280.003L254.053 287.469H252.421L249.944 279.983L250.188 285.006V287.45H247.711V276.943H250.957V276.962Z" fill="#009DDA"/>
<path d="M266.474 283.005H262.59V285.506H267.169V287.45H260.113V276.943H267.187V278.906H262.59V281.119H266.474V282.985V283.005Z" fill="#009DDA"/>
<path d="M276.644 287.469H274.186L270.565 280.926V287.469H268.088V276.962H270.565L274.186 283.505V276.962H276.644V287.469Z" fill="#009DDA"/>
<path d="M286.194 278.925H283.117V287.469H280.64V278.925H277.619V276.962H286.176V278.925H286.194Z" fill="#009DDA"/>
<path d="M173.967 286.622C173.967 286.622 174.004 286.622 174.004 286.642C173.385 287.296 172.597 287.738 171.846 287.95C171.284 288.123 170.721 288.143 170.139 288.066C169.238 287.969 168.45 287.604 167.718 287.103C167.268 286.796 166.836 286.507 166.405 286.199C165.898 285.853 165.354 285.776 164.754 285.872C164.435 285.91 164.679 286.064 164.735 286.084C165.523 286.468 166.255 286.949 166.949 287.488C167.418 287.835 168.263 288.662 168.263 288.662L167.643 289.22C167.643 289.22 167.174 288.662 166.949 288.45C165.579 286.988 164.36 286.334 164.097 286.18C164.041 286.16 164.003 286.122 163.966 286.122C163.928 286.122 163.872 286.141 163.834 286.18C163.572 286.334 162.352 286.988 160.982 288.45C160.776 288.662 160.288 289.22 160.288 289.22L159.669 288.662C159.669 288.662 160.513 287.835 160.982 287.488C161.676 286.949 162.408 286.468 163.196 286.084C163.253 286.064 163.478 285.91 163.177 285.872C162.596 285.776 162.033 285.833 161.526 286.199C161.095 286.507 160.644 286.815 160.213 287.103C159.481 287.604 158.693 287.969 157.792 288.066C157.211 288.123 156.648 288.104 156.085 287.95C155.334 287.719 154.527 287.277 153.908 286.642C153.908 286.642 153.946 286.622 153.964 286.622C154.021 286.642 154.058 286.661 154.096 286.699C155.015 287.18 155.972 287.238 156.967 287.046C157.642 286.911 158.28 286.642 158.899 286.353C159.35 286.16 159.8 285.93 160.269 285.776C161.47 285.372 162.69 285.372 163.928 285.699C163.947 285.699 163.966 285.699 163.984 285.699C164.003 285.699 164.022 285.699 164.041 285.699C165.26 285.372 166.499 285.372 167.7 285.776C168.169 285.93 168.619 286.16 169.069 286.353C169.707 286.622 170.327 286.911 171.002 287.046C171.997 287.238 172.954 287.18 173.873 286.699C173.929 286.68 173.948 286.661 174.004 286.622H173.967ZM176.856 283.928C176.331 284.332 175.993 284.486 175.562 284.64C174.905 284.871 174.211 284.91 173.516 284.948C172.616 285.006 171.734 285.044 170.852 285.179C170.796 285.179 170.777 285.179 170.796 285.141C171.584 284.833 172.128 284.217 172.541 283.409C172.822 282.851 173.291 281.792 173.404 281.619V281.581C173.348 281.6 172.466 282.37 172.072 282.735C171.584 283.197 171.115 283.697 170.627 284.178C169.857 284.929 168.75 285.256 168.356 285.372C168.356 285.372 168.338 285.372 168.319 285.372C168.319 285.372 168.319 285.41 168.3 285.41C168.619 285.487 169.501 285.679 169.97 285.814C170.683 286.007 171.396 286.18 172.128 286.218C172.916 286.276 173.723 286.199 174.455 285.91C175.299 285.583 176.331 284.833 176.931 283.928C176.913 283.928 176.875 283.928 176.875 283.928H176.856ZM179.558 279.675C179.558 279.675 179.089 280.31 178.001 281.061C177.476 281.446 176.988 281.677 176.406 281.946C175.693 282.293 175.055 282.6 174.455 283.12C174.417 283.159 174.38 283.178 174.342 283.216C174.323 283.216 174.305 283.216 174.323 283.178C174.361 283.139 175.261 282.196 175.524 280.176C175.618 279.483 175.637 278.713 175.862 278.04C175.862 278.02 175.862 278.001 175.862 277.982C175.205 278.752 174.642 279.964 174.38 280.734C174.192 281.273 174.023 281.811 173.835 282.35C173.573 283.082 173.254 283.755 172.71 284.313L172.653 284.371C172.653 284.371 172.653 284.371 172.653 284.409C172.728 284.409 172.785 284.39 172.841 284.371C173.441 284.236 174.042 284.101 174.661 283.986C175.674 283.813 176.575 283.447 177.382 282.793C178.207 282.139 178.902 281.388 179.352 280.426C179.465 280.176 179.577 279.926 179.652 279.656C179.652 279.656 179.615 279.656 179.596 279.656L179.558 279.675ZM180.741 274.884C180.478 275.731 180.009 276.423 179.314 277.174C178.77 277.751 177.738 278.829 177.25 279.579C177.25 279.598 177.194 279.579 177.213 279.56C177.438 278.906 177.551 277.751 177.401 276.866C177.288 276.096 176.95 275.269 176.875 274.345C176.875 274.345 176.856 274.306 176.838 274.306C176.838 274.306 176.838 274.306 176.8 274.403C176.65 274.942 176.444 275.615 176.425 276.25C176.387 277.02 176.519 277.982 176.462 278.771C176.387 279.675 176.331 280.58 175.918 281.388C175.918 281.407 175.918 281.446 175.918 281.446C176.237 281.234 177.175 280.676 177.776 280.253C178.545 279.733 179.202 279.117 179.727 278.328C180.384 277.347 180.759 276.173 180.741 274.98C180.741 274.942 180.741 274.865 180.741 274.865L180.703 274.884H180.741ZM178.789 275.403C178.77 275.403 178.77 275.403 178.77 275.384C178.808 275.134 178.808 274.845 178.77 274.614C178.714 273.729 178.189 272.979 177.72 272.228C177.476 271.843 177.063 271.17 176.894 270.708C176.894 270.708 176.856 270.689 176.838 270.689C176.838 270.766 176.838 271.035 176.875 271.208C177.007 272.478 177.401 273.748 177.813 274.961C178.095 275.769 178.226 276.462 178.132 277.328C178.132 277.405 178.132 277.405 178.132 277.424C178.414 277.001 178.958 276.423 179.296 276C179.652 275.538 181.51 273.402 180.59 270.4C180.534 270.227 180.478 270.054 180.44 270.034L180.403 270.073C180.403 272.228 179.39 273.152 178.958 274.634C178.883 274.922 178.808 275.172 178.752 275.384L178.789 275.403ZM177.213 268.707C176.875 268.418 176.387 267.879 176.087 267.417C176.087 267.417 176.05 267.417 176.031 267.417H176.012C176.012 267.514 176.312 268.456 176.5 268.899C176.763 269.534 177.194 270.073 177.607 270.631C177.645 270.669 177.663 270.708 177.701 270.746C178.114 271.304 178.77 272.498 178.92 273.113C178.92 273.113 178.958 273.152 178.958 273.133C179.014 272.921 179.277 272.055 179.483 271.478C179.521 271.362 179.877 270.208 179.934 269.707C180.14 268.283 179.671 266.455 178.864 265.435C178.864 265.435 178.845 265.474 178.845 265.493C178.845 265.531 178.864 265.57 178.883 265.628C178.883 265.685 178.92 265.743 178.939 265.82C179.146 266.744 179.071 267.398 178.977 268.187C178.902 268.822 178.77 269.438 178.808 270.073C178.808 270.169 178.883 270.958 178.864 270.977C178.864 271.016 178.827 270.977 178.827 270.977C178.827 270.977 178.733 270.689 178.62 270.458C178.583 270.362 178.545 270.265 178.508 270.188C178.189 269.534 177.757 269.188 177.232 268.745L177.213 268.707ZM176.331 262.972C176.594 263.222 176.8 263.53 176.931 263.857C177.157 264.396 177.213 265.204 177.363 265.801C177.457 266.166 177.513 266.436 177.626 266.859C177.626 266.898 177.607 266.917 177.588 266.859C177.175 266.282 176.65 265.916 175.918 265.435C175.487 265.147 175.149 264.877 174.83 264.435C174.774 264.358 174.717 264.281 174.661 264.204C174.661 264.204 174.624 264.204 174.605 264.204C174.605 264.204 174.605 264.261 174.605 264.3C174.699 264.781 175.018 265.685 175.562 266.224C175.956 266.609 176.387 266.955 176.819 267.302C177.569 267.937 178.114 268.63 178.282 268.861C178.282 268.861 178.32 268.88 178.32 268.861C178.32 268.745 178.32 268.572 178.32 268.36C178.32 267.898 178.339 267.263 178.358 266.84C178.358 266.667 178.358 266.494 178.358 266.32C178.358 265.801 178.301 265.281 178.095 264.8C177.757 263.992 177.232 263.357 176.462 262.972C176.425 262.953 176.35 262.934 176.312 262.914C176.312 262.914 176.312 262.934 176.312 262.972H176.331ZM173.141 261.452C173.591 261.856 173.948 262.337 174.286 262.837C174.605 263.318 174.924 263.819 175.355 264.204C175.637 264.512 176.481 265.166 176.688 265.339C176.65 265.089 176.256 263.28 175.149 262.375C174.548 261.856 173.76 261.529 172.991 261.298V261.356C173.029 261.394 173.047 261.413 173.085 261.452H173.141ZM155.747 286.218C156.479 286.16 157.192 286.007 157.905 285.814C158.374 285.679 159.256 285.487 159.575 285.41C159.575 285.41 159.575 285.391 159.556 285.372C159.556 285.372 159.537 285.372 159.519 285.372C159.124 285.256 158.017 284.929 157.248 284.178C156.76 283.717 156.291 283.216 155.803 282.735C155.409 282.35 154.527 281.6 154.471 281.581V281.619C154.602 281.792 155.053 282.87 155.334 283.409C155.747 284.198 156.272 284.833 157.079 285.141C157.079 285.16 157.079 285.179 157.023 285.179C156.141 285.025 155.259 284.987 154.358 284.948C153.683 284.91 152.97 284.871 152.313 284.64C151.882 284.486 151.544 284.352 151.018 283.928C151.018 283.928 150.981 283.928 150.962 283.928C151.563 284.833 152.595 285.602 153.439 285.91C154.171 286.199 154.978 286.276 155.766 286.218H155.747ZM155.053 284.352C155.053 284.352 155.147 284.352 155.24 284.39C155.24 284.371 155.24 284.352 155.24 284.352C155.24 284.352 155.203 284.313 155.184 284.294C154.64 283.736 154.302 283.062 154.058 282.331C153.871 281.792 153.702 281.253 153.514 280.715C153.251 279.964 152.707 278.752 152.032 277.963C152.032 277.963 152.013 278.001 152.032 278.02C152.257 278.694 152.276 279.464 152.369 280.157C152.632 282.158 153.552 283.12 153.57 283.159C153.589 283.178 153.57 283.216 153.552 283.197C153.514 283.159 153.477 283.139 153.439 283.101C152.82 282.581 152.201 282.273 151.488 281.927C150.906 281.658 150.418 281.407 149.893 281.042C148.804 280.272 148.373 279.675 148.335 279.656C148.335 279.656 148.298 279.656 148.279 279.656C148.354 279.926 148.467 280.176 148.579 280.426C149.029 281.388 149.724 282.139 150.549 282.793C151.375 283.447 152.257 283.813 153.27 283.986C153.871 284.082 154.471 284.236 155.09 284.371L155.053 284.352ZM150.043 280.214C150.643 280.638 151.581 281.196 151.9 281.407C151.9 281.407 151.919 281.369 151.9 281.35C151.488 280.522 151.431 279.637 151.356 278.732C151.3 277.944 151.431 276.962 151.394 276.212C151.356 275.577 151.169 274.903 151.018 274.364C151 274.287 150.981 274.287 150.981 274.268L150.943 274.306C150.868 275.23 150.531 276.077 150.418 276.827C150.287 277.713 150.38 278.867 150.606 279.521C150.606 279.56 150.587 279.56 150.568 279.541C150.08 278.79 149.048 277.713 148.504 277.135C147.81 276.385 147.341 275.692 147.078 274.845C147.078 274.845 147.04 274.807 147.04 274.826C147.04 274.826 147.04 274.903 147.04 274.942C147.022 276.135 147.397 277.308 148.054 278.29C148.579 279.06 149.255 279.695 150.005 280.214H150.043ZM149.724 277.405C149.761 277.385 149.742 277.366 149.724 277.308C149.63 276.443 149.78 275.75 150.043 274.942C150.456 273.729 150.85 272.478 150.981 271.189C150.981 271.016 151.018 270.746 151.018 270.669C151.018 270.669 150.981 270.669 150.962 270.689C150.793 271.151 150.362 271.824 150.137 272.209C149.667 272.959 149.142 273.691 149.086 274.595C149.086 274.826 149.086 275.115 149.086 275.365C149.086 275.365 149.086 275.384 149.067 275.384C149.011 275.172 148.954 274.903 148.861 274.634C148.429 273.152 147.416 272.228 147.416 270.073C147.416 270.073 147.397 270.034 147.378 270.034C147.359 270.073 147.284 270.227 147.228 270.4C146.327 273.402 148.166 275.557 148.523 276C148.861 276.423 149.405 277.001 149.686 277.424L149.724 277.405ZM148.41 271.439C148.598 272.016 148.861 272.863 148.936 273.094C148.936 273.094 148.973 273.094 148.973 273.075C149.123 272.459 149.78 271.266 150.193 270.708C150.23 270.669 150.249 270.631 150.287 270.592C150.699 270.034 151.131 269.515 151.394 268.861C151.581 268.418 151.863 267.475 151.882 267.379C151.882 267.379 151.882 267.379 151.863 267.379C151.863 267.379 151.825 267.379 151.807 267.379C151.525 267.841 151.018 268.36 150.681 268.668C150.137 269.111 149.724 269.457 149.405 270.111C149.367 270.188 149.33 270.285 149.292 270.381C149.198 270.612 149.105 270.9 149.086 270.9C149.086 270.9 149.048 270.939 149.048 270.9C149.048 270.862 149.105 270.092 149.105 269.996C149.142 269.361 149.011 268.745 148.936 268.11C148.823 267.321 148.767 266.667 148.973 265.743C148.973 265.685 149.011 265.608 149.029 265.551C149.029 265.512 149.048 265.474 149.067 265.416C149.067 265.416 149.067 265.377 149.048 265.358C148.241 266.359 147.791 268.206 147.979 269.63C148.054 270.131 148.391 271.285 148.429 271.401L148.41 271.439ZM149.574 268.322C149.574 268.533 149.574 268.707 149.574 268.822H149.611C149.78 268.591 150.324 267.898 151.075 267.263C151.488 266.917 151.938 266.571 152.332 266.186C152.876 265.647 153.195 264.762 153.289 264.261C153.289 264.223 153.289 264.184 153.289 264.165C153.289 264.165 153.251 264.165 153.233 264.165C153.176 264.242 153.12 264.319 153.064 264.396C152.745 264.839 152.407 265.108 151.975 265.397C151.244 265.878 150.718 266.243 150.305 266.821C150.287 266.859 150.249 266.821 150.268 266.821C150.399 266.397 150.456 266.147 150.531 265.762C150.681 265.147 150.737 264.338 150.962 263.819C151.094 263.472 151.3 263.184 151.563 262.934C151.563 262.895 151.563 262.876 151.563 262.876C151.525 262.876 151.469 262.914 151.412 262.934C150.643 263.318 150.118 263.953 149.78 264.762C149.574 265.262 149.517 265.762 149.517 266.282C149.517 266.455 149.517 266.628 149.517 266.802C149.536 267.225 149.555 267.86 149.555 268.322H149.574ZM151.169 265.301C151.375 265.127 152.219 264.473 152.501 264.165C152.932 263.78 153.251 263.28 153.57 262.799C153.908 262.299 154.265 261.817 154.715 261.413C154.752 261.375 154.771 261.356 154.809 261.317C154.809 261.317 154.809 261.279 154.809 261.259C154.039 261.471 153.251 261.798 152.651 262.337C151.544 263.241 151.169 265.05 151.112 265.301H151.169ZM163.647 275.192C163.74 275.057 163.515 274.98 163.459 275.192C163.403 275.403 163.553 275.307 163.647 275.192ZM166.011 269.592C166.011 269.592 165.579 269.977 165.636 270.054C165.654 270.073 166.048 269.611 166.011 269.592ZM166.086 269.515C166.086 269.515 166.367 269.419 166.33 269.38C166.292 269.342 166.011 269.226 166.011 269.303C166.011 269.438 166.03 269.496 166.086 269.515ZM170.252 273.248C170.139 273.248 170.026 273.421 170.064 273.421C170.139 273.421 170.195 273.479 170.27 273.46C170.383 273.441 170.364 273.248 170.27 273.248H170.252ZM168.75 269.226C168.75 269.226 168.638 269.342 168.732 269.38C168.769 269.399 168.9 269.38 168.957 269.342C169.013 269.303 169.088 269.245 169.069 269.149C169.069 269.091 168.919 268.918 168.994 268.861C169.069 268.784 169.144 268.899 169.219 268.861C169.313 268.822 169.295 268.764 169.313 268.687C169.313 268.572 169.276 268.437 169.144 268.437C169.051 268.437 168.9 268.687 168.882 268.707C168.882 268.726 168.844 268.822 168.882 268.918C168.938 269.053 168.919 269.207 168.75 269.207V269.226ZM170.796 269.226C170.796 269.226 170.965 269.688 170.965 269.803C170.965 269.919 171.021 270.246 171.096 270.208C171.152 270.188 171.152 269.977 171.133 269.9C171.096 269.669 171.058 269.476 170.965 269.207C170.927 269.072 170.739 268.63 170.664 268.63C170.608 268.63 170.758 268.957 170.777 269.053C170.777 269.111 170.777 269.149 170.777 269.207L170.796 269.226ZM169.707 263.819C169.801 263.857 169.801 263.665 169.632 263.53C169.463 263.395 169.238 263.453 169.295 263.53C169.351 263.588 169.614 263.8 169.707 263.838V263.819ZM165.054 262.452C164.847 262.318 165.016 262.125 164.866 262.01C164.754 261.914 164.435 262.01 164.36 262.106C164.228 262.279 164.528 262.222 164.641 262.279C164.772 262.337 165.035 262.568 165.091 262.529C165.148 262.472 165.091 262.472 165.054 262.452ZM166.292 261.817C166.011 261.683 164.998 261.702 165.016 261.971C165.035 262.202 165.617 261.971 165.748 261.971C165.898 261.971 166.517 261.952 166.274 261.817H166.292ZM163.29 274.076C163.29 274.076 163.196 274.037 163.215 274.076C163.234 274.114 163.196 274.172 163.234 274.23C163.29 274.287 163.421 274.287 163.496 274.23C163.534 274.191 163.496 274.114 163.496 274.095C163.44 274.076 163.328 274.114 163.328 274.056L163.29 274.076ZM162.896 271.978C162.896 271.978 162.971 271.92 163.027 271.92C163.084 271.92 163.027 271.978 163.121 271.978C163.215 271.978 163.29 271.747 163.027 271.747C162.802 271.747 162.84 271.959 162.896 271.978ZM163.253 272.209C163.084 272.17 163.121 272.267 163.009 272.267C162.84 272.286 162.99 272.132 162.896 272.074C162.859 272.036 162.765 272.19 162.746 272.286C162.746 272.324 162.746 272.478 162.821 272.498C162.896 272.498 163.271 272.555 163.403 272.575C163.553 272.613 163.403 272.247 163.234 272.209H163.253ZM161.357 274.306C161.357 274.306 161.451 274.114 161.414 274.018C161.376 273.922 161.207 273.999 161.189 274.037C161.189 274.076 161.301 274.306 161.339 274.306H161.357ZM158.862 274.306C158.862 274.306 158.862 273.979 158.805 273.941C158.749 273.902 158.749 273.979 158.712 273.979C158.674 273.979 158.674 273.864 158.637 273.864C158.599 273.864 158.637 274.056 158.693 274.172C158.73 274.287 158.843 274.46 158.843 274.326L158.862 274.306ZM158.805 273.729C158.805 273.729 158.899 273.306 158.899 273.152C158.899 272.998 158.805 272.863 158.787 272.863C158.768 272.863 158.787 272.959 158.787 273.113C158.787 273.325 158.693 273.517 158.693 273.594C158.693 273.671 158.749 273.825 158.805 273.729ZM152.163 272.324C152.163 269.091 153.383 266.051 155.616 263.761C157.849 261.471 160.813 260.22 163.966 260.22C167.118 260.22 170.083 261.471 172.316 263.761C174.548 266.051 175.768 269.091 175.768 272.324C175.768 275.557 174.548 278.598 172.316 280.888C170.083 283.178 167.118 284.429 163.966 284.429C160.813 284.429 157.849 283.178 155.616 280.888C153.383 278.598 152.163 275.557 152.163 272.324ZM155.803 280.33L157.079 279.021C156.835 278.752 156.591 278.463 156.366 278.155C156.272 278.117 156.16 278.059 156.103 277.963C155.991 277.828 155.935 277.616 155.878 277.616C155.822 277.616 155.878 277.751 155.766 277.77C155.616 277.79 155.39 277.385 155.297 277.251C155.184 277.078 155.015 277.078 154.94 276.904C154.921 276.866 154.865 276.712 154.809 276.808C154.715 276.962 154.415 276.5 154.34 276.519C154.265 276.558 154.34 276.654 154.283 276.693C154.19 276.77 153.946 276.346 153.852 276.385C153.758 276.423 153.739 276.481 153.739 276.596C153.739 276.712 153.871 277.02 153.833 277.039C153.758 277.078 153.401 276.115 153.477 276.077C153.514 276.058 153.514 276.115 153.57 276.077C153.627 276.038 153.533 275.981 153.514 275.865C153.495 275.75 153.401 275.75 153.383 275.634C153.383 275.519 153.533 275.557 153.533 275.5C153.533 275.442 153.533 275.384 153.589 275.326C153.645 275.269 153.777 275.326 153.796 275.153C153.814 275.018 153.889 275.153 153.908 275.249C153.908 275.365 154.227 275.403 154.246 275.326C154.246 275.269 154.114 275.269 154.114 275.23C154.114 275.134 154.283 275.23 154.396 275.23C154.452 275.23 154.546 275.153 154.659 275.23C154.79 275.288 154.865 275.326 154.94 275.346C154.659 274.48 154.49 273.537 154.471 272.575H152.67C152.726 275.48 153.833 278.232 155.803 280.33ZM163.253 269.592C163.253 269.592 163.14 269.727 163.065 269.861C163.271 269.784 163.496 269.727 163.722 269.707V267.841C162.708 267.898 161.789 268.322 161.076 268.976L162.352 270.285C162.502 270.169 162.652 270.054 162.84 269.957C162.877 269.938 162.934 269.919 162.971 269.9C163.065 269.746 163.253 269.573 163.271 269.592H163.253ZM158.787 276.519C158.787 276.519 158.787 276.596 158.787 276.635C158.881 276.75 158.974 276.866 159.068 276.981L160.344 275.673C159.744 274.98 159.312 274.133 159.162 273.19C159.124 273.19 159.087 273.19 159.068 273.152C159.049 273.113 159.068 273.056 159.143 273.017C159.143 272.882 159.106 272.729 159.106 272.594H158.261C158.261 272.729 158.318 272.94 158.243 272.998C158.168 273.056 158.074 272.998 157.999 272.998C157.83 273.017 157.792 273.229 157.849 273.364C157.886 273.46 157.924 273.537 157.905 273.633C157.905 273.729 157.849 273.806 157.98 273.883C158.111 273.96 158.318 274.23 158.318 274.287C158.299 274.345 158.168 274.23 158.149 274.345C158.149 274.422 158.336 274.326 158.336 274.557C158.336 274.691 158.355 274.845 158.393 274.942C158.468 275.134 158.562 275.269 158.562 275.48C158.562 275.654 158.524 275.865 158.599 276.038C158.674 276.212 158.824 276.346 158.824 276.558L158.787 276.519ZM157.717 273.402C157.605 273.287 157.792 272.921 157.811 272.863C157.83 272.786 157.999 272.69 158.036 272.594H157.286C157.286 272.998 157.342 273.402 157.436 273.787C157.623 273.864 157.961 273.71 157.717 273.402ZM157.248 278.405C157.323 278.482 157.379 278.559 157.454 278.636L157.605 278.482C157.473 278.386 157.342 278.348 157.267 278.386L157.248 278.405ZM160.344 268.976L159.068 267.667C158.017 268.822 157.361 270.362 157.286 272.055H158.186C158.336 271.805 158.28 271.612 158.336 271.478C158.393 271.343 158.468 271.208 158.543 271.093C158.618 270.977 158.693 270.862 158.824 270.862C159.124 270.862 159.181 270.708 159.368 270.612C159.556 270.516 159.875 270.477 159.838 270.381C159.819 270.323 159.162 270.573 159.143 270.516C159.124 270.419 159.35 270.439 159.443 270.342C159.462 270.342 159.481 270.304 159.5 270.304C159.706 269.803 159.988 269.361 160.344 268.957V268.976ZM160.119 270.208C160.119 270.208 160.156 270.208 160.175 270.188C160.4 270.054 160.682 270.092 160.813 270.131C160.963 270.208 161.17 270.381 161.264 270.458C161.301 270.496 161.32 270.439 161.507 270.4C161.583 270.4 161.601 270.477 161.714 270.477C161.751 270.477 161.789 270.477 161.826 270.477L160.719 269.342C160.494 269.611 160.288 269.9 160.138 270.208H160.119ZM158.862 271.612C158.712 271.612 158.58 271.651 158.505 271.786C158.449 271.882 158.43 271.978 158.449 272.055H159.087C159.087 271.92 159.087 271.805 159.124 271.689C159.049 271.651 158.937 271.612 158.862 271.612ZM160.701 275.288L161.977 273.979C161.864 273.845 161.789 273.71 161.695 273.556C161.676 273.575 161.658 273.594 161.639 273.633C161.62 273.691 161.639 273.883 161.564 273.979C161.47 274.095 161.189 273.748 161.095 273.71C160.982 273.671 160.926 273.806 160.926 273.845C160.926 273.941 160.926 273.979 160.888 273.999C160.851 273.999 160.626 273.864 160.719 273.825C160.832 273.787 160.682 273.691 160.644 273.652C160.569 273.594 160.438 273.652 160.363 273.556C160.307 273.46 160.175 273.402 160.138 273.383C160.119 273.383 159.988 273.325 159.913 273.383C159.856 273.421 159.781 273.344 159.725 273.306C159.706 273.287 159.669 273.248 159.65 273.21C159.8 274.018 160.156 274.749 160.682 275.326L160.701 275.288ZM161.977 273.017C161.977 273.017 161.977 272.998 161.977 272.979C161.977 272.979 161.977 272.979 161.977 272.959C161.977 272.959 161.977 272.94 161.977 272.921C161.977 272.921 161.977 272.902 161.977 272.882C161.977 272.882 161.977 272.882 161.977 272.863C161.977 272.863 161.977 272.863 161.977 272.844C161.977 272.825 162.014 272.825 162.033 272.825C162.07 272.825 162.127 272.863 162.183 272.863C162.221 272.863 162.258 272.863 162.296 272.805C162.296 272.786 162.333 272.767 162.333 272.748C162.333 272.729 162.333 272.709 162.333 272.69C162.333 272.69 162.333 272.69 162.333 272.671C162.333 272.652 162.296 272.652 162.239 272.671C162.239 272.671 162.221 272.671 162.202 272.671C162.183 272.671 162.164 272.671 162.145 272.671C162.145 272.671 162.127 272.671 162.108 272.671C162.07 272.671 162.052 272.671 162.033 272.632C162.033 272.632 162.033 272.632 162.033 272.594C162.033 272.594 162.033 272.575 162.014 272.555C161.977 272.517 161.939 272.478 161.883 272.459C161.864 272.459 161.826 272.421 161.808 272.401C161.808 272.401 161.789 272.382 161.77 272.363C161.77 272.363 161.77 272.344 161.751 272.324C161.751 272.324 161.751 272.324 161.733 272.324C161.733 272.324 161.733 272.324 161.714 272.324C161.658 272.324 161.583 272.324 161.526 272.382C161.526 272.382 161.507 272.401 161.489 272.421C161.489 272.421 161.47 272.44 161.451 272.459C161.451 272.459 161.432 272.498 161.414 272.517C161.395 272.555 161.376 272.594 161.357 272.652C161.207 273.036 161.038 272.921 161.076 273.056C161.076 273.056 161.113 273.075 161.189 273.094C161.207 273.094 161.245 273.094 161.264 273.094C161.282 273.094 161.32 273.094 161.357 273.094C161.395 273.094 161.414 273.094 161.451 273.094H161.489C161.489 273.094 161.489 273.094 161.507 273.094C161.507 273.094 161.507 273.094 161.526 273.094C161.526 273.094 161.526 273.094 161.545 273.094C161.545 273.094 161.545 273.094 161.564 273.094C161.564 273.094 161.583 273.094 161.601 273.094C161.62 273.094 161.639 273.094 161.658 273.075C161.676 273.075 161.695 273.075 161.714 273.075C161.751 273.075 161.789 273.075 161.808 273.075C161.826 273.075 161.864 273.094 161.902 273.152C161.92 273.19 161.958 273.248 161.958 273.306L161.977 273.017ZM163.703 267.321V265.474C162.052 265.531 160.551 266.224 159.425 267.302L160.701 268.61C161.507 267.86 162.558 267.398 163.703 267.321ZM163.703 264.954V263.107C161.414 263.164 159.331 264.127 157.792 265.628L159.068 266.936C160.288 265.762 161.92 265.031 163.703 264.954ZM157.436 265.993C155.972 267.59 155.034 269.727 154.978 272.055H156.779C156.835 270.227 157.567 268.553 158.712 267.302L157.436 265.993ZM154.978 272.575C154.996 273.537 155.165 274.46 155.466 275.326C155.466 275.326 155.484 275.326 155.503 275.326C155.691 275.326 155.935 275.326 156.047 275.23C156.216 275.095 156.047 274.595 156.179 274.383C156.31 274.133 156.666 273.517 156.76 273.498C156.854 273.498 156.854 273.556 156.892 273.575C156.835 273.248 156.798 272.921 156.798 272.575H154.996H154.978ZM163.703 282.042C161.282 281.985 159.068 280.965 157.436 279.368L156.16 280.676C158.205 282.697 160.87 283.813 163.722 283.89V282.042H163.703ZM163.703 279.675C162.108 279.618 160.588 279.021 159.368 277.982C159.387 278.02 159.425 278.059 159.443 278.078C159.519 278.232 159.819 278.521 159.631 278.636C159.481 278.732 159.218 278.675 159.087 278.675C158.937 278.675 158.712 278.906 158.562 278.944C158.393 278.983 158.299 278.944 158.13 278.886C158.092 278.886 158.036 278.829 157.98 278.79L157.773 279.002C159.331 280.503 161.414 281.465 163.684 281.523V279.675H163.703ZM163.703 279.021C163.44 279.04 163.065 279.021 162.971 278.963C162.783 278.829 162.558 278.694 162.521 278.598C162.483 278.405 162.221 278.271 162.221 278.097C162.221 277.905 162.483 277.847 162.408 277.655C162.352 277.501 162.502 277.308 162.765 277.174C161.977 276.981 161.264 276.577 160.663 276.038L159.387 277.347C160.569 278.463 162.07 279.098 163.684 279.175V279.04L163.703 279.021ZM164.097 276.539C164.285 276.5 164.491 276.443 164.66 276.423C164.847 276.404 164.66 276.673 164.772 276.693C164.904 276.693 165.467 276.808 165.504 276.693C165.542 276.577 165.542 276.539 165.654 276.519C165.879 276.462 166.048 276.481 166.255 276.327C166.33 276.269 166.461 276.25 166.499 276.173C166.536 276.096 166.461 275.711 166.33 275.769C166.255 275.807 166.18 275.904 166.048 275.961C165.917 276.019 165.823 276.058 165.729 275.923C165.654 275.807 165.786 275.711 165.842 275.634C165.955 275.519 166.048 275.403 166.161 275.403C166.198 275.403 166.442 275.288 166.424 275.172C166.405 275.018 166.105 275.172 166.048 275.134C166.011 275.095 166.048 274.98 166.011 274.961C165.973 274.961 165.88 275.095 165.955 275.172C165.992 275.211 165.88 275.326 165.767 275.249C165.673 275.192 165.654 275.538 165.654 275.596C165.654 275.654 165.786 275.634 165.711 275.75C165.617 275.865 165.598 275.788 165.523 275.846C165.448 275.923 165.429 275.942 165.523 276.038C165.598 276.115 165.485 276.269 165.448 276.135C165.448 276.038 165.242 276.077 165.204 275.961C165.166 275.846 165.016 275.865 164.81 275.769C164.66 275.692 164.679 275.923 164.923 275.981C165.129 276.038 165.129 276.058 165.054 276.192C164.998 276.308 165.016 276.115 164.772 276.038C164.604 276 164.604 275.904 164.472 275.904C164.341 275.904 164.378 276.019 164.247 276C164.153 275.981 164.134 276.115 164.041 276.154C163.928 276.212 163.928 276.423 163.815 276.481C163.647 276.577 163.29 276.5 163.309 276.327C163.309 276.154 163.328 276.019 163.44 275.961C163.534 275.904 163.665 276.058 163.797 276C163.928 275.942 163.891 275.807 163.797 275.711C163.778 275.673 163.684 275.634 163.684 275.596C163.684 275.557 163.872 275.538 163.966 275.48C164.059 275.423 164.153 275.249 164.21 275.211C164.266 275.172 164.36 275.153 164.36 275.115C164.36 275.076 164.285 274.98 164.303 274.922C164.322 274.865 164.322 274.826 164.378 274.826C164.416 274.826 164.472 274.961 164.453 274.999C164.416 275.038 164.472 275.095 164.528 275.076C164.585 275.057 164.81 274.961 164.866 274.942C164.941 274.922 164.847 274.73 164.866 274.691C164.885 274.653 164.923 274.691 164.941 274.672C164.979 274.634 164.866 274.614 164.885 274.537C164.885 274.48 165.11 274.422 165.054 274.383C164.998 274.345 164.904 274.46 164.866 274.48C164.754 274.537 164.697 274.403 164.697 274.306C164.697 274.268 164.754 274.095 164.697 274.076C164.622 274.037 164.604 274.23 164.604 274.268C164.604 274.326 164.547 274.403 164.604 274.557C164.641 274.634 164.622 274.922 164.547 274.961C164.453 274.999 164.416 274.826 164.378 274.749C164.378 274.749 164.378 274.73 164.36 274.73C164.36 274.73 164.36 274.768 164.341 274.768C164.341 274.768 164.322 274.807 164.303 274.865C164.303 274.903 164.266 274.922 164.247 274.922C164.153 274.922 164.059 274.922 163.966 274.922C163.928 274.922 163.891 274.922 163.853 274.922C163.853 274.98 163.891 275.038 163.909 275.076C163.966 275.172 164.059 275.249 164.041 275.326C164.041 275.403 163.74 275.461 163.703 275.403C163.665 275.346 163.778 275.211 163.759 275.153C163.759 275.038 163.684 274.98 163.703 274.903C163.196 274.845 162.708 274.634 162.333 274.326L161.057 275.634C161.695 276.212 162.483 276.596 163.365 276.731C163.496 276.654 163.534 276.519 163.647 276.596C163.797 276.712 163.984 276.558 164.116 276.539H164.097ZM164.21 279.656V281.504C164.941 281.484 165.654 281.369 166.33 281.176C166.18 281.061 166.123 280.849 165.955 280.792C165.654 280.676 165.579 280.503 165.729 280.214C165.823 280.06 165.786 280.003 165.673 279.849C165.542 279.656 165.392 279.56 165.26 279.521C164.904 279.579 164.547 279.637 164.191 279.637L164.21 279.656ZM165.073 279.04C165.073 279.04 164.885 278.963 164.81 279.002C164.51 279.079 164.622 278.848 164.21 278.906V279.137C164.51 279.137 164.791 279.098 165.073 279.04ZM171.771 280.657L170.495 279.348C169.839 279.983 169.088 280.541 168.263 280.965C168 281.176 167.662 281.33 167.418 281.446C167.306 281.504 167.193 281.561 167.08 281.561C167.043 281.561 167.005 281.561 166.968 281.523C166.105 281.831 165.166 281.985 164.21 282.023V283.871C167.043 283.813 169.726 282.677 171.771 280.657ZM169.238 267.263C169.238 267.263 169.238 267.263 169.238 267.283C169.538 267.61 169.801 267.975 170.045 268.36C170.064 268.322 170.101 268.283 170.139 268.341C170.195 268.418 170.064 268.553 170.27 268.514C170.383 268.495 170.364 268.649 170.27 268.726C170.327 268.841 170.383 268.938 170.439 269.053C170.514 269.091 170.552 269.13 170.57 269.168C170.608 269.303 170.664 269.438 170.664 269.592C170.758 269.823 170.833 270.073 170.908 270.304C171.002 270.227 171.115 270.265 171.115 270.4C171.115 270.535 171.077 270.689 171.021 270.804C171.096 271.208 171.152 271.612 171.171 272.036H172.972C172.935 270.843 172.672 269.65 172.203 268.553C172.165 268.591 172.128 268.591 172.053 268.668C171.959 268.784 171.809 268.63 171.734 268.533C171.584 268.341 171.227 267.802 171.058 267.783C170.927 267.764 170.833 267.59 170.683 267.552C170.552 267.514 170.364 267.437 170.345 267.283C170.327 267.129 170.27 267.071 170.101 267.032C169.933 267.013 169.801 266.936 169.67 266.802L169.238 267.244C169.238 267.244 169.238 267.244 169.238 267.263ZM170.383 278.521L170.477 278.617C171.94 277.02 172.878 274.903 172.935 272.555H171.133C171.077 274.383 170.345 276.058 169.201 277.308L169.857 277.982C169.857 277.982 169.857 277.982 169.857 277.963C169.914 277.847 169.895 277.693 169.895 277.578C169.895 277.501 170.158 277.52 170.158 277.636C170.158 277.732 170.214 277.809 170.308 278.04C170.364 278.213 170.402 278.367 170.364 278.502L170.383 278.521ZM169.013 279.675C168.957 279.791 168.732 280.003 168.769 280.08C169.257 279.752 169.707 279.406 170.139 278.983L168.863 277.674C168.863 277.674 168.675 277.847 168.582 277.924C168.563 278.078 168.582 278.194 168.75 278.251C168.938 278.309 169.276 278.521 169.201 278.713C169.126 278.886 168.938 279.156 168.844 279.329C168.769 279.483 169.069 279.541 169.013 279.675ZM169.313 272.016C169.313 272.016 169.313 272.016 169.313 272.036H170.646C170.646 271.843 170.627 271.651 170.608 271.458C170.608 271.478 170.589 271.497 170.57 271.516C170.477 271.728 170.458 271.593 170.458 271.516C170.458 271.401 170.514 271.285 170.552 271.17C170.552 271.112 170.533 271.035 170.514 270.977C170.477 271.035 170.42 271.074 170.327 271.131C170.27 271.17 170.214 271.304 170.195 271.362C170.176 271.42 170.026 271.362 169.895 271.401C169.689 271.497 169.463 271.516 169.614 271.747C169.707 271.882 169.37 271.843 169.313 272.036V272.016ZM168.844 267.648L167.568 268.957C167.793 269.207 167.981 269.476 168.15 269.765C168.3 269.784 168.506 269.842 168.638 270.034C168.732 270.15 168.994 270.4 168.957 270.516C168.938 270.592 168.994 270.669 169.051 270.708C169.144 270.785 169.219 270.766 169.257 270.708C169.351 270.592 169.37 270.419 169.482 270.304C169.632 270.169 169.951 270.554 169.951 270.612C169.951 270.689 169.876 270.689 169.839 270.823C169.801 270.997 169.67 271.189 169.839 271.247C170.064 271.324 170.101 271.247 170.214 271.074C170.27 270.997 170.252 270.881 170.308 270.804C170.345 270.766 170.402 270.727 170.439 270.708C170.345 270.342 170.233 269.977 170.101 269.65C170.064 269.611 170.026 269.592 169.97 269.573C169.895 269.553 169.933 269.476 169.82 269.438C169.689 269.399 169.651 269.361 169.632 269.13C169.632 268.957 169.782 269.188 169.82 269.149C169.82 269.149 169.82 269.149 169.839 269.111C169.557 268.572 169.219 268.091 168.825 267.648H168.844ZM167.287 269.419C167.287 269.419 167.174 269.419 167.137 269.38L166.724 269.803C166.724 269.803 166.893 269.803 166.987 269.842C167.099 269.9 167.043 269.515 167.212 269.553C167.381 269.592 167.437 269.707 167.287 269.765C167.174 269.803 167.324 269.9 167.174 269.957C167.043 269.996 167.287 270.111 167.268 270.169C167.268 270.246 167.099 270.265 167.343 270.342C167.606 270.419 167.343 270.111 167.381 270.073C167.437 270.015 167.568 270.15 167.606 270.092C167.606 270.073 167.643 270.034 167.681 269.996C167.568 269.784 167.418 269.592 167.268 269.399L167.287 269.419ZM166.63 276.289C166.63 276.289 166.536 276.289 166.517 276.346C166.499 276.385 167.231 276.731 167.343 276.75C167.418 276.75 167.568 276.827 167.831 276.75C168.019 276.712 168.056 276.808 168.15 276.789C168.263 276.789 168.338 276.616 168.413 276.519C168.6 276.25 168.563 276.212 168.6 276.173C168.657 276.115 168.844 276.539 168.825 276.789C168.825 276.827 168.825 276.866 168.825 276.904H168.844C169.895 275.769 170.552 274.23 170.627 272.536H169.257C169.257 272.536 169.388 272.729 169.463 272.902C169.538 273.056 169.576 273.287 169.689 273.287C169.876 273.287 170.064 273.46 170.083 273.594C170.083 273.883 169.238 273.941 169.126 273.902C169.032 273.864 168.976 273.864 168.957 274.018C168.957 274.191 168.657 274.191 168.525 274.287C168.394 274.403 168.375 274.614 168.281 274.749C168.225 274.845 167.906 275.134 167.831 275.211C167.625 275.365 167.249 275.365 167.418 275.461C167.549 275.538 167.831 275.557 167.793 275.48C167.756 275.403 167.812 275.403 167.868 275.461C167.906 275.5 168.037 275.423 168.037 275.326C168.037 275.249 168.019 275.115 168.094 275.095C168.225 275.095 168.338 274.942 168.413 274.961C168.488 274.961 168.582 275.134 168.506 275.615C168.431 276.096 168.206 276.423 168.131 276.577C168.037 276.731 167.944 276.616 167.812 276.539C167.643 276.462 167.399 276.462 167.231 276.404C167.137 276.366 166.63 276.173 166.649 276.25L166.63 276.289ZM175.243 272.536H173.441C173.385 275.018 172.391 277.289 170.833 278.963L172.109 280.272C174.079 278.174 175.168 275.442 175.243 272.517V272.536ZM172.109 264.261L170.777 265.628C170.908 265.839 171.133 266.128 171.452 266.455C171.584 266.59 171.734 266.725 171.846 266.859C171.959 266.975 172.691 267.898 172.541 268.052C172.541 268.052 172.522 268.072 172.503 268.072C173.066 269.303 173.385 270.65 173.423 271.997H175.224C175.168 269.091 174.061 266.34 172.09 264.242L172.109 264.261ZM164.191 262.549C165.692 262.587 167.155 262.991 168.45 263.703C168.563 263.684 168.694 263.665 168.769 263.626C168.938 263.549 169.238 263.723 169.407 263.819C169.538 263.896 169.651 264.03 169.801 264.107C169.951 264.204 170.214 264.454 170.27 264.723C170.327 264.993 170.495 264.973 170.402 265.07C170.364 265.127 170.42 265.147 170.495 265.185L171.753 263.896C169.707 261.875 167.043 260.759 164.191 260.682V262.529V262.549ZM164.191 264.916C165.729 264.973 167.137 265.512 168.281 266.417C168.15 266.243 168.019 266.051 167.962 265.993C167.85 265.878 167.437 265.724 167.474 265.647C167.512 265.57 167.887 265.878 167.944 265.82C168.019 265.762 167.756 265.416 167.775 265.397C167.793 265.397 168.112 265.685 168.263 265.955C168.319 266.051 168.488 265.993 168.619 266.089C168.732 266.166 168.75 266.301 168.844 266.397C168.844 266.397 169.069 266.532 168.938 266.513C168.9 266.513 168.844 266.436 168.807 266.474C168.788 266.494 168.807 266.628 168.9 266.763L169.501 266.147C169.407 265.974 169.238 265.724 169.126 265.705C168.994 265.666 168.919 265.782 168.844 265.859C168.75 265.936 168.657 265.955 168.638 265.897C168.638 265.839 168.638 265.705 168.638 265.647C168.638 265.57 168.582 265.512 168.563 265.454C168.525 265.301 168.582 265.108 168.488 265.012C168.375 264.896 168.319 264.723 168.225 264.588C168.131 264.435 167.981 264.223 167.962 264.03C166.799 263.434 165.504 263.088 164.153 263.049V264.896L164.191 264.916ZM164.191 267.283C165.335 267.34 166.386 267.821 167.193 268.572L168.469 267.263C167.343 266.186 165.842 265.512 164.191 265.435V267.283ZM164.191 269.65C164.36 269.65 164.528 269.707 164.697 269.746C164.735 269.63 164.847 269.592 164.941 269.515C165.054 269.438 165.129 269.361 165.11 269.553C165.11 269.688 165.035 269.784 164.979 269.842C165.148 269.919 165.317 270.015 165.485 270.131C165.523 270.15 165.561 270.188 165.579 270.208L165.748 270.034C165.748 270.034 165.748 270.034 165.748 270.015C165.748 269.919 165.898 269.784 166.067 269.727L166.63 269.149C166.63 269.149 166.611 269.149 166.593 269.149C166.517 269.149 166.405 269.303 166.33 269.265C166.255 269.207 166.574 268.918 166.724 268.976C166.743 268.976 166.761 268.976 166.78 268.995L166.855 268.918C166.142 268.264 165.223 267.841 164.21 267.783V269.63L164.191 269.65ZM163.947 270.15C163.74 270.15 163.534 270.188 163.328 270.246C163.309 270.285 163.29 270.304 163.29 270.323C163.346 270.4 163.496 270.246 163.515 270.381C163.515 270.477 163.346 270.4 163.365 270.477C163.365 270.535 163.496 270.516 163.515 270.592C163.515 270.669 163.44 270.823 163.384 270.862C163.309 270.92 162.877 270.977 162.821 271.074C162.783 271.17 162.746 271.247 162.671 271.324C162.596 271.401 162.258 271.612 162.258 271.67C162.258 271.805 162.427 271.632 162.464 271.593C162.54 271.516 162.633 271.516 162.746 271.439C162.896 271.343 162.952 271.67 162.802 271.67C162.708 271.67 162.615 271.978 162.446 271.92C162.408 271.92 162.296 271.824 162.258 271.92C162.239 271.997 162.502 272.016 162.577 272.074C162.783 272.209 162.408 272.209 162.352 272.247C162.296 272.286 162.314 272.363 162.408 272.344C162.483 272.305 162.596 272.228 162.633 272.344C162.69 272.536 162.333 273.19 162.239 273.133C162.183 273.094 162.127 273.133 162.07 273.171C162.145 273.325 162.239 273.46 162.333 273.594C162.408 273.479 162.521 273.306 162.558 273.306C162.633 273.306 162.596 273.248 162.633 273.21C162.671 273.152 162.746 273.21 162.746 273.133C162.746 273.056 162.952 272.94 162.971 272.825C162.971 272.767 162.915 272.69 162.934 272.652C162.971 272.594 162.99 272.575 163.046 272.555C163.084 272.555 163.177 272.632 163.215 272.594C163.253 272.555 163.384 272.594 163.496 272.652C163.553 272.69 163.647 272.652 163.703 272.729C163.778 272.844 163.703 272.863 163.703 272.882C163.703 272.902 163.759 272.882 163.778 272.882C163.815 272.921 163.572 273.075 163.59 273.171C163.628 273.248 163.365 273.671 163.309 273.729C163.215 273.806 163.065 273.729 163.009 273.729C162.952 273.729 162.934 273.806 162.84 273.787C162.765 273.787 162.671 273.787 162.577 273.845C162.934 274.172 163.421 274.364 163.928 274.364C164.041 274.364 164.153 274.364 164.247 274.345C164.322 274.249 164.341 274.153 164.36 274.037C164.36 273.979 164.36 273.902 164.397 273.845C164.416 273.806 164.585 273.594 164.66 273.594C164.716 273.594 164.754 273.652 164.847 273.614C165.016 273.556 165.11 273.614 165.11 273.671C165.11 273.768 164.904 273.748 164.904 273.806C164.904 273.845 165.054 273.902 165.11 273.845C165.204 273.729 165.185 273.594 165.166 273.556C165.091 273.479 165.11 273.441 165.204 273.46C165.26 273.479 165.26 273.248 165.317 273.152C165.392 273.036 165.185 273.113 165.091 273.133C164.998 273.133 164.941 272.959 164.941 272.902C164.941 272.863 165.11 273.075 165.185 273.075C165.279 273.075 165.392 272.979 165.392 272.882C165.392 272.805 165.223 272.786 165.185 272.69C165.185 272.632 165.335 272.69 165.317 272.632C165.317 272.594 165.317 272.478 165.223 272.421C165.129 272.382 165.035 272.055 164.941 272.016C164.866 271.997 164.81 272.093 164.772 272.132C164.735 272.17 164.66 272.113 164.697 272.074C164.754 272.016 164.866 271.92 164.885 271.843C164.923 271.709 165.11 271.843 165.073 271.651C165.035 271.439 164.866 271.478 164.941 271.381C165.016 271.285 164.96 271.112 164.791 271.151C164.716 271.151 164.622 271.035 164.622 270.92C164.622 270.862 164.435 270.862 164.453 270.804C164.453 270.669 164.266 270.65 164.153 270.669C164.041 270.669 163.797 270.496 163.778 270.439C163.759 270.4 163.59 270.477 163.647 270.304C163.703 270.131 163.872 270.342 163.928 270.304C164.003 270.246 163.984 270.188 163.966 270.15C163.966 270.15 163.947 270.15 163.928 270.15H163.947ZM156.122 263.973L157.398 265.281C159.049 263.684 161.245 262.683 163.665 262.606V260.759C160.832 260.817 158.149 261.952 156.103 263.973H156.122ZM152.632 272.093H154.433C154.49 269.611 155.484 267.34 157.042 265.666L155.766 264.358C153.796 266.455 152.707 269.188 152.632 272.113V272.093Z" fill="#009BD9"/>
</g>
<defs>
<clipPath id="clip0_778_277">
<rect width="252" height="29" fill="white" transform="translate(147.004 260.239)"/>
</clipPath>
</defs>
</svg>
