<svg width="122" height="122" viewBox="0 0 122 122" fill="none" xmlns="http://www.w3.org/2000/svg">
<path d="M113.262 0.474121H8.26172C3.84344 0.474121 0.261719 4.05584 0.261719 8.47412V113.474C0.261719 117.892 3.84344 121.474 8.26172 121.474H113.262C117.68 121.474 121.262 117.892 121.262 113.474V8.47412C121.262 4.05584 117.68 0.474121 113.262 0.474121Z" fill="#E2071F"/>
<path d="M11.7043 16.0219C11.4912 16.1327 10.8601 16.3699 9.8191 16.7337C8.99123 17.0026 8.47483 17.1766 8.26172 17.2716V14.005C8.92565 13.7598 9.73713 13.3802 10.6879 12.8661C11.6388 12.352 12.3109 11.8933 12.7043 11.4741H16.2617V34.4741H11.7043V16.0219Z" fill="white"/>
<path d="M25.279 11.4741H26.4945L28.8221 16.6054V11.4741H30.2617V20.4741H29.0979L26.7531 15.1V20.4741H25.2617V11.4741H25.279Z" fill="white"/>
<path d="M31.8389 19.7471C31.4567 19.2572 31.2617 18.5461 31.2617 17.6058V14.3108C31.2617 13.3784 31.4567 12.6752 31.8389 12.1932C32.2212 11.7191 32.8686 11.4741 33.7656 11.4741C34.6627 11.4741 35.2945 11.7111 35.6845 12.1932C36.0667 12.6673 36.2617 13.3784 36.2617 14.3108V17.6058C36.2617 18.5382 36.0667 19.2494 35.6767 19.7393C35.2867 20.2292 34.6471 20.4741 33.7656 20.4741C32.8842 20.4741 32.2212 20.2292 31.8389 19.7393V19.7471ZM34.4754 18.957C34.6003 18.7357 34.6549 18.4039 34.6549 17.9772V13.9315C34.6549 13.5048 34.5925 13.1809 34.4754 12.9675C34.3584 12.7542 34.1166 12.6436 33.7656 12.6436C33.4146 12.6436 33.1728 12.7542 33.048 12.9755C32.9232 13.1967 32.8686 13.5127 32.8686 13.9315V17.9772C32.8686 18.4039 32.931 18.7278 33.048 18.957C33.1728 19.1782 33.4068 19.2968 33.7656 19.2968C34.1244 19.2968 34.3506 19.1861 34.4754 18.957Z" fill="white"/>
<path d="M25.2617 26.4741H27.9377C29.4843 26.4741 30.2617 27.324 30.2617 29.0317C30.2617 30.7394 29.4516 31.4759 27.8231 31.4759H26.9147V35.4741H25.2617V26.4741ZM27.553 30.3185C28.0031 30.3185 28.3059 30.2214 28.4614 30.0353C28.6169 29.8491 28.6987 29.5092 28.6987 29.0155C28.6987 28.6594 28.6742 28.3842 28.6169 28.198C28.5678 28.0119 28.4614 27.8662 28.2977 27.7691C28.1341 27.672 27.8886 27.6234 27.553 27.6234H26.9147V30.3104H27.553V30.3185Z" fill="white"/>
<path d="M31.8389 34.7472C31.4567 34.2573 31.2617 33.5461 31.2617 32.6058V29.3108C31.2617 28.3784 31.4567 27.6752 31.8389 27.1932C32.2212 26.7191 32.8686 26.4741 33.7656 26.4741C34.6627 26.4741 35.2945 26.7112 35.6845 27.1932C36.0667 27.6673 36.2617 28.3784 36.2617 29.3108V32.6058C36.2617 33.5382 36.0667 34.2494 35.6767 34.7393C35.2867 35.2292 34.6471 35.4741 33.7656 35.4741C32.8842 35.4741 32.2212 35.2292 31.8389 34.7393V34.7472ZM34.4754 33.957C34.6003 33.7358 34.6549 33.4039 34.6549 32.9772V28.9316C34.6549 28.5049 34.5925 28.1809 34.4754 27.9675C34.3584 27.7542 34.1166 27.6436 33.7656 27.6436C33.4146 27.6436 33.1728 27.7542 33.048 27.9755C32.9232 28.1967 32.8686 28.5128 32.8686 28.9316V32.9772C32.8686 33.4039 32.931 33.7279 33.048 33.957C33.1728 34.1783 33.4068 34.2968 33.7656 34.2968C34.1244 34.2968 34.3506 34.1862 34.4754 33.957Z" fill="white"/>
<path d="M37.2617 26.4741H38.6373L39.7733 32.8357L40.8475 26.4741H42.2617L40.5307 35.4741H38.9928L37.2617 26.4741Z" fill="white"/>
<path d="M43.2617 26.4741H46.2426V27.6315H44.5511V30.2214H45.8851V31.3626H44.5511V34.3492H46.2617V35.4741H43.2681V26.4741H43.2617Z" fill="white"/>
<path d="M47.2617 26.4741H49.3753C50.298 26.4741 50.992 26.6521 51.4415 27.0159C51.8989 27.3717 52.1198 27.9944 52.1198 28.8677C52.1198 29.4337 52.0409 29.9027 51.8753 30.2585C51.7097 30.6143 51.4336 30.8811 51.0393 31.0429L52.2617 35.4741H50.6608L49.6119 31.3582H48.8548V35.4741H47.2617V26.4822V26.4741ZM49.3595 30.3232C49.8169 30.3232 50.1403 30.2181 50.3295 29.9998C50.5188 29.7814 50.6135 29.4337 50.6135 28.9485C50.6135 28.4633 50.5267 28.1318 50.3611 27.9135C50.1876 27.6952 49.8879 27.59 49.4463 27.59H48.8548V30.3232H49.3674H49.3595Z" fill="white"/>
<path d="M54.56 27.6882H53.2617V26.4741H57.2617V27.6882H55.9775V35.4741H54.56V27.6882Z" fill="white"/>
<path d="M59.0195 32.0425L57.2617 26.4741H58.7383L59.8086 30.0434L60.8164 26.4741H62.2617L60.5273 32.0425V35.4741H59.0117V32.0425H59.0195Z" fill="white"/>
<path d="M94.2617 58.9741C94.2617 57.0425 95.6076 55.4741 97.2653 55.4741C98.9229 55.4741 100.262 57.0425 100.262 58.9741C100.262 60.9057 98.9158 62.4741 97.2653 62.4741C95.6147 62.4741 94.2617 60.9057 94.2617 58.9741Z" fill="white"/>
<path d="M101.192 63.4982C103.477 63.7068 105.262 65.6487 105.262 68.0158V77.4521C105.262 78.1743 104.675 78.768 103.961 78.768C103.247 78.768 102.652 78.1743 102.652 77.4521V69.3477C102.652 69.0428 102.565 68.6336 102.017 68.6336C101.637 68.6336 101.557 69.0428 101.541 69.2996V93.5805C101.541 94.6236 100.708 95.4741 99.6693 95.4741C98.6301 95.4741 97.7892 94.6236 97.7892 93.5805V79.5865C97.7892 79.434 97.7337 79.0328 97.2578 79.0328C96.7818 79.0328 96.7183 79.434 96.7183 79.5865V93.5805C96.7183 94.6236 95.8854 95.4741 94.8462 95.4741C93.8071 95.4741 92.9742 94.6236 92.9742 93.5805V69.2996C92.9583 69.0428 92.879 68.6336 92.5061 68.6336C91.9509 68.6336 91.8715 69.0428 91.8715 69.3477V77.4521C91.8715 78.1743 91.2845 78.768 90.5627 78.768C89.8408 78.768 89.2617 78.1743 89.2617 77.4521V68.0158C89.2617 65.6487 91.0545 63.7068 93.3391 63.4982C93.4105 63.4902 93.4977 63.4741 93.585 63.4741H100.938C101.034 63.4741 101.113 63.4822 101.192 63.4982Z" fill="white"/>
<path d="M74.2617 60.4741C74.2617 58.8174 72.7013 57.4741 70.7661 57.4741C68.8308 57.4741 67.2617 58.8174 67.2617 60.4741C67.2617 62.1308 68.8308 63.4741 70.7661 63.4741C72.7013 63.4741 74.2617 62.1308 74.2617 60.4741Z" fill="white"/>
<path d="M64.9476 67.9801L62.3419 76.6553C62.3419 76.6553 61.8738 78.2435 63.2 78.6425C64.5107 79.0415 64.9086 77.4853 64.9086 77.4853L67.0072 70.2466C67.0072 70.2466 67.1242 69.688 67.5299 69.8077C67.9433 69.9274 67.7873 70.526 67.7873 70.526L64.1284 84.0934H67.5299V93.8061C67.5299 94.7239 68.2632 95.4741 69.1604 95.4741C70.0576 95.4741 70.7909 94.7239 70.7909 93.8061V84.0934H71.7193V93.8061C71.7193 94.7239 72.4448 95.4741 73.3498 95.4741C74.2548 95.4741 74.9881 94.7239 74.9881 93.8061V84.0934H78.3896L74.7385 70.526C74.7385 70.526 74.5824 69.9274 74.9959 69.8077C75.4094 69.688 75.5186 70.2466 75.5186 70.2466L77.6172 77.4853C77.6172 77.4853 78.0151 79.0415 79.3257 78.6425C80.6442 78.2435 80.1839 76.6553 80.1839 76.6553L77.5782 67.9801C77.5782 67.9801 76.6498 65.4741 74.5902 65.4741H67.9512C65.8916 65.4741 64.9554 67.9801 64.9554 67.9801" fill="white"/>
<path d="M55.2617 60.4741C55.2617 58.8174 53.6926 57.4741 51.7661 57.4741C49.8396 57.4741 48.2617 58.8174 48.2617 60.4741C48.2617 62.1308 49.8308 63.4741 51.7661 63.4741C53.7013 63.4741 55.2617 62.1308 55.2617 60.4741Z" fill="white"/>
<path d="M45.9504 67.9801L43.3425 76.6553C43.3425 76.6553 42.874 78.2435 44.1936 78.6425C45.5053 79.0415 45.9035 77.4853 45.9035 77.4853L48.0039 70.2466C48.0039 70.2466 48.121 69.688 48.527 69.8077C48.9408 69.9274 48.7847 70.526 48.7847 70.526L45.1305 84.0934H48.5348V93.8061C48.5348 94.7239 49.2688 95.4741 50.1667 95.4741C51.0646 95.4741 51.7986 94.7239 51.7986 93.8061V84.0934H52.7277V93.8061C52.7277 94.7239 53.4539 95.4741 54.3596 95.4741C55.2654 95.4741 55.9915 94.7239 55.9915 93.8061V84.0934H59.3958L55.7416 70.526C55.7416 70.526 55.5855 69.9274 55.9915 69.8077C56.3975 69.688 56.5146 70.2466 56.5146 70.2466L58.615 77.4853C58.615 77.4853 59.0132 79.0415 60.325 78.6425C61.6445 78.2435 61.1838 76.6553 61.1838 76.6553L58.576 67.9801C58.576 67.9801 57.6468 65.4741 55.5855 65.4741H48.9408C46.8795 65.4741 45.9426 67.9801 45.9426 67.9801" fill="white"/>
<path d="M84.7617 78.4741C86.1465 78.4741 87.2617 77.353 87.2617 75.9704C87.2617 74.5877 86.1465 73.4741 84.7617 73.4741C83.377 73.4741 82.2617 74.5877 82.2617 75.9704C82.2617 77.353 83.377 78.4741 84.7617 78.4741Z" fill="white"/>
<path d="M78.3609 86.8278C78.2331 87.1435 78.1213 87.8155 78.7523 88.1069C79.4872 88.4469 79.8945 87.7264 79.8945 87.7264L81.3483 83.0389C81.3483 83.0389 81.6039 82.7232 81.6039 83.047V94.0897C81.6039 94.8588 82.211 95.4741 82.9698 95.4741C83.7287 95.4741 84.3357 94.8507 84.3357 94.0897V89.7342C84.3357 89.7342 84.2559 89.1189 84.7431 89.1189C85.2304 89.1189 85.1585 89.7342 85.1585 89.7342V94.0897C85.1585 94.8588 85.7735 95.4741 86.5324 95.4741C87.2912 95.4741 87.9063 94.8507 87.9063 94.0897V83.047C87.9063 82.7232 88.074 82.958 88.074 82.958L89.2083 86.1721C89.2083 86.1721 89.7035 87.605 89.8553 87.6698C90.3665 87.8883 90.9656 87.6374 91.1812 87.1111C91.325 86.7711 91.2691 86.3987 91.0694 86.1235H91.0774C91.0455 86.0101 89.376 81.8651 89.1843 81.2822C88.5852 79.5011 87.4829 79.5173 86.4285 79.4849C85.3741 79.4606 84.7431 79.4849 84.7431 79.4849C84.7431 79.4849 84.0721 79.4606 82.6743 79.5011C81.2844 79.5416 80.8451 80.2702 79.3114 84.2695C79.0958 84.8443 78.3529 86.7145 78.3449 86.8197H78.3529L78.3609 86.8278Z" fill="white"/>
<path d="M26.2617 58.9741C26.2617 57.0425 24.9174 55.4741 23.2617 55.4741C21.6061 55.4741 20.2617 57.0425 20.2617 58.9741C20.2617 60.9057 21.6061 62.4741 23.2617 62.4741C24.9174 62.4741 26.2617 60.9057 26.2617 58.9741Z" fill="white"/>
<path d="M19.3311 63.4982C17.0465 63.7068 15.2617 65.6487 15.2617 68.0158V77.4521C15.2617 78.1743 15.8487 78.768 16.5706 78.768C17.2925 78.768 17.8715 78.1743 17.8715 77.4521V69.3477C17.8715 69.0428 17.9588 68.6336 18.5061 68.6336C18.8869 68.6336 18.9662 69.0428 18.9821 69.2996V93.5805C18.9821 94.6236 19.815 95.4741 20.8542 95.4741C21.8934 95.4741 22.7263 94.6236 22.7263 93.5805V79.5865C22.7342 79.434 22.7818 79.0328 23.2578 79.0328C23.7337 79.0328 23.7972 79.434 23.7972 79.5865V93.5805C23.7972 94.6236 24.6301 95.4741 25.6693 95.4741C26.7084 95.4741 27.5413 94.6236 27.5413 93.5805V69.2996C27.5493 69.0428 27.6365 68.6336 28.0173 68.6336C28.5726 68.6336 28.6519 69.0428 28.6519 69.3477V77.4521C28.6519 78.1743 29.2389 78.768 29.9608 78.768C30.6826 78.768 31.2617 78.1743 31.2617 77.4521V68.0158C31.2617 65.6487 29.469 63.7068 27.1844 63.4982C27.1051 63.4902 27.0257 63.4741 26.9385 63.4741H19.585C19.4898 63.4741 19.4105 63.4822 19.3311 63.4982Z" fill="white"/>
<path d="M13.9117 95.4741C13.8686 95.4741 13.8327 95.4741 13.7896 95.4576C13.4378 95.3831 13.208 94.9944 13.2726 94.5892L15.9798 78.0821C16.0444 77.6768 16.3819 77.4122 16.7338 77.4867C17.0857 77.5611 17.3155 77.9498 17.2508 78.355L14.5436 94.8621C14.4862 95.2177 14.2133 95.4658 13.9045 95.4658L13.9117 95.4741Z" fill="white"/>
<path d="M33.0641 76.9371C32.8879 76.661 32.5835 76.4741 32.239 76.4741C31.7023 76.4741 31.2617 76.9209 31.2617 77.4651C31.2617 77.6195 31.3578 77.8957 31.3578 77.8957L34.0574 82.8508C34.0574 82.8508 34.2257 83.192 34.2257 83.5006V94.1338C34.2257 94.873 34.8185 95.4741 35.5474 95.4741C36.2764 95.4741 36.8612 94.8811 36.8612 94.1338V89.9341C36.8612 89.9341 36.7891 89.3412 37.2617 89.3412C37.7344 89.3412 37.6623 89.9341 37.6623 89.9341V94.1338C37.6623 94.873 38.255 95.4741 38.984 95.4741C39.713 95.4741 40.3058 94.8811 40.3058 94.1338V83.5006C40.3058 83.192 40.466 82.8508 40.466 82.8508L42.9573 78.2774C42.9573 78.2774 43.2617 77.6195 43.2617 77.4651C43.2617 76.9209 42.8291 76.4741 42.2844 76.4741C41.9319 76.4741 41.6275 76.661 41.4593 76.9371H41.4513C41.3712 77.0021 40.1215 79.2604 39.713 79.6746C39.2804 80.1214 38.8879 80.0727 38.8879 80.0727H35.6436C35.6436 80.0727 35.251 80.1214 34.8185 79.6746C34.4019 79.2604 33.1603 77.0021 33.0801 76.929H33.0721L33.0641 76.9371Z" fill="white"/>
<path d="M36.7617 78.4741C38.1464 78.4741 39.2617 77.353 39.2617 75.9704C39.2617 74.5877 38.1464 73.4741 36.7617 73.4741C35.377 73.4741 34.2617 74.5877 34.2617 75.9704C34.2617 77.353 35.377 78.4741 36.7617 78.4741Z" fill="white"/>
<path d="M36.7658 82.4741L39.8088 84.5307L41.2617 89.4741H36.7658H32.2617L33.7146 84.5307L36.7658 82.4741Z" fill="white"/>
</svg>
