<svg width="394" height="45" viewBox="0 0 394 45" fill="none" xmlns="http://www.w3.org/2000/svg">
<g clip-path="url(#clip0_534_743)">
<path d="M255.672 36.7882C254.209 38.5798 252.16 39.9534 249.497 40.9388C246.834 41.9242 243.879 42.402 240.66 42.402C237.265 42.402 234.281 41.6554 231.705 40.1325C229.13 38.6097 227.17 36.4298 225.765 33.5333C224.36 30.6667 223.658 27.2626 223.629 23.3807V20.6634C223.629 16.6621 224.302 13.1982 225.619 10.2719C226.936 7.34555 228.838 5.10601 231.325 3.55325C233.812 2.0005 236.739 1.22412 240.075 1.22412C244.727 1.22412 248.385 2.35883 250.99 4.62824C253.623 6.89764 255.174 10.1823 255.642 14.5121H247.771C247.42 12.2128 246.629 10.5406 245.371 9.46566C244.142 8.39068 242.445 7.88305 240.279 7.88305C237.529 7.88305 235.422 8.92817 233.988 11.0483C232.554 13.1684 231.823 16.3038 231.793 20.4544V23.0224C231.793 27.2327 232.583 30.398 234.134 32.5479C235.685 34.6979 237.997 35.7729 241.011 35.7729C244.054 35.7729 246.22 35.116 247.507 33.8021V26.9043H240.133V20.8127H255.584V36.818L255.672 36.7882Z" fill="#009DDA"/>
<path d="M322.537 33.623H308.344L305.652 41.8645H297.049L311.68 1.7915H319.172L333.861 41.8645H325.258L322.537 33.5931V33.623ZM310.539 26.9342H320.371L315.426 11.9441L310.539 26.9342Z" fill="#009DDA"/>
<path d="M344.397 35.2354H361.574V41.8645H336.291V1.7915H344.397V35.2354Z" fill="#009DDA"/>
<path d="M385.365 31.3535C385.365 29.8008 384.838 28.6063 383.756 27.7702C382.673 26.9341 380.741 26.0682 377.932 25.1126C375.123 24.187 372.899 23.2613 371.26 22.3655C366.812 19.9169 364.559 16.6024 364.559 12.4219C364.559 10.2719 365.144 8.33096 366.344 6.6289C367.544 4.92684 369.27 3.61297 371.494 2.65743C373.748 1.70189 376.235 1.22412 379.044 1.22412C381.853 1.22412 384.341 1.73175 386.536 2.77687C388.73 3.822 390.427 5.28517 391.657 7.16639C392.856 9.04761 393.471 11.1976 393.471 13.6163H385.365C385.365 11.7948 384.809 10.3615 383.668 9.34622C382.527 8.33096 380.946 7.82332 378.898 7.82332C376.908 7.82332 375.386 8.24137 374.274 9.10733C373.162 9.97329 372.636 11.0781 372.636 12.4816C372.636 13.7955 373.279 14.8704 374.567 15.7663C375.855 16.6621 377.757 17.4683 380.244 18.2447C384.838 19.6481 388.204 21.4099 390.31 23.5002C392.417 25.5904 393.471 28.1883 393.471 31.3237C393.471 34.7875 392.183 37.5048 389.608 39.4756C387.033 41.4464 383.58 42.4318 379.22 42.4318C376.206 42.4318 373.455 41.8645 370.968 40.7298C368.48 39.5951 366.608 38.0423 365.291 36.1014C363.974 34.1306 363.33 31.8611 363.33 29.2633H371.436C371.436 33.6826 374.011 35.8923 379.191 35.8923C381.122 35.8923 382.614 35.5041 383.697 34.6979C384.78 33.8917 385.306 32.7868 385.306 31.3535H385.365Z" fill="#009DDA"/>
<path d="M268.87 16.4532C269.367 15.5873 269.953 14.8109 270.655 14.0942L264.802 7.5249C263.339 8.95821 262.081 10.6304 261.086 12.4519L268.87 16.4234V16.4532Z" fill="#5FBA46"/>
<path d="M283.238 11.7948C284.116 12.2129 284.965 12.7504 285.696 13.3775L291.578 6.83797C290.027 5.46438 288.271 4.35954 286.369 3.52344L283.238 11.8247V11.7948Z" fill="#D6A102"/>
<path d="M296.698 13.7656L288.914 17.7371C289.294 18.6329 289.558 19.5586 289.704 20.544L298.366 19.7079C298.103 17.6176 297.547 15.617 296.698 13.7656Z" fill="#C11728"/>
<path d="M288.359 16.6026L296.143 12.6311C295.178 10.8096 293.949 9.13741 292.515 7.7041L286.633 14.2436C287.306 14.9602 287.891 15.7366 288.359 16.6026Z" fill="#289438"/>
<path d="M267.347 22.2461C267.347 22.0669 267.347 21.8877 267.347 21.7086L258.686 20.9023C258.686 21.3503 258.656 21.7683 258.656 22.2162C258.656 23.9183 258.861 25.5606 259.241 27.1432L267.611 24.6946C267.435 23.8884 267.347 23.0822 267.347 22.2162" fill="#4A7634"/>
<path d="M287.275 29.5024C286.66 30.2788 285.958 30.9358 285.168 31.533L289.733 39.0877C291.43 37.9231 292.952 36.4898 294.21 34.8475L287.275 29.5024Z" fill="#FBB800"/>
<path d="M289.822 22.2463C289.822 23.0824 289.734 23.8887 289.559 24.6949L297.928 27.1435C298.308 25.5907 298.513 23.9484 298.513 22.2463C298.513 21.8283 298.513 21.4102 298.484 20.9922L289.822 21.8283C289.822 21.8283 289.822 22.097 289.822 22.2463Z" fill="#E6331D"/>
<path d="M270.011 29.6816L263.076 35.0566C264.364 36.669 265.885 38.0725 267.612 39.2371L272.177 31.6823C271.358 31.115 270.655 30.4282 270.011 29.6816Z" fill="#F59D08"/>
<path d="M267.465 20.4249C267.611 19.4395 267.903 18.484 268.284 17.5882L260.5 13.6167C259.651 15.4979 259.037 17.4986 258.773 19.6187L267.435 20.4249H267.465Z" fill="#0076B8"/>
<path d="M288.652 39.7745L284.087 32.2197C283.267 32.6975 282.36 33.0857 281.424 33.3246L283.033 42.0439C285.052 41.5661 286.925 40.7897 288.652 39.7446" fill="#931831"/>
<path d="M289.237 25.9189C288.944 26.8148 288.535 27.6807 288.008 28.487L294.943 33.832C296.084 32.1897 296.962 30.3383 297.577 28.3675L289.208 25.9189H289.237Z" fill="#00A7D7"/>
<path d="M280.194 33.5933C279.667 33.6829 279.111 33.7128 278.584 33.7128C278.146 33.7128 277.707 33.7128 277.268 33.6232L275.658 42.3425C276.624 42.4918 277.59 42.5515 278.584 42.5515C279.696 42.5515 280.75 42.462 281.803 42.2828L280.194 33.5635V33.5933Z" fill="#EC6411"/>
<path d="M279.287 10.7798C280.253 10.8395 281.189 11.0187 282.067 11.3173L285.198 3.01605C283.325 2.35912 281.365 1.94107 279.287 1.88135V10.75V10.7798Z" fill="#E2071F"/>
<path d="M276.038 33.4138C275.073 33.175 274.136 32.8166 273.288 32.3389L268.723 39.8936C270.478 40.9089 272.41 41.6852 274.458 42.1332L276.068 33.4138H276.038Z" fill="#DD0979"/>
<path d="M275.19 11.2874C276.097 10.9888 277.033 10.8096 278.028 10.7797V1.91113C275.951 1.97085 273.931 2.35904 272.029 3.01598L275.19 11.2874Z" fill="#1F3262"/>
<path d="M269.25 28.6661C268.694 27.83 268.256 26.9341 267.934 25.9487L259.564 28.3973C260.208 30.4278 261.145 32.3389 262.315 34.041L269.25 28.6661Z" fill="#D28D0E"/>
<path d="M271.62 13.2283C272.352 12.6311 273.171 12.1235 274.02 11.7353L270.889 3.46387C269.016 4.2701 267.289 5.34509 265.768 6.65896L271.62 13.2283Z" fill="#004C84"/>
<path d="M70.4972 14.751C70.4972 14.1538 70.2924 13.676 69.8827 13.3475C69.473 13.0191 68.7415 12.6607 67.688 12.3024C66.6345 11.9441 65.7859 11.5858 65.1129 11.2573C62.9474 10.1823 61.8647 8.68927 61.8647 6.77819C61.8647 5.82265 62.1281 5.01641 62.6841 4.2699C63.2108 3.55324 63.9716 2.98589 64.9666 2.5977C65.9615 2.20951 67.0735 2.00049 68.3025 2.00049C69.5316 2.00049 70.585 2.20951 71.5214 2.65742C72.4578 3.10533 73.2187 3.70255 73.7454 4.50878C74.2721 5.31502 74.5355 6.2407 74.5355 7.28582H70.5265C70.5265 6.59903 70.3217 6.06154 69.912 5.67335C69.5023 5.28516 68.9463 5.106 68.2147 5.106C67.4832 5.106 66.9272 5.2553 66.5175 5.58377C66.1078 5.91223 65.903 6.33028 65.903 6.80805C65.903 7.25596 66.1371 7.64415 66.576 8.00248C67.0442 8.36081 67.8343 8.71913 69.0048 9.10732C70.1461 9.49551 71.1117 9.8837 71.8433 10.3316C73.6576 11.3767 74.5355 12.8399 74.5355 14.7211C74.5355 16.2142 73.9795 17.3787 72.8968 18.2148C71.7848 19.0509 70.2924 19.4988 68.361 19.4988C67.015 19.4988 65.7859 19.2599 64.7032 18.7523C63.6205 18.2447 62.7718 17.5877 62.2158 16.7218C61.6599 15.8558 61.3965 14.8704 61.3965 13.7357H65.4348C65.4348 14.6614 65.6689 15.3183 66.1371 15.7662C66.6053 16.1843 67.3368 16.4232 68.3903 16.4232C69.0634 16.4232 69.5901 16.2739 69.9705 15.9753C70.3509 15.6767 70.5558 15.2586 70.5558 14.751H70.4972Z" fill="#009BD9"/>
<path d="M89.8988 2.26953V13.4076C89.8988 14.6617 89.6354 15.7665 89.1087 16.6922C88.582 17.6179 87.8211 18.3047 86.8262 18.8123C85.8313 19.2901 84.69 19.529 83.3439 19.529C81.3248 19.529 79.7153 18.9915 78.5448 17.9165C77.3743 16.8415 76.789 15.3784 76.7598 13.4971V2.26953H80.798V13.5867C80.8566 15.4381 81.7052 16.3936 83.3439 16.3936C84.1633 16.3936 84.807 16.1547 85.246 15.7068C85.6849 15.2291 85.8898 14.4825 85.8898 13.4374V2.26953H89.8988Z" fill="#009BD9"/>
<path d="M101.251 14.751C101.251 14.1538 101.046 13.676 100.637 13.3475C100.227 13.0191 99.4954 12.6607 98.4419 12.3024C97.3884 11.9441 96.5398 11.5858 95.8668 11.2573C93.7013 10.1823 92.6186 8.68927 92.6186 6.77819C92.6186 5.82265 92.882 5.01641 93.438 4.2699C93.9647 3.55324 94.7255 2.98589 95.7205 2.5977C96.7154 2.20951 97.8274 2.00049 99.0564 2.00049C100.285 2.00049 101.339 2.20951 102.275 2.65742C103.212 3.10533 103.973 3.70255 104.499 4.50878C105.026 5.31502 105.289 6.2407 105.289 7.28582H101.28C101.28 6.59903 101.076 6.06154 100.666 5.67335C100.256 5.28516 99.7002 5.106 98.9686 5.106C98.2371 5.106 97.6811 5.2553 97.2714 5.58377C96.8617 5.91223 96.6569 6.33028 96.6569 6.80805C96.6569 7.25596 96.891 7.64415 97.3299 8.00248C97.7981 8.36081 98.5882 8.71913 99.7587 9.10732C100.9 9.49551 101.866 9.8837 102.597 10.3316C104.412 11.3767 105.289 12.8399 105.289 14.7211C105.289 16.2142 104.733 17.3787 103.651 18.2148C102.539 19.0509 101.046 19.4988 99.115 19.4988C97.7689 19.4988 96.5398 19.2599 95.4571 18.7523C94.3744 18.2447 93.5257 17.5877 92.9698 16.7218C92.4138 15.8558 92.1504 14.8704 92.1504 13.7357H96.1887C96.1887 14.6614 96.4228 15.3183 96.891 15.7662C97.3592 16.1843 98.0907 16.4232 99.1442 16.4232C99.8173 16.4232 100.344 16.2739 100.724 15.9753C101.105 15.6767 101.31 15.2586 101.31 14.751H101.251Z" fill="#009BD9"/>
<path d="M120.654 5.43476H115.65V19.2901H111.641V5.43476H106.725V2.26953H120.654V5.43476Z" fill="#009BD9"/>
<path d="M130.691 16.0951H125.189L124.224 19.2603H119.922L126.038 2.23975H129.813L135.987 19.2603H131.656L130.691 16.0951ZM126.155 12.9299H129.754L127.969 7.01745L126.184 12.9299H126.155Z" fill="#009BD9"/>
<path d="M141.693 19.2901H137.684V2.26953H141.693V19.2901Z" fill="#009BD9"/>
<path d="M158.665 19.2901H154.656L148.745 8.68957V19.2901H144.736V2.26953H148.745L154.656 12.8701V2.26953H158.665V19.2901Z" fill="#009BD9"/>
<path d="M171.103 16.0951H165.601L164.636 19.2603H160.334L166.45 2.23975H170.225L176.399 19.2603H172.068L171.103 16.0951ZM166.567 12.9299H170.166L168.381 7.01745L166.596 12.9299H166.567Z" fill="#009BD9"/>
<path d="M177.861 19.2901V2.26953H183.86C185.996 2.26953 187.635 2.65772 188.747 3.46396C189.859 4.27019 190.415 5.43476 190.415 6.95765C190.415 7.82361 190.21 8.59999 189.83 9.22706C189.42 9.85414 188.835 10.302 188.074 10.6007C188.952 10.8395 189.625 11.2576 190.093 11.9145C190.561 12.5416 190.795 13.318 190.795 14.2437C190.795 15.9158 190.269 17.17 189.245 18.0061C188.22 18.8422 186.669 19.2602 184.65 19.2901H177.891H177.861ZM181.87 9.37637H183.977C184.855 9.37637 185.47 9.1972 185.85 8.8986C186.231 8.57013 186.406 8.09236 186.406 7.46528C186.406 6.74863 186.201 6.241 185.792 5.91253C185.382 5.58406 184.738 5.43476 183.831 5.43476H181.87V9.37637ZM181.87 12.0638V16.1547H184.504C185.236 16.1547 185.792 15.9756 186.172 15.6471C186.552 15.3186 186.757 14.8409 186.757 14.2138C186.757 12.8103 186.055 12.0937 184.68 12.0638H181.87Z" fill="#009BD9"/>
<path d="M197.234 16.1249H204.227V19.2901H193.195V2.26953H197.204V16.1249H197.234Z" fill="#009BD9"/>
<path d="M216.519 12.0638H210.198V16.1249H217.66V19.2901H206.16V2.26953H217.66V5.43476H210.169V9.01804H216.49V12.0638H216.519Z" fill="#009BD9"/>
<path d="M61.1621 42.2526V25.9487H66.3124C67.717 25.9487 69.0046 26.2772 70.1165 26.9341C71.2285 27.5911 72.1357 28.5167 72.7502 29.7112C73.394 30.9056 73.7159 32.2493 73.7159 33.7125V34.459C73.7159 35.952 73.394 37.2958 72.7795 38.4603C72.1649 39.6548 71.2871 40.5805 70.1751 41.2374C69.0631 41.8943 67.8048 42.2526 66.4294 42.2526H61.1621ZM65.0248 28.9945V39.2367H66.3709C67.4829 39.2367 68.3315 38.8485 68.9168 38.0423C69.502 37.2361 69.7947 36.0416 69.7947 34.459V33.7424C69.7947 32.1597 69.502 30.9952 68.9168 30.1889C68.3315 29.3827 67.4536 28.9945 66.3416 28.9945H65.0541H65.0248Z" fill="#009DDA"/>
<path d="M85.5959 35.325H79.5385V39.2069H86.6786V42.2229H75.6758V25.9189H86.7079V28.9647H79.5385V32.3987H85.5959V35.2952V35.325Z" fill="#009DDA"/>
<path d="M95.4582 37.8337L98.6478 25.979H102.949L97.5651 42.2829H93.3512L88.0254 25.979H92.2978L95.4582 37.8337Z" fill="#009DDA"/>
<path d="M114.01 35.325H107.953V39.2069H115.093V42.2229H104.09V25.9189H115.122V28.9647H107.953V32.3987H114.01V35.2952V35.325Z" fill="#009DDA"/>
<path d="M120.507 39.2367H127.208V42.2526H116.645V25.9487H120.507V39.2367Z" fill="#009DDA"/>
<path d="M141.226 34.4293C141.226 36.012 140.933 37.4154 140.348 38.6397C139.763 39.864 138.943 40.8195 137.89 41.4765C136.836 42.1334 135.607 42.4619 134.261 42.4619C132.915 42.4619 131.686 42.1334 130.633 41.5063C129.579 40.8792 128.76 39.9536 128.175 38.7591C127.589 37.5647 127.268 36.221 127.238 34.6682V33.7426C127.238 32.1599 127.531 30.7266 128.087 29.5023C128.672 28.2781 129.492 27.3524 130.545 26.6656C131.628 26.0086 132.827 25.6802 134.203 25.6802C135.578 25.6802 136.749 26.0086 137.831 26.6656C138.885 27.3225 139.704 28.2482 140.319 29.4725C140.904 30.6968 141.197 32.0704 141.226 33.653V34.3995V34.4293ZM137.305 33.7426C137.305 32.1301 137.041 30.9058 136.515 30.0398C135.988 29.2037 135.227 28.7857 134.232 28.7857C132.301 28.7857 131.277 30.2489 131.16 33.2051V34.3995C131.16 35.9821 131.394 37.2362 131.92 38.0723C132.447 38.9383 133.208 39.3564 134.232 39.3564C135.256 39.3564 135.959 38.9383 136.485 38.1022C137.012 37.2661 137.275 36.0418 137.275 34.4592V33.7127L137.305 33.7426Z" fill="#009DDA"/>
<path d="M147.048 36.7284V42.2526H143.186V25.9487H149.565C150.794 25.9487 151.877 26.1876 152.813 26.6355C153.749 27.0834 154.481 27.7404 155.008 28.6063C155.534 29.4424 155.769 30.4278 155.769 31.5028C155.769 33.0854 155.213 34.3694 154.101 35.325C152.989 36.2805 151.467 36.7583 149.506 36.7583H147.048V36.7284ZM147.048 33.6826H149.565C150.296 33.6826 150.882 33.5035 151.262 33.1153C151.643 32.7271 151.847 32.1896 151.847 31.5028C151.847 30.7563 151.643 30.1292 151.233 29.6813C150.823 29.2334 150.267 28.9945 149.594 28.9945H147.019V33.6826H147.048Z" fill="#009DDA"/>
<path d="M162.615 25.9488L166.185 37.2959L169.726 25.9488H174.789V42.2527H170.926V38.4604L171.306 30.6668L167.444 42.2527H164.898L161.035 30.6369L161.415 38.4306V42.2229H157.553V25.9189H162.615V25.9488Z" fill="#009DDA"/>
<path d="M186.817 35.325H180.759V39.2069H187.899V42.2229H176.896V25.9189H187.929V28.9647H180.759V32.3987H186.817V35.2952V35.325Z" fill="#009DDA"/>
<path d="M202.678 42.2526H198.844L193.197 32.1V42.2526H189.334V25.9487H193.197L198.844 36.1014V25.9487H202.678V42.2526Z" fill="#009DDA"/>
<path d="M217.572 28.9945H212.773V42.2526H208.911V28.9945H204.199V25.9487H217.543V28.9945H217.572Z" fill="#009DDA"/>
<path d="M42.5515 40.939C42.5515 40.939 42.61 40.939 42.61 40.9689C41.6443 41.9842 40.4153 42.6709 39.2448 42.9994C38.3669 43.2682 37.489 43.298 36.5819 43.1786C35.1772 43.0293 33.9482 42.4619 32.807 41.6855C32.1046 41.2078 31.4316 40.7599 30.7586 40.2821C29.9685 39.7446 29.1198 39.6252 28.1834 39.7745C27.686 39.8342 28.0664 40.0731 28.1542 40.1029C29.3832 40.7001 30.5245 41.4467 31.6072 42.2828C32.3387 42.8203 33.6556 44.1043 33.6556 44.1043L32.6899 44.9702C32.6899 44.9702 31.9583 44.1043 31.6072 43.7758C29.471 41.5064 27.5689 40.4911 27.1592 40.2522C27.0714 40.2224 27.0129 40.1627 26.9544 40.1627C26.8959 40.1627 26.8081 40.1925 26.7495 40.2522C26.3399 40.4911 24.4378 41.5064 22.3016 43.7758C21.9797 44.1043 21.2189 44.9702 21.2189 44.9702L20.2532 44.1043C20.2532 44.1043 21.57 42.8203 22.3016 42.2828C23.3843 41.4467 24.5256 40.7001 25.7546 40.1029C25.8424 40.0731 26.1936 39.8342 25.7253 39.7745C24.8182 39.6252 23.9403 39.7147 23.1502 40.2821C22.4772 40.7599 21.7749 41.2376 21.1018 41.6855C19.9606 42.4619 18.7315 43.0293 17.3269 43.1786C16.4198 43.2682 15.5419 43.2383 14.664 42.9994C13.4935 42.6411 12.2352 41.9543 11.2695 40.9689C11.2695 40.9689 11.328 40.939 11.3573 40.939C11.4451 40.9689 11.5036 40.9987 11.5621 41.0585C12.996 41.805 14.4884 41.8946 16.0393 41.596C17.0928 41.3869 18.0877 40.9689 19.0534 40.521C19.7557 40.2224 20.458 39.864 21.1896 39.6252C23.0624 38.9981 24.9645 38.9981 26.8959 39.5057C26.9251 39.5057 26.9544 39.5057 26.9836 39.5057C27.0129 39.5057 27.0422 39.5057 27.0714 39.5057C28.9735 38.9981 30.9049 38.9981 32.7777 39.6252C33.5093 39.864 34.2116 40.2224 34.9139 40.521C35.9088 40.939 36.8745 41.3869 37.9279 41.596C39.4789 41.8946 40.9713 41.805 42.4052 41.0585C42.493 41.0286 42.5222 40.9988 42.61 40.939H42.5515ZM47.058 36.7585C46.2386 37.3856 45.7119 37.6245 45.0388 37.8634C44.0146 38.2217 42.9319 38.2814 41.8492 38.3412C40.4446 38.4307 39.0692 38.4905 37.6938 38.6995C37.6061 38.6995 37.5768 38.6995 37.6061 38.6398C38.8351 38.162 39.6837 37.2064 40.3275 35.9523C40.7664 35.0863 41.498 33.444 41.6736 33.1753V33.1155C41.5858 33.1454 40.2104 34.3398 39.5959 34.9072C38.8351 35.6238 38.1035 36.4002 37.3427 37.1467C36.1429 38.3113 34.4164 38.8189 33.8019 38.9981C33.8019 38.9981 33.7726 38.9981 33.7434 38.9981C33.7434 38.9981 33.7434 39.0578 33.7141 39.0578C34.2116 39.1772 35.5869 39.4759 36.3185 39.6849C37.4305 39.9835 38.5425 40.2522 39.6837 40.312C40.9128 40.4015 42.1711 40.2821 43.3123 39.8342C44.6291 39.3266 46.2386 38.162 47.175 36.7585C47.1457 36.7585 47.0872 36.7585 47.0872 36.7585H47.058ZM51.2718 30.1593C51.2718 30.1593 50.5402 31.1447 48.843 32.3093C48.0236 32.9065 47.2628 33.2648 46.3556 33.6829C45.2437 34.2204 44.2487 34.6982 43.3123 35.5044C43.2538 35.5641 43.1953 35.594 43.1367 35.6537C43.1075 35.6537 43.0782 35.6537 43.1075 35.594C43.166 35.5343 44.5706 34.0711 44.9803 30.9357C45.1266 29.8607 45.1559 28.6663 45.507 27.6212C45.507 27.5913 45.507 27.5615 45.507 27.5316C44.4828 28.726 43.6049 30.6072 43.1953 31.8017C42.9026 32.6378 42.6393 33.4739 42.3466 34.31C41.937 35.4447 41.4395 36.4898 40.5909 37.3558L40.5031 37.4453C40.5031 37.4453 40.5031 37.4453 40.5031 37.5051C40.6201 37.5051 40.7079 37.4752 40.7957 37.4453C41.7321 37.2363 42.6685 37.0273 43.6342 36.8481C45.2144 36.5794 46.619 36.012 47.8773 34.9968C49.1649 33.9815 50.2476 32.8169 50.9499 31.3239C51.1255 30.9357 51.3011 30.5475 51.4181 30.1295C51.4181 30.1295 51.3596 30.1295 51.3303 30.1295L51.2718 30.1593ZM53.1154 22.724C52.7057 24.0379 51.9741 25.1129 50.8914 26.2775C50.0428 27.1733 48.4333 28.8455 47.6725 30.01C47.6725 30.0399 47.5847 30.01 47.614 29.9802C47.9651 28.9649 48.1407 27.1733 47.9066 25.7997C47.731 24.6053 47.2043 23.3212 47.0872 21.8879C47.0872 21.8879 47.058 21.8282 47.0287 21.8282C47.0287 21.8282 47.0287 21.8282 46.9702 21.9775C46.7361 22.8136 46.4142 23.8587 46.3849 24.8441C46.3264 26.0386 46.5312 27.5316 46.4434 28.7559C46.3264 30.1593 46.2386 31.5628 45.5948 32.8169C45.5948 32.8468 45.5948 32.9065 45.5948 32.9065C46.0923 32.578 47.5554 31.7121 48.4918 31.0552C49.6916 30.2489 50.7158 29.2934 51.5352 28.0691C52.5594 26.5462 53.1446 24.7247 53.1154 22.8733C53.1154 22.8136 53.1154 22.6942 53.1154 22.6942L53.0568 22.724H53.1154ZM50.072 23.5303C50.0428 23.5303 50.0428 23.5303 50.0428 23.5004C50.1013 23.1122 50.1013 22.6643 50.0428 22.306C49.955 20.9324 49.1356 19.7678 48.404 18.6033C48.0236 18.006 47.3798 16.9609 47.1165 16.2443C47.1165 16.2443 47.058 16.2144 47.0287 16.2144C47.0287 16.3339 47.0287 16.7519 47.0872 17.0206C47.2921 18.9914 47.9066 20.9623 48.5504 22.8435C48.9893 24.0976 49.1941 25.1726 49.0478 26.5163C49.0478 26.6358 49.0478 26.6358 49.0478 26.6656C49.4868 26.0087 50.3354 25.1129 50.8621 24.4559C51.4181 23.7393 54.3151 20.4248 52.8813 15.7665C52.7935 15.4978 52.7057 15.229 52.6472 15.1991L52.5886 15.2589C52.5886 18.6033 51.0084 20.0366 50.3354 22.3358C50.2183 22.7838 50.1013 23.1719 50.0135 23.5004L50.072 23.5303ZM47.614 13.1388C47.0872 12.6909 46.3264 11.8548 45.8582 11.1381C45.8582 11.1381 45.7997 11.1381 45.7704 11.1381H45.7411C45.7411 11.2874 46.2093 12.7506 46.502 13.4374C46.9116 14.4228 47.5847 15.2589 48.2285 16.1248C48.287 16.1845 48.3163 16.2443 48.3748 16.304C49.0186 17.17 50.0428 19.0213 50.2769 19.9769C50.2769 19.9769 50.3354 20.0366 50.3354 20.0067C50.4232 19.6782 50.8329 18.3345 51.1548 17.4387C51.2133 17.2595 51.7693 15.4679 51.8571 14.6915C52.179 12.4818 51.4474 9.64507 50.1891 8.06245C50.1891 8.06245 50.1598 8.12217 50.1598 8.15203C50.1598 8.21175 50.1891 8.27148 50.2183 8.36106C50.2183 8.45064 50.2769 8.54022 50.3061 8.65967C50.628 10.093 50.511 11.1082 50.3647 12.3325C50.2476 13.3179 50.0428 14.2735 50.1013 15.2589C50.1013 15.4082 50.2183 16.6325 50.1891 16.6623C50.1891 16.722 50.1306 16.6623 50.1306 16.6623C50.1306 16.6623 49.9842 16.2144 49.8087 15.8561C49.7501 15.7068 49.6916 15.5575 49.6331 15.438C49.1356 14.4228 48.4626 13.8853 47.6432 13.1985L47.614 13.1388ZM46.2386 4.24029C46.6483 4.62848 46.9702 5.10625 47.175 5.61388C47.5262 6.44998 47.614 7.70412 47.8481 8.6298C47.9944 9.19716 48.0822 9.61521 48.2577 10.2721C48.2577 10.3319 48.2285 10.3617 48.1992 10.2721C47.5554 9.37632 46.7361 8.80897 45.5948 8.06245C44.9218 7.61454 44.395 7.19649 43.8976 6.5097C43.8098 6.39025 43.722 6.27081 43.6342 6.15137C43.6342 6.15137 43.5757 6.15137 43.5464 6.15137C43.5464 6.15137 43.5464 6.24095 43.5464 6.30067C43.6927 7.04719 44.1902 8.45064 45.0388 9.28674C45.6533 9.88395 46.3264 10.4214 46.9994 10.9589C48.1699 11.9443 49.0186 13.0193 49.2819 13.3776C49.2819 13.3776 49.3405 13.4075 49.3405 13.3776C49.3405 13.1985 49.3405 12.9297 49.3405 12.6013C49.3405 11.8846 49.3697 10.8992 49.399 10.2423C49.399 9.97353 49.399 9.70479 49.399 9.43604C49.399 8.6298 49.3112 7.82357 48.9893 7.07705C48.4626 5.8229 47.6432 4.8375 46.4434 4.24029C46.3849 4.21043 46.2679 4.18057 46.2093 4.15071C46.2093 4.15071 46.2093 4.18057 46.2093 4.24029H46.2386ZM41.2639 1.8813C41.9662 2.50837 42.5222 3.25489 43.0489 4.03126C43.5464 4.77778 44.0439 5.55416 44.7169 6.15137C45.1559 6.62914 46.4727 7.6444 46.7946 7.91315C46.7361 7.52496 46.1215 4.71806 44.395 3.31461C43.4586 2.50837 42.2296 2.00074 41.0298 1.64241V1.73199C41.0883 1.79171 41.1176 1.82158 41.1761 1.8813H41.2639ZM14.1373 40.312C15.2785 40.2224 16.3905 39.9835 17.5025 39.6849C18.2341 39.4759 19.6094 39.1772 20.1069 39.0578C20.1069 39.0578 20.1069 39.028 20.0776 38.9981C20.0776 38.9981 20.0484 38.9981 20.0191 38.9981C19.4046 38.8189 17.6781 38.3113 16.4783 37.1467C15.7175 36.4301 14.9859 35.6537 14.225 34.9072C13.6105 34.31 12.2352 33.1454 12.1474 33.1155V33.1753C12.3522 33.444 13.0545 35.1162 13.4935 35.9523C14.1373 37.1766 14.9566 38.162 16.2149 38.6398C16.2149 38.6696 16.2149 38.6995 16.1271 38.6995C14.7518 38.4606 13.3764 38.4009 11.9718 38.3412C10.9183 38.2814 9.80636 38.2217 8.78216 37.8634C8.10912 37.6245 7.58239 37.4155 6.76303 36.7585C6.76303 36.7585 6.7045 36.7585 6.67524 36.7585C7.61165 38.162 9.2211 39.3564 10.5379 39.8342C11.6792 40.2821 12.9375 40.4015 14.1665 40.312H14.1373ZM13.0545 37.4155C13.0545 37.4155 13.2009 37.4155 13.3472 37.4752C13.3472 37.4453 13.3472 37.4155 13.3472 37.4155C13.3472 37.4155 13.2886 37.3558 13.2594 37.3259C12.4108 36.4599 11.884 35.4148 11.5036 34.2801C11.211 33.444 10.9476 32.6079 10.655 31.7718C10.2453 30.6072 9.39668 28.726 8.34322 27.5017C8.34322 27.5017 8.31396 27.5615 8.34322 27.5913C8.69437 28.6364 8.72364 29.8309 8.86995 30.9059C9.27963 34.0114 10.7135 35.5044 10.7428 35.5641C10.772 35.594 10.7428 35.6537 10.7135 35.6238C10.655 35.5641 10.5965 35.5343 10.5379 35.4745C9.57226 34.6683 8.60658 34.1905 7.4946 33.653C6.58745 33.235 5.82661 32.8468 5.00726 32.2794C3.31001 31.085 2.63696 30.1593 2.57844 30.1295C2.57844 30.1295 2.51991 30.1295 2.49065 30.1295C2.6077 30.5475 2.78328 30.9357 2.95886 31.3239C3.66116 32.8169 4.74389 33.9815 6.03145 34.9968C7.31902 36.012 8.69437 36.5794 10.2746 36.8481C11.211 36.9974 12.1474 37.2363 13.1131 37.4453L13.0545 37.4155ZM5.24136 30.9954C6.17777 31.6524 7.64091 32.5183 8.13838 32.8468C8.13838 32.8468 8.16764 32.7871 8.13838 32.7572C7.4946 31.4732 7.40681 30.0996 7.28976 28.6962C7.20197 27.4719 7.40681 25.949 7.34828 24.7844C7.28976 23.799 6.99713 22.7539 6.76303 21.9178C6.73376 21.7984 6.7045 21.7984 6.7045 21.7685L6.64597 21.8282C6.52892 23.2615 6.00219 24.5754 5.82661 25.74C5.62178 27.1135 5.76809 28.9052 6.11924 29.9205C6.11924 29.9802 6.08998 29.9802 6.06072 29.9503C5.29988 28.7857 3.69043 27.1135 2.8418 26.2177C1.75908 25.0532 1.02751 23.9782 0.617829 22.6643C0.617829 22.6643 0.559303 22.6046 0.559303 22.6344C0.559303 22.6344 0.559303 22.7539 0.559303 22.8136C0.53004 24.665 1.1153 26.4865 2.1395 28.0094C2.95886 29.2038 4.01232 30.1892 5.18283 30.9954H5.24136ZM4.74389 26.6358C4.80242 26.6059 4.77315 26.5761 4.74389 26.4865C4.59758 25.1427 4.83168 24.0678 5.24136 22.8136C5.88514 20.9324 6.49966 18.9915 6.7045 16.9908C6.7045 16.722 6.76303 16.304 6.76303 16.1845C6.76303 16.1845 6.7045 16.1845 6.67524 16.2144C6.41187 16.9311 5.73883 17.9762 5.38767 18.5734C4.6561 19.738 3.83674 20.8727 3.74895 22.2761C3.74895 22.6345 3.74895 23.0824 3.74895 23.4705C3.74895 23.4705 3.74895 23.5004 3.71969 23.5004C3.6319 23.1719 3.54411 22.7539 3.3978 22.3358C2.72475 20.0366 1.14456 18.6033 1.14456 15.2589C1.14456 15.2589 1.1153 15.1991 1.08603 15.1991C1.05677 15.2589 0.93972 15.4978 0.851932 15.7665C-0.552685 20.4248 2.31507 23.7692 2.87107 24.4559C3.3978 25.1129 4.24642 26.0087 4.68536 26.6656L4.74389 26.6358ZM2.69549 17.379C2.98812 18.2748 3.3978 19.5887 3.51485 19.947C3.51485 19.947 3.57338 19.947 3.57338 19.9171C3.80748 18.9616 4.83168 17.1102 5.47546 16.2443C5.53399 16.1845 5.56325 16.1248 5.62177 16.0651C6.26556 15.1991 6.9386 14.3929 7.34828 13.3776C7.64091 12.6909 8.07985 11.2277 8.10912 11.0784C8.10912 11.0784 8.10912 11.0784 8.07985 11.0784C8.07985 11.0784 8.02133 11.0784 7.99206 11.0784C7.55312 11.795 6.76303 12.6013 6.23629 13.079C5.38767 13.7658 4.74389 14.3033 4.24642 15.3186C4.1879 15.438 4.12937 15.5873 4.07084 15.7366C3.92453 16.095 3.77822 16.5429 3.74895 16.5429C3.74895 16.5429 3.69043 16.6026 3.69043 16.5429C3.69043 16.4832 3.77822 15.2887 3.77822 15.1394C3.83674 14.154 3.6319 13.1985 3.51485 12.2131C3.33927 10.9888 3.25148 9.97353 3.57338 8.54022C3.57338 8.45064 3.6319 8.3312 3.66116 8.24162C3.66116 8.18189 3.69043 8.12217 3.71969 8.03259C3.71969 8.03259 3.71969 7.97287 3.69043 7.94301C2.43213 9.49576 1.72982 12.3624 2.02245 14.5721C2.1395 15.3485 2.66623 17.1401 2.72475 17.3193L2.69549 17.379ZM4.50979 12.5415C4.50979 12.87 4.50979 13.1388 4.50979 13.3179H4.56831C4.83168 12.9596 5.6803 11.8846 6.85081 10.8992C7.4946 10.3617 8.1969 9.82423 8.81142 9.22702C9.66005 8.39092 10.1575 7.01733 10.3038 6.24095C10.3038 6.18123 10.3038 6.12151 10.3038 6.09165C10.3038 6.09165 10.2453 6.09165 10.216 6.09165C10.1283 6.21109 10.0405 6.33053 9.95267 6.44998C9.45521 7.13677 8.92848 7.55482 8.25543 8.00273C7.11418 8.74925 6.29482 9.3166 5.65104 10.2124C5.62177 10.2721 5.56325 10.2124 5.59251 10.2124C5.79735 9.55548 5.88514 9.1673 6.00219 8.57008C6.23629 7.61454 6.32408 6.36039 6.67524 5.55416C6.88008 5.01666 7.20197 4.56876 7.61165 4.18057C7.61165 4.12085 7.61165 4.09098 7.61165 4.09098C7.55312 4.09098 7.46533 4.15071 7.37754 4.18057C6.17777 4.77778 5.35841 5.76318 4.83168 7.01733C4.50979 7.7937 4.422 8.57008 4.422 9.37632C4.422 9.64507 4.422 9.91381 4.422 10.1826C4.45126 10.8395 4.48052 11.8249 4.48052 12.5415H4.50979ZM6.99713 7.85343C7.31902 7.58468 8.63585 6.56942 9.07479 6.09165C9.74784 5.49444 10.2453 4.71806 10.7428 3.97154C11.2695 3.19517 11.8255 2.44865 12.5278 1.82158C12.5863 1.76185 12.6156 1.73199 12.6741 1.67227C12.6741 1.67227 12.6741 1.61255 12.6741 1.58269C11.4743 1.91116 10.2453 2.41879 9.30889 3.25489C7.58239 4.65834 6.99713 7.46524 6.90934 7.85343H6.99713ZM26.4569 23.2018C26.6032 22.9928 26.2521 22.8733 26.1643 23.2018C26.0765 23.5303 26.3106 23.381 26.4569 23.2018ZM30.144 14.5124C30.144 14.5124 29.471 15.1096 29.5588 15.229C29.588 15.2589 30.2026 14.5422 30.144 14.5124ZM30.2611 14.3929C30.2611 14.3929 30.7 14.2436 30.6415 14.1839C30.583 14.1242 30.144 13.945 30.144 14.0644C30.144 14.2735 30.1733 14.3631 30.2611 14.3929ZM36.7574 20.1859C36.5819 20.1859 36.4063 20.4546 36.4648 20.4546C36.5819 20.4546 36.6696 20.5442 36.7867 20.5143C36.9623 20.4845 36.933 20.1859 36.7867 20.1859H36.7574ZM34.4164 13.945C34.4164 13.945 34.2408 14.1242 34.3871 14.1839C34.4457 14.2137 34.6505 14.1839 34.7383 14.1242C34.8261 14.0644 34.9431 13.9749 34.9139 13.8256C34.9139 13.736 34.6798 13.4672 34.7968 13.3776C34.9139 13.2582 35.0309 13.4374 35.148 13.3776C35.2943 13.3179 35.265 13.2283 35.2943 13.1089C35.2943 12.9297 35.2358 12.7207 35.0309 12.7207C34.8846 12.7207 34.6505 13.1089 34.6212 13.1388C34.6212 13.1686 34.5627 13.3179 34.6212 13.4672C34.709 13.6763 34.6798 13.9151 34.4164 13.9151V13.945ZM37.6061 13.945C37.6061 13.945 37.8694 14.6617 37.8694 14.8408C37.8694 15.02 37.9572 15.5276 38.0743 15.4679C38.1621 15.438 38.1621 15.1096 38.1328 14.9901C38.0743 14.6318 38.0157 14.3332 37.8694 13.9151C37.8109 13.7061 37.5183 13.0193 37.4012 13.0193C37.3134 13.0193 37.5475 13.527 37.5768 13.6763C37.5768 13.7658 37.5768 13.8256 37.5768 13.9151L37.6061 13.945ZM35.9088 5.55416C36.0551 5.61388 36.0551 5.31527 35.7918 5.10625C35.5284 4.89722 35.1772 4.9868 35.265 5.10625C35.3528 5.19583 35.7625 5.5243 35.9088 5.58402V5.55416ZM28.6516 3.43405C28.3297 3.22503 28.5931 2.92642 28.359 2.74726C28.1834 2.59795 27.686 2.74726 27.5689 2.89656C27.3641 3.1653 27.8323 3.07572 28.0078 3.1653C28.2127 3.25489 28.6224 3.61321 28.7102 3.55349C28.7979 3.46391 28.7102 3.46391 28.6516 3.43405ZM30.583 2.44865C30.144 2.23962 28.5638 2.26948 28.5931 2.68753C28.6224 3.04586 29.5295 2.68753 29.7344 2.68753C29.9685 2.68753 30.9341 2.65767 30.5537 2.44865H30.583ZM25.9009 21.4699C25.9009 21.4699 25.7546 21.4102 25.7839 21.4699C25.8131 21.5296 25.7546 21.6192 25.8131 21.7088C25.9009 21.7984 26.1058 21.7984 26.2228 21.7088C26.2813 21.649 26.2228 21.5296 26.2228 21.4997C26.135 21.4699 25.9594 21.5296 25.9594 21.44L25.9009 21.4699ZM25.2864 18.2151C25.2864 18.2151 25.4035 18.1255 25.4912 18.1255C25.579 18.1255 25.4912 18.2151 25.6376 18.2151C25.7839 18.2151 25.9009 17.8567 25.4912 17.8567C25.1401 17.8567 25.1986 18.1852 25.2864 18.2151ZM25.8424 18.5734C25.579 18.5137 25.6376 18.663 25.462 18.663C25.1986 18.6928 25.4327 18.454 25.2864 18.3644C25.2279 18.3047 25.0816 18.5435 25.0523 18.6928C25.0523 18.7526 25.0523 18.9914 25.1694 19.0213C25.2864 19.0213 25.8717 19.1109 26.0765 19.1408C26.3106 19.2005 26.0765 18.6331 25.8131 18.5734H25.8424ZM22.8869 21.8282C22.8869 21.8282 23.0332 21.5296 22.9746 21.3803C22.9161 21.231 22.6527 21.3504 22.6235 21.4102C22.6235 21.4699 22.7991 21.8282 22.8576 21.8282H22.8869ZM18.9949 21.8282C18.9949 21.8282 18.9949 21.3206 18.9071 21.2609C18.8193 21.2011 18.8193 21.3206 18.7608 21.3206C18.7023 21.3206 18.7023 21.1414 18.6437 21.1414C18.5852 21.1414 18.6437 21.44 18.7315 21.6192C18.7901 21.7984 18.9656 22.0671 18.9656 21.8581L18.9949 21.8282ZM18.9071 20.9324C18.9071 20.9324 19.0534 20.2755 19.0534 20.0366C19.0534 19.7977 18.9071 19.5887 18.8778 19.5887C18.8486 19.5887 18.8778 19.738 18.8778 19.9769C18.8778 20.3053 18.7315 20.6039 18.7315 20.7234C18.7315 20.8428 18.8193 21.0817 18.9071 20.9324ZM8.54806 18.7526C8.54806 13.736 10.4501 9.01799 13.9324 5.46457C17.4147 1.91116 22.0382 -0.0297852 26.9544 -0.0297852C31.8705 -0.0297852 36.4941 1.91116 39.9763 5.46457C43.4586 9.01799 45.3607 13.736 45.3607 18.7526C45.3607 23.7692 43.4586 28.4871 39.9763 32.0406C36.4941 35.594 31.8705 37.5349 26.9544 37.5349C22.0382 37.5349 17.4147 35.594 13.9324 32.0406C10.4501 28.4871 8.54806 23.7692 8.54806 18.7526ZM14.225 31.1746L16.2149 29.1441C15.8345 28.726 15.4541 28.2781 15.1029 27.8003C14.9566 27.7406 14.781 27.651 14.6933 27.5017C14.5177 27.2927 14.4299 26.9642 14.3421 26.9642C14.2543 26.9642 14.3421 27.1733 14.1665 27.2031C13.9324 27.233 13.5813 26.6059 13.435 26.3969C13.2594 26.1281 12.996 26.1281 12.879 25.8594C12.8497 25.7997 12.7619 25.5608 12.6741 25.7101C12.5278 25.949 12.0596 25.2323 11.9425 25.2622C11.8255 25.3219 11.9425 25.4712 11.8548 25.5309C11.7084 25.6504 11.328 24.9934 11.1817 25.0532C11.0354 25.1129 11.0061 25.2025 11.0061 25.3816C11.0061 25.5608 11.211 26.0386 11.1525 26.0684C11.0354 26.1281 10.4794 24.6351 10.5965 24.5754C10.655 24.5455 10.655 24.6351 10.7428 24.5754C10.8306 24.5157 10.6842 24.4261 10.655 24.2469C10.6257 24.0678 10.4794 24.0678 10.4501 23.8886C10.4501 23.7094 10.6842 23.7692 10.6842 23.6796C10.6842 23.59 10.6842 23.5004 10.772 23.4108C10.8598 23.3212 11.0647 23.4108 11.0939 23.1421C11.1232 22.9331 11.2402 23.1421 11.2695 23.2914C11.2695 23.4705 11.767 23.5303 11.7962 23.4108C11.7962 23.3212 11.5914 23.3212 11.5914 23.2615C11.5914 23.1122 11.8548 23.2615 12.0303 23.2615C12.1181 23.2615 12.2644 23.1421 12.44 23.2615C12.6449 23.3511 12.7619 23.4108 12.879 23.4407C12.44 22.097 12.1767 20.6338 12.1474 19.1408H9.33816C9.42594 23.6497 11.1525 27.9198 14.225 31.1746ZM25.8424 14.5124C25.8424 14.5124 25.6668 14.7214 25.5498 14.9304C25.8717 14.811 26.2228 14.7214 26.574 14.6915V11.795C24.9938 11.8846 23.5599 12.5415 22.4479 13.5568L24.4378 15.5873C24.6719 15.4082 24.906 15.229 25.1986 15.0797C25.2571 15.0498 25.3449 15.02 25.4035 14.9901C25.5498 14.7512 25.8424 14.4825 25.8717 14.5124H25.8424ZM18.8778 25.2622C18.8778 25.2622 18.8778 25.3816 18.8778 25.4414C19.0242 25.6205 19.1705 25.7997 19.3168 25.9788L21.3067 23.9483C20.3702 22.8733 19.6972 21.5595 19.4631 20.0963C19.4046 20.0963 19.346 20.0963 19.3168 20.0366C19.2875 19.9769 19.3168 19.8873 19.4338 19.8275C19.4338 19.6185 19.3753 19.3796 19.3753 19.1706H18.0585C18.0585 19.3796 18.1463 19.7081 18.0292 19.7977C17.9122 19.8873 17.7659 19.7977 17.6488 19.7977C17.3854 19.8275 17.3269 20.156 17.4147 20.365C17.4732 20.5143 17.5318 20.6338 17.5025 20.7831C17.5025 20.9324 17.4147 21.0518 17.6195 21.1713C17.8244 21.2907 18.1463 21.7088 18.1463 21.7984C18.117 21.8879 17.9122 21.7088 17.8829 21.8879C17.8829 22.0074 18.1755 21.8581 18.1755 22.2164C18.1755 22.4254 18.2048 22.6643 18.2633 22.8136C18.3804 23.1122 18.5267 23.3212 18.5267 23.6497C18.5267 23.9185 18.4682 24.2469 18.5852 24.5157C18.7023 24.7844 18.9364 24.9934 18.9364 25.3219L18.8778 25.2622ZM17.2099 20.4248C17.0343 20.2456 17.3269 19.6782 17.3562 19.5887C17.3854 19.4692 17.6488 19.3199 17.7073 19.1706H16.5368C16.5368 19.7977 16.6246 20.4248 16.7709 21.022C17.0635 21.1414 17.5903 20.9025 17.2099 20.4248ZM16.4783 28.1885C16.5953 28.308 16.6831 28.4274 16.8002 28.5469L17.0343 28.308C16.8294 28.1587 16.6246 28.0989 16.5076 28.1587L16.4783 28.1885ZM21.3067 13.5568L19.3168 11.5263C17.6781 13.3179 16.6539 15.7068 16.5368 18.3345H17.9414C18.1755 17.9463 18.0877 17.6477 18.1755 17.4387C18.2633 17.2297 18.3804 17.0206 18.4974 16.8415C18.6145 16.6623 18.7315 16.4832 18.9364 16.4832C19.4046 16.4832 19.4924 16.2443 19.785 16.095C20.0776 15.9457 20.5751 15.8859 20.5166 15.7366C20.4873 15.6471 19.4631 16.0352 19.4338 15.9457C19.4046 15.7964 19.7557 15.8262 19.902 15.6769C19.9313 15.6769 19.9606 15.6172 19.9898 15.6172C20.3117 14.8408 20.7507 14.154 21.3067 13.527V13.5568ZM20.9555 15.4679C20.9555 15.4679 21.014 15.4679 21.0433 15.438C21.3944 15.229 21.8334 15.2887 22.0382 15.3485C22.2723 15.4679 22.5942 15.7366 22.7405 15.8561C22.7991 15.9158 22.8283 15.8262 23.121 15.7665C23.238 15.7665 23.2673 15.8859 23.4428 15.8859C23.5014 15.8859 23.5599 15.8859 23.6184 15.8859L21.8919 14.1242C21.5408 14.5422 21.2189 14.9901 20.9848 15.4679H20.9555ZM18.9949 17.6477C18.7608 17.6477 18.556 17.7074 18.4389 17.9165C18.3511 18.0658 18.3218 18.2151 18.3511 18.3345H19.346C19.346 18.1255 19.346 17.9463 19.4046 17.7672C19.2875 17.7074 19.1119 17.6477 18.9949 17.6477ZM21.8627 23.3511L23.8525 21.3206C23.6769 21.1116 23.5599 20.9025 23.4136 20.6636C23.3843 20.6935 23.3551 20.7234 23.3258 20.7831C23.2965 20.8727 23.3258 21.1713 23.2087 21.3206C23.0624 21.4997 22.6235 20.9623 22.4772 20.9025C22.3016 20.8428 22.2138 21.0518 22.2138 21.1116C22.2138 21.2609 22.2138 21.3206 22.1553 21.3504C22.0968 21.3504 21.7456 21.1414 21.8919 21.0817C22.0675 21.022 21.8334 20.8727 21.7749 20.813C21.6578 20.7234 21.453 20.813 21.3359 20.6636C21.2481 20.5143 21.0433 20.4248 20.9848 20.3949C20.9555 20.3949 20.7507 20.3053 20.6336 20.3949C20.5458 20.4546 20.4288 20.3352 20.341 20.2755C20.3117 20.2456 20.2532 20.1859 20.2239 20.1262C20.458 21.3803 21.014 22.515 21.8334 23.4108L21.8627 23.3511ZM23.8525 19.8275C23.8525 19.8275 23.8525 19.7977 23.8525 19.7678C23.8525 19.7678 23.8525 19.7678 23.8525 19.738C23.8525 19.738 23.8525 19.7081 23.8525 19.6782C23.8525 19.6782 23.8525 19.6484 23.8525 19.6185C23.8525 19.6185 23.8525 19.6185 23.8525 19.5887C23.8525 19.5887 23.8525 19.5887 23.8525 19.5588C23.8525 19.5289 23.911 19.5289 23.9403 19.5289C23.9988 19.5289 24.0866 19.5887 24.1744 19.5887C24.2329 19.5887 24.2915 19.5887 24.35 19.4991C24.35 19.4692 24.4085 19.4394 24.4085 19.4095C24.4085 19.3796 24.4085 19.3498 24.4085 19.3199C24.4085 19.3199 24.4085 19.3199 24.4085 19.2901C24.4085 19.2602 24.35 19.2602 24.2622 19.2901C24.2622 19.2901 24.2329 19.2901 24.2037 19.2901C24.1744 19.2901 24.1452 19.2901 24.1159 19.2901C24.1159 19.2901 24.0866 19.2901 24.0574 19.2901C23.9988 19.2901 23.9696 19.2901 23.9403 19.2303C23.9403 19.2303 23.9403 19.2303 23.9403 19.1706C23.9403 19.1706 23.9403 19.1408 23.911 19.1109C23.8525 19.0512 23.794 18.9914 23.7062 18.9616C23.6769 18.9616 23.6184 18.9019 23.5892 18.872C23.5892 18.872 23.5599 18.8421 23.5306 18.8123C23.5306 18.8123 23.5306 18.7824 23.5014 18.7526C23.5014 18.7526 23.5014 18.7526 23.4721 18.7526C23.4721 18.7526 23.4721 18.7526 23.4428 18.7526C23.3551 18.7526 23.238 18.7526 23.1502 18.8421C23.1502 18.8421 23.121 18.872 23.0917 18.9019C23.0917 18.9019 23.0624 18.9317 23.0332 18.9616C23.0332 18.9616 23.0039 19.0213 22.9746 19.0512C22.9454 19.1109 22.9161 19.1706 22.8869 19.2602C22.6527 19.8574 22.3894 19.6782 22.4479 19.8873C22.4479 19.8873 22.5064 19.9171 22.6235 19.947C22.6527 19.947 22.7113 19.947 22.7405 19.947C22.7698 19.947 22.8283 19.947 22.8869 19.947C22.9454 19.947 22.9746 19.947 23.0332 19.947H23.0917C23.0917 19.947 23.0917 19.947 23.121 19.947C23.121 19.947 23.121 19.947 23.1502 19.947C23.1502 19.947 23.1502 19.947 23.1795 19.947C23.1795 19.947 23.1795 19.947 23.2087 19.947C23.2087 19.947 23.238 19.947 23.2673 19.947C23.2965 19.947 23.3258 19.947 23.3551 19.9171C23.3843 19.9171 23.4136 19.9171 23.4428 19.9171C23.5014 19.9171 23.5599 19.9171 23.5892 19.9171C23.6184 19.9171 23.6769 19.947 23.7355 20.0366C23.7647 20.0963 23.8233 20.1859 23.8233 20.2755L23.8525 19.8275ZM26.5447 10.9888V8.12217C23.9696 8.21175 21.6285 9.28674 19.8728 10.9589L21.8627 12.9895C23.121 11.8249 24.7597 11.1082 26.5447 10.9888ZM26.5447 7.31594V4.44931C22.9746 4.53889 19.7265 6.03193 17.3269 8.36106L19.3168 10.3916C21.2189 8.57008 23.7647 7.43538 26.5447 7.31594ZM16.7709 8.92841C14.4884 11.4068 13.0253 14.7214 12.9375 18.3345H15.7467C15.8345 15.4978 16.9758 12.8999 18.7608 10.9589L16.7709 8.92841ZM12.9375 19.1408C12.9667 20.6338 13.2301 22.0671 13.6983 23.4108C13.6983 23.4108 13.7276 23.4108 13.7568 23.4108C14.0495 23.4108 14.4299 23.4108 14.6055 23.2615C14.8688 23.0525 14.6055 22.2761 14.8103 21.9477C15.0151 21.5595 15.5711 20.6039 15.7175 20.5741C15.8638 20.5741 15.8638 20.6636 15.9223 20.6935C15.8345 20.1859 15.776 19.6782 15.776 19.1408H12.9667H12.9375ZM26.5447 33.8322C22.7698 33.7426 19.3168 32.16 16.7709 29.6816L14.781 31.7121C17.9707 34.8475 22.126 36.5794 26.574 36.6988V33.8322H26.5447ZM26.5447 30.1593C24.0574 30.0698 21.6871 29.1441 19.785 27.5316C19.8143 27.5913 19.8728 27.651 19.902 27.6809C20.0191 27.9198 20.4873 28.3677 20.1947 28.5469C19.9606 28.6962 19.5509 28.6066 19.346 28.6066C19.1119 28.6066 18.7608 28.9649 18.5267 29.0246C18.2633 29.0844 18.117 29.0246 17.8536 28.935C17.7951 28.935 17.7073 28.8455 17.6195 28.7857L17.2976 29.1142C19.7265 31.4433 22.9746 32.9364 26.5154 33.026V30.1593H26.5447ZM26.5447 29.1441C26.135 29.1739 25.5498 29.1441 25.4035 29.0545C25.1108 28.8455 24.7597 28.6364 24.7011 28.4871C24.6426 28.1885 24.2329 27.9795 24.2329 27.7108C24.2329 27.4122 24.6426 27.3226 24.5256 27.024C24.4378 26.7851 24.6719 26.4865 25.0816 26.2775C23.8525 25.9788 22.7405 25.3518 21.8041 24.5157L19.8143 26.5462C21.6578 28.2781 23.9988 29.2635 26.5154 29.383V29.1739L26.5447 29.1441ZM27.1592 25.292C27.4519 25.2323 27.7737 25.1427 28.0371 25.1129C28.3297 25.083 28.0371 25.5011 28.2127 25.5309C28.4175 25.5309 29.2954 25.7101 29.3539 25.5309C29.4125 25.3518 29.4125 25.292 29.588 25.2622C29.9392 25.1726 30.2026 25.2025 30.5245 24.9636C30.6415 24.874 30.8463 24.8441 30.9049 24.7247C30.9634 24.6053 30.8463 24.008 30.6415 24.0976C30.5245 24.1573 30.4074 24.3066 30.2026 24.3962C29.9977 24.4858 29.8514 24.5455 29.7051 24.3365C29.588 24.1573 29.7929 24.008 29.8807 23.8886C30.0562 23.7094 30.2026 23.5303 30.3781 23.5303C30.4367 23.5303 30.8171 23.3511 30.7878 23.1719C30.7586 22.9331 30.2903 23.1719 30.2026 23.1122C30.144 23.0525 30.2026 22.8733 30.144 22.8435C30.0855 22.8435 29.9392 23.0525 30.0562 23.1719C30.1148 23.2317 29.9392 23.4108 29.7636 23.2914C29.6173 23.2018 29.588 23.7393 29.588 23.8289C29.588 23.9185 29.7929 23.8886 29.6758 24.0678C29.5295 24.2469 29.5003 24.1275 29.3832 24.2171C29.2661 24.3365 29.2369 24.3664 29.3832 24.5157C29.5003 24.6351 29.3247 24.874 29.2661 24.665C29.2661 24.5157 28.9443 24.5754 28.8857 24.3962C28.8272 24.2171 28.5931 24.2469 28.2712 24.0976C28.0371 23.9782 28.0664 24.3365 28.4468 24.4261C28.7687 24.5157 28.7687 24.5455 28.6516 24.7546C28.5638 24.9337 28.5931 24.6351 28.2127 24.5157C27.9493 24.4559 27.9493 24.3066 27.7445 24.3066C27.5396 24.3066 27.5982 24.4858 27.3933 24.4559C27.247 24.4261 27.2178 24.6351 27.0714 24.6948C26.8959 24.7844 26.8959 25.1129 26.7203 25.2025C26.4569 25.3518 25.9009 25.2323 25.9302 24.9636C25.9302 24.6948 25.9594 24.4858 26.135 24.3962C26.2813 24.3066 26.4862 24.5455 26.691 24.4559C26.8959 24.3664 26.8373 24.1573 26.691 24.008C26.6618 23.9483 26.5154 23.8886 26.5154 23.8289C26.5154 23.7692 26.8081 23.7393 26.9544 23.6497C27.1007 23.5601 27.247 23.2914 27.3348 23.2317C27.4226 23.1719 27.5689 23.1421 27.5689 23.0824C27.5689 23.0226 27.4519 22.8733 27.4811 22.7838C27.5104 22.6942 27.5104 22.6344 27.5982 22.6344C27.6567 22.6344 27.7445 22.8435 27.7152 22.9032C27.6567 22.9629 27.7445 23.0525 27.8323 23.0226C27.9201 22.9928 28.2712 22.8435 28.359 22.8136C28.4761 22.7838 28.3297 22.4851 28.359 22.4254C28.3883 22.3657 28.4468 22.4254 28.4761 22.3956C28.5346 22.3358 28.359 22.306 28.3883 22.1865C28.3883 22.097 28.7394 22.0074 28.6516 21.9477C28.5638 21.8879 28.4175 22.0671 28.359 22.097C28.1834 22.1865 28.0956 21.9775 28.0956 21.8282C28.0956 21.7685 28.1834 21.4997 28.0956 21.4699C27.9786 21.4102 27.9493 21.7088 27.9493 21.7685C27.9493 21.8581 27.8615 21.9775 27.9493 22.2164C28.0078 22.3358 27.9786 22.7838 27.8615 22.8435C27.7152 22.9032 27.6567 22.6344 27.5982 22.515C27.5982 22.515 27.5982 22.4851 27.5689 22.4851C27.5689 22.4851 27.5689 22.5449 27.5396 22.5449C27.5396 22.5449 27.5104 22.6046 27.4811 22.6942C27.4811 22.7539 27.4226 22.7838 27.3933 22.7838C27.247 22.7838 27.1007 22.7838 26.9544 22.7838C26.8959 22.7838 26.8373 22.7838 26.7788 22.7838C26.7788 22.8733 26.8373 22.9629 26.8666 23.0226C26.9544 23.1719 27.1007 23.2914 27.0714 23.4108C27.0714 23.5303 26.6032 23.6199 26.5447 23.5303C26.4862 23.4407 26.6618 23.2317 26.6325 23.1421C26.6325 22.9629 26.5154 22.8733 26.5447 22.7539C25.7546 22.6643 24.9938 22.3358 24.4085 21.8581L22.4186 23.8886C23.4136 24.7844 24.6426 25.3816 26.018 25.5907C26.2228 25.4712 26.2813 25.2622 26.4569 25.3816C26.691 25.5608 26.9836 25.3219 27.1885 25.292H27.1592ZM27.3348 30.1295V32.9961C28.4761 32.9662 29.588 32.7871 30.6415 32.4885C30.4074 32.3093 30.3196 31.9808 30.0562 31.8913C29.588 31.7121 29.471 31.4433 29.7051 30.9954C29.8514 30.7565 29.7929 30.667 29.6173 30.4281C29.4125 30.1295 29.1784 29.9802 28.9735 29.9205C28.4175 30.01 27.8615 30.0996 27.3055 30.0996L27.3348 30.1295ZM28.6809 29.1739C28.6809 29.1739 28.3883 29.0545 28.2712 29.1142C27.803 29.2337 27.9786 28.8753 27.3348 28.9649V29.3232C27.803 29.3232 28.2419 29.2635 28.6809 29.1739ZM39.1277 31.6822L37.1379 29.6517C36.1137 30.6371 34.9431 31.5031 33.6556 32.16C33.2459 32.4885 32.7192 32.7274 32.3387 32.9065C32.1632 32.9961 31.9876 33.0857 31.812 33.0857C31.7535 33.0857 31.695 33.0857 31.6364 33.026C30.2903 33.5037 28.8272 33.7426 27.3348 33.8023V36.669C31.7535 36.5794 35.9381 34.8176 39.1277 31.6822ZM35.1772 10.8992C35.1772 10.8992 35.1772 10.8992 35.1772 10.9291C35.6455 11.4367 36.0551 12.0041 36.4355 12.6013C36.4648 12.5415 36.5233 12.4818 36.5819 12.5714C36.6696 12.6909 36.4648 12.8999 36.7867 12.8402C36.9623 12.8103 36.933 13.0492 36.7867 13.1686C36.8745 13.3478 36.9623 13.4971 37.0501 13.6763C37.1671 13.736 37.2256 13.7957 37.2549 13.8554C37.3134 14.0644 37.4012 14.2735 37.4012 14.5124C37.5475 14.8707 37.6646 15.2589 37.7816 15.6172C37.9279 15.4978 38.1035 15.5575 38.1035 15.7665C38.1035 15.9755 38.045 16.2144 37.9572 16.3936C38.0743 17.0206 38.1621 17.6477 38.1913 18.3047H41.0005C40.942 16.4533 40.5323 14.6019 39.8008 12.8999C39.7422 12.9596 39.6837 12.9596 39.5667 13.079C39.4204 13.2582 39.1863 13.0193 39.0692 12.87C38.8351 12.5714 38.2791 11.7353 38.0157 11.7055C37.8109 11.6756 37.6646 11.4068 37.4305 11.3471C37.2256 11.2874 36.933 11.168 36.9037 10.9291C36.8745 10.6902 36.7867 10.6006 36.5233 10.5409C36.26 10.511 36.0551 10.3916 35.8503 10.1826L35.1772 10.8694C35.1772 10.8694 35.1772 10.8694 35.1772 10.8992ZM36.9623 28.3677L37.1086 28.517C39.3911 26.0386 40.8542 22.7539 40.942 19.1109H38.1328C38.045 21.9477 36.9038 24.5455 35.1187 26.4865L36.1429 27.5316C36.1429 27.5316 36.1429 27.5316 36.1429 27.5017C36.2307 27.3226 36.2014 27.0837 36.2014 26.9045C36.2014 26.7851 36.6111 26.8149 36.6111 26.9941C36.6111 27.1434 36.6989 27.2629 36.8452 27.6212C36.933 27.8899 36.9915 28.1288 36.933 28.3378L36.9623 28.3677ZM34.8261 30.1593C34.7383 30.3385 34.3871 30.667 34.4457 30.7864C35.2065 30.2788 35.9088 29.7413 36.5819 29.0844L34.592 27.0538C34.592 27.0538 34.2994 27.3226 34.153 27.442C34.1238 27.6809 34.153 27.8601 34.4164 27.9496C34.709 28.0392 35.2358 28.3677 35.1187 28.6663C35.0017 28.935 34.709 29.3531 34.5627 29.6218C34.4457 29.8607 34.9139 29.9503 34.8261 30.1593ZM35.2943 18.2748C35.2943 18.2748 35.2943 18.2748 35.2943 18.3047H37.372C37.372 18.0061 37.3427 17.7074 37.3134 17.4088C37.3134 17.4387 37.2842 17.4686 37.2549 17.4984C37.1086 17.8269 37.0793 17.6179 37.0793 17.4984C37.0793 17.3193 37.1671 17.1401 37.2256 16.9609C37.2256 16.8713 37.1964 16.7519 37.1671 16.6623C37.1086 16.7519 37.0208 16.8116 36.8745 16.9012C36.7867 16.9609 36.6989 17.17 36.6696 17.2595C36.6404 17.3491 36.4063 17.2595 36.2014 17.3193C35.8796 17.4686 35.5284 17.4984 35.7625 17.8567C35.9088 18.0658 35.3821 18.0061 35.2943 18.3047V18.2748ZM34.5627 11.4964L32.5728 13.527C32.924 13.9151 33.2166 14.3332 33.48 14.7811C33.7141 14.811 34.036 14.9005 34.2408 15.1991C34.3871 15.3783 34.7968 15.7665 34.7383 15.9457C34.709 16.0651 34.7968 16.1845 34.8846 16.2443C35.0309 16.3637 35.148 16.3339 35.2065 16.2443C35.3528 16.0651 35.3821 15.7964 35.5577 15.6172C35.7918 15.4082 36.2892 16.0054 36.2892 16.095C36.2892 16.2144 36.1722 16.2144 36.1137 16.4234C36.0551 16.6922 35.8503 16.9908 36.1137 17.0804C36.4648 17.1998 36.5233 17.0804 36.6989 16.8116C36.7867 16.6922 36.7574 16.513 36.8452 16.3936C36.9038 16.3339 36.9915 16.2741 37.0501 16.2443C36.9038 15.6769 36.7282 15.1096 36.5233 14.6019C36.4648 14.5422 36.4063 14.5124 36.3185 14.4825C36.2014 14.4526 36.26 14.3332 36.0844 14.2735C35.8796 14.2137 35.821 14.154 35.7918 13.7957C35.7918 13.527 36.0259 13.8853 36.0844 13.8256C36.0844 13.8256 36.0844 13.8256 36.1137 13.7658C35.6747 12.9297 35.148 12.1832 34.5335 11.4964H34.5627ZM32.1339 14.2436C32.1339 14.2436 31.9583 14.2436 31.8998 14.1839L31.256 14.8408C31.256 14.8408 31.5194 14.8408 31.6657 14.9005C31.8413 14.9901 31.7535 14.3929 32.0169 14.4526C32.2802 14.5124 32.368 14.6915 32.1339 14.7811C31.9583 14.8408 32.1924 14.9901 31.9583 15.0797C31.7535 15.1394 32.1339 15.3186 32.1046 15.4082C32.1046 15.5276 31.8413 15.5575 32.2217 15.6769C32.6314 15.7964 32.2217 15.3186 32.2802 15.2589C32.368 15.1693 32.5728 15.3783 32.6314 15.2887C32.6314 15.2589 32.6899 15.1991 32.7484 15.1394C32.5728 14.811 32.3387 14.5124 32.1046 14.2137L32.1339 14.2436ZM31.1097 24.9039C31.1097 24.9039 30.9634 24.9039 30.9341 24.9934C30.9049 25.0532 32.0461 25.5907 32.2217 25.6205C32.3387 25.6205 32.5728 25.74 32.9825 25.6205C33.2752 25.5608 33.3337 25.7101 33.48 25.6802C33.6556 25.6802 33.7726 25.4115 33.8897 25.2622C34.1823 24.8441 34.1238 24.7844 34.1823 24.7247C34.2701 24.6351 34.5627 25.292 34.5335 25.6802C34.5335 25.74 34.5335 25.7997 34.5335 25.8594H34.5627C36.2014 24.0976 37.2256 21.7088 37.3427 19.081H35.2065C35.2065 19.081 35.4113 19.3796 35.5284 19.6484C35.6455 19.8873 35.704 20.2456 35.8796 20.2456C36.1722 20.2456 36.4648 20.5143 36.4941 20.7234C36.4941 21.1713 35.1772 21.2609 35.0017 21.2011C34.8554 21.1414 34.7676 21.1414 34.7383 21.3803C34.7383 21.649 34.2701 21.649 34.0653 21.7984C33.8604 21.9775 33.8312 22.306 33.6848 22.515C33.597 22.6643 33.0996 23.1122 32.9825 23.2317C32.6606 23.4705 32.0754 23.4705 32.3387 23.6199C32.5436 23.7393 32.9825 23.7692 32.924 23.6497C32.8655 23.5303 32.9533 23.5303 33.0411 23.6199C33.0996 23.6796 33.3044 23.5601 33.3044 23.4108C33.3044 23.2914 33.2752 23.0824 33.3922 23.0525C33.597 23.0525 33.7726 22.8136 33.8897 22.8435C34.0067 22.8435 34.153 23.1122 34.036 23.8587C33.9189 24.6053 33.5678 25.1129 33.4507 25.3518C33.3044 25.5907 33.1581 25.4115 32.9533 25.292C32.6899 25.1726 32.3095 25.1726 32.0461 25.083C31.8998 25.0233 31.1097 24.7247 31.139 24.8441L31.1097 24.9039ZM44.5414 19.081H41.7321C41.6443 22.9331 40.0934 26.4566 37.6646 29.0545L39.6545 31.085C42.7271 27.8302 44.4243 23.59 44.5414 19.0512V19.081ZM39.6545 6.24095L37.5768 8.36106C37.7816 8.68952 38.1328 9.13743 38.6303 9.64507C38.8351 9.85409 39.0692 10.0631 39.2448 10.2721C39.4204 10.4513 40.5616 11.8846 40.3275 12.1235C40.3275 12.1235 40.2982 12.1534 40.269 12.1534C41.1469 14.0644 41.6443 16.1547 41.7029 18.2449H44.5121C44.4243 13.736 42.6978 9.4659 39.6252 6.21109L39.6545 6.24095ZM27.3055 3.58335C29.6466 3.64307 31.9291 4.27015 33.9482 5.37499C34.1238 5.34513 34.3286 5.31527 34.4457 5.25555C34.709 5.13611 35.1772 5.40485 35.4406 5.55416C35.6454 5.6736 35.821 5.88262 36.0551 6.00207C36.2892 6.15137 36.6989 6.53956 36.7867 6.95761C36.8745 7.37566 37.1379 7.3458 36.9915 7.4951C36.933 7.58468 37.0208 7.61454 37.1379 7.67426L39.0985 5.6736C35.9088 2.53823 31.7535 0.806313 27.3055 0.686871V3.55349V3.58335ZM27.3055 7.25621C29.7051 7.3458 31.8998 8.18189 33.6848 9.58534C33.48 9.3166 33.2752 9.01799 33.1874 8.92841C33.0118 8.74925 32.368 8.51036 32.4265 8.39092C32.4851 8.27148 33.0703 8.74925 33.1581 8.65967C33.2752 8.57008 32.8655 8.03259 32.8947 8.00273C32.924 8.00273 33.4215 8.45064 33.6556 8.86869C33.7434 9.01799 34.0067 8.92841 34.2116 9.07771C34.3871 9.19716 34.4164 9.40618 34.5627 9.55548C34.5627 9.55548 34.9139 9.76451 34.709 9.73465C34.6505 9.73465 34.5627 9.6152 34.5042 9.67493C34.4749 9.70479 34.5042 9.91381 34.6505 10.1228L35.5869 9.1673C35.4406 8.89855 35.1772 8.51036 35.0017 8.4805C34.7968 8.42078 34.6798 8.59994 34.5627 8.71939C34.4164 8.83883 34.2701 8.86869 34.2408 8.77911C34.2408 8.68953 34.2408 8.4805 34.2408 8.39092C34.2408 8.27148 34.153 8.18189 34.1238 8.09231C34.0653 7.85343 34.153 7.55482 34.0067 7.40552C33.8312 7.22635 33.7434 6.95761 33.597 6.74858C33.4507 6.5097 33.2166 6.18123 33.1874 5.88262C31.3731 4.95694 29.3539 4.41945 27.247 4.35973V7.22635L27.3055 7.25621ZM27.3055 10.9291C29.0906 11.0187 30.7293 11.7652 31.9876 12.9297L33.9775 10.8992C32.2217 9.22702 29.8807 8.18189 27.3055 8.06245V10.9291ZM27.3055 14.6019C27.5689 14.6019 27.8323 14.6915 28.0956 14.7512C28.1542 14.5721 28.3297 14.5124 28.4761 14.3929C28.6516 14.2735 28.7687 14.154 28.7394 14.4526C28.7394 14.6617 28.6224 14.811 28.5346 14.9005C28.7979 15.02 29.0613 15.1693 29.3247 15.3485C29.3832 15.3783 29.4417 15.438 29.471 15.4679L29.7344 15.1991C29.7344 15.1991 29.7344 15.1991 29.7344 15.1693C29.7344 15.02 29.9685 14.811 30.2318 14.7214L31.1097 13.8256C31.1097 13.8256 31.0804 13.8256 31.0512 13.8256C30.9341 13.8256 30.7586 14.0644 30.6415 14.0047C30.5245 13.9151 31.0219 13.4672 31.256 13.5568C31.2853 13.5568 31.3145 13.5568 31.3438 13.5867L31.4609 13.4672C30.3489 12.452 28.915 11.795 27.3348 11.7055V14.5721L27.3055 14.6019ZM26.9251 15.3783C26.6032 15.3783 26.2813 15.438 25.9594 15.5276C25.9302 15.5873 25.9009 15.6172 25.9009 15.6471C25.9887 15.7665 26.2228 15.5276 26.2521 15.7366C26.2521 15.8859 25.9887 15.7665 26.018 15.8859C26.018 15.9755 26.2228 15.9457 26.2521 16.0651C26.2521 16.1845 26.135 16.4234 26.0472 16.4832C25.9302 16.5727 25.2571 16.6623 25.1694 16.8116C25.1108 16.9609 25.0523 17.0804 24.9352 17.1998C24.8182 17.3193 24.2915 17.6477 24.2915 17.7373C24.2915 17.9463 24.5548 17.6776 24.6134 17.6179C24.7304 17.4984 24.8767 17.4984 25.0523 17.379C25.2864 17.2297 25.3742 17.7373 25.1401 17.7373C24.9938 17.7373 24.8475 18.2151 24.5841 18.1255C24.5256 18.1255 24.35 17.9762 24.2915 18.1255C24.2622 18.2449 24.6719 18.2748 24.7889 18.3644C25.1108 18.5734 24.5256 18.5734 24.4378 18.6331C24.35 18.6928 24.3793 18.8123 24.5256 18.7824C24.6426 18.7227 24.8182 18.6033 24.8767 18.7824C24.9645 19.081 24.4085 20.0963 24.2622 20.0067C24.1744 19.947 24.0866 20.0067 23.9988 20.0664C24.1159 20.3053 24.2622 20.5143 24.4085 20.7234C24.5256 20.5442 24.7011 20.2755 24.7597 20.2755C24.8767 20.2755 24.8182 20.1859 24.8767 20.1262C24.9352 20.0366 25.0523 20.1262 25.0523 20.0067C25.0523 19.8873 25.3742 19.7081 25.4035 19.5289C25.4035 19.4394 25.3157 19.3199 25.3449 19.2602C25.4035 19.1706 25.4327 19.1408 25.5205 19.1109C25.579 19.1109 25.7253 19.2303 25.7839 19.1706C25.8424 19.1109 26.0472 19.1706 26.2228 19.2602C26.3106 19.3199 26.4569 19.2602 26.5447 19.3796C26.6618 19.5588 26.5447 19.5887 26.5447 19.6185C26.5447 19.6484 26.6325 19.6185 26.6618 19.6185C26.7203 19.6782 26.3399 19.9171 26.3691 20.0664C26.4277 20.1859 26.018 20.8428 25.9302 20.9324C25.7839 21.0518 25.5498 20.9324 25.462 20.9324C25.3742 20.9324 25.3449 21.0518 25.1986 21.022C25.0816 21.022 24.9352 21.022 24.7889 21.1116C25.3449 21.6192 26.1058 21.9178 26.8959 21.9178C27.0714 21.9178 27.247 21.9178 27.3933 21.8879C27.5104 21.7386 27.5396 21.5893 27.5689 21.4102C27.5689 21.3206 27.5689 21.2011 27.6274 21.1116C27.6567 21.0518 27.9201 20.7234 28.0371 20.7234C28.1249 20.7234 28.1834 20.813 28.3297 20.7532C28.5931 20.6636 28.7394 20.7532 28.7394 20.8428C28.7394 20.9921 28.4175 20.9623 28.4175 21.0518C28.4175 21.1116 28.6516 21.2011 28.7394 21.1116C28.8857 20.9324 28.8565 20.7234 28.8272 20.6636C28.7102 20.5442 28.7394 20.4845 28.8857 20.5143C28.9735 20.5442 28.9735 20.1859 29.0613 20.0366C29.1784 19.8574 28.8565 19.9769 28.7102 20.0067C28.5638 20.0067 28.4761 19.738 28.4761 19.6484C28.4761 19.5887 28.7394 19.9171 28.8565 19.9171C29.0028 19.9171 29.1784 19.7678 29.1784 19.6185C29.1784 19.4991 28.915 19.4692 28.8565 19.3199C28.8565 19.2303 29.0906 19.3199 29.0613 19.2303C29.0613 19.1706 29.0613 18.9914 28.915 18.9019C28.7687 18.8421 28.6224 18.3345 28.4761 18.2748C28.359 18.2449 28.2712 18.3942 28.2127 18.454C28.1542 18.5137 28.0371 18.4241 28.0956 18.3644C28.1834 18.2748 28.359 18.1255 28.3883 18.0061C28.4468 17.797 28.7394 18.006 28.6809 17.7074C28.6224 17.379 28.359 17.4387 28.4761 17.2894C28.5931 17.1401 28.5053 16.8713 28.2419 16.9311C28.1249 16.9311 27.9786 16.7519 27.9786 16.5727C27.9786 16.4832 27.686 16.4832 27.7152 16.3936C27.7152 16.1845 27.4226 16.1547 27.247 16.1845C27.0714 16.1845 26.691 15.9158 26.6618 15.8262C26.6325 15.7665 26.3691 15.8859 26.4569 15.6172C26.5447 15.3485 26.8081 15.6769 26.8959 15.6172C27.0129 15.5276 26.9836 15.438 26.9544 15.3783C26.9544 15.3783 26.9251 15.3783 26.8959 15.3783H26.9251ZM14.7225 5.79304L16.7124 7.82357C19.2875 5.34513 22.7113 3.79238 26.4862 3.67294V0.806313C22.0675 0.895895 17.8829 2.65767 14.6933 5.79304H14.7225ZM9.27963 18.3942H12.0889C12.1767 14.5422 13.7276 11.0187 16.1564 8.42078L14.1665 6.39025C11.0939 9.64507 9.39668 13.8853 9.27963 18.4241V18.3942Z" fill="#009BD9"/>
</g>
<defs>
<clipPath id="clip0_534_743">
<rect width="393" height="45" fill="white" transform="translate(0.5)"/>
</clipPath>
</defs>
</svg>
