<svg width="809" height="92" viewBox="0 0 809 92" fill="none" xmlns="http://www.w3.org/2000/svg">
<g clip-path="url(#clip0_516_355)">
<path d="M524.891 74.8681C521.883 78.4912 517.671 81.2689 512.197 83.2616C506.722 85.2543 500.645 86.2204 494.027 86.2204C487.048 86.2204 480.911 84.7108 475.617 81.6312C470.323 78.5516 466.292 74.1435 463.404 68.2861C460.516 62.4892 459.072 55.6053 459.012 47.7553V42.2603C459.012 34.1687 460.395 27.164 463.103 21.2463C465.81 15.3286 469.721 10.7997 474.835 7.65973C479.949 4.51971 485.965 2.94971 492.824 2.94971C502.39 2.94971 509.91 5.24433 515.265 9.83358C520.68 14.4228 523.868 21.0652 524.831 29.821H508.647C507.925 25.1713 506.3 21.7898 503.713 19.6159C501.187 17.4421 497.697 16.4155 493.245 16.4155C487.59 16.4155 483.258 18.529 480.31 22.8163C477.362 27.1037 475.858 33.4441 475.797 41.8376V47.0307C475.797 55.5449 477.422 61.9457 480.611 66.2934C483.799 70.6411 488.552 72.815 494.749 72.815C501.006 72.815 505.458 71.4865 508.105 68.8296V54.8807H492.944V42.5622H524.711V74.9285L524.891 74.8681Z" fill="#009DDA"/>
<path d="M662.364 68.4674H633.184L627.649 85.1337H609.961L640.043 4.09717H655.445L685.647 85.1337H667.959L662.364 68.4071V68.4674ZM637.696 54.9412H657.911L647.744 24.628L637.696 54.9412Z" fill="#009DDA"/>
<path d="M707.306 71.7282H742.622V85.1337H690.641V4.09717H707.306V71.7282Z" fill="#009DDA"/>
<path d="M791.536 63.878C791.536 60.738 790.453 58.3226 788.227 56.6319C786.001 54.9411 782.03 53.1899 776.254 51.2576C770.478 49.3857 765.906 47.5137 762.537 45.7022C753.392 40.7506 748.759 34.0479 748.759 25.594C748.759 21.2463 749.963 17.3213 752.429 13.8794C754.896 10.4374 758.446 7.7805 763.018 5.84818C767.651 3.91586 772.765 2.94971 778.54 2.94971C784.316 2.94971 789.43 3.97625 793.942 6.08972C798.455 8.20319 801.944 11.1621 804.471 14.9663C806.938 18.7705 808.201 23.1183 808.201 28.0094H791.536C791.536 24.326 790.393 21.4275 788.046 19.3744C785.7 17.3213 782.451 16.2948 778.24 16.2948C774.148 16.2948 771.02 17.1402 768.734 18.8913C766.447 20.6425 765.365 22.8767 765.365 25.7148C765.365 28.3717 766.688 30.5456 769.335 32.3571C771.983 34.1687 775.893 35.7991 781.007 37.3691C790.453 40.2072 797.372 43.7699 801.704 47.9968C806.035 52.2238 808.201 57.4772 808.201 63.8177C808.201 70.8223 805.554 76.3173 800.26 80.3027C794.965 84.2881 787.866 86.2808 778.901 86.2808C772.705 86.2808 767.049 85.1335 761.935 82.8389C756.821 80.5443 752.971 77.4043 750.263 73.4792C747.556 69.4938 746.232 64.9046 746.232 59.6511H762.898C762.898 68.5881 768.192 73.0565 778.841 73.0565C782.812 73.0565 785.88 72.2715 788.106 70.6411C790.332 69.0108 791.415 66.7765 791.415 63.878H791.536Z" fill="#009DDA"/>
<path d="M552.023 33.746C553.046 31.9948 554.249 30.4248 555.693 28.9756L543.66 15.6909C540.652 18.5894 538.065 21.9709 536.02 25.6544L552.023 33.6856V33.746Z" fill="#5FBA46"/>
<path d="M581.564 24.3262C583.369 25.1716 585.114 26.2585 586.618 27.5266L598.711 14.3023C595.522 11.5246 591.913 9.29039 588.002 7.59961L581.564 24.3866V24.3262Z" fill="#D6A102"/>
<path d="M609.24 28.3115L593.236 36.3427C594.018 38.1543 594.56 40.0262 594.861 42.0189L612.669 40.3281C612.128 36.1012 610.985 32.0554 609.24 28.3115Z" fill="#C11728"/>
<path d="M592.093 34.0479L608.096 26.0167C606.111 22.3332 603.584 18.9517 600.636 16.0532L588.543 29.2775C589.927 30.7267 591.13 32.2968 592.093 34.0479Z" fill="#289438"/>
<path d="M548.896 45.461C548.896 45.0987 548.896 44.7364 548.896 44.374L531.088 42.7437C531.088 43.6494 531.027 44.4948 531.027 45.4006C531.027 48.8425 531.448 52.1637 532.231 55.3641L549.437 50.4125C549.076 48.7821 548.896 47.1517 548.896 45.4006" fill="#4A7634"/>
<path d="M589.867 60.1343C588.604 61.7043 587.16 63.0328 585.535 64.2405L594.921 79.5178C598.41 77.1628 601.539 74.2643 604.126 70.9432L589.867 60.1343Z" fill="#FBB800"/>
<path d="M595.102 45.461C595.102 47.1517 594.922 48.7821 594.561 50.4125L611.767 55.3641C612.55 52.2241 612.971 48.9029 612.971 45.461C612.971 44.6156 612.971 43.7702 612.911 42.9248L595.102 44.6156C595.102 44.6156 595.102 45.159 595.102 45.461Z" fill="#E6331D"/>
<path d="M554.37 60.4966L540.111 71.3659C542.759 74.6266 545.887 77.4647 549.437 79.8197L558.822 64.5424C557.138 63.3951 555.694 62.0062 554.37 60.4966Z" fill="#F59D08"/>
<path d="M549.136 41.7775C549.437 39.7848 550.039 37.8525 550.821 36.041L534.817 28.0098C533.072 31.814 531.809 35.8598 531.268 40.1471L549.076 41.7775H549.136Z" fill="#0076B8"/>
<path d="M592.694 80.9068L583.309 65.6294C581.624 66.5956 579.759 67.3806 577.834 67.8636L581.143 85.496C585.294 84.5299 589.145 82.9599 592.694 80.8464" fill="#931831"/>
<path d="M593.898 52.8882C593.296 54.6997 592.454 56.4509 591.371 58.0813L605.63 68.8902C607.976 65.569 609.781 61.8251 611.045 57.8397L593.838 52.8882H593.898Z" fill="#00A7D7"/>
<path d="M575.308 68.4071C574.225 68.5882 573.082 68.6486 571.999 68.6486C571.096 68.6486 570.194 68.6486 569.291 68.4675L565.982 86.0998C567.968 86.4018 569.953 86.5225 571.999 86.5225C574.285 86.5225 576.451 86.3414 578.617 85.9791L575.308 68.3467V68.4071Z" fill="#EC6411"/>
<path d="M573.441 22.273C575.427 22.3938 577.352 22.7561 579.157 23.3599L585.595 6.57295C581.744 5.24448 577.713 4.39909 573.441 4.27832V22.2126V22.273Z" fill="#E2071F"/>
<path d="M566.764 68.0449C564.778 67.5619 562.853 66.8373 561.108 65.8711L551.723 81.1485C555.332 83.2015 559.303 84.7716 563.515 85.6773L566.824 68.0449H566.764Z" fill="#DD0979"/>
<path d="M565.019 23.2997C566.884 22.6959 568.809 22.3336 570.855 22.2732V4.33887C566.583 4.45964 562.432 5.24464 558.521 6.57311L565.019 23.2997Z" fill="#1F3262"/>
<path d="M552.807 58.4438C551.664 56.753 550.761 54.9414 550.099 52.9487L532.893 57.9003C534.216 62.0065 536.141 65.8711 538.548 69.313L552.807 58.4438Z" fill="#D28D0E"/>
<path d="M557.679 27.2249C559.183 26.0172 560.868 24.9906 562.613 24.2056L556.175 7.479C552.325 9.1094 548.775 11.2833 545.646 13.9402L557.679 27.2249Z" fill="#004C84"/>
<path d="M144.174 30.3044C144.174 29.0967 143.753 28.1305 142.91 27.4663C142.068 26.802 140.564 26.0774 138.398 25.3528C136.232 24.6282 134.487 23.9036 133.104 23.2393C128.652 21.0655 126.426 18.0462 126.426 14.1816C126.426 12.2493 126.967 10.6189 128.11 9.10927C129.193 7.66003 130.757 6.51272 132.803 5.72772C134.848 4.94271 137.135 4.52002 139.662 4.52002C142.188 4.52002 144.354 4.94271 146.28 5.84849C148.205 6.75426 149.769 7.96196 150.852 9.59235C151.935 11.2227 152.476 13.0947 152.476 15.2081H144.234C144.234 13.8193 143.813 12.7324 142.971 11.9474C142.128 11.1624 140.985 10.8 139.481 10.8C137.977 10.8 136.834 11.102 135.992 11.7662C135.149 12.4304 134.728 13.2758 134.728 14.242C134.728 15.1478 135.209 15.9328 136.112 16.6574C137.075 17.382 138.699 18.1066 141.105 18.8916C143.452 19.6766 145.437 20.4616 146.941 21.3674C150.672 23.4809 152.476 26.4397 152.476 30.244C152.476 33.2632 151.333 35.6182 149.107 37.309C146.821 38.9998 143.753 39.9056 139.782 39.9056C137.014 39.9056 134.487 39.4225 132.261 38.3959C130.035 37.3694 128.291 36.0409 127.147 34.2898C126.004 32.5386 125.463 30.5459 125.463 28.2513H133.766C133.766 30.1232 134.247 31.4517 135.209 32.3574C136.172 33.2028 137.676 33.6859 139.842 33.6859C141.226 33.6859 142.309 33.384 143.091 32.7801C143.873 32.1763 144.294 31.3309 144.294 30.3044H144.174Z" fill="#009BD9"/>
<path d="M184.062 5.06348V27.587C184.062 30.1232 183.521 32.3574 182.438 34.2294C181.355 36.1013 179.791 37.4902 177.745 38.5167C175.7 39.4829 173.353 39.9659 170.586 39.9659C166.434 39.9659 163.125 38.879 160.719 36.7051C158.312 34.5313 157.109 31.5724 157.049 27.7682V5.06348H165.351V27.9493C165.472 31.6932 167.217 33.6255 170.586 33.6255C172.27 33.6255 173.594 33.1424 174.496 32.2367C175.399 31.2705 175.82 29.7609 175.82 27.6474V5.06348H184.062Z" fill="#009BD9"/>
<path d="M207.406 30.3044C207.406 29.0967 206.985 28.1305 206.143 27.4663C205.301 26.802 203.796 26.0774 201.631 25.3528C199.465 24.6282 197.72 23.9036 196.336 23.2393C191.884 21.0655 189.658 18.0462 189.658 14.1816C189.658 12.2493 190.199 10.6189 191.343 9.10927C192.425 7.66003 193.99 6.51272 196.035 5.72772C198.081 4.94271 200.367 4.52002 202.894 4.52002C205.421 4.52002 207.587 4.94271 209.512 5.84849C211.437 6.75426 213.001 7.96196 214.084 9.59235C215.167 11.2227 215.709 13.0947 215.709 15.2081H207.466C207.466 13.8193 207.045 12.7324 206.203 11.9474C205.361 11.1624 204.218 10.8 202.713 10.8C201.209 10.8 200.066 11.102 199.224 11.7662C198.382 12.4304 197.961 13.2758 197.961 14.242C197.961 15.1478 198.442 15.9328 199.344 16.6574C200.307 17.382 201.931 18.1066 204.338 18.8916C206.684 19.6766 208.67 20.4616 210.174 21.3674C213.904 23.4809 215.709 26.4397 215.709 30.244C215.709 33.2632 214.566 35.6182 212.34 37.309C210.053 38.9998 206.985 39.9056 203.014 39.9056C200.247 39.9056 197.72 39.4225 195.494 38.3959C193.268 37.3694 191.523 36.0409 190.38 34.2898C189.237 32.5386 188.695 30.5459 188.695 28.2513H196.998C196.998 30.1232 197.479 31.4517 198.442 32.3574C199.404 33.2028 200.909 33.6859 203.074 33.6859C204.458 33.6859 205.541 33.384 206.323 32.7801C207.105 32.1763 207.527 31.3309 207.527 30.3044H207.406Z" fill="#009BD9"/>
<path d="M247.294 11.4643H237.006V39.4829H228.764V11.4643H218.656V5.06348H247.294V11.4643Z" fill="#009BD9"/>
<path d="M267.931 33.0215H256.62L254.635 39.4223H245.791L258.365 5.00293H266.126L278.821 39.4223H269.917L267.931 33.0215ZM258.606 26.6207H266.006L262.336 14.6645L258.666 26.6207H258.606Z" fill="#009BD9"/>
<path d="M290.553 39.4829H282.311V5.06348H290.553V39.4829Z" fill="#009BD9"/>
<path d="M325.447 39.4829H317.204L305.051 18.0462V39.4829H296.809V5.06348H305.051L317.204 26.5001V5.06348H325.447V39.4829Z" fill="#009BD9"/>
<path d="M351.017 33.0215H339.706L337.721 39.4223H328.877L341.451 5.00293H349.212L361.907 39.4223H353.003L351.017 33.0215ZM341.692 26.6207H349.092L345.422 14.6645L341.752 26.6207H341.692Z" fill="#009BD9"/>
<path d="M364.914 39.4829V5.06348H377.248C381.64 5.06348 385.009 5.84848 387.295 7.47887C389.581 9.10926 390.724 11.4643 390.724 14.5439C390.724 16.2951 390.303 17.8651 389.521 19.1332C388.679 20.4012 387.475 21.307 385.911 21.9109C387.716 22.3939 389.1 23.2393 390.063 24.5678C391.025 25.8359 391.506 27.4059 391.506 29.2778C391.506 32.6594 390.424 35.1955 388.318 36.8863C386.212 38.5771 383.023 39.4225 378.872 39.4829H364.974H364.914ZM373.156 19.4351H377.488C379.293 19.4351 380.557 19.0728 381.339 18.4689C382.121 17.8047 382.482 16.8385 382.482 15.5704C382.482 14.1212 382.061 13.0947 381.218 12.4304C380.376 11.7662 379.053 11.4643 377.187 11.4643H373.156V19.4351ZM373.156 24.8697V33.1424H378.571C380.075 33.1424 381.218 32.7801 382.001 32.1159C382.783 31.4517 383.204 30.4855 383.204 29.2174C383.204 26.3793 381.76 24.9301 378.932 24.8697H373.156Z" fill="#009BD9"/>
<path d="M404.742 33.0821H419.121V39.4829H396.439V5.06348H404.682V33.0821H404.742Z" fill="#009BD9"/>
<path d="M444.392 24.8697H431.396V33.0821H446.738V39.4829H423.094V5.06348H446.738V11.4643H431.336V18.7105H444.332V24.8697H444.392Z" fill="#009BD9"/>
<path d="M124.98 85.9189V52.9487H135.569C138.457 52.9487 141.104 53.613 143.391 54.9414C145.677 56.2699 147.542 58.1418 148.805 60.5572C150.129 62.9726 150.791 65.6899 150.791 68.6488V70.1584C150.791 73.1777 150.129 75.895 148.866 78.25C147.602 80.6654 145.797 82.5373 143.511 83.8658C141.225 85.1943 138.638 85.9189 135.81 85.9189H124.98ZM132.922 59.108V79.82H135.69C137.976 79.82 139.721 79.035 140.924 77.4046C142.127 75.7742 142.729 73.3588 142.729 70.1584V68.7092C142.729 65.5088 142.127 63.1538 140.924 61.5234C139.721 59.893 137.916 59.108 135.629 59.108H132.982H132.922Z" fill="#009DDA"/>
<path d="M175.218 71.9094H162.764V79.7594H177.444V85.8583H154.822V52.8882H177.504V59.0474H162.764V65.9917H175.218V71.849V71.9094Z" fill="#009DDA"/>
<path d="M195.493 76.9816L202.05 53.0088H210.894L199.824 85.9789H191.161L180.211 53.0088H188.995L195.493 76.9816Z" fill="#009DDA"/>
<path d="M233.638 71.9094H221.184V79.7594H235.864V85.8583H213.242V52.8882H235.924V59.0474H221.184V65.9917H233.638V71.849V71.9094Z" fill="#009DDA"/>
<path d="M246.994 79.82H260.772V85.9189H239.053V52.9487H246.994V79.82Z" fill="#009DDA"/>
<path d="M289.59 70.098C289.59 73.2984 288.989 76.1365 287.785 78.6123C286.582 81.0881 284.898 83.0204 282.732 84.3489C280.566 85.6773 278.039 86.3416 275.271 86.3416C272.504 86.3416 269.977 85.6773 267.811 84.4093C265.645 83.1412 263.961 81.2692 262.757 78.8538C261.554 76.4384 260.892 73.7211 260.832 70.5811V68.7092C260.832 65.5088 261.434 62.6103 262.577 60.1345C263.78 57.6588 265.465 55.7868 267.631 54.398C269.857 53.0695 272.323 52.4053 275.151 52.4053C277.979 52.4053 280.385 53.0695 282.611 54.398C284.777 55.7264 286.462 57.5984 287.725 60.0741C288.929 62.5499 289.53 65.3276 289.59 68.528V70.0377V70.098ZM281.528 68.7092C281.528 65.4484 280.987 62.9726 279.904 61.2215C278.821 59.5307 277.257 58.6853 275.211 58.6853C271.24 58.6853 269.135 61.6442 268.894 67.6223V70.0377C268.894 73.2381 269.375 75.7742 270.458 77.465C271.541 79.2162 273.105 80.0615 275.211 80.0615C277.317 80.0615 278.761 79.2162 279.844 77.5254C280.927 75.8346 281.468 73.3588 281.468 70.1584V68.6488L281.528 68.7092Z" fill="#009DDA"/>
<path d="M301.563 74.7477V85.9189H293.621V52.9487H306.737C309.264 52.9487 311.49 53.4318 313.415 54.3376C315.34 55.2434 316.844 56.5718 317.927 58.323C319.01 60.0138 319.492 62.0065 319.492 64.1803C319.492 67.3807 318.348 69.9773 316.062 71.9096C313.776 73.8419 310.647 74.8081 306.616 74.8081H301.563V74.7477ZM301.563 68.5884H306.737C308.241 68.5884 309.444 68.2261 310.226 67.4411C311.008 66.6561 311.43 65.5692 311.43 64.1803C311.43 62.6707 311.008 61.4026 310.166 60.4968C309.324 59.5911 308.181 59.108 306.797 59.108H301.503V68.5884H301.563Z" fill="#009DDA"/>
<path d="M333.569 52.9486L340.908 75.8948L348.188 52.9486H358.597V85.9187H350.655V78.2498L351.437 62.4894L343.496 85.9187H338.261L330.32 62.429L331.102 78.1894V85.8583H323.16V52.8882H333.569V52.9486Z" fill="#009DDA"/>
<path d="M383.325 71.9094H370.871V79.7594H385.551V85.8583H362.93V52.8882H385.611V59.0474H370.871V65.9917H383.325V71.849V71.9094Z" fill="#009DDA"/>
<path d="M415.933 85.9189H408.051L396.44 65.388V85.9189H388.498V52.9487H396.44L408.051 73.4796V52.9487H415.933V85.9189Z" fill="#009DDA"/>
<path d="M446.557 59.108H436.69V85.9189H428.749V59.108H419.062V52.9487H446.497V59.108H446.557Z" fill="#009DDA"/>
<path d="M86.7165 83.2616C86.7165 83.2616 86.8369 83.2616 86.8369 83.322C84.8515 85.3751 82.3246 86.7639 79.918 87.4282C78.1131 87.9716 76.3082 88.032 74.4431 87.7905C71.5553 87.4886 69.0284 86.3413 66.682 84.7712C65.2381 83.8051 63.8543 82.8993 62.4705 81.9332C60.8461 80.8462 59.1014 80.6047 57.1761 80.9066C56.1533 81.0274 56.9355 81.5105 57.116 81.5708C59.6428 82.7785 61.9892 84.2882 64.2153 85.9789C65.7194 87.0659 68.4268 89.6624 68.4268 89.6624L66.4413 91.4136C66.4413 91.4136 64.9373 89.6624 64.2153 88.9982C59.8233 84.4089 55.9127 82.3558 55.0704 81.8728C54.8899 81.8124 54.7696 81.6916 54.6492 81.6916C54.5289 81.6916 54.3484 81.752 54.2281 81.8728C53.3858 82.3558 49.4752 84.4089 45.0832 88.9982C44.4214 89.6624 42.8571 91.4136 42.8571 91.4136L40.8717 89.6624C40.8717 89.6624 43.5791 87.0659 45.0832 85.9789C47.3093 84.2882 49.6556 82.7785 52.1825 81.5708C52.363 81.5105 53.085 81.0274 52.1224 80.9066C50.2573 80.6047 48.4524 80.7858 46.8279 81.9332C45.4442 82.8993 44.0002 83.8655 42.6165 84.7712C40.2701 86.3413 37.7432 87.4886 34.8554 87.7905C32.9903 87.9716 31.1854 87.9113 29.3804 87.4282C26.9739 86.7036 24.3868 85.3147 22.4014 83.322C22.4014 83.322 22.5218 83.2616 22.5819 83.2616C22.7624 83.322 22.8828 83.3824 23.0031 83.5032C25.9511 85.0128 29.0195 85.1939 32.2081 84.5901C34.374 84.1674 36.4196 83.322 38.405 82.4162C39.8489 81.8124 41.2929 81.0878 42.797 80.6047C46.6475 79.3366 50.5581 79.3366 54.5289 80.3631C54.5891 80.3631 54.6492 80.3631 54.7094 80.3631C54.7696 80.3631 54.8297 80.3631 54.8899 80.3631C58.8005 79.3366 62.7714 79.3366 66.6218 80.6047C68.1259 81.0878 69.5699 81.8124 71.0138 82.4162C73.0594 83.2616 75.0448 84.1674 77.2107 84.5901C80.3993 85.1939 83.4677 85.0128 86.4157 83.5032C86.5962 83.4428 86.6564 83.3824 86.8369 83.2616H86.7165ZM95.9818 74.8077C94.2972 76.0758 93.2142 76.5589 91.8305 77.042C89.7247 77.7666 87.4987 77.8874 85.2726 78.0081C82.3848 78.1893 79.5571 78.3101 76.7294 78.7328C76.5489 78.7328 76.4887 78.7328 76.5489 78.612C79.0757 77.6458 80.8205 75.7135 82.1441 73.1773C83.0466 71.4262 84.5507 68.105 84.9116 67.5616V67.4408C84.7311 67.5012 81.9034 69.9166 80.64 71.0639C79.0757 72.5131 77.5717 74.0831 76.0074 75.5927C73.5407 77.9478 69.991 78.9743 68.7276 79.3366C68.7276 79.3366 68.6674 79.3366 68.6072 79.3366C68.6072 79.3366 68.6072 79.4574 68.5471 79.4574C69.5699 79.6989 72.3976 80.3028 73.9017 80.7255C76.1879 81.3293 78.4741 81.8728 80.8205 81.9935C83.3474 82.1747 85.9344 81.9332 88.2808 81.0274C90.9882 80.0008 94.2972 77.6458 96.2224 74.8077C96.1623 74.8077 96.0419 74.8077 96.0419 74.8077H95.9818ZM104.645 61.4627C104.645 61.4627 103.141 63.4554 99.6518 65.8104C97.9672 67.0181 96.4029 67.7427 94.5378 68.5881C92.2516 69.675 90.2061 70.6412 88.2808 72.2716C88.1605 72.3923 88.0402 72.4527 87.9198 72.5735C87.8597 72.5735 87.7995 72.5735 87.8597 72.4527C87.98 72.332 90.8679 69.3731 91.7101 63.0327C92.011 60.8588 92.0711 58.4434 92.7931 56.33C92.7931 56.2696 92.7931 56.2092 92.7931 56.1488C90.6874 58.5642 88.8824 62.3685 88.0402 64.7838C87.4385 66.4746 86.897 68.1654 86.2954 69.8562C85.4531 72.1508 84.4303 74.2643 82.6856 76.0154L82.5051 76.1966C82.5051 76.1966 82.5051 76.1966 82.5051 76.3174C82.7457 76.3174 82.9262 76.257 83.1067 76.1966C85.032 75.7739 86.9572 75.3512 88.9426 74.9889C92.1915 74.4454 95.0793 73.2981 97.6664 71.245C100.314 69.1919 102.54 66.8369 103.984 63.8177C104.345 63.0327 104.706 62.2477 104.946 61.4023C104.946 61.4023 104.826 61.4023 104.766 61.4023L104.645 61.4627ZM108.436 46.4269C107.593 49.0838 106.089 51.2576 103.863 53.6127C102.118 55.4242 98.8095 58.8058 97.2452 61.1608C97.2452 61.2211 97.0647 61.1608 97.1249 61.1004C97.8469 59.0473 98.2078 55.4242 97.7265 52.6465C97.3655 50.2311 96.2826 47.6345 96.0419 44.7361C96.0419 44.7361 95.9818 44.6153 95.9216 44.6153C95.9216 44.6153 95.9216 44.6153 95.8013 44.9172C95.32 46.608 94.6582 48.7215 94.598 50.7142C94.4777 53.1296 94.8988 56.1488 94.7183 58.6246C94.4777 61.4627 94.2972 64.3008 92.9736 66.8369C92.9736 66.8973 92.9736 67.0181 92.9736 67.0181C93.9964 66.3539 97.0046 64.6027 98.9298 63.2742C101.397 61.6438 103.502 59.7115 105.187 57.2357C107.293 54.1561 108.496 50.4726 108.436 46.7288C108.436 46.608 108.436 46.3665 108.436 46.3665L108.315 46.4269H108.436ZM102.179 48.0572C102.118 48.0572 102.118 48.0572 102.118 47.9969C102.239 47.2119 102.239 46.3061 102.118 45.5815C101.938 42.8038 100.253 40.4487 98.7493 38.0937C97.9672 36.886 96.6436 34.7726 96.1021 33.3233C96.1021 33.3233 95.9818 33.2629 95.9216 33.2629C95.9216 33.5045 95.9216 34.3499 96.0419 34.8933C96.4631 38.8787 97.7265 42.8641 99.0501 46.6684C99.9526 49.2046 100.374 51.3784 100.073 54.0957C100.073 54.3373 100.073 54.3373 100.073 54.3977C100.975 53.0692 102.72 51.2576 103.803 49.9292C104.946 48.4799 110.902 41.7772 107.954 32.3572C107.774 31.8137 107.593 31.2702 107.473 31.2099L107.353 31.3306C107.353 38.0937 104.104 40.9922 102.72 45.6418C102.479 46.5476 102.239 47.3326 102.058 47.9969L102.179 48.0572ZM97.1249 27.0433C96.0419 26.1375 94.4777 24.4468 93.5151 22.9975C93.5151 22.9975 93.3947 22.9975 93.3346 22.9975H93.2744C93.2744 23.2994 94.237 26.2583 94.8387 27.6472C95.681 29.6399 97.0647 31.3306 98.3883 33.0818C98.5087 33.2026 98.5688 33.3233 98.6892 33.4441C100.013 35.1953 102.118 38.9391 102.6 40.8714C102.6 40.8714 102.72 40.9922 102.72 40.9318C102.901 40.2676 103.743 37.5503 104.405 35.7387C104.525 35.3764 105.668 31.7533 105.849 30.1833C106.51 25.7148 105.006 19.9783 102.419 16.7779C102.419 16.7779 102.359 16.8986 102.359 16.959C102.359 17.0798 102.419 17.2006 102.479 17.3817C102.479 17.5629 102.6 17.744 102.66 17.9856C103.322 20.884 103.081 22.9371 102.78 25.4129C102.54 27.4056 102.118 29.3379 102.239 31.3306C102.239 31.6326 102.479 34.1083 102.419 34.1687C102.419 34.2895 102.299 34.1687 102.299 34.1687C102.299 34.1687 101.998 33.2629 101.637 32.5383C101.517 32.2364 101.397 31.9345 101.276 31.6929C100.253 29.6399 98.8696 28.5529 97.1851 27.1641L97.1249 27.0433ZM94.2972 9.04861C95.1395 9.83361 95.8013 10.7998 96.2224 11.8263C96.9444 13.5171 97.1249 16.0533 97.6062 17.9252C97.907 19.0725 98.0875 19.9179 98.4485 21.2464C98.4485 21.3671 98.3883 21.4275 98.3282 21.2464C97.0046 19.4348 95.32 18.2875 92.9736 16.7779C91.5898 15.8721 90.5069 15.0267 89.4841 13.6379C89.3036 13.3963 89.1231 13.1548 88.9426 12.9132C88.9426 12.9132 88.8223 12.9132 88.7621 12.9132C88.7621 12.9132 88.7621 13.0944 88.7621 13.2152C89.0629 14.7248 90.0857 17.5629 91.8305 19.2537C93.0939 20.4614 94.4777 21.5483 95.8615 22.6352C98.268 24.6279 100.013 26.8018 100.554 27.5264C100.554 27.5264 100.675 27.5868 100.675 27.5264C100.675 27.1641 100.675 26.6206 100.675 25.9564C100.675 24.5071 100.735 22.5144 100.795 21.186C100.795 20.6425 100.795 20.099 100.795 19.5556C100.795 17.9252 100.614 16.2948 99.9526 14.7852C98.8696 12.249 97.1851 10.2563 94.7183 9.04861C94.598 8.98823 94.3574 8.92784 94.237 8.86746C94.237 8.86746 94.237 8.92784 94.237 9.04861H94.2972ZM84.0693 4.27821C85.5133 5.54629 86.6564 7.05591 87.7393 8.62592C88.7621 10.1355 89.7849 11.7055 91.1687 12.9132C92.0711 13.8794 94.7785 15.9325 95.4403 16.476C95.32 15.6909 94.0565 10.0148 90.5069 7.17668C88.5816 5.54629 86.0548 4.51975 83.588 3.79513V3.97628C83.7084 4.09705 83.7685 4.15744 83.8888 4.27821H84.0693ZM28.2975 81.9935C30.6439 81.8124 32.9301 81.3293 35.2163 80.7255C36.7204 80.3028 39.5481 79.6989 40.5709 79.4574C40.5709 79.4574 40.5709 79.397 40.5107 79.3366C40.5107 79.3366 40.4506 79.3366 40.3904 79.3366C39.127 78.9743 35.5773 77.9478 33.1106 75.5927C31.5463 74.1435 30.0422 72.5735 28.478 71.0639C27.2145 69.8562 24.3868 67.5012 24.2064 67.4408V67.5616C24.6275 68.105 26.0714 71.4866 26.9739 73.1773C28.2975 75.6531 29.9821 77.6458 32.5691 78.612C32.5691 78.6724 32.5691 78.7328 32.3886 78.7328C29.5609 78.2497 26.7332 78.1289 23.8454 78.0081C21.6795 77.8874 19.3933 77.7666 17.2875 77.042C15.9038 76.5589 14.8208 76.1362 13.1362 74.8077C13.1362 74.8077 13.0159 74.8077 12.9557 74.8077C14.881 77.6458 18.19 80.0612 20.8973 81.0274C23.2437 81.9332 25.8308 82.1747 28.3577 81.9935H28.2975ZM26.0714 76.1362C26.0714 76.1362 26.3723 76.1362 26.6731 76.257C26.6731 76.1966 26.6731 76.1362 26.6731 76.1362C26.6731 76.1362 26.5527 76.0154 26.4926 75.9551C24.7478 74.2039 23.6649 72.0904 22.8828 69.7958C22.2811 68.105 21.7396 66.4142 21.138 64.7235C20.2957 62.3685 18.551 58.5642 16.3851 56.0884C16.3851 56.0884 16.3249 56.2092 16.3851 56.2696C17.107 58.3831 17.1672 60.7985 17.468 62.9723C18.3103 69.2523 21.2583 72.2716 21.3185 72.3923C21.3787 72.4527 21.3185 72.5735 21.2583 72.5131C21.138 72.3923 21.0177 72.332 20.8973 72.2112C18.9119 70.5808 16.9265 69.6146 14.6403 68.5277C12.7752 67.6823 11.211 66.8973 9.52639 65.75C6.03689 63.3346 4.65312 61.4627 4.53279 61.4023C4.53279 61.4023 4.41246 61.4023 4.3523 61.4023C4.59295 62.2477 4.95394 63.0327 5.31492 63.8177C6.75885 66.8369 8.98491 69.1919 11.6321 71.245C14.2793 73.2981 17.107 74.4454 20.3559 74.9889C22.2811 75.2908 24.2064 75.7739 26.1918 76.1966L26.0714 76.1362ZM10.0077 63.1535C11.9329 64.4819 14.9411 66.2331 15.9639 66.8973C15.9639 66.8973 16.0241 66.7766 15.9639 66.7162C14.6403 64.1196 14.4598 61.3419 14.2192 58.5038C14.0387 56.028 14.4598 52.9484 14.3395 50.5934C14.2192 48.6007 13.6175 46.4872 13.1362 44.7965C13.0761 44.5549 13.0159 44.5549 13.0159 44.4945L12.8956 44.6153C12.6549 47.5138 11.572 50.1707 11.211 52.5257C10.7898 55.3034 11.0906 58.9265 11.8126 60.9796C11.8126 61.1004 11.7524 61.1004 11.6923 61.04C10.128 58.685 6.81902 55.3034 5.07427 53.4919C2.8482 51.1369 1.34411 48.963 0.501816 46.3061C0.501816 46.3061 0.381488 46.1853 0.381488 46.2457C0.381488 46.2457 0.381488 46.4872 0.381488 46.608C0.321324 50.3519 1.5246 54.0353 3.63033 57.115C5.31492 59.5304 7.48082 61.5231 9.88737 63.1535H10.0077ZM8.98491 54.3373C9.10524 54.2769 9.04508 54.2165 8.98491 54.0353C8.68409 51.318 9.1654 49.1442 10.0077 46.608C11.3313 42.8038 12.5947 38.8787 13.0159 34.833C13.0159 34.2895 13.1362 33.4441 13.1362 33.2026C13.1362 33.2026 13.0159 33.2026 12.9557 33.2629C12.4142 34.7122 11.0305 36.8257 10.3085 38.0334C8.80442 40.3884 7.11984 42.683 6.93934 45.5211C6.93934 46.2457 6.93934 47.1515 6.93934 47.9365C6.93934 47.9365 6.93934 47.9969 6.87918 47.9969C6.69869 47.3326 6.5182 46.4872 6.21738 45.6418C4.83361 40.9922 1.58476 38.0937 1.58476 31.3306C1.58476 31.3306 1.5246 31.2099 1.46444 31.2099C1.40427 31.3306 1.16362 31.8137 0.983126 32.3572C-1.90474 41.7772 3.99132 48.5403 5.13443 49.9292C6.21738 51.2576 7.96213 53.0692 8.86459 54.3977L8.98491 54.3373ZM4.77345 35.618C5.37508 37.4295 6.21738 40.0864 6.45803 40.8111C6.45803 40.8111 6.57836 40.8111 6.57836 40.7507C7.05967 38.8184 9.1654 35.0745 10.489 33.3233C10.6093 33.2026 10.6695 33.0818 10.7898 32.961C12.1134 31.2099 13.4972 29.5795 14.3395 27.5264C14.9411 26.1375 15.8436 23.1787 15.9038 22.8767C15.9038 22.8767 15.9038 22.8767 15.8436 22.8767C15.8436 22.8767 15.7233 22.8767 15.6631 22.8767C14.7606 24.326 13.1362 25.9564 12.0533 26.9225C10.3085 28.3114 8.98491 29.3983 7.96213 31.4514C7.8418 31.6929 7.72147 31.9949 7.60115 32.2968C7.30033 33.0214 6.99951 33.9272 6.93934 33.9272C6.93934 33.9272 6.81902 34.048 6.81902 33.9272C6.81902 33.8064 6.99951 31.391 6.99951 31.0891C7.11983 29.0964 6.69869 27.1641 6.45803 25.1714C6.09705 22.6956 5.91656 20.6425 6.57836 17.744C6.57836 17.5629 6.69869 17.3213 6.75885 17.1402C6.75885 17.0194 6.81902 16.8986 6.87918 16.7175C6.87918 16.7175 6.87918 16.5967 6.81902 16.5363C4.23197 19.6763 2.78804 25.4733 3.38968 29.9418C3.63033 31.5118 4.71328 35.1349 4.83361 35.4972L4.77345 35.618ZM8.5036 25.8356C8.5036 26.4998 8.5036 27.0433 8.5036 27.4056H8.62393C9.1654 26.681 10.9102 24.5071 13.3167 22.5144C14.6403 21.4275 16.0842 20.3406 17.3477 19.1329C19.0924 17.4421 20.1152 14.6644 20.416 13.0944C20.416 12.9736 20.416 12.8529 20.416 12.7925C20.416 12.7925 20.2957 12.7925 20.2355 12.7925C20.0551 13.034 19.8746 13.2756 19.6941 13.5171C18.6713 14.9059 17.5883 15.7513 16.2046 16.6571C13.8582 18.1667 12.1736 19.314 10.85 21.1256C10.7898 21.2464 10.6695 21.1256 10.7297 21.1256C11.1508 19.7971 11.3313 19.0121 11.572 17.8044C12.0533 15.8721 12.2338 13.3359 12.9557 11.7055C13.3769 10.6186 14.0387 9.71284 14.881 8.92784C14.881 8.80707 14.881 8.74669 14.881 8.74669C14.7606 8.74669 14.5801 8.86746 14.3997 8.92784C11.9329 10.1355 10.2484 12.1282 9.1654 14.6644C8.5036 16.2344 8.32311 17.8044 8.32311 19.4348C8.32311 19.9783 8.32311 20.5217 8.32311 21.0652C8.38328 22.3937 8.44344 24.3864 8.44344 25.8356H8.5036ZM13.6175 16.3552C14.2793 15.8117 16.9867 13.7586 17.8892 12.7925C19.2729 11.5848 20.2957 10.0148 21.3185 8.50515C22.4014 6.93514 23.5446 5.42552 24.9885 4.15744C25.1088 4.03667 25.169 3.97628 25.2893 3.85551C25.2893 3.85551 25.2893 3.73474 25.2893 3.67436C22.8226 4.33859 20.2957 5.36513 18.3705 7.05591C14.8208 9.894 13.6175 15.5702 13.437 16.3552H13.6175ZM53.6265 47.393C53.9273 46.9703 53.2053 46.7288 53.0248 47.393C52.8443 48.0572 53.3256 47.7553 53.6265 47.393ZM61.2071 29.821C61.2071 29.821 59.8233 31.0287 60.0038 31.2702C60.064 31.3306 61.3274 29.8814 61.2071 29.821ZM61.4478 29.5795C61.4478 29.5795 62.3502 29.2775 62.2299 29.1568C62.1096 29.036 61.2071 28.6737 61.2071 28.9152C61.2071 29.3379 61.2673 29.5191 61.4478 29.5795ZM74.8041 41.2941C74.4431 41.2941 74.0822 41.8376 74.2025 41.8376C74.4431 41.8376 74.6236 42.0188 74.8643 41.9584C75.2253 41.898 75.1651 41.2941 74.8643 41.2941H74.8041ZM69.991 28.6737C69.991 28.6737 69.63 29.036 69.9308 29.1568C70.0512 29.2172 70.4723 29.1568 70.6528 29.036C70.8333 28.9152 71.074 28.7341 71.0138 28.4322C71.0138 28.251 70.5325 27.7075 70.7731 27.5264C71.0138 27.2848 71.2545 27.6472 71.4951 27.5264C71.7959 27.4056 71.7358 27.2245 71.7959 26.9829C71.7959 26.6206 71.6756 26.1979 71.2545 26.1979C70.9536 26.1979 70.4723 26.9829 70.4122 27.0433C70.4122 27.1037 70.2918 27.4056 70.4122 27.7075C70.5926 28.1302 70.5325 28.6133 69.991 28.6133V28.6737ZM76.5489 28.6737C76.5489 28.6737 77.0903 30.1229 77.0903 30.4852C77.0903 30.8476 77.2708 31.8741 77.5115 31.7533C77.692 31.6929 77.692 31.0287 77.6318 30.7872C77.5115 30.0625 77.3912 29.4587 77.0903 28.6133C76.97 28.1906 76.3684 26.8018 76.1277 26.8018C75.9472 26.8018 76.4285 27.8283 76.4887 28.1302C76.4887 28.3114 76.4887 28.4322 76.4887 28.6133L76.5489 28.6737ZM73.0594 11.7055C73.3602 11.8263 73.3602 11.2225 72.8187 10.7998C72.2772 10.3771 71.5553 10.5582 71.7358 10.7998C71.9163 10.9809 72.7585 11.6452 73.0594 11.7659V11.7055ZM58.1387 7.41822C57.4769 6.99553 58.0184 6.39168 57.5371 6.02937C57.1761 5.72744 56.1533 6.02937 55.9127 6.33129C55.4915 6.87476 56.4542 6.6936 56.8151 6.87476C57.2363 7.05591 58.0786 7.78053 58.2591 7.65976C58.4396 7.4786 58.2591 7.4786 58.1387 7.41822ZM62.1096 5.42552C61.2071 5.00282 57.9583 5.06321 58.0184 5.9086C58.0786 6.63322 59.9437 5.9086 60.3648 5.9086C60.8461 5.9086 62.8315 5.84821 62.0494 5.42552H62.1096ZM52.4833 43.8907C52.4833 43.8907 52.1825 43.7699 52.2427 43.8907C52.3029 44.0115 52.1825 44.1926 52.3028 44.3738C52.4833 44.5549 52.9045 44.5549 53.1451 44.3738C53.2655 44.253 53.1451 44.0115 53.1451 43.9511C52.9647 43.8907 52.6037 44.0115 52.6037 43.8303L52.4833 43.8907ZM51.2199 37.3087C51.2199 37.3087 51.4606 37.1276 51.641 37.1276C51.8215 37.1276 51.6411 37.3087 51.9419 37.3087C52.2427 37.3087 52.4833 36.5841 51.641 36.5841C50.9191 36.5841 51.0394 37.2483 51.2199 37.3087ZM52.363 38.0334C51.8215 37.9126 51.9419 38.2145 51.5809 38.2145C51.0394 38.2749 51.5207 37.7918 51.2199 37.6107C51.0996 37.4899 50.7988 37.973 50.7386 38.2749C50.7386 38.3957 50.7386 38.8787 50.9792 38.9391C51.2199 38.9391 52.4232 39.1203 52.8443 39.1807C53.3256 39.3014 52.8443 38.1541 52.3028 38.0334H52.363ZM46.2865 44.6153C46.2865 44.6153 46.5873 44.0115 46.467 43.7095C46.3466 43.4076 45.8052 43.6491 45.745 43.7699C45.745 43.8907 46.106 44.6153 46.2263 44.6153H46.2865ZM38.2847 44.6153C38.2847 44.6153 38.2847 43.5888 38.1042 43.468C37.9237 43.3472 37.9237 43.5888 37.8034 43.5888C37.683 43.5888 37.683 43.2265 37.5627 43.2265C37.4424 43.2265 37.5627 43.8303 37.7432 44.1926C37.8635 44.5549 38.2245 45.0984 38.2245 44.6757L38.2847 44.6153ZM38.1042 42.8038C38.1042 42.8038 38.405 41.4753 38.405 40.9922C38.405 40.5091 38.1042 40.0864 38.044 40.0864C37.9839 40.0864 38.044 40.3884 38.044 40.8714C38.044 41.5357 37.7432 42.1395 37.7432 42.3811C37.7432 42.6226 37.9237 43.1057 38.1042 42.8038ZM16.8062 38.3957C16.8062 28.251 20.7169 18.7102 27.8763 11.5244C35.0358 4.33859 44.5417 0.413574 54.6492 0.413574C64.7568 0.413574 74.2626 4.33859 81.4221 11.5244C88.5816 18.7102 92.4923 28.251 92.4923 38.3957C92.4923 48.5403 88.5816 58.0811 81.4221 65.2669C74.2626 72.4527 64.7568 76.3777 54.6492 76.3777C44.5417 76.3777 35.0358 72.4527 27.8763 65.2669C20.7169 58.0811 16.8062 48.5403 16.8062 38.3957ZM28.478 63.5158L32.5691 59.4096C31.787 58.5642 31.0049 57.6584 30.2829 56.6923C29.9821 56.5715 29.6211 56.3904 29.4406 56.0884C29.0796 55.6657 28.8991 55.0015 28.7186 55.0015C28.5382 55.0015 28.7186 55.4242 28.3577 55.4846C27.8763 55.545 27.1544 54.2769 26.8536 53.8542C26.4926 53.3107 25.9511 53.3107 25.7105 52.7673C25.6503 52.6465 25.4698 52.1634 25.2893 52.4653C24.9885 52.9484 24.0259 51.4992 23.7852 51.5596C23.5446 51.6803 23.7852 51.9823 23.6047 52.103C23.3039 52.3446 22.5218 51.0161 22.221 51.1369C21.9201 51.2576 21.86 51.4388 21.86 51.8011C21.86 52.1634 22.2811 53.1296 22.1608 53.19C21.9201 53.3107 20.777 50.2915 21.0177 50.1707C21.138 50.1103 21.138 50.2915 21.3185 50.1707C21.499 50.0499 21.1982 49.8688 21.138 49.5065C21.0778 49.1442 20.777 49.1442 20.7169 48.7819C20.7169 48.4196 21.1982 48.5403 21.1982 48.3592C21.1982 48.178 21.1982 47.9969 21.3787 47.8157C21.5591 47.6345 21.9803 47.8157 22.0405 47.2722C22.1006 46.8495 22.3413 47.2722 22.4014 47.5742C22.4014 47.9365 23.4242 48.0572 23.4844 47.8157C23.4844 47.6345 23.0632 47.6345 23.0632 47.5138C23.0632 47.2119 23.6047 47.5138 23.9657 47.5138C24.1462 47.5138 24.447 47.2722 24.808 47.5138C25.2291 47.6949 25.4698 47.8157 25.7105 47.8761C24.808 45.1588 24.2665 42.1999 24.2064 39.1807H18.4306C18.6111 48.2988 22.1608 56.9338 28.478 63.5158ZM52.363 29.821C52.363 29.821 52.002 30.2437 51.7614 30.6664C52.4232 30.4249 53.1451 30.2437 53.8671 30.1833V24.326C50.6183 24.5071 47.6702 25.8356 45.384 27.8887L49.4752 31.9949C49.9565 31.6326 50.4378 31.2702 51.0394 30.9683C51.1597 30.9079 51.3402 30.8476 51.4606 30.7872C51.7614 30.3041 52.363 29.7606 52.4232 29.821H52.363ZM38.044 51.5596C38.044 51.5596 38.044 51.8011 38.044 51.9219C38.3449 52.2842 38.6457 52.6465 38.9465 53.0088L43.0376 48.9026C41.1124 46.7288 39.7286 44.0718 39.2473 41.113C39.127 41.113 39.0067 41.113 38.9465 40.9922C38.8863 40.8714 38.9465 40.6903 39.1871 40.5695C39.1871 40.1468 39.0668 39.6637 39.0668 39.2411H36.3594C36.3594 39.6637 36.5399 40.328 36.2993 40.5091C36.0586 40.6903 35.7578 40.5091 35.5172 40.5091C34.9757 40.5695 34.8554 41.2338 35.0358 41.6564C35.1562 41.9584 35.2765 42.1999 35.2163 42.5018C35.2163 42.8038 35.0358 43.0453 35.457 43.2868C35.8781 43.5284 36.5399 44.3738 36.5399 44.5549C36.4798 44.7361 36.0586 44.3738 35.9985 44.7361C35.9985 44.9776 36.6001 44.6757 36.6001 45.4003C36.6001 45.823 36.6603 46.3061 36.7806 46.608C37.0212 47.2119 37.3221 47.6345 37.3221 48.2988C37.3221 48.8422 37.2017 49.5065 37.4424 50.0499C37.683 50.5934 38.1644 51.0161 38.1644 51.6803L38.044 51.5596ZM34.6147 41.7772C34.2537 41.4149 34.8554 40.2676 34.9155 40.0864C34.9757 39.8449 35.5172 39.543 35.6375 39.2411H33.2309C33.2309 40.5091 33.4114 41.7772 33.7122 42.9849C34.3139 43.2265 35.3968 42.7434 34.6147 41.7772ZM33.1106 57.4773C33.3513 57.7188 33.5317 57.9604 33.7724 58.2019L34.2537 57.7188C33.8326 57.4169 33.4114 57.2961 33.1708 57.4169L33.1106 57.4773ZM43.0376 27.8887L38.9465 23.7825C35.5773 27.4056 33.4716 32.2364 33.2309 37.5503H36.1188C36.6001 36.7653 36.4196 36.1614 36.6001 35.7387C36.7806 35.316 37.0212 34.8933 37.2619 34.531C37.5026 34.1687 37.7432 33.8064 38.1644 33.8064C39.127 33.8064 39.3075 33.3233 39.9091 33.0214C40.5107 32.7195 41.5335 32.5987 41.4132 32.2968C41.353 32.1156 39.2473 32.9006 39.1871 32.7195C39.127 32.4176 39.8489 32.4779 40.1498 32.176C40.2099 32.176 40.2701 32.0552 40.3303 32.0552C40.9921 30.4852 41.8945 29.0964 43.0376 27.8283V27.8887ZM42.3157 31.7533C42.3157 31.7533 42.436 31.7533 42.4962 31.6929C43.2181 31.2702 44.1206 31.391 44.5417 31.5118C45.023 31.7533 45.6848 32.2968 45.9857 32.5383C46.106 32.6591 46.1661 32.4779 46.7678 32.3572C47.0084 32.3572 47.0686 32.5987 47.4296 32.5987C47.5499 32.5987 47.6702 32.5987 47.7906 32.5987L44.2409 29.036C43.5189 29.8814 42.8571 30.7872 42.3758 31.7533H42.3157ZM38.2847 36.1614C37.8034 36.1614 37.3822 36.2822 37.1416 36.7049C36.9611 37.0068 36.9009 37.3087 36.9611 37.5503H39.0067C39.0067 37.1276 39.0067 36.7653 39.127 36.403C38.8863 36.2822 38.5253 36.1614 38.2847 36.1614ZM44.1807 47.6949L48.2719 43.5888C47.9109 43.1661 47.6702 42.7434 47.3694 42.2603C47.3093 42.3207 47.2491 42.3811 47.1889 42.5018C47.1288 42.683 47.1889 43.2868 46.9483 43.5888C46.6475 43.9511 45.745 42.8641 45.4442 42.7434C45.0832 42.6226 44.9027 43.0453 44.9027 43.1661C44.9027 43.468 44.9027 43.5888 44.7824 43.6491C44.6621 43.6491 43.9401 43.2265 44.2409 43.1057C44.6019 42.9849 44.1206 42.683 44.0002 42.5622C43.7596 42.3811 43.3384 42.5622 43.0978 42.2603C42.9173 41.9584 42.4962 41.7772 42.3758 41.7168C42.3157 41.7168 41.8945 41.5357 41.6539 41.7168C41.4734 41.8376 41.2327 41.5961 41.0522 41.4753C40.9921 41.4149 40.8717 41.2941 40.8116 41.1734C41.2929 43.7095 42.436 46.0042 44.1206 47.8157L44.1807 47.6949ZM48.2719 40.5695C48.2719 40.5695 48.2719 40.5091 48.2719 40.4487C48.2719 40.4487 48.2719 40.4487 48.2719 40.3884C48.2719 40.3884 48.2719 40.328 48.2719 40.2676C48.2719 40.2676 48.2719 40.2072 48.2719 40.1468C48.2719 40.1468 48.2719 40.1468 48.2719 40.0864C48.2719 40.0864 48.2719 40.0864 48.2719 40.0261C48.2719 39.9657 48.3922 39.9657 48.4524 39.9657C48.5727 39.9657 48.7532 40.0864 48.9337 40.0864C49.054 40.0864 49.1743 40.0864 49.2947 39.9053C49.2947 39.8449 49.415 39.7845 49.415 39.7241C49.415 39.6637 49.415 39.6034 49.415 39.543C49.415 39.543 49.415 39.543 49.415 39.4826C49.415 39.4222 49.2947 39.4222 49.1142 39.4826C49.1142 39.4826 49.054 39.4826 48.9938 39.4826C48.9337 39.4826 48.8735 39.4826 48.8133 39.4826C48.8133 39.4826 48.7532 39.4826 48.693 39.4826C48.5727 39.4826 48.5125 39.4826 48.4524 39.3618C48.4524 39.3618 48.4524 39.3618 48.4524 39.2411C48.4524 39.2411 48.4524 39.1807 48.3922 39.1203C48.2719 38.9995 48.1516 38.8787 47.9711 38.8184C47.9109 38.8184 47.7906 38.6976 47.7304 38.6372C47.7304 38.6372 47.6702 38.5768 47.6101 38.5164C47.6101 38.5164 47.6101 38.456 47.5499 38.3957C47.5499 38.3957 47.5499 38.3957 47.4897 38.3957C47.4897 38.3957 47.4898 38.3957 47.4296 38.3957C47.2491 38.3957 47.0084 38.3957 46.8279 38.5768C46.8279 38.5768 46.7678 38.6372 46.7076 38.6976C46.7076 38.6976 46.6475 38.758 46.5873 38.8184C46.5873 38.8184 46.5271 38.9391 46.467 38.9995C46.4068 39.1203 46.3466 39.241 46.2865 39.4222C45.8052 40.6299 45.2637 40.2676 45.384 40.6903C45.384 40.6903 45.5043 40.7507 45.745 40.8111C45.8052 40.8111 45.9255 40.8111 45.9857 40.8111C46.0458 40.8111 46.1661 40.8111 46.2865 40.8111C46.4068 40.8111 46.467 40.8111 46.5873 40.8111H46.7076C46.7076 40.8111 46.7076 40.8111 46.7678 40.8111C46.7678 40.8111 46.7678 40.8111 46.8279 40.8111C46.8279 40.8111 46.8279 40.8111 46.8881 40.8111C46.8881 40.8111 46.8881 40.8111 46.9483 40.8111C46.9483 40.8111 47.0084 40.8111 47.0686 40.8111C47.1288 40.8111 47.1889 40.8111 47.2491 40.7507C47.3093 40.7507 47.3694 40.7507 47.4296 40.7507C47.5499 40.7507 47.6702 40.7507 47.7304 40.7507C47.7906 40.7507 47.9109 40.8111 48.0312 40.9922C48.0914 41.113 48.2117 41.2941 48.2117 41.4753L48.2719 40.5695ZM53.8069 22.6956V16.8986C48.5125 17.0798 43.6994 19.2537 40.0896 22.6352L44.1807 26.7414C46.7678 24.3864 50.137 22.9371 53.8069 22.6956ZM53.8069 15.2683V9.47131C46.467 9.65246 39.7888 12.6717 34.8554 17.3817L38.9465 21.4879C42.8571 17.8044 48.0914 15.5098 53.8069 15.2683ZM33.7122 18.529C29.0195 23.541 26.0113 30.2437 25.8308 37.5503H31.6065C31.787 31.8137 34.1334 26.5602 37.8034 22.6352L33.7122 18.529ZM25.8308 39.1807C25.8909 42.1999 26.4324 45.0984 27.395 47.8157C27.395 47.8157 27.4552 47.8157 27.5154 47.8157C28.117 47.8157 28.8991 47.8157 29.2601 47.5138C29.8016 47.0911 29.2601 45.5211 29.6813 44.8568C30.1024 44.0718 31.2455 42.1395 31.5463 42.0791C31.8472 42.0791 31.8472 42.2603 31.9675 42.3207C31.787 41.2941 31.6667 40.2676 31.6667 39.1807H25.8909H25.8308ZM53.8069 68.89C46.0458 68.7089 38.9465 65.5085 33.7122 60.4965L29.6211 64.6027C36.179 70.9431 44.7222 74.4454 53.8671 74.687V68.89H53.8069ZM53.8069 61.4627C48.693 61.2815 43.8198 59.4096 39.9091 56.1488C39.9693 56.2696 40.0896 56.3904 40.1498 56.4507C40.3904 56.9338 41.353 57.8396 40.7514 58.2019C40.2701 58.5038 39.4278 58.3227 39.0067 58.3227C38.5253 58.3227 37.8034 59.0473 37.3221 59.1681C36.7806 59.2888 36.4798 59.1681 35.9383 58.9869C35.818 58.9869 35.6375 58.8058 35.457 58.685L34.7952 59.3492C39.7888 64.0592 46.467 67.0785 53.7468 67.2596V61.4627H53.8069ZM53.8069 59.4096C52.9647 59.47 51.7614 59.4096 51.4606 59.2284C50.8589 58.8057 50.137 58.3831 50.0166 58.0811C49.8963 57.4773 49.054 57.0546 49.054 56.5111C49.054 55.9073 49.8963 55.7261 49.6556 55.1223C49.4752 54.6392 49.9565 54.0353 50.7988 53.6127C48.2719 53.0088 45.9857 51.7407 44.0604 50.0499L39.9693 54.1561C43.7596 57.6584 48.5727 59.6511 53.7468 59.8927V59.47L53.8069 59.4096ZM55.0704 51.62C55.672 51.4992 56.3338 51.318 56.8753 51.2576C57.4769 51.1973 56.8753 52.0426 57.2363 52.103C57.6574 52.103 59.4623 52.4653 59.5827 52.103C59.703 51.7407 59.703 51.6199 60.064 51.5596C60.7859 51.3784 61.3274 51.4388 61.9892 50.9557C62.2299 50.7746 62.651 50.7142 62.7714 50.4726C62.8917 50.2311 62.651 49.0234 62.2299 49.2046C61.9892 49.3253 61.7486 49.6272 61.3274 49.8084C60.9063 49.9896 60.6055 50.1103 60.3046 49.6876C60.064 49.3253 60.4851 49.0234 60.6656 48.7819C61.0266 48.4196 61.3274 48.0572 61.6884 48.0572C61.8087 48.0572 62.5909 47.6949 62.5307 47.3326C62.4705 46.8495 61.5079 47.3326 61.3274 47.2119C61.2071 47.0911 61.3274 46.7288 61.2071 46.6684C61.0868 46.6684 60.786 47.0911 61.0266 47.3326C61.1469 47.4534 60.7859 47.8157 60.425 47.5742C60.1241 47.393 60.064 48.4799 60.064 48.6611C60.064 48.8422 60.4851 48.7819 60.2445 49.1442C59.9437 49.5065 59.8835 49.2649 59.6428 49.4461C59.4022 49.6876 59.342 49.748 59.6428 50.0499C59.8835 50.2915 59.5225 50.7746 59.4022 50.3519C59.4022 50.0499 58.7404 50.1707 58.6201 49.8084C58.4997 49.4461 58.0184 49.5065 57.3566 49.2046C56.8753 48.963 56.9355 49.6876 57.7176 49.8688C58.3794 50.0499 58.3794 50.1103 58.1387 50.533C57.9582 50.8953 58.0184 50.2915 57.2363 50.0499C56.6948 49.9292 56.6948 49.6273 56.2737 49.6273C55.8525 49.6273 55.9728 49.9896 55.5517 49.9292C55.2509 49.8688 55.1907 50.2915 54.8899 50.4123C54.5289 50.5934 54.5289 51.2576 54.1679 51.4388C53.6265 51.7407 52.4833 51.4992 52.5435 50.9557C52.5435 50.4122 52.6037 49.9896 52.9647 49.8084C53.2655 49.6272 53.6866 50.1103 54.1078 49.9292C54.5289 49.748 54.4086 49.3253 54.1078 49.0234C54.0476 48.9026 53.7468 48.7819 53.7468 48.6611C53.7468 48.5403 54.3484 48.4799 54.6492 48.2988C54.9501 48.1176 55.2509 47.5742 55.4314 47.4534C55.6119 47.3326 55.9127 47.2722 55.9127 47.1515C55.9127 47.0307 55.672 46.7288 55.7322 46.5476C55.7924 46.3665 55.7924 46.2457 55.9728 46.2457C56.0932 46.2457 56.2737 46.6684 56.2135 46.7892C56.0932 46.9099 56.2737 47.0911 56.4542 47.0307C56.6346 46.9703 57.3566 46.6684 57.5371 46.608C57.7778 46.5476 57.4769 45.9438 57.5371 45.823C57.5973 45.7022 57.7176 45.823 57.7778 45.7626C57.8981 45.6418 57.5371 45.5815 57.5973 45.3399C57.5973 45.1588 58.3192 44.9776 58.1387 44.8568C57.9582 44.7361 57.6574 45.0984 57.5371 45.1588C57.1761 45.3399 56.9956 44.9172 56.9956 44.6153C56.9956 44.4945 57.1761 43.9511 56.9956 43.8907C56.755 43.7699 56.6948 44.3738 56.6948 44.4945C56.6948 44.6757 56.5143 44.9172 56.6948 45.4003C56.8151 45.6418 56.755 46.5476 56.5143 46.6684C56.2135 46.7892 56.0932 46.2457 55.9728 46.0042C55.9728 46.0042 55.9728 45.9438 55.9127 45.9438C55.9127 45.9438 55.9127 46.0645 55.8525 46.0645C55.8525 46.0645 55.7924 46.1853 55.7322 46.3665C55.7322 46.4872 55.6119 46.5476 55.5517 46.5476C55.2509 46.5476 54.9501 46.5476 54.6492 46.5476C54.5289 46.5476 54.4086 46.5476 54.2883 46.5476C54.2883 46.7288 54.4086 46.9099 54.4688 47.0307C54.6492 47.3326 54.9501 47.5742 54.8899 47.8157C54.8899 48.0572 53.9273 48.2384 53.8069 48.0572C53.6866 47.8761 54.0476 47.4534 53.9874 47.2722C53.9874 46.9099 53.7468 46.7288 53.8069 46.4872C52.1825 46.3061 50.6183 45.6418 49.415 44.6757L45.3239 48.7819C47.3694 50.5934 49.8963 51.8011 52.724 52.2238C53.1451 51.9823 53.2655 51.5596 53.6265 51.8011C54.1078 52.1634 54.7094 51.6803 55.1306 51.62H55.0704ZM55.4314 61.4023V67.1992C57.7778 67.1389 60.064 66.7766 62.2299 66.1727C61.7486 65.8104 61.5681 65.1462 61.0266 64.965C60.064 64.6027 59.8233 64.0592 60.3046 63.1535C60.6055 62.6704 60.4851 62.4892 60.1241 62.0061C59.703 61.4023 59.2217 61.1004 58.8005 60.9796C57.6574 61.1608 56.5143 61.3419 55.3712 61.3419L55.4314 61.4023ZM58.1989 59.47C58.1989 59.47 57.5973 59.2284 57.3566 59.3492C56.394 59.5908 56.755 58.8661 55.4314 59.0473V59.7719C56.394 59.7719 57.2964 59.6511 58.1989 59.47ZM79.6774 64.5423L75.5862 60.4361C73.4805 62.4288 71.074 64.18 68.4268 65.5085C67.5845 66.1727 66.5015 66.6558 65.7194 67.0181C65.3584 67.1992 64.9974 67.3804 64.6364 67.3804C64.5161 67.3804 64.3958 67.3804 64.2755 67.2596C61.5079 68.2258 58.4997 68.7089 55.4314 68.8296V74.6266C64.5161 74.4454 73.1195 70.8827 79.6774 64.5423ZM71.5553 22.5144C71.5553 22.5144 71.5553 22.5144 71.5553 22.5748C72.5179 23.6014 73.3602 24.7487 74.1423 25.9564C74.2025 25.8356 74.3228 25.7148 74.4431 25.896C74.6236 26.1375 74.2025 26.5602 74.8643 26.4395C75.2253 26.3791 75.1651 26.8621 74.8643 27.1037C75.0448 27.466 75.2253 27.7679 75.4058 28.1302C75.6464 28.251 75.7667 28.3718 75.8269 28.4925C75.9472 28.9152 76.1277 29.3379 76.1277 29.821C76.4285 30.5456 76.6692 31.3306 76.9098 32.0552C77.2107 31.8137 77.5717 31.9345 77.5717 32.3572C77.5717 32.7799 77.4513 33.2629 77.2708 33.6253C77.5115 34.8933 77.692 36.1614 77.7521 37.4899H83.5279C83.4075 33.746 82.5652 30.0022 81.0612 26.5602C80.9408 26.681 80.8205 26.681 80.5798 26.9225C80.279 27.2848 79.7977 26.8018 79.5571 26.4998C79.0757 25.896 77.9326 24.2052 77.3912 24.1448C76.97 24.0844 76.6692 23.541 76.1879 23.4202C75.7667 23.2994 75.1651 23.0579 75.1049 22.5748C75.0448 22.0917 74.8643 21.9106 74.3228 21.7898C73.7813 21.7294 73.3602 21.4879 72.939 21.0652L71.5553 22.4541C71.5553 22.4541 71.5553 22.4541 71.5553 22.5144ZM75.2253 57.8396L75.5261 58.1415C80.2189 53.1296 83.227 46.4872 83.4075 39.1203H77.6318C77.4513 44.8568 75.1049 50.1103 71.4349 54.0353L73.5407 56.1488C73.5407 56.1488 73.5407 56.1488 73.5407 56.0884C73.7212 55.7261 73.661 55.243 73.661 54.8807C73.661 54.6392 74.5033 54.6996 74.5033 55.0619C74.5033 55.3638 74.6838 55.6054 74.9846 56.33C75.1651 56.8734 75.2854 57.3565 75.1651 57.7792L75.2253 57.8396ZM70.8333 61.4627C70.6528 61.825 69.9308 62.4892 70.0512 62.7308C71.6154 61.7042 73.0594 60.6173 74.4431 59.2888L70.352 55.1827C70.352 55.1827 69.7504 55.7261 69.4495 55.9677C69.3894 56.4507 69.4495 56.813 69.991 56.9942C70.5927 57.1754 71.6756 57.8396 71.4349 58.4434C71.1943 58.9869 70.5927 59.8323 70.2918 60.3758C70.0512 60.8588 71.0138 61.04 70.8333 61.4627ZM71.7959 37.4295C71.7959 37.4295 71.7959 37.4295 71.7959 37.4899H76.0676C76.0676 36.886 76.0074 36.2822 75.9472 35.6783C75.9472 35.7387 75.8871 35.7991 75.8269 35.8595C75.5261 36.5237 75.4659 36.101 75.4659 35.8595C75.4659 35.4972 75.6464 35.1349 75.7667 34.7726C75.7667 34.5914 75.7066 34.3499 75.6464 34.1687C75.5261 34.3499 75.3456 34.4706 75.0448 34.6518C74.8643 34.7726 74.6838 35.1953 74.6236 35.3764C74.5635 35.5576 74.0821 35.3764 73.661 35.4972C72.9992 35.7991 72.2772 35.8595 72.7585 36.5841C73.0594 37.0068 71.9764 36.886 71.7959 37.4899V37.4295ZM70.2918 23.7221L66.2007 27.8283C66.9227 28.6133 67.5243 29.4587 68.0658 30.3645C68.5471 30.4249 69.2089 30.606 69.63 31.2099C69.9308 31.5722 70.7731 32.3572 70.6528 32.7195C70.5926 32.961 70.7731 33.2026 70.9536 33.3233C71.2545 33.5649 71.4951 33.5045 71.6154 33.3233C71.9163 32.961 71.9764 32.4176 72.3374 32.0552C72.8187 31.6326 73.8415 32.8403 73.8415 33.0214C73.8415 33.2629 73.6008 33.2629 73.4805 33.6856C73.3602 34.2291 72.939 34.833 73.4805 35.0141C74.2025 35.2556 74.3228 35.0141 74.6838 34.4706C74.8643 34.2291 74.8041 33.8668 74.9846 33.6253C75.1049 33.5045 75.2854 33.3837 75.4058 33.3233C75.1049 32.176 74.744 31.0287 74.3228 30.0022C74.2025 29.8814 74.0821 29.821 73.9017 29.7606C73.661 29.7002 73.7813 29.4587 73.4203 29.3379C72.9992 29.2172 72.8789 29.0964 72.8187 28.3718C72.8187 27.8283 73.3 28.5529 73.4203 28.4322C73.4203 28.4322 73.4203 28.4322 73.4805 28.3114C72.5781 26.6206 71.4951 25.111 70.2317 23.7221H70.2918ZM65.2982 29.2775C65.2982 29.2775 64.9372 29.2775 64.8169 29.1568L63.4933 30.4852C63.4933 30.4852 64.0348 30.4852 64.3356 30.606C64.6966 30.7872 64.5161 29.5795 65.0576 29.7002C65.5991 29.821 65.7795 30.1833 65.2982 30.3645C64.9373 30.4852 65.4186 30.7872 64.9373 30.9683C64.5161 31.0891 65.2982 31.4514 65.2381 31.6326C65.2381 31.8741 64.6966 31.9345 65.4787 32.176C66.321 32.4176 65.4787 31.4514 65.5991 31.3306C65.7795 31.1495 66.2007 31.5722 66.321 31.391C66.321 31.3306 66.4413 31.2099 66.5617 31.0891C66.2007 30.4249 65.7194 29.821 65.2381 29.2172L65.2982 29.2775ZM63.1925 50.8349C63.1925 50.8349 62.8917 50.8349 62.8315 51.0161C62.7714 51.1369 65.1177 52.2238 65.4787 52.2842C65.7194 52.2842 66.2007 52.5257 67.043 52.2842C67.6446 52.1634 67.765 52.4653 68.0658 52.405C68.4268 52.405 68.6674 51.8615 68.9081 51.5596C69.5097 50.7142 69.3894 50.5934 69.5097 50.4726C69.6902 50.2915 70.2918 51.62 70.2317 52.405C70.2317 52.5257 70.2317 52.6465 70.2317 52.7673H70.2918C73.661 49.2046 75.7667 44.3738 76.0074 39.0599H71.6154C71.6154 39.0599 72.0366 39.6637 72.2772 40.2072C72.5179 40.6903 72.6382 41.4149 72.9992 41.4149C73.6008 41.4149 74.2025 41.9584 74.2626 42.3811C74.2626 43.2868 71.5553 43.468 71.1943 43.3472C70.8935 43.2265 70.713 43.2265 70.6528 43.7095C70.6528 44.253 69.6902 44.253 69.269 44.5549C68.8479 44.9172 68.7877 45.5815 68.4869 46.0042C68.3064 46.3061 67.2836 47.2119 67.043 47.4534C66.3812 47.9365 65.1779 47.9365 65.7194 48.2384C66.1405 48.4799 67.043 48.5403 66.9227 48.2988C66.8023 48.0572 66.9828 48.0572 67.1633 48.2384C67.2836 48.3592 67.7048 48.1176 67.7048 47.8157C67.7048 47.5742 67.6446 47.1515 67.8853 47.0911C68.3064 47.0911 68.6674 46.608 68.9081 46.6684C69.1487 46.6684 69.4495 47.2119 69.2089 48.7215C68.9682 50.2311 68.2463 51.2576 68.0056 51.7407C67.7048 52.2238 67.404 51.8615 66.9828 51.62C66.4413 51.3784 65.6592 51.3784 65.1177 51.1973C64.8169 51.0765 63.1925 50.4726 63.2527 50.7142L63.1925 50.8349ZM90.8077 39.0599H85.032C84.8515 46.8495 81.6628 53.975 76.6692 59.2284L80.7603 63.3346C87.0775 56.7527 90.567 48.178 90.8077 38.9995V39.0599ZM80.7603 13.0944L76.4887 17.3817C76.9098 18.046 77.6318 18.9517 78.6546 19.9783C79.0757 20.401 79.5571 20.8237 79.918 21.2464C80.279 21.6087 82.6254 24.5071 82.1441 24.9902C82.1441 24.9902 82.0839 25.0506 82.0238 25.0506C83.8287 28.9152 84.8515 33.1422 84.9718 37.3691H90.7475C90.567 28.251 87.0174 19.616 80.7002 13.034L80.7603 13.0944ZM55.3712 7.72014C60.1843 7.84091 64.8771 9.109 69.0284 11.3432C69.3894 11.2829 69.8105 11.2225 70.0512 11.1017C70.5927 10.8602 71.5553 11.4036 72.0967 11.7055C72.5179 11.9471 72.8789 12.3698 73.3602 12.6113C73.8415 12.9132 74.6838 13.6982 74.8643 14.5436C75.0448 15.389 75.5862 15.3286 75.2854 15.6306C75.1651 15.8117 75.3456 15.8721 75.5862 15.9929L79.6172 11.9471C73.0594 5.60667 64.5161 2.10435 55.3712 1.86281V7.65976V7.72014ZM55.3712 15.1475C60.3046 15.3286 64.8169 17.0194 68.4869 19.8575C68.0658 19.314 67.6446 18.7102 67.4641 18.529C67.1031 18.1667 65.7795 17.6836 65.8999 17.4421C66.0202 17.2006 67.2235 18.1667 67.404 17.9856C67.6446 17.8044 66.8023 16.7175 66.8625 16.6571C66.9227 16.6571 67.9454 17.5629 68.4268 18.4083C68.6072 18.7102 69.1487 18.529 69.5699 18.831C69.9309 19.0725 69.991 19.4952 70.2918 19.7971C70.2918 19.7971 71.0138 20.2198 70.5926 20.1594C70.4723 20.1594 70.2918 19.9179 70.1715 20.0387C70.1113 20.099 70.1715 20.5217 70.4723 20.9444L72.3976 19.0121C72.0967 18.4687 71.5553 17.6836 71.1943 17.6233C70.7731 17.5025 70.5325 17.8648 70.2918 18.1063C69.991 18.3479 69.6902 18.4083 69.63 18.2271C69.63 18.046 69.63 17.6233 69.63 17.4421C69.63 17.2006 69.4495 17.0194 69.3894 16.8383C69.269 16.3552 69.4495 15.7513 69.1487 15.4494C68.7877 15.0871 68.6072 14.5436 68.3064 14.1209C68.0056 13.6379 67.5243 12.9736 67.4641 12.3698C63.734 10.4978 59.5827 9.41092 55.2509 9.29015V15.0871L55.3712 15.1475ZM55.3712 22.5748C59.0412 22.756 62.4104 24.2656 64.9974 26.6206L69.0886 22.5144C65.4787 19.1329 60.6656 17.0194 55.3712 16.7779V22.5748ZM55.3712 30.0022C55.9127 30.0022 56.4542 30.1833 56.9956 30.3041C57.116 29.9418 57.4769 29.821 57.7778 29.5795C58.1387 29.3379 58.3794 29.0964 58.3192 29.7002C58.3192 30.1229 58.0786 30.4249 57.8981 30.606C58.4396 30.8476 58.981 31.1495 59.5225 31.5118C59.6428 31.5722 59.7632 31.6929 59.8233 31.7533L60.3648 31.2099C60.3648 31.2099 60.3648 31.2099 60.3648 31.1495C60.3648 30.8476 60.8461 30.4249 61.3876 30.2437L63.1925 28.4322C63.1925 28.4322 63.1323 28.4322 63.0722 28.4322C62.8315 28.4322 62.4705 28.9152 62.2299 28.7945C61.9892 28.6133 63.012 27.7075 63.4933 27.8887C63.5535 27.8887 63.6136 27.8887 63.6738 27.9491L63.9145 27.7075C61.6282 25.6545 58.6802 24.326 55.4314 24.1448V29.9418L55.3712 30.0022ZM54.5891 31.5722C53.9273 31.5722 53.2655 31.6929 52.6037 31.8741C52.5435 31.9949 52.4833 32.0552 52.4833 32.1156C52.6638 32.3572 53.1451 31.8741 53.2053 32.2968C53.2053 32.5987 52.6638 32.3572 52.724 32.5987C52.724 32.7799 53.1451 32.7195 53.2053 32.961C53.2053 33.2026 52.9647 33.6856 52.7842 33.8064C52.5435 33.9876 51.1597 34.1687 50.9792 34.4706C50.8589 34.7726 50.7386 35.0141 50.4979 35.2556C50.2573 35.4972 49.1743 36.1614 49.1743 36.3426C49.1743 36.7653 49.7158 36.2218 49.8361 36.101C50.0768 35.8595 50.3776 35.8595 50.7386 35.618C51.2199 35.316 51.4004 36.3426 50.9191 36.3426C50.6183 36.3426 50.3174 37.3087 49.776 37.1276C49.6556 37.1276 49.2947 36.8257 49.1743 37.1276C49.1142 37.3691 49.9565 37.4295 50.1971 37.6107C50.8589 38.0334 49.6556 38.0334 49.4752 38.1541C49.2947 38.2749 49.3548 38.5164 49.6556 38.456C49.8963 38.3353 50.2573 38.0937 50.3776 38.456C50.5581 39.0599 49.415 41.113 49.1142 40.9318C48.9337 40.8111 48.7532 40.9318 48.5727 41.0526C48.8133 41.5357 49.1142 41.9584 49.415 42.3811C49.6556 42.0188 50.0166 41.4753 50.137 41.4753C50.3776 41.4753 50.2573 41.2941 50.3776 41.1734C50.4979 40.9922 50.7386 41.1734 50.7386 40.9318C50.7386 40.6903 51.4004 40.328 51.4606 39.9657C51.4606 39.7845 51.2801 39.543 51.3402 39.4222C51.4606 39.241 51.5207 39.1807 51.7012 39.1203C51.8215 39.1203 52.1224 39.3618 52.2427 39.2411C52.363 39.1203 52.7842 39.241 53.1451 39.4222C53.3256 39.543 53.6265 39.4222 53.8069 39.6637C54.0476 40.0261 53.8069 40.0864 53.8069 40.1468C53.8069 40.2072 53.9874 40.1468 54.0476 40.1468C54.1679 40.2676 53.3858 40.7507 53.446 41.0526C53.5663 41.2941 52.724 42.6226 52.5435 42.8038C52.2427 43.0453 51.7614 42.8038 51.5809 42.8038C51.4004 42.8038 51.3402 43.0453 51.0394 42.9849C50.7988 42.9849 50.4979 42.9849 50.1971 43.1661C51.3402 44.1926 52.9045 44.7965 54.5289 44.7965C54.8899 44.7965 55.2509 44.7965 55.5517 44.7361C55.7924 44.4341 55.8525 44.1322 55.9127 43.7699C55.9127 43.5888 55.9127 43.3472 56.033 43.1661C56.0932 43.0453 56.6346 42.3811 56.8753 42.3811C57.0558 42.3811 57.1761 42.5622 57.4769 42.4414C58.0184 42.2603 58.3192 42.4414 58.3192 42.6226C58.3192 42.9245 57.6574 42.8641 57.6574 43.0453C57.6574 43.1661 58.1387 43.3472 58.3192 43.1661C58.62 42.8038 58.5599 42.3811 58.4997 42.2603C58.2591 42.0188 58.3192 41.898 58.6201 41.9584C58.8005 42.0188 58.8005 41.2941 58.981 40.9922C59.2217 40.6299 58.5599 40.8714 58.2591 40.9318C57.9583 40.9318 57.7778 40.3884 57.7778 40.2072C57.7778 40.0864 58.3192 40.7507 58.5599 40.7507C58.8607 40.7507 59.2217 40.4487 59.2217 40.1468C59.2217 39.9053 58.6802 39.8449 58.5599 39.543C58.5599 39.3618 59.0412 39.543 58.981 39.3618C58.981 39.2411 58.981 38.8787 58.6802 38.6976C58.3794 38.5768 58.0786 37.5503 57.7778 37.4295C57.5371 37.3691 57.3566 37.671 57.2363 37.7918C57.116 37.9126 56.8753 37.7314 56.9956 37.6107C57.1761 37.4295 57.5371 37.1276 57.5973 36.886C57.7176 36.4633 58.3192 36.886 58.1989 36.2822C58.0786 35.618 57.5371 35.7387 57.7778 35.4368C58.0184 35.1349 57.8379 34.5914 57.2964 34.7122C57.0558 34.7122 56.755 34.3499 56.755 33.9876C56.755 33.8064 56.1533 33.8064 56.2135 33.6253C56.2135 33.2026 55.6119 33.1422 55.2509 33.2026C54.8899 33.2026 54.1078 32.6591 54.0476 32.4779C53.9874 32.3572 53.446 32.5987 53.6265 32.0552C53.8069 31.5118 54.3484 32.176 54.5289 32.0552C54.7696 31.8741 54.7094 31.6929 54.6492 31.5722C54.6492 31.5722 54.5891 31.5722 54.5289 31.5722H54.5891ZM29.5008 12.1886L33.5919 16.2948C38.8863 11.2829 45.9255 8.14284 53.6866 7.9013V2.10435C44.6019 2.28551 35.9985 5.84821 29.4406 12.1886H29.5008ZM18.3103 37.671H24.086C24.2665 29.8814 27.4552 22.756 32.4488 17.5025L28.3577 13.3963C22.0405 19.9783 18.551 28.5529 18.3103 37.7314V37.671Z" fill="#009BD9"/>
</g>
<defs>
<clipPath id="clip0_516_355">
<rect width="808" height="91" fill="white" transform="translate(0.261719 0.474121)"/>
</clipPath>
</defs>
</svg>
