<svg width="56" height="55" viewBox="0 0 56 55" fill="none" xmlns="http://www.w3.org/2000/svg">
<path d="M4.51428 21.2588H47.2904C49.1627 21.2588 50.711 22.8239 50.711 24.7166V33.5796H47.3984C46.8103 31.6323 45.046 30.2795 42.9096 30.2795C40.7732 30.2795 39.0088 31.6869 38.4207 33.5796H18.1489C17.5608 31.6323 15.7964 30.2795 13.66 30.2795" stroke="#50AA57" stroke-width="2" stroke-linecap="round" stroke-linejoin="round"/>
<path d="M44.5657 21.2045H29.2208V10.7704C29.2208 9.63595 30.127 8.71387 31.2552 8.71387H36.3862C37.7244 8.71387 38.9007 9.47216 39.4888 10.6612L44.5657 21.1985V21.2045Z" stroke="#50AA57" stroke-width="2" stroke-linecap="round" stroke-linejoin="round"/>
<path d="M29.2688 21.2588V33.5796H18.2027C17.6146 31.6323 15.8502 30.2795 13.7138 30.2795C11.5774 30.2795 9.81308 31.6869 9.22497 33.5796H7.88671C6.01436 33.5796 4.46606 32.0145 4.46606 30.1218V21.2588H29.2748H29.2688Z" stroke="#50AA57" stroke-width="2" stroke-linecap="round" stroke-linejoin="round"/>
<path d="M26.1722 14.9385H17.0265V21.1565H26.1722V14.9385Z" stroke="#50AA57" stroke-width="2" stroke-linecap="round" stroke-linejoin="round"/>
<path d="M26.0642 14.9385L17.0265 21.205" stroke="#50AA57" stroke-width="2" stroke-linecap="round" stroke-linejoin="round"/>
<path d="M17.0265 14.9385L26.0642 21.205" stroke="#50AA57" stroke-width="2" stroke-linecap="round" stroke-linejoin="round"/>
<path d="M17.0265 14.9385H7.88074V21.1565H17.0265V14.9385Z" stroke="#50AA57" stroke-width="2" stroke-linecap="round" stroke-linejoin="round"/>
<path d="M16.9185 14.9385L7.88074 21.205" stroke="#50AA57" stroke-width="2" stroke-linecap="round" stroke-linejoin="round"/>
<path d="M7.88074 14.9385L16.9185 21.205" stroke="#50AA57" stroke-width="2" stroke-linecap="round" stroke-linejoin="round"/>
<path d="M21.5754 8.66602H12.4297V14.884H21.5754V8.66602Z" stroke="#50AA57" stroke-width="2" stroke-linecap="round" stroke-linejoin="round"/>
<path d="M21.5154 8.7207L12.4297 14.9387" stroke="#50AA57" stroke-width="2" stroke-linecap="round" stroke-linejoin="round"/>
<path d="M12.4297 8.7207L21.5154 14.9387" stroke="#50AA57" stroke-width="2" stroke-linecap="round" stroke-linejoin="round"/>
<path d="M39.6989 18.021H32.2695V12.992C32.2695 12.3975 32.7496 11.9668 33.2837 11.9668H34.622C35.9602 11.9668 37.1365 12.7251 37.7246 13.9141L39.7049 18.021H39.6989Z" stroke="#50AA57" stroke-width="2" stroke-linecap="round" stroke-linejoin="round"/>
<path d="M18.4189 35.0425C18.4189 37.6389 16.3365 39.7985 13.714 39.7985C11.0916 39.7985 9.00916 37.6935 9.00916 35.0425C9.00916 34.5572 9.06317 34.0718 9.2252 33.6351C9.81331 31.6878 11.5776 30.335 13.714 30.335C15.8505 30.335 17.5668 31.7424 18.2029 33.6351C18.3649 34.0658 18.4189 34.5511 18.4189 35.0425Z" stroke="#50AA57" stroke-width="2" stroke-linecap="round" stroke-linejoin="round"/>
<path d="M47.6623 35.0425C47.6623 37.6389 45.58 39.7985 42.9575 39.7985C40.335 39.7985 38.2526 37.6935 38.2526 35.0425C38.2526 34.5572 38.3066 34.0718 38.4686 33.6351C39.0567 31.6878 40.8211 30.335 42.9575 30.335C45.0939 30.335 46.8102 31.7424 47.4463 33.6351C47.5543 34.0658 47.6623 34.5511 47.6623 35.0425Z" stroke="#50AA57" stroke-width="2" stroke-linecap="round" stroke-linejoin="round"/>
<path d="M42.9576 37.422C44.2568 37.422 45.31 36.3574 45.31 35.044C45.31 33.7307 44.2568 32.666 42.9576 32.666C41.6583 32.666 40.6051 33.7307 40.6051 35.044C40.6051 36.3574 41.6583 37.422 42.9576 37.422Z" fill="#50AA57"/>
<path d="M15.1144 35.044C15.1144 35.8153 14.4988 36.422 13.762 36.422C13.0252 36.422 12.4095 35.8153 12.4095 35.044C12.4095 34.2728 13.0252 33.666 13.762 33.666C14.4988 33.666 15.1144 34.2728 15.1144 35.044Z" fill="#50AA57" stroke="#50AA57" stroke-width="2"/>
<path d="M1.30359 42.9893H54.0296" stroke="#50AA57" stroke-width="2" stroke-linecap="round" stroke-linejoin="round"/>
<path d="M1.30359 46.666H32.2635" stroke="#50AA57" stroke-width="2" stroke-linecap="round" stroke-linejoin="round"/>
<path d="M37.7725 46.666H53.9215" stroke="#50AA57" stroke-width="2" stroke-linecap="round" stroke-linejoin="round"/>
<path d="M4.67615 24.7188H19.4329" stroke="#50AA57" stroke-width="2" stroke-linecap="round" stroke-linejoin="round"/>
<path d="M31.7294 24.7188H37.8805" stroke="#50AA57" stroke-width="2" stroke-linecap="round" stroke-linejoin="round"/>
</svg>
