<svg width="54" height="55" viewBox="0 0 54 55" fill="none" xmlns="http://www.w3.org/2000/svg">
<g clip-path="url(#clip0_1195_859)">
<path d="M23.1096 25.3945L24.1838 35.8306" stroke="#50AA57" stroke-width="2" stroke-linecap="round" stroke-linejoin="round"/>
<path d="M14.0574 25.2598L15.5322 35.6959" stroke="#50AA57" stroke-width="2" stroke-linecap="round" stroke-linejoin="round"/>
<path d="M29.8859 35.9009L31.1575 25.4648" stroke="#50AA57" stroke-width="2" stroke-linecap="round" stroke-linejoin="round"/>
<path d="M38.5316 35.9009L40.2097 25.4648" stroke="#50AA57" stroke-width="2" stroke-linecap="round" stroke-linejoin="round"/>
<path d="M51.271 14.5479H2.72327V20.6463H51.271V14.5479Z" stroke="#50AA57" stroke-width="2" stroke-linecap="round" stroke-linejoin="round"/>
<path d="M12.1819 44.7813C11.8451 45.5267 11.7116 46.3426 11.7116 47.1526C11.7116 47.8276 11.8451 48.5084 12.0484 49.1834H6.21289V44.7754H12.1819V44.7813Z" stroke="#50AA57" stroke-width="2" stroke-linecap="round" stroke-linejoin="round"/>
<path d="M30.42 44.7812C30.1529 45.5267 29.9496 46.3426 29.9496 47.1526C29.9496 47.8275 30.0832 48.5084 30.2864 49.1834H23.847C24.0503 48.573 24.1838 47.898 24.1838 47.1526C24.1838 46.3367 24.0503 45.5267 23.7135 44.7812H30.42Z" stroke="#50AA57" stroke-width="2" stroke-linecap="round" stroke-linejoin="round"/>
<path d="M47.9207 44.7812V49.1893H42.0852C42.2884 48.5789 42.422 47.9039 42.422 47.1584C42.422 46.3426 42.2884 45.5326 41.9517 44.7871H47.9207V44.7812Z" stroke="#50AA57" stroke-width="2" stroke-linecap="round" stroke-linejoin="round"/>
<path d="M8.95935 44.4416L4.94128 20.7168H49.3316L45.4413 44.4416" stroke="#50AA57" stroke-width="2" stroke-linecap="round" stroke-linejoin="round"/>
<path d="M24.2535 47.1534C24.2535 47.8284 24.12 48.5093 23.9167 49.1843C23.1096 51.6906 20.7638 53.4573 18.0174 53.4573C15.2709 53.4573 12.989 51.6965 12.118 49.1843C11.9148 48.5738 11.7812 47.8988 11.7812 47.1534C11.7812 46.3375 11.9148 45.5275 12.2516 44.7821C12.3212 44.6471 12.3212 44.5767 12.3851 44.4417C13.3896 42.3404 15.538 40.9141 17.9535 40.9141C20.369 40.9141 22.5812 42.3404 23.5219 44.4417C23.5916 44.5767 23.6554 44.6471 23.6554 44.7821C24.0561 45.5275 24.2593 46.273 24.2593 47.1534H24.2535Z" stroke="#50AA57" stroke-width="2" stroke-linecap="round" stroke-linejoin="round"/>
<path d="M42.422 47.1534C42.422 47.8284 42.2884 48.5093 42.0852 49.1843C41.2781 51.6906 38.9323 53.4573 36.1858 53.4573C33.4394 53.4573 31.0878 51.6965 30.2865 49.1843C30.0833 48.5738 29.9497 47.8988 29.9497 47.1534C29.9497 46.3375 30.0833 45.5275 30.42 44.7821C30.4897 44.6471 30.4897 44.5767 30.5536 44.4417C31.5581 42.3404 33.7065 40.9141 36.1858 40.9141C38.6652 40.9141 40.8136 42.3404 41.7542 44.4417C41.8239 44.5767 41.8878 44.6471 41.8878 44.7821C42.2245 45.5275 42.422 46.273 42.422 47.1534Z" stroke="#50AA57" stroke-width="2" stroke-linecap="round" stroke-linejoin="round"/>
<path d="M6.21289 14.0718L11.9787 7.09293L22.6393 1.93945L29.8161 6.7525" stroke="#50AA57" stroke-width="2" stroke-linecap="round" stroke-linejoin="round"/>
<path d="M26.129 8.78992L34.1071 4.92188L41.0168 5.39731L47.7871 9.67035V14.278" stroke="#50AA57" stroke-width="2" stroke-linecap="round" stroke-linejoin="round"/>
<path d="M9.45507 7.04746L13.064 4.99206L12.4857 8.17995L9.45507 7.04746Z" fill="#50AA57" stroke="#50AA57" stroke-width="2"/>
<path d="M43.8298 4.59576L39.8693 7.6735L37.5352 3.25636L37.7865 2.98587L43.7074 4.29346L43.8298 4.59576Z" fill="#50AA57" stroke="#50AA57" stroke-width="2"/>
<path d="M36.1974 45.5117C36.8388 45.5117 37.3432 45.8507 37.5987 46.346C37.625 46.4249 37.6588 46.4956 37.6961 46.5579C37.7014 46.5668 37.7068 46.5755 37.7121 46.5839C37.7598 46.7196 37.7896 46.8459 37.8045 46.9665V47.153C37.8045 47.2744 37.7753 47.4043 37.7087 47.692C37.4955 48.2775 36.8865 48.7298 36.1916 48.7298C35.5364 48.7298 34.9449 48.3115 34.6641 47.6545C34.6052 47.4205 34.5787 47.2768 34.5787 47.153C34.5787 46.9746 34.6108 46.7866 34.6854 46.5763C34.7258 46.5127 34.7642 46.4373 34.794 46.3501C35.0488 45.8526 35.5542 45.5117 36.1974 45.5117ZM34.5146 46.7842C34.512 46.7868 34.5111 46.7876 34.5126 46.7861L34.514 46.7848L34.5146 46.7842Z" fill="#50AA57" stroke="#50AA57" stroke-width="2"/>
<path d="M18.0233 45.5117C18.6131 45.5117 19.1707 45.8639 19.4253 46.3483C19.4515 46.4262 19.485 46.4962 19.5219 46.5579C19.5272 46.5668 19.5326 46.5755 19.538 46.5839C19.5856 46.7195 19.6154 46.8459 19.6303 46.9665V47.153C19.6303 47.2744 19.6011 47.4043 19.5345 47.692C19.3213 48.2775 18.7123 48.7298 18.0174 48.7298C17.3622 48.7298 16.7707 48.3115 16.4899 47.6545C16.4311 47.4205 16.4045 47.2768 16.4045 47.153C16.4045 46.9746 16.4366 46.7866 16.5112 46.5763C16.5516 46.5127 16.59 46.4373 16.6198 46.3501C16.8746 45.8526 17.3801 45.5117 18.0233 45.5117ZM16.3404 46.7842C16.3378 46.7868 16.3369 46.7876 16.3384 46.7861L16.3398 46.7848L16.3404 46.7842Z" fill="#50AA57" stroke="#50AA57" stroke-width="2"/>
</g>
<defs>
<clipPath id="clip0_1195_859">
<rect width="54" height="54" fill="white" transform="translate(0 0.666016)"/>
</clipPath>
</defs>
</svg>
