<svg width="56" height="57" viewBox="0 0 56 57" fill="none" xmlns="http://www.w3.org/2000/svg">
<path d="M17.0135 8.68452L14.6394 5.07734C14.2636 4.48209 13.6108 4.12137 12.9072 4.12137C12.2036 4.12137 11.5494 4.48209 11.175 5.07734L7.09612 11.2918L4.1611 15.77V15.7727C3.73731 16.4201 3.70439 17.2471 4.07333 17.9274C4.40386 18.5377 5.01692 18.9437 5.70816 19.0096L2.3466 24.1474C1.91732 24.7934 1.87755 25.6232 2.24511 26.3076C2.60307 26.9796 3.30254 27.3993 4.06372 27.3993H4.88251L1.30975 33.4561C0.905152 34.1213 0.896922 34.9538 1.28506 35.6286C1.65811 36.2993 2.3658 36.7135 3.13247 36.7094H8.21664M43.6865 22.8732L41.1574 19.0096C41.8487 18.9451 42.4617 18.5391 42.7922 17.9274C43.1626 17.2471 43.131 16.4201 42.71 15.77L35.6961 5.07597C35.323 4.48346 34.6729 4.12412 33.9721 4.12137C33.2713 4.11863 32.6198 4.47249 32.2399 5.06226L29.7684 8.81482M23.9396 38.5733V41.3658M14.4378 38.5733V41.3658M35.6604 23.895L31.7544 18.0783H31.8723C32.7186 18.081 33.4976 17.6147 33.8953 16.8686C34.2889 16.1252 34.2382 15.2254 33.7623 14.5314L30.9178 10.4566L29.7684 8.81619L25.2397 2.33287C24.8132 1.70882 24.1055 1.33438 23.3498 1.33301C22.5941 1.33164 21.885 1.70196 21.4544 2.32464M30.9493 43.2435L30.7916 41.3672M5.49146 41.3809H30.7628M30.7916 41.3672C30.7916 47.114 34.9623 52.0475 42.533 55.261C42.7634 55.357 43.024 55.357 43.2544 55.261C50.8293 52.0475 54.9986 47.114 54.9986 41.3672H55V28.7517C54.9973 28.2853 54.6516 27.8917 54.1894 27.8314C48.2659 27.0468 44.8399 25.5436 43.3258 24.7193C43.0583 24.5698 42.7319 24.5698 42.4645 24.7193C40.9503 25.5436 37.5243 27.0455 31.6035 27.8314C31.14 27.8903 30.7916 28.284 30.7916 28.7517V41.3672ZM13.0292 27.7628L8.82147 34.6836M35.7921 27.0784C36.5684 26.3515 36.386 24.9292 35.921 24.2297L31.6858 18.0796H31.8038C32.65 18.0824 33.429 17.6161 33.8267 16.8699C34.2203 16.1307 34.1723 15.235 33.7006 14.5424L30.7504 10.3304L29.6039 8.68864L25.1629 2.32464C24.7337 1.70196 24.0246 1.33164 23.2675 1.33301C22.5118 1.33438 21.8041 1.70882 21.3776 2.33287L16.8489 8.81619L15.6996 10.4566L12.9168 14.5424C12.4464 15.235 12.397 16.1307 12.7906 16.8699C13.1883 17.6174 13.9674 18.0824 14.8136 18.0796H14.9315L10.6963 24.2297C10.2314 24.9292 10.1889 25.8275 10.5866 26.5668C10.9843 27.3061 11.7579 27.7655 12.5972 27.7628H13.0279L8.8201 34.6836L8.52797 35.2131C8.12338 35.8783 8.11515 36.7108 8.50328 37.3856C8.87633 38.0563 9.58403 38.4705 10.3507 38.4664H30.723M44.8591 25.5217C45.0196 25.1294 44.9428 24.7961 44.5135 24.1501L41.1519 19.0123C41.8432 18.9478 42.4562 18.5419 42.7868 17.9301" stroke="#50AA57" stroke-width="2" stroke-miterlimit="10" stroke-linecap="round" stroke-linejoin="round"/>
<path d="M38.2471 39.4249L41.0779 42.5836L48.1781 34.416" stroke="#50AA57" stroke-width="2" stroke-miterlimit="10" stroke-linecap="round" stroke-linejoin="round"/>
</svg>
