<svg width="55" height="55" viewBox="0 0 55 55" fill="none" xmlns="http://www.w3.org/2000/svg">
<path d="M30.5234 19.1743C30.5234 20.8589 29.124 22.2735 27.3995 22.2735C25.675 22.2735 24.2756 20.9117 24.2756 19.1743C24.2756 17.4369 25.675 16.0752 27.3995 16.0752C29.124 16.0752 30.5234 17.4369 30.5234 19.1743Z" stroke="#50AA57" stroke-width="2" stroke-linecap="round" stroke-linejoin="round"/>
<path d="M52.5763 13.0819C52.466 12.7003 52.1467 12.4304 51.7692 12.4304C51.1247 12.3775 49.1854 12.1017 49.1854 12.1017L49.9925 10.1999C50.3176 9.54839 49.8299 8.67383 49.075 8.67383H45.1963C44.7667 8.67383 44.4415 8.94383 44.2789 9.27252L41.3699 15.8054C41.0447 16.4569 41.5325 17.3314 42.2873 17.3314H44.0118L41.8054 21.9038C41.5383 22.3382 41.695 22.884 42.1305 23.2656C42.5602 23.5943 43.1002 23.5356 43.4254 23.154C43.4254 23.154 50.2073 16.5684 52.257 14.2264C52.6344 13.8977 52.6344 13.4106 52.5821 13.0819H52.5763Z" stroke="#50AA57" stroke-width="2" stroke-linecap="round" stroke-linejoin="round"/>
<path d="M14.5266 27.4793C14.4162 27.0978 14.0969 26.8278 13.7195 26.8278C13.075 26.775 11.1356 26.4991 11.1356 26.4991L11.9427 24.5974C12.2679 23.9459 11.7801 23.0713 11.0253 23.0713H7.20463C6.77496 23.0713 6.44979 23.3413 6.28721 23.67L3.37818 30.2028C3.05302 30.8543 3.54076 31.7289 4.2956 31.7289H6.02012L3.81367 36.3013C3.54657 36.7356 3.70334 37.2815 4.13883 37.663C4.5685 37.9917 5.1085 37.933 5.43367 37.5515C5.43367 37.5515 12.2156 30.9659 14.2653 28.6239C14.5904 28.2424 14.6427 27.7552 14.5324 27.4793H14.5266Z" stroke="#50AA57" stroke-width="2" stroke-linecap="round" stroke-linejoin="round"/>
<path d="M44.6294 41.4659C44.677 40.0242 43.5593 38.8165 42.1331 38.7684C40.7069 38.7203 39.5121 39.8501 39.4645 41.2918C39.417 42.7336 40.5346 43.9413 41.9609 43.9894C43.3871 44.0375 44.5818 42.9077 44.6294 41.4659Z" stroke="#50AA57" stroke-width="2" stroke-linecap="round" stroke-linejoin="round"/>
<path d="M15.1805 5.10158C15.1934 3.65909 14.0471 2.47912 12.6202 2.46602C11.1932 2.45293 10.0259 3.61168 10.013 5.05417C10 6.49665 11.1463 7.67663 12.5733 7.68972C14.0002 7.70281 15.1675 6.54406 15.1805 5.10158Z" stroke="#50AA57" stroke-width="2" stroke-linecap="round" stroke-linejoin="round"/>
<path d="M50.3873 28.3721C49.795 28.3721 49.3131 28.8592 49.3131 29.4579C49.3131 30.0566 49.795 30.5438 50.3873 30.5438C50.9796 30.5438 51.4615 30.0566 51.4615 29.4579C51.3512 28.7477 50.9796 28.3721 50.3873 28.3721Z" stroke="#50AA57" stroke-width="2" stroke-linecap="round" stroke-linejoin="round"/>
<path d="M14.2652 46.0068C13.673 46.0068 13.191 46.494 13.191 47.0927C13.191 47.6914 13.673 48.1786 14.2652 48.1786C14.8575 48.1786 15.3394 47.6914 15.3394 47.0927C15.2291 46.4412 14.8575 46.0068 14.2652 46.0068Z" fill="#50AA57"/>
<path d="M27.3995 29.7337C22.4988 29.7337 18.5679 25.7072 18.5679 20.8061V11.0098H36.2775V20.8061C36.2253 25.76 32.2421 29.7337 27.3937 29.7337H27.3995Z" stroke="#50AA57" stroke-width="2" stroke-linecap="round" stroke-linejoin="round"/>
<path d="M34.1293 11.0099H28.8512V5.89163C28.8512 4.31272 30.088 3.0625 31.6499 3.0625C32.997 3.0625 34.1235 4.20707 34.1235 5.56293V11.004L34.1293 11.0099Z" stroke="#50AA57" stroke-width="2" stroke-linecap="round" stroke-linejoin="round"/>
<path d="M25.9479 11.0099H20.6698V5.73314C20.6698 4.26575 21.8543 3.06836 23.3059 3.06836C24.7575 3.06836 25.9421 4.26575 25.9421 5.73314V11.0099H25.9479Z" stroke="#50AA57" stroke-width="2" stroke-linecap="round" stroke-linejoin="round"/>
<path d="M27.1324 29.8389V50.846" stroke="#50AA57" stroke-width="2" stroke-linecap="round" stroke-linejoin="round"/>
<path d="M27.4576 42.5761H27.3473C27.3473 36.7007 32.0854 31.9111 37.8976 31.9111H38.0079C38.0079 37.7866 33.3221 42.5761 27.4576 42.5761Z" stroke="#50AA57" stroke-width="2" stroke-linecap="round" stroke-linejoin="round"/>
<path d="M26.9699 42.5761H27.0802C27.0802 36.7007 22.3421 31.9111 16.5299 31.9111H16.4196C16.4196 37.7866 21.1054 42.5761 26.9699 42.5761Z" stroke="#50AA57" stroke-width="2" stroke-linecap="round" stroke-linejoin="round"/>
<path d="M21.7499 37.2412L27.0279 42.5238" stroke="#50AA57" stroke-width="2" stroke-linecap="round" stroke-linejoin="round"/>
<path d="M32.6254 37.2412L27.3473 42.5238" stroke="#50AA57" stroke-width="2" stroke-linecap="round" stroke-linejoin="round"/>
</svg>
