<svg width="55" height="55" viewBox="0 0 55 55" fill="none" xmlns="http://www.w3.org/2000/svg">
<g clip-path="url(#clip0_1195_791)">
<path d="M27.3739 34.171L27.2868 34.259C22.688 29.5634 22.688 21.9858 27.3332 17.3371L27.4203 17.249C32.0655 21.9447 32.019 29.5223 27.3739 34.171Z" stroke="#50AA57" stroke-width="2" stroke-linecap="round" stroke-linejoin="round"/>
<path d="M27.3275 25.8184L27.281 42.1534" stroke="#50AA57" stroke-width="2" stroke-linecap="round" stroke-linejoin="round"/>
<path d="M27.3739 42.5645C35.6827 42.5645 42.4184 35.7557 42.4184 27.3565C42.4184 18.9573 35.6827 12.1484 27.3739 12.1484C19.065 12.1484 12.3293 18.9573 12.3293 27.3565C12.3293 35.7557 19.065 42.5645 27.3739 42.5645Z" stroke="#50AA57" stroke-width="2" stroke-linecap="round" stroke-linejoin="round"/>
<path d="M20.0055 34.8462C15.941 30.7376 15.941 24.0169 20.0055 19.9082" stroke="#50AA57" stroke-width="2" stroke-linecap="round" stroke-linejoin="round"/>
<path d="M34.7365 19.9082C38.801 24.0169 38.801 30.7376 34.7365 34.8462" stroke="#50AA57" stroke-width="2" stroke-linecap="round" stroke-linejoin="round"/>
<path d="M22.9088 49.3732C12.7765 47.2954 5.1875 38.2269 5.1875 27.3506" stroke="#50AA57" stroke-width="2" stroke-linecap="round" stroke-linejoin="round"/>
<path d="M8.93838 31.1017C8.71774 31.2837 8.40419 31.2837 8.22419 31.0548L5.54742 28.12C5.36742 27.8969 5.01322 27.8969 4.78677 28.12L2.11 31.0548C1.93 31.2778 1.61645 31.2778 1.3958 31.1017C1.17516 30.9198 1.17516 30.6028 1.34935 30.3798L4.78677 26.6819C4.96677 26.4589 5.32096 26.4589 5.54742 26.6819L8.98483 30.3798C9.11838 30.6028 9.11838 30.9198 8.93838 31.1017Z" stroke="#50AA57" stroke-width="2" stroke-linecap="round" stroke-linejoin="round"/>
<path d="M49.2874 31.1895C47.5455 41.4318 38.9752 49.2853 28.4829 49.7784" stroke="#50AA57" stroke-width="2" stroke-linecap="round" stroke-linejoin="round"/>
<path d="M31.6126 45.7224C31.8332 45.9044 31.8332 46.2213 31.659 46.4444L29.0229 49.3792C28.8429 49.6022 28.8429 49.9192 29.0694 50.1481L32.1468 52.5839C32.3674 52.7659 32.4139 53.0829 32.2339 53.3059C32.0539 53.5289 31.7403 53.5759 31.5197 53.3939L27.5481 50.2831C27.3274 50.1011 27.281 49.7431 27.5016 49.5142L30.8926 45.7694C31.0726 45.5463 31.3861 45.5463 31.6068 45.7224H31.6126Z" stroke="#50AA57" stroke-width="2" stroke-linecap="round" stroke-linejoin="round"/>
<path d="M31.8391 5.38086C41.6172 7.41173 49.0669 15.9402 49.5604 26.2706" stroke="#50AA57" stroke-width="2" stroke-linecap="round" stroke-linejoin="round"/>
<path d="M45.4959 23.0243C45.6759 22.8012 45.9894 22.8012 46.2101 22.9773L49.1133 25.6421C49.334 25.824 49.6475 25.824 49.8739 25.5951L52.2836 22.4843C52.4636 22.2612 52.7772 22.2143 52.9978 22.3962C53.2185 22.5782 53.2649 22.8951 53.0849 23.1182L50.0075 27.133C49.8275 27.356 49.4733 27.403 49.2469 27.1799L45.5423 23.7521C45.3217 23.5701 45.2752 23.2532 45.4959 23.0301V23.0243Z" stroke="#50AA57" stroke-width="2" stroke-linecap="round" stroke-linejoin="round"/>
<path d="M5.58813 22.8426C7.59717 12.9583 16.0339 5.42762 26.2591 4.92871" stroke="#50AA57" stroke-width="2" stroke-linecap="round" stroke-linejoin="round"/>
<path d="M23.1759 9.12536C22.9552 8.9434 22.9552 8.62645 23.1294 8.4034L25.7655 5.46862C25.9455 5.24558 25.9455 4.92862 25.7191 4.69971L22.6417 2.26384C22.421 2.08188 22.3746 1.76493 22.5546 1.54188C22.7346 1.31884 23.0481 1.27188 23.2688 1.45384L27.2404 4.56471C27.461 4.74667 27.5075 5.10471 27.2868 5.33362L23.8959 9.0784C23.7159 9.30145 23.4023 9.30145 23.1817 9.12536H23.1759Z" stroke="#50AA57" stroke-width="2" stroke-linecap="round" stroke-linejoin="round"/>
</g>
<defs>
<clipPath id="clip0_1195_791">
<rect width="54" height="54" fill="white" transform="translate(0.333252 0.333008)"/>
</clipPath>
</defs>
</svg>
