<svg width="55" height="55" viewBox="0 0 55 55" fill="none" xmlns="http://www.w3.org/2000/svg">
<path d="M10.5729 44.4792C13.3878 44.4792 15.6447 42.3291 15.6447 39.634C15.6447 36.9389 13.3941 34.7889 10.5729 34.7889C10.294 34.7889 10.0087 34.7889 9.72974 34.8434V20.1565H19.588C19.8669 20.1565 20.0952 19.9385 20.0952 19.672V16.4984C20.0952 16.0684 20.0381 15.6929 19.924 15.3174H35.133C35.0189 15.6929 34.9618 16.1229 34.9618 16.4984V19.672C34.9618 19.9385 35.19 20.1565 35.469 20.1565H45.2702V34.8434C45.0419 34.7889 44.763 34.7889 44.5411 34.7889C41.7263 34.7889 39.4693 36.9389 39.4693 39.634C39.4693 42.3291 41.7199 44.4792 44.5411 44.4792" stroke="#50AA57" stroke-width="2" stroke-linecap="round" stroke-linejoin="round"/>
<path d="M45.2131 47.4958L44.8771 47.7138C44.4841 47.9803 43.9769 47.9803 43.5838 47.7138L41.3332 46.2058C41.105 45.9877 40.8261 45.8848 40.5471 45.8848H39.6469C37.4533 45.8848 35.6465 47.2838 35.0823 49.2219H19.9304C19.4232 47.2838 17.5656 45.8848 15.3658 45.8848H14.0154C13.7365 45.8848 13.4512 45.9938 13.2293 46.2058L10.9787 47.7138C10.5856 47.9803 10.1355 47.9803 9.74243 47.7138" stroke="#50AA57" stroke-width="2" stroke-linecap="round" stroke-linejoin="round"/>
<path d="M27.5173 38.6641C31.1762 38.6641 34.1423 35.698 34.1423 32.0391C34.1423 28.3802 31.1762 25.4141 27.5173 25.4141C23.8584 25.4141 20.8923 28.3802 20.8923 32.0391C20.8923 35.698 23.8584 38.6641 27.5173 38.6641Z" stroke="#50AA57" stroke-width="2" stroke-linecap="round" stroke-linejoin="round"/>
<path d="M28.7256 32.2602C28.7256 33.0495 28.0858 33.6894 27.2965 33.6894C26.5072 33.6894 25.8673 33.0495 25.8673 32.2602C25.8673 31.4709 26.5072 30.8311 27.2965 30.8311C28.0858 30.8311 28.7256 31.4709 28.7256 32.2602Z" stroke="#50AA57" stroke-width="2"/>
<path d="M49.1227 5.85833C49.1227 8.55471 46.9668 10.7167 44.2643 10.7167C41.5619 10.7167 39.406 8.56078 39.406 5.85833C39.406 3.15589 41.5619 1 44.2643 1C46.9668 1 49.1227 3.15589 49.1227 5.85833Z" stroke="#50AA57" stroke-width="2" stroke-linecap="round" stroke-linejoin="round"/>
<path d="M54 16.5534V19.727C54 19.9935 53.7718 20.2115 53.4928 20.2115H35.412C35.133 20.2115 34.9048 19.9935 34.9048 19.727V16.5534C34.9048 16.1234 34.9618 15.7479 35.076 15.3724C35.6402 13.4889 37.4407 12.0898 39.5835 12.0898H40.4837C40.7627 12.0898 41.048 12.1989 41.2699 12.4108L43.5205 13.9189C43.9135 14.1854 44.4207 14.1854 44.8138 13.9189L47.0644 12.4108C47.2926 12.1928 47.5715 12.0898 47.8505 12.0898H49.2008C51.9016 12.0898 53.9873 14.0824 53.9873 16.5534H54Z" stroke="#50AA57" stroke-width="2" stroke-linecap="round" stroke-linejoin="round"/>
<path d="M39.4694 20.1574V15.5303" stroke="#50AA57" stroke-width="2" stroke-linecap="round" stroke-linejoin="round"/>
<path d="M49.7207 20.1574V15.5303" stroke="#50AA57" stroke-width="2" stroke-linecap="round" stroke-linejoin="round"/>
<path d="M15.2179 5.85833C15.2179 8.55471 13.062 10.7167 10.3596 10.7167C7.65711 10.7167 5.50122 8.56078 5.50122 5.85833C5.50122 3.15589 7.65711 1 10.3596 1C13.062 1 15.2179 3.15589 15.2179 5.85833Z" stroke="#50AA57" stroke-width="2" stroke-linecap="round" stroke-linejoin="round"/>
<path d="M20.0952 16.5534V19.727C20.0952 19.9935 19.867 20.2115 19.588 20.2115H1.50718C1.22823 20.2115 1 19.9935 1 19.727V16.5534C1 14.0764 3.08577 12.0898 5.67237 12.0898H6.57261C6.85155 12.0898 7.13684 12.1989 7.35873 12.4108L9.60933 13.9189C10.0024 14.1854 10.5096 14.1854 10.9026 13.9189L13.1532 12.4108C13.3815 12.1928 13.6604 12.0898 13.9394 12.0898H15.2897C17.4325 12.0898 19.233 13.4889 19.7972 15.3724C20.0255 15.7479 20.0762 16.1234 20.0762 16.5534H20.0952Z" stroke="#50AA57" stroke-width="2" stroke-linecap="round" stroke-linejoin="round"/>
<path d="M5.55823 20.1574V15.5303" stroke="#50AA57" stroke-width="2" stroke-linecap="round" stroke-linejoin="round"/>
<path d="M15.8096 20.1574V15.5303" stroke="#50AA57" stroke-width="2" stroke-linecap="round" stroke-linejoin="round"/>
<path d="M49.129 39.6474C49.129 42.0766 47.3485 44.0746 44.9725 44.4511C44.7538 44.5057 44.4864 44.5057 44.2737 44.5057C41.5757 44.5057 39.4124 42.3498 39.4124 39.6474C39.4124 36.9449 41.5696 34.7891 44.2737 34.7891C44.5411 34.7891 44.7599 34.7891 44.9725 34.8437C47.3485 35.2202 49.129 37.2182 49.129 39.6474Z" stroke="#50AA57" stroke-width="2" stroke-linecap="round" stroke-linejoin="round"/>
<path d="M54 50.3417V53.5153C54 53.7818 53.7718 53.9998 53.4928 53.9998H35.412C35.133 53.9998 34.9048 53.7818 34.9048 53.5153V50.3417C34.9048 49.9662 34.9618 49.5907 35.076 49.2092C35.5831 47.2711 37.4407 45.8721 39.6406 45.8721H40.5408C40.8197 45.8721 41.105 45.9811 41.3269 46.1931L43.5775 47.7011C43.9706 47.9676 44.4778 47.9676 44.8708 47.7011L45.2068 47.4831L47.1214 46.1931C47.3496 45.975 47.6286 45.8721 47.9075 45.8721H49.2579C51.9079 45.8721 53.9873 47.8646 53.9873 50.3357L54 50.3417Z" stroke="#50AA57" stroke-width="2" stroke-linecap="round" stroke-linejoin="round"/>
<path d="M39.4694 53.9523V49.3252" stroke="#50AA57" stroke-width="2" stroke-linecap="round" stroke-linejoin="round"/>
<path d="M49.7207 53.9523V49.3252" stroke="#50AA57" stroke-width="2" stroke-linecap="round" stroke-linejoin="round"/>
<path d="M15.1671 39.6474C15.1671 42.3438 13.0219 44.5057 10.3329 44.5057C10.0671 44.5057 9.79514 44.5057 9.52926 44.4511C7.22095 44.0746 5.45044 42.0766 5.45044 39.6474C5.45044 37.2182 7.22095 35.2202 9.52926 34.8437C9.79514 34.7891 10.0671 34.7891 10.3329 34.7891C13.0159 34.7891 15.1671 36.9996 15.1671 39.6474Z" stroke="#50AA57" stroke-width="2" stroke-linecap="round" stroke-linejoin="round"/>
<path d="M20.0952 50.3415V53.5151C20.0952 53.7816 19.867 53.9996 19.588 53.9996H1.50718C1.22823 53.9996 1 53.7816 1 53.5151V50.3415C1 47.8644 3.08577 45.8779 5.67237 45.8779H6.57261C6.85155 45.8779 7.13684 45.9869 7.35873 46.1989L9.60933 47.707H9.66639C10.0595 47.925 10.5096 47.925 10.9026 47.707L13.1532 46.1989C13.3815 45.9809 13.6604 45.8779 13.9394 45.8779H15.2897C17.4833 45.8779 19.2901 47.277 19.8543 49.215C20.0255 49.5905 20.0825 49.966 20.0825 50.3476L20.0952 50.3415Z" stroke="#50AA57" stroke-width="2" stroke-linecap="round" stroke-linejoin="round"/>
<path d="M5.55823 53.9523V49.3252" stroke="#50AA57" stroke-width="2" stroke-linecap="round" stroke-linejoin="round"/>
<path d="M15.8096 53.9523V49.3252" stroke="#50AA57" stroke-width="2" stroke-linecap="round" stroke-linejoin="round"/>
<path d="M27.5173 24.9723L27.5173 15.6973" stroke="#50AA57" stroke-width="2" stroke-linecap="round" stroke-linejoin="round"/>
<path d="M27.4746 49.1058V39.1006" stroke="#50AA57" stroke-width="2" stroke-linecap="round" stroke-linejoin="round"/>
<path d="M34.1187 32.2637H45.0483" stroke="#50AA57" stroke-width="2" stroke-linecap="round" stroke-linejoin="round"/>
<path d="M9.84387 32.2637H20.5453" stroke="#50AA57" stroke-width="2" stroke-linecap="round" stroke-linejoin="round"/>
<path d="M33.9966 9.79377V9.69824H34.1901V9.79377H33.9966Z" fill="#006CA7" stroke="#50AA57" stroke-width="2"/>
<path d="M31.7966 7.74592V7.65039H31.9902V7.74592H31.7966Z" fill="#006CA7" stroke="#50AA57" stroke-width="2"/>
<path d="M29.603 5.6512V5.55566H29.7966V5.6512H29.603Z" fill="#006CA7" stroke="#50AA57" stroke-width="2"/>
<path d="M27.4033 3.54866V3.45312H27.5969V3.54866H27.4033Z" fill="#006CA7" stroke="#50AA57" stroke-width="2"/>
<path d="M25.2096 5.6512V5.55566H25.4031V5.6512H25.2096Z" fill="#006CA7" stroke="#50AA57" stroke-width="2"/>
<path d="M23.0098 7.74592V7.65039H23.2033V7.74592H23.0098Z" fill="#006CA7" stroke="#50AA57" stroke-width="2"/>
<path d="M20.8163 9.79377V9.69824H21.0098V9.79377H20.8163Z" fill="#006CA7" stroke="#50AA57" stroke-width="2"/>
<path d="M18.3944 24.3768V24.2812H18.588V24.3768H18.3944Z" fill="#006CA7" stroke="#50AA57" stroke-width="2"/>
<path d="M16.1947 26.4725V26.377H16.3882V26.4725H16.1947Z" fill="#006CA7" stroke="#50AA57" stroke-width="2"/>
<path d="M38.726 24.3768V24.2812H38.9195V24.3768H38.726Z" fill="#006CA7" stroke="#50AA57" stroke-width="2"/>
<path d="M36.5325 26.4725V26.377H36.726V26.4725H36.5325Z" fill="#006CA7" stroke="#50AA57" stroke-width="2"/>
</svg>
