<svg width="55" height="54" viewBox="0 0 55 54" fill="none" xmlns="http://www.w3.org/2000/svg">
<path d="M52.3333 13.5986V49.9172H7.70413C4.74167 49.9172 2.33325 47.513 2.33325 44.543C2.50286 41.9124 4.67948 39.7854 7.36492 39.7854C8.76135 39.7854 10.0504 40.3454 10.9436 41.2958C11.8369 42.1896 12.3966 43.4795 12.3966 44.8768V13.5986H52.3277H52.3333Z" stroke="#50AA57" stroke-width="2" stroke-linecap="round" stroke-linejoin="round"/>
<path d="M17.4338 44.3223H52.2767" stroke="#50AA57" stroke-width="2" stroke-linecap="round" stroke-linejoin="round"/>
<path d="M37.6792 41.2949H49.2577" stroke="#50AA57" stroke-width="2" stroke-linecap="round" stroke-linejoin="round"/>
<path d="M17.4905 39.1182H31.8053" stroke="#50AA57" stroke-width="2" stroke-linecap="round" stroke-linejoin="round"/>
<path d="M41.6537 37.7139H49.2577" stroke="#50AA57" stroke-width="2" stroke-linecap="round" stroke-linejoin="round"/>
<path d="M45.7356 34.0762H49.2578" stroke="#50AA57" stroke-width="2" stroke-linecap="round" stroke-linejoin="round"/>
<path d="M12.4021 9.11783V44.8198C12.4021 43.4225 11.8424 42.1327 10.9491 41.2389C10.0559 40.345 8.76685 39.7284 7.37042 39.7284C4.68498 39.7284 2.50271 41.7989 2.33876 44.486V44.8198V9.11783C2.3331 6.32322 4.57191 4.08301 7.36477 4.08301C8.7612 4.08301 10.0502 4.64306 10.9435 5.53688C11.8367 6.43071 12.3964 7.72053 12.3964 9.11783H12.4021Z" stroke="#50AA57" stroke-width="2" stroke-linecap="round" stroke-linejoin="round"/>
<path d="M27.7233 28.8162V33.7945H17.4338V24.2227H22.6351" stroke="#50AA57" stroke-width="2" stroke-linecap="round" stroke-linejoin="round"/>
<path d="M31.9749 24.2285C31.9749 26.6328 30.0753 28.6524 27.6669 28.8164H27.3898C24.874 28.8164 22.8048 26.7459 22.8048 24.2285C22.8048 21.7111 24.874 19.6406 27.3898 19.6406C29.9057 19.6406 31.9749 21.7111 31.9749 24.2285Z" stroke="#50AA57" stroke-width="2" stroke-linecap="round" stroke-linejoin="round"/>
<path d="M42.824 22.999L45.7356 25.8502L36.9556 34.862L32.6476 36.429L34.044 32.0051L42.824 22.999Z" stroke="#50AA57" stroke-width="2" stroke-linecap="round" stroke-linejoin="round"/>
<path d="M46.2953 21.4316L47.2451 22.382C47.8048 22.942 47.8048 23.7793 47.2451 24.3393L45.7356 25.9063L42.8297 23.0495L44.3392 21.4825C44.8989 20.8659 45.7356 20.8659 46.2953 21.4259V21.4316Z" stroke="#50AA57" stroke-width="2" stroke-linecap="round" stroke-linejoin="round"/>
</svg>
