<svg width="55" height="55" viewBox="0 0 55 55" fill="none" xmlns="http://www.w3.org/2000/svg">
<path d="M17.7685 42.6055H2.33325V49.6658H17.7685V42.6055Z" stroke="#50AA57" stroke-width="2" stroke-linecap="round" stroke-linejoin="round"/>
<path d="M25.4605 42.5537H17.7686V49.6659H25.4605V42.5537Z" stroke="#50AA57" stroke-width="2" stroke-linecap="round" stroke-linejoin="round"/>
<path d="M36.9471 42.6055H25.4606V49.6658H36.9471V42.6055Z" stroke="#50AA57" stroke-width="2" stroke-linecap="round" stroke-linejoin="round"/>
<path d="M52.3309 42.6055H36.947V49.6139H52.3309V42.6055Z" stroke="#50AA57" stroke-width="2" stroke-linecap="round" stroke-linejoin="round"/>
<path d="M13.9225 35.4932H2.33325V42.5535H13.9225V35.4932Z" stroke="#50AA57" stroke-width="2" stroke-linecap="round" stroke-linejoin="round"/>
<path d="M33.1524 35.4414H13.9739V42.5536H33.1524V35.4414Z" stroke="#50AA57" stroke-width="2" stroke-linecap="round" stroke-linejoin="round"/>
<path d="M40.8444 35.4414H33.1525V42.5017H40.8444V35.4414Z" stroke="#50AA57" stroke-width="2" stroke-linecap="round" stroke-linejoin="round"/>
<path d="M10.1279 28.3291H2.33325V35.3894H10.1279V28.3291Z" stroke="#50AA57" stroke-width="2" stroke-linecap="round" stroke-linejoin="round"/>
<path d="M10.1279 21.2168H2.33325V28.2252H10.1279V21.2168Z" stroke="#50AA57" stroke-width="2" stroke-linecap="round" stroke-linejoin="round"/>
<path d="M10.1279 5.66602H2.33325V12.6744H10.1279V5.66602Z" stroke="#50AA57" stroke-width="2" stroke-linecap="round" stroke-linejoin="round"/>
<path d="M21.6145 28.3809H10.1279V35.4931H21.6145V28.3809Z" stroke="#50AA57" stroke-width="2" stroke-linecap="round" stroke-linejoin="round"/>
<path d="M17.7685 21.2695H10.1279V28.3817H17.7685V21.2695Z" stroke="#50AA57" stroke-width="2" stroke-linecap="round" stroke-linejoin="round"/>
<path d="M29.3065 28.3809H21.6145V35.4412H29.3065V28.3809Z" stroke="#50AA57" stroke-width="2" stroke-linecap="round" stroke-linejoin="round"/>
<path d="M29.3065 10.4766H21.6145V17.5369H29.3065V10.4766Z" stroke="#50AA57" stroke-width="2" stroke-linecap="round" stroke-linejoin="round"/>
<path d="M34.2651 28.3291H49.7518" stroke="#50AA57" stroke-width="2" stroke-linecap="round" stroke-linejoin="round"/>
<path d="M34.2651 23.0635H44.7417" stroke="#50AA57" stroke-width="2" stroke-linecap="round" stroke-linejoin="round"/>
</svg>
