<svg width="59" height="58" viewBox="0 0 59 58" fill="none" xmlns="http://www.w3.org/2000/svg">
<path d="M21.1134 46.7687V44.0048C21.1134 40.5812 23.8475 37.8174 27.2343 37.8174V40.5812C27.2898 44.0048 24.5002 46.7687 21.1134 46.7687Z" stroke="#50AA57" stroke-width="2" stroke-linecap="round" stroke-linejoin="round"/>
<path d="M21.1134 39.3614V36.5976C21.1134 33.174 23.8475 30.4102 27.2343 30.4102V33.174C27.2898 36.5976 24.5002 39.3614 21.1134 39.3614Z" stroke="#50AA57" stroke-width="2" stroke-linecap="round" stroke-linejoin="round"/>
<path d="M21.1134 32.0099V29.2461C21.1134 25.8224 23.8475 23.0586 27.2343 23.0586V25.8224C27.2898 29.1963 24.5002 32.0099 21.1134 32.0099Z" stroke="#50AA57" stroke-width="2" stroke-linecap="round" stroke-linejoin="round"/>
<path d="M21.1134 24.6085V21.8447C21.1134 18.421 23.8475 15.6572 27.2343 15.6572V18.421C27.2898 21.8447 24.5002 24.6085 21.1134 24.6085Z" stroke="#50AA57" stroke-width="2" stroke-linecap="round" stroke-linejoin="round"/>
<path d="M21.0581 46.7687V44.0048C21.0581 40.5812 18.324 37.8174 14.9371 37.8174V40.5812C14.9371 44.0048 17.6712 46.7687 21.0581 46.7687Z" stroke="#50AA57" stroke-width="2" stroke-linecap="round" stroke-linejoin="round"/>
<path d="M21.0581 39.3614V36.5976C21.0581 33.174 18.324 30.4102 14.9371 30.4102V33.174C14.9371 36.5976 17.6712 39.3614 21.0581 39.3614Z" stroke="#50AA57" stroke-width="2" stroke-linecap="round" stroke-linejoin="round"/>
<path d="M21.0581 32.0099V29.2461C21.0581 25.8224 18.324 23.0586 14.9371 23.0586V25.8224C14.9371 29.1963 17.6712 32.0099 21.0581 32.0099Z" stroke="#50AA57" stroke-width="2" stroke-linecap="round" stroke-linejoin="round"/>
<path d="M21.0581 24.6085V21.8447C21.0581 18.421 18.324 15.6572 14.9371 15.6572V18.421C14.9371 21.8447 17.6712 24.6085 21.0581 24.6085Z" stroke="#50AA57" stroke-width="2" stroke-linecap="round" stroke-linejoin="round"/>
<path d="M21.1626 11.4555V2" stroke="#50AA57" stroke-width="2" stroke-linecap="round" stroke-linejoin="round"/>
<path d="M23.9523 11.4553V4.71387" stroke="#50AA57" stroke-width="2" stroke-linecap="round" stroke-linejoin="round"/>
<path d="M18.3239 11.4553V4.71387" stroke="#50AA57" stroke-width="2" stroke-linecap="round" stroke-linejoin="round"/>
<path d="M21.0579 55.3339V46.7686" stroke="#50AA57" stroke-width="2" stroke-linecap="round" stroke-linejoin="round"/>
<path d="M38.2201 46.8253V44.0615C38.2201 40.6378 40.9542 37.874 44.341 37.874V40.6378C44.3965 44.0615 41.6623 46.8253 38.2201 46.8253Z" stroke="#50AA57" stroke-width="2" stroke-linecap="round" stroke-linejoin="round"/>
<path d="M38.2201 39.4171V36.6533C38.2201 33.2296 40.9542 30.4658 44.341 30.4658V33.2296C44.3965 36.6533 41.6623 39.4171 38.2201 39.4171Z" stroke="#50AA57" stroke-width="2" stroke-linecap="round" stroke-linejoin="round"/>
<path d="M38.2201 32.0099V29.2461C38.2201 25.8224 40.9542 23.0586 44.341 23.0586V25.8224C44.3965 29.2461 41.6623 32.0099 38.2201 32.0099Z" stroke="#50AA57" stroke-width="2" stroke-linecap="round" stroke-linejoin="round"/>
<path d="M38.2201 24.6642V21.9004C38.2201 18.4767 40.9542 15.7129 44.341 15.7129V18.4767C44.3965 21.8506 41.6623 24.6642 38.2201 24.6642Z" stroke="#50AA57" stroke-width="2" stroke-linecap="round" stroke-linejoin="round"/>
<path d="M38.2199 46.8253V44.0615C38.2199 40.6378 35.4858 37.874 32.099 37.874V40.6378C32.0435 44.0615 34.8331 46.8253 38.2199 46.8253Z" stroke="#50AA57" stroke-width="2" stroke-linecap="round" stroke-linejoin="round"/>
<path d="M38.2199 39.4171V36.6533C38.2199 33.2296 35.4858 30.4658 32.099 30.4658V33.2296C32.0435 36.6533 34.8331 39.4171 38.2199 39.4171Z" stroke="#50AA57" stroke-width="2" stroke-linecap="round" stroke-linejoin="round"/>
<path d="M38.2199 32.0099V29.2461C38.2199 25.8224 35.4858 23.0586 32.099 23.0586V25.8224C32.0435 29.2461 34.8331 32.0099 38.2199 32.0099Z" stroke="#50AA57" stroke-width="2" stroke-linecap="round" stroke-linejoin="round"/>
<path d="M38.2199 24.6642V21.9004C38.2199 18.4767 35.4858 15.7129 32.099 15.7129V18.4767C32.0435 21.8506 34.8331 24.6642 38.2199 24.6642Z" stroke="#50AA57" stroke-width="2" stroke-linecap="round" stroke-linejoin="round"/>
<path d="M38.2755 11.5112V2.05566" stroke="#50AA57" stroke-width="2" stroke-linecap="round" stroke-linejoin="round"/>
<path d="M41.1204 11.5114V4.71387" stroke="#50AA57" stroke-width="2" stroke-linecap="round" stroke-linejoin="round"/>
<path d="M35.4366 11.5114V4.71387" stroke="#50AA57" stroke-width="2" stroke-linecap="round" stroke-linejoin="round"/>
<path d="M38.1708 55.3335V46.8242" stroke="#50AA57" stroke-width="2" stroke-linecap="round" stroke-linejoin="round"/>
<path d="M12.363 56H46.9703" stroke="#50AA57" stroke-width="2" stroke-linecap="round" stroke-linejoin="round"/>
</svg>
