<svg width="1105" height="496" viewBox="0 0 1105 496" fill="none" xmlns="http://www.w3.org/2000/svg">
<rect width="1105" height="496" rx="32" fill="url(#paint0_radial_525_47)"/>
<mask id="mask0_525_47" style="mask-type:alpha" maskUnits="userSpaceOnUse" x="0" y="0" width="1105" height="496">
<rect width="1105" height="496" rx="32" fill="url(#paint1_linear_525_47)"/>
</mask>
<g mask="url(#mask0_525_47)">
<g style="mix-blend-mode:multiply">
<path style="mix-blend-mode:multiply" d="M852.632 1317.58C615.203 1317.69 376.205 1309.49 137.374 1293.31C131.647 1292.93 126.131 1291 121.405 1287.74L-197.827 1067.77C-214.371 1056.37 -216.421 1032.72 -202.273 1018.45C-92.0918 907.352 -3.24854 801.665 64.7648 702.026C157.307 566.395 212.164 439.797 229.528 328.622C257.503 148.681 171.52 -8.76028 42.8348 -97.2058C-195.95 -260.919 -560.526 -287.562 -945.81 -246.821C-929.081 -250.631 -913.732 -254.854 -899.874 -259.585C-898.3 -260.123 -896.691 -260.552 -895.054 -260.85C-356.458 -358.997 196.282 -366.054 704.975 -215.747C970.256 -137.199 1237.53 -9.22061 1465.7 189.883C1589.76 298.238 1705.9 431.166 1802.88 590.793C1905.53 759.8 1990.01 965.123 2042.08 1207.26C2045.96 1225.31 2033.54 1242.74 2015.24 1245.14C1648.71 1293.19 1258.3 1317.35 852.632 1317.58Z" fill="url(#paint2_radial_525_47)"/>
<path style="mix-blend-mode:multiply" d="M-958.607 -233.413C-622.649 -266.443 -300.647 -249.237 -64.1771 -128.797C46.1152 -72.5189 139.237 14.7181 176.665 125.491C215.028 239.246 196.074 390.457 112.794 554.559C101.86 576.103 116.578 602.392 140.731 602.999C650.142 615.805 1129.5 583.522 1553.62 507.836C1575.94 503.851 1586.88 478.475 1574.06 459.77C1439.16 263.002 1266.87 113.184 1086.59 4.18753C904.467 -105.837 706.391 -180.645 506.964 -229.672C116.286 -325.647 -299.413 -330.18 -711.089 -276.398C-713.133 -276.131 -715.135 -275.666 -717.093 -275.022C-779 -254.674 -860.61 -241.06 -958.672 -233.413H-958.607Z" fill="url(#paint3_radial_525_47)"/>
<path style="mix-blend-mode:multiply" d="M566.128 1558.05C560.119 1557.79 554.305 1555.84 549.352 1552.43L-835.727 598.007C-854.465 585.095 -854.101 557.278 -835.23 544.563C-685.336 443.563 -569.947 347.056 -489.464 255.713C-408.948 164.218 -363.995 75.8298 -361.744 1.54019C-359.879 -61.7585 -392.549 -119.993 -442.904 -159.008C-470.569 -180.389 -502.957 -198.033 -539.155 -212.423C-575.606 -226.914 -575.172 -311.21 -536.054 -314.127C-214.68 -338.094 96.079 -318.186 384.772 -242.217C666.838 -167.813 947.81 -27.4621 1139.58 207.318C1245.5 337.196 1328.98 503.844 1367.76 702.199C1389.43 813.317 1397.98 936.807 1390.52 1071.46C1382.64 1213.86 1356.71 1370.83 1309.96 1541.56C1306.26 1555.07 1294.1 1564.52 1280.09 1564.86C1043.85 1570.49 805.325 1568.19 566.128 1558.05Z" fill="url(#paint4_radial_525_47)"/>
<path style="mix-blend-mode:multiply" d="M351.909 1558.05C345.9 1557.79 340.086 1555.84 335.133 1552.43L-1049.95 598.007C-1068.68 585.095 -1068.32 557.278 -1049.45 544.563C-899.554 443.563 -784.166 347.056 -703.683 255.713C-623.166 164.218 -578.213 75.8298 -575.963 1.54019C-574.098 -61.7585 -606.767 -119.993 -657.122 -159.008C-684.788 -180.389 -717.176 -198.033 -753.373 -212.423C-789.825 -226.914 -789.391 -311.21 -750.273 -314.127C-428.899 -338.094 -118.14 -318.186 170.553 -242.217C452.619 -167.813 733.592 -27.4621 925.365 207.318C1031.28 337.196 1114.76 503.844 1153.54 702.199C1175.21 813.317 1183.76 936.807 1176.3 1071.46C1168.42 1213.86 1142.49 1370.83 1095.74 1541.56C1092.04 1555.07 1079.88 1564.52 1065.87 1564.86C829.636 1570.49 591.106 1568.19 351.909 1558.05Z" fill="url(#paint5_radial_525_47)"/>
<path style="mix-blend-mode:multiply" d="M-979.772 442.737C-979.768 442.734 -979.765 442.732 -979.761 442.729C-955.132 428.575 -931.275 414.535 -908.318 400.495C-766.963 314.351 -657.7 231.775 -581.813 152.94C-470.106 36.8729 -444.253 -88.7462 -502.712 -154.117C-508.976 -161.104 -515.893 -167.7 -523.412 -173.921C-553.165 -198.538 -545.929 -288.738 -507.336 -290.091C-237.47 -299.555 16.7454 -270.396 238.016 -186.859C419.758 -118.151 586.451 0.332275 667.096 169.57C711.277 262.504 732.05 375.694 720.924 500.967C708.396 641.45 656.123 803.281 560.24 980.176C554.579 990.62 543.515 996.956 531.639 996.673C272.671 990.506 14.965 974.316 -238.93 948.515C-244.277 947.972 -249.397 946.085 -253.823 943.036L-979.765 442.835C-979.799 442.812 -979.802 442.764 -979.772 442.737Z" fill="url(#paint6_radial_525_47)"/>
<path style="mix-blend-mode:multiply" d="M-941.864 489.288C-961.238 475.939 -960.068 446.924 -939.861 434.872C-834.103 371.795 -745.236 310.387 -673.391 250.765C-533.066 134.18 -458.272 17.941 -471.713 -67.3396C-489.399 -177.537 -656.67 -234.908 -861.37 -247.396C-815.967 -249.582 -772.686 -253.035 -731.849 -257.811C-344.186 -290.439 38.2044 -257.466 296.99 -83.5095C422.781 1.25317 520.34 135.792 535.582 298.93C544.263 393.187 528.443 501.428 485.612 617.897C437.208 749.51 354.019 894.945 234.152 1051.4C227.745 1059.76 217.585 1064.37 207.069 1063.75C90.8392 1056.85 -24.7123 1048 -139.428 1037.25C-144.864 1036.75 -150.077 1034.85 -154.573 1031.75L-941.864 489.288Z" fill="url(#paint7_radial_525_47)"/>
</g>
</g>
<g filter="url(#filter0_d_525_47)">
<path d="M325.188 199.141L300.227 280H273.719L311.336 177.625H328.141L325.188 199.141ZM345.859 280L320.828 199.141L317.594 177.625H334.609L372.438 280H345.859ZM344.875 241.82V260.875H292.352V241.82H344.875ZM402.742 222.766V280H379.047V203.922H401.195L402.742 222.766ZM425.242 203.359L424.82 225.367C423.883 225.273 422.617 225.156 421.023 225.016C419.43 224.875 418.094 224.805 417.016 224.805C414.25 224.805 411.859 225.133 409.844 225.789C407.875 226.398 406.234 227.336 404.922 228.602C403.656 229.82 402.719 231.367 402.109 233.242C401.547 235.117 401.289 237.297 401.336 239.781L397.047 236.969C397.047 231.859 397.539 227.219 398.523 223.047C399.555 218.828 401.008 215.195 402.883 212.148C404.758 209.055 407.031 206.688 409.703 205.047C412.375 203.359 415.375 202.516 418.703 202.516C419.875 202.516 421.023 202.586 422.148 202.727C423.32 202.867 424.352 203.078 425.242 203.359ZM476.992 203.922V220.375H431.148V203.922H476.992ZM440.781 185.008H464.477V255.18C464.477 257.195 464.711 258.766 465.18 259.891C465.648 260.969 466.445 261.742 467.57 262.211C468.742 262.633 470.289 262.844 472.211 262.844C473.57 262.844 474.695 262.82 475.586 262.773C476.477 262.68 477.32 262.562 478.117 262.422V279.367C476.102 280.023 473.992 280.516 471.789 280.844C469.586 281.219 467.242 281.406 464.758 281.406C459.695 281.406 455.359 280.609 451.75 279.016C448.188 277.422 445.469 274.914 443.594 271.492C441.719 268.07 440.781 263.617 440.781 258.133V185.008ZM511.445 203.922V280H487.68V203.922H511.445ZM486.273 184.305C486.273 180.93 487.492 178.164 489.93 176.008C492.367 173.852 495.531 172.773 499.422 172.773C503.312 172.773 506.477 173.852 508.914 176.008C511.352 178.164 512.57 180.93 512.57 184.305C512.57 187.68 511.352 190.445 508.914 192.602C506.477 194.758 503.312 195.836 499.422 195.836C495.531 195.836 492.367 194.758 489.93 192.602C487.492 190.445 486.273 187.68 486.273 184.305ZM558.203 263.125C560.406 263.125 562.281 262.727 563.828 261.93C565.422 261.086 566.617 259.914 567.414 258.414C568.258 256.867 568.656 255.016 568.609 252.859H590.898C590.945 258.578 589.539 263.594 586.68 267.906C583.867 272.172 580.023 275.5 575.148 277.891C570.32 280.234 564.859 281.406 558.766 281.406C552.812 281.406 547.609 280.445 543.156 278.523C538.703 276.555 534.977 273.836 531.977 270.367C529.023 266.852 526.797 262.75 525.297 258.062C523.844 253.375 523.117 248.289 523.117 242.805V241.188C523.117 235.703 523.844 230.617 525.297 225.93C526.797 221.195 529.023 217.094 531.977 213.625C534.977 210.109 538.68 207.391 543.086 205.469C547.539 203.5 552.719 202.516 558.625 202.516C564.953 202.516 570.531 203.711 575.359 206.102C580.234 208.492 584.055 211.961 586.82 216.508C589.586 221.055 590.945 226.562 590.898 233.031H568.609C568.656 230.734 568.305 228.672 567.555 226.844C566.805 225.016 565.633 223.562 564.039 222.484C562.492 221.359 560.5 220.797 558.062 220.797C555.625 220.797 553.656 221.336 552.156 222.414C550.656 223.492 549.508 224.992 548.711 226.914C547.961 228.789 547.445 230.945 547.164 233.383C546.93 235.82 546.812 238.422 546.812 241.188V242.805C546.812 245.617 546.93 248.266 547.164 250.75C547.445 253.188 547.984 255.344 548.781 257.219C549.578 259.047 550.727 260.5 552.227 261.578C553.727 262.609 555.719 263.125 558.203 263.125ZM626.055 172V280H602.289V172H626.055ZM677.523 281.406C671.336 281.406 665.805 280.445 660.93 278.523C656.055 276.555 651.93 273.859 648.555 270.438C645.227 267.016 642.672 263.078 640.891 258.625C639.156 254.172 638.289 249.461 638.289 244.492V241.82C638.289 236.242 639.062 231.086 640.609 226.352C642.156 221.57 644.453 217.398 647.5 213.836C650.547 210.273 654.367 207.508 658.961 205.539C663.555 203.523 668.898 202.516 674.992 202.516C680.383 202.516 685.211 203.383 689.477 205.117C693.742 206.852 697.352 209.336 700.305 212.57C703.305 215.805 705.578 219.719 707.125 224.312C708.719 228.906 709.516 234.062 709.516 239.781V249.414H647.359V234.578H686.383V232.75C686.43 230.219 685.984 228.062 685.047 226.281C684.156 224.5 682.844 223.141 681.109 222.203C679.375 221.266 677.266 220.797 674.781 220.797C672.203 220.797 670.07 221.359 668.383 222.484C666.742 223.609 665.453 225.156 664.516 227.125C663.625 229.047 662.992 231.273 662.617 233.805C662.242 236.336 662.055 239.008 662.055 241.82V244.492C662.055 247.305 662.43 249.859 663.18 252.156C663.977 254.453 665.102 256.422 666.555 258.062C668.055 259.656 669.836 260.898 671.898 261.789C674.008 262.68 676.398 263.125 679.07 263.125C682.305 263.125 685.492 262.516 688.633 261.297C691.773 260.078 694.469 258.062 696.719 255.25L707.477 268.047C705.93 270.25 703.727 272.383 700.867 274.445C698.055 276.508 694.68 278.195 690.742 279.508C686.805 280.773 682.398 281.406 677.523 281.406ZM808.023 176.148H811.82V194.781H810.555C806.008 194.781 801.742 195.414 797.758 196.68C793.82 197.945 790.352 199.867 787.352 202.445C784.398 204.977 782.078 208.188 780.391 212.078C778.75 215.969 777.93 220.539 777.93 225.789V243.719C777.93 247 778.211 249.859 778.773 252.297C779.336 254.734 780.18 256.75 781.305 258.344C782.43 259.938 783.812 261.133 785.453 261.93C787.141 262.727 789.086 263.125 791.289 263.125C793.117 263.125 794.805 262.703 796.352 261.859C797.898 261.016 799.234 259.82 800.359 258.273C801.531 256.727 802.422 254.922 803.031 252.859C803.641 250.797 803.945 248.547 803.945 246.109C803.945 243.484 803.617 241.117 802.961 239.008C802.305 236.898 801.367 235.117 800.148 233.664C798.977 232.164 797.547 231.039 795.859 230.289C794.219 229.492 792.414 229.094 790.445 229.094C787.445 229.094 784.891 229.773 782.781 231.133C780.719 232.445 779.148 234.133 778.07 236.195C777.039 238.258 776.523 240.344 776.523 242.453L770.828 236.688C770.734 233.875 771.273 230.969 772.445 227.969C773.617 224.969 775.375 222.18 777.719 219.602C780.062 217.023 782.992 214.938 786.508 213.344C790.023 211.75 794.102 210.953 798.742 210.953C803.43 210.953 807.555 211.844 811.117 213.625C814.727 215.406 817.75 217.891 820.188 221.078C822.672 224.266 824.547 227.992 825.812 232.258C827.078 236.523 827.711 241.141 827.711 246.109C827.711 251.125 826.82 255.789 825.039 260.102C823.305 264.367 820.844 268.094 817.656 271.281C814.469 274.469 810.695 276.953 806.336 278.734C801.977 280.516 797.172 281.406 791.922 281.406C786.531 281.406 781.539 280.492 776.945 278.664C772.398 276.789 768.414 274.094 764.992 270.578C761.617 267.016 758.969 262.68 757.047 257.57C755.172 252.461 754.234 246.672 754.234 240.203V231.555C754.234 222.789 755.664 214.984 758.523 208.141C761.43 201.297 765.367 195.508 770.336 190.773C775.352 185.992 781.094 182.359 787.562 179.875C794.031 177.391 800.852 176.148 808.023 176.148Z" fill="white"/>
</g>
<defs>
<filter id="filter0_d_525_47" x="251.719" y="162" width="597.992" height="153.406" filterUnits="userSpaceOnUse" color-interpolation-filters="sRGB">
<feFlood flood-opacity="0" result="BackgroundImageFix"/>
<feColorMatrix in="SourceAlpha" type="matrix" values="0 0 0 0 0 0 0 0 0 0 0 0 0 0 0 0 0 0 127 0" result="hardAlpha"/>
<feMorphology radius="2" operator="erode" in="SourceAlpha" result="effect1_dropShadow_525_47"/>
<feOffset dy="12"/>
<feGaussianBlur stdDeviation="12"/>
<feComposite in2="hardAlpha" operator="out"/>
<feColorMatrix type="matrix" values="0 0 0 0 0 0 0 0 0 0 0 0 0 0 0 0 0 0 0.06 0"/>
<feBlend mode="normal" in2="BackgroundImageFix" result="effect1_dropShadow_525_47"/>
<feBlend mode="normal" in="SourceGraphic" in2="effect1_dropShadow_525_47" result="shape"/>
</filter>
<radialGradient id="paint0_radial_525_47" cx="0" cy="0" r="1" gradientUnits="userSpaceOnUse" gradientTransform="translate(552.5 260.098) rotate(88.4387) scale(338.307 753.639)">
<stop stop-color="#91BD5A"/>
<stop offset="1" stop-color="#50AA57"/>
</radialGradient>
<linearGradient id="paint1_linear_525_47" x1="1163.09" y1="190.942" x2="-194.577" y2="130.238" gradientUnits="userSpaceOnUse">
<stop offset="0.247886" stop-color="white"/>
<stop offset="0.520711" stop-color="white" stop-opacity="0.8"/>
<stop offset="0.7312" stop-color="white" stop-opacity="0"/>
</linearGradient>
<radialGradient id="paint2_radial_525_47" cx="0" cy="0" r="1" gradientUnits="userSpaceOnUse" gradientTransform="translate(0.0777197 533.065) rotate(-47.8244) scale(1555.67 8307.34)">
<stop offset="0.47" stop-color="white"/>
<stop offset="0.57" stop-color="#FBFDFB"/>
<stop offset="0.65" stop-color="#F1F8F2"/>
<stop offset="0.72" stop-color="#E0F0E2"/>
<stop offset="0.79" stop-color="#C9E4CB"/>
<stop offset="0.86" stop-color="#AAD5AD"/>
<stop offset="0.93" stop-color="#84C389"/>
<stop offset="0.99" stop-color="#58AE5F"/>
<stop offset="1" stop-color="#50AA57"/>
</radialGradient>
<radialGradient id="paint3_radial_525_47" cx="0" cy="0" r="1" gradientUnits="userSpaceOnUse" gradientTransform="translate(109.602 -52.6837) rotate(-47.8244) scale(764.354 4081.68)">
<stop offset="0.47" stop-color="white"/>
<stop offset="0.57" stop-color="#FBFDFB"/>
<stop offset="0.65" stop-color="#F1F8F2"/>
<stop offset="0.72" stop-color="#E0F0E2"/>
<stop offset="0.79" stop-color="#C9E4CB"/>
<stop offset="0.86" stop-color="#AAD5AD"/>
<stop offset="0.93" stop-color="#84C389"/>
<stop offset="0.99" stop-color="#58AE5F"/>
<stop offset="1" stop-color="#50AA57"/>
</radialGradient>
<radialGradient id="paint4_radial_525_47" cx="0" cy="0" r="1" gradientUnits="userSpaceOnUse" gradientTransform="translate(-302.718 735.075) rotate(-47.8244) scale(1573.16 8400.75)">
<stop offset="0.47" stop-color="white"/>
<stop offset="0.57" stop-color="#FBFDFB"/>
<stop offset="0.65" stop-color="#F1F8F2"/>
<stop offset="0.72" stop-color="#E0F0E2"/>
<stop offset="0.79" stop-color="#C9E4CB"/>
<stop offset="0.86" stop-color="#AAD5AD"/>
<stop offset="0.93" stop-color="#84C389"/>
<stop offset="0.99" stop-color="#58AE5F"/>
<stop offset="1" stop-color="#50AA57"/>
</radialGradient>
<radialGradient id="paint5_radial_525_47" cx="0" cy="0" r="1" gradientUnits="userSpaceOnUse" gradientTransform="translate(-516.985 735.068) rotate(-47.8244) scale(1573.16 8400.75)">
<stop offset="0.47" stop-color="white"/>
<stop offset="0.57" stop-color="#FBFDFB"/>
<stop offset="0.65" stop-color="#F1F8F2"/>
<stop offset="0.72" stop-color="#E0F0E2"/>
<stop offset="0.79" stop-color="#C9E4CB"/>
<stop offset="0.86" stop-color="#AAD5AD"/>
<stop offset="0.93" stop-color="#84C389"/>
<stop offset="0.99" stop-color="#58AE5F"/>
<stop offset="1" stop-color="#50AA57"/>
</radialGradient>
<radialGradient id="paint6_radial_525_47" cx="0" cy="0" r="1" gradientUnits="userSpaceOnUse" gradientTransform="translate(-408.521 417.171) rotate(-47.8244) scale(1039.28 5549.82)">
<stop offset="0.47" stop-color="white"/>
<stop offset="0.57" stop-color="#FBFDFB"/>
<stop offset="0.65" stop-color="#F1F8F2"/>
<stop offset="0.72" stop-color="#E0F0E2"/>
<stop offset="0.79" stop-color="#C9E4CB"/>
<stop offset="0.86" stop-color="#AAD5AD"/>
<stop offset="0.93" stop-color="#84C389"/>
<stop offset="0.99" stop-color="#58AE5F"/>
<stop offset="1" stop-color="#50AA57"/>
</radialGradient>
<radialGradient id="paint7_radial_525_47" cx="0" cy="0" r="1" gradientUnits="userSpaceOnUse" gradientTransform="translate(-457.029 494.069) rotate(-47.8244) scale(1037.6 5540.8)">
<stop offset="0.47" stop-color="white"/>
<stop offset="0.57" stop-color="#FBFDFB"/>
<stop offset="0.65" stop-color="#F1F8F2"/>
<stop offset="0.72" stop-color="#E0F0E2"/>
<stop offset="0.79" stop-color="#C9E4CB"/>
<stop offset="0.86" stop-color="#AAD5AD"/>
<stop offset="0.93" stop-color="#84C389"/>
<stop offset="0.99" stop-color="#58AE5F"/>
<stop offset="1" stop-color="#50AA57"/>
</radialGradient>
</defs>
</svg>
