<svg width="1105" height="496" viewBox="0 0 1105 496" fill="none" xmlns="http://www.w3.org/2000/svg">
<rect width="1105" height="496" rx="32" fill="url(#paint0_radial_569_6558)"/>
<g style="mix-blend-mode:color-burn" filter="url(#filter0_d_569_6558)">
<rect x="52" y="125" width="274" height="253" rx="8" fill="white"/>
</g>
<g style="mix-blend-mode:color-burn" filter="url(#filter1_d_569_6558)">
<rect x="51" y="125" width="274" height="253" rx="8" fill="white"/>
</g>
<g style="mix-blend-mode:color-burn" filter="url(#filter2_d_569_6558)">
<rect x="781" y="125" width="274" height="253" rx="8" fill="white"/>
</g>
<g style="mix-blend-mode:color-burn" filter="url(#filter3_d_569_6558)">
<rect x="781" y="125" width="274" height="253" rx="8" fill="white"/>
</g>
<path d="M438.795 216.576V213.576H435.868L435.796 216.503L438.795 216.576ZM454.005 216.576L457.002 216.714L457.147 213.576H454.005V216.576ZM441.403 236.088L442.712 238.787L442.72 238.783L441.403 236.088ZM416.502 236.74L415.317 239.496L415.326 239.5L416.502 236.74ZM408.071 230.612L405.795 232.567L405.801 232.574L405.807 232.581L408.071 230.612ZM402.813 220.921L399.95 221.817L399.953 221.827L399.956 221.837L402.813 220.921ZM402.9 191.849L400.054 190.9L400.05 190.913L402.9 191.849ZM408.289 182.114L406.026 180.144L406.025 180.146L408.289 182.114ZM450.398 184.896L447.832 186.449L447.838 186.458L450.398 184.896ZM454.092 196.585V199.585H457.362L457.081 196.328L454.092 196.585ZM438.882 196.585L435.883 196.659L435.955 199.585H438.882V196.585ZM437.666 190.632L434.945 191.895L434.949 191.905L434.953 191.914L437.666 190.632ZM417.154 195.977L414.208 195.409L414.205 195.423L414.203 195.437L417.154 195.977ZM422.542 225.875L421.179 228.548L421.211 228.564L421.244 228.58L422.542 225.875ZM433.711 225.832L434.952 228.563L434.973 228.554L434.993 228.544L433.711 225.832ZM437.405 222.442L440.003 223.942L440.009 223.931L440.016 223.92L437.405 222.442ZM438.795 219.576H454.005V213.576H438.795V219.576ZM451.009 216.438C450.828 220.366 449.778 223.723 447.923 226.593L452.961 229.851C455.451 226 456.778 221.592 457.002 216.714L451.009 216.438ZM447.923 226.593C446.067 229.463 443.485 231.731 440.086 233.393L442.72 238.783C447.027 236.678 450.471 233.703 452.961 229.851L447.923 226.593ZM440.094 233.388C436.76 235.005 432.707 235.869 427.844 235.869V241.869C433.412 241.869 438.397 240.879 442.712 238.787L440.094 233.388ZM427.844 235.869C423.952 235.869 420.581 235.217 417.678 233.98L415.326 239.5C419.087 241.102 423.277 241.869 427.844 241.869V235.869ZM417.687 233.984C414.791 232.739 412.351 230.963 410.335 228.644L405.807 232.581C408.427 235.593 411.608 237.902 415.317 239.496L417.687 233.984ZM410.347 228.658C408.352 226.335 406.781 223.47 405.67 220.005L399.956 221.837C401.279 225.963 403.213 229.559 405.795 232.567L410.347 228.658ZM405.676 220.025C404.595 216.57 404.031 212.606 404.031 208.102H398.031C398.031 213.099 398.656 217.682 399.95 221.817L405.676 220.025ZM404.031 208.102V204.668H398.031V208.102H404.031ZM404.031 204.668C404.031 200.177 404.62 196.227 405.75 192.784L400.05 190.913C398.688 195.061 398.031 199.658 398.031 204.668H404.031ZM405.746 192.797C406.913 189.295 408.528 186.411 410.552 184.083L406.025 180.146C403.414 183.149 401.436 186.753 400.054 190.9L405.746 192.797ZM410.551 184.085C412.604 181.727 415.05 179.937 417.913 178.696L415.526 173.191C411.841 174.789 408.666 177.113 406.026 180.144L410.551 184.085ZM417.913 178.696C420.767 177.458 423.99 176.814 427.627 176.814V170.814C423.268 170.814 419.219 171.589 415.526 173.191L417.913 178.696ZM427.627 176.814C432.785 176.814 436.931 177.738 440.195 179.432L442.959 174.106C438.632 171.86 433.479 170.814 427.627 170.814V176.814ZM440.195 179.432C443.532 181.164 446.049 183.502 447.832 186.448L452.965 183.343C450.576 179.394 447.212 176.314 442.959 174.106L440.195 179.432ZM447.838 186.458C449.659 189.444 450.763 192.885 451.103 196.843L457.081 196.328C456.669 191.536 455.31 187.185 452.959 183.333L447.838 186.458ZM454.092 193.585H438.882V199.585H454.092V193.585ZM441.881 196.512C441.817 193.856 441.361 191.429 440.378 189.35L434.953 191.914C435.477 193.021 435.832 194.564 435.883 196.659L441.881 196.512ZM440.387 189.369C439.343 187.121 437.664 185.408 435.444 184.298L432.76 189.665C433.785 190.177 434.481 190.898 434.945 191.895L440.387 189.369ZM435.444 184.298C433.252 183.202 430.579 182.765 427.627 182.765V188.765C430.063 188.765 431.707 189.138 432.76 189.665L435.444 184.298ZM427.627 182.765C425.375 182.765 423.261 183.181 421.375 184.124L424.058 189.491C424.953 189.043 426.112 188.765 427.627 188.765V182.765ZM421.375 184.124C419.418 185.103 417.864 186.623 416.685 188.538L421.795 191.683C422.47 190.585 423.234 189.903 424.058 189.491L421.375 184.124ZM416.685 188.538C415.51 190.447 414.716 192.776 414.208 195.409L420.1 196.545C420.519 194.369 421.115 192.787 421.795 191.683L416.685 188.538ZM414.203 195.437C413.726 198.045 413.502 201.104 413.502 204.582H419.502C419.502 201.337 419.713 198.661 420.105 196.517L414.203 195.437ZM413.502 204.582V208.102H419.502V204.582H413.502ZM413.502 208.102C413.502 211.571 413.71 214.618 414.153 217.211L420.068 216.201C419.699 214.043 419.502 211.354 419.502 208.102H413.502ZM414.153 217.211C414.599 219.824 415.345 222.147 416.489 224.065L421.643 220.993C420.99 219.899 420.433 218.34 420.068 216.201L414.153 217.211ZM416.489 224.065C417.646 226.007 419.206 227.541 421.179 228.548L423.906 223.203C423.04 222.761 422.282 222.065 421.643 220.993L416.489 224.065ZM421.244 228.58C423.2 229.519 425.438 229.918 427.844 229.918V223.918C426.079 223.918 424.782 223.623 423.841 223.171L421.244 228.58ZM427.844 229.918C430.458 229.918 432.864 229.512 434.952 228.563L432.47 223.101C431.371 223.6 429.866 223.918 427.844 223.918V229.918ZM434.993 228.544C437.131 227.534 438.825 225.984 440.003 223.942L434.806 220.943C434.247 221.913 433.478 222.624 432.429 223.12L434.993 228.544ZM440.016 223.92C441.197 221.833 441.729 219.354 441.795 216.649L435.796 216.503C435.746 218.549 435.351 219.981 434.794 220.965L440.016 223.92ZM482.6 201.148L480.916 203.631L480.946 203.652L480.978 203.672L482.6 201.148ZM474.126 205.451V208.451H477.126V205.451H474.126ZM459.481 205.451H456.481V208.451H459.481V205.451ZM460.915 199.41L458.257 198.02L458.253 198.027L458.249 198.035L460.915 199.41ZM465.087 194.5L463.269 192.113L463.26 192.12L463.25 192.127L465.087 194.5ZM471.605 191.284L472.464 194.158L472.475 194.155L472.485 194.152L471.605 191.284ZM490.118 191.979L488.943 194.739L488.953 194.743L490.118 191.979ZM497.115 197.585L494.641 199.282L494.646 199.289L494.65 199.296L497.115 197.585ZM500.2 233.133L497.269 233.772L497.272 233.784L500.2 233.133ZM501.678 237.261H504.678V236.507L504.321 235.843L501.678 237.261ZM501.678 238V241H504.678V238H501.678ZM486.989 238L484.285 239.298L485.102 241H486.989V238ZM485.425 232.698L482.458 233.145L482.462 233.168L482.466 233.191L485.425 232.698ZM486.729 209.275L489.728 209.242L489.695 206.275H486.729V209.275ZM486.815 217.097V220.097H489.849L489.815 217.064L486.815 217.097ZM476.864 217.662L475.764 214.871L475.749 214.877L475.735 214.883L476.864 217.662ZM474.604 219.227L472.34 217.258L472.334 217.266L474.604 219.227ZM473.387 221.399L470.531 220.481L470.516 220.528L470.503 220.575L473.387 221.399ZM473.648 226.31L471.057 227.822L471.094 227.886L471.135 227.949L473.648 226.31ZM481.948 227.527L483.371 230.168L483.382 230.162L483.394 230.156L481.948 227.527ZM485.512 222.703L488.156 221.285L482.512 222.703H485.512ZM488.728 228.7L491.411 230.042L492.106 228.652L491.371 227.282L488.728 228.7ZM486.729 232.22L484.195 230.614L484.181 230.636L484.167 230.658L486.729 232.22ZM483.991 235.523L486.021 237.732L486.023 237.73L483.991 235.523ZM480.036 237.957L481.123 240.753L481.146 240.744L481.168 240.735L480.036 237.957ZM466.347 237.087L465.019 239.777L465.025 239.78L465.031 239.783L466.347 237.087ZM460.567 232.133L458.082 233.813L458.087 233.821L458.092 233.829L460.567 232.133ZM459.698 218.227L456.983 216.952L456.975 216.969L456.967 216.986L459.698 218.227ZM463.74 213.36L461.952 210.951L463.74 213.36ZM487.947 226.18V206.798H481.947V226.18H487.947ZM487.947 206.798C487.947 205.195 487.722 203.658 487.173 202.265L481.591 204.464C481.795 204.983 481.947 205.735 481.947 206.798H487.947ZM487.173 202.265C486.582 200.764 485.599 199.51 484.222 198.625L480.978 203.672C481.224 203.83 481.429 204.053 481.591 204.464L487.173 202.265ZM484.285 198.666C482.817 197.67 481.077 197.323 479.341 197.323V203.323C480.328 203.323 480.76 203.526 480.916 203.631L484.285 198.666ZM479.341 197.323C477.906 197.323 476.497 197.567 475.215 198.185L477.818 203.591C478.1 203.455 478.573 203.323 479.341 203.323V197.323ZM475.215 198.185C473.871 198.832 472.804 199.841 472.093 201.16L477.376 204.005C477.476 203.818 477.597 203.697 477.818 203.591L475.215 198.185ZM472.093 201.16C471.383 202.478 471.126 203.964 471.126 205.451H477.126C477.126 204.62 477.274 204.194 477.376 204.005L472.093 201.16ZM474.126 202.451H459.481V208.451H474.126V202.451ZM462.481 205.451C462.481 203.736 462.854 202.196 463.581 200.785L458.249 198.035C457.064 200.332 456.481 202.82 456.481 205.451H462.481ZM463.573 200.801C464.345 199.326 465.445 198.017 466.923 196.872L463.25 192.127C461.137 193.764 459.455 195.728 458.257 198.02L463.573 200.801ZM466.905 196.886C468.404 195.744 470.24 194.823 472.464 194.158L470.746 188.409C467.93 189.251 465.421 190.474 463.269 192.113L466.905 196.886ZM472.485 194.152C474.705 193.471 477.242 193.11 480.123 193.11V187.11C476.746 187.11 473.605 187.532 470.725 188.416L472.485 194.152ZM480.123 193.11C483.526 193.11 486.448 193.677 488.943 194.739L491.293 189.219C487.936 187.79 484.194 187.11 480.123 187.11V193.11ZM488.953 194.743C491.413 195.78 493.277 197.294 494.641 199.282L499.589 195.888C497.534 192.893 494.734 190.669 491.284 189.215L488.953 194.743ZM494.65 199.296C495.933 201.144 496.679 203.607 496.679 206.885H502.679C502.679 202.688 501.715 198.951 499.579 195.874L494.65 199.296ZM496.679 206.885V226.136H502.679V206.885H496.679ZM496.679 226.136C496.679 229.269 496.852 231.859 497.269 233.772L503.131 232.493C502.853 231.22 502.679 229.145 502.679 226.136H496.679ZM497.272 233.784C497.668 235.567 498.245 237.21 499.034 238.68L504.321 235.843C503.835 234.937 503.428 233.828 503.129 232.482L497.272 233.784ZM498.678 237.261V238H504.678V237.261H498.678ZM501.678 235H486.989V241H501.678V235ZM489.694 236.702C489.152 235.574 488.699 234.095 488.384 232.205L482.466 233.191C482.846 235.474 483.435 237.529 484.285 239.298L489.694 236.702ZM488.391 232.251C488.096 230.29 487.947 228.267 487.947 226.18H481.947C481.947 228.554 482.116 230.876 482.458 233.145L488.391 232.251ZM483.729 209.308L483.816 217.131L489.815 217.064L489.728 209.242L483.729 209.308ZM486.815 214.097H480.34V220.097H486.815V214.097ZM480.34 214.097C478.718 214.097 477.164 214.319 475.764 214.871L477.963 220.453C478.476 220.251 479.239 220.097 480.34 220.097V214.097ZM475.735 214.883C474.43 215.413 473.268 216.191 472.34 217.258L476.868 221.195C477.099 220.929 477.444 220.665 477.993 220.442L475.735 214.883ZM472.334 217.266C471.517 218.212 470.914 219.291 470.531 220.481L476.243 222.317C476.382 221.885 476.59 221.516 476.874 221.187L472.334 217.266ZM470.503 220.575C470.189 221.671 470.04 222.804 470.04 223.963H476.04C476.04 223.326 476.121 222.75 476.272 222.224L470.503 220.575ZM470.04 223.963C470.04 225.32 470.362 226.631 471.057 227.822L476.239 224.798C476.123 224.598 476.04 224.345 476.04 223.963H470.04ZM471.135 227.949C471.859 229.059 472.832 229.928 474.002 230.536L476.77 225.213C476.491 225.068 476.306 224.894 476.161 224.671L471.135 227.949ZM474.002 230.536C475.196 231.157 476.489 231.439 477.82 231.439V225.439C477.354 225.439 477.026 225.346 476.77 225.213L474.002 230.536ZM477.82 231.439C479.81 231.439 481.703 231.066 483.371 230.168L480.526 224.885C479.934 225.204 479.074 225.439 477.82 225.439V231.439ZM483.394 230.156C484.879 229.339 486.156 228.274 487.083 226.906L482.115 223.541C481.825 223.969 481.335 224.44 480.502 224.898L483.394 230.156ZM487.083 226.906C487.902 225.697 488.512 224.276 488.512 222.703H482.512C482.512 222.703 482.512 222.717 482.506 222.748C482.5 222.779 482.488 222.829 482.463 222.899C482.411 223.042 482.309 223.255 482.115 223.541L487.083 226.906ZM482.868 224.121L486.084 230.118L491.371 227.282L488.156 221.285L482.868 224.121ZM486.044 227.359C485.514 228.419 484.898 229.504 484.195 230.614L489.262 233.827C490.065 232.56 490.782 231.299 491.411 230.042L486.044 227.359ZM484.167 230.658C483.599 231.59 482.869 232.477 481.958 233.316L486.023 237.73C487.314 236.541 488.41 235.226 489.29 233.782L484.167 230.658ZM481.961 233.314C481.19 234.022 480.19 234.654 478.904 235.178L481.168 240.735C483.011 239.984 484.647 238.994 486.021 237.732L481.961 233.314ZM478.949 235.161C477.824 235.598 476.318 235.869 474.343 235.869V241.869C476.831 241.869 479.119 241.532 481.123 240.753L478.949 235.161ZM474.343 235.869C471.87 235.869 469.659 235.365 467.663 234.391L465.031 239.783C467.903 241.185 471.023 241.869 474.343 241.869V235.869ZM467.676 234.398C465.71 233.427 464.187 232.109 463.042 230.438L458.092 233.829C459.845 236.388 462.175 238.372 465.019 239.777L467.676 234.398ZM463.053 230.454C461.965 228.843 461.395 226.975 461.395 224.746H455.395C455.395 228.078 456.272 231.135 458.082 233.813L463.053 230.454ZM461.395 224.746C461.395 222.673 461.763 220.934 462.429 219.468L456.967 216.986C455.895 219.345 455.395 221.951 455.395 224.746H461.395ZM462.414 219.502C463.089 218.066 464.105 216.824 465.527 215.769L461.952 210.951C459.782 212.561 458.104 214.564 456.983 216.952L462.414 219.502ZM465.527 215.769C466.931 214.728 468.832 213.854 471.334 213.228L469.878 207.407C466.818 208.173 464.141 209.327 461.952 210.951L465.527 215.769ZM471.334 213.228C473.816 212.608 476.834 212.275 480.427 212.275V206.275C476.488 206.275 472.958 206.637 469.878 207.407L471.334 213.228ZM480.427 212.275H486.729V206.275H480.427V212.275ZM522.581 202.626H525.581V202.503L525.571 202.381L522.581 202.626ZM522.581 238V241H525.581V238H522.581ZM507.936 238H504.936V241H507.936V238ZM507.936 190.979V187.979H504.936V190.979H507.936ZM521.625 190.979L524.614 190.734L524.388 187.979H521.625V190.979ZM536.487 190.632L539.486 190.689L539.529 188.447L537.39 187.771L536.487 190.632ZM536.226 204.234L535.928 207.219L539.163 207.543L539.226 204.291L536.226 204.234ZM526.97 204.495L527.857 207.36L527.878 207.354L527.898 207.347L526.97 204.495ZM523.928 206.233L526.009 208.394L526.01 208.392L523.928 206.233ZM522.189 209.101L519.336 208.174L519.326 208.206L519.316 208.239L522.189 209.101ZM521.711 213.143L520.066 215.651L524.818 218.767L524.711 213.086L521.711 213.143ZM519.061 211.404H516.061V213.025L517.415 213.913L519.061 211.404ZM519.973 202.8L517.059 202.087L517.056 202.099L517.053 202.111L519.973 202.8ZM522.667 196.064L525.222 197.636L525.228 197.628L525.233 197.619L522.667 196.064ZM526.883 191.675L528.453 194.231L528.469 194.221L528.485 194.211L526.883 191.675ZM534.575 190.241L534.203 193.218L534.21 193.218L534.217 193.219L534.575 190.241ZM519.581 202.626V238H525.581V202.626H519.581ZM522.581 235H507.936V241H522.581V235ZM510.936 238V190.979H504.936V238H510.936ZM507.936 193.979H521.625V187.979H507.936V193.979ZM518.635 191.225L519.591 202.871L525.571 202.381L524.614 190.734L518.635 191.225ZM533.487 190.574L533.227 204.176L539.226 204.291L539.486 190.689L533.487 190.574ZM536.525 201.249C535.928 201.189 535.133 201.116 534.143 201.028L533.616 207.005C534.596 207.091 535.365 207.163 535.928 207.219L536.525 201.249ZM534.143 201.028C533.108 200.937 532.188 200.886 531.402 200.886V206.886C531.95 206.886 532.681 206.923 533.616 207.005L534.143 201.028ZM531.402 200.886C529.468 200.886 527.662 201.114 526.041 201.642L527.898 207.347C528.769 207.064 529.918 206.886 531.402 206.886V200.886ZM526.083 201.629C524.477 202.126 523.036 202.925 521.845 204.073L526.01 208.392C526.442 207.976 527.029 207.617 527.857 207.36L526.083 201.629ZM521.847 204.072C520.668 205.207 519.846 206.605 519.336 208.174L525.043 210.028C525.286 209.28 525.623 208.766 526.009 208.394L521.847 204.072ZM519.316 208.239C518.859 209.763 518.679 211.432 518.712 213.199L524.711 213.086C524.686 211.782 524.825 210.756 525.063 209.963L519.316 208.239ZM523.356 210.634L520.706 208.896L517.415 213.913L520.066 215.651L523.356 210.634ZM522.061 211.404C522.061 208.436 522.347 205.803 522.893 203.489L517.053 202.111C516.383 204.953 516.061 208.057 516.061 211.404H522.061ZM522.887 203.512C523.466 201.146 524.258 199.203 525.222 197.636L520.113 194.492C518.759 196.691 517.755 199.239 517.059 202.087L522.887 203.512ZM525.233 197.619C526.183 196.052 527.267 194.96 528.453 194.231L525.313 189.118C523.196 190.418 521.47 192.252 520.102 194.509L525.233 197.619ZM528.485 194.211C529.631 193.488 530.924 193.11 532.445 193.11V187.11C529.853 187.11 527.438 187.776 525.281 189.138L528.485 194.211ZM532.445 193.11C533.049 193.11 533.635 193.147 534.203 193.218L534.947 187.264C534.124 187.161 533.29 187.11 532.445 187.11V193.11ZM534.217 193.219C534.802 193.29 535.25 193.387 535.583 193.493L537.39 187.771C536.623 187.529 535.796 187.366 534.932 187.262L534.217 193.219ZM541.658 171.25V168.25H538.658V171.25H541.658ZM556.303 171.25H559.303V168.25H556.303V171.25ZM556.303 226.44L559.278 226.832L559.303 226.637V226.44H556.303ZM554.782 238V241H557.413L557.757 238.391L554.782 238ZM541.658 238H538.658V241H541.658V238ZM584.072 224.615L581.16 223.894L584.072 224.615ZM580.726 232.22L583.17 233.961L583.175 233.953L583.181 233.945L580.726 232.22ZM559.606 237.044L558.036 239.6L558.049 239.608L558.062 239.616L559.606 237.044ZM554.521 231.916L551.97 233.494L551.975 233.502L551.979 233.509L554.521 231.916ZM551.219 224.311L548.337 225.147L548.34 225.154L551.219 224.311ZM549.22 215.011H546.22V215.234L546.253 215.454L549.22 215.011ZM549.22 213.925L546.253 213.479L546.22 213.7V213.925H549.22ZM551.219 204.712L554.098 205.555L554.1 205.547L551.219 204.712ZM554.521 197.107L557.064 198.7L557.068 198.692L557.073 198.685L554.521 197.107ZM559.562 191.979L561.122 194.542L561.133 194.535L559.562 191.979ZM574.99 191.892L573.608 194.555L573.615 194.558L573.621 194.562L574.99 191.892ZM580.726 196.89L578.271 198.614L580.726 196.89ZM559.215 202.191L557.902 199.494L557.888 199.501L557.873 199.508L559.215 202.191ZM556.694 204.451L554.176 202.821L554.169 202.831L554.163 202.841L556.694 204.451ZM555.391 208.015L558.339 208.568L558.341 208.557L555.391 208.015ZM555.043 212.751H558.043V212.727L558.043 212.702L555.043 212.751ZM555.043 216.185L558.042 216.257L558.043 216.221V216.185H555.043ZM558.259 226.267L556.477 228.68L558.259 226.267ZM567.037 226.701L565.461 224.149L565.443 224.159L565.426 224.17L567.037 226.701ZM541.658 174.25H556.303V168.25H541.658V174.25ZM553.303 171.25V226.44H559.303V171.25H553.303ZM553.329 226.049L551.808 237.609L557.757 238.391L559.278 226.832L553.329 226.049ZM554.782 235H541.658V241H554.782V235ZM544.658 238V171.25H538.658V238H544.658ZM582.159 213.968V214.881H588.159V213.968H582.159ZM582.159 214.881C582.159 218.244 581.817 221.242 581.16 223.894L586.984 225.336C587.776 222.136 588.159 218.645 588.159 214.881H582.159ZM581.16 223.894C580.512 226.514 579.535 228.697 578.271 230.495L583.181 233.945C584.93 231.456 586.184 228.569 586.984 225.336L581.16 223.894ZM578.283 230.48C577.054 232.204 575.528 233.518 573.678 234.454L576.388 239.807C579.116 238.426 581.385 236.466 583.17 233.961L578.283 230.48ZM573.678 234.454C571.892 235.359 569.667 235.869 566.907 235.869V241.869C570.405 241.869 573.597 241.221 576.388 239.807L573.678 234.454ZM566.907 235.869C564.502 235.869 562.625 235.357 561.149 234.471L558.062 239.616C560.642 241.164 563.633 241.869 566.907 241.869V235.869ZM561.176 234.488C559.572 233.502 558.199 232.135 557.064 230.323L551.979 233.509C553.567 236.043 555.584 238.094 558.036 239.6L561.176 234.488ZM557.073 230.338C555.873 228.397 554.874 226.116 554.098 223.468L548.34 225.154C549.244 228.242 550.447 231.031 551.97 233.494L557.073 230.338ZM554.1 223.475C553.301 220.72 552.662 217.753 552.187 214.569L546.253 215.454C546.763 218.875 547.456 222.108 548.337 225.147L554.1 223.475ZM552.22 215.011V213.925H546.22V215.011H552.22ZM552.186 214.371C552.661 211.217 553.3 208.28 554.098 205.555L548.34 203.869C547.458 206.88 546.764 210.085 546.253 213.479L552.186 214.371ZM554.1 205.547C554.876 202.872 555.873 200.6 557.064 198.7L551.979 195.514C550.447 197.959 549.242 200.758 548.337 203.876L554.1 205.547ZM557.073 198.685C558.213 196.841 559.568 195.488 561.122 194.542L558.003 189.416C555.559 190.904 553.553 192.969 551.97 195.529L557.073 198.685ZM561.133 194.535C562.609 193.628 564.463 193.11 566.82 193.11V187.11C563.557 187.11 560.572 187.838 557.992 189.423L561.133 194.535ZM566.82 193.11C569.603 193.11 571.832 193.633 573.608 194.555L576.372 189.229C573.571 187.776 570.352 187.11 566.82 187.11V193.11ZM573.621 194.562C575.503 195.526 577.043 196.867 578.271 198.614L583.181 195.165C581.396 192.625 579.112 190.634 576.358 189.222L573.621 194.562ZM578.271 198.614C579.539 200.418 580.515 202.59 581.162 205.179L586.983 203.724C586.181 200.518 584.927 197.649 583.181 195.165L578.271 198.614ZM581.162 205.179C581.818 207.805 582.159 210.729 582.159 213.968H588.159C588.159 210.312 587.775 206.892 586.983 203.724L581.162 205.179ZM573.514 214.881V213.968H567.514V214.881H573.514ZM573.514 213.968C573.514 212.141 573.405 210.399 573.183 208.744L567.236 209.545C567.419 210.903 567.514 212.377 567.514 213.968H573.514ZM573.183 208.744C572.949 207.005 572.52 205.384 571.859 203.915L566.387 206.378C566.769 207.227 567.065 208.271 567.236 209.545L573.183 208.744ZM571.859 203.915C571.135 202.308 570.063 200.952 568.622 199.947L565.191 204.87C565.662 205.198 566.068 205.667 566.387 206.378L571.859 203.915ZM568.622 199.947C567.025 198.834 565.126 198.409 563.169 198.409V204.409C564.284 204.409 564.876 204.65 565.191 204.87L568.622 199.947ZM563.169 198.409C561.287 198.409 559.49 198.721 557.902 199.494L560.527 204.889C561.083 204.619 561.923 204.409 563.169 204.409V198.409ZM557.873 199.508C556.348 200.271 555.102 201.389 554.176 202.821L559.213 206.081C559.561 205.543 559.996 205.155 560.556 204.875L557.873 199.508ZM554.163 202.841C553.299 204.198 552.752 205.773 552.44 207.473L558.341 208.557C558.551 207.417 558.873 206.616 559.225 206.062L554.163 202.841ZM552.442 207.462C552.136 209.093 552.012 210.879 552.043 212.801L558.043 212.702C558.016 211.089 558.124 209.718 558.339 208.568L552.442 207.462ZM552.043 212.751V216.185H558.043V212.751H552.043ZM552.044 216.112C551.981 218.722 552.211 221.101 552.812 223.186L558.578 221.525C558.193 220.191 557.989 218.456 558.042 216.257L552.044 216.112ZM552.812 223.186C553.454 225.414 554.64 227.324 556.477 228.68L560.04 223.853C559.444 223.413 558.921 222.716 558.578 221.525L552.812 223.186ZM556.477 228.68C558.38 230.084 560.749 230.614 563.256 230.614V224.614C561.534 224.614 560.572 224.245 560.04 223.853L556.477 228.68ZM563.256 230.614C565.182 230.614 567.06 230.243 568.648 229.232L565.426 224.17C565.102 224.377 564.459 224.614 563.256 224.614V230.614ZM568.614 229.254C570.153 228.303 571.283 226.944 572.004 225.293L566.503 222.895C566.238 223.503 565.891 223.883 565.461 224.149L568.614 229.254ZM572.004 225.293C572.644 223.823 573.036 222.169 573.235 220.384L567.271 219.721C567.122 221.065 566.848 222.105 566.503 222.895L572.004 225.293ZM573.235 220.384C573.423 218.69 573.514 216.854 573.514 214.881H567.514C567.514 216.674 567.431 218.285 567.271 219.721L573.235 220.384ZM591.33 204.538L594.17 205.504L594.173 205.495L591.33 204.538ZM602.759 191.936L603.927 194.699L603.939 194.694L603.951 194.689L602.759 191.936ZM622.271 191.936L621.079 194.689L621.096 194.696L621.113 194.703L622.271 191.936ZM633.744 204.538L630.9 205.495L630.903 205.504L633.744 204.538ZM633.744 224.485L636.584 225.451L636.587 225.442L633.744 224.485ZM629.398 232.09L631.637 234.087L631.643 234.079L631.65 234.072L629.398 232.09ZM595.675 232.09L593.423 234.072L593.43 234.079L593.436 234.087L595.675 232.09ZM591.33 224.485L588.486 225.442L588.489 225.451L591.33 224.485ZM606.192 223.963L603.536 225.358L603.543 225.372L603.55 225.386L606.192 223.963ZM608.669 226.614L607.105 229.174L608.669 226.614ZM616.404 226.614L614.84 224.054L614.824 224.064L614.808 224.074L616.404 226.614ZM618.881 223.963L621.523 225.386L621.53 225.372L621.538 225.358L618.881 223.963ZM620.185 209.231L617.227 209.734L617.229 209.743L620.185 209.231ZM618.881 205.19L616.211 206.558L616.218 206.571L616.225 206.584L618.881 205.19ZM608.625 202.409L607.01 199.881L606.994 199.891L606.978 199.902L608.625 202.409ZM606.192 205.19L608.848 206.584L608.855 206.571L608.862 206.558L606.192 205.19ZM604.888 209.231L607.844 209.743L607.846 209.734L604.888 209.231ZM592.852 214.968V214.055H586.852V214.968H592.852ZM592.852 214.055C592.852 210.895 593.303 208.053 594.17 205.504L588.489 203.572C587.386 206.817 586.852 210.32 586.852 214.055H592.852ZM594.173 205.495C595.038 202.924 596.291 200.75 597.914 198.93L593.436 194.936C591.235 197.404 589.591 200.3 588.486 203.581L594.173 205.495ZM597.914 198.93C599.512 197.138 601.5 195.725 603.927 194.699L601.591 189.172C598.397 190.522 595.663 192.44 593.436 194.936L597.914 198.93ZM603.951 194.689C606.317 193.664 609.143 193.11 612.493 193.11V187.11C608.485 187.11 604.821 187.773 601.567 189.183L603.951 194.689ZM612.493 193.11C615.876 193.11 618.716 193.665 621.079 194.689L623.463 189.183C620.206 187.772 616.527 187.11 612.493 187.11V193.11ZM621.113 194.703C623.569 195.731 625.566 197.144 627.159 198.93L631.637 194.936C629.405 192.434 626.651 190.516 623.429 189.168L621.113 194.703ZM627.159 198.93C628.782 200.75 630.035 202.924 630.9 205.495L636.587 203.581C635.482 200.3 633.838 197.404 631.637 194.936L627.159 198.93ZM630.903 205.504C631.77 208.053 632.221 210.895 632.221 214.055H638.221C638.221 210.32 637.687 206.817 636.584 203.572L630.903 205.504ZM632.221 214.055V214.968H638.221V214.055H632.221ZM632.221 214.968C632.221 218.096 631.771 220.941 630.9 223.528L636.587 225.442C637.686 222.176 638.221 218.677 638.221 214.968H632.221ZM630.903 223.519C630.038 226.064 628.782 228.249 627.146 230.108L631.65 234.072C633.838 231.585 635.479 228.7 636.584 225.451L630.903 223.519ZM627.159 230.093C625.561 231.885 623.573 233.298 621.146 234.324L623.482 239.851C626.676 238.501 629.411 236.583 631.637 234.087L627.159 230.093ZM621.146 234.324C618.774 235.327 615.939 235.869 612.58 235.869V241.869C616.58 241.869 620.235 241.223 623.482 239.851L621.146 234.324ZM612.58 235.869C609.222 235.869 606.368 235.327 603.96 234.32L601.644 239.855C604.915 241.223 608.579 241.869 612.58 241.869V235.869ZM603.96 234.32C601.504 233.292 599.507 231.879 597.914 230.093L593.436 234.087C595.668 236.588 598.422 238.507 601.644 239.855L603.96 234.32ZM597.927 230.108C596.291 228.249 595.035 226.064 594.17 223.519L588.489 225.451C589.594 228.7 591.235 231.585 593.423 234.072L597.927 230.108ZM594.173 223.528C593.302 220.941 592.852 218.096 592.852 214.968H586.852C586.852 218.677 587.387 222.176 588.486 225.442L594.173 223.528ZM601.497 214.055V214.968H607.497V214.055H601.497ZM601.497 214.968C601.497 216.881 601.638 218.702 601.931 220.424L607.846 219.42C607.617 218.07 607.497 216.589 607.497 214.968H601.497ZM601.931 220.424C602.234 222.214 602.756 223.872 603.536 225.358L608.848 222.569C608.411 221.737 608.063 220.701 607.846 219.42L601.931 220.424ZM603.55 225.386C604.398 226.959 605.585 228.246 607.105 229.174L610.233 224.054C609.667 223.708 609.203 223.227 608.833 222.541L603.55 225.386ZM607.105 229.174C608.733 230.17 610.616 230.57 612.58 230.57V224.57C611.415 224.57 610.69 224.334 610.233 224.054L607.105 229.174ZM612.58 230.57C614.523 230.57 616.391 230.166 618.001 229.154L614.808 224.074C614.39 224.337 613.708 224.57 612.58 224.57V230.57ZM617.969 229.174C619.488 228.246 620.676 226.959 621.523 225.386L616.24 222.541C615.87 223.227 615.406 223.708 614.84 224.054L617.969 229.174ZM621.538 225.358C622.318 223.872 622.839 222.214 623.143 220.424L617.227 219.42C617.01 220.701 616.662 221.737 616.225 222.569L621.538 225.358ZM623.143 220.424C623.435 218.702 623.576 216.881 623.576 214.968H617.576C617.576 216.589 617.457 218.07 617.227 219.42L623.143 220.424ZM623.576 214.968V214.055H617.576V214.968H623.576ZM623.576 214.055C623.576 212.194 623.434 210.414 623.141 208.72L617.229 209.743C617.457 211.062 617.576 212.498 617.576 214.055H623.576ZM623.143 208.729C622.839 206.94 622.318 205.281 621.538 203.795L616.225 206.584C616.662 207.416 617.01 208.452 617.227 209.734L623.143 208.729ZM621.551 203.822C620.72 202.199 619.546 200.856 618.019 199.881L614.789 204.937C615.349 205.294 615.826 205.805 616.211 206.558L621.551 203.822ZM618.019 199.881C616.382 198.834 614.48 198.409 612.493 198.409V204.409C613.635 204.409 614.341 204.651 614.789 204.937L618.019 199.881ZM612.493 198.409C610.523 198.409 608.64 198.84 607.01 199.881L610.241 204.937C610.697 204.645 611.392 204.409 612.493 204.409V198.409ZM606.978 199.902C605.488 200.881 604.342 202.22 603.522 203.822L608.862 206.558C609.258 205.784 609.735 205.269 610.273 204.916L606.978 199.902ZM603.536 203.795C602.756 205.281 602.234 206.94 601.931 208.729L607.846 209.734C608.063 208.452 608.411 207.416 608.848 206.584L603.536 203.795ZM601.932 208.72C601.639 210.414 601.497 212.194 601.497 214.055H607.497C607.497 212.498 607.616 211.062 607.844 209.743L601.932 208.72ZM656.124 201.018H659.124V200.882L659.112 200.746L656.124 201.018ZM656.124 238V241H659.124V238H656.124ZM641.479 238H638.479V241H641.479V238ZM641.479 190.979V187.979H638.479V190.979H641.479ZM655.211 190.979L658.199 190.708L657.951 187.979H655.211V190.979ZM654.386 212.882L654.462 215.881L657.386 215.807V212.882H654.386ZM650.953 212.969H647.953V216.046L651.029 215.968L650.953 212.969ZM652.256 203.365L655.122 204.251L655.125 204.243L652.256 203.365ZM661.643 191.675L662.898 194.4L662.906 194.396L662.914 194.392L661.643 191.675ZM675.028 191.066L674.025 193.894L674.032 193.896L674.039 193.899L675.028 191.066ZM679.721 194.152L677.512 196.181L677.523 196.193L677.534 196.205L679.721 194.152ZM682.763 199.801L679.887 200.654L679.893 200.675L679.9 200.696L682.763 199.801ZM683.85 238V241H686.85V238H683.85ZM669.118 238H666.118V241H669.118V238ZM668.335 204.06L665.668 205.432L665.676 205.448L665.684 205.464L668.335 204.06ZM656.124 204.712L653.564 203.148L653.558 203.158L653.552 203.168L656.124 204.712ZM654.777 208.319L651.84 207.707L651.834 207.736L651.828 207.766L654.777 208.319ZM653.124 201.018V238H659.124V201.018H653.124ZM656.124 235H641.479V241H656.124V235ZM644.479 238V190.979H638.479V238H644.479ZM641.479 193.979H655.211V187.979H641.479V193.979ZM652.224 191.251L653.136 201.29L659.112 200.746L658.199 190.708L652.224 191.251ZM654.31 209.883L650.877 209.97L651.029 215.968L654.462 215.881L654.31 209.883ZM653.953 212.969C653.953 209.613 654.359 206.719 655.122 204.251L649.39 202.478C648.415 205.631 647.953 209.14 647.953 212.969H653.953ZM655.125 204.243C655.901 201.709 656.969 199.662 658.283 198.037L653.618 194.264C651.745 196.58 650.35 199.342 649.388 202.487L655.125 204.243ZM658.283 198.037C659.6 196.409 661.134 195.212 662.898 194.4L660.388 188.95C657.748 190.166 655.488 191.952 653.618 194.264L658.283 198.037ZM662.914 194.392C664.706 193.554 666.743 193.11 669.074 193.11V187.11C665.959 187.11 663.041 187.709 660.372 188.957L662.914 194.392ZM669.074 193.11C670.952 193.11 672.592 193.385 674.025 193.894L676.031 188.239C673.871 187.473 671.542 187.11 669.074 187.11V193.11ZM674.039 193.899C675.399 194.374 676.543 195.127 677.512 196.181L681.931 192.123C680.292 190.338 678.307 189.034 676.017 188.234L674.039 193.899ZM677.534 196.205C678.475 197.207 679.291 198.643 679.887 200.654L685.64 198.949C684.845 196.266 683.633 193.936 681.908 192.099L677.534 196.205ZM679.9 200.696C680.505 202.633 680.85 205.177 680.85 208.406H686.85C686.85 204.797 686.47 201.605 685.627 198.906L679.9 200.696ZM680.85 208.406V238H686.85V208.406H680.85ZM683.85 235H669.118V241H683.85V235ZM672.118 238V208.362H666.118V238H672.118ZM672.118 208.362C672.118 206.285 671.844 204.276 670.987 202.656L665.684 205.464C665.87 205.814 666.118 206.673 666.118 208.362H672.118ZM671.003 202.688C670.174 201.075 668.881 199.835 667.147 199.172L665.004 204.776C665.241 204.867 665.454 205.017 665.668 205.432L671.003 202.688ZM667.147 199.172C665.724 198.628 664.136 198.409 662.469 198.409V204.409C663.641 204.409 664.457 204.567 665.004 204.776L667.147 199.172ZM662.469 198.409C660.584 198.409 658.779 198.772 657.188 199.656L660.101 204.901C660.596 204.626 661.341 204.409 662.469 204.409V198.409ZM657.188 199.656C655.68 200.493 654.465 201.674 653.564 203.148L658.684 206.276C659.058 205.664 659.523 205.222 660.101 204.901L657.188 199.656ZM653.552 203.168C652.74 204.522 652.185 206.052 651.84 207.707L657.714 208.931C657.948 207.805 658.292 206.93 658.697 206.255L653.552 203.168ZM651.828 207.766C651.528 209.366 651.386 211.075 651.386 212.882H657.386C657.386 211.386 657.504 210.053 657.725 208.872L651.828 207.766ZM421.891 300.704L419.062 299.705L419.058 299.717L421.891 300.704ZM416.198 310.525L418.412 312.549L418.418 312.543L418.423 312.538L416.198 310.525ZM407.463 316.74L408.63 319.503L408.64 319.499L408.65 319.495L407.463 316.74ZM385.126 316.74L383.938 319.495L383.953 319.501L383.967 319.507L385.126 316.74ZM376.348 310.525L374.122 312.538L374.134 312.55L374.145 312.562L376.348 310.525ZM370.611 300.704L367.776 301.685L367.781 301.698L367.785 301.71L370.611 300.704ZM370.611 272.066L367.783 271.066L367.779 271.076L367.776 271.085L370.611 272.066ZM376.304 262.245L374.079 260.233L374.078 260.234L376.304 262.245ZM385.039 256.03L386.206 258.794L386.218 258.789L385.039 256.03ZM407.376 256.03L406.188 258.785L406.203 258.791L406.217 258.797L407.376 256.03ZM416.154 262.245L413.929 264.257L413.934 264.263L413.94 264.269L416.154 262.245ZM421.891 272.066L419.062 273.065L421.891 272.066ZM407.637 276.759L404.705 277.395L404.709 277.416L404.714 277.436L407.637 276.759ZM401.422 267.068L399.961 269.688L399.991 269.705L400.021 269.721L401.422 267.068ZM390.949 267.068L392.372 269.71L392.391 269.699L392.41 269.688L390.949 267.068ZM387.168 270.719L384.624 269.129L387.168 270.719ZM384.865 276.759L381.933 276.123L381.93 276.137L381.928 276.15L384.865 276.759ZM384.865 295.924L381.926 296.526L381.93 296.546L381.935 296.567L384.865 295.924ZM387.168 301.964L384.612 303.534L384.622 303.55L384.632 303.566L387.168 301.964ZM390.993 305.702L389.531 308.322L389.542 308.328L389.553 308.333L390.993 305.702ZM405.29 301.964L402.754 300.362L402.743 300.378L402.734 300.395L405.29 301.964ZM407.637 295.924L404.712 295.254L404.709 295.267L404.706 295.281L407.637 295.924ZM420.933 285.103V287.667H426.933V285.103H420.933ZM420.933 287.667C420.933 292.226 420.292 296.225 419.062 299.705L424.719 301.704C426.213 297.477 426.933 292.785 426.933 287.667H420.933ZM419.058 299.717C417.843 303.201 416.14 306.117 413.973 308.513L418.423 312.538C421.181 309.487 423.272 305.855 424.724 301.691L419.058 299.717ZM413.983 308.501C411.808 310.881 409.247 312.704 406.275 313.985L408.65 319.495C412.4 317.878 415.662 315.558 418.412 312.549L413.983 308.501ZM406.296 313.976C403.343 315.223 400.038 315.869 396.338 315.869V321.869C400.75 321.869 404.861 321.096 408.63 319.503L406.296 313.976ZM396.338 315.869C392.606 315.869 389.269 315.222 386.285 313.973L383.967 319.507C387.763 321.096 391.899 321.869 396.338 321.869V315.869ZM386.313 313.985C383.339 312.703 380.758 310.876 378.55 308.489L374.145 312.562C376.92 315.563 380.192 317.88 383.938 319.495L386.313 313.985ZM378.573 308.513C376.401 306.112 374.681 303.19 373.438 299.698L367.785 301.71C369.265 305.867 371.369 309.492 374.122 312.538L378.573 308.513ZM373.447 299.723C372.241 296.238 371.612 292.232 371.612 287.667H365.612C365.612 292.778 366.316 297.463 367.776 301.685L373.447 299.723ZM371.612 287.667V285.103H365.612V287.667H371.612ZM371.612 285.103C371.612 280.538 372.241 276.532 373.447 273.047L367.776 271.085C366.316 275.307 365.612 279.992 365.612 285.103H371.612ZM373.44 273.065C374.686 269.539 376.394 266.621 378.531 264.255L374.078 260.234C371.347 263.257 369.26 266.886 367.783 271.066L373.44 273.065ZM378.529 264.257C380.7 261.856 383.252 260.042 386.206 258.794L383.872 253.267C380.105 254.858 376.833 257.187 374.079 260.233L378.529 264.257ZM386.218 258.789C389.197 257.516 392.527 256.857 396.251 256.857V250.857C391.805 250.857 387.661 251.647 383.86 253.272L386.218 258.789ZM396.251 256.857C399.943 256.857 403.242 257.515 406.188 258.785L408.563 253.275C404.789 251.648 400.671 250.857 396.251 250.857V256.857ZM406.217 258.797C409.201 260.047 411.762 261.861 413.929 264.257L418.379 260.233C415.621 257.182 412.331 254.853 408.535 253.263L406.217 258.797ZM413.94 264.269C416.1 266.633 417.818 269.546 419.062 273.065L424.719 271.066C423.24 266.879 421.133 263.245 418.369 260.221L413.94 264.269ZM419.062 273.065C420.292 276.545 420.933 280.544 420.933 285.103H426.933C426.933 279.985 426.213 275.294 424.719 271.066L419.062 273.065ZM411.462 287.667V285.016H405.462V287.667H411.462ZM411.462 285.016C411.462 281.72 411.173 278.732 410.559 276.082L404.714 277.436C405.201 279.538 405.462 282.055 405.462 285.016H411.462ZM410.569 276.123C409.991 273.461 409.096 271.091 407.814 269.096L402.767 272.341C403.57 273.591 404.239 275.249 404.705 277.395L410.569 276.123ZM407.814 269.096C406.523 267.089 404.865 265.494 402.824 264.416L400.021 269.721C401.051 270.265 401.971 271.104 402.767 272.341L407.814 269.096ZM402.884 264.448C400.877 263.329 398.638 262.808 396.251 262.808V268.808C397.746 268.808 398.955 269.127 399.961 269.688L402.884 264.448ZM396.251 262.808C393.802 262.808 391.514 263.318 389.488 264.448L392.41 269.688C393.398 269.138 394.644 268.808 396.251 268.808V262.808ZM389.527 264.427C387.509 265.513 385.881 267.118 384.624 269.129L389.712 272.309C390.484 271.075 391.376 270.246 392.372 269.71L389.527 264.427ZM384.624 269.129C383.383 271.115 382.508 273.473 381.933 276.123L387.797 277.395C388.265 275.237 388.926 273.567 389.712 272.309L384.624 269.129ZM381.928 276.15C381.384 278.774 381.126 281.738 381.126 285.016H387.126C387.126 282.036 387.362 279.496 387.803 277.368L381.928 276.15ZM381.126 285.016V287.667H387.126V285.016H381.126ZM381.126 287.667C381.126 290.919 381.384 293.879 381.926 296.526L387.804 295.322C387.361 293.159 387.126 290.615 387.126 287.667H381.126ZM381.935 296.567C382.511 299.19 383.384 301.535 384.612 303.534L389.725 300.395C388.925 299.091 388.263 297.409 387.795 295.281L381.935 296.567ZM384.632 303.566C385.907 305.585 387.532 307.207 389.531 308.322L392.454 303.082C391.44 302.516 390.516 301.647 389.705 300.362L384.632 303.566ZM389.553 308.333C391.595 309.451 393.887 309.962 396.338 309.962V303.962C394.733 303.962 393.461 303.633 392.433 303.07L389.553 308.333ZM396.338 309.962C398.725 309.962 400.964 309.441 402.97 308.322L400.048 303.082C399.042 303.643 397.833 303.962 396.338 303.962V309.962ZM402.97 308.322C404.979 307.201 406.597 305.569 407.847 303.534L402.734 300.395C401.955 301.663 401.052 302.522 400.048 303.082L402.97 308.322ZM407.827 303.566C409.095 301.558 409.988 299.203 410.567 296.567L404.706 295.281C404.242 297.396 403.571 299.068 402.754 300.362L407.827 303.566ZM410.561 296.593C411.173 293.921 411.462 290.938 411.462 287.667H405.462C405.462 290.596 405.202 293.117 404.712 295.254L410.561 296.593ZM449.095 318V321H452.095V318H449.095ZM434.363 318H431.363V321H434.363V318ZM442.837 252.293L444.12 255.005L444.132 254.999L444.144 254.993L442.837 252.293ZM459.307 251.25L462.307 251.238L462.298 248.89L460.016 248.335L459.307 251.25ZM459.351 262.027L458.548 264.918L462.367 265.979L462.351 262.015L459.351 262.027ZM452.093 262.288L453.236 265.062L453.27 265.048L453.304 265.033L452.093 262.288ZM449.833 264.157L447.285 262.575L447.277 262.587L447.269 262.6L449.833 264.157ZM458.221 270.979H461.221V267.979H458.221V270.979ZM458.221 281.148V284.148H461.221V281.148H458.221ZM427.583 281.148H424.583V284.148H427.583V281.148ZM427.583 270.979V267.979H424.583V270.979H427.583ZM449.095 315H434.363V321H449.095V315ZM437.363 318V267.155H431.363V318H437.363ZM437.363 267.155C437.363 263.905 438.02 261.395 439.159 259.473L433.999 256.412C432.184 259.473 431.363 263.105 431.363 267.155H437.363ZM439.159 259.473C440.323 257.511 441.95 256.032 444.12 255.005L441.554 249.581C438.336 251.104 435.791 253.391 433.999 256.412L439.159 259.473ZM444.144 254.993C446.348 253.927 449.069 253.337 452.397 253.337V247.337C448.367 247.337 444.715 248.052 441.53 249.592L444.144 254.993ZM452.397 253.337C453.537 253.337 454.585 253.415 455.548 253.563L456.461 247.633C455.164 247.434 453.808 247.337 452.397 247.337V253.337ZM455.548 253.563C456.596 253.724 457.613 253.925 458.598 254.165L460.016 248.335C458.858 248.053 457.672 247.819 456.461 247.633L455.548 253.563ZM456.307 251.262L456.351 262.039L462.351 262.015L462.307 251.238L456.307 251.262ZM460.154 259.137C459.468 258.946 458.769 258.815 458.057 258.74L457.429 264.707C457.818 264.748 458.19 264.819 458.548 264.918L460.154 259.137ZM458.057 258.74C457.366 258.667 456.573 258.636 455.7 258.636V264.636C456.45 264.636 457.018 264.663 457.429 264.707L458.057 258.74ZM455.7 258.636C453.99 258.636 452.35 258.896 450.882 259.543L453.304 265.033C453.807 264.811 454.571 264.636 455.7 264.636V258.636ZM450.951 259.514C449.431 260.14 448.164 261.157 447.285 262.575L452.382 265.739C452.546 265.476 452.785 265.247 453.236 265.062L450.951 259.514ZM447.269 262.6C446.428 263.985 446.095 265.555 446.095 267.155H452.095C452.095 266.379 452.254 265.951 452.398 265.714L447.269 262.6ZM446.095 267.155V318H452.095V267.155H446.095ZM455.221 270.979V281.148H461.221V270.979H455.221ZM458.221 278.148H427.583V284.148H458.221V278.148ZM430.583 281.148V270.979H424.583V281.148H430.583ZM427.583 273.979H458.221V267.979H427.583V273.979ZM481.427 318V321H484.427V318H481.427ZM466.695 318H463.695V321H466.695V318ZM475.169 252.293L476.452 255.005L476.464 254.999L476.476 254.993L475.169 252.293ZM491.639 251.25L494.639 251.238L494.63 248.89L492.348 248.335L491.639 251.25ZM491.683 262.027L490.88 264.918L494.699 265.979L494.683 262.015L491.683 262.027ZM484.425 262.288L485.568 265.062L485.602 265.048L485.636 265.033L484.425 262.288ZM482.166 264.157L479.617 262.575L479.609 262.587L479.601 262.6L482.166 264.157ZM490.553 270.979H493.553V267.979H490.553V270.979ZM490.553 281.148V284.148H493.553V281.148H490.553ZM459.916 281.148H456.916V284.148H459.916V281.148ZM459.916 270.979V267.979H456.916V270.979H459.916ZM481.427 315H466.695V321H481.427V315ZM469.695 318V267.155H463.695V318H469.695ZM469.695 267.155C469.695 263.905 470.352 261.395 471.492 259.473L466.331 256.412C464.516 259.473 463.695 263.105 463.695 267.155H469.695ZM471.492 259.473C472.655 257.511 474.282 256.032 476.452 255.005L473.886 249.581C470.668 251.104 468.123 253.391 466.331 256.412L471.492 259.473ZM476.476 254.993C478.68 253.927 481.401 253.337 484.729 253.337V247.337C480.699 247.337 477.047 248.052 473.862 249.592L476.476 254.993ZM484.729 253.337C485.869 253.337 486.917 253.415 487.88 253.563L488.793 247.633C487.496 247.434 486.14 247.337 484.729 247.337V253.337ZM487.88 253.563C488.928 253.724 489.945 253.925 490.93 254.165L492.348 248.335C491.19 248.053 490.004 247.819 488.793 247.633L487.88 253.563ZM488.639 251.262L488.683 262.039L494.683 262.015L494.639 251.238L488.639 251.262ZM492.486 259.137C491.8 258.946 491.101 258.815 490.389 258.74L489.761 264.707C490.15 264.748 490.522 264.819 490.88 264.918L492.486 259.137ZM490.389 258.74C489.698 258.667 488.905 258.636 488.032 258.636V264.636C488.782 264.636 489.35 264.663 489.761 264.707L490.389 258.74ZM488.032 258.636C486.322 258.636 484.682 258.896 483.214 259.543L485.636 265.033C486.139 264.811 486.903 264.636 488.032 264.636V258.636ZM483.283 259.514C481.763 260.14 480.496 261.157 479.617 262.575L484.714 265.739C484.878 265.476 485.117 265.247 485.568 265.062L483.283 259.514ZM479.601 262.6C478.76 263.985 478.427 265.555 478.427 267.155H484.427C484.427 266.379 484.586 265.951 484.73 265.714L479.601 262.6ZM478.427 267.155V318H484.427V267.155H478.427ZM487.553 270.979V281.148H493.553V270.979H487.553ZM490.553 278.148H459.916V284.148H490.553V278.148ZM462.916 281.148V270.979H456.916V281.148H462.916ZM459.916 273.979H490.553V267.979H459.916V273.979ZM519.625 302.703L517.348 304.656L517.398 304.714L517.45 304.769L519.625 302.703ZM516.844 301.052L515.751 303.845L515.778 303.856L515.804 303.866L516.844 301.052ZM511.238 299.487L511.874 296.555L511.869 296.554L511.238 299.487ZM504.763 297.532L503.635 300.312L503.642 300.314L503.649 300.317L504.763 297.532ZM495.941 290.448L493.288 291.847L493.298 291.866L493.308 291.885L495.941 290.448ZM495.941 279.323L493.241 278.017L493.236 278.026L493.232 278.035L495.941 279.323ZM499.722 274.586L501.631 276.901L501.635 276.898L499.722 274.586ZM505.85 271.327L506.778 274.18L506.793 274.175L506.809 274.17L505.85 271.327ZM525.014 272.066L523.842 274.827L523.853 274.832L523.864 274.837L525.014 272.066ZM532.098 277.455L529.654 279.195L529.667 279.213L529.679 279.23L532.098 277.455ZM534.618 285.407V288.407H537.618V285.407H534.618ZM519.973 285.407H516.973V288.407H519.973V285.407ZM519.365 282.365L516.627 283.592L516.645 283.631L516.663 283.669L519.365 282.365ZM517.496 280.453L516.084 283.1L516.119 283.119L516.154 283.136L517.496 280.453ZM511.238 280.323L510.011 277.585L509.993 277.593L509.975 277.602L511.238 280.323ZM508.979 285.972L506.356 287.429L506.405 287.517L506.46 287.602L508.979 285.972ZM510.413 287.363L508.723 289.841L508.762 289.868L508.802 289.894L510.413 287.363ZM512.846 288.493L511.848 291.322L511.885 291.335L511.923 291.347L512.846 288.493ZM516.41 289.362L515.857 292.31L515.868 292.313L516.41 289.362ZM531.967 296.402L529.701 298.368L529.71 298.377L529.718 298.387L531.967 296.402ZM533.141 310.134L535.769 311.58L535.774 311.571L535.779 311.562L533.141 310.134ZM529.012 314.741L530.774 317.169L530.787 317.159L530.8 317.15L529.012 314.741ZM502.634 316.479L501.243 319.137L501.252 319.142L501.262 319.147L502.634 316.479ZM495.594 310.395L493.062 312.004L493.073 312.021L493.084 312.038L495.594 310.395ZM493.247 302.92V299.92H490.247V302.92H493.247ZM506.893 302.92L509.89 302.801L509.775 299.92H506.893V302.92ZM507.936 306.484L505.463 308.183L505.481 308.209L505.499 308.235L507.936 306.484ZM517.713 308.613L516.553 305.847L516.537 305.854L516.521 305.861L517.713 308.613ZM519.756 307.092L522.182 308.857L522.201 308.831L522.219 308.805L519.756 307.092ZM523.451 304.789C523.451 303.222 522.889 301.783 521.8 300.637L517.45 304.769C517.459 304.778 517.464 304.785 517.467 304.788C517.469 304.791 517.47 304.792 517.469 304.79C517.468 304.789 517.466 304.785 517.463 304.78C517.46 304.775 517.458 304.769 517.455 304.763C517.453 304.757 517.451 304.752 517.45 304.748C517.449 304.743 517.448 304.741 517.448 304.742C517.448 304.742 517.451 304.756 517.451 304.789H523.451ZM521.903 300.751C520.882 299.559 519.377 298.79 517.884 298.238L515.804 303.866C516.35 304.068 516.741 304.255 517.007 304.414C517.28 304.576 517.359 304.669 517.348 304.656L521.903 300.751ZM517.937 298.258C516.388 297.652 514.341 297.09 511.874 296.555L510.602 302.419C512.945 302.927 514.635 303.409 515.751 303.845L517.937 298.258ZM511.869 296.554C509.734 296.095 507.738 295.491 505.877 294.746L503.649 300.317C505.844 301.195 508.165 301.895 510.607 302.42L511.869 296.554ZM505.891 294.752C504.11 294.029 502.599 293.172 501.334 292.199L497.676 296.955C499.423 298.299 501.419 299.412 503.635 300.312L505.891 294.752ZM501.334 292.199C500.142 291.282 499.235 290.222 498.575 289.012L493.308 291.885C494.386 293.862 495.854 295.554 497.676 296.955L501.334 292.199ZM498.595 289.049C498.013 287.945 497.681 286.612 497.681 284.973H491.681C491.681 287.447 492.19 289.765 493.288 291.847L498.595 289.049ZM497.681 284.973C497.681 283.409 498.006 281.967 498.651 280.611L493.232 278.035C492.196 280.214 491.681 282.538 491.681 284.973H497.681ZM498.642 280.63C499.309 279.251 500.288 278.008 501.631 276.901L497.814 272.272C495.853 273.888 494.312 275.803 493.241 278.017L498.642 280.63ZM501.635 276.898C502.982 275.783 504.676 274.864 506.778 274.18L504.922 268.474C502.214 269.355 499.823 270.608 497.809 272.275L501.635 276.898ZM506.809 274.17C508.847 273.482 511.252 273.11 514.063 273.11V267.11C510.732 267.11 507.661 267.55 504.891 268.485L506.809 274.17ZM514.063 273.11C517.994 273.11 521.227 273.717 523.842 274.827L526.186 269.304C522.66 267.807 518.592 267.11 514.063 267.11V273.11ZM523.864 274.837C526.505 275.933 528.381 277.408 529.654 279.195L534.541 275.714C532.512 272.866 529.665 270.748 526.164 269.295L523.864 274.837ZM529.679 279.23C530.958 280.971 531.618 282.991 531.618 285.407H537.618C537.618 281.797 536.598 278.515 534.516 275.679L529.679 279.23ZM534.618 282.407H519.973V288.407H534.618V282.407ZM522.973 285.407C522.973 283.887 522.714 282.403 522.066 281.061L516.663 283.669C516.826 284.007 516.973 284.552 516.973 285.407H522.973ZM522.102 281.138C521.426 279.629 520.289 278.496 518.838 277.77L516.154 283.136C516.441 283.28 516.55 283.421 516.627 283.592L522.102 281.138ZM518.908 277.806C517.448 277.027 515.746 276.758 514.02 276.758V282.758C515.19 282.758 515.806 282.952 516.084 283.1L518.908 277.806ZM514.02 276.758C512.626 276.758 511.275 277.019 510.011 277.585L512.465 283.06C512.882 282.874 513.385 282.758 514.02 282.758V276.758ZM509.975 277.602C508.745 278.173 507.685 279.002 506.87 280.104L511.695 283.67C511.866 283.44 512.109 283.226 512.502 283.044L509.975 277.602ZM506.87 280.104C505.964 281.331 505.544 282.751 505.544 284.234H511.544C511.544 283.921 511.617 283.776 511.695 283.67L506.87 280.104ZM505.544 284.234C505.544 285.345 505.802 286.431 506.356 287.429L511.601 284.515C511.576 284.47 511.544 284.397 511.544 284.234H505.544ZM506.46 287.602C507.052 288.517 507.854 289.249 508.723 289.841L512.103 284.884C511.696 284.607 511.542 284.412 511.497 284.342L506.46 287.602ZM508.802 289.894C509.689 290.458 510.723 290.925 511.848 291.322L513.845 285.664C512.999 285.365 512.411 285.079 512.023 284.832L508.802 289.894ZM511.923 291.347C513.064 291.716 514.383 292.034 515.857 292.31L516.963 286.413C515.655 286.168 514.598 285.906 513.77 285.638L511.923 291.347ZM515.868 292.313C518.855 292.861 521.626 293.637 524.186 294.634L526.364 289.043C523.42 287.897 520.28 287.022 516.951 286.411L515.868 292.313ZM524.186 294.634C526.545 295.553 528.351 296.812 529.701 298.368L534.233 294.436C532.165 292.051 529.509 290.268 526.364 289.043L524.186 294.634ZM529.718 298.387C530.854 299.674 531.575 301.552 531.575 304.354H537.575C537.575 300.494 536.558 297.07 534.217 294.417L529.718 298.387ZM531.575 304.354C531.575 305.962 531.212 307.395 530.502 308.707L535.779 311.562C536.982 309.339 537.575 306.919 537.575 304.354H531.575ZM530.512 308.689C529.789 310.003 528.719 311.223 527.225 312.331L530.8 317.15C532.898 315.593 534.58 313.742 535.769 311.58L530.512 308.689ZM527.25 312.313C525.782 313.378 523.953 314.254 521.709 314.899L523.366 320.666C526.162 319.862 528.65 318.711 530.774 317.169L527.25 312.313ZM521.709 314.899C519.506 315.532 516.952 315.869 514.02 315.869V321.869C517.403 321.869 520.527 321.482 523.366 320.666L521.709 314.899ZM514.02 315.869C509.873 315.869 506.576 315.132 504.005 313.811L501.262 319.147C504.891 321.012 509.185 321.869 514.02 321.869V315.869ZM504.025 313.821C501.287 312.388 499.365 310.678 498.104 308.752L493.084 312.038C495.009 314.979 497.781 317.325 501.243 319.137L504.025 313.821ZM498.126 308.786C496.818 306.727 496.247 304.786 496.247 302.92H490.247C490.247 306.096 491.241 309.138 493.062 312.004L498.126 308.786ZM493.247 305.92H506.893V299.92H493.247V305.92ZM503.895 303.04C503.969 304.894 504.425 306.673 505.463 308.183L510.408 304.784C510.171 304.441 509.932 303.844 509.89 302.801L503.895 303.04ZM505.499 308.235C506.515 309.647 507.869 310.679 509.485 311.317L511.688 305.736C511.102 305.504 510.689 305.175 510.372 304.733L505.499 308.235ZM509.485 311.317C511.005 311.917 512.667 312.178 514.411 312.178V306.178C513.257 306.178 512.369 306.005 511.688 305.736L509.485 311.317ZM514.411 312.178C515.998 312.178 517.54 311.958 518.906 311.366L516.521 305.861C516.148 306.022 515.488 306.178 514.411 306.178V312.178ZM518.874 311.38C520.159 310.841 521.328 310.031 522.182 308.857L517.33 305.328C517.257 305.428 517.064 305.632 516.553 305.847L518.874 311.38ZM522.219 308.805C523.057 307.6 523.451 306.225 523.451 304.789H517.451C517.451 305.091 517.382 305.252 517.293 305.379L522.219 308.805ZM553.957 317.087L552.833 319.869L552.845 319.874L552.856 319.878L553.957 317.087ZM546.308 312.09L544.158 314.182L544.165 314.189L544.172 314.196L546.308 312.09ZM541.571 304.789L538.776 305.878L538.781 305.891L538.786 305.903L541.571 304.789ZM541.397 284.842L544.249 285.774L544.252 285.766L541.397 284.842ZM552.74 271.979L553.922 274.736L553.933 274.731L553.945 274.726L552.74 271.979ZM578.292 276.325L576.077 278.348L576.085 278.356L576.093 278.365L578.292 276.325ZM582.508 283.582L579.665 284.539L579.669 284.552L579.674 284.565L582.508 283.582ZM583.985 299.096V302.096H586.985V299.096H583.985ZM545.569 299.096H542.569V302.096H545.569V299.096ZM545.569 289.927V286.927H542.569V289.927H545.569ZM569.688 289.927V292.927H572.688V289.927H569.688ZM569.688 288.797L566.689 288.741L566.688 288.769V288.797H569.688ZM568.862 284.799L566.179 286.14L566.193 286.168L566.208 286.196L568.862 284.799ZM558.563 282.452L556.899 279.956L556.883 279.967L556.866 279.978L558.563 282.452ZM556.173 285.32L553.464 284.031L553.458 284.045L553.451 284.059L556.173 285.32ZM555.347 300.791L552.495 301.722L552.504 301.748L552.513 301.774L555.347 300.791ZM557.433 304.441L555.187 306.431L555.217 306.464L555.249 306.497L557.433 304.441ZM560.736 306.745L559.547 309.499L559.558 309.504L559.569 309.508L560.736 306.745ZM571.079 306.44L569.993 303.644L571.079 306.44ZM576.076 302.703L578.373 300.773L576.019 297.973L573.734 300.829L576.076 302.703ZM582.725 310.612L585.18 312.336L586.506 310.448L585.021 308.682L582.725 310.612ZM578.64 314.567L576.885 312.134L576.876 312.141L576.866 312.148L578.64 314.567ZM572.382 317.696L573.3 320.552L573.316 320.547L573.331 320.542L572.382 317.696ZM564.212 315.869C560.698 315.869 557.662 315.324 555.057 314.296L552.856 319.878C556.277 321.227 560.078 321.869 564.212 321.869V315.869ZM555.08 314.306C552.411 313.228 550.216 311.78 548.444 309.983L544.172 314.196C546.572 316.63 549.476 318.513 552.833 319.869L555.08 314.306ZM548.459 309.998C546.677 308.166 545.313 306.065 544.357 303.675L538.786 305.903C540.032 309.018 541.826 311.784 544.158 314.182L548.459 309.998ZM544.367 303.7C543.435 301.309 542.963 298.768 542.963 296.054H536.963C536.963 299.483 537.563 302.765 538.776 305.878L544.367 303.7ZM542.963 296.054V294.403H536.963V296.054H542.963ZM542.963 294.403C542.963 291.234 543.402 288.366 544.249 285.774L538.546 283.911C537.48 287.171 536.963 290.676 536.963 294.403H542.963ZM544.252 285.766C545.095 283.16 546.328 280.937 547.936 279.057L543.376 275.157C541.218 277.681 539.612 280.614 538.543 283.919L544.252 285.766ZM547.936 279.057C549.5 277.228 551.477 275.784 553.922 274.736L551.558 269.222C548.324 270.607 545.578 272.582 543.376 275.157L547.936 279.057ZM553.945 274.726C556.332 273.679 559.21 273.11 562.648 273.11V267.11C558.554 267.11 554.826 267.788 551.534 269.232L553.945 274.726ZM562.648 273.11C565.657 273.11 568.248 273.594 570.47 274.497L572.73 268.939C569.679 267.699 566.302 267.11 562.648 267.11V273.11ZM570.47 274.497C572.715 275.41 574.568 276.695 576.077 278.348L580.508 274.302C578.366 271.956 575.758 270.17 572.73 268.939L570.47 274.497ZM576.093 278.365C577.631 280.023 578.831 282.063 579.665 284.539L585.351 282.625C584.273 279.423 582.662 276.624 580.492 274.285L576.093 278.365ZM579.674 284.565C580.531 287.038 580.985 289.885 580.985 293.143H586.985C586.985 289.331 586.454 285.804 585.342 282.599L579.674 284.565ZM580.985 293.143V299.096H586.985V293.143H580.985ZM583.985 296.096H545.569V302.096H583.985V296.096ZM548.569 299.096V289.927H542.569V299.096H548.569ZM545.569 292.927H569.688V286.927H545.569V292.927ZM572.688 289.927V288.797H566.688V289.927H572.688ZM572.687 288.852C572.723 286.91 572.385 285.051 571.517 283.402L566.208 286.196C566.498 286.748 566.71 287.554 566.689 288.741L572.687 288.852ZM571.546 283.457C570.722 281.811 569.475 280.515 567.855 279.639L565.002 284.917C565.526 285.201 565.901 285.585 566.179 286.14L571.546 283.457ZM567.855 279.639C566.246 278.769 564.424 278.409 562.518 278.409V284.409C563.682 284.409 564.468 284.629 565.002 284.917L567.855 279.639ZM562.518 278.409C560.492 278.409 558.553 278.853 556.899 279.956L560.227 284.948C560.659 284.66 561.356 284.409 562.518 284.409V278.409ZM556.866 279.978C555.376 281 554.248 282.384 553.464 284.031L558.881 286.61C559.256 285.823 559.722 285.295 560.26 284.926L556.866 279.978ZM553.451 284.059C552.758 285.555 552.297 287.217 552.032 289.009L557.967 289.888C558.165 288.551 558.487 287.461 558.895 286.582L553.451 284.059ZM552.032 289.009C551.777 290.733 551.652 292.532 551.652 294.403H557.652C557.652 292.797 557.759 291.294 557.967 289.888L552.032 289.009ZM551.652 294.403V296.054H557.652V294.403H551.652ZM551.652 296.054C551.652 298.058 551.919 299.957 552.495 301.722L558.199 299.86C557.848 298.786 557.652 297.527 557.652 296.054H551.652ZM552.513 301.774C553.12 303.524 554.002 305.092 555.187 306.431L559.679 302.452C559.068 301.762 558.559 300.897 558.181 299.808L552.513 301.774ZM555.249 306.497C556.464 307.789 557.906 308.79 559.547 309.499L561.925 303.99C561.016 303.598 560.257 303.064 559.618 302.385L555.249 306.497ZM559.569 309.508C561.298 310.239 563.182 310.57 565.168 310.57V304.57C563.852 304.57 562.781 304.352 561.903 303.981L559.569 309.508ZM565.168 310.57C567.554 310.57 569.891 310.119 572.164 309.237L569.993 303.644C568.384 304.268 566.781 304.57 565.168 304.57V310.57ZM572.164 309.237C574.632 308.279 576.721 306.699 578.419 304.577L573.734 300.829C572.65 302.184 571.407 303.095 569.993 303.644L572.164 309.237ZM573.78 304.634L580.429 312.543L585.021 308.682L578.373 300.773L573.78 304.634ZM580.27 308.888C579.555 309.906 578.46 310.998 576.885 312.134L580.395 317C582.354 315.587 583.983 314.042 585.18 312.336L580.27 308.888ZM576.866 312.148C575.422 313.207 573.626 314.119 571.434 314.85L573.331 320.542C576.006 319.65 578.382 318.476 580.414 316.986L576.866 312.148ZM571.464 314.84C569.375 315.511 566.968 315.869 564.212 315.869V321.869C567.483 321.869 570.523 321.445 573.3 320.552L571.464 314.84ZM614.709 270.979H617.709V267.979H614.709V270.979ZM614.709 281.148V284.148H617.709V281.148H614.709ZM586.375 281.148H583.375V284.148H586.375V281.148ZM586.375 270.979V267.979H583.375V270.979H586.375ZM592.329 259.29V256.29H589.329V259.29H592.329ZM606.974 259.29H609.974V256.29H606.974V259.29ZM607.409 305.571L604.639 306.725L604.648 306.746L604.657 306.767L607.409 305.571ZM608.886 307.005L607.732 309.775L607.801 309.803L607.87 309.828L608.886 307.005ZM613.84 307.353L613.998 310.349L614.076 310.345L614.154 310.337L613.84 307.353ZM615.405 307.136H618.405V303.56L614.883 304.181L615.405 307.136ZM615.405 317.609L616.334 320.462L618.405 319.787V317.609H615.405ZM611.494 318.521L611.052 315.554L611.021 315.559L610.99 315.564L611.494 318.521ZM599.108 317.392L597.883 320.13L597.89 320.133L597.897 320.136L599.108 317.392ZM611.709 270.979V281.148H617.709V270.979H611.709ZM614.709 278.148H586.375V284.148H614.709V278.148ZM589.375 281.148V270.979H583.375V281.148H589.375ZM586.375 273.979H614.709V267.979H586.375V273.979ZM592.329 262.29H606.974V256.29H592.329V262.29ZM603.974 259.29V302.66H609.974V259.29H603.974ZM603.974 302.66C603.974 304.076 604.13 305.502 604.639 306.725L610.178 304.417C610.108 304.25 609.974 303.735 609.974 302.66H603.974ZM604.657 306.767C605.269 308.173 606.35 309.199 607.732 309.775L610.04 304.236C610.021 304.228 610.02 304.226 610.031 304.233C610.043 304.241 610.062 304.255 610.085 304.277C610.107 304.299 610.126 304.322 610.141 304.343C610.155 304.364 610.16 304.376 610.16 304.375L604.657 306.767ZM607.87 309.828C609.047 310.252 610.388 310.396 611.754 310.396V304.396C610.746 304.396 610.174 304.28 609.902 304.183L607.87 309.828ZM611.754 310.396C612.623 310.396 613.375 310.382 613.998 310.349L613.683 304.357C613.204 304.382 612.566 304.396 611.754 304.396V310.396ZM614.154 310.337C614.767 310.272 615.358 310.19 615.926 310.09L614.883 304.181C614.466 304.255 614.015 304.318 613.526 304.37L614.154 310.337ZM612.405 307.136V317.609H618.405V307.136H612.405ZM614.476 314.756C613.397 315.108 612.257 315.375 611.052 315.554L611.936 321.489C613.454 321.263 614.921 320.921 616.334 320.462L614.476 314.756ZM610.99 315.564C609.812 315.765 608.533 315.869 607.148 315.869V321.869C608.834 321.869 610.452 321.742 611.997 321.479L610.99 315.564ZM607.148 315.869C604.323 315.869 602.078 315.423 600.32 314.647L597.897 320.136C600.601 321.33 603.715 321.869 607.148 321.869V315.869ZM600.333 314.653C598.729 313.935 597.543 312.841 596.698 311.3L591.436 314.183C592.91 316.872 595.084 318.878 597.883 320.13L600.333 314.653ZM596.698 311.3C595.86 309.77 595.329 307.564 595.329 304.485H589.329C589.329 308.185 589.957 311.483 591.436 314.183L596.698 311.3ZM595.329 304.485V259.29H589.329V304.485H595.329ZM636.003 270.979H639.003V267.979H636.003V270.979ZM636.003 318V321H639.003V318H636.003ZM621.315 318H618.315V321H621.315V318ZM621.315 270.979V267.979H618.315V270.979H621.315ZM633.003 270.979V318H639.003V270.979H633.003ZM636.003 315H621.315V321H636.003V315ZM624.315 318V270.979H618.315V318H624.315ZM621.315 273.979H636.003V267.979H621.315V273.979ZM623.446 258.855C623.446 257.592 623.857 256.714 624.693 255.974L620.718 251.48C618.541 253.406 617.446 255.946 617.446 258.855H623.446ZM624.693 255.974C625.548 255.218 626.749 254.728 628.572 254.728V248.728C625.586 248.728 622.876 249.571 620.718 251.48L624.693 255.974ZM628.572 254.728C630.395 254.728 631.596 255.218 632.451 255.974L636.427 251.48C634.268 249.571 631.559 248.728 628.572 248.728V254.728ZM632.451 255.974C633.287 256.714 633.699 257.592 633.699 258.855H639.699C639.699 255.946 638.604 253.406 636.427 251.48L632.451 255.974ZM633.699 258.855C633.699 260.118 633.287 260.996 632.451 261.736L636.427 266.23C638.604 264.304 639.699 261.764 639.699 258.855H633.699ZM632.451 261.736C631.596 262.492 630.395 262.982 628.572 262.982V268.982C631.559 268.982 634.268 268.139 636.427 266.23L632.451 261.736ZM628.572 262.982C626.749 262.982 625.548 262.492 624.693 261.736L620.718 266.23C622.876 268.139 625.586 268.982 628.572 268.982V262.982ZM624.693 261.736C623.857 260.996 623.446 260.118 623.446 258.855H617.446C617.446 261.764 618.541 264.304 620.718 266.23L624.693 261.736ZM659.427 281.018H662.427V280.882L662.414 280.746L659.427 281.018ZM659.427 318V321H662.427V318H659.427ZM644.782 318H641.782V321H644.782V318ZM644.782 270.979V267.979H641.782V270.979H644.782ZM658.514 270.979L661.502 270.708L661.254 267.979H658.514V270.979ZM657.688 292.882L657.764 295.881L660.688 295.807V292.882H657.688ZM654.255 292.969H651.255V296.046L654.331 295.968L654.255 292.969ZM655.559 283.365L658.425 284.251L658.428 284.243L655.559 283.365ZM664.946 271.675L666.201 274.4L666.209 274.396L666.216 274.392L664.946 271.675ZM678.331 271.066L677.327 273.894L677.334 273.896L677.342 273.899L678.331 271.066ZM683.024 274.152L680.814 276.181L680.825 276.193L680.837 276.205L683.024 274.152ZM686.066 279.801L683.19 280.654L683.196 280.675L683.202 280.696L686.066 279.801ZM687.152 318V321H690.152V318H687.152ZM672.42 318H669.42V321H672.42V318ZM671.638 284.06L668.97 285.432L668.978 285.448L668.987 285.464L671.638 284.06ZM659.427 284.712L656.867 283.148L656.861 283.158L656.854 283.168L659.427 284.712ZM658.08 288.319L655.143 287.707L655.137 287.736L655.131 287.766L658.08 288.319ZM656.427 281.018V318H662.427V281.018H656.427ZM659.427 315H644.782V321H659.427V315ZM647.782 318V270.979H641.782V318H647.782ZM644.782 273.979H658.514V267.979H644.782V273.979ZM655.526 271.251L656.439 281.29L662.414 280.746L661.502 270.708L655.526 271.251ZM657.613 289.883L654.179 289.97L654.331 295.968L657.764 295.881L657.613 289.883ZM657.255 292.969C657.255 289.613 657.662 286.719 658.425 284.251L652.693 282.478C651.718 285.631 651.255 289.14 651.255 292.969H657.255ZM658.428 284.243C659.203 281.709 660.271 279.662 661.585 278.037L656.92 274.264C655.048 276.58 653.653 279.342 652.69 282.487L658.428 284.243ZM661.585 278.037C662.902 276.409 664.437 275.212 666.201 274.4L663.691 268.95C661.051 270.166 658.79 271.952 656.92 274.264L661.585 278.037ZM666.216 274.392C668.009 273.554 670.046 273.11 672.377 273.11V267.11C669.261 267.11 666.344 267.709 663.675 268.957L666.216 274.392ZM672.377 273.11C674.255 273.11 675.895 273.385 677.327 273.894L679.334 268.239C677.174 267.473 674.844 267.11 672.377 267.11V273.11ZM677.342 273.899C678.701 274.374 679.846 275.127 680.814 276.181L685.234 272.123C683.594 270.338 681.61 269.034 679.32 268.234L677.342 273.899ZM680.837 276.205C681.777 277.207 682.594 278.643 683.19 280.654L688.942 278.949C688.147 276.266 686.936 273.936 685.211 272.099L680.837 276.205ZM683.202 280.696C683.808 282.633 684.152 285.177 684.152 288.406H690.152C690.152 284.797 689.773 281.605 688.929 278.906L683.202 280.696ZM684.152 288.406V318H690.152V288.406H684.152ZM687.152 315H672.42V321H687.152V315ZM675.42 318V288.362H669.42V318H675.42ZM675.42 288.362C675.42 286.285 675.147 284.276 674.29 282.656L668.987 285.464C669.172 285.814 669.42 286.673 669.42 288.362H675.42ZM674.306 282.688C673.476 281.075 672.184 279.835 670.45 279.172L668.307 284.776C668.543 284.867 668.757 285.017 668.97 285.432L674.306 282.688ZM670.45 279.172C669.027 278.628 667.438 278.409 665.771 278.409V284.409C666.944 284.409 667.76 284.567 668.307 284.776L670.45 279.172ZM665.771 278.409C663.887 278.409 662.081 278.772 660.49 279.656L663.404 284.901C663.899 284.626 664.643 284.409 665.771 284.409V278.409ZM660.49 279.656C658.983 280.493 657.767 281.674 656.867 283.148L661.987 286.276C662.361 285.664 662.826 285.222 663.404 284.901L660.49 279.656ZM656.854 283.168C656.042 284.522 655.487 286.052 655.143 287.707L661.017 288.931C661.251 287.805 661.594 286.93 661.999 286.255L656.854 283.168ZM655.131 287.766C654.831 289.366 654.688 291.075 654.688 292.882H660.688C660.688 291.386 660.807 290.053 661.028 288.872L655.131 287.766ZM724.83 270.979V267.979H722.181L721.853 270.607L724.83 270.979ZM738.127 270.979H741.127V267.979H738.127V270.979ZM735.129 327.213L732.629 325.554L732.622 325.565L735.129 327.213ZM726.742 334.123L725.544 331.372L725.53 331.378L725.517 331.384L726.742 334.123ZM707.751 335.687L708.479 332.777L708.461 332.772L708.442 332.768L707.751 335.687ZM696.756 329.473L694.313 327.732L692.958 329.634L694.469 331.414L696.756 329.473ZM702.884 320.868L705.123 318.872L702.621 316.065L700.44 319.128L702.884 320.868ZM707.36 324.258L708.769 321.61L708.753 321.601L708.736 321.592L707.36 324.258ZM719.006 324.562L717.622 321.9L717.611 321.906L717.6 321.912L719.006 324.562ZM722.309 321.259L719.659 319.853L719.653 319.864L719.647 319.875L722.309 321.259ZM723.439 282.104L720.462 281.732L720.439 281.918V282.104H723.439ZM694.888 284.408L692.017 283.535L692.015 283.544L692.012 283.554L694.888 284.408ZM698.712 276.803L696.351 274.952L696.347 274.956L698.712 276.803ZM720.745 271.979L719.191 274.545L719.212 274.558L719.233 274.57L720.745 271.979ZM725.742 277.107L723.131 278.584L723.138 278.597L723.146 278.61L725.742 277.107ZM728.697 284.842L725.777 285.529L725.781 285.546L725.785 285.563L728.697 284.842ZM730.522 294.316H733.522V294.099L733.491 293.885L730.522 294.316ZM730.522 295.402L733.487 295.861L733.522 295.633V295.402H730.522ZM728.48 304.441L725.611 303.563L725.608 303.573L725.606 303.582L728.48 304.441ZM720.049 317.044L721.593 319.616L721.603 319.61L720.049 317.044ZM704.752 317.087L703.398 319.764L703.404 319.767L703.411 319.771L704.752 317.087ZM698.712 312.09L696.335 313.921L696.343 313.931L696.351 313.94L698.712 312.09ZM694.888 304.528L692.014 305.39L692.018 305.404L692.022 305.417L694.888 304.528ZM708.707 299.965L705.772 300.586L705.778 300.613L705.784 300.64L708.707 299.965ZM710.271 303.963L707.699 305.507L707.708 305.521L707.717 305.536L710.271 303.963ZM712.835 306.614L711.239 309.154L711.255 309.164L711.271 309.174L712.835 306.614ZM721.614 306.223L723.316 308.694L721.614 306.223ZM725.177 296.576H722.177V296.634L722.18 296.692L725.177 296.576ZM725.177 293.143L722.179 293.052L722.177 293.097V293.143H725.177ZM724.786 288.102L721.854 288.734L721.856 288.746L724.786 288.102ZM723.265 284.408L720.78 286.089L720.797 286.113L720.814 286.138L723.265 284.408ZM720.571 282.191L719.287 284.903L719.329 284.923L719.372 284.941L720.571 282.191ZM710.358 285.06L712.913 286.632L712.922 286.618L712.931 286.603L710.358 285.06ZM708.75 289.101L705.834 288.399L705.829 288.419L705.825 288.439L708.75 289.101ZM724.83 273.979H738.127V267.979H724.83V273.979ZM735.127 270.979V316.175H741.127V270.979H735.127ZM735.127 316.175C735.127 320.051 734.241 323.125 732.629 325.554L737.629 328.871C740.015 325.275 741.127 320.99 741.127 316.175H735.127ZM732.622 325.565C730.967 328.083 728.645 330.022 725.544 331.372L727.94 336.873C732.024 335.095 735.292 332.427 737.636 328.86L732.622 325.565ZM725.517 331.384C722.415 332.771 718.677 333.513 714.226 333.513V339.513C719.336 339.513 723.941 338.661 727.966 336.861L725.517 331.384ZM714.226 333.513C712.374 333.513 710.46 333.272 708.479 332.777L707.023 338.597C709.446 339.203 711.849 339.513 714.226 339.513V333.513ZM708.442 332.768C706.49 332.305 704.685 331.617 703.017 330.707L700.144 335.974C702.299 337.15 704.608 338.026 707.06 338.606L708.442 332.768ZM703.017 330.707C701.402 329.826 700.09 328.763 699.043 327.531L694.469 331.414C696.03 333.253 697.934 334.769 700.144 335.974L703.017 330.707ZM699.2 331.213L705.327 322.608L700.44 319.128L694.313 327.732L699.2 331.213ZM700.644 322.864C702.107 324.505 703.904 325.85 705.984 326.924L708.736 321.592C707.223 320.811 706.037 319.897 705.123 318.872L700.644 322.864ZM705.95 326.906C708.258 328.134 710.875 328.692 713.705 328.692V322.692C711.667 322.692 710.054 322.293 708.769 321.61L705.95 326.906ZM713.705 328.692C716.16 328.692 718.445 328.256 720.413 327.212L717.6 321.912C716.729 322.374 715.479 322.692 713.705 322.692V328.692ZM720.39 327.224C722.386 326.186 723.933 324.639 724.971 322.643L719.647 319.875C719.179 320.777 718.524 321.432 717.622 321.9L720.39 327.224ZM724.959 322.665C725.995 320.714 726.439 318.481 726.439 316.088H720.439C720.439 317.751 720.13 318.965 719.659 319.853L724.959 322.665ZM726.439 316.088V282.104H720.439V316.088H726.439ZM726.416 282.477L727.806 271.352L721.853 270.607L720.462 281.732L726.416 282.477ZM696.584 295.055V294.142H690.584V295.055H696.584ZM696.584 294.142C696.584 290.821 696.989 287.869 697.764 285.262L692.012 283.554C691.048 286.799 690.584 290.337 690.584 294.142H696.584ZM697.758 285.28C698.565 282.625 699.684 280.433 701.076 278.649L696.347 274.956C694.437 277.403 693.007 280.28 692.017 283.535L697.758 285.28ZM701.073 278.653C702.482 276.856 704.156 275.499 706.111 274.545L703.481 269.152C700.684 270.516 698.302 272.462 696.351 274.952L701.073 278.653ZM706.111 274.545C708.027 273.61 710.248 273.11 712.835 273.11V267.11C709.455 267.11 706.316 267.769 703.481 269.152L706.111 274.545ZM712.835 273.11C715.683 273.11 717.735 273.664 719.191 274.545L722.299 269.413C719.64 267.803 716.42 267.11 712.835 267.11V273.11ZM719.233 274.57C720.838 275.507 722.134 276.822 723.131 278.584L728.353 275.63C726.859 272.989 724.823 270.885 722.256 269.388L719.233 274.57ZM723.146 278.61C724.248 280.514 725.137 282.807 725.777 285.529L731.618 284.155C730.867 280.967 729.786 278.104 728.338 275.604L723.146 278.61ZM725.785 285.563C726.483 288.382 727.073 291.442 727.554 294.747L733.491 293.885C732.986 290.41 732.36 287.155 731.609 284.121L725.785 285.563ZM727.522 294.316V295.402H733.522V294.316H727.522ZM727.558 294.944C727.085 298.001 726.435 300.873 725.611 303.563L731.349 305.32C732.263 302.332 732.975 299.177 733.487 295.861L727.558 294.944ZM725.606 303.582C724.832 306.17 723.835 308.409 722.635 310.323L727.719 313.509C729.243 311.078 730.448 308.333 731.354 305.301L725.606 303.582ZM722.635 310.323C721.505 312.126 720.125 313.491 718.495 314.478L721.603 319.61C724.088 318.106 726.126 316.052 727.719 313.509L722.635 310.323ZM718.506 314.471C717.03 315.357 715.153 315.869 712.749 315.869V321.869C716.022 321.869 719.013 321.164 721.593 319.616L718.506 314.471ZM712.749 315.869C710.206 315.869 708.008 315.361 706.094 314.404L703.411 319.771C706.248 321.189 709.381 321.869 712.749 321.869V315.869ZM706.107 314.411C704.167 313.428 702.492 312.05 701.073 310.239L696.351 313.94C698.292 316.417 700.645 318.371 703.398 319.764L706.107 314.411ZM701.089 310.259C699.68 308.43 698.558 306.237 697.753 303.64L692.022 305.417C693.013 308.614 694.442 311.462 696.335 313.921L701.089 310.259ZM697.761 303.666C696.986 301.082 696.584 298.219 696.584 295.055H690.584C690.584 298.728 691.051 302.18 692.014 305.39L697.761 303.666ZM705.229 294.142V295.055H711.229V294.142H705.229ZM705.229 295.055C705.229 297.001 705.404 298.848 705.772 300.586L711.642 299.344C711.372 298.069 711.229 296.643 711.229 295.055H705.229ZM705.784 300.64C706.192 302.409 706.821 304.043 707.699 305.507L712.844 302.42C712.332 301.566 711.917 300.534 711.63 299.291L705.784 300.64ZM707.717 305.536C708.627 307.015 709.795 308.247 711.239 309.154L714.432 304.074C713.848 303.707 713.307 303.172 712.826 302.391L707.717 305.536ZM711.271 309.174C712.847 310.137 714.621 310.57 716.486 310.57V304.57C715.569 304.57 714.91 304.366 714.4 304.054L711.271 309.174ZM716.486 310.57C719.008 310.57 721.368 310.035 723.316 308.694L719.912 303.753C719.252 304.207 718.194 304.57 716.486 304.57V310.57ZM723.316 308.694C725.198 307.397 726.503 305.577 727.269 303.392L721.608 301.406C721.215 302.524 720.637 303.253 719.912 303.753L723.316 308.694ZM727.269 303.392C728.003 301.301 728.273 298.967 728.175 296.459L722.18 296.692C722.256 298.646 722.033 300.194 721.608 301.406L727.269 303.392ZM728.177 296.576V293.143H722.177V296.576H728.177ZM728.176 293.233C728.239 291.142 728.101 289.205 727.716 287.457L721.856 288.746C722.109 289.895 722.231 291.319 722.179 293.052L728.176 293.233ZM727.719 287.469C727.336 285.694 726.695 284.065 725.716 282.678L720.814 286.138C721.226 286.721 721.599 287.554 721.854 288.734L727.719 287.469ZM725.75 282.727C724.753 281.253 723.401 280.152 721.77 279.441L719.372 284.941C720.001 285.215 720.445 285.592 720.78 286.089L725.75 282.727ZM721.855 279.48C720.256 278.723 718.46 278.409 716.573 278.409V284.409C717.815 284.409 718.684 284.617 719.287 284.903L721.855 279.48ZM716.573 278.409C714.724 278.409 712.968 278.848 711.401 279.805L714.53 284.925C715.05 284.608 715.698 284.409 716.573 284.409V278.409ZM711.401 279.805C709.903 280.721 708.704 281.987 707.786 283.516L712.931 286.603C713.404 285.815 713.943 285.284 714.53 284.925L711.401 279.805ZM707.803 283.487C706.912 284.937 706.269 286.59 705.834 288.399L711.667 289.803C711.985 288.483 712.415 287.442 712.913 286.632L707.803 283.487ZM705.825 288.439C705.421 290.223 705.229 292.128 705.229 294.142H711.229C711.229 292.505 711.385 291.05 711.676 289.764L705.825 288.439Z" fill="white"/>
<g clip-path="url(#clip0_569_6558)">
<path d="M148.597 233.419H141.182H133.768L130.117 277.689H141.182H152.247L148.597 233.419Z" fill="white"/>
<path d="M170.514 233.419H177.928H185.343L188.993 277.689H177.928H166.863L170.514 233.419Z" fill="white"/>
<path d="M229.105 277.223V264.383L248.583 277.223H229.105Z" fill="white"/>
<path d="M206.02 277.223V264.383L225.497 277.223H206.02Z" fill="white"/>
<path d="M215.486 177.821C213.576 177.821 211.751 178.16 210.054 178.739C207.772 169.148 199.103 162 188.736 162C176.63 162 166.806 171.718 166.806 183.725C166.806 185.336 166.991 186.889 167.334 188.401C166.849 188.344 166.364 188.288 165.851 188.288C160.304 188.288 155.698 192.257 154.743 197.484C153.431 197.088 152.048 196.862 150.608 196.862C142.908 196.862 136.662 203.049 136.662 210.677C136.662 211.807 136.819 212.909 137.076 213.968C133.383 214.237 130.445 217.259 130.445 220.989C130.445 224.718 133.639 228.051 137.575 228.051H186.227C186.312 228.051 186.398 228.051 186.498 228.051C191.574 228.051 196.009 225.353 198.447 221.342C199.531 221.681 200.671 221.864 201.869 221.864C208.115 221.864 213.162 216.85 213.162 210.677C213.162 210.62 213.162 210.55 213.162 210.493C213.932 210.606 214.702 210.677 215.501 210.677C224.655 210.677 232.084 203.317 232.084 194.249C232.084 185.18 224.655 177.821 215.501 177.821H215.486Z" fill="white"/>
<path d="M127.922 280.966V332.723H171.982V322.199H206.033V332.723H248.596V280.966H127.922ZM154.216 302.395H140.227V295.629H154.216V302.395ZM174.734 302.395H160.746V295.629H174.734V302.395ZM195.253 302.395H181.265V295.629H195.253V302.395ZM215.772 302.395H201.784V295.629H215.772V302.395ZM236.291 302.395H222.303V295.629H236.291V302.395Z" fill="white"/>
<path d="M254 335.731H124V341H254V335.731Z" fill="white"/>
</g>
<g clip-path="url(#clip1_569_6558)">
<path d="M982.918 332.462H957.32V332.604H982.918V332.462Z" fill="#EBEBEB"/>
<path d="M919.314 329.014H876.98V329.155H919.314V329.014Z" fill="#EBEBEB"/>
<path d="M995.107 240.774L995.027 288.362C995.027 288.362 997.426 289.029 999.348 288.362L997.188 239.705L995.107 240.774Z" fill="white"/>
<path d="M999.354 238.501C999.354 237.189 998.388 236.121 997.194 236.121H992.191L992.368 240.876C992.368 240.876 994.778 240.779 996.455 240.723C996.688 240.819 996.932 240.876 997.194 240.876C997.49 240.876 997.774 240.808 998.03 240.689C998.808 240.327 999.354 239.485 999.354 238.495V238.501Z" fill="white"/>
<path d="M1013.99 254.224L1000.48 239.643L994.492 238.8C994.504 238.699 994.521 238.602 994.521 238.501C994.521 237.285 993.685 236.29 992.611 236.149L995.203 212.001L989.285 230.936L991.479 236.33C990.729 236.703 990.2 237.528 990.2 238.495C990.2 238.812 990.257 239.117 990.36 239.394L967.934 249.452L987.352 244.957L990.962 240.299C991.337 240.655 991.821 240.875 992.361 240.875C993.111 240.875 993.776 240.451 994.163 239.807L1013.99 254.218V254.224Z" fill="white"/>
<path opacity="0.2" d="M1013.99 254.224L1000.48 239.643L994.492 238.8C994.504 238.699 994.521 238.602 994.521 238.501C994.521 237.285 993.685 236.29 992.611 236.149L995.203 212.001L989.285 230.936L991.479 236.33C990.729 236.703 990.2 237.528 990.2 238.495C990.2 238.812 990.257 239.117 990.36 239.394L967.934 249.452L987.352 244.957L990.962 240.299C991.337 240.655 991.821 240.875 992.361 240.875C993.111 240.875 993.776 240.451 994.163 239.807L1013.99 254.218V254.224Z" fill="white"/>
<path opacity="0.2" d="M993.289 238.427C993.334 238.998 992.959 239.496 992.447 239.535C991.936 239.575 991.487 239.145 991.441 238.574C991.396 238.003 991.771 237.505 992.283 237.466C992.794 237.426 993.243 237.856 993.289 238.427Z" fill="white"/>
<path d="M948.799 313.725H1043C1043 313.725 1033.94 283.336 998.159 283.358C974.812 283.375 959.787 293.145 948.793 313.725H948.799Z" fill="white"/>
<path d="M850.381 213.307C850.381 211.069 848.733 209.259 846.703 209.259H838.188L838.483 217.361H847.01V217.344C848.897 217.175 850.387 215.433 850.387 213.313L850.381 213.307Z" fill="white"/>
<path opacity="0.1" d="M850.381 213.307C850.381 211.069 848.733 209.259 846.703 209.259H838.188L838.483 217.361H847.01V217.344C848.897 217.175 850.387 215.433 850.387 213.313L850.381 213.307Z" fill="white"/>
<path d="M843.154 217.18L843.023 298.211C843.023 298.211 847.105 299.348 850.379 298.211L846.701 215.354L843.154 217.175V217.18Z" fill="white"/>
<path opacity="0.1" d="M850.379 298.211C847.105 299.348 843.023 298.211 843.023 298.211L843.04 288.249V285.258L843.052 282.912V281.945L843.154 217.175L846.701 215.354L849.657 281.945L849.703 282.912L849.805 285.258L849.936 288.249L850.379 298.211Z" fill="white"/>
<path d="M849.767 221.765L841.462 215.676C841.899 215.009 842.161 214.195 842.161 213.307C842.161 211.984 841.581 210.808 840.689 210.073L864.07 175.737L839.944 199.495L838.909 209.287C838.767 209.27 838.625 209.259 838.483 209.259C836.539 209.259 834.953 210.916 834.816 213.019L793 209.706L825.675 218.854L835.061 214.783C835.601 216.287 836.925 217.35 838.483 217.35C839.086 217.35 839.648 217.186 840.154 216.903L858.18 254.467L849.773 221.754L849.767 221.765Z" fill="white"/>
<path opacity="0.3" d="M849.66 281.945H843.055V282.912H849.706L849.66 281.945Z" fill="white"/>
<path opacity="0.3" d="M849.938 288.249H843.043L843.049 285.258H849.808L849.938 288.249Z" fill="white"/>
<path d="M827.188 313.726H900.383C900.383 313.726 893.351 287.339 865.542 287.356C847.402 287.367 835.726 295.854 827.188 313.726Z" fill="white"/>
<path opacity="0.2" d="M840.01 213.166C840.09 214.15 839.442 215.009 838.561 215.077C837.68 215.145 836.907 214.404 836.827 213.415C836.747 212.425 837.395 211.572 838.277 211.504C839.158 211.436 839.931 212.177 840.01 213.166Z" fill="white"/>
<path d="M926.185 204.385L925.98 329.765C925.98 329.765 932.245 331.524 937.27 329.765L931.625 201.564L926.185 204.38V204.385Z" fill="white"/>
<path opacity="0.2" d="M937.268 329.765C932.243 331.518 925.984 329.765 925.984 329.765L925.996 321.596L926.007 315.823V311.193L926.018 309.146L926.183 204.38L931.624 201.564L936.359 309.146L936.45 311.193L936.654 315.846L936.91 321.596L937.268 329.765Z" fill="white"/>
<path d="M931.625 204.634C934.743 204.634 937.27 201.852 937.27 198.421C937.27 194.989 934.743 192.207 931.625 192.207C928.508 192.207 925.98 194.989 925.98 198.421C925.98 201.852 928.508 204.634 931.625 204.634Z" fill="white"/>
<path d="M931.624 204.634C931.857 204.51 919.009 204.634 919.009 204.634L918.555 192.207H931.624V204.634Z" fill="white"/>
<path opacity="0.1" d="M931.624 192.207H918.555L919.009 204.634C919.009 204.634 928.491 204.544 931.01 204.595C931.209 204.617 931.413 204.634 931.624 204.634C934.739 204.634 937.269 201.853 937.269 198.421C937.269 194.989 934.739 192.207 931.624 192.207Z" fill="white"/>
<path d="M919.012 204.634C922.13 204.634 924.657 201.852 924.657 198.421C924.657 194.989 922.13 192.207 919.012 192.207C915.894 192.207 913.367 194.989 913.367 198.421C913.367 201.852 915.894 204.634 919.012 204.634Z" fill="white"/>
<path d="M919.23 198.421L935.028 184.02L987.037 181.097L919.23 198.421Z" fill="white"/>
<path d="M919.232 198.42L923.848 219.238L900.336 265.464L919.232 198.42Z" fill="white"/>
<path d="M919.012 198.42L898.53 192.145L869.703 149L919.012 198.42Z" fill="white"/>
<path opacity="0.3" d="M936.911 321.596H925.996L926.007 315.823C928.679 315.857 933.284 315.897 936.655 315.846L936.911 321.596Z" fill="white"/>
<path opacity="0.3" d="M936.453 311.193H926.016L926.021 309.146H936.362L936.453 311.193Z" fill="white"/>
<path opacity="0.2" d="M921.592 198.081C921.723 199.687 920.665 201.078 919.233 201.191C917.8 201.304 916.538 200.094 916.413 198.489C916.283 196.883 917.34 195.492 918.772 195.379C920.205 195.266 921.467 196.476 921.592 198.081Z" fill="white"/>
<path d="M879.951 303.317C912.593 303.317 925.611 327.233 925.611 327.233C925.611 327.233 987.414 306.195 1011.35 349.006H815.391C815.391 349.006 831.433 303.317 879.951 303.317Z" fill="white"/>
</g>
<defs>
<filter id="filter0_d_569_6558" x="30" y="115" width="318" height="297" filterUnits="userSpaceOnUse" color-interpolation-filters="sRGB">
<feFlood flood-opacity="0" result="BackgroundImageFix"/>
<feColorMatrix in="SourceAlpha" type="matrix" values="0 0 0 0 0 0 0 0 0 0 0 0 0 0 0 0 0 0 127 0" result="hardAlpha"/>
<feMorphology radius="2" operator="erode" in="SourceAlpha" result="effect1_dropShadow_569_6558"/>
<feOffset dy="12"/>
<feGaussianBlur stdDeviation="12"/>
<feComposite in2="hardAlpha" operator="out"/>
<feColorMatrix type="matrix" values="0 0 0 0 0 0 0 0 0 0 0 0 0 0 0 0 0 0 0.06 0"/>
<feBlend mode="normal" in2="BackgroundImageFix" result="effect1_dropShadow_569_6558"/>
<feBlend mode="normal" in="SourceGraphic" in2="effect1_dropShadow_569_6558" result="shape"/>
</filter>
<filter id="filter1_d_569_6558" x="29" y="115" width="318" height="297" filterUnits="userSpaceOnUse" color-interpolation-filters="sRGB">
<feFlood flood-opacity="0" result="BackgroundImageFix"/>
<feColorMatrix in="SourceAlpha" type="matrix" values="0 0 0 0 0 0 0 0 0 0 0 0 0 0 0 0 0 0 127 0" result="hardAlpha"/>
<feMorphology radius="2" operator="erode" in="SourceAlpha" result="effect1_dropShadow_569_6558"/>
<feOffset dy="12"/>
<feGaussianBlur stdDeviation="12"/>
<feComposite in2="hardAlpha" operator="out"/>
<feColorMatrix type="matrix" values="0 0 0 0 0 0 0 0 0 0 0 0 0 0 0 0 0 0 0.06 0"/>
<feBlend mode="normal" in2="BackgroundImageFix" result="effect1_dropShadow_569_6558"/>
<feBlend mode="normal" in="SourceGraphic" in2="effect1_dropShadow_569_6558" result="shape"/>
</filter>
<filter id="filter2_d_569_6558" x="759" y="115" width="318" height="297" filterUnits="userSpaceOnUse" color-interpolation-filters="sRGB">
<feFlood flood-opacity="0" result="BackgroundImageFix"/>
<feColorMatrix in="SourceAlpha" type="matrix" values="0 0 0 0 0 0 0 0 0 0 0 0 0 0 0 0 0 0 127 0" result="hardAlpha"/>
<feMorphology radius="2" operator="erode" in="SourceAlpha" result="effect1_dropShadow_569_6558"/>
<feOffset dy="12"/>
<feGaussianBlur stdDeviation="12"/>
<feComposite in2="hardAlpha" operator="out"/>
<feColorMatrix type="matrix" values="0 0 0 0 0 0 0 0 0 0 0 0 0 0 0 0 0 0 0.06 0"/>
<feBlend mode="normal" in2="BackgroundImageFix" result="effect1_dropShadow_569_6558"/>
<feBlend mode="normal" in="SourceGraphic" in2="effect1_dropShadow_569_6558" result="shape"/>
</filter>
<filter id="filter3_d_569_6558" x="759" y="115" width="318" height="297" filterUnits="userSpaceOnUse" color-interpolation-filters="sRGB">
<feFlood flood-opacity="0" result="BackgroundImageFix"/>
<feColorMatrix in="SourceAlpha" type="matrix" values="0 0 0 0 0 0 0 0 0 0 0 0 0 0 0 0 0 0 127 0" result="hardAlpha"/>
<feMorphology radius="2" operator="erode" in="SourceAlpha" result="effect1_dropShadow_569_6558"/>
<feOffset dy="12"/>
<feGaussianBlur stdDeviation="12"/>
<feComposite in2="hardAlpha" operator="out"/>
<feColorMatrix type="matrix" values="0 0 0 0 0 0 0 0 0 0 0 0 0 0 0 0 0 0 0.06 0"/>
<feBlend mode="normal" in2="BackgroundImageFix" result="effect1_dropShadow_569_6558"/>
<feBlend mode="normal" in="SourceGraphic" in2="effect1_dropShadow_569_6558" result="shape"/>
</filter>
<radialGradient id="paint0_radial_569_6558" cx="0" cy="0" r="1" gradientUnits="userSpaceOnUse" gradientTransform="translate(552.5 260.098) rotate(88.4387) scale(338.307 753.639)">
<stop stop-color="#91BD5A"/>
<stop offset="1" stop-color="#50AA57"/>
</radialGradient>
<clipPath id="clip0_569_6558">
<rect width="130" height="179" fill="white" transform="translate(124 162)"/>
</clipPath>
<clipPath id="clip1_569_6558">
<rect width="250" height="200" fill="white" transform="translate(793 149)"/>
</clipPath>
</defs>
</svg>
