<svg width="1105" height="496" viewBox="0 0 1105 496" fill="none" xmlns="http://www.w3.org/2000/svg">
<rect width="1105" height="496" rx="32" fill="url(#paint0_linear_528_1099)"/>
<mask id="mask0_528_1099" style="mask-type:alpha" maskUnits="userSpaceOnUse" x="0" y="0" width="1105" height="496">
<rect width="1105" height="496" rx="32" fill="url(#paint1_linear_528_1099)"/>
</mask>
<g mask="url(#mask0_528_1099)">
<g filter="url(#filter0_d_528_1099)">
<mask id="mask1_528_1099" style="mask-type:alpha" maskUnits="userSpaceOnUse" x="148" y="-173" width="842" height="842">
<circle opacity="0.2" cx="569" cy="248" r="421" fill="white"/>
</mask>
<g mask="url(#mask1_528_1099)">
<g filter="url(#filter1_d_528_1099)">
<rect x="-672.188" y="-292.974" width="2410.39" height="1081.95" rx="32" fill="url(#paint2_linear_528_1099)"/>
</g>
</g>
</g>
</g>
<mask id="mask2_528_1099" style="mask-type:alpha" maskUnits="userSpaceOnUse" x="0" y="0" width="1105" height="496">
<rect width="1105" height="496" rx="32" fill="url(#paint3_linear_528_1099)"/>
</mask>
<g mask="url(#mask2_528_1099)">
<g filter="url(#filter2_d_528_1099)">
<mask id="mask3_528_1099" style="mask-type:alpha" maskUnits="userSpaceOnUse" x="330" y="9" width="478" height="478">
<circle opacity="0.2" cx="569" cy="248" r="239" fill="white"/>
</mask>
<g mask="url(#mask3_528_1099)">
<rect x="-135.617" y="-59.1089" width="1368.37" height="614.218" rx="32" fill="url(#paint4_linear_528_1099)"/>
</g>
</g>
</g>
<path opacity="0.2" d="M568.512 388.052C652.302 388.052 720.227 320.127 720.227 236.337C720.227 152.547 652.302 84.6221 568.512 84.6221C484.722 84.6221 416.797 152.547 416.797 236.337C416.797 320.127 484.722 388.052 568.512 388.052Z" fill="white"/>
<path d="M697.919 315.557C647.853 397.192 531.354 411.949 462.661 345.027C445.223 276.136 427.791 207.239 410.347 138.348C408.582 131.363 413.357 124.136 421.011 122.198C487.802 105.292 554.6 88.3869 621.392 71.4815C629.052 69.5433 636.688 73.6303 638.459 80.6154C658.275 158.931 678.097 237.241 697.919 315.557Z" fill="#E8F1F2"/>
<path d="M604.659 130.428L463.787 166.084C461.304 166.716 458.771 165.211 458.146 162.721C457.52 160.232 459.025 157.706 461.508 157.08L602.38 121.424C604.87 120.792 607.396 122.303 608.021 124.786C608.647 127.27 607.142 129.802 604.659 130.428Z" fill="#006CA7"/>
<path d="M613.311 164.647L472.439 200.303C469.956 200.935 467.423 199.43 466.798 196.941C466.172 194.451 467.677 191.925 470.16 191.299L611.033 155.643C613.522 155.011 616.048 156.516 616.674 159.006C617.299 161.495 615.795 164.021 613.311 164.647Z" fill="#006CA7"/>
<path d="M622.393 200.514L481.521 236.17C479.038 236.802 476.505 235.291 475.88 232.808C475.254 230.325 476.759 227.792 479.242 227.166L620.115 191.51C622.604 190.879 625.13 192.383 625.756 194.873C626.381 197.362 624.877 199.882 622.393 200.514Z" fill="#006CA7"/>
<path d="M629.948 230.38L489.076 266.036C486.593 266.668 484.06 265.157 483.435 262.674C482.809 260.191 484.314 257.658 486.797 257.033L627.669 221.376C630.159 220.745 632.685 222.25 633.311 224.739C633.936 227.228 632.431 229.755 629.948 230.38Z" fill="#006CA7"/>
<path d="M642.181 278.706L577.947 294.961C575.458 295.592 572.931 294.081 572.306 291.598C571.68 289.115 573.185 286.582 575.668 285.957L639.902 269.702C642.392 269.07 644.918 270.581 645.544 273.064C646.169 275.547 644.665 278.08 642.181 278.706Z" fill="#006CA7"/>
<path d="M649.373 307.124L585.138 323.379C582.649 324.01 580.123 322.499 579.497 320.016C578.872 317.533 580.376 315 582.86 314.375L647.094 298.12C649.583 297.488 652.11 298.999 652.735 301.482C653.367 303.972 651.856 306.498 649.373 307.124Z" fill="#006CA7"/>
<path d="M718.148 122.681C713.727 127.102 708.278 129.87 702.574 130.997C692.196 133.028 682.56 137.698 674.306 144.231L653.66 123.585C654.564 122.433 655.431 121.257 656.255 120.049C661.432 112.581 665.147 104.159 666.949 95.1926C668.101 89.4893 670.906 84.0462 675.359 79.6433C687.347 67.7971 707.281 68.1873 718.817 80.4731C720.805 82.5909 722.427 84.9255 723.697 87.3963C729.542 98.8028 727.691 113.132 718.142 122.687L718.148 122.681Z" fill="#A54B0E"/>
<path d="M677.248 161.836L677.204 161.88L636.043 120.718L636.086 120.675C637.207 119.554 638.526 118.743 639.919 118.247C641.046 117.839 642.235 117.641 643.418 117.641C646.075 117.641 648.725 118.65 650.75 120.675L677.241 147.166C680.17 150.095 680.988 154.343 679.669 158.003C679.167 159.396 678.362 160.715 677.241 161.836H677.248Z" fill="#6D2929"/>
<path d="M679.674 158.003L639.918 118.247C641.045 117.839 642.234 117.641 643.417 117.641C646.073 117.641 648.724 118.65 650.749 120.675L677.24 147.166C680.169 150.095 680.986 154.343 679.667 158.003H679.674Z" fill="#844242"/>
<path d="M667.506 192.154L664.113 195.548C663.382 196.278 662.552 196.854 661.667 197.263C658.459 198.774 654.508 198.204 651.852 195.548L602.374 146.07C599.717 143.413 599.148 139.463 600.659 136.255C601.073 135.369 601.643 134.546 602.374 133.809L605.767 130.416L667.506 192.154Z" fill="#4D5961"/>
<path d="M667.498 192.154L664.105 195.548C663.374 196.278 662.544 196.854 661.659 197.263L600.645 136.249C601.059 135.363 601.629 134.54 602.36 133.803L605.753 130.409L667.492 192.148L667.498 192.154Z" fill="#454545"/>
<path d="M679.958 199.405C677.487 201.455 675.01 201.455 672.539 199.405L598.514 125.381C595.883 122.749 596.626 120.111 598.644 117.851C601.245 114.959 605.964 112.698 608.441 111.918C617.117 109.163 626.845 111.528 633.279 117.962L679.958 164.641C681.914 166.598 683.475 168.808 684.633 171.161C689.153 180.345 687.599 191.77 679.958 199.411V199.405Z" fill="#D88521"/>
<path d="M677.444 189.225C674.973 191.274 672.496 191.274 670.025 189.225L598.645 117.844C601.245 114.952 605.964 112.692 608.441 111.912C617.117 109.156 626.845 111.522 633.279 117.956L679.958 164.634C681.914 166.591 683.475 168.802 684.633 171.155C684.813 177.676 682.416 184.246 677.444 189.225Z" fill="#FEA832"/>
<path d="M590.637 395.631L529.92 320.461C528.069 318.157 524.719 317.761 522.384 319.575L488.827 346.599C486.555 348.469 486.189 351.813 488.01 354.123L548.752 429.436C551.167 432.451 555.018 433.938 558.833 433.324L559.557 433.213C563.582 432.334 566.759 429.256 567.775 425.262L570.611 413.645L582.68 413.23C586.866 413.149 590.644 410.691 592.408 406.889C593.987 403.099 593.306 398.746 590.637 395.625V395.631Z" fill="url(#paint5_radial_528_1099)"/>
<path d="M534.048 342.97C533.472 341.62 532.37 340.568 531.001 340.047L490.688 324.56C487.914 323.594 484.867 324.981 483.784 327.718L449.05 417.887C447.471 421.676 448.152 426.03 450.821 429.151C453.608 432.185 457.856 433.405 461.825 432.303L473.281 428.946L479.697 439.183C481.889 442.669 485.858 444.619 489.958 444.229L490.967 444.068C494.794 443.449 497.995 440.83 499.358 437.201L534.079 346.958C534.581 345.676 534.568 344.246 534.042 342.97H534.048Z" fill="url(#paint6_radial_528_1099)"/>
<path d="M567.001 325.285L559.564 319.866C557.997 318.715 556.957 316.993 556.666 315.067L555.533 307.847C553.96 297.827 544.578 290.966 534.553 292.502L527.332 293.635C525.413 293.951 523.45 293.487 521.877 292.347L514.359 286.873C506.086 281.145 494.772 282.922 488.654 290.91L483.298 298.261C482.146 299.828 480.424 300.868 478.499 301.159L471.278 302.292C461.203 303.673 454.15 312.962 455.531 323.037C455.543 323.136 455.556 323.235 455.574 323.328L456.707 330.548C457.11 332.518 456.683 334.567 455.525 336.208L450.106 343.645C447.252 347.565 446.075 352.464 446.843 357.25C447.592 362.062 450.218 366.384 454.131 369.276L461.556 374.62C463.141 375.784 464.194 377.543 464.467 379.487L465.6 386.708C467.098 396.771 476.468 403.706 486.53 402.207L493.751 401.074C495.683 400.777 497.652 401.266 499.219 402.437L506.569 407.793C514.805 413.682 526.236 411.88 532.274 403.756L537.63 396.405C538.764 394.814 540.485 393.742 542.417 393.433L549.638 392.3C559.626 390.69 566.444 381.327 564.914 371.332L563.781 364.112C563.447 362.173 563.905 360.179 565.057 358.582L570.481 351.219C576.686 343.107 575.132 331.502 567.02 325.297C567.014 325.297 567.001 325.285 566.995 325.279L567.001 325.285Z" fill="url(#paint7_linear_528_1099)"/>
<path d="M508.424 364.904C506.969 365.12 505.483 364.767 504.275 363.925L490.398 353.751C487.952 351.968 487.413 348.543 489.197 346.097C491.023 343.676 494.442 343.137 496.925 344.883L506.374 351.831L523.404 328.368C525.23 325.947 528.649 325.408 531.132 327.154C533.578 328.938 534.117 332.362 532.333 334.808L512.01 362.712C511.143 363.876 509.861 364.662 508.43 364.904H508.424Z" fill="#E8F1F2"/>
<defs>
<filter id="filter0_d_528_1099" x="44" y="-277" width="1050" height="1050" filterUnits="userSpaceOnUse" color-interpolation-filters="sRGB">
<feFlood flood-opacity="0" result="BackgroundImageFix"/>
<feColorMatrix in="SourceAlpha" type="matrix" values="0 0 0 0 0 0 0 0 0 0 0 0 0 0 0 0 0 0 127 0" result="hardAlpha"/>
<feOffset/>
<feGaussianBlur stdDeviation="52"/>
<feComposite in2="hardAlpha" operator="out"/>
<feColorMatrix type="matrix" values="0 0 0 0 0.155556 0 0 0 0 0.583333 0 0 0 0 0.36429 0 0 0 1 0"/>
<feBlend mode="normal" in2="BackgroundImageFix" result="effect1_dropShadow_528_1099"/>
<feBlend mode="normal" in="SourceGraphic" in2="effect1_dropShadow_528_1099" result="shape"/>
</filter>
<filter id="filter1_d_528_1099" x="-936.188" y="-552.974" width="2938.39" height="1609.95" filterUnits="userSpaceOnUse" color-interpolation-filters="sRGB">
<feFlood flood-opacity="0" result="BackgroundImageFix"/>
<feColorMatrix in="SourceAlpha" type="matrix" values="0 0 0 0 0 0 0 0 0 0 0 0 0 0 0 0 0 0 127 0" result="hardAlpha"/>
<feOffset dy="4"/>
<feGaussianBlur stdDeviation="132"/>
<feComposite in2="hardAlpha" operator="out"/>
<feColorMatrix type="matrix" values="0 0 0 0 0 0 0 0 0 0 0 0 0 0 0 0 0 0 0.25 0"/>
<feBlend mode="normal" in2="BackgroundImageFix" result="effect1_dropShadow_528_1099"/>
<feBlend mode="normal" in="SourceGraphic" in2="effect1_dropShadow_528_1099" result="shape"/>
</filter>
<filter id="filter2_d_528_1099" x="226" y="-95" width="686" height="686" filterUnits="userSpaceOnUse" color-interpolation-filters="sRGB">
<feFlood flood-opacity="0" result="BackgroundImageFix"/>
<feColorMatrix in="SourceAlpha" type="matrix" values="0 0 0 0 0 0 0 0 0 0 0 0 0 0 0 0 0 0 127 0" result="hardAlpha"/>
<feOffset/>
<feGaussianBlur stdDeviation="52"/>
<feComposite in2="hardAlpha" operator="out"/>
<feColorMatrix type="matrix" values="0 0 0 0 0.155556 0 0 0 0 0.583333 0 0 0 0 0.36429 0 0 0 1 0"/>
<feBlend mode="normal" in2="BackgroundImageFix" result="effect1_dropShadow_528_1099"/>
<feBlend mode="normal" in="SourceGraphic" in2="effect1_dropShadow_528_1099" result="shape"/>
</filter>
<linearGradient id="paint0_linear_528_1099" x1="837.845" y1="230.174" x2="701.344" y2="770.135" gradientUnits="userSpaceOnUse">
<stop stop-color="#00A651"/>
<stop offset="1" stop-color="#3DBB95"/>
</linearGradient>
<linearGradient id="paint1_linear_528_1099" x1="837.845" y1="230.174" x2="701.344" y2="770.135" gradientUnits="userSpaceOnUse">
<stop stop-color="#00A651"/>
<stop offset="1" stop-color="#3DBB95"/>
</linearGradient>
<linearGradient id="paint2_linear_528_1099" x1="1155.44" y1="209.115" x2="857.686" y2="1386.96" gradientUnits="userSpaceOnUse">
<stop stop-color="#00A651"/>
<stop offset="1" stop-color="#3DBB95"/>
</linearGradient>
<linearGradient id="paint3_linear_528_1099" x1="837.845" y1="230.174" x2="701.344" y2="770.135" gradientUnits="userSpaceOnUse">
<stop stop-color="#00A651"/>
<stop offset="1" stop-color="#3DBB95"/>
</linearGradient>
<linearGradient id="paint4_linear_528_1099" x1="901.921" y1="225.925" x2="732.886" y2="894.582" gradientUnits="userSpaceOnUse">
<stop stop-color="#00A651"/>
<stop offset="1" stop-color="#3DBB95"/>
</linearGradient>
<radialGradient id="paint5_radial_528_1099" cx="0" cy="0" r="1" gradientUnits="userSpaceOnUse" gradientTransform="translate(540.05 378.754) rotate(89.3516) scale(78.4305 72.5873)">
<stop stop-color="#2495D2"/>
<stop offset="1" stop-color="#006CA7"/>
</radialGradient>
<radialGradient id="paint6_radial_528_1099" cx="0" cy="0" r="1" gradientUnits="userSpaceOnUse" gradientTransform="translate(491.329 387.193) rotate(89.4964) scale(81.8385 58.8342)">
<stop stop-color="#2495D2"/>
<stop offset="1" stop-color="#006CA7"/>
</radialGradient>
<linearGradient id="paint7_linear_528_1099" x1="483.686" y1="348.283" x2="546.955" y2="235.993" gradientUnits="userSpaceOnUse">
<stop stop-color="#00639E"/>
<stop offset="1" stop-color="#00B9F2"/>
</linearGradient>
</defs>
</svg>
