<svg width="1105" height="511" viewBox="0 0 1105 511" fill="none" xmlns="http://www.w3.org/2000/svg">
<rect width="1105" height="496" rx="32" fill="url(#paint0_linear_556_519)"/>
<mask id="mask0_556_519" style="mask-type:alpha" maskUnits="userSpaceOnUse" x="0" y="0" width="1105" height="496">
<rect width="1105" height="496" rx="32" fill="#006CA7"/>
</mask>
<g mask="url(#mask0_556_519)">
<g filter="url(#filter0_f_556_519)">
<circle cx="819" cy="313" r="580" fill="#00B9F2"/>
</g>
<g filter="url(#filter1_f_556_519)">
<circle cx="846" cy="283" r="258" fill="#00B9F2"/>
</g>
<g filter="url(#filter2_f_556_519)">
<circle cx="152" cy="232" r="396" fill="#2EB24D"/>
</g>
<g filter="url(#filter3_f_556_519)">
<circle cx="234" cy="236" r="299" fill="#34C255"/>
</g>
</g>
<g opacity="0.6" filter="url(#filter4_dd_556_519)">
<circle cx="845" cy="256" r="163" fill="white"/>
<circle cx="845" cy="256" r="160" stroke="white" stroke-width="6"/>
</g>
<g opacity="0.6" filter="url(#filter5_dd_556_519)">
<circle cx="246" cy="256" r="163" fill="white"/>
</g>
<path d="M787.891 233.422H779.406V227.07H787.891C789.047 227.07 789.984 226.875 790.703 226.484C791.422 226.094 791.945 225.555 792.273 224.867C792.617 224.164 792.789 223.375 792.789 222.5C792.789 221.562 792.617 220.695 792.273 219.898C791.945 219.102 791.422 218.461 790.703 217.977C789.984 217.477 789.047 217.227 787.891 217.227H782.5V245H774.273V210.875H787.891C790.625 210.875 792.977 211.375 794.945 212.375C796.93 213.375 798.453 214.75 799.516 216.5C800.578 218.234 801.109 220.219 801.109 222.453C801.109 224.656 800.578 226.578 799.516 228.219C798.453 229.859 796.93 231.141 794.945 232.062C792.977 232.969 790.625 233.422 787.891 233.422ZM815.828 218.047L807.508 245H798.672L811.211 210.875H816.812L815.828 218.047ZM822.719 245L814.375 218.047L813.297 210.875H818.969L831.578 245H822.719ZM822.391 232.273V238.625H804.883V232.273H822.391ZM834.086 210.875H847.516C850.141 210.875 852.422 211.266 854.359 212.047C856.297 212.828 857.789 213.984 858.836 215.516C859.898 217.047 860.43 218.938 860.43 221.188C860.43 223.141 860.125 224.773 859.516 226.086C858.906 227.398 858.055 228.484 856.961 229.344C855.883 230.188 854.625 230.883 853.188 231.43L850.492 232.953H839.219L839.172 226.602H847.516C848.562 226.602 849.43 226.414 850.117 226.039C850.805 225.664 851.32 225.133 851.664 224.445C852.023 223.742 852.203 222.906 852.203 221.938C852.203 220.953 852.023 220.109 851.664 219.406C851.305 218.703 850.773 218.164 850.07 217.789C849.383 217.414 848.531 217.227 847.516 217.227H842.312V245H834.086V210.875ZM852.766 245L845.219 229.906L853.938 229.859L861.578 244.648V245H852.766ZM874.141 210.875V245H865.938V210.875H874.141ZM897.508 235.93C897.508 235.398 897.43 234.922 897.273 234.5C897.117 234.062 896.828 233.656 896.406 233.281C895.984 232.906 895.375 232.531 894.578 232.156C893.797 231.766 892.766 231.359 891.484 230.938C889.984 230.438 888.539 229.875 887.148 229.25C885.758 228.609 884.516 227.867 883.422 227.023C882.328 226.164 881.461 225.164 880.82 224.023C880.18 222.867 879.859 221.523 879.859 219.992C879.859 218.523 880.188 217.203 880.844 216.031C881.5 214.844 882.414 213.836 883.586 213.008C884.773 212.164 886.164 211.523 887.758 211.086C889.352 210.633 891.094 210.406 892.984 210.406C895.484 210.406 897.688 210.844 899.594 211.719C901.516 212.578 903.016 213.805 904.094 215.398C905.188 216.977 905.734 218.844 905.734 221H897.555C897.555 220.141 897.375 219.383 897.016 218.727C896.672 218.07 896.148 217.555 895.445 217.18C894.742 216.805 893.859 216.617 892.797 216.617C891.766 216.617 890.898 216.773 890.195 217.086C889.492 217.398 888.961 217.82 888.602 218.352C888.242 218.867 888.062 219.438 888.062 220.062C888.062 220.578 888.203 221.047 888.484 221.469C888.781 221.875 889.195 222.258 889.727 222.617C890.273 222.977 890.93 223.32 891.695 223.648C892.477 223.977 893.352 224.297 894.32 224.609C896.133 225.188 897.742 225.836 899.148 226.555C900.57 227.258 901.766 228.062 902.734 228.969C903.719 229.859 904.461 230.875 904.961 232.016C905.477 233.156 905.734 234.445 905.734 235.883C905.734 237.414 905.438 238.773 904.844 239.961C904.25 241.148 903.398 242.156 902.289 242.984C901.18 243.797 899.852 244.414 898.305 244.836C896.758 245.258 895.031 245.469 893.125 245.469C891.375 245.469 889.648 245.25 887.945 244.812C886.258 244.359 884.727 243.672 883.352 242.75C881.977 241.812 880.875 240.617 880.047 239.164C879.234 237.695 878.828 235.953 878.828 233.938H887.078C887.078 234.938 887.211 235.781 887.477 236.469C887.742 237.156 888.133 237.711 888.648 238.133C889.164 238.539 889.797 238.836 890.547 239.023C891.297 239.195 892.156 239.281 893.125 239.281C894.172 239.281 895.016 239.133 895.656 238.836C896.297 238.523 896.766 238.117 897.062 237.617C897.359 237.102 897.508 236.539 897.508 235.93ZM721.469 272.047L713.148 299H704.312L716.852 264.875H722.453L721.469 272.047ZM728.359 299L720.016 272.047L718.938 264.875H724.609L737.219 299H728.359ZM728.031 286.273V292.625H710.523V286.273H728.031ZM767.125 280.766V294.781C766.547 295.422 765.656 296.109 764.453 296.844C763.266 297.562 761.766 298.18 759.953 298.695C758.141 299.211 756.008 299.469 753.555 299.469C751.289 299.469 749.234 299.109 747.391 298.391C745.547 297.656 743.961 296.586 742.633 295.18C741.32 293.758 740.305 292.023 739.586 289.977C738.883 287.914 738.531 285.555 738.531 282.898V281C738.531 278.344 738.891 275.984 739.609 273.922C740.328 271.859 741.336 270.125 742.633 268.719C743.945 267.297 745.484 266.219 747.25 265.484C749.031 264.75 750.984 264.383 753.109 264.383C756.25 264.383 758.805 264.883 760.773 265.883C762.742 266.867 764.234 268.234 765.25 269.984C766.266 271.719 766.883 273.727 767.102 276.008H759.203C759.047 274.883 758.75 273.93 758.312 273.148C757.891 272.352 757.281 271.75 756.484 271.344C755.688 270.922 754.656 270.711 753.391 270.711C752.406 270.711 751.508 270.922 750.695 271.344C749.898 271.766 749.219 272.406 748.656 273.266C748.094 274.109 747.656 275.172 747.344 276.453C747.047 277.734 746.898 279.234 746.898 280.953V282.898C746.898 284.602 747.039 286.094 747.32 287.375C747.617 288.656 748.055 289.727 748.633 290.586C749.227 291.43 749.977 292.07 750.883 292.508C751.805 292.93 752.891 293.141 754.141 293.141C755.016 293.141 755.766 293.07 756.391 292.93C757.016 292.773 757.531 292.586 757.938 292.367C758.359 292.133 758.68 291.914 758.898 291.711V286.414H753.18V280.766H767.125ZM771.93 264.875H785.359C787.984 264.875 790.266 265.266 792.203 266.047C794.141 266.828 795.633 267.984 796.68 269.516C797.742 271.047 798.273 272.938 798.273 275.188C798.273 277.141 797.969 278.773 797.359 280.086C796.75 281.398 795.898 282.484 794.805 283.344C793.727 284.188 792.469 284.883 791.031 285.43L788.336 286.953H777.062L777.016 280.602H785.359C786.406 280.602 787.273 280.414 787.961 280.039C788.648 279.664 789.164 279.133 789.508 278.445C789.867 277.742 790.047 276.906 790.047 275.938C790.047 274.953 789.867 274.109 789.508 273.406C789.148 272.703 788.617 272.164 787.914 271.789C787.227 271.414 786.375 271.227 785.359 271.227H780.156V299H771.93V264.875ZM790.609 299L783.062 283.906L791.781 283.859L799.422 298.648V299H790.609ZM826.727 292.672V299H808.539V292.672H826.727ZM811.469 264.875V299H803.242V264.875H811.469ZM824.383 278.422V284.539H808.539V278.422H824.383ZM826.797 264.875V271.227H808.539V264.875H826.797ZM853.586 292.672V299H835.398V292.672H853.586ZM838.328 264.875V299H830.102V264.875H838.328ZM851.242 278.422V284.539H835.398V278.422H851.242ZM853.656 264.875V271.227H835.398V264.875H853.656ZM861.039 264.875H867.742L875.359 288.617L882.977 264.875H889.68L878.078 299H872.641L861.039 264.875ZM856.961 264.875H863.898L865.188 291.031V299H856.961V264.875ZM886.82 264.875H893.781V299H885.531V291.031L886.82 264.875ZM922.539 292.672V299H904.352V292.672H922.539ZM907.281 264.875V299H899.055V264.875H907.281ZM920.195 278.422V284.539H904.352V278.422H920.195ZM922.609 264.875V271.227H904.352V264.875H922.609ZM954.414 264.875V299H946.211L934.141 277.766V299H925.914V264.875H934.141L946.211 286.109V264.875H954.414ZM975.438 264.875V299H967.211V264.875H975.438ZM985.703 264.875V271.227H957.18V264.875H985.703Z" fill="url(#paint1_linear_556_519)"/>
<path d="M180.312 210.875V245H172.086V210.875H180.312ZM200.68 210.875L187.461 228.172L179.727 236.633L178.227 229.086L183.172 221.586L190.531 210.875H200.68ZM190.953 245L182.141 229.625L188.539 224.914L200.68 245H190.953ZM208.977 210.875L215.258 225.688L221.562 210.875H230.422L219.453 232.742V245H211.086V232.742L200.094 210.875H208.977ZM261.102 227.258V228.641C261.102 231.25 260.734 233.594 260 235.672C259.281 237.734 258.258 239.5 256.93 240.969C255.602 242.422 254.031 243.539 252.219 244.32C250.406 245.086 248.406 245.469 246.219 245.469C244.016 245.469 242 245.086 240.172 244.32C238.359 243.539 236.781 242.422 235.438 240.969C234.109 239.5 233.078 237.734 232.344 235.672C231.625 233.594 231.266 231.25 231.266 228.641V227.258C231.266 224.648 231.625 222.305 232.344 220.227C233.078 218.148 234.102 216.383 235.414 214.93C236.742 213.461 238.312 212.344 240.125 211.578C241.953 210.797 243.969 210.406 246.172 210.406C248.359 210.406 250.359 210.797 252.172 211.578C254 212.344 255.578 213.461 256.906 214.93C258.234 216.383 259.266 218.148 260 220.227C260.734 222.305 261.102 224.648 261.102 227.258ZM252.758 228.641V227.211C252.758 225.523 252.609 224.039 252.312 222.758C252.031 221.461 251.609 220.375 251.047 219.5C250.484 218.625 249.789 217.969 248.961 217.531C248.148 217.078 247.219 216.852 246.172 216.852C245.078 216.852 244.125 217.078 243.312 217.531C242.5 217.969 241.82 218.625 241.273 219.5C240.727 220.375 240.312 221.461 240.031 222.758C239.766 224.039 239.633 225.523 239.633 227.211V228.641C239.633 230.312 239.766 231.797 240.031 233.094C240.312 234.375 240.727 235.461 241.273 236.352C241.836 237.242 242.523 237.914 243.336 238.367C244.164 238.82 245.125 239.047 246.219 239.047C247.266 239.047 248.195 238.82 249.008 238.367C249.82 237.914 250.5 237.242 251.047 236.352C251.609 235.461 252.031 234.375 252.312 233.094C252.609 231.797 252.758 230.312 252.758 228.641ZM279.875 210.875V245H271.648V210.875H279.875ZM290.141 210.875V217.227H261.617V210.875H290.141ZM321.852 227.258V228.641C321.852 231.25 321.484 233.594 320.75 235.672C320.031 237.734 319.008 239.5 317.68 240.969C316.352 242.422 314.781 243.539 312.969 244.32C311.156 245.086 309.156 245.469 306.969 245.469C304.766 245.469 302.75 245.086 300.922 244.32C299.109 243.539 297.531 242.422 296.188 240.969C294.859 239.5 293.828 237.734 293.094 235.672C292.375 233.594 292.016 231.25 292.016 228.641V227.258C292.016 224.648 292.375 222.305 293.094 220.227C293.828 218.148 294.852 216.383 296.164 214.93C297.492 213.461 299.062 212.344 300.875 211.578C302.703 210.797 304.719 210.406 306.922 210.406C309.109 210.406 311.109 210.797 312.922 211.578C314.75 212.344 316.328 213.461 317.656 214.93C318.984 216.383 320.016 218.148 320.75 220.227C321.484 222.305 321.852 224.648 321.852 227.258ZM313.508 228.641V227.211C313.508 225.523 313.359 224.039 313.062 222.758C312.781 221.461 312.359 220.375 311.797 219.5C311.234 218.625 310.539 217.969 309.711 217.531C308.898 217.078 307.969 216.852 306.922 216.852C305.828 216.852 304.875 217.078 304.062 217.531C303.25 217.969 302.57 218.625 302.023 219.5C301.477 220.375 301.062 221.461 300.781 222.758C300.516 224.039 300.383 225.523 300.383 227.211V228.641C300.383 230.312 300.516 231.797 300.781 233.094C301.062 234.375 301.477 235.461 302.023 236.352C302.586 237.242 303.273 237.914 304.086 238.367C304.914 238.82 305.875 239.047 306.969 239.047C308.016 239.047 308.945 238.82 309.758 238.367C310.57 237.914 311.25 237.242 311.797 236.352C312.359 235.461 312.781 234.375 313.062 233.094C313.359 231.797 313.508 230.312 313.508 228.641ZM139.156 287.422H130.672V281.07H139.156C140.312 281.07 141.25 280.875 141.969 280.484C142.688 280.094 143.211 279.555 143.539 278.867C143.883 278.164 144.055 277.375 144.055 276.5C144.055 275.562 143.883 274.695 143.539 273.898C143.211 273.102 142.688 272.461 141.969 271.977C141.25 271.477 140.312 271.227 139.156 271.227H133.766V299H125.539V264.875H139.156C141.891 264.875 144.242 265.375 146.211 266.375C148.195 267.375 149.719 268.75 150.781 270.5C151.844 272.234 152.375 274.219 152.375 276.453C152.375 278.656 151.844 280.578 150.781 282.219C149.719 283.859 148.195 285.141 146.211 286.062C144.242 286.969 141.891 287.422 139.156 287.422ZM156.805 264.875H170.234C172.859 264.875 175.141 265.266 177.078 266.047C179.016 266.828 180.508 267.984 181.555 269.516C182.617 271.047 183.148 272.938 183.148 275.188C183.148 277.141 182.844 278.773 182.234 280.086C181.625 281.398 180.773 282.484 179.68 283.344C178.602 284.188 177.344 284.883 175.906 285.43L173.211 286.953H161.938L161.891 280.602H170.234C171.281 280.602 172.148 280.414 172.836 280.039C173.523 279.664 174.039 279.133 174.383 278.445C174.742 277.742 174.922 276.906 174.922 275.938C174.922 274.953 174.742 274.109 174.383 273.406C174.023 272.703 173.492 272.164 172.789 271.789C172.102 271.414 171.25 271.227 170.234 271.227H165.031V299H156.805V264.875ZM175.484 299L167.938 283.906L176.656 283.859L184.297 298.648V299H175.484ZM216.992 281.258V282.641C216.992 285.25 216.625 287.594 215.891 289.672C215.172 291.734 214.148 293.5 212.82 294.969C211.492 296.422 209.922 297.539 208.109 298.32C206.297 299.086 204.297 299.469 202.109 299.469C199.906 299.469 197.891 299.086 196.062 298.32C194.25 297.539 192.672 296.422 191.328 294.969C190 293.5 188.969 291.734 188.234 289.672C187.516 287.594 187.156 285.25 187.156 282.641V281.258C187.156 278.648 187.516 276.305 188.234 274.227C188.969 272.148 189.992 270.383 191.305 268.93C192.633 267.461 194.203 266.344 196.016 265.578C197.844 264.797 199.859 264.406 202.062 264.406C204.25 264.406 206.25 264.797 208.062 265.578C209.891 266.344 211.469 267.461 212.797 268.93C214.125 270.383 215.156 272.148 215.891 274.227C216.625 276.305 216.992 278.648 216.992 281.258ZM208.648 282.641V281.211C208.648 279.523 208.5 278.039 208.203 276.758C207.922 275.461 207.5 274.375 206.938 273.5C206.375 272.625 205.68 271.969 204.852 271.531C204.039 271.078 203.109 270.852 202.062 270.852C200.969 270.852 200.016 271.078 199.203 271.531C198.391 271.969 197.711 272.625 197.164 273.5C196.617 274.375 196.203 275.461 195.922 276.758C195.656 278.039 195.523 279.523 195.523 281.211V282.641C195.523 284.312 195.656 285.797 195.922 287.094C196.203 288.375 196.617 289.461 197.164 290.352C197.727 291.242 198.414 291.914 199.227 292.367C200.055 292.82 201.016 293.047 202.109 293.047C203.156 293.047 204.086 292.82 204.898 292.367C205.711 291.914 206.391 291.242 206.938 290.352C207.5 289.461 207.922 288.375 208.203 287.094C208.5 285.797 208.648 284.312 208.648 282.641ZM235.766 264.875V299H227.539V264.875H235.766ZM246.031 264.875V271.227H217.508V264.875H246.031ZM277.742 281.258V282.641C277.742 285.25 277.375 287.594 276.641 289.672C275.922 291.734 274.898 293.5 273.57 294.969C272.242 296.422 270.672 297.539 268.859 298.32C267.047 299.086 265.047 299.469 262.859 299.469C260.656 299.469 258.641 299.086 256.812 298.32C255 297.539 253.422 296.422 252.078 294.969C250.75 293.5 249.719 291.734 248.984 289.672C248.266 287.594 247.906 285.25 247.906 282.641V281.258C247.906 278.648 248.266 276.305 248.984 274.227C249.719 272.148 250.742 270.383 252.055 268.93C253.383 267.461 254.953 266.344 256.766 265.578C258.594 264.797 260.609 264.406 262.812 264.406C265 264.406 267 264.797 268.812 265.578C270.641 266.344 272.219 267.461 273.547 268.93C274.875 270.383 275.906 272.148 276.641 274.227C277.375 276.305 277.742 278.648 277.742 281.258ZM269.398 282.641V281.211C269.398 279.523 269.25 278.039 268.953 276.758C268.672 275.461 268.25 274.375 267.688 273.5C267.125 272.625 266.43 271.969 265.602 271.531C264.789 271.078 263.859 270.852 262.812 270.852C261.719 270.852 260.766 271.078 259.953 271.531C259.141 271.969 258.461 272.625 257.914 273.5C257.367 274.375 256.953 275.461 256.672 276.758C256.406 278.039 256.273 279.523 256.273 281.211V282.641C256.273 284.312 256.406 285.797 256.672 287.094C256.953 288.375 257.367 289.461 257.914 290.352C258.477 291.242 259.164 291.914 259.977 292.367C260.805 292.82 261.766 293.047 262.859 293.047C263.906 293.047 264.836 292.82 265.648 292.367C266.461 291.914 267.141 291.242 267.688 290.352C268.25 289.461 268.672 288.375 268.953 287.094C269.25 285.797 269.398 284.312 269.398 282.641ZM301.414 287.445H309.617C309.508 289.82 308.867 291.914 307.695 293.727C306.523 295.539 304.898 296.953 302.82 297.969C300.758 298.969 298.32 299.469 295.508 299.469C293.227 299.469 291.188 299.086 289.391 298.32C287.609 297.555 286.094 296.453 284.844 295.016C283.609 293.578 282.664 291.836 282.008 289.789C281.367 287.742 281.047 285.438 281.047 282.875V281.023C281.047 278.461 281.383 276.156 282.055 274.109C282.742 272.047 283.711 270.297 284.961 268.859C286.227 267.406 287.742 266.297 289.508 265.531C291.273 264.766 293.234 264.383 295.391 264.383C298.359 264.383 300.867 264.914 302.914 265.977C304.961 267.039 306.547 268.5 307.672 270.359C308.797 272.203 309.461 274.305 309.664 276.664H301.461C301.43 275.383 301.211 274.312 300.805 273.453C300.398 272.578 299.758 271.922 298.883 271.484C298.008 271.047 296.844 270.828 295.391 270.828C294.375 270.828 293.492 271.016 292.742 271.391C291.992 271.766 291.367 272.359 290.867 273.172C290.367 273.984 289.992 275.039 289.742 276.336C289.508 277.617 289.391 279.164 289.391 280.977V282.875C289.391 284.688 289.5 286.234 289.719 287.516C289.938 288.797 290.289 289.844 290.773 290.656C291.258 291.469 291.883 292.07 292.648 292.461C293.43 292.836 294.383 293.023 295.508 293.023C296.758 293.023 297.812 292.828 298.672 292.438C299.531 292.031 300.195 291.422 300.664 290.609C301.133 289.781 301.383 288.727 301.414 287.445ZM342.383 281.258V282.641C342.383 285.25 342.016 287.594 341.281 289.672C340.562 291.734 339.539 293.5 338.211 294.969C336.883 296.422 335.312 297.539 333.5 298.32C331.688 299.086 329.688 299.469 327.5 299.469C325.297 299.469 323.281 299.086 321.453 298.32C319.641 297.539 318.062 296.422 316.719 294.969C315.391 293.5 314.359 291.734 313.625 289.672C312.906 287.594 312.547 285.25 312.547 282.641V281.258C312.547 278.648 312.906 276.305 313.625 274.227C314.359 272.148 315.383 270.383 316.695 268.93C318.023 267.461 319.594 266.344 321.406 265.578C323.234 264.797 325.25 264.406 327.453 264.406C329.641 264.406 331.641 264.797 333.453 265.578C335.281 266.344 336.859 267.461 338.188 268.93C339.516 270.383 340.547 272.148 341.281 274.227C342.016 276.305 342.383 278.648 342.383 281.258ZM334.039 282.641V281.211C334.039 279.523 333.891 278.039 333.594 276.758C333.312 275.461 332.891 274.375 332.328 273.5C331.766 272.625 331.07 271.969 330.242 271.531C329.43 271.078 328.5 270.852 327.453 270.852C326.359 270.852 325.406 271.078 324.594 271.531C323.781 271.969 323.102 272.625 322.555 273.5C322.008 274.375 321.594 275.461 321.312 276.758C321.047 278.039 320.914 279.523 320.914 281.211V282.641C320.914 284.312 321.047 285.797 321.312 287.094C321.594 288.375 322.008 289.461 322.555 290.352C323.117 291.242 323.805 291.914 324.617 292.367C325.445 292.82 326.406 293.047 327.5 293.047C328.547 293.047 329.477 292.82 330.289 292.367C331.102 291.914 331.781 291.242 332.328 290.352C332.891 289.461 333.312 288.375 333.594 287.094C333.891 285.797 334.039 284.312 334.039 282.641ZM369.195 292.672V299H351.945V292.672H369.195ZM354.875 264.875V299H346.648V264.875H354.875Z" fill="url(#paint2_linear_556_519)"/>
<path d="M534.344 236L570.844 276" stroke="white" stroke-width="3"/>
<path d="M572.191 237.317L532.999 274.683" stroke="white" stroke-width="3"/>
<defs>
<filter id="filter0_f_556_519" x="-175" y="-681" width="1988" height="1988" filterUnits="userSpaceOnUse" color-interpolation-filters="sRGB">
<feFlood flood-opacity="0" result="BackgroundImageFix"/>
<feBlend mode="normal" in="SourceGraphic" in2="BackgroundImageFix" result="shape"/>
<feGaussianBlur stdDeviation="207" result="effect1_foregroundBlur_556_519"/>
</filter>
<filter id="filter1_f_556_519" x="494" y="-69" width="704" height="704" filterUnits="userSpaceOnUse" color-interpolation-filters="sRGB">
<feFlood flood-opacity="0" result="BackgroundImageFix"/>
<feBlend mode="normal" in="SourceGraphic" in2="BackgroundImageFix" result="shape"/>
<feGaussianBlur stdDeviation="47" result="effect1_foregroundBlur_556_519"/>
</filter>
<filter id="filter2_f_556_519" x="-718" y="-638" width="1740" height="1740" filterUnits="userSpaceOnUse" color-interpolation-filters="sRGB">
<feFlood flood-opacity="0" result="BackgroundImageFix"/>
<feBlend mode="normal" in="SourceGraphic" in2="BackgroundImageFix" result="shape"/>
<feGaussianBlur stdDeviation="237" result="effect1_foregroundBlur_556_519"/>
</filter>
<filter id="filter3_f_556_519" x="-219" y="-217" width="906" height="906" filterUnits="userSpaceOnUse" color-interpolation-filters="sRGB">
<feFlood flood-opacity="0" result="BackgroundImageFix"/>
<feBlend mode="normal" in="SourceGraphic" in2="BackgroundImageFix" result="shape"/>
<feGaussianBlur stdDeviation="77" result="effect1_foregroundBlur_556_519"/>
</filter>
<filter id="filter4_dd_556_519" x="622" y="65" width="446" height="446" filterUnits="userSpaceOnUse" color-interpolation-filters="sRGB">
<feFlood flood-opacity="0" result="BackgroundImageFix"/>
<feColorMatrix in="SourceAlpha" type="matrix" values="0 0 0 0 0 0 0 0 0 0 0 0 0 0 0 0 0 0 127 0" result="hardAlpha"/>
<feMorphology radius="2" operator="erode" in="SourceAlpha" result="effect1_dropShadow_556_519"/>
<feOffset dy="12"/>
<feGaussianBlur stdDeviation="12"/>
<feComposite in2="hardAlpha" operator="out"/>
<feColorMatrix type="matrix" values="0 0 0 0 0 0 0 0 0 0 0 0 0 0 0 0 0 0 0.06 0"/>
<feBlend mode="normal" in2="BackgroundImageFix" result="effect1_dropShadow_556_519"/>
<feColorMatrix in="SourceAlpha" type="matrix" values="0 0 0 0 0 0 0 0 0 0 0 0 0 0 0 0 0 0 127 0" result="hardAlpha"/>
<feMorphology radius="4" operator="erode" in="SourceAlpha" result="effect2_dropShadow_556_519"/>
<feOffset dy="32"/>
<feGaussianBlur stdDeviation="32"/>
<feComposite in2="hardAlpha" operator="out"/>
<feColorMatrix type="matrix" values="0 0 0 0 0 0 0 0 0 0 0 0 0 0 0 0 0 0 0.42 0"/>
<feBlend mode="normal" in2="effect1_dropShadow_556_519" result="effect2_dropShadow_556_519"/>
<feBlend mode="normal" in="SourceGraphic" in2="effect2_dropShadow_556_519" result="shape"/>
</filter>
<filter id="filter5_dd_556_519" x="23" y="65" width="446" height="446" filterUnits="userSpaceOnUse" color-interpolation-filters="sRGB">
<feFlood flood-opacity="0" result="BackgroundImageFix"/>
<feColorMatrix in="SourceAlpha" type="matrix" values="0 0 0 0 0 0 0 0 0 0 0 0 0 0 0 0 0 0 127 0" result="hardAlpha"/>
<feMorphology radius="2" operator="erode" in="SourceAlpha" result="effect1_dropShadow_556_519"/>
<feOffset dy="12"/>
<feGaussianBlur stdDeviation="12"/>
<feComposite in2="hardAlpha" operator="out"/>
<feColorMatrix type="matrix" values="0 0 0 0 0 0 0 0 0 0 0 0 0 0 0 0 0 0 0.06 0"/>
<feBlend mode="normal" in2="BackgroundImageFix" result="effect1_dropShadow_556_519"/>
<feColorMatrix in="SourceAlpha" type="matrix" values="0 0 0 0 0 0 0 0 0 0 0 0 0 0 0 0 0 0 127 0" result="hardAlpha"/>
<feMorphology radius="4" operator="erode" in="SourceAlpha" result="effect2_dropShadow_556_519"/>
<feOffset dy="32"/>
<feGaussianBlur stdDeviation="32"/>
<feComposite in2="hardAlpha" operator="out"/>
<feColorMatrix type="matrix" values="0 0 0 0 0 0 0 0 0 0 0 0 0 0 0 0 0 0 0.42 0"/>
<feBlend mode="normal" in2="effect1_dropShadow_556_519" result="effect2_dropShadow_556_519"/>
<feBlend mode="normal" in="SourceGraphic" in2="effect2_dropShadow_556_519" result="shape"/>
</filter>
<linearGradient id="paint0_linear_556_519" x1="837.845" y1="230.174" x2="701.344" y2="770.135" gradientUnits="userSpaceOnUse">
<stop stop-color="#00A651"/>
<stop offset="1" stop-color="#3DBB95"/>
</linearGradient>
<linearGradient id="paint1_linear_556_519" x1="767" y1="299" x2="779.954" y2="164.604" gradientUnits="userSpaceOnUse">
<stop stop-color="#00639E"/>
<stop offset="1" stop-color="#00B9F2"/>
</linearGradient>
<linearGradient id="paint2_linear_556_519" x1="182" y1="299" x2="365.5" y2="122" gradientUnits="userSpaceOnUse">
<stop stop-color="#50AA57"/>
<stop offset="0.932292" stop-color="#58BF60"/>
</linearGradient>
</defs>
</svg>
