<svg width="543" height="545" viewBox="0 0 543 545" fill="none" xmlns="http://www.w3.org/2000/svg">
<mask id="mask0_1073_1058" style="mask-type:luminance" maskUnits="userSpaceOnUse" x="-1" y="-1" width="544" height="546">
<path d="M463.282 465.182C569.266 358.763 569.266 186.229 463.282 79.8103C357.297 -26.6086 185.468 -26.6086 79.4841 79.8103C-26.5002 186.229 -26.5002 358.763 79.4841 465.182C185.468 571.601 357.297 571.601 463.282 465.182Z" fill="white"/>
</mask>
<g mask="url(#mask0_1073_1058)">
<path d="M463.282 465.182C569.266 358.763 569.266 186.229 463.282 79.8103C357.297 -26.6086 185.468 -26.6086 79.4841 79.8103C-26.5002 186.229 -26.5002 358.763 79.4841 465.182C185.468 571.601 357.297 571.601 463.282 465.182Z" fill="url(#paint0_linear_1073_1058)"/>
<path d="M-24.5841 620.24C-24.5004 547.345 -24.4251 386.893 -24.3331 313.998L7.38859 334.423H69.6939L174.197 390.405L224.47 417.333L278.14 446.076L318.246 426.306L368.518 401.529L473.022 350.017H535.327L567.049 331.222C567.132 398.294 567.216 552.932 567.3 620.004L-24.6008 620.24H-24.5841Z" fill="url(#paint1_linear_1073_1058)"/>
<path d="M-160.943 602.133C-160.826 495.538 -160.709 260.905 -160.575 154.31L-114.201 184.179H-23.1281L129.631 266.039L203.124 305.419L281.57 347.454L340.202 318.534L413.695 282.297L566.455 206.973H657.528L703.901 179.491C704.018 277.575 704.135 503.705 704.269 601.789L-160.943 602.133Z" fill="url(#paint2_linear_1073_1058)"/>
<path d="M193.326 414.669H191.526V428.003H193.326V414.669Z" fill="#006CA7"/>
<path d="M172.883 414.669H171.084V428.003H172.883V414.669Z" fill="#006CA7"/>
<path d="M190.757 427.188H194.095C194.782 427.188 195.334 427.743 195.334 428.432V428.676H189.518V428.432C189.518 427.751 190.071 427.188 190.757 427.188Z" fill="#006CA7"/>
<path d="M170.306 427.188H173.645C174.331 427.188 174.883 427.743 174.883 428.432V428.676H169.068V428.432C169.068 427.751 169.62 427.188 170.306 427.188Z" fill="#006CA7"/>
<path d="M198.873 416.4H167.478L161.478 396.286H192.874L198.873 416.4Z" fill="#4091BD"/>
<path d="M193.794 405.419H185.736L183.561 398.143H191.619L193.794 405.419Z" fill="#7FB5D3"/>
<path d="M196.514 414.544H188.456L186.288 407.268H194.346L196.514 414.544Z" fill="#7FB5D3"/>
<path d="M183.929 405.419H175.871L173.695 398.143H181.753L183.929 405.419Z" fill="#7FB5D3"/>
<path d="M186.657 414.544H178.599L176.423 407.268H184.481L186.657 414.544Z" fill="#7FB5D3"/>
<path d="M174.063 405.419H166.005L163.838 398.143H171.888L174.063 405.419Z" fill="#7FB5D3"/>
<path d="M176.791 414.544H168.733L166.557 407.268H174.616L176.791 414.544Z" fill="#7FB5D3"/>
<path d="M198.873 416.4L197.919 418.182H166.524L167.478 416.4H198.873Z" fill="#006CA7"/>
<path d="M167.478 416.4L166.524 418.182L160.524 398.076L161.478 396.286L167.478 416.4Z" fill="#006CA7"/>
<path d="M158.533 414.669H156.734V427.987H158.533V414.669Z" fill="#006CA7"/>
<path d="M138.108 414.669H136.309V427.987H138.108V414.669Z" fill="#006CA7"/>
<path d="M155.964 427.163H159.294C159.972 427.163 160.533 427.718 160.533 428.407V428.65H154.734V428.407C154.734 427.726 155.286 427.163 155.973 427.163H155.964Z" fill="#006CA7"/>
<path d="M135.547 427.163H138.877C139.555 427.163 140.116 427.718 140.116 428.407V428.65H134.317V428.407C134.317 427.726 134.869 427.163 135.547 427.163Z" fill="#006CA7"/>
<path d="M164.064 416.383H132.727L126.736 396.303H158.081L164.064 416.383Z" fill="#4091BD"/>
<path d="M158.993 405.427H150.952L148.785 398.16H156.826L158.993 405.427Z" fill="#7FB5D3"/>
<path d="M161.713 414.535H153.671L151.496 407.268H159.545L161.713 414.535Z" fill="#7FB5D3"/>
<path d="M149.145 405.427H141.103L138.936 398.16H146.977L149.145 405.427Z" fill="#7FB5D3"/>
<path d="M151.864 414.535H143.814L141.647 407.268H149.697L151.864 414.535Z" fill="#7FB5D3"/>
<path d="M139.296 405.427H131.254L129.079 398.16H137.129L139.296 405.427Z" fill="#7FB5D3"/>
<path d="M142.015 414.535H133.966L131.798 407.268H139.848L142.015 414.535Z" fill="#7FB5D3"/>
<path d="M164.064 416.383L163.11 418.173H131.765L132.719 416.383H164.056H164.064Z" fill="#006CA7"/>
<path d="M132.727 416.383L131.773 418.173L125.79 398.092L126.744 396.303L132.736 416.383H132.727Z" fill="#006CA7"/>
<path d="M123.548 414.669H121.749V427.987H123.548V414.669Z" fill="#006CA7"/>
<path d="M103.139 414.669H101.34V427.987H103.139V414.669Z" fill="#006CA7"/>
<path d="M120.987 427.163H124.318C124.995 427.163 125.556 427.718 125.556 428.407V428.65H119.757V428.407C119.757 427.726 120.31 427.163 120.987 427.163Z" fill="#006CA7"/>
<path d="M100.57 427.163H103.901C104.587 427.163 105.139 427.718 105.139 428.407V428.65H99.3403V428.407C99.3403 427.726 99.8926 427.163 100.57 427.163Z" fill="#006CA7"/>
<path d="M129.087 416.383H97.7506L91.7677 396.303H123.104L129.087 416.383Z" fill="#4091BD"/>
<path d="M124.017 405.427H115.967L113.8 398.16H121.849L124.017 405.427Z" fill="#7FB5D3"/>
<path d="M126.736 414.535H118.695L116.527 407.268H124.569L126.736 414.535Z" fill="#7FB5D3"/>
<path d="M114.168 405.427H106.118L103.951 398.16H111.992L114.168 405.427Z" fill="#7FB5D3"/>
<path d="M116.887 414.535H108.846L106.679 407.268H114.72L116.887 414.535Z" fill="#7FB5D3"/>
<path d="M104.327 405.427H96.2778L94.1106 398.16H102.152L104.327 405.427Z" fill="#7FB5D3"/>
<path d="M107.039 414.535H98.9973L96.8301 407.268H104.871L107.039 414.535Z" fill="#7FB5D3"/>
<path d="M129.087 416.383L128.142 418.173H96.7966L97.7505 416.383H129.087Z" fill="#006CA7"/>
<path d="M97.8594 416.367L96.9055 418.156L90.9226 398.076L91.8765 396.286L97.8594 416.367Z" fill="#006CA7"/>
<path d="M377.413 330.171H376.468L375.48 383.213H379.338L378.35 330.171H377.405H377.413Z" fill="#51B89F"/>
<path d="M379.472 369.584H375.346C374.819 369.584 374.384 370.173 374.384 370.895C374.384 371.618 374.819 372.206 375.346 372.206H379.472C379.999 372.206 380.434 371.618 380.434 370.895C380.434 370.173 380.007 369.584 379.472 369.584Z" fill="#51B89F"/>
<path d="M373.28 370.618C372.669 370.635 372.075 370.82 371.564 371.156L359.666 378.995C359.431 379.146 359.615 379.507 359.875 379.406L372.175 374.895C372.585 374.743 372.945 374.466 373.196 374.096C373.196 374.096 375.179 371.534 375.229 371.399L375.087 370.551L373.28 370.593V370.618Z" fill="#51B89F"/>
<path d="M380.417 371.786C380.083 371.509 379.664 371.332 379.221 371.298C379.221 371.298 376.016 370.862 375.882 370.878L375.221 371.425L376.166 372.97C376.484 373.491 376.945 373.92 377.489 374.189L390.207 380.616C390.458 380.742 390.676 380.406 390.467 380.221L380.426 371.777L380.417 371.786Z" fill="#51B89F"/>
<path d="M376.326 353.251C376.309 352.974 375.916 352.949 375.857 353.226L373.598 366.173C373.522 366.61 373.581 367.056 373.773 367.451C373.773 367.451 374.995 370.458 375.087 370.568L375.89 370.87L376.752 369.282C377.045 368.744 377.179 368.131 377.146 367.526L376.334 353.251H376.326Z" fill="#51B89F"/>
<path d="M375.346 369.584C374.819 369.584 374.384 370.173 374.384 370.895C374.384 371.618 374.819 372.206 375.346 372.206C375.874 372.206 376.309 371.618 376.309 370.895C376.309 370.173 375.882 369.584 375.346 369.584Z" fill="#51B89F"/>
<path d="M375.346 370.4C375.146 370.4 374.978 370.618 374.978 370.896C374.978 371.173 375.146 371.391 375.346 371.391C375.547 371.391 375.715 371.173 375.715 370.896C375.715 370.618 375.547 370.4 375.346 370.4Z" fill="#51B89F"/>
<path d="M375.028 369.87H374.786C374.468 369.87 373.07 370.366 373.079 370.895C373.079 371.391 374.501 371.92 374.786 371.92H375.028C375.397 371.92 375.706 371.466 375.706 370.895C375.706 370.324 375.405 369.87 375.028 369.87Z" fill="#51B89F"/>
<path fill-rule="evenodd" clip-rule="evenodd" d="M286.315 403.201C288.984 403.201 291.16 410.494 291.16 416.089C291.16 421.685 288.984 423.466 286.315 423.466C283.646 423.466 281.47 421.685 281.47 416.089C281.47 410.494 283.646 403.201 286.315 403.201Z" fill="#006CA7"/>
<path fill-rule="evenodd" clip-rule="evenodd" d="M249.765 411.25C251.38 411.25 252.685 415.644 252.685 419.013C252.685 422.383 251.372 423.458 249.765 423.458C248.159 423.458 246.845 422.383 246.845 419.013C246.845 415.644 248.159 411.25 249.765 411.25Z" fill="#006CA7"/>
<path fill-rule="evenodd" clip-rule="evenodd" d="M472.779 406.923C474.963 406.923 476.728 412.871 476.728 417.442C476.728 422.013 474.963 423.458 472.779 423.458C470.595 423.458 468.821 422.004 468.821 417.442C468.821 412.88 470.587 406.923 472.779 406.923Z" fill="#006CA7"/>
<path fill-rule="evenodd" clip-rule="evenodd" d="M413.051 386.111C414.666 386.111 415.971 390.506 415.971 393.875C415.971 397.244 414.657 398.319 413.051 398.319C411.444 398.319 410.131 397.244 410.131 393.875C410.131 390.506 411.444 386.111 413.051 386.111Z" fill="#006CA7"/>
<path fill-rule="evenodd" clip-rule="evenodd" d="M542.088 323.777C543.703 323.777 545.008 328.172 545.008 331.541C545.008 334.91 543.703 335.985 542.088 335.985C540.473 335.985 539.168 334.91 539.168 331.541C539.168 328.172 540.473 323.777 542.088 323.777Z" fill="#006CA7"/>
<path fill-rule="evenodd" clip-rule="evenodd" d="M452.078 313.854C453.692 313.854 454.998 318.249 454.998 321.618C454.998 324.987 453.684 326.063 452.078 326.063C450.471 326.063 449.157 324.987 449.157 321.618C449.157 318.249 450.471 313.854 452.078 313.854Z" fill="#006CA7"/>
<path fill-rule="evenodd" clip-rule="evenodd" d="M500.216 357.503C501.831 357.503 503.137 361.897 503.137 365.266C503.137 368.635 501.823 369.711 500.216 369.711C498.61 369.711 497.296 368.635 497.296 365.266C497.296 361.897 498.601 357.503 500.216 357.503Z" fill="#006CA7"/>
<path d="M454.554 370.5H453.609L452.621 423.542H456.479L455.491 370.5H454.546H454.554Z" fill="#006CA7"/>
<path d="M456.621 369.584H452.496C451.969 369.584 451.534 370.173 451.534 370.895C451.534 371.618 451.969 372.206 452.496 372.206H456.621C457.148 372.206 457.583 371.618 457.583 370.895C457.583 370.173 457.148 369.584 456.621 369.584Z" fill="#006CA7"/>
<path d="M450.421 370.618C449.81 370.635 449.216 370.82 448.705 371.156L436.807 378.995C436.572 379.146 436.756 379.507 437.016 379.406L449.316 374.895C449.726 374.743 450.086 374.466 450.337 374.096C450.337 374.096 452.32 371.534 452.37 371.399L452.228 370.551L450.421 370.593V370.618Z" fill="#006CA7"/>
<path d="M457.567 371.786C457.232 371.509 456.805 371.332 456.37 371.298C456.37 371.298 453.165 370.862 453.031 370.878L452.37 371.425L453.316 372.97C453.634 373.491 454.094 373.92 454.638 374.189L467.357 380.616C467.608 380.742 467.825 380.406 467.616 380.221L457.575 371.777L457.567 371.786Z" fill="#006CA7"/>
<path d="M453.467 353.251C453.45 352.974 453.057 352.949 452.998 353.226L450.739 366.173C450.663 366.61 450.722 367.056 450.915 367.451C450.915 367.451 452.136 370.458 452.228 370.568L453.032 370.87L453.893 369.282C454.186 368.744 454.32 368.131 454.287 367.526L453.475 353.251H453.467Z" fill="#006CA7"/>
<path d="M452.487 369.584C451.96 369.584 451.525 370.173 451.525 370.895C451.525 371.618 451.96 372.206 452.487 372.206C453.015 372.206 453.45 371.618 453.45 370.895C453.45 370.173 453.015 369.584 452.487 369.584Z" fill="#006CA7"/>
<path d="M452.488 370.4C452.287 370.4 452.119 370.618 452.119 370.896C452.119 371.173 452.287 371.391 452.488 371.391C452.688 371.391 452.856 371.173 452.856 370.896C452.856 370.618 452.688 370.4 452.488 370.4Z" fill="#006CA7"/>
<path d="M452.17 369.87H451.927C451.609 369.87 450.212 370.366 450.22 370.895C450.22 371.391 451.642 371.92 451.927 371.92H452.17C452.546 371.92 452.847 371.466 452.847 370.895C452.847 370.324 452.546 369.87 452.17 369.87Z" fill="#006CA7"/>
<path d="M503.396 273.021H502.451L501.463 326.063H505.329L504.342 273.021H503.396Z" fill="#006CA7"/>
<path d="M505.463 272.114H501.338C500.811 272.114 500.375 272.702 500.375 273.424C500.375 274.147 500.811 274.735 501.338 274.735H505.463C505.99 274.735 506.425 274.147 506.425 273.424C506.425 272.702 505.99 272.114 505.463 272.114Z" fill="#006CA7"/>
<path d="M499.271 273.155C498.66 273.172 498.066 273.357 497.555 273.693L485.657 281.541C485.422 281.692 485.607 282.053 485.866 281.952L498.166 277.44C498.576 277.289 498.936 277.012 499.187 276.642C499.187 276.642 501.17 274.08 501.22 273.945L501.078 273.097L499.271 273.139V273.155Z" fill="#006CA7"/>
<path d="M506.408 274.315C506.074 274.038 505.655 273.861 505.212 273.828C505.212 273.828 502.007 273.391 501.873 273.408L501.212 273.954L502.158 275.5C502.476 276.021 502.936 276.449 503.48 276.718L516.199 283.146C516.45 283.272 516.667 282.935 516.458 282.751L506.417 274.307L506.408 274.315Z" fill="#006CA7"/>
<path d="M502.308 255.78C502.292 255.503 501.898 255.478 501.84 255.747L499.581 268.694C499.505 269.123 499.564 269.576 499.756 269.971C499.756 269.971 500.978 272.979 501.07 273.088L501.873 273.391L502.735 271.803C503.028 271.265 503.162 270.652 503.129 270.047L502.317 255.772L502.308 255.78Z" fill="#006CA7"/>
<path d="M501.329 272.114C500.802 272.114 500.367 272.702 500.367 273.424C500.367 274.147 500.802 274.735 501.329 274.735C501.857 274.735 502.292 274.147 502.292 273.424C502.292 272.702 501.865 272.114 501.329 272.114Z" fill="#006CA7"/>
<path d="M501.329 272.929C501.129 272.929 500.961 273.147 500.961 273.424C500.961 273.702 501.129 273.92 501.329 273.92C501.53 273.92 501.698 273.702 501.698 273.424C501.698 273.147 501.53 272.929 501.329 272.929Z" fill="#006CA7"/>
<path d="M501.011 272.399H500.769C500.451 272.399 499.053 272.887 499.062 273.424C499.062 273.912 500.484 274.449 500.769 274.449H501.011C501.388 274.449 501.697 273.996 501.697 273.424C501.697 272.853 501.396 272.399 501.011 272.399Z" fill="#006CA7"/>
<path d="M431.167 281.079H430.221L429.234 334.12H433.1L432.112 281.079H431.167Z" fill="#006CA7"/>
<path d="M433.234 280.171H429.108C428.581 280.171 428.146 280.76 428.146 281.482C428.146 282.205 428.581 282.793 429.108 282.793H433.234C433.761 282.793 434.196 282.205 434.196 281.482C434.196 280.76 433.761 280.171 433.234 280.171Z" fill="#006CA7"/>
<path d="M427.033 281.213C426.422 281.23 425.828 281.415 425.318 281.751L413.419 289.598C413.185 289.749 413.369 290.111 413.628 290.01L425.929 285.498C426.339 285.347 426.699 285.07 426.95 284.7C426.95 284.7 428.933 282.137 428.983 282.003L428.841 281.154L427.033 281.205V281.213Z" fill="#006CA7"/>
<path d="M434.179 282.373C433.845 282.095 433.426 281.919 432.983 281.885C432.983 281.885 429.778 281.449 429.644 281.465L428.983 282.011L429.928 283.557C430.246 284.078 430.707 284.507 431.251 284.776L443.969 291.203C444.22 291.329 444.438 290.993 444.229 290.808L434.188 282.364L434.179 282.373Z" fill="#006CA7"/>
<path d="M430.079 263.838C430.062 263.561 429.669 263.535 429.61 263.804L427.351 276.76C427.276 277.197 427.334 277.642 427.527 278.037C427.527 278.037 428.749 281.045 428.841 281.154L429.644 281.457L430.506 279.869C430.799 279.331 430.933 278.718 430.899 278.104L430.087 263.83L430.079 263.838Z" fill="#006CA7"/>
<path d="M429.1 280.171C428.573 280.171 428.138 280.76 428.138 281.482C428.138 282.205 428.564 282.793 429.1 282.793C429.635 282.793 430.062 282.205 430.062 281.482C430.062 280.76 429.627 280.171 429.1 280.171Z" fill="#006CA7"/>
<path d="M429.1 280.986C428.899 280.986 428.732 281.205 428.732 281.482C428.732 281.759 428.891 281.978 429.1 281.978C429.309 281.978 429.468 281.759 429.468 281.482C429.468 281.205 429.301 280.986 429.1 280.986Z" fill="#006CA7"/>
<path d="M428.782 280.457H428.539C428.221 280.457 426.824 280.944 426.832 281.482C426.832 281.969 428.255 282.507 428.539 282.507H428.782C429.159 282.507 429.46 282.053 429.46 281.482C429.46 280.911 429.159 280.457 428.782 280.457Z" fill="#006CA7"/>
<path d="M531.695 370.5H530.742L529.754 423.542H533.62L532.633 370.5H531.687H531.695Z" fill="#006CA7"/>
<path d="M533.762 369.584H529.637C529.11 369.584 528.675 370.173 528.675 370.895C528.675 371.618 529.11 372.206 529.637 372.206H533.762C534.289 372.206 534.725 371.618 534.725 370.895C534.725 370.173 534.289 369.584 533.762 369.584Z" fill="#006CA7"/>
<path d="M527.57 370.618C526.959 370.635 526.365 370.82 525.855 371.156L513.956 378.995C513.722 379.146 513.906 379.507 514.165 379.406L526.466 374.895C526.876 374.743 527.235 374.466 527.487 374.096C527.487 374.096 529.47 371.534 529.52 371.399L529.378 370.551L527.57 370.593V370.618Z" fill="#006CA7"/>
<path d="M534.708 371.786C534.373 371.509 533.946 371.332 533.511 371.298C533.511 371.298 530.306 370.862 530.172 370.878L529.511 371.425L530.457 372.97C530.775 373.491 531.235 373.92 531.779 374.189L544.498 380.616C544.749 380.742 544.967 380.406 544.757 380.221L534.716 371.777L534.708 371.786Z" fill="#006CA7"/>
<path d="M530.608 353.251C530.591 352.974 530.198 352.949 530.139 353.226L527.88 366.173C527.804 366.61 527.863 367.056 528.056 367.451C528.056 367.451 529.277 370.458 529.369 370.568L530.173 370.87L531.034 369.282C531.327 368.744 531.461 368.131 531.428 367.526L530.616 353.251H530.608Z" fill="#006CA7"/>
<path d="M529.629 369.584C529.102 369.584 528.666 370.173 528.666 370.895C528.666 371.618 529.093 372.206 529.629 372.206C530.164 372.206 530.591 371.618 530.591 370.895C530.591 370.173 530.164 369.584 529.629 369.584Z" fill="#006CA7"/>
<path d="M529.629 370.4C529.428 370.4 529.26 370.618 529.26 370.896C529.26 371.173 529.428 371.391 529.629 371.391C529.829 371.391 529.997 371.173 529.997 370.896C529.997 370.618 529.838 370.4 529.629 370.4Z" fill="#006CA7"/>
<path d="M529.311 369.87H529.068C528.75 369.87 527.353 370.366 527.361 370.895C527.361 371.391 528.784 371.92 529.068 371.92H529.311C529.687 371.92 529.989 371.466 529.989 370.895C529.989 370.324 529.687 369.87 529.311 369.87Z" fill="#006CA7"/>
<path d="M164.315 339.825H165.261L166.248 392.867H162.382L163.369 339.825H164.315Z" fill="#006CA7"/>
<path d="M162.173 338.312H166.298C166.825 338.312 167.26 338.901 167.26 339.623C167.26 340.346 166.825 340.934 166.298 340.934H162.173C161.646 340.934 161.211 340.346 161.211 339.623C161.211 338.901 161.646 338.312 162.173 338.312Z" fill="#006CA7"/>
<path d="M168.44 339.951C169.051 339.968 169.645 340.153 170.156 340.489L182.054 348.328C182.289 348.479 182.105 348.84 181.845 348.739L169.545 344.236C169.135 344.085 168.775 343.807 168.524 343.438C168.524 343.438 166.541 340.875 166.491 340.741L166.633 339.892L168.44 339.942V339.951Z" fill="#006CA7"/>
<path d="M161.303 341.119C161.637 340.842 162.056 340.665 162.499 340.632C162.499 340.632 165.704 340.195 165.838 340.211L166.499 340.758L165.553 342.303C165.235 342.824 164.775 343.253 164.231 343.522L151.513 349.949C151.262 350.075 151.044 349.739 151.253 349.554L161.294 341.11L161.303 341.119Z" fill="#006CA7"/>
<path d="M165.403 322.585C165.419 322.307 165.813 322.282 165.871 322.551L168.131 335.498C168.206 335.935 168.147 336.38 167.955 336.775C167.955 336.775 166.733 339.783 166.641 339.892L165.838 340.195L164.976 338.607C164.683 338.069 164.549 337.456 164.583 336.851L165.394 322.576L165.403 322.585Z" fill="#006CA7"/>
<path d="M166.382 338.917C166.909 338.917 167.344 339.506 167.344 340.228C167.344 340.951 166.917 341.539 166.382 341.539C165.846 341.539 165.42 340.951 165.42 340.228C165.42 339.506 165.855 338.917 166.382 338.917Z" fill="#006CA7"/>
<path d="M166.382 339.732C166.583 339.732 166.75 339.951 166.75 340.228C166.75 340.505 166.591 340.724 166.382 340.724C166.173 340.724 166.014 340.497 166.014 340.228C166.014 339.959 166.173 339.732 166.382 339.732Z" fill="#006CA7"/>
<path d="M166.691 339.203H166.934C167.252 339.203 168.649 339.69 168.641 340.228C168.641 340.715 167.218 341.253 166.934 341.253H166.691C166.315 341.253 166.014 340.799 166.014 340.228C166.014 339.657 166.315 339.203 166.691 339.203Z" fill="#006CA7"/>
<path d="M135.781 261.032H136.727L137.714 314.073H133.857L134.844 261.032H135.79H135.781Z" fill="#006CA7"/>
<path d="M133.715 260.124H137.84C138.367 260.124 138.802 260.712 138.802 261.435C138.802 262.157 138.375 262.745 137.84 262.745H133.715C133.187 262.745 132.752 262.157 132.752 261.435C132.752 260.712 133.179 260.124 133.715 260.124Z" fill="#006CA7"/>
<path d="M139.907 261.158C140.518 261.174 141.112 261.359 141.622 261.695L153.521 269.534C153.755 269.686 153.571 270.047 153.312 269.946L141.011 265.434C140.601 265.283 140.241 265.006 139.99 264.636C139.99 264.636 138.007 262.073 137.957 261.939L138.099 261.09L139.907 261.141V261.158Z" fill="#006CA7"/>
<path d="M132.769 262.317C133.104 262.04 133.522 261.863 133.966 261.821C133.966 261.821 137.17 261.385 137.304 261.401L137.965 261.947L137.02 263.493C136.702 264.014 136.242 264.443 135.698 264.712L122.979 271.139C122.728 271.265 122.51 270.929 122.719 270.744L132.761 262.3L132.769 262.317Z" fill="#006CA7"/>
<path d="M136.861 243.791C136.878 243.514 137.271 243.489 137.329 243.757L139.589 256.713C139.664 257.142 139.605 257.595 139.413 257.99C139.413 257.99 138.191 260.998 138.099 261.107L137.296 261.41L136.434 259.822C136.141 259.284 136.007 258.671 136.041 258.058L136.852 243.783L136.861 243.791Z" fill="#006CA7"/>
<path d="M137.84 260.124C138.367 260.124 138.802 260.712 138.802 261.435C138.802 262.157 138.367 262.745 137.84 262.745C137.313 262.745 136.878 262.157 136.878 261.435C136.878 260.712 137.304 260.124 137.84 260.124Z" fill="#006CA7"/>
<path d="M137.84 260.931C138.041 260.931 138.208 261.158 138.208 261.426C138.208 261.695 138.041 261.922 137.84 261.922C137.639 261.922 137.472 261.704 137.472 261.426C137.472 261.149 137.639 260.931 137.84 260.931Z" fill="#006CA7"/>
<path d="M138.158 260.41H138.4C138.718 260.41 140.116 260.897 140.107 261.435C140.107 261.923 138.685 262.46 138.4 262.46H138.158C137.781 262.46 137.48 262.007 137.48 261.435C137.48 260.864 137.781 260.41 138.158 260.41Z" fill="#006CA7"/>
<path d="M87.1655 339.825H88.1111L89.0984 392.867H85.241L86.2283 339.825H87.1739H87.1655Z" fill="#006CA7"/>
<path d="M85.1071 338.917H89.2323C89.7595 338.917 90.1946 339.506 90.1946 340.228C90.1946 340.951 89.7678 341.539 89.2323 341.539H85.1071C84.5799 341.539 84.1448 340.951 84.1448 340.228C84.1448 339.506 84.5715 338.917 85.1071 338.917Z" fill="#006CA7"/>
<path d="M91.2991 339.951C91.91 339.968 92.5041 340.153 93.0145 340.489L104.913 348.328C105.148 348.479 104.963 348.84 104.704 348.739L92.4037 344.236C91.9853 344.085 91.6338 343.807 91.3828 343.438C91.3828 343.438 89.3997 340.875 89.3495 340.741L89.4917 339.892L91.2991 339.942V339.951Z" fill="#006CA7"/>
<path d="M84.1616 341.119C84.4963 340.842 84.9147 340.665 85.3581 340.632C85.3581 340.632 88.5629 340.195 88.6968 340.211L89.3579 340.758L88.4123 342.303C88.0944 342.824 87.6341 343.253 87.0902 343.522L74.3715 349.949C74.1204 350.075 73.9029 349.739 74.1121 349.554L84.1532 341.11L84.1616 341.119Z" fill="#006CA7"/>
<path d="M88.2617 322.585C88.2784 322.307 88.6717 322.282 88.7303 322.551L90.9895 335.498C91.0649 335.935 91.0063 336.38 90.8138 336.775C90.8138 336.775 89.5922 339.783 89.5001 339.892L88.6968 340.195L87.835 338.607C87.5421 338.069 87.4082 337.456 87.4417 336.851L88.2533 322.576L88.2617 322.585Z" fill="#006CA7"/>
<path d="M89.3745 339.153C89.9017 339.153 90.3368 339.741 90.3368 340.464C90.3368 341.186 89.91 341.774 89.3745 341.774C88.839 341.774 88.4122 341.186 88.4122 340.464C88.4122 339.741 88.839 339.153 89.3745 339.153Z" fill="#006CA7"/>
<path d="M89.6841 339.43H89.9268C90.2448 339.43 91.6421 339.926 91.6338 340.455C91.6338 340.943 90.2113 341.48 89.9268 341.48H89.6841C89.3076 341.48 89.0063 341.027 89.0063 340.455C89.0063 339.884 89.3076 339.43 89.6841 339.43Z" fill="#006CA7"/>
<path d="M38.3237 242.354H39.2693L40.2566 295.395H36.3992L37.3865 242.354H38.3321H38.3237Z" fill="#006CA7"/>
<path d="M36.2653 241.447H40.3905C40.9177 241.447 41.3528 242.035 41.3528 242.757C41.3528 243.48 40.926 244.068 40.3905 244.068H36.2653C35.7381 244.068 35.303 243.48 35.303 242.757C35.303 242.035 35.7381 241.447 36.2653 241.447Z" fill="#006CA7"/>
<path d="M42.4573 274.13C43.0681 274.147 43.6622 274.332 44.1726 274.668L56.0798 282.515C56.3141 282.666 56.13 283.028 55.8706 282.927L43.5702 278.415C43.1518 278.264 42.8004 277.987 42.5493 277.617C42.5493 277.617 40.5662 275.054 40.516 274.92L40.6582 274.071L42.4656 274.122L42.4573 274.13Z" fill="#006CA7"/>
<path d="M35.3198 243.64C35.6545 243.363 36.0729 243.186 36.5163 243.153C36.5163 243.153 39.7211 242.716 39.855 242.732L40.5161 243.279L39.5705 244.825C39.2526 245.345 38.7923 245.774 38.2484 246.043L25.5297 252.47C25.2786 252.596 25.0611 252.26 25.2703 252.075L35.3114 243.631L35.3198 243.64Z" fill="#006CA7"/>
<path d="M39.4115 225.105C39.4282 224.828 39.8215 224.803 39.8801 225.071L42.1393 238.019C42.2146 238.456 42.1561 238.901 41.9636 239.296C41.9636 239.296 40.7419 242.304 40.6499 242.413L39.8466 242.715L38.9847 241.127C38.6919 240.59 38.558 239.976 38.5915 239.363L39.4115 225.088V225.105Z" fill="#006CA7"/>
<path d="M40.3905 273.097C40.9177 273.097 41.3528 273.685 41.3528 274.407C41.3528 275.13 40.926 275.718 40.3905 275.718C39.855 275.718 39.4282 275.13 39.4282 274.407C39.4282 273.685 39.855 273.097 40.3905 273.097Z" fill="#006CA7"/>
<path d="M40.3905 273.903C40.5913 273.903 40.7587 274.13 40.7587 274.399C40.7587 274.668 40.5913 274.895 40.3905 274.895C40.1897 274.895 40.0223 274.676 40.0223 274.399C40.0223 274.122 40.1813 273.903 40.3905 273.903Z" fill="#006CA7"/>
<path d="M40.7085 241.732H40.9511C41.2691 241.732 42.6665 242.228 42.6581 242.757C42.6581 243.245 41.2356 243.782 40.9511 243.782H40.7085C40.3319 243.782 40.0223 243.329 40.0223 242.757C40.0223 242.186 40.3236 241.732 40.7085 241.732Z" fill="#006CA7"/>
<path d="M10.0327 371.475H10.9782L11.9656 424.517H8.10815L9.09553 371.475H10.0411H10.0327Z" fill="#006CA7"/>
<path d="M7.96594 370.568H12.0912C12.6183 370.568 13.0535 371.148 13.0535 371.879C13.0535 372.61 12.6267 373.189 12.0912 373.189H7.96594C7.43878 373.189 7.00366 372.601 7.00366 371.879C7.00366 371.156 7.43041 370.568 7.96594 370.568Z" fill="#006CA7"/>
<path d="M14.158 371.601C14.7689 371.618 15.363 371.803 15.8734 372.139L27.7722 379.978C28.0064 380.129 27.8224 380.491 27.563 380.39L15.2626 375.878C14.8525 375.727 14.4927 375.449 14.2417 375.08C14.2417 375.08 12.2586 372.517 12.2084 372.383L12.3506 371.534L14.158 371.585V371.601Z" fill="#006CA7"/>
<path d="M7.02046 372.769C7.35517 372.492 7.77355 372.316 8.21703 372.282C8.21703 372.282 11.4218 371.845 11.5557 371.862L12.2168 372.408L11.2712 373.954C10.9532 374.475 10.493 374.903 9.94913 375.172L-2.76966 381.6C-3.02068 381.726 -3.23824 381.39 -3.02905 381.205L7.01209 372.761L7.02046 372.769Z" fill="#006CA7"/>
<path d="M11.1122 354.234C11.1289 353.949 11.5222 353.932 11.5808 354.209L13.84 367.156C13.9153 367.585 13.8567 368.039 13.6643 368.434C13.6643 368.434 12.4426 371.441 12.3506 371.551L11.5473 371.853L10.6854 370.265C10.3926 369.727 10.2587 369.114 10.2921 368.509L11.1038 354.234H11.1122Z" fill="#006CA7"/>
<path d="M12.0912 370.568C12.6183 370.568 13.0535 371.148 13.0535 371.879C13.0535 372.61 12.6267 373.189 12.0912 373.189C11.5557 373.189 11.1289 372.601 11.1289 371.879C11.1289 371.156 11.5557 370.568 12.0912 370.568Z" fill="#006CA7"/>
<path d="M12.0912 371.383C12.292 371.383 12.4594 371.601 12.4594 371.879C12.4594 372.156 12.3004 372.374 12.0912 372.374C11.882 372.374 11.723 372.147 11.723 371.879C11.723 371.61 11.8904 371.383 12.0912 371.383Z" fill="#006CA7"/>
<path d="M12.4092 370.845H12.6519C12.9699 370.845 14.3672 371.332 14.3589 371.87C14.3589 372.365 12.9364 372.895 12.6519 372.895H12.4092C12.041 372.895 11.7314 372.441 11.7314 371.87C11.7314 371.298 12.0327 370.845 12.4092 370.845Z" fill="#006CA7"/>
<path fill-rule="evenodd" clip-rule="evenodd" d="M255.405 404.175C252.736 404.175 250.56 411.468 250.56 417.064C250.56 422.66 252.736 424.441 255.405 424.441C258.074 424.441 260.25 422.66 260.25 417.064C260.25 411.468 258.074 404.175 255.405 404.175Z" fill="#006CA7"/>
<path fill-rule="evenodd" clip-rule="evenodd" d="M291.955 412.225C290.34 412.225 289.034 416.619 289.034 419.988C289.034 423.357 290.348 424.433 291.955 424.433C293.561 424.433 294.875 423.357 294.875 419.988C294.875 416.619 293.561 412.225 291.955 412.225Z" fill="#006CA7"/>
<path fill-rule="evenodd" clip-rule="evenodd" d="M68.9408 407.906C66.7568 407.906 64.9829 413.854 64.9829 418.425C64.9829 422.996 66.7568 424.441 68.9408 424.441C71.1247 424.441 72.8903 422.987 72.8903 418.425C72.8903 413.863 71.1247 407.906 68.9408 407.906Z" fill="#006CA7"/>
<path fill-rule="evenodd" clip-rule="evenodd" d="M-0.359851 324.76C-1.9748 324.76 -3.28015 329.154 -3.28015 332.524C-3.28015 335.893 -1.9748 336.968 -0.359851 336.968C1.2551 336.968 2.56045 335.893 2.56045 332.524C2.56045 329.154 1.2551 324.76 -0.359851 324.76Z" fill="#006CA7"/>
<path fill-rule="evenodd" clip-rule="evenodd" d="M64.5562 314.787C62.9412 314.787 61.6359 319.181 61.6359 322.55C61.6359 325.92 62.9496 326.995 64.5562 326.995C66.1627 326.995 67.4765 325.92 67.4765 322.55C67.4765 319.181 66.1627 314.787 64.5562 314.787Z" fill="#006CA7"/>
<path fill-rule="evenodd" clip-rule="evenodd" d="M41.5117 358.486C39.8968 358.486 38.5914 362.88 38.5914 366.249C38.5914 369.618 39.9051 370.694 41.5117 370.694C43.1183 370.694 44.432 369.618 44.432 366.249C44.432 362.88 43.1267 358.486 41.5117 358.486Z" fill="#006CA7"/>
<path d="M515.822 515.846V677.868H41.8213V515.846H51.0759C57.4604 503.049 63.8365 490.228 70.2043 477.423C75.7771 466.24 87.1571 459.166 99.6081 459.166H121.222L362.561 459.326V459.166H452.964C465.415 459.166 476.795 466.232 482.368 477.423C488.744 490.22 495.112 503.041 501.497 515.846H515.83H515.822Z" fill="url(#paint3_linear_1073_1058)"/>
<path d="M283.277 459.091H280.801L286.993 449.252H289.436L283.277 459.091Z" fill="#006CA7"/>
<path d="M291.243 459.091H293.72L289.461 449.252H287.026L291.252 459.091H291.243Z" fill="#006CA7"/>
<path d="M294.013 459.091H291.536L297.569 449.252H300.013L294.013 459.091Z" fill="#006CA7"/>
<path d="M301.979 459.091H304.456L300.038 449.252H297.594L301.979 459.091Z" fill="#006CA7"/>
<path d="M304.74 459.091H302.264L308.138 449.252H310.573L304.74 459.091Z" fill="#006CA7"/>
<path d="M312.706 459.091H315.183L310.598 449.252H308.163L312.706 459.091Z" fill="#006CA7"/>
<path d="M315.476 459.091H312.999L318.714 449.252H321.149L315.476 459.091Z" fill="#006CA7"/>
<path d="M323.442 459.091H325.919L321.174 449.252H318.74L323.442 459.091Z" fill="#006CA7"/>
<path d="M326.203 459.091H323.727L329.274 449.252H331.709L326.195 459.091H326.203Z" fill="#006CA7"/>
<path d="M334.169 459.091H336.646L331.734 449.252H329.299L334.169 459.091Z" fill="#006CA7"/>
<path d="M336.939 459.091H334.462L339.851 449.252H342.294L336.939 459.091Z" fill="#006CA7"/>
<path d="M344.905 459.091H347.382L342.319 449.252H339.876L344.905 459.091Z" fill="#006CA7"/>
<path d="M347.666 459.091H345.189L350.419 449.252H352.854L347.666 459.091Z" fill="#006CA7"/>
<path d="M355.632 459.091H358.109L352.879 449.252H350.444L355.632 459.091Z" fill="#006CA7"/>
<path d="M358.402 459.091H355.925L360.987 449.252H363.422L358.394 459.091H358.402Z" fill="#006CA7"/>
<path d="M366.368 459.091H368.845L363.456 449.252H361.021L366.376 459.091H366.368Z" fill="#006CA7"/>
<path d="M369.129 459.091H366.652L371.556 449.252H373.999L369.129 459.091Z" fill="#006CA7"/>
<path d="M377.095 459.091H379.572L374.024 449.252H371.581L377.095 459.091Z" fill="#006CA7"/>
<path d="M379.865 459.091H377.388L382.133 449.252H384.568L379.865 459.091Z" fill="#006CA7"/>
<path d="M387.831 459.091H390.308L384.593 449.252H382.149L387.831 459.091Z" fill="#006CA7"/>
<path d="M390.601 459.091H388.124L392.709 449.252H395.144L390.601 459.091Z" fill="#006CA7"/>
<path d="M398.558 459.091H401.035L395.161 449.252H392.726L398.558 459.091Z" fill="#006CA7"/>
<path d="M401.328 459.091H398.851L403.269 449.252H405.704L401.328 459.091Z" fill="#006CA7"/>
<path d="M409.294 459.091H411.771L405.729 449.252H403.294L409.294 459.091Z" fill="#006CA7"/>
<path d="M412.055 459.091H409.587L413.846 449.252H416.281L412.055 459.091Z" fill="#006CA7"/>
<path d="M420.029 459.091H422.506L416.306 449.252H413.871L420.029 459.091Z" fill="#006CA7"/>
<path d="M416.557 449.26H286.909C308.154 413.015 314.999 353.478 315.392 338.347C315.769 323.534 316.355 300.765 316.355 300.765H387.111C387.111 300.765 387.697 323.526 388.073 338.347C388.467 353.47 395.303 413.015 416.557 449.26Z" fill="#4091BD"/>
<path d="M372.443 449.26H308.163C322.739 413.015 327.417 353.478 327.684 338.347C327.944 323.526 328.346 300.765 328.346 300.765H363.431C363.431 300.765 363.607 323.517 363.724 338.347C363.849 353.47 365.941 413.015 372.443 449.26Z" fill="#7FB5D3"/>
<path d="M85.3246 484.607L76.1704 522.29L101.265 525.029L91.5501 484.616C90.7552 481.289 86.1446 481.28 85.333 484.616L85.3246 484.607Z" fill="#7FB5D3"/>
<path d="M88.4541 491.346C88.1612 491.346 87.9102 491.589 87.9102 491.892V526.13C87.9102 526.424 88.1528 526.676 88.4541 526.676C88.7553 526.676 88.9979 526.432 88.9979 526.13V491.892C88.9979 491.598 88.7553 491.346 88.4541 491.346Z" fill="#006CA7"/>
<path d="M92.8555 502.462L88.9813 506.427V502.361C88.9813 502.26 88.9478 502.159 88.8976 502.067L85.492 496.673C85.333 496.421 84.9983 496.345 84.7473 496.505C84.4963 496.664 84.421 497 84.5799 497.252L87.9019 502.52V507.763C87.9019 507.982 88.0358 508.183 88.2366 508.267C88.3035 508.293 88.3705 508.309 88.4374 508.309C88.5797 508.309 88.7135 508.25 88.8223 508.141L93.6253 503.218C93.8345 502.999 93.8262 502.663 93.6253 502.453C93.4078 502.243 93.0731 502.252 92.8639 502.453L92.8555 502.462Z" fill="#006CA7"/>
<path d="M309.736 460.947C306.883 460.947 304.33 462.216 302.556 464.224C302.389 458.881 298.122 454.596 292.875 454.596C291.411 454.596 290.03 454.932 288.792 455.528C288.792 455.461 288.8 455.385 288.8 455.31C288.8 449.815 284.466 445.362 279.11 445.362C276.926 445.362 274.918 446.11 273.295 447.362C272.793 442.354 268.676 438.447 263.655 438.447C261.179 438.447 258.919 439.413 257.212 440.976C255.79 437.296 252.301 434.691 248.209 434.691C243.105 434.691 238.929 438.741 238.553 443.883C237.105 442.993 235.415 442.472 233.599 442.472C228.244 442.472 223.909 446.925 223.909 452.419V470.87H319.426C319.426 465.375 315.091 460.922 309.736 460.922V460.947Z" fill="#006CA7"/>
<path d="M142.534 525.609V547.319H56.5819C54.8917 542.74 53.3353 538.086 51.9211 533.372C53.9628 530.222 57.4354 528.155 61.3933 528.155C63.1087 528.155 64.732 528.558 66.2047 529.264C66.2047 529.18 66.1879 529.096 66.1879 529.003C66.1879 522.542 71.2922 517.308 77.5846 517.308C80.1619 517.308 82.5215 518.19 84.421 519.66C85.0151 513.762 89.8683 509.166 95.7675 509.166C98.6878 509.166 101.34 510.309 103.357 512.157C104.938 508.057 108.712 505.091 113.206 504.789C113.465 504.772 113.708 504.764 113.959 504.764C119.958 504.764 124.87 509.536 125.314 515.577C126.954 514.569 128.845 513.972 130.895 513.93C130.978 513.93 131.054 513.93 131.137 513.93C137.43 513.93 142.534 519.173 142.534 525.634V525.609Z" fill="#BFDAE9"/>
<path d="M144.751 432.381L158.617 470.971H237.749L223.892 432.381H144.751Z" fill="#006CA7"/>
<path d="M150.751 432.381L164.608 470.971H169.478L155.621 432.381H150.751Z" fill="#BFDAE9"/>
<path d="M213.299 432.381L227.156 470.971H232.026L218.169 432.381H213.299Z" fill="#BFDAE9"/>
<path d="M163.261 432.381L177.117 470.971H181.987L168.122 432.381H163.252H163.261Z" fill="#BFDAE9"/>
<path d="M175.77 432.381L189.635 470.971H194.505L180.649 432.381H175.77Z" fill="#BFDAE9"/>
<path d="M188.28 432.381L202.137 470.971H207.007L193.15 432.381H188.28Z" fill="#BFDAE9"/>
<path d="M200.789 432.381L214.655 470.971H219.525L205.668 432.381H200.789Z" fill="#BFDAE9"/>
<path d="M158.617 470.979V547.328H130.895V470.979L144.751 432.381L158.617 470.979Z" fill="white"/>
<path d="M237.749 470.971H158.617V547.319H237.749V470.971Z" fill="#006CA7"/>
<path d="M258.518 491.74V547.319H182.406V491.74H210.086C214.06 486.96 218.035 482.196 222.01 477.415C227.265 482.196 232.511 486.96 237.766 491.74H258.526H258.518Z" fill="white"/>
<path d="M313.861 491.74V547.328H258.509V491.74L286.189 463.947L313.869 491.74H313.861Z" fill="#7FB5D3"/>
<path d="M182.397 491.74H258.509C267.73 482.481 276.96 473.214 286.189 463.947H211.994C202.128 473.206 192.263 482.473 182.397 491.74Z" fill="#4091BD"/>
<path d="M251.589 477.844C246.987 482.481 242.368 487.103 237.758 491.74C232.503 486.96 227.256 482.196 222.001 477.415C231.867 477.558 241.732 477.692 251.589 477.844Z" fill="#006CA7"/>
<path d="M272.048 505.629H269.145V508.612H272.048V505.629Z" fill="#006CA7"/>
<path d="M272.048 514.594H269.145V517.576H272.048V514.594Z" fill="#006CA7"/>
<path d="M272.048 523.542H269.145V526.525H272.048V523.542Z" fill="#006CA7"/>
<path d="M272.048 532.49H269.145V535.472H272.048V532.49Z" fill="#006CA7"/>
<path d="M280.776 505.629H277.872V508.612H280.776V505.629Z" fill="#006CA7"/>
<path d="M280.776 514.594H277.872V517.576H280.776V514.594Z" fill="#006CA7"/>
<path d="M280.776 523.542H277.872V526.525H280.776V523.542Z" fill="#006CA7"/>
<path d="M280.776 532.49H277.872V535.472H280.776V532.49Z" fill="#006CA7"/>
<path d="M289.495 505.629H286.591V508.612H289.495V505.629Z" fill="#006CA7"/>
<path d="M289.495 514.594H286.591V517.576H289.495V514.594Z" fill="#006CA7"/>
<path d="M289.495 523.542H286.591V526.525H289.495V523.542Z" fill="#006CA7"/>
<path d="M289.495 532.49H286.591V535.472H289.495V532.49Z" fill="#006CA7"/>
<path d="M298.222 505.629H295.318V508.612H298.222V505.629Z" fill="#006CA7"/>
<path d="M298.222 514.594H295.318V517.576H298.222V514.594Z" fill="#006CA7"/>
<path d="M298.222 523.542H295.318V526.525H298.222V523.542Z" fill="#006CA7"/>
<path d="M298.222 532.49H295.318V535.472H298.222V532.49Z" fill="#006CA7"/>
<path d="M306.941 505.629H304.038V508.612H306.941V505.629Z" fill="#006CA7"/>
<path d="M306.941 514.594H304.038V517.576H306.941V514.594Z" fill="#006CA7"/>
<path d="M306.941 523.542H304.038V526.525H306.941V523.542Z" fill="#006CA7"/>
<path d="M306.941 532.49H304.038V535.472H306.941V532.49Z" fill="#006CA7"/>
<path d="M193.041 506.208H189.317V516.476H193.041V506.208Z" fill="#006CA7"/>
<path d="M208.203 506.208H204.479V516.476H208.203V506.208Z" fill="#006CA7"/>
<path d="M223.365 506.208H219.642V516.476H223.365V506.208Z" fill="#006CA7"/>
<path d="M238.527 506.208H234.804V516.476H238.527V506.208Z" fill="#006CA7"/>
<path d="M253.69 506.208H249.966V516.476H253.69V506.208Z" fill="#006CA7"/>
<path d="M193.041 524.349H189.317V534.616H193.041V524.349Z" fill="#006CA7"/>
<path d="M208.203 524.349H204.479V534.616H208.203V524.349Z" fill="#006CA7"/>
<path d="M223.365 524.349H219.642V534.616H223.365V524.349Z" fill="#006CA7"/>
<path d="M238.527 524.349H234.804V534.616H238.527V524.349Z" fill="#006CA7"/>
<path d="M253.69 524.349H249.966V534.616H253.69V524.349Z" fill="#006CA7"/>
<path d="M193.041 515.283H189.317V516.442H193.041V515.283Z" fill="#006CA7"/>
<path d="M208.203 515.283H204.479V516.442H208.203V515.283Z" fill="#006CA7"/>
<path d="M223.365 515.283H219.642V516.442H223.365V515.283Z" fill="#006CA7"/>
<path d="M238.527 515.283H234.804V516.442H238.527V515.283Z" fill="#006CA7"/>
<path d="M253.69 515.283H249.966V516.442H253.69V515.283Z" fill="#006CA7"/>
<path d="M193.041 533.414H189.317V534.574H193.041V533.414Z" fill="#006CA7"/>
<path d="M208.203 533.414H204.479V534.574H208.203V533.414Z" fill="#006CA7"/>
<path d="M223.365 533.414H219.642V534.574H223.365V533.414Z" fill="#006CA7"/>
<path d="M238.527 533.414H234.804V534.574H238.527V533.414Z" fill="#006CA7"/>
<path d="M253.69 533.414H249.966V534.574H253.69V533.414Z" fill="#006CA7"/>
<path d="M355.381 491.446H390.325L372.853 470.601L355.381 491.446Z" fill="#006CA7"/>
<path d="M372.853 470.601L390.325 491.446H445.333L427.862 470.601H372.853Z" fill="#006CA7"/>
<path d="M389.505 491.446H355.381V547.319H389.505V491.446Z" fill="#006CA7"/>
<path d="M445.342 491.446H389.513V547.319H445.342V491.446Z" fill="#7FB5D3"/>
<path d="M399.144 498.395H396.901V500.688H399.144V498.395Z" fill="#006CA7"/>
<path d="M399.144 505.293H396.901V507.587H399.144V505.293Z" fill="#006CA7"/>
<path d="M399.144 512.191H396.901V514.485H399.144V512.191Z" fill="#006CA7"/>
<path d="M399.144 519.08H396.901V521.374H399.144V519.08Z" fill="#006CA7"/>
<path d="M399.144 525.97H396.901V528.263H399.144V525.97Z" fill="#006CA7"/>
<path d="M405.855 498.395H403.612V500.688H405.855V498.395Z" fill="#006CA7"/>
<path d="M405.855 505.293H403.612V507.587H405.855V505.293Z" fill="#006CA7"/>
<path d="M405.855 512.191H403.612V514.485H405.855V512.191Z" fill="#006CA7"/>
<path d="M405.855 519.08H403.612V521.374H405.855V519.08Z" fill="#006CA7"/>
<path d="M405.855 525.97H403.612V528.263H405.855V525.97Z" fill="#006CA7"/>
<path d="M412.582 498.395H410.34V500.688H412.582V498.395Z" fill="#006CA7"/>
<path d="M412.582 505.293H410.34V507.587H412.582V505.293Z" fill="#006CA7"/>
<path d="M412.582 512.191H410.34V514.485H412.582V512.191Z" fill="#006CA7"/>
<path d="M412.582 519.08H410.34V521.374H412.582V519.08Z" fill="#006CA7"/>
<path d="M412.582 525.97H410.34V528.263H412.582V525.97Z" fill="#006CA7"/>
<path d="M419.302 498.395H417.059V500.688H419.302V498.395Z" fill="#006CA7"/>
<path d="M419.302 505.293H417.059V507.587H419.302V505.293Z" fill="#006CA7"/>
<path d="M419.302 512.191H417.059V514.485H419.302V512.191Z" fill="#006CA7"/>
<path d="M419.302 519.08H417.059V521.374H419.302V519.08Z" fill="#006CA7"/>
<path d="M419.302 525.97H417.059V528.263H419.302V525.97Z" fill="#006CA7"/>
<path d="M426.012 498.395H423.77V500.688H426.012V498.395Z" fill="#006CA7"/>
<path d="M426.012 505.293H423.77V507.587H426.012V505.293Z" fill="#006CA7"/>
<path d="M426.012 512.191H423.77V514.485H426.012V512.191Z" fill="#006CA7"/>
<path d="M426.012 519.08H423.77V521.374H426.012V519.08Z" fill="#006CA7"/>
<path d="M426.012 525.97H423.77V528.263H426.012V525.97Z" fill="#006CA7"/>
<path d="M432.732 498.395H430.489V500.688H432.732V498.395Z" fill="#006CA7"/>
<path d="M432.732 505.293H430.489V507.587H432.732V505.293Z" fill="#006CA7"/>
<path d="M432.732 512.191H430.489V514.485H432.732V512.191Z" fill="#006CA7"/>
<path d="M432.732 519.08H430.489V521.374H432.732V519.08Z" fill="#006CA7"/>
<path d="M432.732 525.97H430.489V528.263H432.732V525.97Z" fill="#006CA7"/>
<path d="M439.451 498.395H437.208V500.688H439.451V498.395Z" fill="#006CA7"/>
<path d="M439.451 505.293H437.208V507.587H439.451V505.293Z" fill="#006CA7"/>
<path d="M439.451 512.191H437.208V514.485H439.451V512.191Z" fill="#006CA7"/>
<path d="M439.451 519.08H437.208V521.374H439.451V519.08Z" fill="#006CA7"/>
<path d="M439.451 525.97H437.208V528.263H439.451V525.97Z" fill="#006CA7"/>
<path d="M399.144 532.876H396.901V535.17H399.144V532.876Z" fill="#006CA7"/>
<path d="M405.855 532.876H403.612V535.17H405.855V532.876Z" fill="#006CA7"/>
<path d="M412.582 532.876H410.34V535.17H412.582V532.876Z" fill="#006CA7"/>
<path d="M419.302 532.876H417.059V535.17H419.302V532.876Z" fill="#006CA7"/>
<path d="M426.012 532.876H423.77V535.17H426.012V532.876Z" fill="#006CA7"/>
<path d="M432.732 532.876H430.489V535.17H432.732V532.876Z" fill="#006CA7"/>
<path d="M439.451 532.876H437.208V535.17H439.451V532.876Z" fill="#006CA7"/>
<path d="M421.611 470.601L439.083 491.446H440.831L423.36 470.601H421.611Z" fill="#7FB5D3"/>
<path d="M414.239 470.601L431.711 491.446H433.451L415.98 470.601H414.239Z" fill="#7FB5D3"/>
<path d="M406.859 470.601L424.33 491.446H426.079L408.608 470.601H406.859Z" fill="#7FB5D3"/>
<path d="M399.487 470.601L416.959 491.446H418.699L401.228 470.601H399.487Z" fill="#7FB5D3"/>
<path d="M392.107 470.601L409.578 491.446H411.327L393.856 470.601H392.107Z" fill="#7FB5D3"/>
<path d="M384.743 470.601L402.215 491.446H403.955L386.484 470.601H384.743Z" fill="#7FB5D3"/>
<path d="M377.363 470.601L394.835 491.446H396.583L379.112 470.601H377.363Z" fill="#7FB5D3"/>
<path d="M272.349 547.319L278.173 535.624C280.056 531.843 283.913 529.448 288.122 529.448H318.857C323.066 529.448 326.923 531.843 328.806 535.624L334.63 547.319H272.349Z" fill="#006CA7"/>
<path d="M341.541 512.586V547.328H320.781V484.792L341.541 512.586Z" fill="#BFDAE9"/>
<path d="M376.141 512.586H341.541V547.328H376.141V512.586Z" fill="#4091BD"/>
<path d="M376.141 512.586H341.541L320.781 484.792H355.381L376.141 512.586Z" fill="#006CA7"/>
<path d="M362.301 519.534H355.381V525.323H362.301V519.534Z" fill="#006CA7"/>
<path d="M362.301 533.431H355.381V539.757H362.301V533.431Z" fill="#006CA7"/>
<path d="M498.217 536.002C497.02 539.816 495.74 543.589 494.359 547.319H445.333V498.689C452.872 498.689 458.956 504.612 459.541 512.149C462.027 511.023 464.754 510.401 467.633 510.401C478.762 510.401 487.774 519.66 487.774 531.078C487.774 531.667 487.74 532.221 487.69 532.801C488.184 532.742 488.694 532.7 489.205 532.7C492.619 532.7 495.757 533.935 498.217 536.002Z" fill="#BFDAE9"/>
<path d="M390.885 441.799C391.78 444.521 392.718 447.168 393.697 449.697H394.132L394.508 449.554C393.538 447.076 392.617 444.488 391.739 441.808H411.352C411.218 441.539 411.093 441.278 410.959 441.001H391.479C390.299 437.363 389.212 433.574 388.191 429.684H406.039C405.938 429.415 405.83 429.146 405.721 428.877H387.982C387.011 425.138 386.116 421.307 385.279 417.433H401.679C401.596 417.165 401.512 416.896 401.42 416.627H385.111C384.3 412.796 383.538 408.931 382.844 405.057H398.023C397.956 404.789 397.88 404.52 397.805 404.251H382.693C381.99 400.327 381.363 396.412 380.777 392.564H394.935C394.876 392.295 394.81 392.026 394.751 391.757H380.651C380.049 387.733 379.513 383.767 379.037 379.944H392.333C392.282 379.675 392.232 379.406 392.182 379.137H378.944C378.434 374.979 377.991 370.971 377.614 367.182H390.191C390.149 366.913 390.107 366.644 390.065 366.375H377.53C377.095 361.998 376.752 357.939 376.476 354.293H388.484C388.458 354.024 388.425 353.755 388.4 353.486H376.417C376.049 348.445 375.832 344.269 375.74 341.27H387.379C387.371 340.993 387.354 340.724 387.346 340.463H375.715C375.715 340.161 375.706 339.875 375.698 339.598C375.639 336.078 375.572 332.112 375.497 328.113H387.019C387.019 327.844 387.011 327.575 386.994 327.306H375.48C375.413 323.206 375.338 319.106 375.279 315.434C375.279 315.224 375.279 315.022 375.271 314.812H386.676C386.676 314.543 386.668 314.275 386.651 314.006H375.254C375.204 310.855 375.154 308.099 375.12 306.057C375.079 303.738 375.054 302.344 375.054 302.302H374.25C374.25 302.302 374.275 303.722 374.317 306.066C374.351 308.108 374.401 310.863 374.451 313.997H351.649V302.302H350.846V313.997H328.044C328.094 310.855 328.145 308.108 328.178 306.066C328.22 303.722 328.245 302.31 328.245 302.31H327.442C327.442 302.31 327.417 303.747 327.375 306.057C327.341 308.107 327.291 310.855 327.241 314.006H315.836C315.836 314.266 315.828 314.543 315.811 314.812H327.216C327.149 318.627 327.074 322.971 326.998 327.306H315.484C315.484 327.575 315.476 327.844 315.459 328.113H326.982C326.915 332.112 326.848 336.086 326.781 339.598C326.781 339.867 326.772 340.161 326.764 340.463H315.133C315.125 340.724 315.108 340.993 315.1 341.27H326.739C326.647 344.269 326.429 348.445 326.061 353.486H314.087C314.054 353.747 314.028 354.016 313.995 354.293H326.003C325.726 357.939 325.383 361.998 324.948 366.375H312.414C312.372 366.635 312.33 366.913 312.288 367.182H324.865C324.488 370.962 324.036 374.97 323.534 379.137H310.288C310.246 379.406 310.188 379.675 310.138 379.944H323.434C322.957 383.784 322.421 387.741 321.819 391.757H307.719C307.661 392.026 307.602 392.295 307.544 392.564H321.702C321.124 396.42 320.488 400.327 319.785 404.251H304.673C304.607 404.52 304.531 404.789 304.456 405.057H319.635C318.94 408.922 318.187 412.796 317.367 416.627H301.059C300.975 416.896 300.891 417.165 300.799 417.433H317.2C316.371 421.307 315.468 425.13 314.497 428.877H296.758C296.649 429.146 296.548 429.415 296.44 429.684H314.288C313.267 433.582 312.171 437.371 310.999 441.001H291.511C291.386 441.27 291.252 441.539 291.118 441.808H310.732C309.853 444.488 308.933 447.076 307.962 449.554L308.338 449.697H308.765C309.753 447.168 310.69 444.53 311.577 441.799H350.821V449.697H351.624V441.799H390.885ZM390.626 440.993H351.641V429.675H387.346C388.366 433.565 389.454 437.363 390.626 440.993ZM387.136 428.869H351.641V417.425H384.442C385.27 421.298 386.174 425.121 387.136 428.869ZM384.275 416.627H351.641V405.057H382.007C382.702 408.914 383.455 412.787 384.266 416.627H384.275ZM381.873 404.251H351.649V392.564H379.965C380.543 396.42 381.187 400.327 381.873 404.251ZM379.84 391.757H351.641V379.944H378.233C378.71 383.784 379.246 387.741 379.84 391.757ZM378.124 379.137H351.641V367.19H376.794C377.171 370.971 377.614 374.979 378.124 379.137ZM376.71 366.383H351.641V354.301H375.664C375.941 357.948 376.284 361.998 376.719 366.383H376.71ZM375.597 353.495H351.633V341.278H374.92C375.012 344.286 375.229 348.454 375.597 353.495ZM374.878 339.623C374.878 339.892 374.886 340.178 374.895 340.472H351.633V328.121H374.677C374.744 332.129 374.811 336.103 374.878 339.623ZM374.451 314.829C374.518 318.644 374.593 322.987 374.669 327.314H351.641V314.829H374.459H374.451ZM328.002 315.459C328.002 315.241 328.002 315.039 328.011 314.829H350.829V327.314H327.802C327.869 323.223 327.944 319.114 328.002 315.459ZM327.592 339.623C327.651 336.103 327.718 332.129 327.793 328.121H350.838V340.472H327.576C327.576 340.178 327.584 339.892 327.592 339.623ZM327.551 341.278H350.838V353.495H326.873C327.241 348.462 327.459 344.286 327.551 341.278ZM326.814 354.301H350.838V366.383H325.768C326.195 362.006 326.546 357.948 326.823 354.301H326.814ZM325.685 367.19H350.838V379.137H324.354C324.865 374.979 325.308 370.979 325.685 367.19ZM324.254 379.944H350.846V391.757H322.647C323.25 387.724 323.785 383.767 324.254 379.944ZM322.522 392.564H350.838V404.251H320.614C321.317 400.327 321.944 396.412 322.522 392.564ZM320.463 405.057H350.829V416.627H318.196C319.007 412.787 319.76 408.931 320.455 405.057H320.463ZM318.028 417.433H350.829V428.877H315.334C316.304 425.138 317.2 421.307 318.028 417.433ZM311.845 440.993C313.016 437.354 314.104 433.557 315.125 429.675H350.829V440.993H311.845Z" fill="#BFDAE9"/>
<path d="M288.792 424.071L279.638 461.754L304.732 464.493L295.017 424.08C294.222 420.752 289.612 420.744 288.8 424.08L288.792 424.071Z" fill="#006CA7"/>
<path d="M291.913 430.81C291.62 430.81 291.369 431.045 291.369 431.356V455.175C291.369 455.469 291.612 455.721 291.913 455.721C292.214 455.721 292.457 455.478 292.457 455.175V431.356C292.457 431.062 292.214 430.81 291.913 430.81Z" fill="#7FB5D3"/>
<path d="M296.323 441.934L292.448 445.899V441.833C292.448 441.724 292.415 441.631 292.365 441.539L288.959 436.145C288.8 435.893 288.465 435.817 288.214 435.977C287.963 436.136 287.888 436.472 288.047 436.725L291.369 441.993V447.235C291.369 447.454 291.503 447.655 291.704 447.739C291.771 447.765 291.838 447.781 291.904 447.781C292.047 447.781 292.181 447.723 292.289 447.613L297.092 442.69C297.302 442.471 297.293 442.135 297.092 441.925C296.875 441.715 296.54 441.724 296.331 441.925L296.323 441.934Z" fill="#7FB5D3"/>
</g>
<defs>
<linearGradient id="paint0_linear_1073_1058" x1="287.302" y1="329.701" x2="138.758" y2="-199.667" gradientUnits="userSpaceOnUse">
<stop stop-color="#00639E"/>
<stop offset="1" stop-color="#00B9F2"/>
</linearGradient>
<linearGradient id="paint1_linear_1073_1058" x1="280.273" y1="931.716" x2="268.893" y2="362.117" gradientUnits="userSpaceOnUse">
<stop offset="0.38" stop-color="white" stop-opacity="0"/>
<stop offset="0.56" stop-color="#FCFDFE" stop-opacity="0"/>
<stop offset="0.65" stop-color="#F4F9FB" stop-opacity="0.05"/>
<stop offset="0.73" stop-color="#E7F1F6" stop-opacity="0.12"/>
<stop offset="0.79" stop-color="#D4E6F0" stop-opacity="0.22"/>
<stop offset="0.84" stop-color="#BBD8E7" stop-opacity="0.35"/>
<stop offset="0.89" stop-color="#9DC6DD" stop-opacity="0.51"/>
<stop offset="0.94" stop-color="#78B1D0" stop-opacity="0.7"/>
<stop offset="0.99" stop-color="#509AC2" stop-opacity="0.92"/>
<stop offset="1" stop-color="#4091BD"/>
</linearGradient>
<linearGradient id="paint2_linear_1073_1058" x1="284.7" y1="1057.61" x2="268.047" y2="224.671" gradientUnits="userSpaceOnUse">
<stop offset="0.38" stop-color="white" stop-opacity="0"/>
<stop offset="0.56" stop-color="#FCFDFE" stop-opacity="0"/>
<stop offset="0.65" stop-color="#F4F9FB" stop-opacity="0.05"/>
<stop offset="0.73" stop-color="#E7F1F6" stop-opacity="0.12"/>
<stop offset="0.79" stop-color="#D4E6F0" stop-opacity="0.22"/>
<stop offset="0.84" stop-color="#BBD8E7" stop-opacity="0.35"/>
<stop offset="0.89" stop-color="#9DC6DD" stop-opacity="0.51"/>
<stop offset="0.94" stop-color="#78B1D0" stop-opacity="0.7"/>
<stop offset="0.99" stop-color="#509AC2" stop-opacity="0.92"/>
<stop offset="1" stop-color="#4091BD"/>
</linearGradient>
<linearGradient id="paint3_linear_1073_1058" x1="279.663" y1="915.727" x2="278.397" y2="439.968" gradientUnits="userSpaceOnUse">
<stop offset="0.74" stop-color="white" stop-opacity="0"/>
<stop offset="0.76" stop-color="#FDFEFE" stop-opacity="0.02"/>
<stop offset="0.8" stop-color="#F8FBFC" stop-opacity="0.09"/>
<stop offset="0.84" stop-color="#F1F7FA" stop-opacity="0.21"/>
<stop offset="0.88" stop-color="#E7F1F6" stop-opacity="0.37"/>
<stop offset="0.92" stop-color="#DAE9F2" stop-opacity="0.57"/>
<stop offset="0.97" stop-color="#CAE0EC" stop-opacity="0.82"/>
<stop offset="1" stop-color="#BFDAE9"/>
</linearGradient>
</defs>
</svg>
