<svg width="543" height="545" viewBox="0 0 543 545" fill="none" xmlns="http://www.w3.org/2000/svg">
<mask id="mask0_1073_1058" style="mask-type:luminance" maskUnits="userSpaceOnUse" x="0" y="0" width="543" height="545">
<path d="M463.512 465.186C569.496 358.767 569.496 186.233 463.512 79.8142C357.527 -26.6047 185.698 -26.6047 79.7141 79.8142C-26.2702 186.233 -26.2702 358.767 79.7141 465.186C185.698 571.605 357.527 571.605 463.512 465.186Z" fill="white"/>
</mask>
<g mask="url(#mask0_1073_1058)">
<path d="M463.512 465.186C569.496 358.767 569.496 186.233 463.512 79.8142C357.527 -26.6047 185.698 -26.6047 79.7141 79.8142C-26.2702 186.233 -26.2702 358.767 79.7141 465.186C185.698 571.605 357.527 571.605 463.512 465.186Z" fill="url(#paint0_linear_1073_1058)"/>
<path d="M-24.3541 620.244C-24.2704 547.348 -24.1951 386.897 -24.1031 314.001L7.61857 334.427H69.9239L174.427 390.409L224.7 417.337L278.37 446.08L318.476 426.31L368.748 401.533L473.252 350.021H535.557L567.279 331.225C567.362 398.298 567.446 552.936 567.53 620.008L-24.3708 620.244H-24.3541Z" fill="url(#paint1_linear_1073_1058)"/>
<path d="M-160.713 602.137C-160.596 495.542 -160.479 260.909 -160.345 154.314L-113.971 184.183H-22.8981L129.861 266.043L203.354 305.423L281.8 347.458L340.432 318.538L413.925 282.301L566.685 206.977H657.758L704.131 179.495C704.248 277.579 704.365 503.708 704.499 601.793L-160.713 602.137Z" fill="url(#paint2_linear_1073_1058)"/>
<path d="M193.556 414.673H191.756V428.007H193.556V414.673Z" fill="#006CA7"/>
<path d="M173.113 414.673H171.314V428.007H173.113V414.673Z" fill="#006CA7"/>
<path d="M190.987 427.192H194.325C195.012 427.192 195.564 427.747 195.564 428.436V428.68H189.748V428.436C189.748 427.755 190.301 427.192 190.987 427.192Z" fill="#006CA7"/>
<path d="M170.536 427.192H173.875C174.561 427.192 175.113 427.747 175.113 428.436V428.68H169.298V428.436C169.298 427.755 169.85 427.192 170.536 427.192Z" fill="#006CA7"/>
<path d="M199.103 416.404H167.708L161.708 396.29H193.104L199.103 416.404Z" fill="#4091BD"/>
<path d="M194.024 405.423H185.966L183.791 398.147H191.849L194.024 405.423Z" fill="#7FB5D3"/>
<path d="M196.744 414.548H188.686L186.518 407.271H194.576L196.744 414.548Z" fill="#7FB5D3"/>
<path d="M184.159 405.423H176.101L173.925 398.147H181.983L184.159 405.423Z" fill="#7FB5D3"/>
<path d="M186.887 414.548H178.829L176.653 407.271H184.711L186.887 414.548Z" fill="#7FB5D3"/>
<path d="M174.293 405.423H166.235L164.068 398.147H172.118L174.293 405.423Z" fill="#7FB5D3"/>
<path d="M177.021 414.548H168.963L166.787 407.271H174.845L177.021 414.548Z" fill="#7FB5D3"/>
<path d="M199.103 416.404L198.149 418.186H166.754L167.708 416.404H199.103Z" fill="#006CA7"/>
<path d="M167.708 416.404L166.754 418.185L160.754 398.08L161.708 396.29L167.708 416.404Z" fill="#006CA7"/>
<path d="M158.763 414.673H156.964V427.99H158.763V414.673Z" fill="#006CA7"/>
<path d="M138.338 414.673H136.539V427.99H138.338V414.673Z" fill="#006CA7"/>
<path d="M156.194 427.167H159.524C160.202 427.167 160.763 427.722 160.763 428.41V428.654H154.964V428.41C154.964 427.73 155.516 427.167 156.203 427.167H156.194Z" fill="#006CA7"/>
<path d="M135.777 427.167H139.107C139.785 427.167 140.346 427.722 140.346 428.41V428.654H134.547V428.41C134.547 427.73 135.099 427.167 135.777 427.167Z" fill="#006CA7"/>
<path d="M164.294 416.387H132.957L126.966 396.307H158.311L164.294 416.387Z" fill="#4091BD"/>
<path d="M159.223 405.431H151.182L149.015 398.164H157.056L159.223 405.431Z" fill="#7FB5D3"/>
<path d="M161.943 414.539H153.901L151.726 407.271H159.775L161.943 414.539Z" fill="#7FB5D3"/>
<path d="M149.375 405.431H141.333L139.166 398.164H147.207L149.375 405.431Z" fill="#7FB5D3"/>
<path d="M152.094 414.539H144.044L141.877 407.271H149.927L152.094 414.539Z" fill="#7FB5D3"/>
<path d="M139.526 405.431H131.484L129.309 398.164H137.358L139.526 405.431Z" fill="#7FB5D3"/>
<path d="M142.245 414.539H134.196L132.028 407.271H140.078L142.245 414.539Z" fill="#7FB5D3"/>
<path d="M164.294 416.387L163.34 418.177H131.995L132.949 416.387H164.286H164.294Z" fill="#006CA7"/>
<path d="M132.957 416.387L132.003 418.177L126.02 398.096L126.974 396.307L132.966 416.387H132.957Z" fill="#006CA7"/>
<path d="M123.778 414.673H121.979V427.99H123.778V414.673Z" fill="#006CA7"/>
<path d="M103.369 414.673H101.57V427.99H103.369V414.673Z" fill="#006CA7"/>
<path d="M121.217 427.167H124.548C125.225 427.167 125.786 427.722 125.786 428.41V428.654H119.987V428.41C119.987 427.73 120.54 427.167 121.217 427.167Z" fill="#006CA7"/>
<path d="M100.8 427.167H104.131C104.817 427.167 105.369 427.722 105.369 428.41V428.654H99.5703V428.41C99.5703 427.73 100.123 427.167 100.8 427.167Z" fill="#006CA7"/>
<path d="M129.317 416.387H97.9805L91.9977 396.307H123.334L129.317 416.387Z" fill="#4091BD"/>
<path d="M124.247 405.431H116.197L114.03 398.164H122.079L124.247 405.431Z" fill="#7FB5D3"/>
<path d="M126.966 414.539H118.925L116.757 407.271H124.799L126.966 414.539Z" fill="#7FB5D3"/>
<path d="M114.398 405.431H106.348L104.181 398.164H112.222L114.398 405.431Z" fill="#7FB5D3"/>
<path d="M117.117 414.539H109.076L106.909 407.271H114.95L117.117 414.539Z" fill="#7FB5D3"/>
<path d="M104.557 405.431H96.5078L94.3406 398.164H102.382L104.557 405.431Z" fill="#7FB5D3"/>
<path d="M107.269 414.539H99.2273L97.0601 407.271H105.101L107.269 414.539Z" fill="#7FB5D3"/>
<path d="M129.317 416.387L128.372 418.177H97.0266L97.9805 416.387H129.317Z" fill="#006CA7"/>
<path d="M98.0893 416.371L97.1354 418.16L91.1526 398.08L92.1065 396.29L98.0893 416.371Z" fill="#006CA7"/>
<path d="M377.643 330.175H376.698L375.71 383.217H379.568L378.58 330.175H377.635H377.643Z" fill="#51B89F"/>
<path d="M379.702 369.588H375.576C375.049 369.588 374.614 370.177 374.614 370.899C374.614 371.622 375.049 372.21 375.576 372.21H379.702C380.229 372.21 380.664 371.622 380.664 370.899C380.664 370.177 380.237 369.588 379.702 369.588Z" fill="#51B89F"/>
<path d="M373.51 370.622C372.899 370.639 372.305 370.824 371.794 371.16L359.895 378.999C359.661 379.15 359.845 379.511 360.105 379.41L372.405 374.898C372.815 374.747 373.175 374.47 373.426 374.1C373.426 374.1 375.409 371.538 375.459 371.403L375.317 370.555L373.51 370.597V370.622Z" fill="#51B89F"/>
<path d="M380.647 371.79C380.313 371.512 379.894 371.336 379.451 371.302C379.451 371.302 376.246 370.866 376.112 370.882L375.451 371.428L376.396 372.974C376.714 373.495 377.175 373.924 377.719 374.193L390.437 380.62C390.688 380.746 390.906 380.41 390.697 380.225L380.656 371.781L380.647 371.79Z" fill="#51B89F"/>
<path d="M376.555 353.255C376.539 352.978 376.145 352.953 376.087 353.23L373.828 366.177C373.752 366.614 373.811 367.06 374.003 367.454C374.003 367.454 375.225 370.462 375.317 370.572L376.12 370.874L376.982 369.286C377.275 368.748 377.409 368.135 377.376 367.53L376.564 353.255H376.555Z" fill="#51B89F"/>
<path d="M375.576 369.588C375.049 369.588 374.614 370.177 374.614 370.899C374.614 371.622 375.049 372.21 375.576 372.21C376.104 372.21 376.539 371.622 376.539 370.899C376.539 370.177 376.112 369.588 375.576 369.588Z" fill="#51B89F"/>
<path d="M375.576 370.404C375.376 370.404 375.208 370.622 375.208 370.9C375.208 371.177 375.376 371.395 375.576 371.395C375.777 371.395 375.945 371.177 375.945 370.9C375.945 370.622 375.777 370.404 375.576 370.404Z" fill="#51B89F"/>
<path d="M375.258 369.874H375.016C374.698 369.874 373.3 370.37 373.309 370.899C373.309 371.395 374.731 371.924 375.016 371.924H375.258C375.627 371.924 375.936 371.47 375.936 370.899C375.936 370.328 375.635 369.874 375.258 369.874Z" fill="#51B89F"/>
<path fill-rule="evenodd" clip-rule="evenodd" d="M286.545 403.205C289.214 403.205 291.39 410.497 291.39 416.093C291.39 421.689 289.214 423.47 286.545 423.47C283.876 423.47 281.7 421.689 281.7 416.093C281.7 410.497 283.876 403.205 286.545 403.205Z" fill="#006CA7"/>
<path fill-rule="evenodd" clip-rule="evenodd" d="M249.995 411.254C251.61 411.254 252.915 415.648 252.915 419.017C252.915 422.386 251.602 423.462 249.995 423.462C248.389 423.462 247.075 422.386 247.075 419.017C247.075 415.648 248.389 411.254 249.995 411.254Z" fill="#006CA7"/>
<path fill-rule="evenodd" clip-rule="evenodd" d="M473.009 406.927C475.193 406.927 476.958 412.875 476.958 417.446C476.958 422.017 475.193 423.462 473.009 423.462C470.825 423.462 469.051 422.008 469.051 417.446C469.051 412.884 470.817 406.927 473.009 406.927Z" fill="#006CA7"/>
<path fill-rule="evenodd" clip-rule="evenodd" d="M413.281 386.115C414.896 386.115 416.201 390.509 416.201 393.879C416.201 397.248 414.887 398.323 413.281 398.323C411.674 398.323 410.361 397.248 410.361 393.879C410.361 390.509 411.674 386.115 413.281 386.115Z" fill="#006CA7"/>
<path fill-rule="evenodd" clip-rule="evenodd" d="M542.318 323.781C543.933 323.781 545.238 328.175 545.238 331.545C545.238 334.914 543.933 335.989 542.318 335.989C540.703 335.989 539.398 334.914 539.398 331.545C539.398 328.175 540.703 323.781 542.318 323.781Z" fill="#006CA7"/>
<path fill-rule="evenodd" clip-rule="evenodd" d="M452.307 313.858C453.922 313.858 455.228 318.253 455.228 321.622C455.228 324.991 453.914 326.066 452.307 326.066C450.701 326.066 449.387 324.991 449.387 321.622C449.387 318.253 450.701 313.858 452.307 313.858Z" fill="#006CA7"/>
<path fill-rule="evenodd" clip-rule="evenodd" d="M500.446 357.507C502.061 357.507 503.367 361.901 503.367 365.27C503.367 368.639 502.053 369.715 500.446 369.715C498.84 369.715 497.526 368.639 497.526 365.27C497.526 361.901 498.831 357.507 500.446 357.507Z" fill="#006CA7"/>
<path d="M454.784 370.504H453.839L452.851 423.546H456.709L455.721 370.504H454.776H454.784Z" fill="#006CA7"/>
<path d="M456.851 369.588H452.726C452.199 369.588 451.764 370.177 451.764 370.899C451.764 371.622 452.199 372.21 452.726 372.21H456.851C457.378 372.21 457.813 371.622 457.813 370.899C457.813 370.177 457.378 369.588 456.851 369.588Z" fill="#006CA7"/>
<path d="M450.651 370.622C450.04 370.639 449.446 370.824 448.935 371.16L437.037 378.999C436.802 379.15 436.986 379.511 437.246 379.41L449.546 374.898C449.956 374.747 450.316 374.47 450.567 374.1C450.567 374.1 452.55 371.538 452.6 371.403L452.458 370.555L450.651 370.597V370.622Z" fill="#006CA7"/>
<path d="M457.797 371.79C457.462 371.512 457.035 371.336 456.6 371.302C456.6 371.302 453.395 370.866 453.261 370.882L452.6 371.428L453.546 372.974C453.864 373.495 454.324 373.924 454.868 374.193L467.587 380.62C467.838 380.746 468.055 380.41 467.846 380.225L457.805 371.781L457.797 371.79Z" fill="#006CA7"/>
<path d="M453.697 353.255C453.68 352.978 453.287 352.953 453.228 353.23L450.969 366.177C450.893 366.614 450.952 367.06 451.145 367.454C451.145 367.454 452.366 370.462 452.458 370.572L453.261 370.874L454.123 369.286C454.416 368.748 454.55 368.135 454.517 367.53L453.705 353.255H453.697Z" fill="#006CA7"/>
<path d="M452.717 369.588C452.19 369.588 451.755 370.177 451.755 370.899C451.755 371.622 452.19 372.21 452.717 372.21C453.245 372.21 453.68 371.622 453.68 370.899C453.68 370.177 453.245 369.588 452.717 369.588Z" fill="#006CA7"/>
<path d="M452.718 370.404C452.517 370.404 452.349 370.622 452.349 370.9C452.349 371.177 452.517 371.395 452.718 371.395C452.918 371.395 453.086 371.177 453.086 370.9C453.086 370.622 452.918 370.404 452.718 370.404Z" fill="#006CA7"/>
<path d="M452.4 369.874H452.157C451.839 369.874 450.441 370.37 450.45 370.899C450.45 371.395 451.872 371.924 452.157 371.924H452.4C452.776 371.924 453.077 371.47 453.077 370.899C453.077 370.328 452.776 369.874 452.4 369.874Z" fill="#006CA7"/>
<path d="M503.626 273.025H502.681L501.693 326.067H505.559L504.572 273.025H503.626Z" fill="#006CA7"/>
<path d="M505.693 272.118H501.568C501.04 272.118 500.605 272.706 500.605 273.428C500.605 274.151 501.04 274.739 501.568 274.739H505.693C506.22 274.739 506.655 274.151 506.655 273.428C506.655 272.706 506.22 272.118 505.693 272.118Z" fill="#006CA7"/>
<path d="M499.501 273.159C498.89 273.176 498.296 273.361 497.785 273.697L485.887 281.545C485.652 281.696 485.836 282.057 486.096 281.956L498.396 277.444C498.806 277.293 499.166 277.016 499.417 276.646C499.417 276.646 501.4 274.084 501.45 273.949L501.308 273.101L499.501 273.143V273.159Z" fill="#006CA7"/>
<path d="M506.638 274.319C506.304 274.042 505.885 273.865 505.442 273.832C505.442 273.832 502.237 273.395 502.103 273.412L501.442 273.958L502.388 275.504C502.706 276.025 503.166 276.453 503.71 276.722L516.429 283.149C516.68 283.275 516.897 282.939 516.688 282.755L506.647 274.311L506.638 274.319Z" fill="#006CA7"/>
<path d="M502.538 255.784C502.522 255.507 502.128 255.482 502.07 255.751L499.811 268.698C499.735 269.126 499.794 269.58 499.986 269.975C499.986 269.975 501.208 272.983 501.3 273.092L502.103 273.395L502.965 271.807C503.258 271.269 503.392 270.656 503.358 270.051L502.547 255.776L502.538 255.784Z" fill="#006CA7"/>
<path d="M501.559 272.118C501.032 272.118 500.597 272.706 500.597 273.428C500.597 274.151 501.032 274.739 501.559 274.739C502.087 274.739 502.522 274.151 502.522 273.428C502.522 272.706 502.095 272.118 501.559 272.118Z" fill="#006CA7"/>
<path d="M501.559 272.933C501.359 272.933 501.191 273.151 501.191 273.428C501.191 273.706 501.359 273.924 501.559 273.924C501.76 273.924 501.928 273.706 501.928 273.428C501.928 273.151 501.76 272.933 501.559 272.933Z" fill="#006CA7"/>
<path d="M501.241 272.403H500.999C500.681 272.403 499.283 272.891 499.292 273.428C499.292 273.916 500.714 274.453 500.999 274.453H501.241C501.618 274.453 501.927 274 501.927 273.428C501.927 272.857 501.626 272.403 501.241 272.403Z" fill="#006CA7"/>
<path d="M431.397 281.083H430.451L429.464 334.124H433.33L432.342 281.083H431.397Z" fill="#006CA7"/>
<path d="M433.464 280.175H429.338C428.811 280.175 428.376 280.763 428.376 281.486C428.376 282.209 428.811 282.797 429.338 282.797H433.464C433.991 282.797 434.426 282.209 434.426 281.486C434.426 280.763 433.991 280.175 433.464 280.175Z" fill="#006CA7"/>
<path d="M427.263 281.217C426.652 281.234 426.058 281.419 425.548 281.755L413.649 289.602C413.415 289.753 413.599 290.115 413.858 290.014L426.159 285.502C426.569 285.351 426.929 285.074 427.18 284.704C427.18 284.704 429.163 282.141 429.213 282.007L429.071 281.158L427.263 281.209V281.217Z" fill="#006CA7"/>
<path d="M434.409 282.377C434.074 282.099 433.656 281.923 433.213 281.889C433.213 281.889 430.008 281.452 429.874 281.469L429.213 282.015L430.158 283.561C430.476 284.082 430.937 284.511 431.481 284.78L444.199 291.207C444.45 291.333 444.668 290.997 444.459 290.812L434.418 282.368L434.409 282.377Z" fill="#006CA7"/>
<path d="M430.309 263.842C430.292 263.565 429.899 263.539 429.84 263.808L427.581 276.764C427.506 277.201 427.564 277.646 427.757 278.041C427.757 278.041 428.979 281.049 429.071 281.158L429.874 281.461L430.736 279.873C431.029 279.335 431.163 278.722 431.129 278.108L430.317 263.833L430.309 263.842Z" fill="#006CA7"/>
<path d="M429.33 280.175C428.803 280.175 428.368 280.763 428.368 281.486C428.368 282.209 428.794 282.797 429.33 282.797C429.865 282.797 430.292 282.209 430.292 281.486C430.292 280.763 429.857 280.175 429.33 280.175Z" fill="#006CA7"/>
<path d="M429.33 280.99C429.129 280.99 428.962 281.209 428.962 281.486C428.962 281.763 429.121 281.982 429.33 281.982C429.539 281.982 429.698 281.763 429.698 281.486C429.698 281.209 429.531 280.99 429.33 280.99Z" fill="#006CA7"/>
<path d="M429.012 280.461H428.769C428.451 280.461 427.054 280.948 427.062 281.486C427.062 281.973 428.485 282.511 428.769 282.511H429.012C429.388 282.511 429.69 282.057 429.69 281.486C429.69 280.915 429.388 280.461 429.012 280.461Z" fill="#006CA7"/>
<path d="M531.925 370.504H530.972L529.984 423.546H533.85L532.863 370.504H531.917H531.925Z" fill="#006CA7"/>
<path d="M533.992 369.588H529.867C529.34 369.588 528.905 370.177 528.905 370.899C528.905 371.622 529.34 372.21 529.867 372.21H533.992C534.519 372.21 534.955 371.622 534.955 370.899C534.955 370.177 534.519 369.588 533.992 369.588Z" fill="#006CA7"/>
<path d="M527.8 370.622C527.189 370.639 526.595 370.824 526.085 371.16L514.186 378.999C513.952 379.15 514.136 379.511 514.395 379.41L526.696 374.898C527.106 374.747 527.465 374.47 527.716 374.1C527.716 374.1 529.7 371.538 529.75 371.403L529.608 370.555L527.8 370.597V370.622Z" fill="#006CA7"/>
<path d="M534.938 371.79C534.603 371.512 534.176 371.336 533.741 371.302C533.741 371.302 530.536 370.866 530.402 370.882L529.741 371.428L530.687 372.974C531.005 373.495 531.465 373.924 532.009 374.193L544.728 380.62C544.979 380.746 545.196 380.41 544.987 380.225L534.946 371.781L534.938 371.79Z" fill="#006CA7"/>
<path d="M530.838 353.255C530.821 352.978 530.428 352.953 530.369 353.23L528.11 366.177C528.034 366.614 528.093 367.06 528.286 367.454C528.286 367.454 529.507 370.462 529.599 370.572L530.402 370.874L531.264 369.286C531.557 368.748 531.691 368.135 531.658 367.53L530.846 353.255H530.838Z" fill="#006CA7"/>
<path d="M529.859 369.588C529.331 369.588 528.896 370.177 528.896 370.899C528.896 371.622 529.323 372.21 529.859 372.21C530.394 372.21 530.821 371.622 530.821 370.899C530.821 370.177 530.394 369.588 529.859 369.588Z" fill="#006CA7"/>
<path d="M529.859 370.404C529.658 370.404 529.49 370.622 529.49 370.9C529.49 371.177 529.658 371.395 529.859 371.395C530.059 371.395 530.227 371.177 530.227 370.9C530.227 370.622 530.068 370.404 529.859 370.404Z" fill="#006CA7"/>
<path d="M529.541 369.874H529.298C528.98 369.874 527.583 370.37 527.591 370.899C527.591 371.395 529.014 371.924 529.298 371.924H529.541C529.917 371.924 530.219 371.47 530.219 370.899C530.219 370.328 529.917 369.874 529.541 369.874Z" fill="#006CA7"/>
<path d="M164.545 339.829H165.491L166.478 392.871H162.612L163.599 339.829H164.545Z" fill="#006CA7"/>
<path d="M162.403 338.316H166.528C167.055 338.316 167.49 338.905 167.49 339.627C167.49 340.35 167.055 340.938 166.528 340.938H162.403C161.876 340.938 161.441 340.35 161.441 339.627C161.441 338.905 161.876 338.316 162.403 338.316Z" fill="#006CA7"/>
<path d="M168.67 339.955C169.281 339.972 169.875 340.156 170.386 340.493L182.284 348.332C182.519 348.483 182.335 348.844 182.075 348.743L169.775 344.24C169.365 344.089 169.005 343.811 168.754 343.442C168.754 343.442 166.771 340.879 166.721 340.745L166.863 339.896L168.67 339.946V339.955Z" fill="#006CA7"/>
<path d="M161.533 341.123C161.867 340.845 162.286 340.669 162.729 340.635C162.729 340.635 165.934 340.199 166.068 340.215L166.729 340.761L165.783 342.307C165.465 342.828 165.005 343.257 164.461 343.526L151.743 349.953C151.492 350.079 151.274 349.743 151.483 349.558L161.524 341.114L161.533 341.123Z" fill="#006CA7"/>
<path d="M165.633 322.588C165.649 322.311 166.043 322.286 166.101 322.555L168.361 335.502C168.436 335.939 168.377 336.384 168.185 336.779C168.185 336.779 166.963 339.787 166.871 339.896L166.068 340.199L165.206 338.611C164.913 338.073 164.779 337.46 164.813 336.855L165.624 322.58L165.633 322.588Z" fill="#006CA7"/>
<path d="M166.612 338.921C167.139 338.921 167.574 339.51 167.574 340.232C167.574 340.955 167.147 341.543 166.612 341.543C166.076 341.543 165.65 340.955 165.65 340.232C165.65 339.51 166.085 338.921 166.612 338.921Z" fill="#006CA7"/>
<path d="M166.612 339.736C166.813 339.736 166.98 339.955 166.98 340.232C166.98 340.509 166.821 340.728 166.612 340.728C166.403 340.728 166.244 340.501 166.244 340.232C166.244 339.963 166.403 339.736 166.612 339.736Z" fill="#006CA7"/>
<path d="M166.921 339.207H167.164C167.482 339.207 168.879 339.694 168.871 340.232C168.871 340.719 167.448 341.257 167.164 341.257H166.921C166.545 341.257 166.244 340.803 166.244 340.232C166.244 339.661 166.545 339.207 166.921 339.207Z" fill="#006CA7"/>
<path d="M136.011 261.036H136.957L137.944 314.077H134.087L135.074 261.036H136.02H136.011Z" fill="#006CA7"/>
<path d="M133.945 260.128H138.07C138.597 260.128 139.032 260.716 139.032 261.439C139.032 262.161 138.605 262.749 138.07 262.749H133.945C133.417 262.749 132.982 262.161 132.982 261.439C132.982 260.716 133.409 260.128 133.945 260.128Z" fill="#006CA7"/>
<path d="M140.137 261.161C140.748 261.178 141.342 261.363 141.852 261.699L153.751 269.538C153.985 269.689 153.801 270.051 153.542 269.95L141.241 265.438C140.831 265.287 140.471 265.01 140.22 264.64C140.22 264.64 138.237 262.077 138.187 261.943L138.329 261.094L140.137 261.145V261.161Z" fill="#006CA7"/>
<path d="M132.999 262.321C133.334 262.044 133.752 261.867 134.196 261.825C134.196 261.825 137.4 261.388 137.534 261.405L138.195 261.951L137.25 263.497C136.932 264.018 136.472 264.447 135.928 264.716L123.209 271.143C122.958 271.269 122.74 270.933 122.949 270.748L132.991 262.304L132.999 262.321Z" fill="#006CA7"/>
<path d="M137.091 243.795C137.108 243.518 137.501 243.492 137.559 243.761L139.819 256.717C139.894 257.146 139.835 257.599 139.643 257.994C139.643 257.994 138.421 261.002 138.329 261.111L137.526 261.414L136.664 259.826C136.371 259.288 136.237 258.675 136.271 258.061L137.082 243.787L137.091 243.795Z" fill="#006CA7"/>
<path d="M138.07 260.128C138.597 260.128 139.032 260.716 139.032 261.439C139.032 262.161 138.597 262.749 138.07 262.749C137.543 262.749 137.108 262.161 137.108 261.439C137.108 260.716 137.534 260.128 138.07 260.128Z" fill="#006CA7"/>
<path d="M138.07 260.935C138.271 260.935 138.438 261.161 138.438 261.43C138.438 261.699 138.271 261.926 138.07 261.926C137.869 261.926 137.702 261.708 137.702 261.43C137.702 261.153 137.869 260.935 138.07 260.935Z" fill="#006CA7"/>
<path d="M138.388 260.414H138.63C138.948 260.414 140.346 260.901 140.337 261.439C140.337 261.926 138.915 262.464 138.63 262.464H138.388C138.011 262.464 137.71 262.01 137.71 261.439C137.71 260.868 138.011 260.414 138.388 260.414Z" fill="#006CA7"/>
<path d="M87.3955 339.829H88.341L89.3284 392.871H85.4709L86.4583 339.829H87.4039H87.3955Z" fill="#006CA7"/>
<path d="M85.337 338.921H89.4623C89.9894 338.921 90.4245 339.51 90.4245 340.232C90.4245 340.955 89.9978 341.543 89.4623 341.543H85.337C84.8099 341.543 84.3748 340.955 84.3748 340.232C84.3748 339.51 84.8015 338.921 85.337 338.921Z" fill="#006CA7"/>
<path d="M91.5291 339.955C92.14 339.972 92.7341 340.156 93.2445 340.493L105.143 348.332C105.378 348.483 105.193 348.844 104.934 348.743L92.6337 344.24C92.2153 344.089 91.8638 343.811 91.6128 343.442C91.6128 343.442 89.6297 340.879 89.5795 340.745L89.7217 339.896L91.5291 339.946V339.955Z" fill="#006CA7"/>
<path d="M84.3916 341.123C84.7263 340.845 85.1446 340.669 85.5881 340.635C85.5881 340.635 88.7929 340.199 88.9268 340.215L89.5879 340.761L88.6423 342.307C88.3243 342.828 87.8641 343.257 87.3202 343.526L74.6014 349.953C74.3504 350.079 74.1329 349.743 74.342 349.558L84.3832 341.114L84.3916 341.123Z" fill="#006CA7"/>
<path d="M88.4917 322.588C88.5084 322.311 88.9017 322.286 88.9603 322.555L91.2195 335.502C91.2948 335.939 91.2363 336.384 91.0438 336.779C91.0438 336.779 89.8221 339.787 89.7301 339.896L88.9268 340.199L88.0649 338.611C87.7721 338.073 87.6382 337.46 87.6717 336.855L88.4833 322.58L88.4917 322.588Z" fill="#006CA7"/>
<path d="M89.6045 339.157C90.1316 339.157 90.5668 339.745 90.5668 340.467C90.5668 341.19 90.14 341.778 89.6045 341.778C89.069 341.778 88.6422 341.19 88.6422 340.467C88.6422 339.745 89.069 339.157 89.6045 339.157Z" fill="#006CA7"/>
<path d="M89.9141 339.434H90.1568C90.4747 339.434 91.8721 339.93 91.8638 340.459C91.8638 340.946 90.4413 341.484 90.1568 341.484H89.9141C89.5376 341.484 89.2363 341.03 89.2363 340.459C89.2363 339.888 89.5376 339.434 89.9141 339.434Z" fill="#006CA7"/>
<path d="M38.5537 242.358H39.4992L40.4866 295.399H36.6292L37.6165 242.358H38.5621H38.5537Z" fill="#006CA7"/>
<path d="M36.4952 241.451H40.6205C41.1476 241.451 41.5827 242.039 41.5827 242.761C41.5827 243.484 41.156 244.072 40.6205 244.072H36.4952C35.9681 244.072 35.533 243.484 35.533 242.761C35.533 242.039 35.9681 241.451 36.4952 241.451Z" fill="#006CA7"/>
<path d="M42.6873 242.059C43.2981 242.076 43.8922 242.26 44.4026 242.597L56.3097 250.444C56.544 250.595 56.36 250.956 56.1006 250.856L43.8002 246.344C43.3818 246.193 43.0303 245.915 42.7793 245.546C42.7793 245.546 40.7962 242.983 40.746 242.849L40.8882 242L42.6956 242.05L42.6873 242.059Z" fill="#006CA7"/>
<path d="M35.5498 243.644C35.8845 243.366 36.3028 243.19 36.7463 243.156C36.7463 243.156 39.9511 242.72 40.085 242.736L40.746 243.282L39.8005 244.828C39.4825 245.349 39.0223 245.778 38.4784 246.047L25.7596 252.474C25.5086 252.6 25.2911 252.264 25.5002 252.079L35.5414 243.635L35.5498 243.644Z" fill="#006CA7"/>
<path d="M39.6415 225.109C39.6582 224.832 40.0515 224.806 40.11 225.075L42.3693 238.023C42.4446 238.46 42.386 238.905 42.1936 239.3C42.1936 239.3 40.9719 242.308 40.8799 242.417L40.0766 242.719L39.2147 241.131C38.9218 240.594 38.788 239.98 38.8214 239.367L39.6415 225.092V225.109Z" fill="#006CA7"/>
<path d="M40.9385 241.736H41.1811C41.4991 241.736 42.8965 242.232 42.8881 242.761C42.8881 243.249 41.4656 243.786 41.1811 243.786H40.9385C40.5619 243.786 40.2523 243.333 40.2523 242.761C40.2523 242.19 40.5536 241.736 40.9385 241.736Z" fill="#006CA7"/>
<path d="M10.2627 371.479H11.2082L12.1956 424.52H8.33813L9.32551 371.479H10.2711H10.2627Z" fill="#006CA7"/>
<path d="M8.19592 370.572H12.3212C12.8483 370.572 13.2834 371.152 13.2834 371.882C13.2834 372.613 12.8567 373.193 12.3212 373.193H8.19592C7.66876 373.193 7.23364 372.605 7.23364 371.882C7.23364 371.16 7.66039 370.572 8.19592 370.572Z" fill="#006CA7"/>
<path d="M14.388 371.605C14.9988 371.622 15.5929 371.807 16.1034 372.143L28.0021 379.982C28.2364 380.133 28.0523 380.495 27.7929 380.394L15.4925 375.882C15.0825 375.731 14.7227 375.453 14.4717 375.084C14.4717 375.084 12.4886 372.521 12.4384 372.387L12.5806 371.538L14.388 371.588V371.605Z" fill="#006CA7"/>
<path d="M7.25044 372.773C7.58515 372.496 8.00353 372.319 8.44701 372.286C8.44701 372.286 11.6518 371.849 11.7857 371.866L12.4467 372.412L11.5012 373.958C11.1832 374.479 10.723 374.907 10.1791 375.176L-2.53968 381.604C-2.7907 381.73 -3.00826 381.393 -2.79907 381.209L7.24207 372.765L7.25044 372.773Z" fill="#006CA7"/>
<path d="M11.3421 354.238C11.3589 353.952 11.7522 353.936 11.8107 354.213L14.07 367.16C14.1453 367.589 14.0867 368.043 13.8943 368.437C13.8943 368.437 12.6726 371.445 12.5806 371.555L11.7773 371.857L10.9154 370.269C10.6225 369.731 10.4886 369.118 10.5221 368.513L11.3338 354.238H11.3421Z" fill="#006CA7"/>
<path d="M12.3212 370.572C12.8483 370.572 13.2834 371.152 13.2834 371.882C13.2834 372.613 12.8567 373.193 12.3212 373.193C11.7856 373.193 11.3589 372.605 11.3589 371.882C11.3589 371.16 11.7856 370.572 12.3212 370.572Z" fill="#006CA7"/>
<path d="M12.3212 371.387C12.522 371.387 12.6894 371.605 12.6894 371.882C12.6894 372.16 12.5304 372.378 12.3212 372.378C12.112 372.378 11.953 372.151 11.953 371.882C11.953 371.614 12.1204 371.387 12.3212 371.387Z" fill="#006CA7"/>
<path d="M12.6392 370.849H12.8819C13.1998 370.849 14.5972 371.336 14.5889 371.874C14.5889 372.369 13.1664 372.899 12.8819 372.899H12.6392C12.271 372.899 11.9614 372.445 11.9614 371.874C11.9614 371.302 12.2627 370.849 12.6392 370.849Z" fill="#006CA7"/>
<path fill-rule="evenodd" clip-rule="evenodd" d="M255.635 404.179C252.966 404.179 250.79 411.472 250.79 417.068C250.79 422.663 252.966 424.445 255.635 424.445C258.304 424.445 260.48 422.663 260.48 417.068C260.48 411.472 258.304 404.179 255.635 404.179Z" fill="#006CA7"/>
<path fill-rule="evenodd" clip-rule="evenodd" d="M292.185 412.229C290.57 412.229 289.264 416.623 289.264 419.992C289.264 423.361 290.578 424.437 292.185 424.437C293.791 424.437 295.105 423.361 295.105 419.992C295.105 416.623 293.791 412.229 292.185 412.229Z" fill="#006CA7"/>
<path fill-rule="evenodd" clip-rule="evenodd" d="M69.1708 407.91C66.9868 407.91 65.2129 413.858 65.2129 418.429C65.2129 423 66.9868 424.445 69.1708 424.445C71.3547 424.445 73.1203 422.991 73.1203 418.429C73.1203 413.867 71.3547 407.91 69.1708 407.91Z" fill="#006CA7"/>
<path fill-rule="evenodd" clip-rule="evenodd" d="M-0.129871 324.764C-1.74482 324.764 -3.05017 329.158 -3.05017 332.528C-3.05017 335.897 -1.74482 336.972 -0.129871 336.972C1.48508 336.972 2.79043 335.897 2.79043 332.528C2.79043 329.158 1.48508 324.764 -0.129871 324.764Z" fill="#006CA7"/>
<path fill-rule="evenodd" clip-rule="evenodd" d="M64.7861 314.791C63.1712 314.791 61.8658 319.185 61.8658 322.554C61.8658 325.924 63.1796 326.999 64.7861 326.999C66.3927 326.999 67.7064 325.924 67.7064 322.554C67.7064 319.185 66.3927 314.791 64.7861 314.791Z" fill="#006CA7"/>
<path fill-rule="evenodd" clip-rule="evenodd" d="M41.7417 358.49C40.1268 358.49 38.8214 362.884 38.8214 366.253C38.8214 369.622 40.1351 370.698 41.7417 370.698C43.3483 370.698 44.662 369.622 44.662 366.253C44.662 362.884 43.3567 358.49 41.7417 358.49Z" fill="#006CA7"/>
<path d="M516.052 515.849V677.872H42.0513V515.849H51.3059C57.6904 503.053 64.0665 490.232 70.4342 477.427C76.0071 466.244 87.387 459.17 99.8381 459.17H121.452L362.791 459.33V459.17H453.194C465.645 459.17 477.025 466.236 482.598 477.427C488.974 490.223 495.342 503.045 501.727 515.849H516.06H516.052Z" fill="url(#paint3_linear_1073_1058)"/>
<path d="M283.507 459.094H281.031L287.223 449.256H289.666L283.507 459.094Z" fill="#006CA7"/>
<path d="M291.473 459.094H293.95L289.691 449.256H287.256L291.482 459.094H291.473Z" fill="#006CA7"/>
<path d="M294.243 459.094H291.766L297.799 449.256H300.243L294.243 459.094Z" fill="#006CA7"/>
<path d="M302.209 459.094H304.686L300.268 449.256H297.824L302.209 459.094Z" fill="#006CA7"/>
<path d="M304.97 459.094H302.494L308.368 449.256H310.803L304.97 459.094Z" fill="#006CA7"/>
<path d="M312.936 459.094H315.413L310.828 449.256H308.393L312.936 459.094Z" fill="#006CA7"/>
<path d="M315.706 459.094H313.229L318.944 449.256H321.379L315.706 459.094Z" fill="#006CA7"/>
<path d="M323.672 459.094H326.149L321.404 449.256H318.969L323.672 459.094Z" fill="#006CA7"/>
<path d="M326.433 459.094H323.957L329.504 449.256H331.939L326.425 459.094H326.433Z" fill="#006CA7"/>
<path d="M334.399 459.094H336.876L331.964 449.256H329.529L334.399 459.094Z" fill="#006CA7"/>
<path d="M337.169 459.094H334.692L340.081 449.256H342.524L337.169 459.094Z" fill="#006CA7"/>
<path d="M345.135 459.094H347.612L342.549 449.256H340.106L345.135 459.094Z" fill="#006CA7"/>
<path d="M347.896 459.094H345.419L350.649 449.256H353.084L347.896 459.094Z" fill="#006CA7"/>
<path d="M355.862 459.094H358.339L353.109 449.256H350.674L355.862 459.094Z" fill="#006CA7"/>
<path d="M358.632 459.094H356.155L361.217 449.256H363.652L358.623 459.094H358.632Z" fill="#006CA7"/>
<path d="M366.598 459.094H369.075L363.686 449.256H361.251L366.606 459.094H366.598Z" fill="#006CA7"/>
<path d="M369.359 459.094H366.882L371.786 449.256H374.229L369.359 459.094Z" fill="#006CA7"/>
<path d="M377.325 459.094H379.802L374.254 449.256H371.811L377.325 459.094Z" fill="#006CA7"/>
<path d="M380.095 459.094H377.618L382.363 449.256H384.798L380.095 459.094Z" fill="#006CA7"/>
<path d="M388.061 459.094H390.538L384.823 449.256H382.379L388.061 459.094Z" fill="#006CA7"/>
<path d="M390.831 459.094H388.354L392.939 449.256H395.374L390.831 459.094Z" fill="#006CA7"/>
<path d="M398.788 459.094H401.265L395.391 449.256H392.956L398.788 459.094Z" fill="#006CA7"/>
<path d="M401.558 459.094H399.081L403.499 449.256H405.934L401.558 459.094Z" fill="#006CA7"/>
<path d="M409.524 459.094H412.001L405.959 449.256H403.524L409.524 459.094Z" fill="#006CA7"/>
<path d="M412.285 459.094H409.817L414.076 449.256H416.511L412.285 459.094Z" fill="#006CA7"/>
<path d="M420.259 459.094H422.736L416.536 449.256H414.101L420.259 459.094Z" fill="#006CA7"/>
<path d="M416.787 449.264H287.139C308.384 413.018 315.229 353.482 315.622 338.35C315.999 323.538 316.585 300.769 316.585 300.769H387.341C387.341 300.769 387.927 323.529 388.303 338.35C388.697 353.474 395.533 413.018 416.787 449.264Z" fill="#4091BD"/>
<path d="M372.673 449.264H308.393C322.969 413.018 327.647 353.482 327.914 338.35C328.174 323.529 328.576 300.769 328.576 300.769H363.661C363.661 300.769 363.837 323.521 363.954 338.35C364.079 353.474 366.171 413.018 372.673 449.264Z" fill="#7FB5D3"/>
<path d="M85.5546 484.611L76.4004 522.294L101.495 525.033L91.7801 484.62C90.9852 481.292 86.3746 481.284 85.5629 484.62L85.5546 484.611Z" fill="#7FB5D3"/>
<path d="M88.684 491.35C88.3912 491.35 88.1401 491.593 88.1401 491.896V526.134C88.1401 526.428 88.3828 526.68 88.684 526.68C88.9853 526.68 89.2279 526.436 89.2279 526.134V491.896C89.2279 491.602 88.9853 491.35 88.684 491.35Z" fill="#006CA7"/>
<path d="M93.0855 502.465L89.2113 506.431V502.365C89.2113 502.264 89.1778 502.163 89.1276 502.071L85.722 496.677C85.563 496.424 85.2283 496.349 84.9773 496.509C84.7262 496.668 84.6509 497.004 84.8099 497.256L88.1319 502.524V507.767C88.1319 507.986 88.2657 508.187 88.4666 508.271C88.5335 508.296 88.6005 508.313 88.6674 508.313C88.8096 508.313 88.9435 508.254 89.0523 508.145L93.8553 503.222C94.0645 503.003 94.0561 502.667 93.8553 502.457C93.6378 502.247 93.3031 502.255 93.0939 502.457L93.0855 502.465Z" fill="#006CA7"/>
<path d="M309.966 460.951C307.113 460.951 304.56 462.22 302.786 464.228C302.619 458.885 298.352 454.6 293.105 454.6C291.641 454.6 290.26 454.936 289.022 455.532C289.022 455.465 289.03 455.389 289.03 455.314C289.03 449.819 284.696 445.366 279.34 445.366C277.156 445.366 275.148 446.114 273.525 447.365C273.023 442.358 268.906 438.451 263.885 438.451C261.409 438.451 259.149 439.417 257.442 440.98C256.02 437.3 252.531 434.695 248.439 434.695C243.334 434.695 239.159 438.745 238.783 443.887C237.335 442.996 235.645 442.476 233.829 442.476C228.474 442.476 224.139 446.929 224.139 452.423V470.874H319.656C319.656 465.379 315.321 460.926 309.966 460.926V460.951Z" fill="#006CA7"/>
<path d="M142.764 525.613V547.323H56.8119C55.1216 542.744 53.5653 538.09 52.1511 533.376C54.1928 530.225 57.6654 528.159 61.6233 528.159C63.3386 528.159 64.962 528.562 66.4347 529.268C66.4347 529.184 66.4179 529.1 66.4179 529.007C66.4179 522.546 71.5222 517.312 77.8146 517.312C80.3919 517.312 82.7515 518.194 84.651 519.664C85.2451 513.766 90.0983 509.17 95.9975 509.17C98.9178 509.17 101.57 510.313 103.587 512.161C105.168 508.061 108.942 505.095 113.436 504.793C113.695 504.776 113.938 504.768 114.189 504.768C120.188 504.768 125.1 509.54 125.544 515.581C127.184 514.573 129.075 513.976 131.125 513.934C131.208 513.934 131.284 513.934 131.367 513.934C137.66 513.934 142.764 519.177 142.764 525.638V525.613Z" fill="#BFDAE9"/>
<path d="M144.981 432.385L158.847 470.975H237.979L224.122 432.385H144.981Z" fill="#006CA7"/>
<path d="M150.981 432.385L164.838 470.975H169.708L155.851 432.385H150.981Z" fill="#BFDAE9"/>
<path d="M213.529 432.385L227.386 470.975H232.256L218.399 432.385H213.529Z" fill="#BFDAE9"/>
<path d="M163.491 432.385L177.347 470.975H182.217L168.352 432.385H163.482H163.491Z" fill="#BFDAE9"/>
<path d="M176 432.385L189.865 470.975H194.735L180.879 432.385H176Z" fill="#BFDAE9"/>
<path d="M188.51 432.385L202.367 470.975H207.237L193.38 432.385H188.51Z" fill="#BFDAE9"/>
<path d="M201.019 432.385L214.885 470.975H219.755L205.898 432.385H201.019Z" fill="#BFDAE9"/>
<path d="M158.847 470.983V547.332H131.125V470.983L144.981 432.385L158.847 470.983Z" fill="white"/>
<path d="M237.979 470.975H158.847V547.323H237.979V470.975Z" fill="#006CA7"/>
<path d="M258.748 491.744V547.323H182.636V491.744H210.316C214.29 486.964 218.265 482.2 222.24 477.419C227.495 482.2 232.741 486.964 237.996 491.744H258.756H258.748Z" fill="white"/>
<path d="M314.091 491.744V547.331H258.739V491.744L286.419 463.951L314.099 491.744H314.091Z" fill="#7FB5D3"/>
<path d="M182.627 491.744H258.739C267.96 482.485 277.19 473.218 286.419 463.951H212.224C202.358 473.21 192.493 482.477 182.627 491.744Z" fill="#4091BD"/>
<path d="M251.819 477.847C247.217 482.485 242.598 487.106 237.988 491.744C232.733 486.964 227.486 482.2 222.231 477.419C232.097 477.562 241.962 477.696 251.819 477.847Z" fill="#006CA7"/>
<path d="M272.278 505.633H269.375V508.615H272.278V505.633Z" fill="#006CA7"/>
<path d="M272.278 514.598H269.375V517.58H272.278V514.598Z" fill="#006CA7"/>
<path d="M272.278 523.546H269.375V526.529H272.278V523.546Z" fill="#006CA7"/>
<path d="M272.278 532.494H269.375V535.476H272.278V532.494Z" fill="#006CA7"/>
<path d="M281.005 505.633H278.102V508.615H281.005V505.633Z" fill="#006CA7"/>
<path d="M281.005 514.598H278.102V517.58H281.005V514.598Z" fill="#006CA7"/>
<path d="M281.005 523.546H278.102V526.529H281.005V523.546Z" fill="#006CA7"/>
<path d="M281.005 532.494H278.102V535.476H281.005V532.494Z" fill="#006CA7"/>
<path d="M289.725 505.633H286.821V508.615H289.725V505.633Z" fill="#006CA7"/>
<path d="M289.725 514.598H286.821V517.58H289.725V514.598Z" fill="#006CA7"/>
<path d="M289.725 523.546H286.821V526.529H289.725V523.546Z" fill="#006CA7"/>
<path d="M289.725 532.494H286.821V535.476H289.725V532.494Z" fill="#006CA7"/>
<path d="M298.452 505.633H295.548V508.615H298.452V505.633Z" fill="#006CA7"/>
<path d="M298.452 514.598H295.548V517.58H298.452V514.598Z" fill="#006CA7"/>
<path d="M298.452 523.546H295.548V526.529H298.452V523.546Z" fill="#006CA7"/>
<path d="M298.452 532.494H295.548V535.476H298.452V532.494Z" fill="#006CA7"/>
<path d="M307.171 505.633H304.268V508.615H307.171V505.633Z" fill="#006CA7"/>
<path d="M307.171 514.598H304.268V517.58H307.171V514.598Z" fill="#006CA7"/>
<path d="M307.171 523.546H304.268V526.529H307.171V523.546Z" fill="#006CA7"/>
<path d="M307.171 532.494H304.268V535.476H307.171V532.494Z" fill="#006CA7"/>
<path d="M193.271 506.212H189.547V516.48H193.271V506.212Z" fill="#006CA7"/>
<path d="M208.433 506.212H204.709V516.48H208.433V506.212Z" fill="#006CA7"/>
<path d="M223.595 506.212H219.872V516.48H223.595V506.212Z" fill="#006CA7"/>
<path d="M238.757 506.212H235.034V516.48H238.757V506.212Z" fill="#006CA7"/>
<path d="M253.919 506.212H250.196V516.48H253.919V506.212Z" fill="#006CA7"/>
<path d="M193.271 524.353H189.547V534.62H193.271V524.353Z" fill="#006CA7"/>
<path d="M208.433 524.353H204.709V534.62H208.433V524.353Z" fill="#006CA7"/>
<path d="M223.595 524.353H219.872V534.62H223.595V524.353Z" fill="#006CA7"/>
<path d="M238.757 524.353H235.034V534.62H238.757V524.353Z" fill="#006CA7"/>
<path d="M253.919 524.353H250.196V534.62H253.919V524.353Z" fill="#006CA7"/>
<path d="M193.271 515.287H189.547V516.446H193.271V515.287Z" fill="#006CA7"/>
<path d="M208.433 515.287H204.709V516.446H208.433V515.287Z" fill="#006CA7"/>
<path d="M223.595 515.287H219.872V516.446H223.595V515.287Z" fill="#006CA7"/>
<path d="M238.757 515.287H235.034V516.446H238.757V515.287Z" fill="#006CA7"/>
<path d="M253.919 515.287H250.196V516.446H253.919V515.287Z" fill="#006CA7"/>
<path d="M193.271 533.418H189.547V534.577H193.271V533.418Z" fill="#006CA7"/>
<path d="M208.433 533.418H204.709V534.577H208.433V533.418Z" fill="#006CA7"/>
<path d="M223.595 533.418H219.872V534.577H223.595V533.418Z" fill="#006CA7"/>
<path d="M238.757 533.418H235.034V534.577H238.757V533.418Z" fill="#006CA7"/>
<path d="M253.919 533.418H250.196V534.577H253.919V533.418Z" fill="#006CA7"/>
<path d="M355.611 491.45H390.555L373.083 470.605L355.611 491.45Z" fill="#006CA7"/>
<path d="M373.083 470.605L390.554 491.45H445.563L428.092 470.605H373.083Z" fill="#006CA7"/>
<path d="M389.734 491.45H355.611V547.323H389.734V491.45Z" fill="#006CA7"/>
<path d="M445.572 491.45H389.743V547.323H445.572V491.45Z" fill="#7FB5D3"/>
<path d="M399.374 498.398H397.131V500.692H399.374V498.398Z" fill="#006CA7"/>
<path d="M399.374 505.297H397.131V507.591H399.374V505.297Z" fill="#006CA7"/>
<path d="M399.374 512.195H397.131V514.489H399.374V512.195Z" fill="#006CA7"/>
<path d="M399.374 519.084H397.131V521.378H399.374V519.084Z" fill="#006CA7"/>
<path d="M399.374 525.974H397.131V528.267H399.374V525.974Z" fill="#006CA7"/>
<path d="M406.085 498.398H403.842V500.692H406.085V498.398Z" fill="#006CA7"/>
<path d="M406.085 505.297H403.842V507.591H406.085V505.297Z" fill="#006CA7"/>
<path d="M406.085 512.195H403.842V514.489H406.085V512.195Z" fill="#006CA7"/>
<path d="M406.085 519.084H403.842V521.378H406.085V519.084Z" fill="#006CA7"/>
<path d="M406.085 525.974H403.842V528.267H406.085V525.974Z" fill="#006CA7"/>
<path d="M412.812 498.398H410.57V500.692H412.812V498.398Z" fill="#006CA7"/>
<path d="M412.812 505.297H410.57V507.591H412.812V505.297Z" fill="#006CA7"/>
<path d="M412.812 512.195H410.57V514.489H412.812V512.195Z" fill="#006CA7"/>
<path d="M412.812 519.084H410.57V521.378H412.812V519.084Z" fill="#006CA7"/>
<path d="M412.812 525.974H410.57V528.267H412.812V525.974Z" fill="#006CA7"/>
<path d="M419.532 498.398H417.289V500.692H419.532V498.398Z" fill="#006CA7"/>
<path d="M419.532 505.297H417.289V507.591H419.532V505.297Z" fill="#006CA7"/>
<path d="M419.532 512.195H417.289V514.489H419.532V512.195Z" fill="#006CA7"/>
<path d="M419.532 519.084H417.289V521.378H419.532V519.084Z" fill="#006CA7"/>
<path d="M419.532 525.974H417.289V528.267H419.532V525.974Z" fill="#006CA7"/>
<path d="M426.242 498.398H424V500.692H426.242V498.398Z" fill="#006CA7"/>
<path d="M426.242 505.297H424V507.591H426.242V505.297Z" fill="#006CA7"/>
<path d="M426.242 512.195H424V514.489H426.242V512.195Z" fill="#006CA7"/>
<path d="M426.242 519.084H424V521.378H426.242V519.084Z" fill="#006CA7"/>
<path d="M426.242 525.974H424V528.267H426.242V525.974Z" fill="#006CA7"/>
<path d="M432.962 498.398H430.719V500.692H432.962V498.398Z" fill="#006CA7"/>
<path d="M432.962 505.297H430.719V507.591H432.962V505.297Z" fill="#006CA7"/>
<path d="M432.962 512.195H430.719V514.489H432.962V512.195Z" fill="#006CA7"/>
<path d="M432.962 519.084H430.719V521.378H432.962V519.084Z" fill="#006CA7"/>
<path d="M432.962 525.974H430.719V528.267H432.962V525.974Z" fill="#006CA7"/>
<path d="M439.681 498.398H437.438V500.692H439.681V498.398Z" fill="#006CA7"/>
<path d="M439.681 505.297H437.438V507.591H439.681V505.297Z" fill="#006CA7"/>
<path d="M439.681 512.195H437.438V514.489H439.681V512.195Z" fill="#006CA7"/>
<path d="M439.681 519.084H437.438V521.378H439.681V519.084Z" fill="#006CA7"/>
<path d="M439.681 525.974H437.438V528.267H439.681V525.974Z" fill="#006CA7"/>
<path d="M399.374 532.88H397.131V535.174H399.374V532.88Z" fill="#006CA7"/>
<path d="M406.085 532.88H403.842V535.174H406.085V532.88Z" fill="#006CA7"/>
<path d="M412.812 532.88H410.57V535.174H412.812V532.88Z" fill="#006CA7"/>
<path d="M419.532 532.88H417.289V535.174H419.532V532.88Z" fill="#006CA7"/>
<path d="M426.242 532.88H424V535.174H426.242V532.88Z" fill="#006CA7"/>
<path d="M432.962 532.88H430.719V535.174H432.962V532.88Z" fill="#006CA7"/>
<path d="M439.681 532.88H437.438V535.174H439.681V532.88Z" fill="#006CA7"/>
<path d="M421.841 470.605L439.313 491.45H441.061L423.59 470.605H421.841Z" fill="#7FB5D3"/>
<path d="M414.469 470.605L431.941 491.45H433.681L416.21 470.605H414.469Z" fill="#7FB5D3"/>
<path d="M407.089 470.605L424.56 491.45H426.309L408.838 470.605H407.089Z" fill="#7FB5D3"/>
<path d="M399.717 470.605L417.189 491.45H418.929L401.457 470.605H399.717Z" fill="#7FB5D3"/>
<path d="M392.337 470.605L409.808 491.45H411.557L394.086 470.605H392.337Z" fill="#7FB5D3"/>
<path d="M384.973 470.605L402.445 491.45H404.185L386.714 470.605H384.973Z" fill="#7FB5D3"/>
<path d="M377.593 470.605L395.065 491.45H396.813L379.342 470.605H377.593Z" fill="#7FB5D3"/>
<path d="M272.579 547.323L278.403 535.628C280.286 531.847 284.143 529.452 288.352 529.452H319.087C323.295 529.452 327.153 531.847 329.036 535.628L334.86 547.323H272.579Z" fill="#006CA7"/>
<path d="M341.771 512.59V547.332H321.011V484.796L341.771 512.59Z" fill="#BFDAE9"/>
<path d="M376.371 512.59H341.771V547.332H376.371V512.59Z" fill="#4091BD"/>
<path d="M376.371 512.59H341.771L321.011 484.796H355.611L376.371 512.59Z" fill="#006CA7"/>
<path d="M362.531 519.538H355.611V525.327H362.531V519.538Z" fill="#006CA7"/>
<path d="M362.531 533.435H355.611V539.761H362.531V533.435Z" fill="#006CA7"/>
<path d="M498.447 536.006C497.25 539.82 495.97 543.593 494.589 547.323H445.563V498.693C453.102 498.693 459.186 504.616 459.771 512.153C462.257 511.027 464.984 510.405 467.863 510.405C478.992 510.405 488.004 519.664 488.004 531.082C488.004 531.671 487.97 532.225 487.92 532.805C488.414 532.746 488.924 532.704 489.435 532.704C492.849 532.704 495.986 533.939 498.447 536.006Z" fill="#BFDAE9"/>
<path d="M391.115 441.803C392.01 444.525 392.948 447.172 393.927 449.701H394.362L394.738 449.558C393.768 447.079 392.847 444.492 391.969 441.811H411.582C411.448 441.543 411.323 441.282 411.189 441.005H391.709C390.529 437.367 389.442 433.578 388.421 429.687H406.269C406.168 429.419 406.06 429.15 405.951 428.881H388.212C387.241 425.142 386.346 421.311 385.509 417.437H401.909C401.826 417.169 401.742 416.9 401.65 416.631H385.341C384.53 412.8 383.768 408.935 383.074 405.061H398.253C398.186 404.793 398.11 404.524 398.035 404.255H382.923C382.22 400.331 381.593 396.416 381.007 392.568H395.165C395.106 392.299 395.039 392.03 394.981 391.761H380.881C380.279 387.737 379.743 383.771 379.267 379.948H392.563C392.512 379.679 392.462 379.41 392.412 379.141H379.174C378.664 374.982 378.221 370.975 377.844 367.185H390.421C390.379 366.917 390.337 366.648 390.295 366.379H377.76C377.325 362.001 376.982 357.943 376.706 354.297H388.714C388.688 354.028 388.655 353.759 388.63 353.49H376.647C376.279 348.449 376.062 344.273 375.97 341.274H387.609C387.601 340.997 387.584 340.728 387.576 340.467H375.945C375.945 340.165 375.936 339.879 375.928 339.602C375.869 336.081 375.802 332.116 375.727 328.116H387.249C387.249 327.848 387.241 327.579 387.224 327.31H375.71C375.643 323.21 375.568 319.11 375.509 315.438C375.509 315.228 375.509 315.026 375.501 314.816H386.906C386.906 314.547 386.898 314.278 386.881 314.01H375.484C375.434 310.859 375.384 308.103 375.35 306.061C375.309 303.742 375.284 302.348 375.284 302.306H374.48C374.48 302.306 374.505 303.726 374.547 306.07C374.581 308.111 374.631 310.867 374.681 314.001H351.879V302.306H351.076V314.001H328.274C328.324 310.859 328.375 308.111 328.408 306.07C328.45 303.726 328.475 302.314 328.475 302.314H327.672C327.672 302.314 327.647 303.751 327.605 306.061C327.571 308.111 327.521 310.859 327.471 314.01H316.066C316.066 314.27 316.057 314.547 316.041 314.816H327.446C327.379 318.631 327.304 322.974 327.228 327.31H315.714C315.714 327.579 315.706 327.848 315.689 328.116H327.212C327.145 332.116 327.078 336.09 327.011 339.602C327.011 339.871 327.002 340.165 326.994 340.467H315.363C315.355 340.728 315.338 340.997 315.33 341.274H326.969C326.877 344.273 326.659 348.449 326.291 353.49H314.317C314.284 353.751 314.258 354.02 314.225 354.297H326.233C325.956 357.943 325.613 362.001 325.178 366.379H312.643C312.602 366.639 312.56 366.917 312.518 367.185H325.095C324.718 370.966 324.266 374.974 323.764 379.141H310.518C310.476 379.41 310.418 379.679 310.368 379.948H323.664C323.187 383.788 322.651 387.745 322.049 391.761H307.949C307.891 392.03 307.832 392.299 307.774 392.568H321.932C321.354 396.424 320.718 400.331 320.015 404.255H304.903C304.836 404.524 304.761 404.793 304.686 405.061H319.865C319.17 408.926 318.417 412.8 317.597 416.631H301.289C301.205 416.9 301.121 417.169 301.029 417.437H317.43C316.601 421.311 315.698 425.134 314.727 428.881H296.988C296.879 429.15 296.778 429.419 296.67 429.687H314.518C313.497 433.586 312.401 437.375 311.229 441.005H291.741C291.616 441.274 291.482 441.543 291.348 441.811H310.962C310.083 444.492 309.163 447.079 308.192 449.558L308.568 449.701H308.995C309.983 447.172 310.92 444.534 311.807 441.803H351.051V449.701H351.854V441.803H391.115ZM390.856 440.996H351.871V429.679H387.576C388.596 433.569 389.684 437.367 390.856 440.996ZM387.366 428.872H351.871V417.429H384.672C385.5 421.302 386.404 425.125 387.366 428.872ZM384.505 416.631H351.871V405.061H382.237C382.932 408.918 383.685 412.791 384.496 416.631H384.505ZM382.103 404.255H351.879V392.568H380.195C380.773 396.424 381.417 400.331 382.103 404.255ZM380.07 391.761H351.871V379.948H378.463C378.94 383.788 379.476 387.745 380.07 391.761ZM378.354 379.141H351.871V367.194H377.024C377.401 370.975 377.844 374.982 378.354 379.141ZM376.94 366.387H351.871V354.305H375.894C376.17 357.952 376.514 362.001 376.949 366.387H376.94ZM375.827 353.499H351.863V341.282H375.15C375.242 344.29 375.459 348.458 375.827 353.499ZM375.108 339.627C375.108 339.896 375.116 340.182 375.125 340.476H351.863V328.125H374.907C374.974 332.133 375.041 336.107 375.108 339.627ZM374.681 314.833C374.748 318.647 374.823 322.991 374.899 327.318H351.871V314.833H374.689H374.681ZM328.232 315.463C328.232 315.245 328.232 315.043 328.241 314.833H351.059V327.318H328.032C328.098 323.227 328.174 319.118 328.232 315.463ZM327.822 339.627C327.881 336.107 327.948 332.133 328.023 328.125H351.068V340.476H327.806C327.806 340.182 327.814 339.896 327.822 339.627ZM327.781 341.282H351.068V353.499H327.103C327.471 348.466 327.688 344.29 327.781 341.282ZM327.044 354.305H351.068V366.387H325.998C326.425 362.01 326.776 357.952 327.053 354.305H327.044ZM325.915 367.194H351.068V379.141H324.584C325.095 374.982 325.538 370.983 325.915 367.194ZM324.484 379.948H351.076V391.761H322.877C323.48 387.728 324.015 383.771 324.484 379.948ZM322.752 392.568H351.068V404.255H320.844C321.547 400.331 322.174 396.416 322.752 392.568ZM320.693 405.061H351.059V416.631H318.426C319.237 412.791 319.99 408.935 320.685 405.061H320.693ZM318.258 417.437H351.059V428.881H315.564C316.534 425.142 317.43 421.311 318.258 417.437ZM312.074 440.996C313.246 437.358 314.334 433.561 315.355 429.679H351.059V440.996H312.074Z" fill="#BFDAE9"/>
<path d="M289.022 424.075L279.868 461.758L304.962 464.497L295.247 424.083C294.452 420.756 289.842 420.748 289.03 424.083L289.022 424.075Z" fill="#006CA7"/>
<path d="M292.143 430.813C291.85 430.813 291.599 431.049 291.599 431.36V455.179C291.599 455.473 291.842 455.725 292.143 455.725C292.444 455.725 292.687 455.482 292.687 455.179V431.36C292.687 431.066 292.444 430.813 292.143 430.813Z" fill="#7FB5D3"/>
<path d="M296.553 441.938L292.678 445.903V441.837C292.678 441.728 292.645 441.635 292.595 441.543L289.189 436.149C289.03 435.897 288.695 435.821 288.444 435.981C288.193 436.14 288.118 436.476 288.277 436.728L291.599 441.996V447.239C291.599 447.458 291.733 447.659 291.934 447.743C292.001 447.769 292.068 447.785 292.134 447.785C292.277 447.785 292.411 447.727 292.519 447.617L297.322 442.694C297.532 442.475 297.523 442.139 297.322 441.929C297.105 441.719 296.77 441.728 296.561 441.929L296.553 441.938Z" fill="#7FB5D3"/>
</g>
<defs>
<linearGradient id="paint0_linear_1073_1058" x1="287.532" y1="329.705" x2="138.988" y2="-199.664" gradientUnits="userSpaceOnUse">
<stop stop-color="#00639E"/>
<stop offset="1" stop-color="#00B9F2"/>
</linearGradient>
<linearGradient id="paint1_linear_1073_1058" x1="280.503" y1="931.72" x2="269.123" y2="362.121" gradientUnits="userSpaceOnUse">
<stop offset="0.38" stop-color="white" stop-opacity="0"/>
<stop offset="0.56" stop-color="#FCFDFE" stop-opacity="0"/>
<stop offset="0.65" stop-color="#F4F9FB" stop-opacity="0.05"/>
<stop offset="0.73" stop-color="#E7F1F6" stop-opacity="0.12"/>
<stop offset="0.79" stop-color="#D4E6F0" stop-opacity="0.22"/>
<stop offset="0.84" stop-color="#BBD8E7" stop-opacity="0.35"/>
<stop offset="0.89" stop-color="#9DC6DD" stop-opacity="0.51"/>
<stop offset="0.94" stop-color="#78B1D0" stop-opacity="0.7"/>
<stop offset="0.99" stop-color="#509AC2" stop-opacity="0.92"/>
<stop offset="1" stop-color="#4091BD"/>
</linearGradient>
<linearGradient id="paint2_linear_1073_1058" x1="284.93" y1="1057.61" x2="268.277" y2="224.675" gradientUnits="userSpaceOnUse">
<stop offset="0.38" stop-color="white" stop-opacity="0"/>
<stop offset="0.56" stop-color="#FCFDFE" stop-opacity="0"/>
<stop offset="0.65" stop-color="#F4F9FB" stop-opacity="0.05"/>
<stop offset="0.73" stop-color="#E7F1F6" stop-opacity="0.12"/>
<stop offset="0.79" stop-color="#D4E6F0" stop-opacity="0.22"/>
<stop offset="0.84" stop-color="#BBD8E7" stop-opacity="0.35"/>
<stop offset="0.89" stop-color="#9DC6DD" stop-opacity="0.51"/>
<stop offset="0.94" stop-color="#78B1D0" stop-opacity="0.7"/>
<stop offset="0.99" stop-color="#509AC2" stop-opacity="0.92"/>
<stop offset="1" stop-color="#4091BD"/>
</linearGradient>
<linearGradient id="paint3_linear_1073_1058" x1="279.893" y1="915.731" x2="278.627" y2="439.972" gradientUnits="userSpaceOnUse">
<stop offset="0.74" stop-color="white" stop-opacity="0"/>
<stop offset="0.76" stop-color="#FDFEFE" stop-opacity="0.02"/>
<stop offset="0.8" stop-color="#F8FBFC" stop-opacity="0.09"/>
<stop offset="0.84" stop-color="#F1F7FA" stop-opacity="0.21"/>
<stop offset="0.88" stop-color="#E7F1F6" stop-opacity="0.37"/>
<stop offset="0.92" stop-color="#DAE9F2" stop-opacity="0.57"/>
<stop offset="0.97" stop-color="#CAE0EC" stop-opacity="0.82"/>
<stop offset="1" stop-color="#BFDAE9"/>
</linearGradient>
</defs>
</svg>
