<?xml version="1.0" encoding="UTF-8"?><svg id="Layer_1" xmlns="http://www.w3.org/2000/svg" xmlns:xlink="http://www.w3.org/1999/xlink" viewBox="0 0 651.32 648.66"><defs><style>.cls-1{fill:none;}.cls-2{fill:url(#linear-gradient);}.cls-3{clip-path:url(#clippath);}.cls-4,.cls-5{fill:#006ca7;}.cls-6{fill:#fff;}.cls-7{fill:#7fb5d3;}.cls-8{fill:#bfdae9;}.cls-9{fill:#4091bd;}.cls-10{fill:#51b89f;}.cls-11{fill:url(#linear-gradient-3);}.cls-12{fill:url(#linear-gradient-4);}.cls-13{fill:url(#linear-gradient-2);}.cls-5{fill-rule:evenodd;}</style><clipPath id="clippath"><path class="cls-1" d="m553.66,553.66c126.66-126.66,126.66-332.01,0-458.67-126.66-126.66-332.01-126.66-458.67,0-126.66,126.66-126.66,332.01,0,458.67,126.66,126.66,332.01,126.66,458.67,0Z"/></clipPath><linearGradient id="linear-gradient" x1="343.35" y1="258.91" x2="167.17" y2="889.34" gradientTransform="translate(0 651.32) scale(1 -1)" gradientUnits="userSpaceOnUse"><stop offset="0" stop-color="#00639e"/><stop offset="1" stop-color="#00b9f2"/></linearGradient><linearGradient id="linear-gradient-2" x1="334.95" y1="-457.61" x2="321.46" y2="220.33" gradientTransform="translate(0 651.32) scale(1 -1)" gradientUnits="userSpaceOnUse"><stop offset=".38" stop-color="#fff" stop-opacity="0"/><stop offset=".56" stop-color="#fcfdfe" stop-opacity="0"/><stop offset=".65" stop-color="#f4f9fb" stop-opacity=".05"/><stop offset=".73" stop-color="#e7f1f6" stop-opacity=".12"/><stop offset=".79" stop-color="#d4e6f0" stop-opacity=".22"/><stop offset=".84" stop-color="#bbd8e7" stop-opacity=".35"/><stop offset=".89" stop-color="#9dc6dd" stop-opacity=".51"/><stop offset=".94" stop-color="#78b1d0" stop-opacity=".7"/><stop offset=".99" stop-color="#509ac2" stop-opacity=".92"/><stop offset="1" stop-color="#4091bd"/></linearGradient><linearGradient id="linear-gradient-3" x1="340.24" y1="-607.45" x2="320.5" y2="383.92" gradientTransform="translate(0 651.32) scale(1 -1)" gradientUnits="userSpaceOnUse"><stop offset=".38" stop-color="#fff" stop-opacity="0"/><stop offset=".56" stop-color="#fcfdfe" stop-opacity="0"/><stop offset=".65" stop-color="#f4f9fb" stop-opacity=".05"/><stop offset=".73" stop-color="#e7f1f6" stop-opacity=".12"/><stop offset=".79" stop-color="#d4e6f0" stop-opacity=".22"/><stop offset=".84" stop-color="#bbd8e7" stop-opacity=".35"/><stop offset=".89" stop-color="#9dc6dd" stop-opacity=".51"/><stop offset=".94" stop-color="#78b1d0" stop-opacity=".7"/><stop offset=".99" stop-color="#509ac2" stop-opacity=".92"/><stop offset="1" stop-color="#4091bd"/></linearGradient><linearGradient id="linear-gradient-4" x1="334.22" y1="-438.58" x2="332.72" y2="127.67" gradientTransform="translate(0 651.32) scale(1 -1)" gradientUnits="userSpaceOnUse"><stop offset=".74" stop-color="#fff" stop-opacity="0"/><stop offset=".76" stop-color="#fdfefe" stop-opacity=".02"/><stop offset=".8" stop-color="#f8fbfc" stop-opacity=".09"/><stop offset=".84" stop-color="#f1f7fa" stop-opacity=".21"/><stop offset=".88" stop-color="#e7f1f6" stop-opacity=".37"/><stop offset=".92" stop-color="#dae9f2" stop-opacity=".57"/><stop offset=".97" stop-color="#cae0ec" stop-opacity=".82"/><stop offset="1" stop-color="#bfdae9"/></linearGradient></defs><g class="cls-3"><path class="cls-2" d="m553.66,553.66c126.66-126.66,126.66-332.01,0-458.67-126.66-126.66-332.01-126.66-458.67,0-126.66,126.66-126.66,332.01,0,458.67,126.66,126.66,332.01,126.66,458.67,0Z"/><path class="cls-13" d="m-29.38,738.21c.1-86.76.19-277.73.3-364.49l37.91,24.31h74.46l124.89,66.63,60.08,32.05,64.14,34.21,47.93-23.53,60.08-29.49,124.89-61.31h74.46l37.91-22.37c.1,79.83.2,263.88.3,343.71l-707.37.28Z"/><path class="cls-11" d="m-192.34,716.66c.14-126.87.28-406.13.44-533l55.42,35.55H-27.64l182.56,97.43,87.83,46.87,93.75,50.03,70.07-34.42,87.83-43.13,182.56-89.65h108.84l55.42-32.71c.14,116.74.28,385.88.44,502.62l-1034,.41Z"/><path class="cls-4" d="m231.04,493.54h-2.15v15.87h2.15v-15.87Z"/><path class="cls-4" d="m206.61,493.54h-2.15v15.87h2.15v-15.87Z"/><path class="cls-4" d="m227.97,508.44h3.99c.82,0,1.48.66,1.48,1.48v.29h-6.95v-.29c0-.81.66-1.48,1.48-1.48h0Z"/><path class="cls-4" d="m203.53,508.44h3.99c.82,0,1.48.66,1.48,1.48v.29h-6.95v-.29c0-.81.66-1.48,1.48-1.48h0Z"/><path class="cls-9" d="m237.67,495.6h-37.52l-7.17-23.94h37.52l7.17,23.94Z"/><path class="cls-7" d="m231.6,482.53h-9.63l-2.6-8.66h9.63l2.6,8.66Z"/><path class="cls-7" d="m234.85,493.39h-9.63l-2.59-8.66h9.63l2.59,8.66Z"/><path class="cls-7" d="m219.81,482.53h-9.63l-2.6-8.66h9.63l2.6,8.66Z"/><path class="cls-7" d="m223.07,493.39h-9.63l-2.6-8.66h9.63l2.6,8.66Z"/><path class="cls-7" d="m208.02,482.53h-9.63l-2.59-8.66h9.62l2.6,8.66Z"/><path class="cls-7" d="m211.28,493.39h-9.63l-2.6-8.66h9.63l2.6,8.66Z"/><path class="cls-4" d="m237.67,495.6l-1.14,2.12h-37.52l1.14-2.12h37.52Z"/><path class="cls-4" d="m200.15,495.6l-1.14,2.12-7.17-23.93,1.14-2.13,7.17,23.94Z"/><path class="cls-4" d="m189.46,493.54h-2.15v15.85h2.15v-15.85Z"/><path class="cls-4" d="m165.05,493.54h-2.15v15.85h2.15v-15.85Z"/><path class="cls-4" d="m186.39,508.41h3.98c.81,0,1.48.66,1.48,1.48v.29h-6.93v-.29c0-.81.66-1.48,1.48-1.48Z"/><path class="cls-4" d="m161.99,508.41h3.98c.81,0,1.48.66,1.48,1.48v.29h-6.93v-.29c0-.81.66-1.48,1.47-1.48Z"/><path class="cls-9" d="m196.07,495.58h-37.45l-7.16-23.9h37.46l7.15,23.9Z"/><path class="cls-7" d="m190.01,482.54h-9.61l-2.59-8.65h9.61l2.59,8.65Z"/><path class="cls-7" d="m193.26,493.38h-9.61l-2.6-8.65h9.62l2.59,8.65Z"/><path class="cls-7" d="m178.24,482.54h-9.61l-2.59-8.65h9.61l2.59,8.65Z"/><path class="cls-7" d="m181.49,493.38h-9.62l-2.59-8.65h9.62l2.59,8.65Z"/><path class="cls-7" d="m166.47,482.54h-9.61l-2.6-8.65h9.62l2.59,8.65Z"/><path class="cls-7" d="m169.72,493.38h-9.62l-2.59-8.65h9.62l2.59,8.65Z"/><path class="cls-4" d="m196.07,495.58l-1.14,2.13h-37.46l1.14-2.13h37.45Z"/><path class="cls-4" d="m158.62,495.58l-1.14,2.13-7.15-23.9,1.14-2.13,7.16,23.9Z"/><path class="cls-4" d="m147.65,493.54h-2.15v15.85h2.15v-15.85Z"/><path class="cls-4" d="m123.26,493.54h-2.15v15.85h2.15v-15.85Z"/><path class="cls-4" d="m144.59,508.41h3.98c.81,0,1.48.66,1.48,1.48v.29h-6.93v-.29c0-.81.66-1.48,1.47-1.48Z"/><path class="cls-4" d="m120.19,508.41h3.98c.82,0,1.48.66,1.48,1.48v.29h-6.93v-.29c0-.81.66-1.48,1.47-1.48Z"/><path class="cls-9" d="m154.27,495.58h-37.45l-7.15-23.9h37.45l7.15,23.9Z"/><path class="cls-7" d="m148.21,482.54h-9.62l-2.59-8.65h9.62l2.59,8.65Z"/><path class="cls-7" d="m151.46,493.38h-9.61l-2.59-8.65h9.61l2.59,8.65Z"/><path class="cls-7" d="m136.44,482.54h-9.62l-2.59-8.65h9.61l2.6,8.65Z"/><path class="cls-7" d="m139.69,493.38h-9.61l-2.59-8.65h9.61l2.59,8.65Z"/><path class="cls-7" d="m124.68,482.54h-9.62l-2.59-8.65h9.61l2.6,8.65Z"/><path class="cls-7" d="m127.92,493.38h-9.61l-2.59-8.65h9.61l2.59,8.65Z"/><path class="cls-4" d="m154.27,495.58l-1.13,2.13h-37.46l1.14-2.13h37.45Z"/><path class="cls-4" d="m116.95,495.56l-1.14,2.13-7.15-23.9,1.14-2.13,7.15,23.9Z"/><path class="cls-10" d="m451.04,392.97h-1.13l-1.18,63.13h4.61l-1.18-63.13h-1.13Z"/><path class="cls-10" d="m453.5,439.88h-4.93c-.63,0-1.15.7-1.15,1.56s.52,1.56,1.15,1.56h4.93c.63,0,1.15-.7,1.15-1.56s-.51-1.56-1.15-1.56Z"/><path class="cls-10" d="m446.1,441.11c-.73.02-1.44.24-2.05.64l-14.22,9.33c-.28.18-.06.61.25.49l14.7-5.37c.49-.18.92-.51,1.22-.95,0,0,2.37-3.05,2.43-3.21l-.17-1.01-2.16.05h0Z"/><path class="cls-10" d="m454.63,442.5c-.4-.33-.9-.54-1.43-.58,0,0-3.83-.52-3.99-.5l-.79.65,1.13,1.84c.38.62.93,1.13,1.58,1.45l15.2,7.65c.3.15.56-.25.31-.47l-12-10.05h0Z"/><path class="cls-10" d="m449.74,420.44c-.02-.33-.49-.36-.56-.03l-2.7,15.41c-.09.52-.02,1.05.21,1.52,0,0,1.46,3.58,1.57,3.71l.96.36,1.03-1.89c.35-.64.51-1.37.47-2.09l-.97-16.99Z"/><path class="cls-10" d="m448.57,439.88c-.63,0-1.15.7-1.15,1.56s.52,1.56,1.15,1.56,1.15-.7,1.15-1.56-.51-1.56-1.15-1.56Z"/><path class="cls-10" d="m448.57,440.85c-.24,0-.44.26-.44.59s.2.59.44.59.44-.26.44-.59-.2-.59-.44-.59Z"/><path class="cls-10" d="m448.19,440.22h-.29c-.38,0-2.05.59-2.04,1.22,0,.59,1.7,1.22,2.04,1.22h.29c.44,0,.81-.54.81-1.22s-.36-1.22-.81-1.22Z"/><path class="cls-5" d="m342.17,479.89c3.19,0,5.79,8.68,5.79,15.34s-2.6,8.78-5.79,8.78-5.79-2.12-5.79-8.78,2.6-15.34,5.79-15.34Z"/><path class="cls-5" d="m298.49,489.47c1.93,0,3.49,5.23,3.49,9.24s-1.57,5.29-3.49,5.29-3.49-1.28-3.49-5.29,1.57-9.24,3.49-9.24Z"/><path class="cls-5" d="m565.01,484.32c2.61,0,4.72,7.08,4.72,12.52s-2.11,7.16-4.72,7.16-4.73-1.73-4.73-7.16,2.11-12.52,4.73-12.52Z"/><path class="cls-5" d="m493.63,459.55c1.93,0,3.49,5.23,3.49,9.24s-1.57,5.29-3.49,5.29-3.49-1.28-3.49-5.29,1.57-9.24,3.49-9.24Z"/><path class="cls-5" d="m647.84,385.36c1.93,0,3.49,5.23,3.49,9.24s-1.56,5.29-3.49,5.29-3.49-1.28-3.49-5.29,1.56-9.24,3.49-9.24Z"/><path class="cls-5" d="m540.27,373.55c1.93,0,3.49,5.23,3.49,9.24s-1.57,5.29-3.49,5.29-3.49-1.28-3.49-5.29,1.57-9.24,3.49-9.24Z"/><path class="cls-5" d="m597.8,425.5c1.93,0,3.49,5.23,3.49,9.24s-1.57,5.29-3.49,5.29-3.49-1.28-3.49-5.29,1.56-9.24,3.49-9.24Z"/><path class="cls-4" d="m543.23,440.97h-1.13l-1.18,63.13h4.61l-1.18-63.13h-1.13Z"/><path class="cls-4" d="m545.7,439.88h-4.93c-.63,0-1.15.7-1.15,1.56s.52,1.56,1.15,1.56h4.93c.63,0,1.15-.7,1.15-1.56s-.52-1.56-1.15-1.56Z"/><path class="cls-4" d="m538.29,441.11c-.73.02-1.44.24-2.05.64l-14.22,9.33c-.28.18-.06.61.25.49l14.7-5.37c.49-.18.92-.51,1.22-.95,0,0,2.37-3.05,2.43-3.21l-.17-1.01-2.16.05h0Z"/><path class="cls-4" d="m546.83,442.5c-.4-.33-.91-.54-1.43-.58,0,0-3.83-.52-3.99-.5l-.79.65,1.13,1.84c.38.62.93,1.13,1.58,1.45l15.2,7.65c.3.15.56-.25.31-.47l-12-10.05h0Z"/><path class="cls-4" d="m541.93,420.44c-.02-.33-.49-.36-.56-.03l-2.7,15.41c-.09.52-.02,1.05.21,1.52,0,0,1.46,3.58,1.57,3.71l.96.36,1.03-1.89c.35-.64.51-1.37.47-2.09l-.97-16.99Z"/><path class="cls-4" d="m540.76,439.88c-.63,0-1.15.7-1.15,1.56s.52,1.56,1.15,1.56,1.15-.7,1.15-1.56-.52-1.56-1.15-1.56Z"/><path class="cls-4" d="m540.76,440.85c-.24,0-.44.26-.44.59s.2.59.44.59.44-.26.44-.59-.2-.59-.44-.59Z"/><path class="cls-4" d="m540.38,440.22h-.29c-.38,0-2.05.59-2.04,1.22,0,.59,1.7,1.22,2.04,1.22h.29c.45,0,.81-.54.81-1.22s-.36-1.22-.81-1.22Z"/><path class="cls-4" d="m601.6,324.95h-1.13l-1.18,63.13h4.62l-1.18-63.13h-1.13Z"/><path class="cls-4" d="m604.07,323.87h-4.93c-.63,0-1.15.7-1.15,1.56s.52,1.56,1.15,1.56h4.93c.63,0,1.15-.7,1.15-1.56s-.52-1.56-1.15-1.56Z"/><path class="cls-4" d="m596.67,325.11c-.73.02-1.44.24-2.05.64l-14.22,9.34c-.28.18-.06.61.25.49l14.7-5.37c.49-.18.92-.51,1.22-.95,0,0,2.37-3.05,2.43-3.21l-.17-1.01-2.16.05h0Z"/><path class="cls-4" d="m605.2,326.49c-.4-.33-.9-.54-1.43-.58,0,0-3.83-.52-3.99-.5l-.79.65,1.13,1.84c.38.62.93,1.13,1.58,1.45l15.2,7.65c.3.15.56-.25.31-.47l-12-10.05h0Z"/><path class="cls-4" d="m600.3,304.43c-.02-.33-.49-.36-.56-.04l-2.7,15.41c-.09.51-.02,1.05.21,1.52,0,0,1.46,3.58,1.57,3.71l.96.36,1.03-1.89c.35-.64.51-1.37.47-2.09l-.97-16.99Z"/><path class="cls-4" d="m599.13,323.87c-.63,0-1.15.7-1.15,1.56s.52,1.56,1.15,1.56,1.15-.7,1.15-1.56-.51-1.56-1.15-1.56Z"/><path class="cls-4" d="m599.13,324.84c-.24,0-.44.26-.44.59s.2.59.44.59.44-.26.44-.59-.2-.59-.44-.59Z"/><path class="cls-4" d="m598.75,324.21h-.29c-.38,0-2.05.58-2.04,1.22,0,.58,1.7,1.22,2.04,1.22h.29c.45,0,.82-.54.82-1.22s-.36-1.22-.82-1.22Z"/><path class="cls-4" d="m515.28,334.54h-1.13l-1.18,63.13h4.62l-1.18-63.13h-1.13Z"/><path class="cls-4" d="m517.75,333.46h-4.93c-.63,0-1.15.7-1.15,1.56s.52,1.56,1.15,1.56h4.93c.63,0,1.15-.7,1.15-1.56s-.52-1.56-1.15-1.56Z"/><path class="cls-4" d="m510.34,334.7c-.73.02-1.44.24-2.05.64l-14.22,9.34c-.28.18-.06.61.25.49l14.7-5.37c.49-.18.92-.51,1.22-.95,0,0,2.37-3.05,2.43-3.21l-.17-1.01-2.16.06h0Z"/><path class="cls-4" d="m518.88,336.08c-.4-.33-.9-.54-1.43-.58,0,0-3.83-.52-3.99-.5l-.79.65,1.13,1.84c.38.62.93,1.13,1.58,1.45l15.2,7.65c.3.15.56-.25.31-.47l-12-10.05h0Z"/><path class="cls-4" d="m513.98,314.02c-.02-.33-.49-.36-.56-.04l-2.7,15.42c-.09.52-.02,1.05.21,1.52,0,0,1.46,3.58,1.57,3.71l.96.36,1.03-1.89c.35-.64.51-1.37.47-2.1l-.97-16.99Z"/><path class="cls-4" d="m512.81,333.46c-.63,0-1.15.7-1.15,1.56s.51,1.56,1.15,1.56,1.15-.7,1.15-1.56-.52-1.56-1.15-1.56Z"/><path class="cls-4" d="m512.81,334.43c-.24,0-.44.26-.44.59s.19.59.44.59.44-.26.44-.59-.2-.59-.44-.59Z"/><path class="cls-4" d="m512.43,333.8h-.29c-.38,0-2.05.58-2.04,1.22,0,.58,1.7,1.22,2.04,1.22h.29c.45,0,.81-.54.81-1.22s-.36-1.22-.81-1.22Z"/><path class="cls-4" d="m635.42,440.97h-1.14l-1.18,63.13h4.62l-1.18-63.13h-1.13Z"/><path class="cls-4" d="m637.89,439.88h-4.93c-.63,0-1.15.7-1.15,1.56s.52,1.56,1.15,1.56h4.93c.63,0,1.15-.7,1.15-1.56s-.52-1.56-1.15-1.56Z"/><path class="cls-4" d="m630.49,441.11c-.73.02-1.44.24-2.05.64l-14.22,9.33c-.28.18-.06.61.25.49l14.7-5.37c.49-.18.92-.51,1.22-.95,0,0,2.37-3.05,2.43-3.21l-.17-1.01-2.16.05h0Z"/><path class="cls-4" d="m639.02,442.5c-.4-.33-.91-.54-1.43-.58,0,0-3.83-.52-3.99-.5l-.79.65,1.13,1.84c.38.62.93,1.13,1.58,1.45l15.2,7.65c.3.15.56-.25.31-.47l-12-10.05h0Z"/><path class="cls-4" d="m634.12,420.44c-.02-.33-.49-.36-.56-.03l-2.7,15.41c-.09.52-.02,1.05.21,1.52,0,0,1.46,3.58,1.57,3.71l.96.36,1.03-1.89c.35-.64.51-1.37.47-2.09l-.97-16.99Z"/><path class="cls-4" d="m632.95,439.88c-.63,0-1.15.7-1.15,1.56s.51,1.56,1.15,1.56,1.15-.7,1.15-1.56-.51-1.56-1.15-1.56Z"/><path class="cls-4" d="m632.95,440.85c-.24,0-.44.26-.44.59s.2.59.44.59.44-.26.44-.59-.19-.59-.44-.59Z"/><path class="cls-4" d="m632.57,440.22h-.29c-.38,0-2.05.59-2.04,1.22,0,.59,1.7,1.22,2.04,1.22h.29c.45,0,.81-.54.81-1.22s-.36-1.22-.81-1.22Z"/><path class="cls-4" d="m196.37,404.46h1.13l1.18,63.13h-4.62l1.18-63.13h1.13Z"/><path class="cls-4" d="m193.81,402.66h4.93c.63,0,1.15.7,1.15,1.56s-.52,1.56-1.15,1.56h-4.93c-.63,0-1.15-.7-1.15-1.56s.52-1.56,1.15-1.56Z"/><path class="cls-4" d="m201.3,404.61c.73.02,1.44.24,2.05.64l14.22,9.33c.28.18.06.61-.25.49l-14.7-5.36c-.49-.18-.92-.51-1.22-.95,0,0-2.37-3.05-2.43-3.21l.17-1.01,2.16.06h0Z"/><path class="cls-4" d="m192.77,406c.4-.33.9-.54,1.43-.58,0,0,3.83-.52,3.99-.5l.79.65-1.13,1.84c-.38.62-.93,1.13-1.58,1.45l-15.2,7.65c-.3.15-.56-.25-.31-.47l12-10.05h0Z"/><path class="cls-4" d="m197.67,383.94c.02-.33.49-.36.56-.04l2.7,15.41c.09.52.02,1.05-.21,1.52,0,0-1.46,3.58-1.57,3.71l-.96.36-1.03-1.89c-.35-.64-.51-1.37-.47-2.09l.97-16.99Z"/><path class="cls-4" d="m198.84,403.38c.63,0,1.15.7,1.15,1.56s-.51,1.56-1.15,1.56-1.15-.7-1.15-1.56.52-1.56,1.15-1.56Z"/><path class="cls-4" d="m198.84,404.35c.24,0,.44.26.44.59s-.19.59-.44.59-.44-.27-.44-.59.19-.59.44-.59Z"/><path class="cls-4" d="m199.21,403.72h.29c.38,0,2.05.58,2.04,1.22,0,.58-1.7,1.22-2.04,1.22h-.29c-.45,0-.81-.54-.81-1.22s.36-1.22.81-1.22Z"/><path class="cls-4" d="m162.27,310.68h1.13l1.18,63.13h-4.61l1.18-63.13h1.13Z"/><path class="cls-4" d="m159.8,309.6h4.93c.63,0,1.15.7,1.15,1.56s-.51,1.56-1.15,1.56h-4.93c-.63,0-1.15-.7-1.15-1.56s.51-1.56,1.15-1.56Z"/><path class="cls-4" d="m167.2,310.83c.73.02,1.44.24,2.05.64l14.22,9.33c.28.18.06.61-.25.49l-14.7-5.37c-.49-.18-.92-.51-1.22-.95,0,0-2.37-3.05-2.43-3.21l.17-1.01,2.16.06h0Z"/><path class="cls-4" d="m158.67,312.21c.4-.33.9-.54,1.43-.59,0,0,3.83-.52,3.99-.5l.79.65-1.13,1.84c-.38.62-.93,1.13-1.58,1.45l-15.2,7.65c-.3.15-.56-.25-.31-.47l12-10.05h0Z"/><path class="cls-4" d="m163.56,290.16c.02-.33.49-.36.56-.04l2.7,15.42c.09.51.02,1.05-.21,1.52,0,0-1.46,3.58-1.57,3.71l-.96.36-1.03-1.89c-.35-.64-.51-1.37-.47-2.1l.97-16.99Z"/><path class="cls-4" d="m164.73,309.6c.63,0,1.15.7,1.15,1.56s-.52,1.56-1.15,1.56-1.15-.7-1.15-1.56.51-1.56,1.15-1.56Z"/><path class="cls-4" d="m164.73,310.56c.24,0,.44.27.44.59s-.2.59-.44.59-.44-.26-.44-.59.2-.59.44-.59Z"/><path class="cls-4" d="m165.11,309.94h.29c.38,0,2.05.58,2.04,1.22,0,.58-1.7,1.22-2.04,1.22h-.29c-.45,0-.81-.54-.81-1.22s.36-1.22.81-1.22Z"/><path class="cls-4" d="m104.17,404.46h1.13l1.18,63.13h-4.61l1.18-63.13h1.13Z"/><path class="cls-4" d="m101.71,403.38h4.93c.63,0,1.15.7,1.15,1.56s-.51,1.56-1.15,1.56h-4.93c-.63,0-1.15-.7-1.15-1.56s.51-1.56,1.15-1.56Z"/><path class="cls-4" d="m109.11,404.61c.73.02,1.44.24,2.05.64l14.22,9.33c.28.18.06.61-.25.49l-14.7-5.36c-.5-.18-.92-.51-1.22-.95,0,0-2.37-3.05-2.43-3.21l.17-1.01,2.16.06h0Z"/><path class="cls-4" d="m100.58,406c.4-.33.9-.54,1.43-.58,0,0,3.83-.52,3.99-.5l.79.65-1.13,1.84c-.38.62-.93,1.13-1.58,1.45l-15.2,7.65c-.3.15-.56-.25-.31-.47l12-10.05h0Z"/><path class="cls-4" d="m105.48,383.94c.02-.33.49-.36.56-.04l2.7,15.41c.09.52.02,1.05-.21,1.52,0,0-1.46,3.58-1.57,3.71l-.96.36-1.03-1.89c-.35-.64-.51-1.37-.47-2.09l.97-16.99Z"/><path class="cls-4" d="m106.81,403.66c.63,0,1.15.7,1.15,1.56s-.51,1.56-1.15,1.56-1.15-.7-1.15-1.56.51-1.56,1.15-1.56Z"/><path class="cls-4" d="m107.18,403.99h.29c.38,0,2.05.59,2.04,1.22,0,.58-1.7,1.22-2.04,1.22h-.29c-.45,0-.81-.54-.81-1.22s.36-1.22.81-1.22Z"/><path class="cls-4" d="m45.8,288.45h1.13l1.18,63.13h-4.61l1.18-63.13h1.13Z"/><path class="cls-4" d="m43.34,287.37h4.93c.63,0,1.15.7,1.15,1.56s-.51,1.56-1.15,1.56h-4.93c-.63,0-1.15-.7-1.15-1.56s.52-1.56,1.15-1.56Z"/><path class="cls-4" d="m50.74,326.27c.73.02,1.44.24,2.05.64l14.23,9.34c.28.18.06.61-.25.49l-14.7-5.37c-.5-.18-.92-.51-1.22-.95,0,0-2.37-3.05-2.43-3.21l.17-1.01,2.16.06h0Z"/><path class="cls-4" d="m42.21,289.98c.4-.33.9-.54,1.43-.58,0,0,3.83-.52,3.99-.5l.79.65-1.13,1.84c-.38.62-.93,1.13-1.58,1.45l-15.2,7.65c-.3.15-.56-.25-.31-.47l12-10.05h0Z"/><path class="cls-4" d="m47.1,267.92c.02-.33.49-.36.56-.04l2.7,15.41c.09.52.02,1.05-.21,1.52,0,0-1.46,3.58-1.57,3.71l-.96.36-1.03-1.89c-.35-.64-.51-1.37-.47-2.1l.98-16.99Z"/><path class="cls-4" d="m48.27,325.04c.63,0,1.15.7,1.15,1.56s-.51,1.56-1.15,1.56-1.15-.7-1.15-1.56.51-1.56,1.15-1.56Z"/><path class="cls-4" d="m48.27,326c.24,0,.44.27.44.59s-.2.59-.44.59-.44-.26-.44-.59.19-.59.44-.59Z"/><path class="cls-4" d="m48.65,287.71h.29c.38,0,2.05.59,2.04,1.22,0,.58-1.7,1.22-2.04,1.22h-.29c-.45,0-.82-.54-.82-1.22s.36-1.22.82-1.22Z"/><path class="cls-4" d="m11.99,442.13h1.13l1.18,63.13h-4.61l1.18-63.13h1.13Z"/><path class="cls-4" d="m9.52,441.05h4.93c.63,0,1.15.69,1.15,1.56s-.51,1.56-1.15,1.56h-4.93c-.63,0-1.15-.7-1.15-1.56s.51-1.56,1.15-1.56Z"/><path class="cls-4" d="m16.92,442.28c.73.02,1.44.24,2.05.64l14.22,9.33c.28.18.06.61-.25.49l-14.7-5.37c-.49-.18-.92-.51-1.22-.95,0,0-2.37-3.05-2.43-3.21l.17-1.01,2.16.06h0Z"/><path class="cls-4" d="m8.39,443.67c.4-.33.9-.54,1.43-.58,0,0,3.83-.52,3.99-.5l.79.65-1.13,1.84c-.38.62-.93,1.13-1.58,1.45l-15.2,7.65c-.3.15-.56-.25-.31-.47l12-10.05h0Z"/><path class="cls-4" d="m13.28,421.61c.02-.34.49-.36.56-.03l2.7,15.41c.09.51.02,1.05-.21,1.52,0,0-1.46,3.58-1.57,3.71l-.96.36-1.03-1.89c-.35-.64-.51-1.37-.47-2.09l.97-16.99Z"/><path class="cls-4" d="m14.45,441.05c.63,0,1.15.69,1.15,1.56s-.51,1.56-1.15,1.56-1.15-.7-1.15-1.56.51-1.56,1.15-1.56Z"/><path class="cls-4" d="m14.45,442.02c.24,0,.44.26.44.59s-.19.59-.44.59-.44-.27-.44-.59.2-.59.44-.59Z"/><path class="cls-4" d="m14.83,441.38h.29c.38,0,2.05.58,2.04,1.22,0,.59-1.7,1.22-2.04,1.22h-.29c-.44,0-.81-.54-.81-1.22s.36-1.22.81-1.22Z"/><path class="cls-5" d="m305.23,481.05c-3.19,0-5.79,8.68-5.79,15.34s2.6,8.78,5.79,8.78,5.79-2.12,5.79-8.78-2.6-15.34-5.79-15.34Z"/><path class="cls-5" d="m348.91,490.63c-1.93,0-3.49,5.23-3.49,9.24s1.57,5.29,3.49,5.29,3.49-1.28,3.49-5.29-1.57-9.24-3.49-9.24Z"/><path class="cls-5" d="m82.39,485.49c-2.61,0-4.73,7.08-4.73,12.52s2.12,7.16,4.73,7.16,4.72-1.73,4.72-7.16-2.11-12.52-4.72-12.52Z"/><path class="cls-5" d="m-.43,386.53c-1.93,0-3.49,5.23-3.49,9.24s1.56,5.29,3.49,5.29,3.49-1.28,3.49-5.29-1.56-9.24-3.49-9.24Z"/><path class="cls-5" d="m77.15,374.66c-1.93,0-3.49,5.23-3.49,9.24s1.57,5.29,3.49,5.29,3.49-1.28,3.49-5.29-1.57-9.24-3.49-9.24Z"/><path class="cls-5" d="m49.61,426.67c-1.93,0-3.49,5.23-3.49,9.24s1.57,5.29,3.49,5.29,3.49-1.28,3.49-5.29-1.56-9.24-3.49-9.24Z"/><path class="cls-12" d="m616.45,613.96v192.84H49.98v-192.84h11.06c7.63-15.23,15.25-30.49,22.86-45.73,6.66-13.31,20.26-21.73,35.14-21.73h25.83l288.42.19v-.19h108.04c14.88,0,28.48,8.41,35.14,21.73,7.62,15.23,15.23,30.49,22.86,45.73h17.13Z"/><path class="cls-4" d="m338.54,546.41h-2.96l7.4-11.71h2.92l-7.36,11.71Z"/><path class="cls-4" d="m348.06,546.41h2.96l-5.09-11.71h-2.91l5.05,11.71Z"/><path class="cls-4" d="m351.37,546.41h-2.96l7.21-11.71h2.92l-7.17,11.71Z"/><path class="cls-4" d="m360.89,546.41h2.96l-5.28-11.71h-2.92l5.24,11.71Z"/><path class="cls-4" d="m364.19,546.41h-2.96l7.02-11.71h2.91l-6.97,11.71Z"/><path class="cls-4" d="m373.71,546.41h2.96l-5.48-11.71h-2.91l5.43,11.71Z"/><path class="cls-4" d="m377.02,546.41h-2.96l6.83-11.71h2.91l-6.78,11.71Z"/><path class="cls-4" d="m386.54,546.41h2.96l-5.67-11.71h-2.91l5.62,11.71Z"/><path class="cls-4" d="m389.84,546.41h-2.96l6.63-11.71h2.91l-6.59,11.71Z"/><path class="cls-4" d="m399.36,546.41h2.96l-5.87-11.71h-2.91l5.82,11.71Z"/><path class="cls-4" d="m402.67,546.41h-2.96l6.44-11.71h2.92l-6.4,11.71Z"/><path class="cls-4" d="m412.19,546.41h2.96l-6.05-11.71h-2.92l6.01,11.71Z"/><path class="cls-4" d="m415.49,546.41h-2.96l6.25-11.71h2.91l-6.2,11.71Z"/><path class="cls-4" d="m425.01,546.41h2.96l-6.25-11.71h-2.91l6.2,11.71Z"/><path class="cls-4" d="m428.32,546.41h-2.96l6.05-11.71h2.91l-6.01,11.71Z"/><path class="cls-4" d="m437.84,546.41h2.96l-6.44-11.71h-2.91l6.4,11.71Z"/><path class="cls-4" d="m441.14,546.41h-2.96l5.86-11.71h2.92l-5.82,11.71Z"/><path class="cls-4" d="m450.66,546.41h2.96l-6.63-11.71h-2.92l6.59,11.71Z"/><path class="cls-4" d="m453.97,546.41h-2.96l5.67-11.71h2.91l-5.62,11.71Z"/><path class="cls-4" d="m463.49,546.41h2.96l-6.83-11.71h-2.92l6.79,11.71Z"/><path class="cls-4" d="m466.8,546.41h-2.96l5.48-11.71h2.91l-5.43,11.71Z"/><path class="cls-4" d="m476.31,546.41h2.96l-7.02-11.71h-2.91l6.97,11.71Z"/><path class="cls-4" d="m479.62,546.41h-2.96l5.28-11.71h2.91l-5.23,11.71Z"/><path class="cls-4" d="m489.14,546.41h2.96l-7.22-11.71h-2.91l7.17,11.71Z"/><path class="cls-4" d="m492.44,546.41h-2.95l5.09-11.71h2.91l-5.05,11.71Z"/><path class="cls-4" d="m501.97,546.41h2.96l-7.41-11.71h-2.91l7.36,11.71Z"/><path class="cls-9" d="m497.82,534.71h-154.94c25.39-43.14,33.57-114,34.04-132.01.45-17.63,1.15-44.73,1.15-44.73h84.56s.7,27.09,1.15,44.73c.47,18,8.64,88.87,34.04,132.01h0Z"/><path class="cls-7" d="m445.1,534.71h-76.82c17.42-43.14,23.01-114,23.33-132.01.31-17.64.79-44.73.79-44.73h41.93s.21,27.08.35,44.73c.15,18,2.65,88.87,10.42,132.01Z"/><path class="cls-7" d="m101.97,576.78l-10.94,44.85,29.99,3.26-11.61-48.1c-.95-3.96-6.46-3.97-7.43,0h0Z"/><path class="cls-4" d="m105.71,584.8c-.35,0-.65.29-.65.65v40.75c0,.35.29.65.65.65s.65-.29.65-.65v-40.75c0-.35-.29-.65-.65-.65Z"/><path class="cls-4" d="m110.97,598.03l-4.63,4.72v-4.84c0-.12-.04-.24-.1-.35l-4.07-6.42c-.19-.3-.59-.39-.89-.2-.3.19-.39.59-.2.89l3.97,6.27v6.24c0,.26.16.5.4.6.08.03.16.05.24.05.17,0,.33-.07.46-.2l5.74-5.86c.25-.26.24-.66,0-.91-.26-.25-.66-.24-.91,0Z"/><path class="cls-4" d="m370.16,548.62c-3.41,0-6.46,1.51-8.58,3.9-.2-6.36-5.3-11.46-11.57-11.46-1.75,0-3.4.4-4.88,1.11,0-.08.01-.17.01-.26,0-6.54-5.18-11.84-11.58-11.84-2.61,0-5.01.89-6.95,2.38-.6-5.96-5.52-10.61-11.52-10.61-2.96,0-5.66,1.15-7.7,3.01-1.7-4.38-5.87-7.48-10.76-7.48-6.1,0-11.09,4.82-11.54,10.94-1.73-1.06-3.75-1.68-5.92-1.68-6.4,0-11.58,5.3-11.58,11.84v21.96h114.15c0-6.54-5.18-11.84-11.58-11.84h0Z"/><path class="cls-8" d="m170.34,625.58v25.84h-102.72c-2.02-5.45-3.88-10.99-5.57-16.6,2.44-3.75,6.59-6.21,11.32-6.21,2.05,0,3.99.48,5.75,1.32,0-.1-.02-.2-.02-.31,0-7.69,6.1-13.92,13.62-13.92,3.08,0,5.9,1.05,8.17,2.8.71-7.02,6.51-12.49,13.56-12.49,3.49,0,6.66,1.36,9.07,3.56,1.89-4.88,6.4-8.41,11.77-8.77.31-.02.6-.03.9-.03,7.17,0,13.04,5.68,13.57,12.87,1.96-1.2,4.22-1.91,6.67-1.96.1,0,.19,0,.29,0,7.52,0,13.62,6.24,13.62,13.93h0Z"/><path class="cls-4" d="m172.99,514.62l16.57,45.93h94.57l-16.56-45.93h-94.58Z"/><path class="cls-8" d="m180.16,514.62l16.56,45.93h5.82l-16.56-45.93h-5.82Z"/><path class="cls-8" d="m254.91,514.62l16.56,45.93h5.82l-16.56-45.93h-5.82Z"/><path class="cls-8" d="m195.11,514.62l16.56,45.93h5.82l-16.57-45.93h-5.82Z"/><path class="cls-8" d="m210.06,514.62l16.57,45.93h5.82l-16.56-45.93h-5.83Z"/><path class="cls-8" d="m225.01,514.62l16.56,45.93h5.82l-16.56-45.93h-5.82Z"/><path class="cls-8" d="m239.96,514.62l16.57,45.93h5.82l-16.56-45.93h-5.83Z"/><path class="cls-6" d="m189.56,560.56v90.87h-33.13v-90.87l16.56-45.94,16.57,45.94Z"/><path class="cls-4" d="m284.13,560.55h-94.57v90.87h94.57v-90.87Z"/><path class="cls-6" d="m308.95,585.27v66.15h-90.96v-66.15h33.08c4.75-5.69,9.5-11.36,14.25-17.05,6.28,5.69,12.55,11.36,18.83,17.05h24.81Z"/><path class="cls-7" d="m375.09,585.27v66.16h-66.15v-66.16l33.08-33.08,33.08,33.08Z"/><path class="cls-9" d="m217.98,585.27h90.96c11.02-11.02,22.05-22.05,33.08-33.08h-88.67c-11.79,11.02-23.58,22.05-35.37,33.08Z"/><path class="cls-4" d="m300.67,568.73c-5.5,5.52-11.02,11.02-16.53,16.54-6.28-5.69-12.55-11.36-18.83-17.05,11.79.17,23.58.33,35.36.51Z"/><path class="cls-4" d="m325.12,601.8h-3.47v3.55h3.47v-3.55Z"/><path class="cls-4" d="m325.12,612.47h-3.47v3.55h3.47v-3.55Z"/><path class="cls-4" d="m325.12,623.12h-3.47v3.55h3.47v-3.55Z"/><path class="cls-4" d="m325.12,633.77h-3.47v3.55h3.47v-3.55Z"/><path class="cls-4" d="m335.55,601.8h-3.47v3.55h3.47v-3.55Z"/><path class="cls-4" d="m335.55,612.47h-3.47v3.55h3.47v-3.55Z"/><path class="cls-4" d="m335.55,623.12h-3.47v3.55h3.47v-3.55Z"/><path class="cls-4" d="m335.55,633.77h-3.47v3.55h3.47v-3.55Z"/><path class="cls-4" d="m345.97,601.8h-3.47v3.55h3.47v-3.55Z"/><path class="cls-4" d="m345.97,612.47h-3.47v3.55h3.47v-3.55Z"/><path class="cls-4" d="m345.97,623.12h-3.47v3.55h3.47v-3.55Z"/><path class="cls-4" d="m345.97,633.77h-3.47v3.55h3.47v-3.55Z"/><path class="cls-4" d="m356.4,601.8h-3.47v3.55h3.47v-3.55Z"/><path class="cls-4" d="m356.4,612.47h-3.47v3.55h3.47v-3.55Z"/><path class="cls-4" d="m356.4,623.12h-3.47v3.55h3.47v-3.55Z"/><path class="cls-4" d="m356.4,633.77h-3.47v3.55h3.47v-3.55Z"/><path class="cls-4" d="m366.82,601.8h-3.47v3.55h3.47v-3.55Z"/><path class="cls-4" d="m366.82,612.47h-3.47v3.55h3.47v-3.55Z"/><path class="cls-4" d="m366.82,623.12h-3.47v3.55h3.47v-3.55Z"/><path class="cls-4" d="m366.82,633.77h-3.47v3.55h3.47v-3.55Z"/><path class="cls-4" d="m230.7,602.49h-4.45v12.22h4.45v-12.22Z"/><path class="cls-4" d="m248.82,602.49h-4.45v12.22h4.45v-12.22Z"/><path class="cls-4" d="m266.94,602.49h-4.45v12.22h4.45v-12.22Z"/><path class="cls-4" d="m285.06,602.49h-4.45v12.22h4.45v-12.22Z"/><path class="cls-4" d="m303.18,602.49h-4.45v12.22h4.45v-12.22Z"/><path class="cls-4" d="m230.7,624.08h-4.45v12.22h4.45v-12.22Z"/><path class="cls-4" d="m248.82,624.08h-4.45v12.22h4.45v-12.22Z"/><path class="cls-4" d="m266.94,624.08h-4.45v12.22h4.45v-12.22Z"/><path class="cls-4" d="m285.06,624.08h-4.45v12.22h4.45v-12.22Z"/><path class="cls-4" d="m303.18,624.08h-4.45v12.22h4.45v-12.22Z"/><path class="cls-4" d="m230.7,613.29h-4.45v1.38h4.45v-1.38Z"/><path class="cls-4" d="m248.82,613.29h-4.45v1.38h4.45v-1.38Z"/><path class="cls-4" d="m266.94,613.29h-4.45v1.38h4.45v-1.38Z"/><path class="cls-4" d="m285.06,613.29h-4.45v1.38h4.45v-1.38Z"/><path class="cls-4" d="m303.18,613.29h-4.45v1.38h4.45v-1.38Z"/><path class="cls-4" d="m230.7,634.87h-4.45v1.38h4.45v-1.38Z"/><path class="cls-4" d="m248.82,634.87h-4.45v1.38h4.45v-1.38Z"/><path class="cls-4" d="m266.94,634.87h-4.45v1.38h4.45v-1.38Z"/><path class="cls-4" d="m285.06,634.87h-4.45v1.38h4.45v-1.38Z"/><path class="cls-4" d="m303.18,634.87h-4.45v1.38h4.45v-1.38Z"/><path class="cls-4" d="m424.71,584.92h41.76l-20.88-24.81-20.88,24.81Z"/><path class="cls-4" d="m445.59,560.11l20.88,24.81h65.74l-20.88-24.81h-65.74Z"/><path class="cls-4" d="m465.49,584.92h-40.78v66.5h40.78v-66.5Z"/><path class="cls-7" d="m532.22,584.92h-66.72v66.5h66.72v-66.5Z"/><path class="cls-4" d="m477.01,593.19h-2.68v2.73h2.68v-2.73Z"/><path class="cls-4" d="m477.01,601.4h-2.68v2.73h2.68v-2.73Z"/><path class="cls-4" d="m477.01,609.61h-2.68v2.73h2.68v-2.73Z"/><path class="cls-4" d="m477.01,617.81h-2.68v2.73h2.68v-2.73Z"/><path class="cls-4" d="m477.01,626.01h-2.68v2.73h2.68v-2.73Z"/><path class="cls-4" d="m485.03,593.19h-2.68v2.73h2.68v-2.73Z"/><path class="cls-4" d="m485.03,601.4h-2.68v2.73h2.68v-2.73Z"/><path class="cls-4" d="m485.03,609.61h-2.68v2.73h2.68v-2.73Z"/><path class="cls-4" d="m485.03,617.81h-2.68v2.73h2.68v-2.73Z"/><path class="cls-4" d="m485.03,626.01h-2.68v2.73h2.68v-2.73Z"/><path class="cls-4" d="m493.07,593.19h-2.68v2.73h2.68v-2.73Z"/><path class="cls-4" d="m493.07,601.4h-2.68v2.73h2.68v-2.73Z"/><path class="cls-4" d="m493.07,609.61h-2.68v2.73h2.68v-2.73Z"/><path class="cls-4" d="m493.07,617.81h-2.68v2.73h2.68v-2.73Z"/><path class="cls-4" d="m493.07,626.01h-2.68v2.73h2.68v-2.73Z"/><path class="cls-4" d="m501.1,593.19h-2.68v2.73h2.68v-2.73Z"/><path class="cls-4" d="m501.1,601.4h-2.68v2.73h2.68v-2.73Z"/><path class="cls-4" d="m501.1,609.61h-2.68v2.73h2.68v-2.73Z"/><path class="cls-4" d="m501.1,617.81h-2.68v2.73h2.68v-2.73Z"/><path class="cls-4" d="m501.1,626.01h-2.68v2.73h2.68v-2.73Z"/><path class="cls-4" d="m509.12,593.19h-2.68v2.73h2.68v-2.73Z"/><path class="cls-4" d="m509.12,601.4h-2.68v2.73h2.68v-2.73Z"/><path class="cls-4" d="m509.12,609.61h-2.68v2.73h2.68v-2.73Z"/><path class="cls-4" d="m509.12,617.81h-2.68v2.73h2.68v-2.73Z"/><path class="cls-4" d="m509.12,626.01h-2.68v2.73h2.68v-2.73Z"/><path class="cls-4" d="m517.15,593.19h-2.68v2.73h2.68v-2.73Z"/><path class="cls-4" d="m517.15,601.4h-2.68v2.73h2.68v-2.73Z"/><path class="cls-4" d="m517.15,609.61h-2.68v2.73h2.68v-2.73Z"/><path class="cls-4" d="m517.15,617.81h-2.68v2.73h2.68v-2.73Z"/><path class="cls-4" d="m517.15,626.01h-2.68v2.73h2.68v-2.73Z"/><path class="cls-4" d="m525.18,593.19h-2.68v2.73h2.68v-2.73Z"/><path class="cls-4" d="m525.18,601.4h-2.68v2.73h2.68v-2.73Z"/><path class="cls-4" d="m525.18,609.61h-2.68v2.73h2.68v-2.73Z"/><path class="cls-4" d="m525.18,617.81h-2.68v2.73h2.68v-2.73Z"/><path class="cls-4" d="m525.18,626.01h-2.68v2.73h2.68v-2.73Z"/><path class="cls-4" d="m477.01,634.23h-2.68v2.73h2.68v-2.73Z"/><path class="cls-4" d="m485.03,634.23h-2.68v2.73h2.68v-2.73Z"/><path class="cls-4" d="m493.07,634.23h-2.68v2.73h2.68v-2.73Z"/><path class="cls-4" d="m501.1,634.23h-2.68v2.73h2.68v-2.73Z"/><path class="cls-4" d="m509.12,634.23h-2.68v2.73h2.68v-2.73Z"/><path class="cls-4" d="m517.15,634.23h-2.68v2.73h2.68v-2.73Z"/><path class="cls-4" d="m525.18,634.23h-2.68v2.73h2.68v-2.73Z"/><path class="cls-7" d="m503.86,560.11l20.88,24.81h2.09l-20.88-24.81h-2.09Z"/><path class="cls-7" d="m495.05,560.11l20.88,24.81h2.08l-20.88-24.81h-2.08Z"/><path class="cls-7" d="m486.23,560.11l20.88,24.81h2.09l-20.88-24.81h-2.09Z"/><path class="cls-7" d="m477.42,560.11l20.88,24.81h2.08l-20.88-24.81h-2.08Z"/><path class="cls-7" d="m468.6,560.11l20.88,24.81h2.09l-20.88-24.81h-2.09Z"/><path class="cls-7" d="m459.8,560.11l20.88,24.81h2.08l-20.88-24.81h-2.08Z"/><path class="cls-7" d="m450.98,560.11l20.88,24.81h2.09l-20.88-24.81h-2.09Z"/><path class="cls-4" d="m325.48,651.42l6.96-13.92c2.25-4.5,6.86-7.35,11.89-7.35h36.73c5.03,0,9.64,2.85,11.89,7.35l6.96,13.92h-74.43,0Z"/><path class="cls-8" d="m408.17,610.08v41.35h-24.81v-74.43l24.81,33.08Z"/><path class="cls-9" d="m449.52,610.08h-41.35v41.35h41.35v-41.35Z"/><path class="cls-4" d="m449.52,610.08h-41.35l-24.81-33.08h41.35l24.81,33.08Z"/><path class="cls-4" d="m432.98,618.35h-8.27v6.89h8.27v-6.89Z"/><path class="cls-4" d="m432.98,634.89h-8.27v7.53h8.27v-7.53Z"/><path class="cls-8" d="m595.41,637.95c-1.43,4.54-2.96,9.03-4.61,13.47h-58.59v-57.88c9.01,0,16.28,7.05,16.98,16.02,2.97-1.34,6.23-2.08,9.67-2.08,13.3,0,24.07,11.02,24.07,24.61,0,.7-.04,1.36-.1,2.05.59-.07,1.2-.12,1.81-.12,4.08,0,7.83,1.47,10.77,3.93h0Z"/><path class="cls-8" d="m467.14,525.83c1.07,3.24,2.19,6.39,3.36,9.4h.52l.45-.17c-1.16-2.95-2.26-6.03-3.31-9.22h23.44c-.16-.32-.31-.63-.47-.96h-23.28c-1.41-4.33-2.71-8.84-3.93-13.47h21.33c-.12-.32-.25-.64-.38-.96h-21.2c-1.16-4.45-2.23-9.01-3.23-13.62h19.6c-.1-.32-.2-.64-.31-.96h-19.49c-.97-4.56-1.88-9.16-2.71-13.77h18.14c-.08-.32-.17-.64-.26-.96h-18.06c-.84-4.67-1.59-9.33-2.29-13.91h16.92c-.07-.32-.15-.64-.22-.96h-16.85c-.72-4.79-1.36-9.51-1.93-14.06h15.89c-.06-.32-.12-.64-.18-.96h-15.82c-.61-4.95-1.14-9.72-1.59-14.23h15.03c-.05-.32-.1-.64-.15-.96h-14.98c-.52-5.21-.93-10.04-1.26-14.38h14.35c-.03-.32-.07-.64-.1-.96h-14.32c-.44-6-.7-10.97-.81-14.54h13.91c-.01-.33-.03-.65-.04-.96h-13.9c0-.36-.01-.7-.02-1.03-.07-4.19-.15-8.91-.24-13.67h13.77c0-.32-.01-.64-.03-.96h-13.76c-.08-4.88-.17-9.76-.24-14.13,0-.25,0-.49-.01-.74h13.63c0-.32-.01-.64-.03-.96h-13.62c-.06-3.75-.12-7.03-.16-9.46-.05-2.76-.08-4.42-.08-4.47h-.96s.03,1.69.08,4.48c.04,2.43.1,5.71.16,9.44h-27.25v-13.92h-.96v13.92h-27.25c.06-3.74.12-7.01.16-9.44.05-2.79.08-4.47.08-4.47h-.96s-.03,1.71-.08,4.46c-.04,2.44-.1,5.71-.16,9.46h-13.63c0,.31-.01.64-.03.96h13.63c-.08,4.54-.17,9.71-.26,14.87h-13.76c0,.32-.01.64-.03.96h13.77c-.08,4.76-.16,9.49-.24,13.67,0,.32-.01.67-.02,1.03h-13.9c-.01.31-.03.63-.04.96h13.91c-.11,3.57-.37,8.54-.81,14.54h-14.31c-.04.31-.07.63-.11.96h14.35c-.33,4.34-.74,9.17-1.26,14.38h-14.98c-.05.31-.1.64-.15.96h15.03c-.45,4.5-.99,9.27-1.59,14.23h-15.83c-.05.32-.12.64-.18.96h15.89c-.57,4.57-1.21,9.28-1.93,14.06h-16.85c-.07.32-.14.64-.21.96h16.92c-.69,4.59-1.45,9.24-2.29,13.91h-18.06c-.08.32-.17.64-.26.96h18.14c-.83,4.6-1.73,9.21-2.71,13.77h-19.49c-.1.32-.2.64-.31.96h19.6c-.99,4.61-2.07,9.16-3.23,13.62h-21.2c-.13.32-.25.64-.38.96h21.33c-1.22,4.64-2.53,9.15-3.93,13.47h-23.29c-.15.32-.31.64-.47.96h23.44c-1.05,3.19-2.15,6.27-3.31,9.22l.45.17h.51c1.18-3.01,2.3-6.15,3.36-9.4h46.9v9.4h.96v-9.4h46.92Zm-.31-.96h-46.59v-13.47h42.67c1.22,4.63,2.52,9.15,3.92,13.47Zm-4.17-14.43h-42.42v-13.62h39.2c.99,4.61,2.07,9.16,3.22,13.62Zm-3.42-14.57h-39v-13.77h36.29c.83,4.59,1.73,9.2,2.7,13.77h0Zm-2.87-14.73h-36.12v-13.91h33.84c.69,4.59,1.46,9.24,2.28,13.91Zm-2.43-14.87h-33.7v-14.06h31.78c.57,4.57,1.21,9.28,1.92,14.06Zm-2.05-15.02h-31.65v-14.22h30.06c.45,4.5.98,9.27,1.59,14.22h0Zm-1.69-15.18h-29.96v-14.38h28.71c.33,4.34.74,9.16,1.26,14.38Zm-1.33-15.34h-28.64v-14.54h27.83c.11,3.58.37,8.54.81,14.54Zm-.86-16.51c0,.32.01.66.02,1.01h-27.8v-14.7h27.54c.08,4.77.16,9.5.24,13.69Zm-.51-29.51c.08,4.54.17,9.71.26,14.86h-27.52v-14.86h27.27,0Zm-55.51.75c0-.26,0-.5.01-.75h27.27v14.86h-27.52c.08-4.87.17-9.76.24-14.11h0Zm-.49,28.76c.07-4.19.15-8.92.24-13.69h27.54v14.7h-27.8c0-.35.01-.69.02-1.01Zm-.05,1.97h27.83v14.54h-28.64c.44-5.99.7-10.96.81-14.54Zm-.88,15.5h28.71v14.38h-29.96c.51-5.21.93-10.04,1.26-14.38Zm-1.35,15.34h30.06v14.22h-31.65c.61-4.95,1.14-9.71,1.59-14.22h0Zm-1.71,15.18h31.78v14.06h-33.7c.72-4.8,1.36-9.51,1.92-14.06Zm-2.07,15.02h33.84v13.91h-36.12c.84-4.67,1.59-9.33,2.28-13.91Zm-2.46,14.87h36.29v13.77h-39c.97-4.57,1.87-9.16,2.7-13.77h0Zm-2.91,14.73h39.2v13.62h-42.42c1.16-4.45,2.23-9.01,3.22-13.62Zm-7.39,28.04c1.4-4.33,2.7-8.85,3.92-13.47h42.67v13.47h-46.59Z"/><path class="cls-4" d="m345.13,504.73l-10.94,44.85,29.99,3.26-11.61-48.1c-.95-3.96-6.46-3.97-7.43,0h0Z"/><path class="cls-7" d="m348.86,512.75c-.35,0-.65.28-.65.65v28.35c0,.35.29.65.65.65s.65-.29.65-.65v-28.35c0-.35-.29-.65-.65-.65Z"/><path class="cls-7" d="m354.13,525.99l-4.63,4.72v-4.84c0-.13-.04-.24-.1-.35l-4.07-6.42c-.19-.3-.59-.39-.89-.2-.3.19-.39.59-.2.89l3.97,6.27v6.24c0,.26.16.5.4.6.08.03.16.05.24.05.17,0,.33-.07.46-.2l5.74-5.86c.25-.26.24-.66,0-.91-.26-.25-.66-.24-.91,0Z"/></g></svg>