<svg width="823" height="560" viewBox="0 0 823 560" fill="none" xmlns="http://www.w3.org/2000/svg">
<path d="M249.257 -97.0249C209.166 -79.8213 173.182 -56.9704 141.852 -29.7406C158.362 -11.2921 176.849 9.26363 201.439 36.2619C218.282 54.7607 239.191 77.5412 258.879 99.0297C274.705 85.7185 292.481 74.2729 312.072 65.25C301.456 38.1511 290.186 9.45489 281.151 -13.8289C267.928 -47.8837 258.064 -73.7579 249.26 -97.0249H249.257Z" fill="#F02D79"/>
<path d="M271.297 -105.763C280.295 -82.6067 290.448 -56.6923 304.033 -22.5971C313.24 0.512116 324.724 29.0036 335.541 55.9079C355.964 48.9922 376.742 45.0864 397.4 43.8751C397.001 14.6488 396.534 -16.3358 396.266 -41.4315C395.874 -77.8419 395.739 -105.424 395.679 -130.245C354.166 -128.664 312.277 -120.648 271.3 -105.76L271.297 -105.763Z" fill="#F27439"/>
<path d="M123.479 -12.8262C92.9707 17.1551 67.636 51.5254 48.0117 88.8083C70.4174 99.6532 95.5944 111.74 128.867 127.48C151.34 138.114 179.144 151.14 205.378 163.458C215.675 145.268 228.361 128.38 243.278 113.344C222.832 91.9826 201.063 69.2793 183.533 50.8543C158.802 24.8493 140.261 5.11564 123.472 -12.8262H123.479Z" fill="#FB9C32"/>
<path d="M416.219 -130.526C416.937 -105.407 417.836 -76.9895 419.232 -39.6966C420.144 -15.1612 421.396 15.0919 422.553 43.7243C443.775 44.7544 464.634 48.6065 484.597 55.1195C494.112 27.185 504.191 -2.52447 512.438 -26.5162C524.117 -60.5006 533.085 -86.0963 541.272 -109.289C501.231 -122.671 459.067 -130 416.219 -130.526Z" fill="#B81E4C"/>
<path d="M39.4908 105.9C21.4971 144.3 9.46894 185.415 3.97656 227.771C28.8583 230.295 56.904 233.066 93.8073 236.492C118.35 238.771 148.654 241.465 177.3 244.039C180.571 223.074 186.648 202.696 195.27 183.445C169.114 170.547 141.37 156.92 118.947 145.78C86.3018 129.57 61.6415 117.144 39.4908 105.903V105.9Z" fill="#CB942F"/>
<path d="M565.872 -100.186C557.746 -76.7882 548.677 -50.8603 536.481 -16.6746C528.016 7.0588 517.427 36.3355 507.492 63.9344C526.566 72.4137 544.536 83.3861 560.856 96.6571C580.239 74.2861 600.923 50.4721 617.541 31.1747C640.957 3.98852 658.477 -16.6008 674.287 -35.2707C641.591 -62.4871 604.953 -84.2978 565.875 -100.186H565.872Z" fill="#FFAA00"/>
<path d="M1.33377 254.108C-1.35035 295.774 2.41748 338.294 13.0533 380.308C36.999 373.698 63.7932 366.229 99.0793 356.159C123.005 349.33 152.534 340.771 180.401 332.724C175.63 311.823 173.845 290.74 174.761 269.987C145.612 267.426 114.698 264.759 89.6715 262.49C53.4526 259.209 26.0377 256.555 1.33713 254.108H1.33377Z" fill="#0F804C"/>
<path d="M691.345 -20.1885C675.032 -0.995069 656.629 20.5405 632.301 48.6662C616.243 67.2288 596.368 90.0159 577.559 111.629C592.462 126.309 605.561 143.14 616.354 161.891C641.81 148.435 668.755 134.221 690.54 122.625C723.145 105.267 747.829 91.9285 769.752 80.0098C748.57 41.972 721.998 8.36675 691.345 -20.1885Z" fill="#00AAD4"/>
<path d="M20.2656 405.481C23.3322 415.024 26.6303 424.547 30.4418 433.989C42.9162 464.897 58.7894 493.378 77.3468 519.346C97.4508 504.015 120.259 486.503 149.999 463.403C169.14 448.535 192.656 430.137 214.978 412.692C205.893 399.193 198.035 384.586 191.7 368.896C189.922 364.49 188.332 360.051 186.835 355.602C159.219 363.994 130.029 372.889 106.329 380.009C71.0894 390.596 44.2717 398.485 20.2656 405.474V405.481Z" fill="#1096D3"/>
<path d="M781.088 101.834C758.917 113.484 734.059 126.47 701.259 143.355C679.303 154.659 652.176 168.477 626.52 181.584C628.033 184.889 629.499 188.228 630.875 191.634C637.612 208.324 642.238 225.323 645.013 242.375C673.408 239.416 703.396 236.312 727.701 233.698C764.835 229.712 793.113 226.517 818.085 223.615C813.519 191.016 804.993 158.458 792.12 126.547C788.714 118.111 784.976 109.914 781.088 101.834Z" fill="#F1523D"/>
<path d="M647.554 264.543C648.983 285.988 647.483 307.306 643.219 327.952C670.858 335.183 700.052 342.834 723.742 348.954C759.834 358.276 787.356 365.211 811.721 371.275C821.112 330.106 824.256 287.294 820.451 244.266C795.532 247.38 767.564 250.806 730.781 255.084C706.306 257.933 676.126 261.315 647.554 264.543Z" fill="#E42338"/>
<path d="M230.671 433.382C207.611 451.079 183.209 469.853 163.377 484.976C134.254 507.193 112.06 523.903 92.1172 538.848C119.203 572.316 151.131 600.814 186.353 623.86C199.569 602.757 214.339 579.037 233.611 547.66C246.588 526.527 262.529 500.371 277.59 475.684C260.284 463.866 244.485 449.673 230.675 433.382H230.671Z" fill="#2EB24D"/>
<path d="M637.845 348.946C631.702 369.163 622.878 388.494 611.621 406.409C634.721 423.603 659.147 441.742 678.899 456.537C708.571 478.757 731.068 495.789 751.051 511.033C774.956 475.767 793.155 436.981 805.18 396.212C781.472 389.32 755.044 381.703 720.029 371.854C695.889 365.036 665.985 356.775 637.842 348.946H637.845Z" fill="#10A348"/>
<path d="M298.613 488.526C284.269 512.904 269.101 538.56 256.885 559.445C237.884 591.929 223.518 616.82 210.949 638.752C248.315 659.606 288.795 674.565 330.876 683.004C334.737 657.807 339.193 629.199 345.259 591.855C349.087 568.078 353.979 538.869 358.579 511.085C337.653 506.284 317.458 498.707 298.613 488.526Z" fill="#066F9F"/>
<path d="M597.459 426.521C584.431 443.141 569.141 458.17 551.715 470.988C566.954 494.759 582.978 519.821 596.073 540.112C616.526 571.814 632.295 595.947 646.209 617.097C681.838 592.293 712.752 562.422 738.248 528.817C717.798 514.19 694.876 497.712 664.891 475.877C645.018 461.412 620.606 443.477 597.462 426.521H597.459Z" fill="#E9B233"/>
<path d="M386.053 515.728C380.765 543.186 375.189 572.05 370.744 595.525C363.641 633.023 358.366 661.806 353.844 686.915C395.622 692.854 438.632 692.418 481.47 684.939C476.746 660.323 471.526 632.737 464.866 596.418C460.423 572.147 455.058 542.206 449.959 513.873C428.543 517.436 407.066 518 386.053 515.725V515.728Z" fill="#074B6E"/>
<path d="M531.829 484.126C521.743 490.076 511.097 495.357 499.915 499.874C491.248 503.374 482.488 506.249 473.688 508.669C478.935 536.878 484.478 566.692 489.057 590.848C495.993 627.429 501.441 655.253 506.33 679.862C526.031 675.148 545.629 668.944 564.984 661.129C585.645 652.79 605.216 642.908 623.706 631.768C610.524 610.93 596.006 587.875 576.976 557.239C563.609 535.784 547.269 509.165 531.832 484.13L531.829 484.126Z" fill="#EF384C"/>
</svg>
