<svg width="192" height="107" viewBox="0 0 192 107" fill="none" xmlns="http://www.w3.org/2000/svg">
<rect x="-31" width="253.034" height="113.579" rx="32" fill="#E8F1F2"/>
<mask id="mask0_558_825" style="mask-type:alpha" maskUnits="userSpaceOnUse" x="-31" y="0" width="254" height="114">
<rect x="-31" width="253.034" height="113.579" rx="32" fill="#E8F1F2"/>
</mask>
<g mask="url(#mask0_558_825)">
<path d="M58.4833 -29.5439C49.303 -25.6045 41.063 -20.3719 33.8887 -14.1365C37.6694 -9.91202 41.9028 -5.20497 47.5336 0.977358C51.3904 5.2134 56.1784 10.4299 60.6868 15.3505C64.3108 12.3024 68.3812 9.68149 72.8673 7.61533C70.4364 1.40995 67.8557 -5.16117 65.7867 -10.4929C62.7589 -18.2911 60.5001 -24.216 58.4841 -29.5439H58.4833Z" fill="#F02D79"/>
<path d="M63.5273 -31.5453C65.5879 -26.2428 67.9128 -20.3086 71.0236 -12.5012C73.1318 -7.20942 75.7617 -0.685169 78.2386 5.47564C82.9152 3.89202 87.6733 2.99764 92.4037 2.72026C92.3123 -3.97227 92.2055 -11.0674 92.144 -16.8141C92.0541 -25.1517 92.0234 -31.4677 92.0095 -37.1514C82.5034 -36.7895 72.9113 -34.9538 63.5281 -31.5446L63.5273 -31.5453Z" fill="#F27439"/>
<path d="M29.6816 -10.2637C22.6955 -3.39826 16.8941 4.47218 12.4004 13.0096C17.5311 15.493 23.2963 18.2606 30.9155 21.8651C36.0615 24.3 42.4284 27.2829 48.4357 30.1036C50.7936 25.9382 53.6985 22.071 57.1143 18.6279C52.4324 13.7365 47.4477 8.53764 43.4333 4.31851C37.7702 -1.63638 33.5246 -6.15518 29.6801 -10.2637H29.6816Z" fill="#FB9C32"/>
<path d="M96.7129 -37.2158C96.8773 -31.4638 97.0832 -24.9564 97.4028 -16.4167C97.6118 -10.7984 97.8984 -3.87075 98.1634 2.68578C103.023 2.92167 107.799 3.80376 112.371 5.29517C114.55 -1.10153 116.858 -7.9047 118.746 -13.3986C121.42 -21.1806 123.474 -27.0418 125.349 -32.3528C116.18 -35.4171 106.525 -37.0952 96.7129 -37.2158Z" fill="#B81E4C"/>
<path d="M10.4468 16.9229C6.32649 25.7161 3.57215 35.131 2.31445 44.8302C8.01212 45.408 14.4343 46.0426 22.8848 46.8272C28.5048 47.3489 35.4441 47.9659 42.0038 48.5552C42.7529 43.7544 44.1442 39.0881 46.1188 34.6799C40.1291 31.7263 33.7761 28.606 28.6416 26.055C21.1661 22.343 15.5191 19.4977 10.4468 16.9236V16.9229Z" fill="#CB942F"/>
<path d="M130.986 -30.2676C129.125 -24.9097 127.048 -18.9725 124.255 -11.1443C122.317 -5.70962 119.892 0.99444 117.617 7.31431C121.985 9.25599 126.1 11.7686 129.837 14.8075C134.275 9.68473 139.012 4.23159 142.817 -0.187323C148.179 -6.41268 152.191 -11.1274 155.811 -15.4026C148.324 -21.6349 139.935 -26.6293 130.986 -30.2676H130.986Z" fill="#FFAA00"/>
<path d="M1.71046 50.8613C1.09582 60.4022 1.95862 70.139 4.39411 79.7598C9.87742 78.2461 16.013 76.5357 24.0932 74.2298C29.5719 72.6662 36.3336 70.7061 42.7151 68.8635C41.6226 64.0773 41.2138 59.2496 41.4236 54.4973C34.7486 53.911 27.6696 53.3001 21.9389 52.7807C13.6451 52.0293 7.36741 51.4215 1.71122 50.8613H1.71046Z" fill="#0F804C"/>
<path d="M159.716 -11.9492C155.981 -7.55413 151.767 -2.62271 146.196 3.8178C142.519 8.06843 137.967 13.2865 133.66 18.2355C137.073 21.5972 140.072 25.4513 142.544 29.745C148.373 26.6638 154.543 23.409 159.532 20.7535C166.998 16.7787 172.65 13.7244 177.67 10.9952C172.82 2.28489 166.735 -5.41037 159.716 -11.9492Z" fill="#00AAD4"/>
<path d="M6.04492 85.5234C6.74714 87.7087 7.50238 89.8893 8.37516 92.0515C11.2317 99.129 14.8665 105.651 19.1159 111.597C23.7195 108.087 28.9424 104.077 35.7526 98.7871C40.1357 95.3824 45.5207 91.1694 50.6321 87.1747C48.5516 84.0835 46.7522 80.7388 45.3017 77.1459C44.8945 76.137 44.5303 75.1204 44.1877 74.1016C37.8638 76.0233 31.1797 78.0602 25.7524 79.6907C17.683 82.1149 11.5421 83.9214 6.04492 85.5219V85.5234Z" fill="#1096D3"/>
<path d="M180.268 15.9912C175.191 18.659 169.498 21.6326 161.988 25.4991C156.96 28.0877 150.748 31.2519 144.873 34.2531C145.22 35.01 145.555 35.7745 145.87 36.5544C147.413 40.3763 148.473 44.2689 149.108 48.1737C155.61 47.496 162.477 46.7853 168.042 46.1867C176.546 45.2739 183.021 44.5424 188.74 43.8778C187.694 36.413 185.742 28.9575 182.794 21.6503C182.014 19.7186 181.158 17.8415 180.268 15.9912Z" fill="#F1523D"/>
<path d="M149.686 53.2507C150.013 58.1614 149.67 63.0428 148.693 67.7706C155.023 69.4265 161.708 71.1784 167.132 72.5799C175.397 74.7144 181.699 76.3027 187.279 77.6911C189.429 68.2639 190.149 58.4603 189.278 48.6074C183.572 49.3205 177.167 50.105 168.744 51.0847C163.14 51.737 156.229 52.5115 149.686 53.2507Z" fill="#E42338"/>
<path d="M54.2255 91.9131C48.945 95.9655 43.3572 100.265 38.8159 103.728C32.1471 108.815 27.0648 112.641 22.498 116.064C28.7005 123.728 36.0116 130.253 44.0771 135.531C47.1034 130.698 50.4855 125.267 54.8986 118.082C57.8703 113.242 61.5205 107.253 64.9694 101.6C61.0065 98.8937 57.3886 95.6435 54.2263 91.9131H54.2255Z" fill="#2EB24D"/>
<path d="M147.466 72.5791C146.059 77.2085 144.039 81.6351 141.461 85.7375C146.751 89.6746 152.344 93.8284 156.867 97.2162C163.662 102.304 168.813 106.205 173.389 109.695C178.863 101.62 183.03 92.7381 185.784 83.4024C180.355 81.8242 174.303 80.08 166.285 77.8248C160.757 76.2634 153.91 74.3717 147.465 72.5791H147.466Z" fill="#10A348"/>
<path d="M69.783 104.54C66.4985 110.122 63.0251 115.997 60.2277 120.78C55.8769 128.218 52.587 133.918 49.709 138.94C58.2655 143.716 67.5349 147.141 77.1709 149.073C78.0552 143.304 79.0755 136.753 80.4646 128.201C81.3412 122.757 82.4614 116.068 83.5147 109.706C78.7228 108.606 74.0985 106.871 69.783 104.54Z" fill="#066F9F"/>
<path d="M138.217 90.3418C135.234 94.1475 131.733 97.5891 127.742 100.524C131.232 105.967 134.901 111.706 137.9 116.353C142.583 123.612 146.194 129.138 149.38 133.982C157.539 128.302 164.618 121.462 170.456 113.766C165.774 110.417 160.525 106.644 153.658 101.644C149.108 98.3313 143.518 94.2244 138.218 90.3418H138.217Z" fill="#E9B233"/>
<path d="M123.187 103.534C120.877 104.897 118.44 106.106 115.879 107.14C113.894 107.942 111.888 108.6 109.873 109.154C111.075 115.614 112.344 122.441 113.393 127.972C114.981 136.349 116.228 142.72 117.348 148.356C121.859 147.276 126.347 145.855 130.779 144.066C135.51 142.156 139.992 139.894 144.226 137.343C141.207 132.571 137.883 127.291 133.525 120.276C130.464 115.363 126.723 109.268 123.188 103.535L123.187 103.534Z" fill="#EF384C"/>
</g>
<g filter="url(#filter0_d_558_825)">
<mask id="mask1_558_825" style="mask-type:alpha" maskUnits="userSpaceOnUse" x="19" y="18" width="153" height="78">
<rect x="19.8359" y="18.0898" width="151.591" height="77.6275" rx="8" fill="#D9D9D9"/>
</mask>
<g mask="url(#mask1_558_825)">
<g filter="url(#filter1_f_558_825)">
<path d="M29.6777 -10.2646C22.6916 -3.39924 16.8902 4.4712 12.3965 13.0086C17.5272 15.492 23.2924 18.2597 30.9116 21.8641C36.0576 24.2991 42.4245 27.2819 48.4318 30.1026C50.7897 25.9372 53.6946 22.07 57.1104 18.6269C52.4285 13.7355 47.4438 8.53666 43.4294 4.31753C37.7663 -1.63736 33.5207 -6.15616 29.6762 -10.2646H29.6777Z" fill="#FB9C32"/>
<path d="M10.4429 16.9219C6.32258 25.7151 3.56824 35.13 2.31055 44.8292C8.00822 45.407 14.4304 46.0417 22.8809 46.8262C28.5009 47.3479 35.4402 47.9649 41.9999 48.5543C42.749 43.7535 44.1403 39.0871 46.1148 34.679C40.1252 31.7253 33.7722 28.605 28.6377 26.054C21.1622 22.342 15.5152 19.4967 10.4429 16.9226V16.9219Z" fill="#CB942F"/>
<path d="M1.70655 50.8604C1.09191 60.4012 1.95471 70.1381 4.3902 79.7588C9.87352 78.2452 16.0091 76.5348 24.0893 74.2289C29.568 72.6652 36.3297 70.7051 42.7112 68.8625C41.6187 64.0764 41.2099 59.2487 41.4197 54.4963C34.7447 53.91 27.6657 53.2992 21.935 52.7797C13.6412 52.0283 7.3635 51.4205 1.70732 50.8604H1.70655Z" fill="#0F804C"/>
<path d="M159.712 -11.9502C155.977 -7.5551 151.763 -2.62368 146.192 3.81682C142.515 8.06746 137.963 13.2855 133.656 18.2346C137.069 21.5962 140.068 25.4504 142.54 29.744C148.369 26.6628 154.539 23.408 159.528 20.7525C166.994 16.7777 172.646 13.7234 177.666 10.9942C172.816 2.28391 166.731 -5.41134 159.712 -11.9502Z" fill="#00AAD4"/>
<path d="M6.04102 85.5234C6.74324 87.7087 7.49847 89.8893 8.37125 92.0515C11.2278 99.129 14.8626 105.651 19.112 111.597C23.7156 108.087 28.9385 104.077 35.7487 98.7871C40.1318 95.3824 45.5168 91.1694 50.6282 87.1747C48.5477 84.0835 46.7483 80.7388 45.2978 77.1459C44.8906 76.137 44.5264 75.1204 44.1838 74.1016C37.8599 76.0233 31.1758 78.0602 25.7485 79.6907C17.6791 82.1149 11.5382 83.9214 6.04102 85.5219V85.5234Z" fill="#1096D3"/>
<path d="M180.264 15.9922C175.187 18.66 169.495 21.6336 161.984 25.5C156.956 28.0887 150.744 31.2528 144.869 34.2541C145.216 35.011 145.551 35.7755 145.866 36.5554C147.409 40.3773 148.469 44.2698 149.104 48.1747C155.606 47.497 162.473 46.7863 168.039 46.1877C176.542 45.2749 183.017 44.5434 188.736 43.8787C187.69 36.414 185.738 28.9585 182.79 21.6513C182.01 19.7196 181.154 17.8424 180.264 15.9922Z" fill="#F1523D"/>
<path d="M149.682 53.2497C150.009 58.1604 149.666 63.0419 148.689 67.7697C155.019 69.4255 161.704 71.1774 167.129 72.5789C175.393 74.7134 181.695 76.3017 187.275 77.6901C189.425 68.263 190.145 58.4593 189.274 48.6064C183.568 49.3195 177.163 50.104 168.74 51.0837C163.136 51.736 156.225 52.5106 149.682 53.2497Z" fill="#E42338"/>
<path d="M54.2216 91.9121C48.9411 95.9645 43.3533 100.264 38.8119 103.727C32.1432 108.814 27.0609 112.64 22.4941 116.063C28.6966 123.727 36.0077 130.252 44.0732 135.53C47.0995 130.697 50.4816 125.266 54.8947 118.081C57.8664 113.241 61.5166 107.252 64.9655 101.599C61.0026 98.8928 57.3847 95.6426 54.2224 91.9121H54.2216Z" fill="#2EB24D"/>
<path d="M147.462 72.5781C146.055 77.2076 144.035 81.6342 141.457 85.7365C146.747 89.6737 152.34 93.8275 156.863 97.2152C163.658 102.303 168.809 106.204 173.385 109.694C178.859 101.619 183.026 92.7372 185.78 83.4014C180.351 81.8232 174.299 80.079 166.281 77.8238C160.754 76.2625 153.906 74.3707 147.461 72.5781H147.462Z" fill="#10A348"/>
<path d="M138.213 90.3408C135.23 94.1466 131.729 97.5881 127.738 100.523C131.228 105.966 134.897 111.705 137.896 116.352C142.579 123.611 146.19 129.138 149.377 133.981C157.535 128.301 164.614 121.461 170.452 113.765C165.77 110.416 160.521 106.643 153.654 101.643C149.104 98.3304 143.514 94.2234 138.214 90.3408H138.213Z" fill="#E9B233"/>
</g>
<g filter="url(#filter2_f_558_825)">
<path d="M29.6777 -10.2646C22.6916 -3.39924 16.8902 4.4712 12.3965 13.0086C17.5272 15.492 23.2924 18.2597 30.9116 21.8641C36.0576 24.2991 42.4245 27.2819 48.4318 30.1026C50.7897 25.9372 53.6946 22.07 57.1104 18.6269C52.4285 13.7355 47.4438 8.53666 43.4294 4.31753C37.7663 -1.63736 33.5207 -6.15616 29.6762 -10.2646H29.6777Z" fill="#FB9C32"/>
<path d="M10.4429 16.9219C6.32258 25.7151 3.56824 35.13 2.31055 44.8292C8.00822 45.407 14.4304 46.0417 22.8809 46.8262C28.5009 47.3479 35.4402 47.9649 41.9999 48.5543C42.749 43.7535 44.1403 39.0871 46.1148 34.679C40.1252 31.7253 33.7722 28.605 28.6377 26.054C21.1622 22.342 15.5152 19.4967 10.4429 16.9226V16.9219Z" fill="#CB942F"/>
<path d="M1.70655 50.8604C1.09191 60.4012 1.95471 70.1381 4.3902 79.7588C9.87352 78.2452 16.0091 76.5348 24.0893 74.2289C29.568 72.6652 36.3297 70.7051 42.7112 68.8625C41.6187 64.0764 41.2099 59.2487 41.4197 54.4963C34.7447 53.91 27.6657 53.2992 21.935 52.7797C13.6412 52.0283 7.3635 51.4205 1.70732 50.8604H1.70655Z" fill="#0F804C"/>
<path d="M159.712 -11.9502C155.977 -7.5551 151.763 -2.62368 146.192 3.81682C142.515 8.06746 137.963 13.2855 133.656 18.2346C137.069 21.5962 140.068 25.4504 142.54 29.744C148.369 26.6628 154.539 23.408 159.528 20.7525C166.994 16.7777 172.646 13.7234 177.666 10.9942C172.816 2.28391 166.731 -5.41134 159.712 -11.9502Z" fill="#00AAD4"/>
<path d="M6.04102 85.5234C6.74324 87.7087 7.49847 89.8893 8.37125 92.0515C11.2278 99.129 14.8626 105.651 19.112 111.597C23.7156 108.087 28.9385 104.077 35.7487 98.7871C40.1318 95.3824 45.5168 91.1694 50.6282 87.1747C48.5477 84.0835 46.7483 80.7388 45.2978 77.1459C44.8906 76.137 44.5264 75.1204 44.1838 74.1016C37.8599 76.0233 31.1758 78.0602 25.7485 79.6907C17.6791 82.1149 11.5382 83.9214 6.04102 85.5219V85.5234Z" fill="#1096D3"/>
<path d="M180.264 15.9922C175.187 18.66 169.495 21.6336 161.984 25.5C156.956 28.0887 150.744 31.2528 144.869 34.2541C145.216 35.011 145.551 35.7755 145.866 36.5554C147.409 40.3773 148.469 44.2698 149.104 48.1747C155.606 47.497 162.473 46.7863 168.039 46.1877C176.542 45.2749 183.017 44.5434 188.736 43.8787C187.69 36.414 185.738 28.9585 182.79 21.6513C182.01 19.7196 181.154 17.8424 180.264 15.9922Z" fill="#F1523D"/>
<path d="M149.682 53.2497C150.009 58.1604 149.666 63.0419 148.689 67.7697C155.019 69.4255 161.704 71.1774 167.129 72.5789C175.393 74.7134 181.695 76.3017 187.275 77.6901C189.425 68.263 190.145 58.4593 189.274 48.6064C183.568 49.3195 177.163 50.104 168.74 51.0837C163.136 51.736 156.225 52.5106 149.682 53.2497Z" fill="#E42338"/>
<path d="M54.2216 91.9121C48.9411 95.9645 43.3533 100.264 38.8119 103.727C32.1432 108.814 27.0609 112.64 22.4941 116.063C28.6966 123.727 36.0077 130.252 44.0732 135.53C47.0995 130.697 50.4816 125.266 54.8947 118.081C57.8664 113.241 61.5166 107.252 64.9655 101.599C61.0026 98.8928 57.3847 95.6426 54.2224 91.9121H54.2216Z" fill="#2EB24D"/>
<path d="M147.462 72.5781C146.055 77.2076 144.035 81.6342 141.457 85.7365C146.747 89.6737 152.34 93.8275 156.863 97.2152C163.658 102.303 168.809 106.204 173.385 109.694C178.859 101.619 183.026 92.7372 185.78 83.4014C180.351 81.8232 174.299 80.079 166.281 77.8238C160.754 76.2625 153.906 74.3707 147.461 72.5781H147.462Z" fill="#10A348"/>
<path d="M138.213 90.3408C135.23 94.1466 131.729 97.5881 127.738 100.523C131.228 105.966 134.897 111.705 137.896 116.352C142.579 123.611 146.19 129.138 149.377 133.981C157.535 128.301 164.614 121.461 170.452 113.765C165.77 110.416 160.521 106.643 153.654 101.643C149.104 98.3304 143.514 94.2234 138.214 90.3408H138.213Z" fill="#E9B233"/>
</g>
</g>
</g>
<g style="mix-blend-mode:soft-light">
<rect x="19.8398" y="18.0898" width="151.591" height="77.6275" rx="8" fill="white"/>
</g>
<g clip-path="url(#clip0_558_825)">
<path d="M109.181 60.8625C108.846 61.2728 108.377 61.5874 107.767 61.813C107.158 62.0386 106.481 62.1481 105.744 62.1481C104.966 62.1481 104.283 61.9771 103.693 61.6284C103.104 61.2797 102.655 60.7805 102.333 60.1172C102.011 59.4608 101.85 58.6813 101.844 57.7924V57.1701C101.844 56.2539 101.998 55.4607 102.299 54.7906C102.601 54.1205 103.037 53.6077 103.606 53.2521C104.176 52.8965 104.846 52.7188 105.61 52.7188C106.675 52.7188 107.513 52.9786 108.109 53.4983C108.712 54.0179 109.067 54.7701 109.175 55.7616H107.372C107.292 55.2351 107.111 54.8521 106.823 54.606C106.541 54.3598 106.152 54.2436 105.657 54.2436C105.027 54.2436 104.544 54.4829 104.216 54.9684C103.888 55.4539 103.72 56.1718 103.713 57.1223V57.7103C103.713 58.6745 103.894 59.3993 104.249 59.8916C104.605 60.3839 105.134 60.6301 105.824 60.6301C106.521 60.6301 107.017 60.4796 107.312 60.1788V58.5992H105.623V57.2043H109.161V60.8694L109.181 60.8625Z" fill="#009DDA"/>
<path d="M124.493 60.1377H121.243L120.626 62.0249H118.656L122.007 52.8486H123.722L127.086 62.0249H125.116L124.493 60.1309V60.1377ZM121.745 58.606H123.997L122.864 55.1735L121.745 58.606Z" fill="#009DDA"/>
<path d="M129.499 60.5069H133.432V62.0249H127.643V52.8486H129.499V60.5069Z" fill="#009DDA"/>
<path d="M138.88 59.6181C138.88 59.2625 138.759 58.989 138.511 58.7975C138.263 58.6061 137.821 58.4078 137.178 58.189C136.534 57.977 136.025 57.765 135.65 57.5599C134.631 56.9992 134.115 56.2402 134.115 55.2829C134.115 54.7906 134.249 54.3461 134.524 53.9564C134.799 53.5666 135.194 53.2658 135.704 53.047C136.22 52.8282 136.789 52.7188 137.432 52.7188C138.076 52.7188 138.645 52.835 139.148 53.0743C139.65 53.3136 140.039 53.6487 140.32 54.0795C140.595 54.5102 140.736 55.0026 140.736 55.5564H138.88C138.88 55.1393 138.752 54.8111 138.491 54.5786C138.23 54.3461 137.868 54.2299 137.399 54.2299C136.943 54.2299 136.595 54.3256 136.34 54.5239C136.085 54.7222 135.965 54.9752 135.965 55.2966C135.965 55.5975 136.112 55.8436 136.407 56.0487C136.702 56.2539 137.138 56.4385 137.707 56.6163C138.759 56.9377 139.53 57.3411 140.012 57.8197C140.495 58.2984 140.736 58.8933 140.736 59.6112C140.736 60.4044 140.441 61.0267 139.851 61.4779C139.262 61.9292 138.471 62.1549 137.473 62.1549C136.782 62.1549 136.152 62.025 135.583 61.7651C135.013 61.5053 134.584 61.1497 134.283 60.7053C133.981 60.254 133.834 59.7343 133.834 59.1394H135.69C135.69 60.1514 136.28 60.6574 137.466 60.6574C137.908 60.6574 138.25 60.5685 138.498 60.3839C138.746 60.1993 138.866 59.9463 138.866 59.6181H138.88Z" fill="#009DDA"/>
<path d="M112.204 56.2056C112.318 56.0073 112.452 55.8296 112.613 55.6654L111.273 54.1611C110.938 54.4893 110.65 54.8723 110.422 55.2894L112.204 56.1988V56.2056Z" fill="#5FBA46"/>
<path d="M115.494 55.1392C115.695 55.2349 115.889 55.358 116.057 55.5016L117.404 54.0041C117.049 53.6896 116.647 53.4366 116.211 53.2451L115.494 55.146V55.1392Z" fill="#D6A102"/>
<path d="M118.577 55.5908L116.795 56.5002C116.882 56.7054 116.942 56.9173 116.976 57.143L118.959 56.9515C118.899 56.4729 118.772 56.0148 118.577 55.5908Z" fill="#C11728"/>
<path d="M116.667 56.2398L118.449 55.3304C118.228 54.9133 117.947 54.5304 117.618 54.2021L116.271 55.6996C116.426 55.8637 116.56 56.0415 116.667 56.2398Z" fill="#289438"/>
<path d="M111.855 57.5323C111.855 57.4913 111.855 57.4503 111.855 57.4092L109.872 57.2246C109.872 57.3272 109.865 57.4229 109.865 57.5255C109.865 57.9152 109.912 58.2913 109.999 58.6537L111.916 58.093C111.875 57.9084 111.855 57.7238 111.855 57.5255" fill="#4A7634"/>
<path d="M116.418 59.1943C116.277 59.3721 116.116 59.5225 115.936 59.6593L116.981 61.3893C117.37 61.1226 117.718 60.7944 118.006 60.4183L116.418 59.1943Z" fill="#FBB800"/>
<path d="M117.002 57.5323C117.002 57.7238 116.982 57.9084 116.941 58.093L118.858 58.6537C118.945 58.2981 118.992 57.9221 118.992 57.5323C118.992 57.4366 118.992 57.3408 118.985 57.2451L117.002 57.4366C117.002 57.4366 117.002 57.4981 117.002 57.5323Z" fill="#E6331D"/>
<path d="M112.465 59.2354L110.877 60.4662C111.172 60.8354 111.52 61.1568 111.916 61.4234L112.961 59.6935C112.773 59.5636 112.612 59.4063 112.465 59.2354Z" fill="#F59D08"/>
<path d="M111.883 57.1157C111.916 56.89 111.983 56.6712 112.07 56.4661L110.288 55.5566C110.094 55.9874 109.953 56.4456 109.893 56.931L111.876 57.1157H111.883Z" fill="#0076B8"/>
<path d="M116.733 61.5464L115.688 59.8164C115.5 59.9258 115.293 60.0147 115.078 60.0694L115.447 62.066C115.909 61.9566 116.338 61.7788 116.733 61.5395" fill="#931831"/>
<path d="M116.867 58.374C116.8 58.5792 116.707 58.7775 116.586 58.9621L118.174 60.186C118.435 59.81 118.636 59.386 118.777 58.9347L116.861 58.374H116.867Z" fill="#00A7D7"/>
<path d="M114.796 60.1309C114.676 60.1514 114.549 60.1582 114.428 60.1582C114.327 60.1582 114.227 60.1582 114.126 60.1377L113.758 62.1343C113.979 62.1685 114.2 62.1822 114.428 62.1822C114.683 62.1822 114.924 62.1617 115.165 62.1207L114.796 60.124V60.1309Z" fill="#EC6411"/>
<path d="M114.59 54.9068C114.811 54.9205 115.025 54.9615 115.226 55.0299L115.943 53.129C115.515 52.9785 115.066 52.8828 114.59 52.8691V54.9V54.9068Z" fill="#E2071F"/>
<path d="M113.845 60.0899C113.624 60.0352 113.41 59.9532 113.215 59.8438L112.17 61.5737C112.572 61.8062 113.014 61.984 113.483 62.0865L113.852 60.0899H113.845Z" fill="#DD0979"/>
<path d="M113.651 55.023C113.859 54.9547 114.074 54.9136 114.301 54.9068V52.876C113.826 52.8897 113.363 52.9785 112.928 53.129L113.651 55.023Z" fill="#1F3262"/>
<path d="M112.29 59.0031C112.163 58.8116 112.062 58.6065 111.989 58.3809L110.072 58.9416C110.22 59.4065 110.434 59.8441 110.702 60.2339L112.29 59.0031Z" fill="#D28D0E"/>
<path d="M112.834 55.4674C113.002 55.3306 113.189 55.2144 113.384 55.1255L112.667 53.2314C112.238 53.4161 111.843 53.6622 111.494 53.9631L112.834 55.4674Z" fill="#004C84"/>
<path d="M66.7793 55.8162C66.7793 55.6795 66.7324 55.5701 66.6386 55.4948C66.5448 55.4196 66.3772 55.3376 66.136 55.2555C65.8948 55.1735 65.7004 55.0914 65.5463 55.0162C65.0505 54.77 64.8025 54.4281 64.8025 53.9905C64.8025 53.7717 64.8628 53.5871 64.9902 53.4162C65.1108 53.252 65.285 53.1221 65.5128 53.0332C65.7407 52.9443 65.9953 52.8965 66.2767 52.8965C66.5582 52.8965 66.7994 52.9443 67.0138 53.0469C67.2283 53.1495 67.4025 53.2862 67.5231 53.4709C67.6437 53.6555 67.704 53.8674 67.704 54.1068H66.786C66.786 53.9495 66.7391 53.8264 66.6453 53.7375C66.5515 53.6486 66.4241 53.6076 66.2566 53.6076C66.0891 53.6076 65.9618 53.6418 65.868 53.717C65.7742 53.7922 65.7273 53.888 65.7273 53.9974C65.7273 54.0999 65.7809 54.1888 65.8814 54.2709C65.9886 54.3529 66.1695 54.435 66.4375 54.5239C66.6989 54.6128 66.92 54.7017 67.0875 54.8042C67.503 55.0435 67.704 55.3786 67.704 55.8094C67.704 56.1513 67.5767 56.4179 67.3288 56.6094C67.0741 56.8009 66.7324 56.9034 66.2901 56.9034C65.9819 56.9034 65.7004 56.8487 65.4525 56.7325C65.2046 56.6162 65.0103 56.4658 64.8829 56.2675C64.7556 56.0692 64.6953 55.8436 64.6953 55.5837H65.62C65.62 55.7957 65.6736 55.9461 65.7809 56.0487C65.8881 56.1444 66.0556 56.1991 66.2968 56.1991C66.4509 56.1991 66.5716 56.1649 66.6587 56.0966C66.7458 56.0282 66.7927 55.9325 66.7927 55.8162H66.7793Z" fill="#009BD9"/>
<path d="M71.2216 52.958V55.5085C71.2216 55.7957 71.1613 56.0487 71.0407 56.2607C70.9201 56.4726 70.7458 56.6299 70.518 56.7461C70.2902 56.8555 70.0288 56.9102 69.7206 56.9102C69.2582 56.9102 68.8897 56.7872 68.6216 56.541C68.3536 56.2948 68.2196 55.9598 68.2129 55.529V52.958H69.1376V55.5495C69.151 55.9735 69.3453 56.1923 69.7206 56.1923C69.9082 56.1923 70.0556 56.1376 70.1561 56.035C70.2567 55.9256 70.3036 55.7547 70.3036 55.5153V52.958H71.2216Z" fill="#009BD9"/>
<path d="M73.8203 55.8162C73.8203 55.6795 73.7734 55.5701 73.6796 55.4948C73.5858 55.4196 73.4183 55.3376 73.177 55.2555C72.9358 55.1735 72.7415 55.0914 72.5873 55.0162C72.0915 54.77 71.8435 54.4281 71.8435 53.9905C71.8435 53.7717 71.9039 53.5871 72.0312 53.4162C72.1518 53.252 72.326 53.1221 72.5538 53.0332C72.7817 52.9443 73.0363 52.8965 73.3177 52.8965C73.5992 52.8965 73.8404 52.9443 74.0548 53.0469C74.2693 53.1495 74.4435 53.2862 74.5641 53.4709C74.6847 53.6555 74.745 53.8674 74.745 54.1068H73.827C73.827 53.9495 73.7801 53.8264 73.6863 53.7375C73.5925 53.6486 73.4652 53.6076 73.2976 53.6076C73.1301 53.6076 73.0028 53.6418 72.909 53.717C72.8152 53.7922 72.7683 53.888 72.7683 53.9974C72.7683 54.0999 72.8219 54.1888 72.9224 54.2709C73.0296 54.3529 73.2105 54.435 73.4786 54.5239C73.7399 54.6128 73.961 54.7017 74.1285 54.8042C74.544 55.0435 74.745 55.3786 74.745 55.8094C74.745 56.1513 74.6177 56.4179 74.3698 56.6094C74.1151 56.8009 73.7734 56.9034 73.3311 56.9034C73.0229 56.9034 72.7415 56.8487 72.4935 56.7325C72.2456 56.6162 72.0513 56.4658 71.924 56.2675C71.7966 56.0692 71.7363 55.8436 71.7363 55.5837H72.6611C72.6611 55.7957 72.7147 55.9461 72.8219 56.0487C72.9291 56.1444 73.0966 56.1991 73.3378 56.1991C73.492 56.1991 73.6126 56.1649 73.6997 56.0966C73.7868 56.0282 73.8337 55.9325 73.8337 55.8162H73.8203Z" fill="#009BD9"/>
<path d="M78.2638 53.6828H77.118V56.8555H76.2V53.6828H75.0742V52.958H78.2638V53.6828Z" fill="#009BD9"/>
<path d="M80.5616 56.1239H79.3019L79.0807 56.8487H78.0957L79.4962 52.9512H80.3606L81.7745 56.8487H80.7828L80.5616 56.1239ZM79.523 55.3991H80.3472L79.9384 54.0452L79.5297 55.3991H79.523Z" fill="#009BD9"/>
<path d="M83.0821 56.8555H82.1641V52.958H83.0821V56.8555Z" fill="#009BD9"/>
<path d="M86.9689 56.8555H86.0509L84.6973 54.4281V56.8555H83.7793V52.958H84.6973L86.0509 55.3854V52.958H86.9689V56.8555Z" fill="#009BD9"/>
<path d="M89.8155 56.1239H88.5558L88.3346 56.8487H87.3496L88.7501 52.9512H89.6145L91.0284 56.8487H90.0367L89.8155 56.1239ZM88.7769 55.3991H89.6011L89.1924 54.0452L88.7836 55.3991H88.7769Z" fill="#009BD9"/>
<path d="M91.3633 56.8555V52.958H92.737C93.2261 52.958 93.6014 53.0469 93.856 53.2315C94.1106 53.4161 94.238 53.6828 94.238 54.0315C94.238 54.2298 94.1911 54.4076 94.1039 54.5512C94.0101 54.6948 93.8761 54.7974 93.7019 54.8657C93.9029 54.9205 94.057 55.0162 94.1643 55.1666C94.2715 55.3102 94.3251 55.488 94.3251 55.7C94.3251 56.0829 94.2045 56.3701 93.9699 56.5615C93.7354 56.753 93.3802 56.8487 92.9179 56.8555H91.37H91.3633ZM92.2813 54.5854H92.7638C92.9648 54.5854 93.1055 54.5444 93.1926 54.476C93.2797 54.4008 93.3199 54.2914 93.3199 54.1478C93.3199 53.9837 93.273 53.8674 93.1792 53.7922C93.0854 53.717 92.938 53.6828 92.7303 53.6828H92.2813V54.5854ZM92.2813 55.2008V56.1376H92.8844C93.0519 56.1376 93.1792 56.0965 93.2663 56.0213C93.3534 55.9461 93.4004 55.8367 93.4004 55.6931C93.4004 55.3717 93.2395 55.2076 92.9246 55.2008H92.2813Z" fill="#009BD9"/>
<path d="M95.7997 56.1307H97.4012V56.8555H94.875V52.958H95.793V56.1307H95.7997Z" fill="#009BD9"/>
<path d="M100.216 55.2008H98.7685V56.1307H100.477V56.8555H97.8438V52.958H100.477V53.6828H98.7618V54.5033H100.209V55.2008H100.216Z" fill="#009BD9"/>
<path d="M64.6406 62.1143V58.3809H65.82C66.1416 58.3809 66.4365 58.4561 66.6911 58.6065C66.9457 58.7569 67.1535 58.9689 67.2942 59.2424C67.4416 59.5159 67.5153 59.8236 67.5153 60.1587V60.3296C67.5153 60.6715 67.4416 60.9792 67.3009 61.2459C67.1602 61.5194 66.9591 61.7314 66.7045 61.8818C66.4499 62.0322 66.1617 62.1143 65.8468 62.1143H64.6406ZM65.5251 59.0783V61.4237H65.8334C66.088 61.4237 66.2823 61.3348 66.4164 61.1502C66.5504 60.9655 66.6174 60.692 66.6174 60.3296V60.1655C66.6174 59.8031 66.5504 59.5364 66.4164 59.3518C66.2823 59.1672 66.0813 59.0783 65.8267 59.0783H65.5318H65.5251Z" fill="#009DDA"/>
<path d="M70.2364 60.5279H68.8494V61.4168H70.4844V62.1075H67.9648V58.374H70.4911V59.0715H68.8494V59.8578H70.2364V60.5211V60.5279Z" fill="#009DDA"/>
<path d="M72.495 61.1023L73.2254 58.3877H74.2104L72.9775 62.1211H72.0125L70.793 58.3877H71.7713L72.495 61.1023Z" fill="#009DDA"/>
<path d="M76.7423 60.5279H75.3552V61.4168H76.9902V62.1075H74.4707V58.374H76.9969V59.0715H75.3552V59.8578H76.7423V60.5211V60.5279Z" fill="#009DDA"/>
<path d="M78.2302 61.4237H79.7647V62.1143H77.3457V58.3809H78.2302V61.4237Z" fill="#009DDA"/>
<path d="M82.9745 60.3228C82.9745 60.6852 82.9075 61.0066 82.7735 61.2869C82.6395 61.5673 82.4518 61.7861 82.2106 61.9365C81.9694 62.087 81.6879 62.1622 81.3797 62.1622C81.0715 62.1622 80.79 62.087 80.5488 61.9434C80.3076 61.7998 80.1199 61.5878 79.9859 61.3143C79.8519 61.0408 79.7782 60.7331 79.7715 60.3775V60.1655C79.7715 59.8031 79.8385 59.4749 79.9658 59.1946C80.0998 58.9142 80.2875 58.7023 80.5287 58.545C80.7766 58.3946 81.0514 58.3193 81.3663 58.3193C81.6812 58.3193 81.9493 58.3946 82.1972 58.545C82.4384 58.6954 82.6261 58.9074 82.7668 59.1877C82.9008 59.4681 82.9678 59.7826 82.9745 60.145V60.316V60.3228ZM82.0766 60.1655C82.0766 59.7963 82.0163 59.5159 81.8957 59.3177C81.775 59.1262 81.6008 59.0305 81.373 59.0305C80.9307 59.0305 80.6962 59.3655 80.6694 60.0425V60.316C80.6694 60.6784 80.723 60.9656 80.8436 61.157C80.9642 61.3553 81.1385 61.451 81.373 61.451C81.6075 61.451 81.7683 61.3553 81.889 61.1639C82.0096 60.9724 82.0699 60.692 82.0699 60.3296V60.1587L82.0766 60.1655Z" fill="#009DDA"/>
<path d="M84.3083 60.8493V62.1143H83.4238V58.3809H84.8846C85.1661 58.3809 85.414 58.4356 85.6284 58.5381C85.8428 58.6407 86.0104 58.7911 86.131 58.9894C86.2516 59.1809 86.3052 59.4065 86.3052 59.6527C86.3052 60.0151 86.1779 60.3091 85.9233 60.5279C85.6686 60.7467 85.3202 60.8561 84.8712 60.8561H84.3083V60.8493ZM84.3083 60.1518H84.8846C85.0521 60.1518 85.1862 60.1108 85.2733 60.0219C85.3604 59.933 85.4073 59.81 85.4073 59.6527C85.4073 59.4817 85.3604 59.3381 85.2666 59.2356C85.1728 59.133 85.0454 59.0783 84.8913 59.0783H84.3016V60.1518H84.3083Z" fill="#009DDA"/>
<path d="M87.8721 58.3809L88.6897 60.9792L89.5005 58.3809H90.6597V62.1143H89.7752V61.2459L89.8623 59.4612L88.9778 62.1143H88.3948L87.5103 59.4544L87.5974 61.2391V62.1075H86.7129V58.374H87.8721V58.3809Z" fill="#009DDA"/>
<path d="M93.4142 60.5279H92.0271V61.4168H93.6621V62.1075H91.1426V58.374H93.6688V59.0715H92.0271V59.8578H93.4142V60.5211V60.5279Z" fill="#009DDA"/>
<path d="M97.0458 62.1143H96.168L94.8748 59.7894V62.1143H93.9902V58.3809H94.8748L96.168 60.7057V58.3809H97.0458V62.1143Z" fill="#009DDA"/>
<path d="M100.457 59.0783H99.3579V62.1143H98.4734V59.0783H97.3945V58.3809H100.45V59.0783H100.457Z" fill="#009DDA"/>
<path d="M60.3787 61.8131C60.3787 61.8131 60.3921 61.8131 60.3921 61.8199C60.171 62.0524 59.8895 62.2097 59.6215 62.2849C59.4205 62.3464 59.2194 62.3533 59.0117 62.3259C58.6901 62.2917 58.4086 62.1618 58.1473 61.984C57.9865 61.8746 57.8324 61.772 57.6782 61.6626C57.4973 61.5396 57.303 61.5122 57.0886 61.5464C56.9746 61.5601 57.0618 61.6148 57.0819 61.6216C57.3633 61.7584 57.6246 61.9293 57.8726 62.1208C58.0401 62.2439 58.3416 62.5379 58.3416 62.5379L58.1205 62.7362C58.1205 62.7362 57.953 62.5379 57.8726 62.4627C57.3834 61.943 56.9478 61.7105 56.854 61.6558C56.8339 61.649 56.8205 61.6353 56.8071 61.6353C56.7937 61.6353 56.7736 61.6421 56.7602 61.6558C56.6664 61.7105 56.2308 61.943 55.7417 62.4627C55.668 62.5379 55.4938 62.7362 55.4938 62.7362L55.2726 62.5379C55.2726 62.5379 55.5742 62.2439 55.7417 62.1208C55.9896 61.9293 56.251 61.7584 56.5324 61.6216C56.5525 61.6148 56.6329 61.5601 56.5257 61.5464C56.318 61.5122 56.1169 61.5327 55.936 61.6626C55.7819 61.772 55.6211 61.8815 55.4669 61.984C55.2056 62.1618 54.9242 62.2917 54.6025 62.3259C54.3948 62.3464 54.1938 62.3396 53.9928 62.2849C53.7247 62.2028 53.4366 62.0456 53.2154 61.8199C53.2154 61.8199 53.2289 61.8131 53.2356 61.8131C53.2557 61.8199 53.2691 61.8268 53.2825 61.8404C53.6108 62.0114 53.9525 62.0319 54.3077 61.9635C54.5489 61.9156 54.7768 61.8199 54.9979 61.7173C55.1587 61.649 55.3195 61.5669 55.4871 61.5122C55.9159 61.3686 56.3515 61.3686 56.7937 61.4849C56.8004 61.4849 56.8071 61.4849 56.8138 61.4849C56.8205 61.4849 56.8272 61.4849 56.8339 61.4849C57.2695 61.3686 57.7117 61.3686 58.1406 61.5122C58.3081 61.5669 58.4689 61.649 58.6298 61.7173C58.8576 61.8131 59.0787 61.9156 59.32 61.9635C59.6751 62.0319 60.0169 62.0114 60.3452 61.8404C60.3653 61.8336 60.372 61.8268 60.3921 61.8131H60.3787ZM61.4106 60.8558C61.223 60.9994 61.1024 61.0541 60.9483 61.1088C60.7137 61.1908 60.4658 61.2045 60.2179 61.2182C59.8962 61.2387 59.5813 61.2524 59.2664 61.3002C59.2462 61.3002 59.2395 61.3002 59.2462 61.2866C59.5277 61.1772 59.722 60.9584 59.8694 60.6712C59.9699 60.4729 60.1375 60.0968 60.1777 60.0353V60.0216C60.1576 60.0284 59.8426 60.3019 59.7019 60.4318C59.5277 60.596 59.3602 60.7737 59.1859 60.9447C58.9112 61.2114 58.5159 61.3276 58.3751 61.3686C58.3751 61.3686 58.3684 61.3686 58.3617 61.3686C58.3617 61.3686 58.3617 61.3823 58.355 61.3823C58.4689 61.4096 58.7839 61.478 58.9514 61.5259C59.206 61.5943 59.4607 61.6558 59.722 61.6695C60.0034 61.69 60.2916 61.6626 60.5529 61.5601C60.8545 61.4438 61.223 61.1772 61.4374 60.8558C61.4307 60.8558 61.4173 60.8558 61.4173 60.8558H61.4106ZM62.3756 59.3446C62.3756 59.3446 62.208 59.5703 61.8194 59.837C61.6318 59.9737 61.4575 60.0558 61.2498 60.1515C60.9952 60.2746 60.7674 60.384 60.5529 60.5686C60.5395 60.5823 60.5261 60.5891 60.5127 60.6028C60.506 60.6028 60.4993 60.6028 60.506 60.5891C60.5194 60.5754 60.8411 60.2404 60.9349 59.5224C60.9684 59.2763 60.9751 59.0027 61.0555 58.7634C61.0555 58.7566 61.0555 58.7498 61.0555 58.7429C60.821 59.0164 60.6199 59.4472 60.5261 59.7207C60.4591 59.9122 60.3988 60.1036 60.3318 60.2951C60.238 60.5549 60.1241 60.7942 59.9297 60.9925L59.9096 61.0131C59.9096 61.0131 59.9096 61.0131 59.9096 61.0267C59.9364 61.0267 59.9565 61.0199 59.9766 61.0131C60.1911 60.9652 60.4055 60.9173 60.6266 60.8763C60.9885 60.8148 61.3101 60.6848 61.5983 60.4524C61.8931 60.2199 62.141 59.9532 62.3019 59.6113C62.3421 59.5224 62.3823 59.4335 62.4091 59.3378C62.4091 59.3378 62.3957 59.3378 62.389 59.3378L62.3756 59.3446ZM62.7977 57.642C62.7039 57.9429 62.5364 58.1891 62.2885 58.4557C62.0941 58.6609 61.7256 59.0438 61.5514 59.3104C61.5514 59.3173 61.5313 59.3104 61.538 59.3036C61.6184 59.0711 61.6586 58.6609 61.605 58.3463C61.5648 58.0728 61.4441 57.7788 61.4173 57.4506C61.4173 57.4506 61.4106 57.4369 61.4039 57.4369C61.4039 57.4369 61.4039 57.4369 61.3905 57.4711C61.3369 57.6625 61.2632 57.9019 61.2565 58.1275C61.2431 58.401 61.29 58.7429 61.2699 59.0233C61.2431 59.3446 61.223 59.666 61.0756 59.9532C61.0756 59.96 61.0756 59.9737 61.0756 59.9737C61.1895 59.8985 61.5246 59.7002 61.739 59.5498C62.0137 59.3652 62.2482 59.1463 62.4359 58.866C62.6704 58.5173 62.8044 58.1002 62.7977 57.6762C62.7977 57.6625 62.7977 57.6352 62.7977 57.6352L62.7843 57.642H62.7977ZM62.1008 57.8267C62.0941 57.8267 62.0941 57.8267 62.0941 57.8198C62.1075 57.7309 62.1075 57.6284 62.0941 57.5463C62.074 57.2318 61.8864 56.9651 61.7189 56.6984C61.6318 56.5617 61.4843 56.3223 61.424 56.1582C61.424 56.1582 61.4106 56.1514 61.4039 56.1514C61.4039 56.1787 61.4039 56.2745 61.4173 56.336C61.4642 56.7873 61.605 57.2386 61.7524 57.6694C61.8529 57.9566 61.8998 58.2027 61.8663 58.5104C61.8663 58.5378 61.8663 58.5378 61.8663 58.5446C61.9668 58.3942 62.1611 58.1891 62.2818 58.0386C62.4091 57.8745 63.0725 57.1155 62.7441 56.0488C62.724 55.9873 62.7039 55.9257 62.6905 55.9189L62.6771 55.9326C62.6771 56.6984 62.3153 57.0266 62.1611 57.5531C62.1343 57.6557 62.1075 57.7446 62.0874 57.8198L62.1008 57.8267ZM61.538 55.4471C61.4173 55.3445 61.2431 55.1531 61.1359 54.989C61.1359 54.989 61.1225 54.989 61.1158 54.989H61.1091C61.1091 55.0232 61.2163 55.3582 61.2833 55.5155C61.3771 55.7411 61.5313 55.9326 61.6787 56.1309C61.6921 56.1446 61.6988 56.1582 61.7122 56.1719C61.8596 56.3702 62.0941 56.7941 62.1477 57.013C62.1477 57.013 62.1611 57.0266 62.1611 57.0198C62.1812 56.9446 62.2751 56.6369 62.3488 56.4317C62.3622 56.3907 62.4895 55.9804 62.5096 55.8027C62.5833 55.2967 62.4158 54.6471 62.1276 54.2847C62.1276 54.2847 62.1209 54.2984 62.1209 54.3052C62.1209 54.3189 62.1276 54.3325 62.1343 54.3531C62.1343 54.3736 62.1477 54.3941 62.1544 54.4214C62.2281 54.7496 62.2013 54.9821 62.1678 55.2625C62.141 55.4881 62.0941 55.7069 62.1075 55.9326C62.1075 55.9668 62.1343 56.2471 62.1276 56.254C62.1276 56.2676 62.1142 56.254 62.1142 56.254C62.1142 56.254 62.0807 56.1514 62.0405 56.0693C62.0271 56.0352 62.0137 56.001 62.0003 55.9736C61.8864 55.7411 61.7323 55.618 61.5447 55.4608L61.538 55.4471ZM61.223 53.4094C61.3168 53.4983 61.3905 53.6077 61.4374 53.724C61.5179 53.9154 61.538 54.2026 61.5916 54.4146C61.6251 54.5445 61.6452 54.6402 61.6854 54.7907C61.6854 54.8044 61.6787 54.8112 61.672 54.7907C61.5246 54.5855 61.3369 54.4556 61.0756 54.2847C60.9215 54.1821 60.8009 54.0864 60.6869 53.9291C60.6668 53.9018 60.6467 53.8744 60.6266 53.8471C60.6266 53.8471 60.6132 53.8471 60.6065 53.8471C60.6065 53.8471 60.6065 53.8676 60.6065 53.8813C60.64 54.0522 60.7539 54.3736 60.9483 54.565C61.089 54.7018 61.2431 54.8249 61.3972 54.9479C61.6653 55.1736 61.8596 55.4198 61.9199 55.5018C61.9199 55.5018 61.9333 55.5086 61.9333 55.5018C61.9333 55.4608 61.9333 55.3992 61.9333 55.324C61.9333 55.1599 61.94 54.9343 61.9467 54.7838C61.9467 54.7223 61.9467 54.6608 61.9467 54.5992C61.9467 54.4146 61.9266 54.23 61.8529 54.059C61.7323 53.7718 61.5447 53.5462 61.2699 53.4094C61.2565 53.4026 61.2297 53.3958 61.2163 53.3889C61.2163 53.3889 61.2163 53.3958 61.2163 53.4094H61.223ZM60.0839 52.8693C60.2447 53.0129 60.372 53.1838 60.4926 53.3616C60.6065 53.5325 60.7204 53.7103 60.8746 53.8471C60.9751 53.9565 61.2766 54.189 61.3503 54.2505C61.3369 54.1616 61.1962 53.5188 60.8009 53.1975C60.5864 53.0129 60.305 52.8966 60.0303 52.8146V52.8351C60.0437 52.8487 60.0504 52.8556 60.0638 52.8693H60.0839ZM53.8721 61.6695C54.1335 61.649 54.3881 61.5943 54.6427 61.5259C54.8103 61.478 55.1252 61.4096 55.2391 61.3823C55.2391 61.3823 55.2391 61.3755 55.2324 61.3686C55.2324 61.3686 55.2257 61.3686 55.219 61.3686C55.0783 61.3276 54.6829 61.2114 54.4082 60.9447C54.234 60.7806 54.0665 60.6028 53.8922 60.4318C53.7515 60.2951 53.4366 60.0284 53.4165 60.0216V60.0353C53.4634 60.0968 53.6242 60.4797 53.7247 60.6712C53.8721 60.9515 54.0598 61.1772 54.3479 61.2866C54.3479 61.2934 54.3479 61.3002 54.3278 61.3002C54.0129 61.2455 53.6979 61.2319 53.3763 61.2182C53.135 61.2045 52.8804 61.1908 52.6459 61.1088C52.4918 61.0541 52.3711 61.0062 52.1835 60.8558C52.1835 60.8558 52.1701 60.8558 52.1634 60.8558C52.3778 61.1772 52.7464 61.4507 53.0479 61.5601C53.3093 61.6626 53.5974 61.69 53.8788 61.6695H53.8721ZM53.6242 61.0062C53.6242 61.0062 53.6577 61.0062 53.6912 61.0199C53.6912 61.0131 53.6912 61.0062 53.6912 61.0062C53.6912 61.0062 53.6778 60.9925 53.6711 60.9857C53.4768 60.7874 53.3562 60.5481 53.2691 60.2883C53.202 60.0968 53.1417 59.9053 53.0747 59.7139C52.9809 59.4472 52.7866 59.0164 52.5454 58.7361C52.5454 58.7361 52.5387 58.7498 52.5454 58.7566C52.6258 58.9959 52.6325 59.2694 52.666 59.5156C52.7598 60.2267 53.0881 60.5686 53.0948 60.5823C53.1015 60.5891 53.0948 60.6028 53.0881 60.596C53.0747 60.5823 53.0613 60.5754 53.0479 60.5618C52.8268 60.3771 52.6057 60.2677 52.351 60.1447C52.1433 60.0489 51.9691 59.96 51.7815 59.8301C51.3928 59.5566 51.2387 59.3446 51.2253 59.3378C51.2253 59.3378 51.2119 59.3378 51.2052 59.3378C51.232 59.4335 51.2722 59.5224 51.3124 59.6113C51.4732 59.9532 51.7212 60.2199 52.016 60.4524C52.3108 60.6848 52.6258 60.8148 52.9876 60.8763C53.202 60.9105 53.4165 60.9652 53.6376 61.0131L53.6242 61.0062ZM51.8351 59.5361C52.0495 59.6865 52.3845 59.8848 52.4985 59.96C52.4985 59.96 52.5052 59.9464 52.4985 59.9395C52.351 59.6455 52.3309 59.331 52.3041 59.0096C52.284 58.7292 52.3309 58.3805 52.3175 58.1138C52.3041 57.8882 52.2371 57.6489 52.1835 57.4574C52.1768 57.4301 52.1701 57.4301 52.1701 57.4232L52.1567 57.4369C52.1299 57.7651 52.0093 58.066 51.9691 58.3326C51.9222 58.6472 51.9557 59.0575 52.0361 59.2899C52.0361 59.3036 52.0294 59.3036 52.0227 59.2968C51.8485 59.0301 51.4799 58.6472 51.2856 58.4421C51.0377 58.1754 50.8701 57.9292 50.7763 57.6284C50.7763 57.6284 50.7629 57.6147 50.7629 57.6215C50.7629 57.6215 50.7629 57.6489 50.7629 57.6625C50.7562 58.0865 50.8902 58.5036 51.1248 58.8523C51.3124 59.1258 51.5536 59.3515 51.8217 59.5361H51.8351ZM51.7212 58.5378C51.7346 58.5309 51.7279 58.5241 51.7212 58.5036C51.6876 58.1959 51.7413 57.9497 51.8351 57.6625C51.9825 57.2318 52.1232 56.7873 52.1701 56.3292C52.1701 56.2676 52.1835 56.1719 52.1835 56.1446C52.1835 56.1446 52.1701 56.1446 52.1634 56.1514C52.1031 56.3155 51.949 56.5548 51.8686 56.6916C51.701 56.9583 51.5134 57.2181 51.4933 57.5395C51.4933 57.6215 51.4933 57.7241 51.4933 57.813C51.4933 57.813 51.4933 57.8198 51.4866 57.8198C51.4665 57.7446 51.4464 57.6489 51.4129 57.5531C51.2588 57.0266 50.8969 56.6984 50.8969 55.9326C50.8969 55.9326 50.8902 55.9189 50.8835 55.9189C50.8768 55.9326 50.85 55.9873 50.8299 56.0488C50.5083 57.1155 51.165 57.8814 51.2923 58.0386C51.4129 58.1891 51.6072 58.3942 51.7077 58.5446L51.7212 58.5378ZM51.2521 56.4181C51.3191 56.6232 51.4129 56.9241 51.4397 57.0061C51.4397 57.0061 51.4531 57.0061 51.4531 56.9993C51.5067 56.7805 51.7413 56.3565 51.8887 56.1582C51.9021 56.1446 51.9088 56.1309 51.9222 56.1172C52.0696 55.9189 52.2237 55.7343 52.3175 55.5018C52.3845 55.3445 52.4851 55.0095 52.4918 54.9753C52.4918 54.9753 52.4918 54.9753 52.4851 54.9753C52.4851 54.9753 52.4717 54.9753 52.4649 54.9753C52.3644 55.1394 52.1835 55.324 52.0629 55.4334C51.8686 55.5907 51.7212 55.7138 51.6072 55.9463C51.5938 55.9736 51.5804 56.0078 51.567 56.042C51.5335 56.124 51.5 56.2266 51.4933 56.2266C51.4933 56.2266 51.4799 56.2403 51.4799 56.2266C51.4799 56.2129 51.5 55.9394 51.5 55.9052C51.5134 55.6796 51.4665 55.4608 51.4397 55.2351C51.3995 54.9548 51.3794 54.7223 51.4531 54.3941C51.4531 54.3736 51.4665 54.3462 51.4732 54.3257C51.4732 54.312 51.4799 54.2984 51.4866 54.2778C51.4866 54.2778 51.4866 54.2642 51.4799 54.2573C51.1918 54.6129 51.031 55.2693 51.098 55.7753C51.1248 55.9531 51.2454 56.3634 51.2588 56.4044L51.2521 56.4181ZM51.6675 55.3103C51.6675 55.3856 51.6675 55.4471 51.6675 55.4881H51.6809C51.7413 55.4061 51.9356 55.1599 52.2036 54.9343C52.351 54.8112 52.5119 54.6881 52.6526 54.5514C52.8469 54.3599 52.9608 54.0454 52.9943 53.8676C52.9943 53.8539 52.9943 53.8402 52.9943 53.8334C52.9943 53.8334 52.9809 53.8334 52.9742 53.8334C52.9541 53.8607 52.934 53.8881 52.9139 53.9154C52.8 54.0727 52.6794 54.1684 52.5253 54.271C52.2639 54.4419 52.0763 54.5719 51.9289 54.777C51.9222 54.7907 51.9088 54.777 51.9155 54.777C51.9624 54.6266 51.9825 54.5377 52.0093 54.4009C52.0629 54.1821 52.083 53.8949 52.1634 53.7103C52.2103 53.5872 52.284 53.4847 52.3778 53.3958C52.3778 53.3821 52.3778 53.3753 52.3778 53.3753C52.3644 53.3753 52.3443 53.3889 52.3242 53.3958C52.0495 53.5325 51.8619 53.7582 51.7413 54.0454C51.6675 54.2231 51.6474 54.4009 51.6474 54.5855C51.6474 54.6471 51.6474 54.7086 51.6474 54.7702C51.6541 54.9206 51.6608 55.1462 51.6608 55.3103H51.6675ZM52.2371 54.2368C52.3108 54.1753 52.6124 53.9428 52.7129 53.8334C52.867 53.6966 52.9809 53.5188 53.0948 53.3479C53.2154 53.1701 53.3428 52.9992 53.5036 52.8556C53.517 52.8419 53.5237 52.8351 53.5371 52.8214C53.5371 52.8214 53.5371 52.8077 53.5371 52.8009C53.2624 52.8761 52.9809 52.9923 52.7665 53.1838C52.3711 53.5052 52.2371 54.1479 52.217 54.2368H52.2371ZM56.6932 57.7514C56.7267 57.7036 56.6463 57.6762 56.6262 57.7514C56.6061 57.8267 56.6597 57.7925 56.6932 57.7514ZM57.5375 55.7616C57.5375 55.7616 57.3834 55.8984 57.4035 55.9257C57.4102 55.9326 57.5509 55.7685 57.5375 55.7616ZM57.5643 55.7343C57.5643 55.7343 57.6648 55.7001 57.6514 55.6864C57.638 55.6727 57.5375 55.6317 57.5375 55.6591C57.5375 55.7069 57.5442 55.7275 57.5643 55.7343ZM59.0519 57.0608C59.0117 57.0608 58.9715 57.1224 58.9849 57.1224C59.0117 57.1224 59.0318 57.1429 59.0586 57.136C59.0988 57.1292 59.0921 57.0608 59.0586 57.0608H59.0519ZM58.5159 55.6317C58.5159 55.6317 58.4756 55.6727 58.5092 55.6864C58.5226 55.6933 58.5695 55.6864 58.5896 55.6727C58.6097 55.6591 58.6365 55.6386 58.6298 55.6044C58.6298 55.5839 58.5762 55.5223 58.603 55.5018C58.6298 55.4745 58.6566 55.5155 58.6834 55.5018C58.7169 55.4881 58.7102 55.4676 58.7169 55.4403C58.7169 55.3992 58.7035 55.3514 58.6566 55.3514C58.6231 55.3514 58.5695 55.4403 58.5628 55.4471C58.5628 55.4539 58.5494 55.4881 58.5628 55.5223C58.5829 55.5702 58.5762 55.6249 58.5159 55.6249V55.6317ZM59.2462 55.6317C59.2462 55.6317 59.3066 55.7958 59.3066 55.8369C59.3066 55.8779 59.3267 55.9941 59.3535 55.9804C59.3736 55.9736 59.3736 55.8984 59.3669 55.871C59.3535 55.789 59.3401 55.7206 59.3066 55.6249C59.2932 55.577 59.2261 55.4198 59.1993 55.4198C59.1792 55.4198 59.2328 55.536 59.2395 55.5702C59.2395 55.5907 59.2395 55.6044 59.2395 55.6249L59.2462 55.6317ZM58.8576 53.7103C58.8911 53.724 58.8911 53.6556 58.8308 53.6077C58.7705 53.5599 58.6901 53.5804 58.7102 53.6077C58.7303 53.6283 58.8241 53.7035 58.8576 53.7171V53.7103ZM57.1958 53.2248C57.1221 53.177 57.1824 53.1086 57.1288 53.0676C57.0886 53.0334 56.9746 53.0676 56.9478 53.1017C56.9009 53.1633 57.0082 53.1428 57.0484 53.1633C57.0953 53.1838 57.1891 53.2659 57.2092 53.2522C57.2293 53.2317 57.2092 53.2317 57.1958 53.2248ZM57.638 52.9992C57.5375 52.9513 57.1757 52.9581 57.1824 53.0539C57.1891 53.1359 57.3968 53.0539 57.4437 53.0539C57.4973 53.0539 57.7184 53.047 57.6313 52.9992H57.638ZM56.5659 57.3548C56.5659 57.3548 56.5324 57.3412 56.5391 57.3548C56.5458 57.3685 56.5324 57.389 56.5458 57.4095C56.5659 57.4301 56.6128 57.4301 56.6396 57.4095C56.653 57.3959 56.6396 57.3685 56.6396 57.3617C56.6195 57.3548 56.5793 57.3685 56.5793 57.348L56.5659 57.3548ZM56.4252 56.6095C56.4252 56.6095 56.452 56.589 56.4721 56.589C56.4922 56.589 56.4721 56.6095 56.5056 56.6095C56.5391 56.6095 56.5659 56.5275 56.4721 56.5275C56.3917 56.5275 56.4051 56.6027 56.4252 56.6095ZM56.5525 56.6916C56.4922 56.6779 56.5056 56.7121 56.4654 56.7121C56.4051 56.7189 56.4587 56.6642 56.4252 56.6437C56.4118 56.63 56.3783 56.6847 56.3716 56.7189C56.3716 56.7326 56.3716 56.7873 56.3984 56.7941C56.4252 56.7941 56.5592 56.8147 56.6061 56.8215C56.6597 56.8352 56.6061 56.7053 56.5458 56.6916H56.5525ZM55.8757 57.4369C55.8757 57.4369 55.9092 57.3685 55.8958 57.3343C55.8824 57.3001 55.8221 57.3275 55.8154 57.3412C55.8154 57.3548 55.8556 57.4369 55.869 57.4369H55.8757ZM54.9845 57.4369C54.9845 57.4369 54.9845 57.3207 54.9644 57.307C54.9443 57.2933 54.9443 57.3207 54.9309 57.3207C54.9175 57.3207 54.9175 57.2796 54.9041 57.2796C54.8907 57.2796 54.9041 57.348 54.9242 57.389C54.9376 57.4301 54.9778 57.4916 54.9778 57.4437L54.9845 57.4369ZM54.9644 57.2318C54.9644 57.2318 54.9979 57.0813 54.9979 57.0266C54.9979 56.9719 54.9644 56.9241 54.9577 56.9241C54.951 56.9241 54.9577 56.9583 54.9577 57.013C54.9577 57.0882 54.9242 57.1565 54.9242 57.1839C54.9242 57.2113 54.9443 57.266 54.9644 57.2318ZM52.5923 56.7326C52.5923 55.5839 53.0278 54.5035 53.8252 53.6898C54.6226 52.8761 55.6814 52.4316 56.8071 52.4316C57.9329 52.4316 58.9916 52.8761 59.789 53.6898C60.5864 54.5035 61.022 55.5839 61.022 56.7326C61.022 57.8814 60.5864 58.9617 59.789 59.7754C58.9916 60.5891 57.9329 61.0336 56.8071 61.0336C55.6814 61.0336 54.6226 60.5891 53.8252 59.7754C53.0278 58.9617 52.5923 57.8814 52.5923 56.7326ZM53.8922 59.5771L54.3479 59.1122C54.2608 59.0164 54.1737 58.9139 54.0933 58.8045C54.0598 58.7908 54.0196 58.7703 53.9995 58.7361C53.9592 58.6882 53.9391 58.613 53.919 58.613C53.8989 58.613 53.919 58.6609 53.8788 58.6677C53.8252 58.6745 53.7448 58.5309 53.7113 58.4831C53.6711 58.4215 53.6108 58.4215 53.584 58.36C53.5773 58.3463 53.5572 58.2916 53.5371 58.3258C53.5036 58.3805 53.3964 58.2164 53.3696 58.2232C53.3428 58.2369 53.3696 58.2711 53.3495 58.2848C53.316 58.3121 53.2289 58.1617 53.1953 58.1754C53.1618 58.1891 53.1551 58.2096 53.1551 58.2506C53.1551 58.2916 53.202 58.401 53.1886 58.4079C53.1618 58.4215 53.0345 58.0796 53.0613 58.066C53.0747 58.0591 53.0747 58.0796 53.0948 58.066C53.1149 58.0523 53.0814 58.0318 53.0747 57.9908C53.068 57.9497 53.0345 57.9497 53.0278 57.9087C53.0278 57.8677 53.0814 57.8814 53.0814 57.8608C53.0814 57.8403 53.0814 57.8198 53.1015 57.7993C53.1216 57.7788 53.1685 57.7993 53.1752 57.7378C53.1819 57.6899 53.2087 57.7378 53.2154 57.7719C53.2154 57.813 53.3294 57.8267 53.3361 57.7993C53.3361 57.7788 53.2892 57.7788 53.2892 57.7651C53.2892 57.7309 53.3495 57.7651 53.3897 57.7651C53.4098 57.7651 53.4433 57.7378 53.4835 57.7651C53.5304 57.7856 53.5572 57.7993 53.584 57.8061C53.4835 57.4984 53.4232 57.1634 53.4165 56.8215H52.7732C52.7933 57.854 53.1886 58.8318 53.8922 59.5771ZM56.5525 55.7616C56.5525 55.7616 56.5123 55.8095 56.4855 55.8574C56.5592 55.83 56.6396 55.8095 56.72 55.8027V55.1394C56.3582 55.1599 56.0298 55.3103 55.7752 55.5428L56.2308 56.0078C56.2845 55.9668 56.3381 55.9257 56.4051 55.8916C56.4185 55.8847 56.4386 55.8779 56.452 55.871C56.4855 55.8163 56.5525 55.7548 56.5592 55.7616H56.5525ZM54.9577 58.2232C54.9577 58.2232 54.9577 58.2506 54.9577 58.2643C54.9912 58.3053 55.0247 58.3463 55.0582 58.3873L55.5139 57.9224C55.2994 57.6762 55.1453 57.3754 55.0917 57.0403C55.0783 57.0403 55.0649 57.0403 55.0582 57.0266C55.0515 57.013 55.0582 56.9924 55.085 56.9788C55.085 56.9309 55.0716 56.8762 55.0716 56.8283H54.7701C54.7701 56.8762 54.7902 56.9514 54.7634 56.9719C54.7366 56.9924 54.703 56.9719 54.6762 56.9719C54.6159 56.9788 54.6025 57.054 54.6226 57.1018C54.636 57.136 54.6494 57.1634 54.6427 57.1976C54.6427 57.2318 54.6226 57.2591 54.6695 57.2865C54.7164 57.3138 54.7902 57.4095 54.7902 57.4301C54.7835 57.4506 54.7366 57.4095 54.7298 57.4506C54.7298 57.4779 54.7969 57.4437 54.7969 57.5258C54.7969 57.5737 54.8036 57.6284 54.817 57.6625C54.8438 57.7309 54.8773 57.7788 54.8773 57.854C54.8773 57.9155 54.8639 57.9908 54.8907 58.0523C54.9175 58.1138 54.9711 58.1617 54.9711 58.2369L54.9577 58.2232ZM54.5757 57.1155C54.5355 57.0745 54.6025 56.9446 54.6092 56.9241C54.6159 56.8967 54.6762 56.8625 54.6896 56.8283H54.4216C54.4216 56.9719 54.4417 57.1155 54.4752 57.2523C54.5422 57.2796 54.6628 57.2249 54.5757 57.1155ZM54.4082 58.8933C54.435 58.9207 54.4551 58.948 54.4819 58.9754L54.5355 58.9207C54.4886 58.8865 54.4417 58.8728 54.4149 58.8865L54.4082 58.8933ZM55.5139 55.5428L55.0582 55.0779C54.6829 55.4881 54.4484 56.0352 54.4216 56.6369H54.7433C54.7969 56.548 54.7768 56.4796 54.7969 56.4317C54.817 56.3839 54.8438 56.336 54.8706 56.295C54.8974 56.254 54.9242 56.2129 54.9711 56.2129C55.0783 56.2129 55.0984 56.1582 55.1654 56.124C55.2324 56.0899 55.3463 56.0762 55.3329 56.042C55.3262 56.0215 55.0917 56.1104 55.085 56.0899C55.0783 56.0557 55.1587 56.0625 55.1922 56.0283C55.1989 56.0283 55.2056 56.0146 55.2123 56.0146C55.286 55.8369 55.3865 55.6796 55.5139 55.536V55.5428ZM55.4334 55.9804C55.4334 55.9804 55.4468 55.9804 55.4535 55.9736C55.534 55.9257 55.6345 55.9394 55.6814 55.9531C55.735 55.9804 55.8087 56.042 55.8422 56.0693C55.8556 56.083 55.8623 56.0625 55.9293 56.0488C55.9561 56.0488 55.9628 56.0762 56.003 56.0762C56.0164 56.0762 56.0298 56.0762 56.0432 56.0762L55.6479 55.6727C55.5675 55.7685 55.4938 55.871 55.4401 55.9804H55.4334ZM54.9845 56.4796C54.9309 56.4796 54.884 56.4933 54.8572 56.5411C54.8371 56.5753 54.8304 56.6095 54.8371 56.6369H55.0649C55.0649 56.589 55.0649 56.548 55.0783 56.507C55.0515 56.4933 55.0113 56.4796 54.9845 56.4796ZM55.6412 57.7856L56.0968 57.3207C56.0566 57.2728 56.0298 57.2249 55.9963 57.1702C55.9896 57.1771 55.9829 57.1839 55.9762 57.1976C55.9695 57.2181 55.9762 57.2865 55.9494 57.3207C55.9159 57.3617 55.8154 57.2386 55.7819 57.2249C55.7417 57.2113 55.7216 57.2591 55.7216 57.2728C55.7216 57.307 55.7216 57.3207 55.7082 57.3275C55.6948 57.3275 55.6144 57.2796 55.6479 57.266C55.6881 57.2523 55.6345 57.2181 55.6211 57.2044C55.5943 57.1839 55.5474 57.2044 55.5206 57.1702C55.5005 57.136 55.4535 57.1155 55.4401 57.1087C55.4334 57.1087 55.3865 57.0882 55.3597 57.1087C55.3396 57.1224 55.3128 57.095 55.2927 57.0813C55.286 57.0745 55.2726 57.0608 55.2659 57.0471C55.3195 57.3343 55.4468 57.5942 55.6345 57.7993L55.6412 57.7856ZM56.0968 56.9788C56.0968 56.9788 56.0968 56.9719 56.0968 56.9651C56.0968 56.9651 56.0968 56.9651 56.0968 56.9583C56.0968 56.9583 56.0968 56.9514 56.0968 56.9446C56.0968 56.9446 56.0968 56.9377 56.0968 56.9309C56.0968 56.9309 56.0968 56.9309 56.0968 56.9241C56.0968 56.9241 56.0968 56.9241 56.0968 56.9172C56.0968 56.9104 56.1102 56.9104 56.1169 56.9104C56.1303 56.9104 56.1504 56.9241 56.1705 56.9241C56.1839 56.9241 56.1973 56.9241 56.2107 56.9036C56.2107 56.8967 56.2241 56.8899 56.2241 56.883C56.2241 56.8762 56.2241 56.8694 56.2241 56.8625C56.2241 56.8625 56.2241 56.8625 56.2241 56.8557C56.2241 56.8488 56.2107 56.8488 56.1906 56.8557C56.1906 56.8557 56.1839 56.8557 56.1772 56.8557C56.1705 56.8557 56.1638 56.8557 56.1571 56.8557C56.1571 56.8557 56.1504 56.8557 56.1437 56.8557C56.1303 56.8557 56.1236 56.8557 56.1169 56.842C56.1169 56.842 56.1169 56.842 56.1169 56.8283C56.1169 56.8283 56.1169 56.8215 56.1102 56.8147C56.0968 56.801 56.0834 56.7873 56.0633 56.7805C56.0566 56.7805 56.0432 56.7668 56.0365 56.76C56.0365 56.76 56.0298 56.7531 56.0231 56.7463C56.0231 56.7463 56.0231 56.7394 56.0164 56.7326C56.0164 56.7326 56.0164 56.7326 56.0097 56.7326C56.0097 56.7326 56.0097 56.7326 56.003 56.7326C55.9829 56.7326 55.9561 56.7326 55.936 56.7531C55.936 56.7531 55.9293 56.76 55.9226 56.7668C55.9226 56.7668 55.9159 56.7736 55.9092 56.7805C55.9092 56.7805 55.9025 56.7941 55.8958 56.801C55.8891 56.8147 55.8824 56.8283 55.8757 56.8488C55.8221 56.9856 55.7618 56.9446 55.7752 56.9924C55.7752 56.9924 55.7886 56.9993 55.8154 57.0061C55.8221 57.0061 55.8355 57.0061 55.8422 57.0061C55.8489 57.0061 55.8623 57.0061 55.8757 57.0061C55.8891 57.0061 55.8958 57.0061 55.9092 57.0061H55.9226C55.9226 57.0061 55.9226 57.0061 55.9293 57.0061C55.9293 57.0061 55.9293 57.0061 55.936 57.0061C55.936 57.0061 55.936 57.0061 55.9427 57.0061C55.9427 57.0061 55.9427 57.0061 55.9494 57.0061C55.9494 57.0061 55.9561 57.0061 55.9628 57.0061C55.9695 57.0061 55.9762 57.0061 55.9829 56.9993C55.9896 56.9993 55.9963 56.9993 56.003 56.9993C56.0164 56.9993 56.0298 56.9993 56.0365 56.9993C56.0432 56.9993 56.0566 57.0061 56.07 57.0266C56.0767 57.0403 56.0901 57.0608 56.0901 57.0813L56.0968 56.9788ZM56.7133 54.9548V54.2984C56.1236 54.3189 55.5876 54.565 55.1855 54.9479L55.6412 55.4129C55.9293 55.1462 56.3046 54.9821 56.7133 54.9548ZM56.7133 54.1137V53.4573C55.8958 53.4778 55.152 53.8197 54.6025 54.3531L55.0582 54.818C55.4938 54.4009 56.0767 54.1411 56.7133 54.1137ZM54.4752 54.483C53.9525 55.0505 53.6175 55.8095 53.5974 56.6369H54.2407C54.2608 55.9873 54.5221 55.3924 54.9309 54.9479L54.4752 54.483ZM53.5974 56.8215C53.6041 57.1634 53.6644 57.4916 53.7716 57.7993C53.7716 57.7993 53.7783 57.7993 53.785 57.7993C53.852 57.7993 53.9391 57.7993 53.9794 57.7651C54.0397 57.7172 53.9794 57.5395 54.0263 57.4642C54.0732 57.3754 54.2005 57.1565 54.234 57.1497C54.2675 57.1497 54.2675 57.1702 54.2809 57.1771C54.2608 57.0608 54.2474 56.9446 54.2474 56.8215H53.6041H53.5974ZM56.7133 60.1857C55.8489 60.1652 55.0582 59.8028 54.4752 59.2352L54.0196 59.7002C54.75 60.4182 55.7015 60.8148 56.72 60.8421V60.1857H56.7133ZM56.7133 59.3446C56.1437 59.3241 55.601 59.1122 55.1654 58.7429C55.1721 58.7566 55.1855 58.7703 55.1922 58.7771C55.219 58.8318 55.3262 58.9344 55.2592 58.9754C55.2056 59.0096 55.1118 58.9891 55.0649 58.9891C55.0113 58.9891 54.9309 59.0711 54.8773 59.0848C54.817 59.0985 54.7835 59.0848 54.7231 59.0643C54.7097 59.0643 54.6896 59.0438 54.6695 59.0301L54.5958 59.1053C55.152 59.6387 55.8958 59.9806 56.7066 60.0011V59.3446H56.7133ZM56.7133 59.1122C56.6195 59.119 56.4855 59.1122 56.452 59.0916C56.385 59.0438 56.3046 58.9959 56.2912 58.9617C56.2778 58.8933 56.1839 58.8455 56.1839 58.7839C56.1839 58.7156 56.2778 58.695 56.251 58.6267C56.2308 58.572 56.2845 58.5036 56.3783 58.4557C56.0968 58.3873 55.8422 58.2438 55.6278 58.0523L55.1721 58.5173C55.5943 58.9139 56.1303 59.1395 56.7066 59.1669V59.119L56.7133 59.1122ZM56.854 58.2301C56.921 58.2164 56.9948 58.1959 57.0551 58.1891C57.1221 58.1822 57.0551 58.2779 57.0953 58.2848C57.1422 58.2848 57.3432 58.3258 57.3566 58.2848C57.37 58.2438 57.37 58.2301 57.4102 58.2232C57.4906 58.2027 57.5509 58.2096 57.6246 58.1549C57.6514 58.1344 57.6983 58.1275 57.7117 58.1002C57.7251 58.0728 57.6983 57.9361 57.6514 57.9566C57.6246 57.9702 57.5978 58.0044 57.5509 58.0249C57.504 58.0455 57.4705 58.0591 57.437 58.0113C57.4102 57.9702 57.4571 57.9361 57.4772 57.9087C57.5174 57.8677 57.5509 57.8267 57.5911 57.8267C57.6045 57.8267 57.6916 57.7856 57.6849 57.7446C57.6782 57.6899 57.571 57.7446 57.5509 57.7309C57.5375 57.7172 57.5509 57.6762 57.5375 57.6694C57.5241 57.6694 57.4906 57.7172 57.5174 57.7446C57.5308 57.7583 57.4906 57.7993 57.4504 57.7719C57.4169 57.7514 57.4102 57.8745 57.4102 57.895C57.4102 57.9155 57.4571 57.9087 57.4303 57.9497C57.3968 57.9908 57.3901 57.9634 57.3633 57.9839C57.3365 58.0113 57.3298 58.0181 57.3633 58.0523C57.3901 58.0796 57.3499 58.1344 57.3365 58.0865C57.3365 58.0523 57.2628 58.066 57.2494 58.0249C57.236 57.9839 57.1824 57.9908 57.1087 57.9566C57.0551 57.9292 57.0618 58.0113 57.1489 58.0318C57.2226 58.0523 57.2226 58.0591 57.1958 58.107C57.1757 58.148 57.1824 58.0796 57.0953 58.0523C57.035 58.0386 57.035 58.0044 56.988 58.0044C56.9411 58.0044 56.9545 58.0455 56.9076 58.0386C56.8741 58.0318 56.8674 58.0796 56.8339 58.0933C56.7937 58.1138 56.7937 58.1891 56.7535 58.2096C56.6932 58.2438 56.5659 58.2164 56.5726 58.1549C56.5726 58.0933 56.5793 58.0455 56.6195 58.0249C56.653 58.0044 56.6999 58.0591 56.7468 58.0386C56.7937 58.0181 56.7803 57.9702 56.7468 57.9361C56.7401 57.9224 56.7066 57.9087 56.7066 57.895C56.7066 57.8814 56.7736 57.8745 56.8071 57.854C56.8406 57.8335 56.8741 57.7719 56.8942 57.7583C56.9143 57.7446 56.9478 57.7378 56.9478 57.7241C56.9478 57.7104 56.921 57.6762 56.9277 57.6557C56.9344 57.6352 56.9344 57.6215 56.9545 57.6215C56.9679 57.6215 56.988 57.6694 56.9813 57.6831C56.9679 57.6967 56.988 57.7172 57.0082 57.7104C57.0283 57.7036 57.1087 57.6694 57.1288 57.6625C57.1556 57.6557 57.1221 57.5873 57.1288 57.5737C57.1355 57.56 57.1489 57.5737 57.1556 57.5668C57.169 57.5531 57.1288 57.5463 57.1355 57.519C57.1355 57.4984 57.2159 57.4779 57.1958 57.4642C57.1757 57.4506 57.1422 57.4916 57.1288 57.4984C57.0886 57.519 57.0685 57.4711 57.0685 57.4369C57.0685 57.4232 57.0886 57.3617 57.0685 57.3548C57.0417 57.3412 57.035 57.4095 57.035 57.4232C57.035 57.4437 57.0149 57.4711 57.035 57.5258C57.0484 57.5531 57.0417 57.6557 57.0149 57.6694C56.9813 57.6831 56.9679 57.6215 56.9545 57.5942C56.9545 57.5942 56.9545 57.5873 56.9478 57.5873C56.9478 57.5873 56.9478 57.601 56.9411 57.601C56.9411 57.601 56.9344 57.6147 56.9277 57.6352C56.9277 57.6489 56.9143 57.6557 56.9076 57.6557C56.8741 57.6557 56.8406 57.6557 56.8071 57.6557C56.7937 57.6557 56.7803 57.6557 56.7669 57.6557C56.7669 57.6762 56.7803 57.6967 56.787 57.7104C56.8071 57.7446 56.8406 57.7719 56.8339 57.7993C56.8339 57.8267 56.7267 57.8472 56.7133 57.8267C56.6999 57.8061 56.7401 57.7583 56.7334 57.7378C56.7334 57.6967 56.7066 57.6762 56.7133 57.6489C56.5324 57.6284 56.3582 57.5531 56.2241 57.4437L55.7685 57.9087C55.9963 58.1138 56.2778 58.2506 56.5927 58.2985C56.6396 58.2711 56.653 58.2232 56.6932 58.2506C56.7468 58.2916 56.8138 58.2369 56.8607 58.2301H56.854ZM56.8942 59.3378V59.9942C57.1556 59.9874 57.4102 59.9464 57.6514 59.878C57.5978 59.837 57.5777 59.7617 57.5174 59.7412C57.4102 59.7002 57.3834 59.6387 57.437 59.5361C57.4705 59.4814 57.4571 59.4609 57.4169 59.4062C57.37 59.3378 57.3164 59.3036 57.2695 59.2899C57.1422 59.3104 57.0149 59.331 56.8875 59.331L56.8942 59.3378ZM57.2025 59.119C57.2025 59.119 57.1355 59.0916 57.1087 59.1053C57.0015 59.1327 57.0417 59.0506 56.8942 59.0711V59.1532C57.0015 59.1532 57.102 59.1395 57.2025 59.119ZM59.5947 59.6934L59.139 59.2284C58.9045 59.454 58.6365 59.6523 58.3416 59.8028C58.2478 59.878 58.1272 59.9327 58.0401 59.9737C57.9999 59.9942 57.9597 60.0147 57.9195 60.0147C57.9061 60.0147 57.8927 60.0147 57.8793 60.0011C57.571 60.1105 57.236 60.1652 56.8942 60.1788V60.8353C57.9061 60.8148 58.8643 60.4113 59.5947 59.6934ZM58.6901 54.9343C58.6901 54.9343 58.6901 54.9343 58.6901 54.9411C58.7973 55.0573 58.8911 55.1873 58.9782 55.324C58.9849 55.3103 58.9983 55.2967 59.0117 55.3172C59.0318 55.3445 58.9849 55.3924 59.0586 55.3787C59.0988 55.3719 59.0921 55.4266 59.0586 55.4539C59.0787 55.495 59.0988 55.5292 59.1189 55.5702C59.1457 55.5839 59.1591 55.5975 59.1658 55.6112C59.1792 55.6591 59.1993 55.7069 59.1993 55.7616C59.2328 55.8437 59.2597 55.9326 59.2865 56.0146C59.32 55.9873 59.3602 56.001 59.3602 56.0488C59.3602 56.0967 59.3468 56.1514 59.3267 56.1924C59.3535 56.336 59.3736 56.4796 59.3803 56.63H60.0236C60.0102 56.2061 59.9163 55.7822 59.7488 55.3924C59.7354 55.4061 59.722 55.4061 59.6952 55.4334C59.6617 55.4745 59.6081 55.4198 59.5813 55.3856C59.5277 55.3172 59.4004 55.1257 59.3401 55.1189C59.2932 55.1121 59.2597 55.0505 59.206 55.0368C59.1591 55.0232 59.0921 54.9958 59.0854 54.9411C59.0787 54.8864 59.0586 54.8659 58.9983 54.8522C58.938 54.8454 58.8911 54.818 58.8442 54.7702L58.6901 54.9274C58.6901 54.9274 58.6901 54.9274 58.6901 54.9343ZM59.0988 58.9344L59.1323 58.9686C59.655 58.401 59.99 57.6489 60.0101 56.8147H59.3669C59.3468 57.4642 59.0854 58.0591 58.6767 58.5036L58.9112 58.7429C58.9112 58.7429 58.9112 58.7429 58.9112 58.7361C58.9313 58.695 58.9246 58.6403 58.9246 58.5993C58.9246 58.572 59.0184 58.5788 59.0184 58.6198C59.0184 58.654 59.0385 58.6814 59.072 58.7634C59.0921 58.825 59.1055 58.8797 59.0921 58.9275L59.0988 58.9344ZM58.6097 59.3446C58.5896 59.3857 58.5092 59.4609 58.5226 59.4882C58.6968 59.372 58.8576 59.2489 59.0117 59.0985L58.5561 58.6335C58.5561 58.6335 58.489 58.695 58.4555 58.7224C58.4488 58.7771 58.4555 58.8181 58.5159 58.8386C58.5829 58.8592 58.7035 58.9344 58.6767 59.0027C58.6499 59.0643 58.5829 59.16 58.5494 59.2216C58.5226 59.2763 58.6298 59.2968 58.6097 59.3446ZM58.7169 56.6232C58.7169 56.6232 58.7169 56.6232 58.7169 56.63H59.1926C59.1926 56.5617 59.1859 56.4933 59.1792 56.4249C59.1792 56.4317 59.1725 56.4386 59.1658 56.4454C59.1323 56.5206 59.1256 56.4728 59.1256 56.4454C59.1256 56.4044 59.1457 56.3634 59.1591 56.3223C59.1591 56.3018 59.1524 56.2745 59.1457 56.254C59.1323 56.2745 59.1122 56.2881 59.0787 56.3087C59.0586 56.3223 59.0385 56.3702 59.0318 56.3907C59.0251 56.4112 58.9715 56.3907 58.9246 56.4044C58.8509 56.4386 58.7705 56.4454 58.8241 56.5275C58.8576 56.5753 58.737 56.5617 58.7169 56.63V56.6232ZM58.5494 55.071L58.0937 55.536C58.1741 55.6249 58.2411 55.7206 58.3014 55.8232C58.355 55.83 58.4287 55.8505 58.4756 55.9189C58.5092 55.9599 58.603 56.0488 58.5896 56.0899C58.5829 56.1172 58.603 56.1446 58.6231 56.1582C58.6566 56.1856 58.6834 56.1787 58.6968 56.1582C58.7303 56.1172 58.737 56.0557 58.7772 56.0146C58.8308 55.9668 58.9447 56.1035 58.9447 56.124C58.9447 56.1514 58.9179 56.1514 58.9045 56.1993C58.8911 56.2608 58.8442 56.3292 58.9045 56.3497C58.9849 56.377 58.9983 56.3497 59.0385 56.2881C59.0586 56.2608 59.0519 56.2198 59.072 56.1924C59.0854 56.1787 59.1055 56.1651 59.1189 56.1582C59.0854 56.0283 59.0452 55.8984 58.9983 55.7822C58.9849 55.7685 58.9715 55.7616 58.9514 55.7548C58.9246 55.748 58.938 55.7206 58.8978 55.7069C58.8509 55.6933 58.8375 55.6796 58.8308 55.5975C58.8308 55.536 58.8844 55.618 58.8978 55.6044C58.8978 55.6044 58.8978 55.6044 58.9045 55.5907C58.804 55.3992 58.6834 55.2283 58.5427 55.071H58.5494ZM57.9932 55.7001C57.9932 55.7001 57.953 55.7001 57.9396 55.6864L57.7922 55.8369C57.7922 55.8369 57.8525 55.8369 57.886 55.8505C57.9262 55.871 57.9061 55.7343 57.9664 55.748C58.0267 55.7616 58.0468 55.8027 57.9932 55.8232C57.953 55.8369 58.0066 55.871 57.953 55.8916C57.9061 55.9052 57.9932 55.9463 57.9865 55.9668C57.9865 55.9941 57.9262 56.001 58.0133 56.0283C58.1071 56.0557 58.0133 55.9463 58.0267 55.9326C58.0468 55.9121 58.0937 55.9599 58.1071 55.9394C58.1071 55.9326 58.1205 55.9189 58.1339 55.9052C58.0937 55.83 58.0401 55.7616 57.9865 55.6933L57.9932 55.7001ZM57.7587 58.1412C57.7587 58.1412 57.7251 58.1412 57.7184 58.1617C57.7117 58.1754 57.9731 58.2985 58.0133 58.3053C58.0401 58.3053 58.0937 58.3326 58.1875 58.3053C58.2545 58.2916 58.2679 58.3258 58.3014 58.319C58.3416 58.319 58.3684 58.2574 58.3952 58.2232C58.4622 58.1275 58.4488 58.1138 58.4622 58.1002C58.4823 58.0796 58.5494 58.2301 58.5427 58.319C58.5427 58.3326 58.5427 58.3463 58.5427 58.36H58.5494C58.9246 57.9566 59.1591 57.4095 59.1859 56.8078H58.6968C58.6968 56.8078 58.7437 56.8762 58.7705 56.9377C58.7973 56.9924 58.8107 57.0745 58.8509 57.0745C58.9179 57.0745 58.9849 57.136 58.9916 57.1839C58.9916 57.2865 58.6901 57.307 58.6499 57.2933C58.6164 57.2796 58.5963 57.2796 58.5896 57.3343C58.5896 57.3959 58.4823 57.3959 58.4354 57.4301C58.3885 57.4711 58.3818 57.5463 58.3483 57.5942C58.3282 57.6284 58.2143 57.7309 58.1875 57.7583C58.1138 57.813 57.9798 57.813 58.0401 57.8472C58.087 57.8745 58.1875 57.8814 58.1741 57.854C58.1607 57.8267 58.1808 57.8267 58.2009 57.8472C58.2143 57.8608 58.2612 57.8335 58.2612 57.7993C58.2612 57.7719 58.2545 57.7241 58.2813 57.7172C58.3282 57.7172 58.3684 57.6625 58.3952 57.6694C58.422 57.6694 58.4555 57.7309 58.4287 57.9019C58.4019 58.0728 58.3215 58.1891 58.2947 58.2438C58.2612 58.2985 58.2277 58.2574 58.1808 58.2301C58.1205 58.2027 58.0334 58.2027 57.9731 58.1822C57.9396 58.1685 57.7587 58.1002 57.7654 58.1275L57.7587 58.1412ZM60.8344 56.8078H60.1911C60.171 57.6899 59.8158 58.4968 59.2597 59.0916L59.7153 59.5566C60.4189 58.8113 60.8076 57.8403 60.8344 56.801V56.8078ZM59.7153 53.8676L59.2395 54.3531C59.2865 54.4283 59.3669 54.5308 59.4808 54.6471C59.5277 54.6949 59.5813 54.7428 59.6215 54.7907C59.6617 54.8317 59.923 55.1599 59.8694 55.2146C59.8694 55.2146 59.8627 55.2215 59.856 55.2215C60.0571 55.6591 60.171 56.1377 60.1844 56.6164H60.8277C60.8076 55.5839 60.4122 54.6061 59.7086 53.8607L59.7153 53.8676ZM56.8875 53.259C57.4236 53.2727 57.9463 53.4163 58.4086 53.6693C58.4488 53.6624 58.4957 53.6556 58.5226 53.6419C58.5829 53.6146 58.6901 53.6761 58.7504 53.7103C58.7973 53.7377 58.8375 53.7855 58.8911 53.8129C58.9447 53.8471 59.0385 53.936 59.0586 54.0317C59.0787 54.1274 59.139 54.1206 59.1055 54.1548C59.0921 54.1753 59.1122 54.1821 59.139 54.1958L59.588 53.7377C58.8576 53.0197 57.9061 52.6231 56.8875 52.5957V53.2522V53.259ZM56.8875 54.1001C57.437 54.1206 57.9396 54.312 58.3483 54.6334C58.3014 54.5719 58.2545 54.5035 58.2344 54.483C58.1942 54.4419 58.0468 54.3872 58.0602 54.3599C58.0736 54.3325 58.2076 54.4419 58.2277 54.4214C58.2545 54.4009 58.1607 54.2778 58.1674 54.271C58.1741 54.271 58.288 54.3736 58.3416 54.4693C58.3617 54.5035 58.422 54.483 58.4689 54.5172C58.5092 54.5445 58.5159 54.5924 58.5494 54.6266C58.5494 54.6266 58.6298 54.6744 58.5829 54.6676C58.5695 54.6676 58.5494 54.6402 58.536 54.6539C58.5293 54.6608 58.536 54.7086 58.5695 54.7565L58.7839 54.5377C58.7504 54.4761 58.6901 54.3872 58.6499 54.3804C58.603 54.3667 58.5762 54.4078 58.5494 54.4351C58.5159 54.4625 58.4823 54.4693 58.4756 54.4488C58.4756 54.4283 58.4756 54.3804 58.4756 54.3599C58.4756 54.3325 58.4555 54.312 58.4488 54.2915C58.4354 54.2368 58.4555 54.1684 58.422 54.1342C58.3818 54.0932 58.3617 54.0317 58.3282 53.9838C58.2947 53.9291 58.2411 53.8539 58.2344 53.7855C57.819 53.5736 57.3566 53.4505 56.8741 53.4368V54.0932L56.8875 54.1001ZM56.8875 54.9411C57.2963 54.9616 57.6715 55.1326 57.9597 55.3992L58.4153 54.9343C58.0133 54.5514 57.4772 54.312 56.8875 54.2847V54.9411ZM56.8875 55.7822C56.9478 55.7822 57.0082 55.8027 57.0685 55.8163C57.0819 55.7753 57.1221 55.7616 57.1556 55.7343C57.1958 55.7069 57.2226 55.6796 57.2159 55.748C57.2159 55.7958 57.1891 55.83 57.169 55.8505C57.2293 55.8779 57.2896 55.9121 57.3499 55.9531C57.3633 55.9599 57.3767 55.9736 57.3834 55.9804L57.4437 55.9189C57.4437 55.9189 57.4437 55.9189 57.4437 55.9121C57.4437 55.8779 57.4973 55.83 57.5576 55.8095L57.7587 55.6044C57.7587 55.6044 57.752 55.6044 57.7452 55.6044C57.7184 55.6044 57.6782 55.6591 57.6514 55.6454C57.6246 55.6249 57.7385 55.5223 57.7922 55.5428C57.7989 55.5428 57.8056 55.5428 57.8123 55.5497L57.8391 55.5223C57.5844 55.2898 57.2561 55.1394 56.8942 55.1189V55.7753L56.8875 55.7822ZM56.8004 55.9599C56.7267 55.9599 56.653 55.9736 56.5793 55.9941C56.5726 56.0078 56.5659 56.0146 56.5659 56.0215C56.586 56.0488 56.6396 55.9941 56.6463 56.042C56.6463 56.0762 56.586 56.0488 56.5927 56.0762C56.5927 56.0967 56.6396 56.0899 56.6463 56.1172C56.6463 56.1446 56.6195 56.1993 56.5994 56.2129C56.5726 56.2334 56.4185 56.254 56.3984 56.2881C56.385 56.3223 56.3716 56.3497 56.3448 56.377C56.318 56.4044 56.1973 56.4796 56.1973 56.5001C56.1973 56.548 56.2577 56.4864 56.2711 56.4728C56.2979 56.4454 56.3314 56.4454 56.3716 56.4181C56.4252 56.3839 56.4453 56.5001 56.3917 56.5001C56.3582 56.5001 56.3247 56.6095 56.2644 56.589C56.251 56.589 56.2107 56.5548 56.1973 56.589C56.1906 56.6164 56.2845 56.6232 56.3113 56.6437C56.385 56.6916 56.251 56.6916 56.2308 56.7053C56.2107 56.7189 56.2174 56.7463 56.251 56.7394C56.2778 56.7258 56.318 56.6984 56.3314 56.7394C56.3515 56.8078 56.2241 57.0403 56.1906 57.0198C56.1705 57.0061 56.1504 57.0198 56.1303 57.0335C56.1571 57.0882 56.1906 57.136 56.2241 57.1839C56.251 57.1429 56.2912 57.0813 56.3046 57.0813C56.3314 57.0813 56.318 57.0608 56.3314 57.0471C56.3448 57.0266 56.3716 57.0471 56.3716 57.0198C56.3716 56.9924 56.4453 56.9514 56.452 56.9104C56.452 56.8899 56.4319 56.8625 56.4386 56.8488C56.452 56.8283 56.4587 56.8215 56.4788 56.8147C56.4922 56.8147 56.5257 56.842 56.5391 56.8283C56.5525 56.8147 56.5994 56.8283 56.6396 56.8488C56.6597 56.8625 56.6932 56.8488 56.7133 56.8762C56.7401 56.9172 56.7133 56.9241 56.7133 56.9309C56.7133 56.9377 56.7334 56.9309 56.7401 56.9309C56.7535 56.9446 56.6664 56.9993 56.6731 57.0335C56.6865 57.0608 56.5927 57.2113 56.5726 57.2318C56.5391 57.2591 56.4855 57.2318 56.4654 57.2318C56.4453 57.2318 56.4386 57.2591 56.4051 57.2523C56.3783 57.2523 56.3448 57.2523 56.3113 57.2728C56.4386 57.389 56.6128 57.4574 56.7937 57.4574C56.8339 57.4574 56.8741 57.4574 56.9076 57.4506C56.9344 57.4164 56.9411 57.3822 56.9478 57.3412C56.9478 57.3207 56.9478 57.2933 56.9612 57.2728C56.9679 57.2591 57.0283 57.1839 57.0551 57.1839C57.0752 57.1839 57.0886 57.2044 57.1221 57.1907C57.1824 57.1702 57.2159 57.1907 57.2159 57.2113C57.2159 57.2454 57.1422 57.2386 57.1422 57.2591C57.1422 57.2728 57.1958 57.2933 57.2159 57.2728C57.2494 57.2318 57.2427 57.1839 57.236 57.1702C57.2092 57.1429 57.2159 57.1292 57.2494 57.136C57.2695 57.1429 57.2695 57.0608 57.2896 57.0266C57.3164 56.9856 57.2427 57.013 57.2092 57.0198C57.1757 57.0198 57.1556 56.9583 57.1556 56.9377C57.1556 56.9241 57.2159 56.9993 57.2427 56.9993C57.2762 56.9993 57.3164 56.9651 57.3164 56.9309C57.3164 56.9036 57.2561 56.8967 57.2427 56.8625C57.2427 56.842 57.2963 56.8625 57.2896 56.842C57.2896 56.8283 57.2896 56.7873 57.2561 56.7668C57.2226 56.7531 57.1891 56.6369 57.1556 56.6232C57.1288 56.6164 57.1087 56.6506 57.0953 56.6642C57.0819 56.6779 57.0551 56.6574 57.0685 56.6437C57.0886 56.6232 57.1288 56.589 57.1355 56.5617C57.1489 56.5138 57.2159 56.5617 57.2025 56.4933C57.1891 56.4181 57.1288 56.4317 57.1556 56.3976C57.1824 56.3634 57.1623 56.3018 57.102 56.3155C57.0752 56.3155 57.0417 56.2745 57.0417 56.2334C57.0417 56.2129 56.9746 56.2129 56.9813 56.1924C56.9813 56.1446 56.9143 56.1377 56.8741 56.1446C56.8339 56.1446 56.7468 56.083 56.7401 56.0625C56.7334 56.0488 56.6731 56.0762 56.6932 56.0146C56.7133 55.9531 56.7736 56.0283 56.7937 56.0146C56.8205 55.9941 56.8138 55.9736 56.8071 55.9599C56.8071 55.9599 56.8004 55.9599 56.7937 55.9599H56.8004ZM54.0062 53.765L54.4618 54.23C55.0515 53.6624 55.8355 53.3069 56.6999 53.2795V52.6231C55.6881 52.6436 54.7298 53.047 53.9995 53.765H54.0062ZM52.7598 56.6506H53.4031C53.4232 55.7685 53.7783 54.9616 54.3345 54.3667L53.8788 53.9018C53.1752 54.6471 52.7866 55.618 52.7598 56.6574V56.6506Z" fill="#009BD9"/>
</g>
<defs>
<filter id="filter0_d_558_825" x="-4.16406" y="-11.9102" width="219.592" height="145.628" filterUnits="userSpaceOnUse" color-interpolation-filters="sRGB">
<feFlood flood-opacity="0" result="BackgroundImageFix"/>
<feColorMatrix in="SourceAlpha" type="matrix" values="0 0 0 0 0 0 0 0 0 0 0 0 0 0 0 0 0 0 127 0" result="hardAlpha"/>
<feOffset dx="10" dy="4"/>
<feGaussianBlur stdDeviation="17"/>
<feComposite in2="hardAlpha" operator="out"/>
<feColorMatrix type="matrix" values="0 0 0 0 0 0 0 0 0 0 0 0 0 0 0 0 0 0 0.25 0"/>
<feBlend mode="normal" in2="BackgroundImageFix" result="effect1_dropShadow_558_825"/>
<feBlend mode="normal" in="SourceGraphic" in2="effect1_dropShadow_558_825" result="shape"/>
</filter>
<filter id="filter1_f_558_825" x="-68.4844" y="-107.217" width="328.119" height="328.12" filterUnits="userSpaceOnUse" color-interpolation-filters="sRGB">
<feFlood flood-opacity="0" result="BackgroundImageFix"/>
<feBlend mode="normal" in="SourceGraphic" in2="BackgroundImageFix" result="shape"/>
<feGaussianBlur stdDeviation="35" result="effect1_foregroundBlur_558_825"/>
</filter>
<filter id="filter2_f_558_825" x="-68.4844" y="-107.217" width="328.119" height="328.12" filterUnits="userSpaceOnUse" color-interpolation-filters="sRGB">
<feFlood flood-opacity="0" result="BackgroundImageFix"/>
<feBlend mode="normal" in="SourceGraphic" in2="BackgroundImageFix" result="shape"/>
<feGaussianBlur stdDeviation="35" result="effect1_foregroundBlur_558_825"/>
</filter>
<clipPath id="clip0_558_825">
<rect width="89.993" height="10.3045" fill="white" transform="translate(50.75 52.4385)"/>
</clipPath>
</defs>
</svg>
